<?xml version="1.0" encoding="utf-8" standalone="no"?>
<!DOCTYPE svg PUBLIC "-//W3C//DTD SVG 1.1//EN"
  "http://www.w3.org/Graphics/SVG/1.1/DTD/svg11.dtd">
<!-- Created with matplotlib (http://matplotlib.org/) -->
<svg height="612pt" version="1.1" viewBox="0 0 1224 612" width="1224pt" xmlns="http://www.w3.org/2000/svg" xmlns:xlink="http://www.w3.org/1999/xlink">
 <defs>
  <style type="text/css">
*{stroke-linecap:butt;stroke-linejoin:round;}
  </style>
 </defs>
 <g id="figure_1">
  <g id="patch_1">
   <path d="M 0 612 
L 1224 612 
L 1224 0 
L 0 0 
z
" style="fill:#ffffff;"/>
  </g>
  <g id="axes_1">
   <g id="patch_2">
    <path d="M 47.38125 570.84375 
L 595.728906 570.84375 
L 595.728906 25.918125 
L 47.38125 25.918125 
z
" style="fill:#ffffff;"/>
   </g>
   <g id="matplotlib.axis_1">
    <g id="xtick_1">
     <g id="line2d_1">
      <defs>
       <path d="M 0 0 
L 0 3.5 
" id="mc865af386d" style="stroke:#000000;stroke-width:0.8;"/>
      </defs>
      <g>
       <use style="stroke:#000000;stroke-width:0.8;" x="72.306143" xlink:href="#mc865af386d" y="570.84375"/>
      </g>
     </g>
     <g id="text_1">
      <!-- 0 -->
      <defs>
       <path d="M 31.78125 66.40625 
Q 24.171875 66.40625 20.328125 58.90625 
Q 16.5 51.421875 16.5 36.375 
Q 16.5 21.390625 20.328125 13.890625 
Q 24.171875 6.390625 31.78125 6.390625 
Q 39.453125 6.390625 43.28125 13.890625 
Q 47.125 21.390625 47.125 36.375 
Q 47.125 51.421875 43.28125 58.90625 
Q 39.453125 66.40625 31.78125 66.40625 
z
M 31.78125 74.21875 
Q 44.046875 74.21875 50.515625 64.515625 
Q 56.984375 54.828125 56.984375 36.375 
Q 56.984375 17.96875 50.515625 8.265625 
Q 44.046875 -1.421875 31.78125 -1.421875 
Q 19.53125 -1.421875 13.0625 8.265625 
Q 6.59375 17.96875 6.59375 36.375 
Q 6.59375 54.828125 13.0625 64.515625 
Q 19.53125 74.21875 31.78125 74.21875 
z
" id="DejaVuSans-30"/>
      </defs>
      <g transform="translate(69.124893 585.442188)scale(0.1 -0.1)">
       <use xlink:href="#DejaVuSans-30"/>
      </g>
     </g>
    </g>
    <g id="xtick_2">
     <g id="line2d_2">
      <g>
       <use style="stroke:#000000;stroke-width:0.8;" x="172.005717" xlink:href="#mc865af386d" y="570.84375"/>
      </g>
     </g>
     <g id="text_2">
      <!-- 200000 -->
      <defs>
       <path d="M 19.1875 8.296875 
L 53.609375 8.296875 
L 53.609375 0 
L 7.328125 0 
L 7.328125 8.296875 
Q 12.9375 14.109375 22.625 23.890625 
Q 32.328125 33.6875 34.8125 36.53125 
Q 39.546875 41.84375 41.421875 45.53125 
Q 43.3125 49.21875 43.3125 52.78125 
Q 43.3125 58.59375 39.234375 62.25 
Q 35.15625 65.921875 28.609375 65.921875 
Q 23.96875 65.921875 18.8125 64.3125 
Q 13.671875 62.703125 7.8125 59.421875 
L 7.8125 69.390625 
Q 13.765625 71.78125 18.9375 73 
Q 24.125 74.21875 28.421875 74.21875 
Q 39.75 74.21875 46.484375 68.546875 
Q 53.21875 62.890625 53.21875 53.421875 
Q 53.21875 48.921875 51.53125 44.890625 
Q 49.859375 40.875 45.40625 35.40625 
Q 44.1875 33.984375 37.640625 27.21875 
Q 31.109375 20.453125 19.1875 8.296875 
z
" id="DejaVuSans-32"/>
      </defs>
      <g transform="translate(152.918217 585.442188)scale(0.1 -0.1)">
       <use xlink:href="#DejaVuSans-32"/>
       <use x="63.623047" xlink:href="#DejaVuSans-30"/>
       <use x="127.246094" xlink:href="#DejaVuSans-30"/>
       <use x="190.869141" xlink:href="#DejaVuSans-30"/>
       <use x="254.492188" xlink:href="#DejaVuSans-30"/>
       <use x="318.115234" xlink:href="#DejaVuSans-30"/>
      </g>
     </g>
    </g>
    <g id="xtick_3">
     <g id="line2d_3">
      <g>
       <use style="stroke:#000000;stroke-width:0.8;" x="271.705291" xlink:href="#mc865af386d" y="570.84375"/>
      </g>
     </g>
     <g id="text_3">
      <!-- 400000 -->
      <defs>
       <path d="M 37.796875 64.3125 
L 12.890625 25.390625 
L 37.796875 25.390625 
z
M 35.203125 72.90625 
L 47.609375 72.90625 
L 47.609375 25.390625 
L 58.015625 25.390625 
L 58.015625 17.1875 
L 47.609375 17.1875 
L 47.609375 0 
L 37.796875 0 
L 37.796875 17.1875 
L 4.890625 17.1875 
L 4.890625 26.703125 
z
" id="DejaVuSans-34"/>
      </defs>
      <g transform="translate(252.617791 585.442188)scale(0.1 -0.1)">
       <use xlink:href="#DejaVuSans-34"/>
       <use x="63.623047" xlink:href="#DejaVuSans-30"/>
       <use x="127.246094" xlink:href="#DejaVuSans-30"/>
       <use x="190.869141" xlink:href="#DejaVuSans-30"/>
       <use x="254.492188" xlink:href="#DejaVuSans-30"/>
       <use x="318.115234" xlink:href="#DejaVuSans-30"/>
      </g>
     </g>
    </g>
    <g id="xtick_4">
     <g id="line2d_4">
      <g>
       <use style="stroke:#000000;stroke-width:0.8;" x="371.404865" xlink:href="#mc865af386d" y="570.84375"/>
      </g>
     </g>
     <g id="text_4">
      <!-- 600000 -->
      <defs>
       <path d="M 33.015625 40.375 
Q 26.375 40.375 22.484375 35.828125 
Q 18.609375 31.296875 18.609375 23.390625 
Q 18.609375 15.53125 22.484375 10.953125 
Q 26.375 6.390625 33.015625 6.390625 
Q 39.65625 6.390625 43.53125 10.953125 
Q 47.40625 15.53125 47.40625 23.390625 
Q 47.40625 31.296875 43.53125 35.828125 
Q 39.65625 40.375 33.015625 40.375 
z
M 52.59375 71.296875 
L 52.59375 62.3125 
Q 48.875 64.0625 45.09375 64.984375 
Q 41.3125 65.921875 37.59375 65.921875 
Q 27.828125 65.921875 22.671875 59.328125 
Q 17.53125 52.734375 16.796875 39.40625 
Q 19.671875 43.65625 24.015625 45.921875 
Q 28.375 48.1875 33.59375 48.1875 
Q 44.578125 48.1875 50.953125 41.515625 
Q 57.328125 34.859375 57.328125 23.390625 
Q 57.328125 12.15625 50.6875 5.359375 
Q 44.046875 -1.421875 33.015625 -1.421875 
Q 20.359375 -1.421875 13.671875 8.265625 
Q 6.984375 17.96875 6.984375 36.375 
Q 6.984375 53.65625 15.1875 63.9375 
Q 23.390625 74.21875 37.203125 74.21875 
Q 40.921875 74.21875 44.703125 73.484375 
Q 48.484375 72.75 52.59375 71.296875 
z
" id="DejaVuSans-36"/>
      </defs>
      <g transform="translate(352.317365 585.442188)scale(0.1 -0.1)">
       <use xlink:href="#DejaVuSans-36"/>
       <use x="63.623047" xlink:href="#DejaVuSans-30"/>
       <use x="127.246094" xlink:href="#DejaVuSans-30"/>
       <use x="190.869141" xlink:href="#DejaVuSans-30"/>
       <use x="254.492188" xlink:href="#DejaVuSans-30"/>
       <use x="318.115234" xlink:href="#DejaVuSans-30"/>
      </g>
     </g>
    </g>
    <g id="xtick_5">
     <g id="line2d_5">
      <g>
       <use style="stroke:#000000;stroke-width:0.8;" x="471.104439" xlink:href="#mc865af386d" y="570.84375"/>
      </g>
     </g>
     <g id="text_5">
      <!-- 800000 -->
      <defs>
       <path d="M 31.78125 34.625 
Q 24.75 34.625 20.71875 30.859375 
Q 16.703125 27.09375 16.703125 20.515625 
Q 16.703125 13.921875 20.71875 10.15625 
Q 24.75 6.390625 31.78125 6.390625 
Q 38.8125 6.390625 42.859375 10.171875 
Q 46.921875 13.96875 46.921875 20.515625 
Q 46.921875 27.09375 42.890625 30.859375 
Q 38.875 34.625 31.78125 34.625 
z
M 21.921875 38.8125 
Q 15.578125 40.375 12.03125 44.71875 
Q 8.5 49.078125 8.5 55.328125 
Q 8.5 64.0625 14.71875 69.140625 
Q 20.953125 74.21875 31.78125 74.21875 
Q 42.671875 74.21875 48.875 69.140625 
Q 55.078125 64.0625 55.078125 55.328125 
Q 55.078125 49.078125 51.53125 44.71875 
Q 48 40.375 41.703125 38.8125 
Q 48.828125 37.15625 52.796875 32.3125 
Q 56.78125 27.484375 56.78125 20.515625 
Q 56.78125 9.90625 50.3125 4.234375 
Q 43.84375 -1.421875 31.78125 -1.421875 
Q 19.734375 -1.421875 13.25 4.234375 
Q 6.78125 9.90625 6.78125 20.515625 
Q 6.78125 27.484375 10.78125 32.3125 
Q 14.796875 37.15625 21.921875 38.8125 
z
M 18.3125 54.390625 
Q 18.3125 48.734375 21.84375 45.5625 
Q 25.390625 42.390625 31.78125 42.390625 
Q 38.140625 42.390625 41.71875 45.5625 
Q 45.3125 48.734375 45.3125 54.390625 
Q 45.3125 60.0625 41.71875 63.234375 
Q 38.140625 66.40625 31.78125 66.40625 
Q 25.390625 66.40625 21.84375 63.234375 
Q 18.3125 60.0625 18.3125 54.390625 
z
" id="DejaVuSans-38"/>
      </defs>
      <g transform="translate(452.016939 585.442188)scale(0.1 -0.1)">
       <use xlink:href="#DejaVuSans-38"/>
       <use x="63.623047" xlink:href="#DejaVuSans-30"/>
       <use x="127.246094" xlink:href="#DejaVuSans-30"/>
       <use x="190.869141" xlink:href="#DejaVuSans-30"/>
       <use x="254.492188" xlink:href="#DejaVuSans-30"/>
       <use x="318.115234" xlink:href="#DejaVuSans-30"/>
      </g>
     </g>
    </g>
    <g id="xtick_6">
     <g id="line2d_6">
      <g>
       <use style="stroke:#000000;stroke-width:0.8;" x="570.804013" xlink:href="#mc865af386d" y="570.84375"/>
      </g>
     </g>
     <g id="text_6">
      <!-- 1000000 -->
      <defs>
       <path d="M 12.40625 8.296875 
L 28.515625 8.296875 
L 28.515625 63.921875 
L 10.984375 60.40625 
L 10.984375 69.390625 
L 28.421875 72.90625 
L 38.28125 72.90625 
L 38.28125 8.296875 
L 54.390625 8.296875 
L 54.390625 0 
L 12.40625 0 
z
" id="DejaVuSans-31"/>
      </defs>
      <g transform="translate(548.535263 585.442188)scale(0.1 -0.1)">
       <use xlink:href="#DejaVuSans-31"/>
       <use x="63.623047" xlink:href="#DejaVuSans-30"/>
       <use x="127.246094" xlink:href="#DejaVuSans-30"/>
       <use x="190.869141" xlink:href="#DejaVuSans-30"/>
       <use x="254.492188" xlink:href="#DejaVuSans-30"/>
       <use x="318.115234" xlink:href="#DejaVuSans-30"/>
       <use x="381.738281" xlink:href="#DejaVuSans-30"/>
      </g>
     </g>
    </g>
    <g id="text_7">
     <!-- rf time (us) -->
     <defs>
      <path d="M 41.109375 46.296875 
Q 39.59375 47.171875 37.8125 47.578125 
Q 36.03125 48 33.890625 48 
Q 26.265625 48 22.1875 43.046875 
Q 18.109375 38.09375 18.109375 28.8125 
L 18.109375 0 
L 9.078125 0 
L 9.078125 54.6875 
L 18.109375 54.6875 
L 18.109375 46.1875 
Q 20.953125 51.171875 25.484375 53.578125 
Q 30.03125 56 36.53125 56 
Q 37.453125 56 38.578125 55.875 
Q 39.703125 55.765625 41.0625 55.515625 
z
" id="DejaVuSans-72"/>
      <path d="M 37.109375 75.984375 
L 37.109375 68.5 
L 28.515625 68.5 
Q 23.6875 68.5 21.796875 66.546875 
Q 19.921875 64.59375 19.921875 59.515625 
L 19.921875 54.6875 
L 34.71875 54.6875 
L 34.71875 47.703125 
L 19.921875 47.703125 
L 19.921875 0 
L 10.890625 0 
L 10.890625 47.703125 
L 2.296875 47.703125 
L 2.296875 54.6875 
L 10.890625 54.6875 
L 10.890625 58.5 
Q 10.890625 67.625 15.140625 71.796875 
Q 19.390625 75.984375 28.609375 75.984375 
z
" id="DejaVuSans-66"/>
      <path id="DejaVuSans-20"/>
      <path d="M 18.3125 70.21875 
L 18.3125 54.6875 
L 36.8125 54.6875 
L 36.8125 47.703125 
L 18.3125 47.703125 
L 18.3125 18.015625 
Q 18.3125 11.328125 20.140625 9.421875 
Q 21.96875 7.515625 27.59375 7.515625 
L 36.8125 7.515625 
L 36.8125 0 
L 27.59375 0 
Q 17.1875 0 13.234375 3.875 
Q 9.28125 7.765625 9.28125 18.015625 
L 9.28125 47.703125 
L 2.6875 47.703125 
L 2.6875 54.6875 
L 9.28125 54.6875 
L 9.28125 70.21875 
z
" id="DejaVuSans-74"/>
      <path d="M 9.421875 54.6875 
L 18.40625 54.6875 
L 18.40625 0 
L 9.421875 0 
z
M 9.421875 75.984375 
L 18.40625 75.984375 
L 18.40625 64.59375 
L 9.421875 64.59375 
z
" id="DejaVuSans-69"/>
      <path d="M 52 44.1875 
Q 55.375 50.25 60.0625 53.125 
Q 64.75 56 71.09375 56 
Q 79.640625 56 84.28125 50.015625 
Q 88.921875 44.046875 88.921875 33.015625 
L 88.921875 0 
L 79.890625 0 
L 79.890625 32.71875 
Q 79.890625 40.578125 77.09375 44.375 
Q 74.3125 48.1875 68.609375 48.1875 
Q 61.625 48.1875 57.5625 43.546875 
Q 53.515625 38.921875 53.515625 30.90625 
L 53.515625 0 
L 44.484375 0 
L 44.484375 32.71875 
Q 44.484375 40.625 41.703125 44.40625 
Q 38.921875 48.1875 33.109375 48.1875 
Q 26.21875 48.1875 22.15625 43.53125 
Q 18.109375 38.875 18.109375 30.90625 
L 18.109375 0 
L 9.078125 0 
L 9.078125 54.6875 
L 18.109375 54.6875 
L 18.109375 46.1875 
Q 21.1875 51.21875 25.484375 53.609375 
Q 29.78125 56 35.6875 56 
Q 41.65625 56 45.828125 52.96875 
Q 50 49.953125 52 44.1875 
z
" id="DejaVuSans-6d"/>
      <path d="M 56.203125 29.59375 
L 56.203125 25.203125 
L 14.890625 25.203125 
Q 15.484375 15.921875 20.484375 11.0625 
Q 25.484375 6.203125 34.421875 6.203125 
Q 39.59375 6.203125 44.453125 7.46875 
Q 49.3125 8.734375 54.109375 11.28125 
L 54.109375 2.78125 
Q 49.265625 0.734375 44.1875 -0.34375 
Q 39.109375 -1.421875 33.890625 -1.421875 
Q 20.796875 -1.421875 13.15625 6.1875 
Q 5.515625 13.8125 5.515625 26.8125 
Q 5.515625 40.234375 12.765625 48.109375 
Q 20.015625 56 32.328125 56 
Q 43.359375 56 49.78125 48.890625 
Q 56.203125 41.796875 56.203125 29.59375 
z
M 47.21875 32.234375 
Q 47.125 39.59375 43.09375 43.984375 
Q 39.0625 48.390625 32.421875 48.390625 
Q 24.90625 48.390625 20.390625 44.140625 
Q 15.875 39.890625 15.1875 32.171875 
z
" id="DejaVuSans-65"/>
      <path d="M 31 75.875 
Q 24.46875 64.65625 21.28125 53.65625 
Q 18.109375 42.671875 18.109375 31.390625 
Q 18.109375 20.125 21.3125 9.0625 
Q 24.515625 -2 31 -13.1875 
L 23.1875 -13.1875 
Q 15.875 -1.703125 12.234375 9.375 
Q 8.59375 20.453125 8.59375 31.390625 
Q 8.59375 42.28125 12.203125 53.3125 
Q 15.828125 64.359375 23.1875 75.875 
z
" id="DejaVuSans-28"/>
      <path d="M 8.5 21.578125 
L 8.5 54.6875 
L 17.484375 54.6875 
L 17.484375 21.921875 
Q 17.484375 14.15625 20.5 10.265625 
Q 23.53125 6.390625 29.59375 6.390625 
Q 36.859375 6.390625 41.078125 11.03125 
Q 45.3125 15.671875 45.3125 23.6875 
L 45.3125 54.6875 
L 54.296875 54.6875 
L 54.296875 0 
L 45.3125 0 
L 45.3125 8.40625 
Q 42.046875 3.421875 37.71875 1 
Q 33.40625 -1.421875 27.6875 -1.421875 
Q 18.265625 -1.421875 13.375 4.4375 
Q 8.5 10.296875 8.5 21.578125 
z
M 31.109375 56 
z
" id="DejaVuSans-75"/>
      <path d="M 44.28125 53.078125 
L 44.28125 44.578125 
Q 40.484375 46.53125 36.375 47.5 
Q 32.28125 48.484375 27.875 48.484375 
Q 21.1875 48.484375 17.84375 46.4375 
Q 14.5 44.390625 14.5 40.28125 
Q 14.5 37.15625 16.890625 35.375 
Q 19.28125 33.59375 26.515625 31.984375 
L 29.59375 31.296875 
Q 39.15625 29.25 43.1875 25.515625 
Q 47.21875 21.78125 47.21875 15.09375 
Q 47.21875 7.46875 41.1875 3.015625 
Q 35.15625 -1.421875 24.609375 -1.421875 
Q 20.21875 -1.421875 15.453125 -0.5625 
Q 10.6875 0.296875 5.421875 2 
L 5.421875 11.28125 
Q 10.40625 8.6875 15.234375 7.390625 
Q 20.0625 6.109375 24.8125 6.109375 
Q 31.15625 6.109375 34.5625 8.28125 
Q 37.984375 10.453125 37.984375 14.40625 
Q 37.984375 18.0625 35.515625 20.015625 
Q 33.0625 21.96875 24.703125 23.78125 
L 21.578125 24.515625 
Q 13.234375 26.265625 9.515625 29.90625 
Q 5.8125 33.546875 5.8125 39.890625 
Q 5.8125 47.609375 11.28125 51.796875 
Q 16.75 56 26.8125 56 
Q 31.78125 56 36.171875 55.265625 
Q 40.578125 54.546875 44.28125 53.078125 
z
" id="DejaVuSans-73"/>
      <path d="M 8.015625 75.875 
L 15.828125 75.875 
Q 23.140625 64.359375 26.78125 53.3125 
Q 30.421875 42.28125 30.421875 31.390625 
Q 30.421875 20.453125 26.78125 9.375 
Q 23.140625 -1.703125 15.828125 -13.1875 
L 8.015625 -13.1875 
Q 14.5 -2 17.703125 9.0625 
Q 20.90625 20.125 20.90625 31.390625 
Q 20.90625 42.671875 17.703125 53.65625 
Q 14.5 64.65625 8.015625 75.875 
z
" id="DejaVuSans-29"/>
     </defs>
     <g transform="translate(293.590234 599.120312)scale(0.1 -0.1)">
      <use xlink:href="#DejaVuSans-72"/>
      <use x="41.113281" xlink:href="#DejaVuSans-66"/>
      <use x="76.318359" xlink:href="#DejaVuSans-20"/>
      <use x="108.105469" xlink:href="#DejaVuSans-74"/>
      <use x="147.314453" xlink:href="#DejaVuSans-69"/>
      <use x="175.097656" xlink:href="#DejaVuSans-6d"/>
      <use x="272.509766" xlink:href="#DejaVuSans-65"/>
      <use x="334.033203" xlink:href="#DejaVuSans-20"/>
      <use x="365.820312" xlink:href="#DejaVuSans-28"/>
      <use x="404.833984" xlink:href="#DejaVuSans-75"/>
      <use x="468.212891" xlink:href="#DejaVuSans-73"/>
      <use x="520.3125" xlink:href="#DejaVuSans-29"/>
     </g>
    </g>
   </g>
   <g id="matplotlib.axis_2">
    <g id="ytick_1">
     <g id="line2d_7">
      <defs>
       <path d="M 0 0 
L -3.5 0 
" id="m151082b3ce" style="stroke:#000000;stroke-width:0.8;"/>
      </defs>
      <g>
       <use style="stroke:#000000;stroke-width:0.8;" x="47.38125" xlink:href="#m151082b3ce" y="546.074403"/>
      </g>
     </g>
     <g id="text_8">
      <!-- 0.0 -->
      <defs>
       <path d="M 10.6875 12.40625 
L 21 12.40625 
L 21 0 
L 10.6875 0 
z
" id="DejaVuSans-2e"/>
      </defs>
      <g transform="translate(24.478125 549.873622)scale(0.1 -0.1)">
       <use xlink:href="#DejaVuSans-30"/>
       <use x="63.623047" xlink:href="#DejaVuSans-2e"/>
       <use x="95.410156" xlink:href="#DejaVuSans-30"/>
      </g>
     </g>
    </g>
    <g id="ytick_2">
     <g id="line2d_8">
      <g>
       <use style="stroke:#000000;stroke-width:0.8;" x="47.38125" xlink:href="#m151082b3ce" y="472.87962"/>
      </g>
     </g>
     <g id="text_9">
      <!-- 0.2 -->
      <g transform="translate(24.478125 476.678839)scale(0.1 -0.1)">
       <use xlink:href="#DejaVuSans-30"/>
       <use x="63.623047" xlink:href="#DejaVuSans-2e"/>
       <use x="95.410156" xlink:href="#DejaVuSans-32"/>
      </g>
     </g>
    </g>
    <g id="ytick_3">
     <g id="line2d_9">
      <g>
       <use style="stroke:#000000;stroke-width:0.8;" x="47.38125" xlink:href="#m151082b3ce" y="399.684837"/>
      </g>
     </g>
     <g id="text_10">
      <!-- 0.4 -->
      <g transform="translate(24.478125 403.484056)scale(0.1 -0.1)">
       <use xlink:href="#DejaVuSans-30"/>
       <use x="63.623047" xlink:href="#DejaVuSans-2e"/>
       <use x="95.410156" xlink:href="#DejaVuSans-34"/>
      </g>
     </g>
    </g>
    <g id="ytick_4">
     <g id="line2d_10">
      <g>
       <use style="stroke:#000000;stroke-width:0.8;" x="47.38125" xlink:href="#m151082b3ce" y="326.490054"/>
      </g>
     </g>
     <g id="text_11">
      <!-- 0.6 -->
      <g transform="translate(24.478125 330.289273)scale(0.1 -0.1)">
       <use xlink:href="#DejaVuSans-30"/>
       <use x="63.623047" xlink:href="#DejaVuSans-2e"/>
       <use x="95.410156" xlink:href="#DejaVuSans-36"/>
      </g>
     </g>
    </g>
    <g id="ytick_5">
     <g id="line2d_11">
      <g>
       <use style="stroke:#000000;stroke-width:0.8;" x="47.38125" xlink:href="#m151082b3ce" y="253.295271"/>
      </g>
     </g>
     <g id="text_12">
      <!-- 0.8 -->
      <g transform="translate(24.478125 257.09449)scale(0.1 -0.1)">
       <use xlink:href="#DejaVuSans-30"/>
       <use x="63.623047" xlink:href="#DejaVuSans-2e"/>
       <use x="95.410156" xlink:href="#DejaVuSans-38"/>
      </g>
     </g>
    </g>
    <g id="ytick_6">
     <g id="line2d_12">
      <g>
       <use style="stroke:#000000;stroke-width:0.8;" x="47.38125" xlink:href="#m151082b3ce" y="180.100488"/>
      </g>
     </g>
     <g id="text_13">
      <!-- 1.0 -->
      <g transform="translate(24.478125 183.899707)scale(0.1 -0.1)">
       <use xlink:href="#DejaVuSans-31"/>
       <use x="63.623047" xlink:href="#DejaVuSans-2e"/>
       <use x="95.410156" xlink:href="#DejaVuSans-30"/>
      </g>
     </g>
    </g>
    <g id="ytick_7">
     <g id="line2d_13">
      <g>
       <use style="stroke:#000000;stroke-width:0.8;" x="47.38125" xlink:href="#m151082b3ce" y="106.905705"/>
      </g>
     </g>
     <g id="text_14">
      <!-- 1.2 -->
      <g transform="translate(24.478125 110.704924)scale(0.1 -0.1)">
       <use xlink:href="#DejaVuSans-31"/>
       <use x="63.623047" xlink:href="#DejaVuSans-2e"/>
       <use x="95.410156" xlink:href="#DejaVuSans-32"/>
      </g>
     </g>
    </g>
    <g id="ytick_8">
     <g id="line2d_14">
      <g>
       <use style="stroke:#000000;stroke-width:0.8;" x="47.38125" xlink:href="#m151082b3ce" y="33.710922"/>
      </g>
     </g>
     <g id="text_15">
      <!-- 1.4 -->
      <g transform="translate(24.478125 37.510141)scale(0.1 -0.1)">
       <use xlink:href="#DejaVuSans-31"/>
       <use x="63.623047" xlink:href="#DejaVuSans-2e"/>
       <use x="95.410156" xlink:href="#DejaVuSans-34"/>
      </g>
     </g>
    </g>
    <g id="text_16">
     <!-- Counts -->
     <defs>
      <path d="M 64.40625 67.28125 
L 64.40625 56.890625 
Q 59.421875 61.53125 53.78125 63.8125 
Q 48.140625 66.109375 41.796875 66.109375 
Q 29.296875 66.109375 22.65625 58.46875 
Q 16.015625 50.828125 16.015625 36.375 
Q 16.015625 21.96875 22.65625 14.328125 
Q 29.296875 6.6875 41.796875 6.6875 
Q 48.140625 6.6875 53.78125 8.984375 
Q 59.421875 11.28125 64.40625 15.921875 
L 64.40625 5.609375 
Q 59.234375 2.09375 53.4375 0.328125 
Q 47.65625 -1.421875 41.21875 -1.421875 
Q 24.65625 -1.421875 15.125 8.703125 
Q 5.609375 18.84375 5.609375 36.375 
Q 5.609375 53.953125 15.125 64.078125 
Q 24.65625 74.21875 41.21875 74.21875 
Q 47.75 74.21875 53.53125 72.484375 
Q 59.328125 70.75 64.40625 67.28125 
z
" id="DejaVuSans-43"/>
      <path d="M 30.609375 48.390625 
Q 23.390625 48.390625 19.1875 42.75 
Q 14.984375 37.109375 14.984375 27.296875 
Q 14.984375 17.484375 19.15625 11.84375 
Q 23.34375 6.203125 30.609375 6.203125 
Q 37.796875 6.203125 41.984375 11.859375 
Q 46.1875 17.53125 46.1875 27.296875 
Q 46.1875 37.015625 41.984375 42.703125 
Q 37.796875 48.390625 30.609375 48.390625 
z
M 30.609375 56 
Q 42.328125 56 49.015625 48.375 
Q 55.71875 40.765625 55.71875 27.296875 
Q 55.71875 13.875 49.015625 6.21875 
Q 42.328125 -1.421875 30.609375 -1.421875 
Q 18.84375 -1.421875 12.171875 6.21875 
Q 5.515625 13.875 5.515625 27.296875 
Q 5.515625 40.765625 12.171875 48.375 
Q 18.84375 56 30.609375 56 
z
" id="DejaVuSans-6f"/>
      <path d="M 54.890625 33.015625 
L 54.890625 0 
L 45.90625 0 
L 45.90625 32.71875 
Q 45.90625 40.484375 42.875 44.328125 
Q 39.84375 48.1875 33.796875 48.1875 
Q 26.515625 48.1875 22.3125 43.546875 
Q 18.109375 38.921875 18.109375 30.90625 
L 18.109375 0 
L 9.078125 0 
L 9.078125 54.6875 
L 18.109375 54.6875 
L 18.109375 46.1875 
Q 21.34375 51.125 25.703125 53.5625 
Q 30.078125 56 35.796875 56 
Q 45.21875 56 50.046875 50.171875 
Q 54.890625 44.34375 54.890625 33.015625 
z
" id="DejaVuSans-6e"/>
     </defs>
     <g transform="translate(18.398438 315.834062)rotate(-90)scale(0.1 -0.1)">
      <use xlink:href="#DejaVuSans-43"/>
      <use x="69.824219" xlink:href="#DejaVuSans-6f"/>
      <use x="131.005859" xlink:href="#DejaVuSans-75"/>
      <use x="194.384766" xlink:href="#DejaVuSans-6e"/>
      <use x="257.763672" xlink:href="#DejaVuSans-74"/>
      <use x="296.972656" xlink:href="#DejaVuSans-73"/>
     </g>
    </g>
    <g id="text_17">
     <!-- 1e277 -->
     <defs>
      <path d="M 8.203125 72.90625 
L 55.078125 72.90625 
L 55.078125 68.703125 
L 28.609375 0 
L 18.3125 0 
L 43.21875 64.59375 
L 8.203125 64.59375 
z
" id="DejaVuSans-37"/>
     </defs>
     <g transform="translate(47.38125 22.918125)scale(0.1 -0.1)">
      <use xlink:href="#DejaVuSans-31"/>
      <use x="63.623047" xlink:href="#DejaVuSans-65"/>
      <use x="125.146484" xlink:href="#DejaVuSans-32"/>
      <use x="188.769531" xlink:href="#DejaVuSans-37"/>
      <use x="252.392578" xlink:href="#DejaVuSans-37"/>
     </g>
    </g>
   </g>
   <g id="line2d_15">
    <path clip-path="url(#p1a94cc016d)" d="M 72.306143 546.074403 
L 77.341475 546.074403 
L 82.376807 546.074403 
L 87.41214 546.074403 
L 92.447472 546.074403 
L 97.482804 546.074403 
L 102.518136 546.074403 
L 107.553468 546.074403 
L 112.5888 546.074403 
L 117.624132 546.074403 
L 122.659464 546.074403 
L 127.694796 546.074403 
L 132.730128 546.074403 
L 137.76546 546.074403 
L 142.800792 546.074403 
L 147.836124 546.074403 
L 152.871456 546.074403 
L 157.906788 546.074403 
L 162.94212 546.074403 
L 167.977452 546.074403 
L 173.012784 546.074403 
L 178.048116 546.074403 
L 183.083448 546.074403 
L 188.11878 546.074403 
L 193.154112 546.074403 
L 198.189444 546.074403 
L 203.224776 546.074403 
L 208.260108 546.074403 
L 213.29544 546.074403 
L 218.330772 546.074403 
L 223.366104 546.074403 
L 228.401436 546.074403 
L 233.436768 546.074403 
L 238.4721 546.074403 
L 243.507432 546.074403 
L 248.542764 546.074403 
L 253.578096 546.074403 
L 258.613428 546.074403 
L 263.64876 546.074403 
L 268.684092 546.074403 
L 273.719424 546.074403 
L 278.754756 546.074403 
L 283.790088 546.074403 
L 288.82542 546.074403 
L 293.860752 546.074403 
L 298.896084 546.074403 
L 303.931416 546.074403 
L 308.966748 546.074403 
L 314.00208 546.074403 
L 319.037412 546.074403 
L 324.072744 546.074403 
L 329.108076 546.074403 
L 334.143408 546.074403 
L 339.17874 546.074403 
L 344.214072 546.074403 
L 349.249404 546.074403 
L 354.284736 546.074403 
L 359.320068 546.074403 
L 364.3554 546.074403 
L 369.390732 546.074403 
L 374.426064 546.074403 
L 379.461396 546.074403 
L 384.496728 546.074403 
L 389.53206 546.074403 
L 394.567392 546.074403 
L 399.602724 546.074403 
L 404.638056 546.074403 
L 409.673388 546.074403 
L 414.70872 546.074403 
L 419.744052 546.074403 
L 424.779384 546.074403 
L 429.814716 546.074403 
L 434.850048 546.074403 
L 439.88538 546.074403 
L 444.920712 546.074403 
L 449.956044 546.074403 
L 454.991376 546.074403 
L 460.026708 546.074403 
L 465.062041 546.074403 
L 470.097373 546.074403 
L 475.132705 546.074403 
L 480.168037 546.074403 
L 485.203369 546.074403 
L 490.238701 546.074403 
L 495.274033 546.074403 
L 500.309365 546.074403 
L 505.344697 546.074403 
L 510.380029 546.074403 
L 515.415361 546.074403 
L 520.450693 546.074403 
L 525.486025 546.074403 
L 530.521357 546.074403 
L 535.556689 546.074403 
L 540.592021 546.074403 
L 545.627353 546.074403 
L 550.662685 546.074403 
L 555.698017 546.074403 
L 560.733349 546.074403 
L 565.768681 546.074403 
L 570.804013 546.074403 
" style="fill:none;stroke:#ff0000;stroke-linecap:square;stroke-width:1.5;"/>
   </g>
   <g id="line2d_16">
    <path clip-path="url(#p1a94cc016d)" d="M 72.306143 546.074403 
L 77.341475 546.074403 
L 82.376807 546.074403 
L 87.41214 546.074403 
L 92.447472 546.074403 
L 97.482804 546.074403 
L 102.518136 546.074403 
L 107.553468 546.074403 
L 112.5888 546.074403 
L 117.624132 546.074403 
L 122.659464 546.074403 
L 127.694796 546.074403 
L 132.730128 546.074403 
L 137.76546 546.074403 
L 142.800792 546.074403 
L 147.836124 546.074403 
L 152.871456 546.074403 
L 157.906788 546.074403 
L 162.94212 546.074403 
L 167.977452 546.074403 
L 173.012784 546.074403 
L 178.048116 546.074403 
L 183.083448 546.074403 
L 188.11878 546.074403 
L 193.154112 546.074403 
L 198.189444 546.074403 
L 203.224776 546.074403 
L 208.260108 546.074403 
L 213.29544 546.074403 
L 218.330772 546.074403 
L 223.366104 546.074403 
L 228.401436 546.074403 
L 233.436768 546.074403 
L 238.4721 546.074403 
L 243.507432 546.074403 
L 248.542764 546.074403 
L 253.578096 546.074403 
L 258.613428 546.074403 
L 263.64876 546.074403 
L 268.684092 546.074403 
L 273.719424 546.074403 
L 278.754756 546.074403 
L 283.790088 546.074403 
L 288.82542 546.074403 
L 293.860752 546.074403 
L 298.896084 546.074403 
L 303.931416 546.074403 
L 308.966748 546.074403 
L 314.00208 546.074403 
L 319.037412 546.074403 
L 324.072744 546.074403 
L 329.108076 546.074403 
L 334.143408 546.074403 
L 339.17874 546.074403 
L 344.214072 546.074403 
L 349.249404 546.074403 
L 354.284736 546.074403 
L 359.320068 546.074403 
L 364.3554 546.074403 
L 369.390732 546.074403 
L 374.426064 546.074403 
L 379.461396 546.074403 
L 384.496728 546.074403 
L 389.53206 546.074403 
L 394.567392 546.074403 
L 399.602724 546.074403 
L 404.638056 546.074403 
L 409.673388 546.074403 
L 414.70872 546.074403 
L 419.744052 546.074403 
L 424.779384 546.074403 
L 429.814716 546.074403 
L 434.850048 546.074403 
L 439.88538 546.074403 
L 444.920712 546.074403 
L 449.956044 546.074403 
L 454.991376 546.074403 
L 460.026708 546.074403 
L 465.062041 546.074403 
L 470.097373 546.074403 
L 475.132705 546.074403 
L 480.168037 546.074403 
L 485.203369 546.074403 
L 490.238701 546.074403 
L 495.274033 546.074403 
L 500.309365 546.074403 
L 505.344697 546.074403 
L 510.380029 546.074403 
L 515.415361 546.074403 
L 520.450693 546.074403 
L 525.486025 546.074403 
L 530.521357 546.074403 
L 535.556689 546.074403 
L 540.592021 546.074403 
L 545.627353 546.074403 
L 550.662685 546.074403 
L 555.698017 546.074403 
L 560.733349 546.074403 
L 565.768681 546.074403 
L 570.804013 546.074403 
" style="fill:none;stroke:#008000;stroke-linecap:square;stroke-width:1.5;"/>
   </g>
   <g id="line2d_17">
    <path clip-path="url(#p1a94cc016d)" d="M 72.306143 546.074403 
L 77.341475 546.074403 
L 82.376807 546.074403 
M 92.447472 546.074403 
L 97.482804 546.074403 
L 102.518136 546.074403 
L 107.553468 546.074403 
L 112.5888 546.074403 
L 117.624132 546.074403 
L 122.659464 546.074403 
L 127.694796 546.074403 
L 132.730128 546.074403 
L 137.76546 546.074403 
L 142.800792 546.074403 
L 147.836124 546.074403 
L 152.871456 546.074403 
L 157.906788 546.074403 
L 162.94212 546.074403 
L 167.977452 546.074403 
L 173.012784 546.074403 
L 178.048116 546.074403 
L 183.083448 328.962118 
L 188.11878 546.074403 
L 193.154112 546.074403 
L 198.189444 546.074403 
L 203.224776 546.074403 
L 208.260108 546.074403 
L 213.29544 546.074403 
L 218.330772 546.074403 
L 223.366104 546.074403 
L 228.401436 546.074403 
L 233.436768 546.074403 
L 238.4721 546.074403 
L 243.507432 546.074403 
L 248.542764 546.074403 
L 253.578096 546.074403 
L 258.613428 546.074403 
L 263.64876 50.687472 
L 268.684092 546.074403 
L 273.719424 546.074403 
L 278.754756 546.074403 
L 283.790088 546.074403 
L 288.82542 546.074403 
L 293.860752 546.074403 
L 298.896084 546.074403 
L 303.931416 546.074403 
L 308.966748 546.074403 
L 314.00208 546.074403 
L 319.037412 546.074403 
L 324.072744 546.074403 
L 329.108076 546.074403 
L 334.143408 546.074403 
L 339.17874 546.074403 
L 344.214072 546.074403 
L 349.249404 328.960888 
L 354.284736 546.074403 
L 359.320068 546.074403 
L 364.3554 546.074403 
L 369.390732 328.962118 
L 374.426064 546.074403 
L 379.461396 546.074403 
L 384.496728 546.074403 
L 389.53206 546.074403 
L 394.567392 546.074403 
L 399.602724 546.074403 
L 404.638056 546.074403 
L 409.673388 546.074403 
L 414.70872 546.074403 
L 419.744052 546.074403 
L 424.779384 546.074403 
L 429.814716 546.074403 
L 434.850048 546.074403 
L 439.88538 546.074403 
L 444.920712 546.074403 
L 449.956044 546.074403 
L 454.991376 546.074403 
L 460.026708 328.962118 
L 465.062041 546.074403 
L 470.097373 546.074403 
L 475.132705 546.074403 
L 480.168037 546.074403 
L 485.203369 546.074403 
L 490.238701 546.074403 
L 495.274033 546.074403 
L 500.309365 546.074403 
L 505.344697 328.962118 
L 510.380029 546.074403 
L 515.415361 546.074403 
L 520.450693 546.074403 
L 525.486025 546.074403 
L 530.521357 328.962118 
L 535.556689 546.074403 
L 540.592021 546.074403 
L 545.627353 546.074403 
L 550.662685 546.074403 
L 555.698017 546.074403 
L 560.733349 546.074403 
L 565.768681 546.074403 
L 570.804013 546.074403 
" style="fill:none;stroke:#1f77b4;stroke-linecap:square;stroke-width:1.5;"/>
    <defs>
     <path d="M 0 3 
C 0.795609 3 1.55874 2.683901 2.12132 2.12132 
C 2.683901 1.55874 3 0.795609 3 0 
C 3 -0.795609 2.683901 -1.55874 2.12132 -2.12132 
C 1.55874 -2.683901 0.795609 -3 0 -3 
C -0.795609 -3 -1.55874 -2.683901 -2.12132 -2.12132 
C -2.683901 -1.55874 -3 -0.795609 -3 0 
C -3 0.795609 -2.683901 1.55874 -2.12132 2.12132 
C -1.55874 2.683901 -0.795609 3 0 3 
z
" id="ma7f9522642" style="stroke:#1f77b4;"/>
    </defs>
    <g clip-path="url(#p1a94cc016d)">
     <use style="fill:#1f77b4;stroke:#1f77b4;" x="72.306143" xlink:href="#ma7f9522642" y="546.074403"/>
     <use style="fill:#1f77b4;stroke:#1f77b4;" x="77.341475" xlink:href="#ma7f9522642" y="546.074403"/>
     <use style="fill:#1f77b4;stroke:#1f77b4;" x="82.376807" xlink:href="#ma7f9522642" y="546.074403"/>
     <use style="fill:#1f77b4;stroke:#1f77b4;" x="92.447472" xlink:href="#ma7f9522642" y="546.074403"/>
     <use style="fill:#1f77b4;stroke:#1f77b4;" x="97.482804" xlink:href="#ma7f9522642" y="546.074403"/>
     <use style="fill:#1f77b4;stroke:#1f77b4;" x="102.518136" xlink:href="#ma7f9522642" y="546.074403"/>
     <use style="fill:#1f77b4;stroke:#1f77b4;" x="107.553468" xlink:href="#ma7f9522642" y="546.074403"/>
     <use style="fill:#1f77b4;stroke:#1f77b4;" x="112.5888" xlink:href="#ma7f9522642" y="546.074403"/>
     <use style="fill:#1f77b4;stroke:#1f77b4;" x="117.624132" xlink:href="#ma7f9522642" y="546.074403"/>
     <use style="fill:#1f77b4;stroke:#1f77b4;" x="122.659464" xlink:href="#ma7f9522642" y="546.074403"/>
     <use style="fill:#1f77b4;stroke:#1f77b4;" x="127.694796" xlink:href="#ma7f9522642" y="546.074403"/>
     <use style="fill:#1f77b4;stroke:#1f77b4;" x="132.730128" xlink:href="#ma7f9522642" y="546.074403"/>
     <use style="fill:#1f77b4;stroke:#1f77b4;" x="137.76546" xlink:href="#ma7f9522642" y="546.074403"/>
     <use style="fill:#1f77b4;stroke:#1f77b4;" x="142.800792" xlink:href="#ma7f9522642" y="546.074403"/>
     <use style="fill:#1f77b4;stroke:#1f77b4;" x="147.836124" xlink:href="#ma7f9522642" y="546.074403"/>
     <use style="fill:#1f77b4;stroke:#1f77b4;" x="152.871456" xlink:href="#ma7f9522642" y="546.074403"/>
     <use style="fill:#1f77b4;stroke:#1f77b4;" x="157.906788" xlink:href="#ma7f9522642" y="546.074403"/>
     <use style="fill:#1f77b4;stroke:#1f77b4;" x="162.94212" xlink:href="#ma7f9522642" y="546.074403"/>
     <use style="fill:#1f77b4;stroke:#1f77b4;" x="167.977452" xlink:href="#ma7f9522642" y="546.074403"/>
     <use style="fill:#1f77b4;stroke:#1f77b4;" x="173.012784" xlink:href="#ma7f9522642" y="546.074403"/>
     <use style="fill:#1f77b4;stroke:#1f77b4;" x="178.048116" xlink:href="#ma7f9522642" y="546.074403"/>
     <use style="fill:#1f77b4;stroke:#1f77b4;" x="183.083448" xlink:href="#ma7f9522642" y="328.962118"/>
     <use style="fill:#1f77b4;stroke:#1f77b4;" x="188.11878" xlink:href="#ma7f9522642" y="546.074403"/>
     <use style="fill:#1f77b4;stroke:#1f77b4;" x="193.154112" xlink:href="#ma7f9522642" y="546.074403"/>
     <use style="fill:#1f77b4;stroke:#1f77b4;" x="198.189444" xlink:href="#ma7f9522642" y="546.074403"/>
     <use style="fill:#1f77b4;stroke:#1f77b4;" x="203.224776" xlink:href="#ma7f9522642" y="546.074403"/>
     <use style="fill:#1f77b4;stroke:#1f77b4;" x="208.260108" xlink:href="#ma7f9522642" y="546.074403"/>
     <use style="fill:#1f77b4;stroke:#1f77b4;" x="213.29544" xlink:href="#ma7f9522642" y="546.074403"/>
     <use style="fill:#1f77b4;stroke:#1f77b4;" x="218.330772" xlink:href="#ma7f9522642" y="546.074403"/>
     <use style="fill:#1f77b4;stroke:#1f77b4;" x="223.366104" xlink:href="#ma7f9522642" y="546.074403"/>
     <use style="fill:#1f77b4;stroke:#1f77b4;" x="228.401436" xlink:href="#ma7f9522642" y="546.074403"/>
     <use style="fill:#1f77b4;stroke:#1f77b4;" x="233.436768" xlink:href="#ma7f9522642" y="546.074403"/>
     <use style="fill:#1f77b4;stroke:#1f77b4;" x="238.4721" xlink:href="#ma7f9522642" y="546.074403"/>
     <use style="fill:#1f77b4;stroke:#1f77b4;" x="243.507432" xlink:href="#ma7f9522642" y="546.074403"/>
     <use style="fill:#1f77b4;stroke:#1f77b4;" x="248.542764" xlink:href="#ma7f9522642" y="546.074403"/>
     <use style="fill:#1f77b4;stroke:#1f77b4;" x="253.578096" xlink:href="#ma7f9522642" y="546.074403"/>
     <use style="fill:#1f77b4;stroke:#1f77b4;" x="258.613428" xlink:href="#ma7f9522642" y="546.074403"/>
     <use style="fill:#1f77b4;stroke:#1f77b4;" x="263.64876" xlink:href="#ma7f9522642" y="50.687472"/>
     <use style="fill:#1f77b4;stroke:#1f77b4;" x="268.684092" xlink:href="#ma7f9522642" y="546.074403"/>
     <use style="fill:#1f77b4;stroke:#1f77b4;" x="273.719424" xlink:href="#ma7f9522642" y="546.074403"/>
     <use style="fill:#1f77b4;stroke:#1f77b4;" x="278.754756" xlink:href="#ma7f9522642" y="546.074403"/>
     <use style="fill:#1f77b4;stroke:#1f77b4;" x="283.790088" xlink:href="#ma7f9522642" y="546.074403"/>
     <use style="fill:#1f77b4;stroke:#1f77b4;" x="288.82542" xlink:href="#ma7f9522642" y="546.074403"/>
     <use style="fill:#1f77b4;stroke:#1f77b4;" x="293.860752" xlink:href="#ma7f9522642" y="546.074403"/>
     <use style="fill:#1f77b4;stroke:#1f77b4;" x="298.896084" xlink:href="#ma7f9522642" y="546.074403"/>
     <use style="fill:#1f77b4;stroke:#1f77b4;" x="303.931416" xlink:href="#ma7f9522642" y="546.074403"/>
     <use style="fill:#1f77b4;stroke:#1f77b4;" x="308.966748" xlink:href="#ma7f9522642" y="546.074403"/>
     <use style="fill:#1f77b4;stroke:#1f77b4;" x="314.00208" xlink:href="#ma7f9522642" y="546.074403"/>
     <use style="fill:#1f77b4;stroke:#1f77b4;" x="319.037412" xlink:href="#ma7f9522642" y="546.074403"/>
     <use style="fill:#1f77b4;stroke:#1f77b4;" x="324.072744" xlink:href="#ma7f9522642" y="546.074403"/>
     <use style="fill:#1f77b4;stroke:#1f77b4;" x="329.108076" xlink:href="#ma7f9522642" y="546.074403"/>
     <use style="fill:#1f77b4;stroke:#1f77b4;" x="334.143408" xlink:href="#ma7f9522642" y="546.074403"/>
     <use style="fill:#1f77b4;stroke:#1f77b4;" x="339.17874" xlink:href="#ma7f9522642" y="546.074403"/>
     <use style="fill:#1f77b4;stroke:#1f77b4;" x="344.214072" xlink:href="#ma7f9522642" y="546.074403"/>
     <use style="fill:#1f77b4;stroke:#1f77b4;" x="349.249404" xlink:href="#ma7f9522642" y="328.960888"/>
     <use style="fill:#1f77b4;stroke:#1f77b4;" x="354.284736" xlink:href="#ma7f9522642" y="546.074403"/>
     <use style="fill:#1f77b4;stroke:#1f77b4;" x="359.320068" xlink:href="#ma7f9522642" y="546.074403"/>
     <use style="fill:#1f77b4;stroke:#1f77b4;" x="364.3554" xlink:href="#ma7f9522642" y="546.074403"/>
     <use style="fill:#1f77b4;stroke:#1f77b4;" x="369.390732" xlink:href="#ma7f9522642" y="328.962118"/>
     <use style="fill:#1f77b4;stroke:#1f77b4;" x="374.426064" xlink:href="#ma7f9522642" y="546.074403"/>
     <use style="fill:#1f77b4;stroke:#1f77b4;" x="379.461396" xlink:href="#ma7f9522642" y="546.074403"/>
     <use style="fill:#1f77b4;stroke:#1f77b4;" x="384.496728" xlink:href="#ma7f9522642" y="546.074403"/>
     <use style="fill:#1f77b4;stroke:#1f77b4;" x="389.53206" xlink:href="#ma7f9522642" y="546.074403"/>
     <use style="fill:#1f77b4;stroke:#1f77b4;" x="394.567392" xlink:href="#ma7f9522642" y="546.074403"/>
     <use style="fill:#1f77b4;stroke:#1f77b4;" x="399.602724" xlink:href="#ma7f9522642" y="546.074403"/>
     <use style="fill:#1f77b4;stroke:#1f77b4;" x="404.638056" xlink:href="#ma7f9522642" y="546.074403"/>
     <use style="fill:#1f77b4;stroke:#1f77b4;" x="409.673388" xlink:href="#ma7f9522642" y="546.074403"/>
     <use style="fill:#1f77b4;stroke:#1f77b4;" x="414.70872" xlink:href="#ma7f9522642" y="546.074403"/>
     <use style="fill:#1f77b4;stroke:#1f77b4;" x="419.744052" xlink:href="#ma7f9522642" y="546.074403"/>
     <use style="fill:#1f77b4;stroke:#1f77b4;" x="424.779384" xlink:href="#ma7f9522642" y="546.074403"/>
     <use style="fill:#1f77b4;stroke:#1f77b4;" x="429.814716" xlink:href="#ma7f9522642" y="546.074403"/>
     <use style="fill:#1f77b4;stroke:#1f77b4;" x="434.850048" xlink:href="#ma7f9522642" y="546.074403"/>
     <use style="fill:#1f77b4;stroke:#1f77b4;" x="439.88538" xlink:href="#ma7f9522642" y="546.074403"/>
     <use style="fill:#1f77b4;stroke:#1f77b4;" x="444.920712" xlink:href="#ma7f9522642" y="546.074403"/>
     <use style="fill:#1f77b4;stroke:#1f77b4;" x="449.956044" xlink:href="#ma7f9522642" y="546.074403"/>
     <use style="fill:#1f77b4;stroke:#1f77b4;" x="454.991376" xlink:href="#ma7f9522642" y="546.074403"/>
     <use style="fill:#1f77b4;stroke:#1f77b4;" x="460.026708" xlink:href="#ma7f9522642" y="328.962118"/>
     <use style="fill:#1f77b4;stroke:#1f77b4;" x="465.062041" xlink:href="#ma7f9522642" y="546.074403"/>
     <use style="fill:#1f77b4;stroke:#1f77b4;" x="470.097373" xlink:href="#ma7f9522642" y="546.074403"/>
     <use style="fill:#1f77b4;stroke:#1f77b4;" x="475.132705" xlink:href="#ma7f9522642" y="546.074403"/>
     <use style="fill:#1f77b4;stroke:#1f77b4;" x="480.168037" xlink:href="#ma7f9522642" y="546.074403"/>
     <use style="fill:#1f77b4;stroke:#1f77b4;" x="485.203369" xlink:href="#ma7f9522642" y="546.074403"/>
     <use style="fill:#1f77b4;stroke:#1f77b4;" x="490.238701" xlink:href="#ma7f9522642" y="546.074403"/>
     <use style="fill:#1f77b4;stroke:#1f77b4;" x="495.274033" xlink:href="#ma7f9522642" y="546.074403"/>
     <use style="fill:#1f77b4;stroke:#1f77b4;" x="500.309365" xlink:href="#ma7f9522642" y="546.074403"/>
     <use style="fill:#1f77b4;stroke:#1f77b4;" x="505.344697" xlink:href="#ma7f9522642" y="328.962118"/>
     <use style="fill:#1f77b4;stroke:#1f77b4;" x="510.380029" xlink:href="#ma7f9522642" y="546.074403"/>
     <use style="fill:#1f77b4;stroke:#1f77b4;" x="515.415361" xlink:href="#ma7f9522642" y="546.074403"/>
     <use style="fill:#1f77b4;stroke:#1f77b4;" x="520.450693" xlink:href="#ma7f9522642" y="546.074403"/>
     <use style="fill:#1f77b4;stroke:#1f77b4;" x="525.486025" xlink:href="#ma7f9522642" y="546.074403"/>
     <use style="fill:#1f77b4;stroke:#1f77b4;" x="530.521357" xlink:href="#ma7f9522642" y="328.962118"/>
     <use style="fill:#1f77b4;stroke:#1f77b4;" x="535.556689" xlink:href="#ma7f9522642" y="546.074403"/>
     <use style="fill:#1f77b4;stroke:#1f77b4;" x="540.592021" xlink:href="#ma7f9522642" y="546.074403"/>
     <use style="fill:#1f77b4;stroke:#1f77b4;" x="545.627353" xlink:href="#ma7f9522642" y="546.074403"/>
     <use style="fill:#1f77b4;stroke:#1f77b4;" x="550.662685" xlink:href="#ma7f9522642" y="546.074403"/>
     <use style="fill:#1f77b4;stroke:#1f77b4;" x="555.698017" xlink:href="#ma7f9522642" y="546.074403"/>
     <use style="fill:#1f77b4;stroke:#1f77b4;" x="560.733349" xlink:href="#ma7f9522642" y="546.074403"/>
     <use style="fill:#1f77b4;stroke:#1f77b4;" x="565.768681" xlink:href="#ma7f9522642" y="546.074403"/>
     <use style="fill:#1f77b4;stroke:#1f77b4;" x="570.804013" xlink:href="#ma7f9522642" y="546.074403"/>
    </g>
   </g>
   <g id="patch_3">
    <path d="M 47.38125 570.84375 
L 47.38125 25.918125 
" style="fill:none;stroke:#000000;stroke-linecap:square;stroke-linejoin:miter;stroke-width:0.8;"/>
   </g>
   <g id="patch_4">
    <path d="M 595.728906 570.84375 
L 595.728906 25.918125 
" style="fill:none;stroke:#000000;stroke-linecap:square;stroke-linejoin:miter;stroke-width:0.8;"/>
   </g>
   <g id="patch_5">
    <path d="M 47.38125 570.84375 
L 595.728906 570.84375 
" style="fill:none;stroke:#000000;stroke-linecap:square;stroke-linejoin:miter;stroke-width:0.8;"/>
   </g>
   <g id="patch_6">
    <path d="M 47.38125 25.918125 
L 595.728906 25.918125 
" style="fill:none;stroke:#000000;stroke-linecap:square;stroke-linejoin:miter;stroke-width:0.8;"/>
   </g>
  </g>
  <g id="axes_2">
   <g id="patch_7">
    <path d="M 661.352344 570.84375 
L 1209.7 570.84375 
L 1209.7 25.918125 
L 661.352344 25.918125 
z
" style="fill:#ffffff;"/>
   </g>
   <g id="matplotlib.axis_3">
    <g id="xtick_7">
     <g id="line2d_18">
      <g>
       <use style="stroke:#000000;stroke-width:0.8;" x="761.051918" xlink:href="#mc865af386d" y="570.84375"/>
      </g>
     </g>
     <g id="text_18">
      <!-- 200000 -->
      <g transform="translate(741.964418 585.442188)scale(0.1 -0.1)">
       <use xlink:href="#DejaVuSans-32"/>
       <use x="63.623047" xlink:href="#DejaVuSans-30"/>
       <use x="127.246094" xlink:href="#DejaVuSans-30"/>
       <use x="190.869141" xlink:href="#DejaVuSans-30"/>
       <use x="254.492188" xlink:href="#DejaVuSans-30"/>
       <use x="318.115234" xlink:href="#DejaVuSans-30"/>
      </g>
     </g>
    </g>
    <g id="xtick_8">
     <g id="line2d_19">
      <g>
       <use style="stroke:#000000;stroke-width:0.8;" x="868.337329" xlink:href="#mc865af386d" y="570.84375"/>
      </g>
     </g>
     <g id="text_19">
      <!-- 400000 -->
      <g transform="translate(849.249829 585.442188)scale(0.1 -0.1)">
       <use xlink:href="#DejaVuSans-34"/>
       <use x="63.623047" xlink:href="#DejaVuSans-30"/>
       <use x="127.246094" xlink:href="#DejaVuSans-30"/>
       <use x="190.869141" xlink:href="#DejaVuSans-30"/>
       <use x="254.492188" xlink:href="#DejaVuSans-30"/>
       <use x="318.115234" xlink:href="#DejaVuSans-30"/>
      </g>
     </g>
    </g>
    <g id="xtick_9">
     <g id="line2d_20">
      <g>
       <use style="stroke:#000000;stroke-width:0.8;" x="975.62274" xlink:href="#mc865af386d" y="570.84375"/>
      </g>
     </g>
     <g id="text_20">
      <!-- 600000 -->
      <g transform="translate(956.53524 585.442188)scale(0.1 -0.1)">
       <use xlink:href="#DejaVuSans-36"/>
       <use x="63.623047" xlink:href="#DejaVuSans-30"/>
       <use x="127.246094" xlink:href="#DejaVuSans-30"/>
       <use x="190.869141" xlink:href="#DejaVuSans-30"/>
       <use x="254.492188" xlink:href="#DejaVuSans-30"/>
       <use x="318.115234" xlink:href="#DejaVuSans-30"/>
      </g>
     </g>
    </g>
    <g id="xtick_10">
     <g id="line2d_21">
      <g>
       <use style="stroke:#000000;stroke-width:0.8;" x="1082.908151" xlink:href="#mc865af386d" y="570.84375"/>
      </g>
     </g>
     <g id="text_21">
      <!-- 800000 -->
      <g transform="translate(1063.820651 585.442188)scale(0.1 -0.1)">
       <use xlink:href="#DejaVuSans-38"/>
       <use x="63.623047" xlink:href="#DejaVuSans-30"/>
       <use x="127.246094" xlink:href="#DejaVuSans-30"/>
       <use x="190.869141" xlink:href="#DejaVuSans-30"/>
       <use x="254.492188" xlink:href="#DejaVuSans-30"/>
       <use x="318.115234" xlink:href="#DejaVuSans-30"/>
      </g>
     </g>
    </g>
    <g id="xtick_11">
     <g id="line2d_22">
      <g>
       <use style="stroke:#000000;stroke-width:0.8;" x="1190.193562" xlink:href="#mc865af386d" y="570.84375"/>
      </g>
     </g>
     <g id="text_22">
      <!-- 1000000 -->
      <g transform="translate(1167.924812 585.442188)scale(0.1 -0.1)">
       <use xlink:href="#DejaVuSans-31"/>
       <use x="63.623047" xlink:href="#DejaVuSans-30"/>
       <use x="127.246094" xlink:href="#DejaVuSans-30"/>
       <use x="190.869141" xlink:href="#DejaVuSans-30"/>
       <use x="254.492188" xlink:href="#DejaVuSans-30"/>
       <use x="318.115234" xlink:href="#DejaVuSans-30"/>
       <use x="381.738281" xlink:href="#DejaVuSans-30"/>
      </g>
     </g>
    </g>
    <g id="text_23">
     <!-- rf time (us) -->
     <g transform="translate(907.561328 599.120312)scale(0.1 -0.1)">
      <use xlink:href="#DejaVuSans-72"/>
      <use x="41.113281" xlink:href="#DejaVuSans-66"/>
      <use x="76.318359" xlink:href="#DejaVuSans-20"/>
      <use x="108.105469" xlink:href="#DejaVuSans-74"/>
      <use x="147.314453" xlink:href="#DejaVuSans-69"/>
      <use x="175.097656" xlink:href="#DejaVuSans-6d"/>
      <use x="272.509766" xlink:href="#DejaVuSans-65"/>
      <use x="334.033203" xlink:href="#DejaVuSans-20"/>
      <use x="365.820312" xlink:href="#DejaVuSans-28"/>
      <use x="404.833984" xlink:href="#DejaVuSans-75"/>
      <use x="468.212891" xlink:href="#DejaVuSans-73"/>
      <use x="520.3125" xlink:href="#DejaVuSans-29"/>
     </g>
    </g>
   </g>
   <g id="matplotlib.axis_4">
    <g id="ytick_9">
     <g id="line2d_23">
      <g>
       <use style="stroke:#000000;stroke-width:0.8;" x="661.352344" xlink:href="#m151082b3ce" y="569.355972"/>
      </g>
     </g>
     <g id="text_24">
      <!-- −2.00 -->
      <defs>
       <path d="M 10.59375 35.5 
L 73.1875 35.5 
L 73.1875 27.203125 
L 10.59375 27.203125 
z
" id="DejaVuSans-2212"/>
      </defs>
      <g transform="translate(623.707031 573.155191)scale(0.1 -0.1)">
       <use xlink:href="#DejaVuSans-2212"/>
       <use x="83.789062" xlink:href="#DejaVuSans-32"/>
       <use x="147.412109" xlink:href="#DejaVuSans-2e"/>
       <use x="179.199219" xlink:href="#DejaVuSans-30"/>
       <use x="242.822266" xlink:href="#DejaVuSans-30"/>
      </g>
     </g>
    </g>
    <g id="ytick_10">
     <g id="line2d_24">
      <g>
       <use style="stroke:#000000;stroke-width:0.8;" x="661.352344" xlink:href="#m151082b3ce" y="504.522409"/>
      </g>
     </g>
     <g id="text_25">
      <!-- −1.75 -->
      <defs>
       <path d="M 10.796875 72.90625 
L 49.515625 72.90625 
L 49.515625 64.59375 
L 19.828125 64.59375 
L 19.828125 46.734375 
Q 21.96875 47.46875 24.109375 47.828125 
Q 26.265625 48.1875 28.421875 48.1875 
Q 40.625 48.1875 47.75 41.5 
Q 54.890625 34.8125 54.890625 23.390625 
Q 54.890625 11.625 47.5625 5.09375 
Q 40.234375 -1.421875 26.90625 -1.421875 
Q 22.3125 -1.421875 17.546875 -0.640625 
Q 12.796875 0.140625 7.71875 1.703125 
L 7.71875 11.625 
Q 12.109375 9.234375 16.796875 8.0625 
Q 21.484375 6.890625 26.703125 6.890625 
Q 35.15625 6.890625 40.078125 11.328125 
Q 45.015625 15.765625 45.015625 23.390625 
Q 45.015625 31 40.078125 35.4375 
Q 35.15625 39.890625 26.703125 39.890625 
Q 22.75 39.890625 18.8125 39.015625 
Q 14.890625 38.140625 10.796875 36.28125 
z
" id="DejaVuSans-35"/>
      </defs>
      <g transform="translate(623.707031 508.321628)scale(0.1 -0.1)">
       <use xlink:href="#DejaVuSans-2212"/>
       <use x="83.789062" xlink:href="#DejaVuSans-31"/>
       <use x="147.412109" xlink:href="#DejaVuSans-2e"/>
       <use x="179.199219" xlink:href="#DejaVuSans-37"/>
       <use x="242.822266" xlink:href="#DejaVuSans-35"/>
      </g>
     </g>
    </g>
    <g id="ytick_11">
     <g id="line2d_25">
      <g>
       <use style="stroke:#000000;stroke-width:0.8;" x="661.352344" xlink:href="#m151082b3ce" y="439.688847"/>
      </g>
     </g>
     <g id="text_26">
      <!-- −1.50 -->
      <g transform="translate(623.707031 443.488066)scale(0.1 -0.1)">
       <use xlink:href="#DejaVuSans-2212"/>
       <use x="83.789062" xlink:href="#DejaVuSans-31"/>
       <use x="147.412109" xlink:href="#DejaVuSans-2e"/>
       <use x="179.199219" xlink:href="#DejaVuSans-35"/>
       <use x="242.822266" xlink:href="#DejaVuSans-30"/>
      </g>
     </g>
    </g>
    <g id="ytick_12">
     <g id="line2d_26">
      <g>
       <use style="stroke:#000000;stroke-width:0.8;" x="661.352344" xlink:href="#m151082b3ce" y="374.855284"/>
      </g>
     </g>
     <g id="text_27">
      <!-- −1.25 -->
      <g transform="translate(623.707031 378.654503)scale(0.1 -0.1)">
       <use xlink:href="#DejaVuSans-2212"/>
       <use x="83.789062" xlink:href="#DejaVuSans-31"/>
       <use x="147.412109" xlink:href="#DejaVuSans-2e"/>
       <use x="179.199219" xlink:href="#DejaVuSans-32"/>
       <use x="242.822266" xlink:href="#DejaVuSans-35"/>
      </g>
     </g>
    </g>
    <g id="ytick_13">
     <g id="line2d_27">
      <g>
       <use style="stroke:#000000;stroke-width:0.8;" x="661.352344" xlink:href="#m151082b3ce" y="310.021722"/>
      </g>
     </g>
     <g id="text_28">
      <!-- −1.00 -->
      <g transform="translate(623.707031 313.820941)scale(0.1 -0.1)">
       <use xlink:href="#DejaVuSans-2212"/>
       <use x="83.789062" xlink:href="#DejaVuSans-31"/>
       <use x="147.412109" xlink:href="#DejaVuSans-2e"/>
       <use x="179.199219" xlink:href="#DejaVuSans-30"/>
       <use x="242.822266" xlink:href="#DejaVuSans-30"/>
      </g>
     </g>
    </g>
    <g id="ytick_14">
     <g id="line2d_28">
      <g>
       <use style="stroke:#000000;stroke-width:0.8;" x="661.352344" xlink:href="#m151082b3ce" y="245.188159"/>
      </g>
     </g>
     <g id="text_29">
      <!-- −0.75 -->
      <g transform="translate(623.707031 248.987378)scale(0.1 -0.1)">
       <use xlink:href="#DejaVuSans-2212"/>
       <use x="83.789062" xlink:href="#DejaVuSans-30"/>
       <use x="147.412109" xlink:href="#DejaVuSans-2e"/>
       <use x="179.199219" xlink:href="#DejaVuSans-37"/>
       <use x="242.822266" xlink:href="#DejaVuSans-35"/>
      </g>
     </g>
    </g>
    <g id="ytick_15">
     <g id="line2d_29">
      <g>
       <use style="stroke:#000000;stroke-width:0.8;" x="661.352344" xlink:href="#m151082b3ce" y="180.354597"/>
      </g>
     </g>
     <g id="text_30">
      <!-- −0.50 -->
      <g transform="translate(623.707031 184.153815)scale(0.1 -0.1)">
       <use xlink:href="#DejaVuSans-2212"/>
       <use x="83.789062" xlink:href="#DejaVuSans-30"/>
       <use x="147.412109" xlink:href="#DejaVuSans-2e"/>
       <use x="179.199219" xlink:href="#DejaVuSans-35"/>
       <use x="242.822266" xlink:href="#DejaVuSans-30"/>
      </g>
     </g>
    </g>
    <g id="ytick_16">
     <g id="line2d_30">
      <g>
       <use style="stroke:#000000;stroke-width:0.8;" x="661.352344" xlink:href="#m151082b3ce" y="115.521034"/>
      </g>
     </g>
     <g id="text_31">
      <!-- −0.25 -->
      <g transform="translate(623.707031 119.320253)scale(0.1 -0.1)">
       <use xlink:href="#DejaVuSans-2212"/>
       <use x="83.789062" xlink:href="#DejaVuSans-30"/>
       <use x="147.412109" xlink:href="#DejaVuSans-2e"/>
       <use x="179.199219" xlink:href="#DejaVuSans-32"/>
       <use x="242.822266" xlink:href="#DejaVuSans-35"/>
      </g>
     </g>
    </g>
    <g id="ytick_17">
     <g id="line2d_31">
      <g>
       <use style="stroke:#000000;stroke-width:0.8;" x="661.352344" xlink:href="#m151082b3ce" y="50.687472"/>
      </g>
     </g>
     <g id="text_32">
      <!-- 0.00 -->
      <g transform="translate(632.086719 54.48669)scale(0.1 -0.1)">
       <use xlink:href="#DejaVuSans-30"/>
       <use x="63.623047" xlink:href="#DejaVuSans-2e"/>
       <use x="95.410156" xlink:href="#DejaVuSans-30"/>
       <use x="159.033203" xlink:href="#DejaVuSans-30"/>
      </g>
     </g>
    </g>
    <g id="text_33">
     <!-- Normalized signal -->
     <defs>
      <path d="M 9.8125 72.90625 
L 23.09375 72.90625 
L 55.421875 11.921875 
L 55.421875 72.90625 
L 64.984375 72.90625 
L 64.984375 0 
L 51.703125 0 
L 19.390625 60.984375 
L 19.390625 0 
L 9.8125 0 
z
" id="DejaVuSans-4e"/>
      <path d="M 34.28125 27.484375 
Q 23.390625 27.484375 19.1875 25 
Q 14.984375 22.515625 14.984375 16.5 
Q 14.984375 11.71875 18.140625 8.90625 
Q 21.296875 6.109375 26.703125 6.109375 
Q 34.1875 6.109375 38.703125 11.40625 
Q 43.21875 16.703125 43.21875 25.484375 
L 43.21875 27.484375 
z
M 52.203125 31.203125 
L 52.203125 0 
L 43.21875 0 
L 43.21875 8.296875 
Q 40.140625 3.328125 35.546875 0.953125 
Q 30.953125 -1.421875 24.3125 -1.421875 
Q 15.921875 -1.421875 10.953125 3.296875 
Q 6 8.015625 6 15.921875 
Q 6 25.140625 12.171875 29.828125 
Q 18.359375 34.515625 30.609375 34.515625 
L 43.21875 34.515625 
L 43.21875 35.40625 
Q 43.21875 41.609375 39.140625 45 
Q 35.0625 48.390625 27.6875 48.390625 
Q 23 48.390625 18.546875 47.265625 
Q 14.109375 46.140625 10.015625 43.890625 
L 10.015625 52.203125 
Q 14.9375 54.109375 19.578125 55.046875 
Q 24.21875 56 28.609375 56 
Q 40.484375 56 46.34375 49.84375 
Q 52.203125 43.703125 52.203125 31.203125 
z
" id="DejaVuSans-61"/>
      <path d="M 9.421875 75.984375 
L 18.40625 75.984375 
L 18.40625 0 
L 9.421875 0 
z
" id="DejaVuSans-6c"/>
      <path d="M 5.515625 54.6875 
L 48.1875 54.6875 
L 48.1875 46.484375 
L 14.40625 7.171875 
L 48.1875 7.171875 
L 48.1875 0 
L 4.296875 0 
L 4.296875 8.203125 
L 38.09375 47.515625 
L 5.515625 47.515625 
z
" id="DejaVuSans-7a"/>
      <path d="M 45.40625 46.390625 
L 45.40625 75.984375 
L 54.390625 75.984375 
L 54.390625 0 
L 45.40625 0 
L 45.40625 8.203125 
Q 42.578125 3.328125 38.25 0.953125 
Q 33.9375 -1.421875 27.875 -1.421875 
Q 17.96875 -1.421875 11.734375 6.484375 
Q 5.515625 14.40625 5.515625 27.296875 
Q 5.515625 40.1875 11.734375 48.09375 
Q 17.96875 56 27.875 56 
Q 33.9375 56 38.25 53.625 
Q 42.578125 51.265625 45.40625 46.390625 
z
M 14.796875 27.296875 
Q 14.796875 17.390625 18.875 11.75 
Q 22.953125 6.109375 30.078125 6.109375 
Q 37.203125 6.109375 41.296875 11.75 
Q 45.40625 17.390625 45.40625 27.296875 
Q 45.40625 37.203125 41.296875 42.84375 
Q 37.203125 48.484375 30.078125 48.484375 
Q 22.953125 48.484375 18.875 42.84375 
Q 14.796875 37.203125 14.796875 27.296875 
z
" id="DejaVuSans-64"/>
      <path d="M 45.40625 27.984375 
Q 45.40625 37.75 41.375 43.109375 
Q 37.359375 48.484375 30.078125 48.484375 
Q 22.859375 48.484375 18.828125 43.109375 
Q 14.796875 37.75 14.796875 27.984375 
Q 14.796875 18.265625 18.828125 12.890625 
Q 22.859375 7.515625 30.078125 7.515625 
Q 37.359375 7.515625 41.375 12.890625 
Q 45.40625 18.265625 45.40625 27.984375 
z
M 54.390625 6.78125 
Q 54.390625 -7.171875 48.1875 -13.984375 
Q 42 -20.796875 29.203125 -20.796875 
Q 24.46875 -20.796875 20.265625 -20.09375 
Q 16.0625 -19.390625 12.109375 -17.921875 
L 12.109375 -9.1875 
Q 16.0625 -11.328125 19.921875 -12.34375 
Q 23.78125 -13.375 27.78125 -13.375 
Q 36.625 -13.375 41.015625 -8.765625 
Q 45.40625 -4.15625 45.40625 5.171875 
L 45.40625 9.625 
Q 42.625 4.78125 38.28125 2.390625 
Q 33.9375 0 27.875 0 
Q 17.828125 0 11.671875 7.65625 
Q 5.515625 15.328125 5.515625 27.984375 
Q 5.515625 40.671875 11.671875 48.328125 
Q 17.828125 56 27.875 56 
Q 33.9375 56 38.28125 53.609375 
Q 42.625 51.21875 45.40625 46.390625 
L 45.40625 54.6875 
L 54.390625 54.6875 
z
" id="DejaVuSans-67"/>
     </defs>
     <g transform="translate(617.627344 343.202031)rotate(-90)scale(0.1 -0.1)">
      <use xlink:href="#DejaVuSans-4e"/>
      <use x="74.804688" xlink:href="#DejaVuSans-6f"/>
      <use x="135.986328" xlink:href="#DejaVuSans-72"/>
      <use x="177.083984" xlink:href="#DejaVuSans-6d"/>
      <use x="274.496094" xlink:href="#DejaVuSans-61"/>
      <use x="335.775391" xlink:href="#DejaVuSans-6c"/>
      <use x="363.558594" xlink:href="#DejaVuSans-69"/>
      <use x="391.341797" xlink:href="#DejaVuSans-7a"/>
      <use x="443.832031" xlink:href="#DejaVuSans-65"/>
      <use x="505.355469" xlink:href="#DejaVuSans-64"/>
      <use x="568.832031" xlink:href="#DejaVuSans-20"/>
      <use x="600.619141" xlink:href="#DejaVuSans-73"/>
      <use x="652.71875" xlink:href="#DejaVuSans-69"/>
      <use x="680.501953" xlink:href="#DejaVuSans-67"/>
      <use x="743.978516" xlink:href="#DejaVuSans-6e"/>
      <use x="807.357422" xlink:href="#DejaVuSans-61"/>
      <use x="868.636719" xlink:href="#DejaVuSans-6c"/>
     </g>
    </g>
    <g id="text_34">
     <!-- 1e156 -->
     <g transform="translate(661.352344 22.918125)scale(0.1 -0.1)">
      <use xlink:href="#DejaVuSans-31"/>
      <use x="63.623047" xlink:href="#DejaVuSans-65"/>
      <use x="125.146484" xlink:href="#DejaVuSans-31"/>
      <use x="188.769531" xlink:href="#DejaVuSans-35"/>
      <use x="252.392578" xlink:href="#DejaVuSans-36"/>
     </g>
    </g>
   </g>
   <g id="line2d_32">
    <path clip-path="url(#p96e91047c5)" d="M 686.277237 50.687472 
L 691.695692 50.687472 
L 697.114147 50.687472 
L 702.532603 50.687472 
L 707.951058 546.074403 
L 713.369513 50.687472 
L 718.787968 50.687472 
L 724.206423 50.687472 
L 729.624878 50.687472 
L 735.043333 50.687472 
L 740.461788 523.105413 
L 745.880243 50.687472 
L 751.298698 50.687472 
L 756.717154 50.687472 
L 762.135609 50.687472 
L 767.554064 50.687472 
L 772.972519 50.687472 
L 778.390974 50.687472 
L 783.809429 50.687472 
L 789.227884 50.687472 
L 794.646339 50.687472 
L 800.064794 50.687472 
L 805.483249 50.687472 
L 810.901705 50.687472 
L 816.32016 50.687472 
L 821.738615 50.687472 
L 827.15707 50.687472 
L 832.575525 50.687472 
L 837.99398 50.687472 
L 843.412435 50.687472 
L 848.83089 50.687472 
L 854.249345 50.687472 
L 859.6678 50.687472 
L 865.086256 50.687472 
L 870.504711 50.687472 
L 875.923166 50.687472 
L 881.341621 50.687472 
L 886.760076 50.687472 
L 892.178531 50.687472 
L 897.596986 50.687472 
L 903.015441 50.687472 
L 908.433896 50.687472 
L 913.852351 50.687472 
L 919.270807 50.687472 
L 924.689262 50.687472 
L 930.107717 50.687472 
L 935.526172 50.687472 
L 940.944627 50.687472 
L 946.363082 50.687472 
L 951.781537 50.687472 
L 957.199992 50.687472 
L 962.618447 50.687472 
L 968.036902 50.687472 
L 973.455358 50.687472 
L 978.873813 50.687472 
L 984.292268 50.687472 
L 989.710723 50.687472 
L 995.129178 50.687472 
L 1000.547633 50.687472 
L 1005.966088 50.687472 
L 1011.384543 50.687472 
L 1016.802998 50.687472 
L 1022.221453 50.687472 
L 1027.639909 528.241222 
L 1033.058364 50.687472 
L 1038.476819 50.687472 
L 1043.895274 50.687472 
L 1049.313729 50.687472 
L 1054.732184 50.687472 
L 1060.150639 50.687472 
L 1065.569094 50.687472 
L 1070.987549 50.687472 
L 1076.406005 50.687472 
L 1081.82446 50.687472 
L 1087.242915 50.687472 
L 1092.66137 50.687472 
L 1098.079825 50.687472 
L 1103.49828 50.687472 
L 1108.916735 50.687472 
L 1114.33519 50.687472 
L 1119.753645 50.687472 
L 1125.1721 50.687472 
L 1130.590556 50.687472 
L 1136.009011 50.687472 
L 1141.427466 50.687472 
L 1146.845921 50.687472 
L 1152.264376 50.687472 
L 1157.682831 50.687472 
L 1163.101286 50.687472 
L 1168.519741 50.687472 
L 1173.938196 50.687472 
L 1179.356651 50.687472 
L 1184.775107 50.687472 
" style="fill:none;stroke:#0000ff;stroke-linecap:square;stroke-width:1.5;"/>
   </g>
   <g id="patch_8">
    <path d="M 661.352344 570.84375 
L 661.352344 25.918125 
" style="fill:none;stroke:#000000;stroke-linecap:square;stroke-linejoin:miter;stroke-width:0.8;"/>
   </g>
   <g id="patch_9">
    <path d="M 1209.7 570.84375 
L 1209.7 25.918125 
" style="fill:none;stroke:#000000;stroke-linecap:square;stroke-linejoin:miter;stroke-width:0.8;"/>
   </g>
   <g id="patch_10">
    <path d="M 661.352344 570.84375 
L 1209.7 570.84375 
" style="fill:none;stroke:#000000;stroke-linecap:square;stroke-linejoin:miter;stroke-width:0.8;"/>
   </g>
   <g id="patch_11">
    <path d="M 661.352344 25.918125 
L 1209.7 25.918125 
" style="fill:none;stroke:#000000;stroke-linecap:square;stroke-linejoin:miter;stroke-width:0.8;"/>
   </g>
   <g id="text_35">
    <!-- Normalized Signal with varying rf time -->
    <defs>
     <path d="M 53.515625 70.515625 
L 53.515625 60.890625 
Q 47.90625 63.578125 42.921875 64.890625 
Q 37.9375 66.21875 33.296875 66.21875 
Q 25.25 66.21875 20.875 63.09375 
Q 16.5 59.96875 16.5 54.203125 
Q 16.5 49.359375 19.40625 46.890625 
Q 22.3125 44.4375 30.421875 42.921875 
L 36.375 41.703125 
Q 47.40625 39.59375 52.65625 34.296875 
Q 57.90625 29 57.90625 20.125 
Q 57.90625 9.515625 50.796875 4.046875 
Q 43.703125 -1.421875 29.984375 -1.421875 
Q 24.8125 -1.421875 18.96875 -0.25 
Q 13.140625 0.921875 6.890625 3.21875 
L 6.890625 13.375 
Q 12.890625 10.015625 18.65625 8.296875 
Q 24.421875 6.59375 29.984375 6.59375 
Q 38.421875 6.59375 43.015625 9.90625 
Q 47.609375 13.234375 47.609375 19.390625 
Q 47.609375 24.75 44.3125 27.78125 
Q 41.015625 30.8125 33.5 32.328125 
L 27.484375 33.5 
Q 16.453125 35.6875 11.515625 40.375 
Q 6.59375 45.0625 6.59375 53.421875 
Q 6.59375 63.09375 13.40625 68.65625 
Q 20.21875 74.21875 32.171875 74.21875 
Q 37.3125 74.21875 42.625 73.28125 
Q 47.953125 72.359375 53.515625 70.515625 
z
" id="DejaVuSans-53"/>
     <path d="M 4.203125 54.6875 
L 13.1875 54.6875 
L 24.421875 12.015625 
L 35.59375 54.6875 
L 46.1875 54.6875 
L 57.421875 12.015625 
L 68.609375 54.6875 
L 77.59375 54.6875 
L 63.28125 0 
L 52.6875 0 
L 40.921875 44.828125 
L 29.109375 0 
L 18.5 0 
z
" id="DejaVuSans-77"/>
     <path d="M 54.890625 33.015625 
L 54.890625 0 
L 45.90625 0 
L 45.90625 32.71875 
Q 45.90625 40.484375 42.875 44.328125 
Q 39.84375 48.1875 33.796875 48.1875 
Q 26.515625 48.1875 22.3125 43.546875 
Q 18.109375 38.921875 18.109375 30.90625 
L 18.109375 0 
L 9.078125 0 
L 9.078125 75.984375 
L 18.109375 75.984375 
L 18.109375 46.1875 
Q 21.34375 51.125 25.703125 53.5625 
Q 30.078125 56 35.796875 56 
Q 45.21875 56 50.046875 50.171875 
Q 54.890625 44.34375 54.890625 33.015625 
z
" id="DejaVuSans-68"/>
     <path d="M 2.984375 54.6875 
L 12.5 54.6875 
L 29.59375 8.796875 
L 46.6875 54.6875 
L 56.203125 54.6875 
L 35.6875 0 
L 23.484375 0 
z
" id="DejaVuSans-76"/>
     <path d="M 32.171875 -5.078125 
Q 28.375 -14.84375 24.75 -17.8125 
Q 21.140625 -20.796875 15.09375 -20.796875 
L 7.90625 -20.796875 
L 7.90625 -13.28125 
L 13.1875 -13.28125 
Q 16.890625 -13.28125 18.9375 -11.515625 
Q 21 -9.765625 23.484375 -3.21875 
L 25.09375 0.875 
L 2.984375 54.6875 
L 12.5 54.6875 
L 29.59375 11.921875 
L 46.6875 54.6875 
L 56.203125 54.6875 
z
" id="DejaVuSans-79"/>
    </defs>
    <g transform="translate(820.043047 19.918125)scale(0.12 -0.12)">
     <use xlink:href="#DejaVuSans-4e"/>
     <use x="74.804688" xlink:href="#DejaVuSans-6f"/>
     <use x="135.986328" xlink:href="#DejaVuSans-72"/>
     <use x="177.083984" xlink:href="#DejaVuSans-6d"/>
     <use x="274.496094" xlink:href="#DejaVuSans-61"/>
     <use x="335.775391" xlink:href="#DejaVuSans-6c"/>
     <use x="363.558594" xlink:href="#DejaVuSans-69"/>
     <use x="391.341797" xlink:href="#DejaVuSans-7a"/>
     <use x="443.832031" xlink:href="#DejaVuSans-65"/>
     <use x="505.355469" xlink:href="#DejaVuSans-64"/>
     <use x="568.832031" xlink:href="#DejaVuSans-20"/>
     <use x="600.619141" xlink:href="#DejaVuSans-53"/>
     <use x="664.095703" xlink:href="#DejaVuSans-69"/>
     <use x="691.878906" xlink:href="#DejaVuSans-67"/>
     <use x="755.355469" xlink:href="#DejaVuSans-6e"/>
     <use x="818.734375" xlink:href="#DejaVuSans-61"/>
     <use x="880.013672" xlink:href="#DejaVuSans-6c"/>
     <use x="907.796875" xlink:href="#DejaVuSans-20"/>
     <use x="939.583984" xlink:href="#DejaVuSans-77"/>
     <use x="1021.371094" xlink:href="#DejaVuSans-69"/>
     <use x="1049.154297" xlink:href="#DejaVuSans-74"/>
     <use x="1088.363281" xlink:href="#DejaVuSans-68"/>
     <use x="1151.742188" xlink:href="#DejaVuSans-20"/>
     <use x="1183.529297" xlink:href="#DejaVuSans-76"/>
     <use x="1242.708984" xlink:href="#DejaVuSans-61"/>
     <use x="1303.988281" xlink:href="#DejaVuSans-72"/>
     <use x="1345.101562" xlink:href="#DejaVuSans-79"/>
     <use x="1404.28125" xlink:href="#DejaVuSans-69"/>
     <use x="1432.064453" xlink:href="#DejaVuSans-6e"/>
     <use x="1495.443359" xlink:href="#DejaVuSans-67"/>
     <use x="1558.919922" xlink:href="#DejaVuSans-20"/>
     <use x="1590.707031" xlink:href="#DejaVuSans-72"/>
     <use x="1631.820312" xlink:href="#DejaVuSans-66"/>
     <use x="1667.025391" xlink:href="#DejaVuSans-20"/>
     <use x="1698.8125" xlink:href="#DejaVuSans-74"/>
     <use x="1738.021484" xlink:href="#DejaVuSans-69"/>
     <use x="1765.804688" xlink:href="#DejaVuSans-6d"/>
     <use x="1863.216797" xlink:href="#DejaVuSans-65"/>
    </g>
   </g>
  </g>
 </g>
 <defs>
  <clipPath id="p1a94cc016d">
   <rect height="544.925625" width="548.347656" x="47.38125" y="25.918125"/>
  </clipPath>
  <clipPath id="p96e91047c5">
   <rect height="544.925625" width="548.347656" x="661.352344" y="25.918125"/>
  </clipPath>
 </defs>
</svg>
