<?xml version="1.0" encoding="utf-8" standalone="no"?>
<!DOCTYPE svg PUBLIC "-//W3C//DTD SVG 1.1//EN"
  "http://www.w3.org/Graphics/SVG/1.1/DTD/svg11.dtd">
<!-- Created with matplotlib (http://matplotlib.org/) -->
<svg height="612pt" version="1.1" viewBox="0 0 1224 612" width="1224pt" xmlns="http://www.w3.org/2000/svg" xmlns:xlink="http://www.w3.org/1999/xlink">
 <defs>
  <style type="text/css">
*{stroke-linecap:butt;stroke-linejoin:round;}
  </style>
 </defs>
 <g id="figure_1">
  <g id="patch_1">
   <path d="M 0 612 
L 1224 612 
L 1224 0 
L 0 0 
z
" style="fill:#ffffff;"/>
  </g>
  <g id="axes_1">
   <g id="patch_2">
    <path d="M 44.203125 570.84375 
L 598.329688 570.84375 
L 598.329688 25.918125 
L 44.203125 25.918125 
z
" style="fill:#ffffff;"/>
   </g>
   <g id="matplotlib.axis_1">
    <g id="xtick_1">
     <g id="line2d_1">
      <defs>
       <path d="M 0 0 
L 0 3.5 
" id="m645b5748f1" style="stroke:#000000;stroke-width:0.8;"/>
      </defs>
      <g>
       <use style="stroke:#000000;stroke-width:0.8;" x="43.991465" xlink:href="#m645b5748f1" y="570.84375"/>
      </g>
     </g>
     <g id="text_1">
      <!-- 2.82 -->
      <defs>
       <path d="M 19.1875 8.296875 
L 53.609375 8.296875 
L 53.609375 0 
L 7.328125 0 
L 7.328125 8.296875 
Q 12.9375 14.109375 22.625 23.890625 
Q 32.328125 33.6875 34.8125 36.53125 
Q 39.546875 41.84375 41.421875 45.53125 
Q 43.3125 49.21875 43.3125 52.78125 
Q 43.3125 58.59375 39.234375 62.25 
Q 35.15625 65.921875 28.609375 65.921875 
Q 23.96875 65.921875 18.8125 64.3125 
Q 13.671875 62.703125 7.8125 59.421875 
L 7.8125 69.390625 
Q 13.765625 71.78125 18.9375 73 
Q 24.125 74.21875 28.421875 74.21875 
Q 39.75 74.21875 46.484375 68.546875 
Q 53.21875 62.890625 53.21875 53.421875 
Q 53.21875 48.921875 51.53125 44.890625 
Q 49.859375 40.875 45.40625 35.40625 
Q 44.1875 33.984375 37.640625 27.21875 
Q 31.109375 20.453125 19.1875 8.296875 
z
" id="DejaVuSans-32"/>
       <path d="M 10.6875 12.40625 
L 21 12.40625 
L 21 0 
L 10.6875 0 
z
" id="DejaVuSans-2e"/>
       <path d="M 31.78125 34.625 
Q 24.75 34.625 20.71875 30.859375 
Q 16.703125 27.09375 16.703125 20.515625 
Q 16.703125 13.921875 20.71875 10.15625 
Q 24.75 6.390625 31.78125 6.390625 
Q 38.8125 6.390625 42.859375 10.171875 
Q 46.921875 13.96875 46.921875 20.515625 
Q 46.921875 27.09375 42.890625 30.859375 
Q 38.875 34.625 31.78125 34.625 
z
M 21.921875 38.8125 
Q 15.578125 40.375 12.03125 44.71875 
Q 8.5 49.078125 8.5 55.328125 
Q 8.5 64.0625 14.71875 69.140625 
Q 20.953125 74.21875 31.78125 74.21875 
Q 42.671875 74.21875 48.875 69.140625 
Q 55.078125 64.0625 55.078125 55.328125 
Q 55.078125 49.078125 51.53125 44.71875 
Q 48 40.375 41.703125 38.8125 
Q 48.828125 37.15625 52.796875 32.3125 
Q 56.78125 27.484375 56.78125 20.515625 
Q 56.78125 9.90625 50.3125 4.234375 
Q 43.84375 -1.421875 31.78125 -1.421875 
Q 19.734375 -1.421875 13.25 4.234375 
Q 6.78125 9.90625 6.78125 20.515625 
Q 6.78125 27.484375 10.78125 32.3125 
Q 14.796875 37.15625 21.921875 38.8125 
z
M 18.3125 54.390625 
Q 18.3125 48.734375 21.84375 45.5625 
Q 25.390625 42.390625 31.78125 42.390625 
Q 38.140625 42.390625 41.71875 45.5625 
Q 45.3125 48.734375 45.3125 54.390625 
Q 45.3125 60.0625 41.71875 63.234375 
Q 38.140625 66.40625 31.78125 66.40625 
Q 25.390625 66.40625 21.84375 63.234375 
Q 18.3125 60.0625 18.3125 54.390625 
z
" id="DejaVuSans-38"/>
      </defs>
      <g transform="translate(32.858652 585.442188)scale(0.1 -0.1)">
       <use xlink:href="#DejaVuSans-32"/>
       <use x="63.623047" xlink:href="#DejaVuSans-2e"/>
       <use x="95.410156" xlink:href="#DejaVuSans-38"/>
       <use x="159.033203" xlink:href="#DejaVuSans-32"/>
      </g>
     </g>
    </g>
    <g id="xtick_2">
     <g id="line2d_2">
      <g>
       <use style="stroke:#000000;stroke-width:0.8;" x="145.58839" xlink:href="#m645b5748f1" y="570.84375"/>
      </g>
     </g>
     <g id="text_2">
      <!-- 2.84 -->
      <defs>
       <path d="M 37.796875 64.3125 
L 12.890625 25.390625 
L 37.796875 25.390625 
z
M 35.203125 72.90625 
L 47.609375 72.90625 
L 47.609375 25.390625 
L 58.015625 25.390625 
L 58.015625 17.1875 
L 47.609375 17.1875 
L 47.609375 0 
L 37.796875 0 
L 37.796875 17.1875 
L 4.890625 17.1875 
L 4.890625 26.703125 
z
" id="DejaVuSans-34"/>
      </defs>
      <g transform="translate(134.455577 585.442188)scale(0.1 -0.1)">
       <use xlink:href="#DejaVuSans-32"/>
       <use x="63.623047" xlink:href="#DejaVuSans-2e"/>
       <use x="95.410156" xlink:href="#DejaVuSans-38"/>
       <use x="159.033203" xlink:href="#DejaVuSans-34"/>
      </g>
     </g>
    </g>
    <g id="xtick_3">
     <g id="line2d_3">
      <g>
       <use style="stroke:#000000;stroke-width:0.8;" x="247.185315" xlink:href="#m645b5748f1" y="570.84375"/>
      </g>
     </g>
     <g id="text_3">
      <!-- 2.86 -->
      <defs>
       <path d="M 33.015625 40.375 
Q 26.375 40.375 22.484375 35.828125 
Q 18.609375 31.296875 18.609375 23.390625 
Q 18.609375 15.53125 22.484375 10.953125 
Q 26.375 6.390625 33.015625 6.390625 
Q 39.65625 6.390625 43.53125 10.953125 
Q 47.40625 15.53125 47.40625 23.390625 
Q 47.40625 31.296875 43.53125 35.828125 
Q 39.65625 40.375 33.015625 40.375 
z
M 52.59375 71.296875 
L 52.59375 62.3125 
Q 48.875 64.0625 45.09375 64.984375 
Q 41.3125 65.921875 37.59375 65.921875 
Q 27.828125 65.921875 22.671875 59.328125 
Q 17.53125 52.734375 16.796875 39.40625 
Q 19.671875 43.65625 24.015625 45.921875 
Q 28.375 48.1875 33.59375 48.1875 
Q 44.578125 48.1875 50.953125 41.515625 
Q 57.328125 34.859375 57.328125 23.390625 
Q 57.328125 12.15625 50.6875 5.359375 
Q 44.046875 -1.421875 33.015625 -1.421875 
Q 20.359375 -1.421875 13.671875 8.265625 
Q 6.984375 17.96875 6.984375 36.375 
Q 6.984375 53.65625 15.1875 63.9375 
Q 23.390625 74.21875 37.203125 74.21875 
Q 40.921875 74.21875 44.703125 73.484375 
Q 48.484375 72.75 52.59375 71.296875 
z
" id="DejaVuSans-36"/>
      </defs>
      <g transform="translate(236.052503 585.442188)scale(0.1 -0.1)">
       <use xlink:href="#DejaVuSans-32"/>
       <use x="63.623047" xlink:href="#DejaVuSans-2e"/>
       <use x="95.410156" xlink:href="#DejaVuSans-38"/>
       <use x="159.033203" xlink:href="#DejaVuSans-36"/>
      </g>
     </g>
    </g>
    <g id="xtick_4">
     <g id="line2d_4">
      <g>
       <use style="stroke:#000000;stroke-width:0.8;" x="348.78224" xlink:href="#m645b5748f1" y="570.84375"/>
      </g>
     </g>
     <g id="text_4">
      <!-- 2.88 -->
      <g transform="translate(337.649428 585.442188)scale(0.1 -0.1)">
       <use xlink:href="#DejaVuSans-32"/>
       <use x="63.623047" xlink:href="#DejaVuSans-2e"/>
       <use x="95.410156" xlink:href="#DejaVuSans-38"/>
       <use x="159.033203" xlink:href="#DejaVuSans-38"/>
      </g>
     </g>
    </g>
    <g id="xtick_5">
     <g id="line2d_5">
      <g>
       <use style="stroke:#000000;stroke-width:0.8;" x="450.379165" xlink:href="#m645b5748f1" y="570.84375"/>
      </g>
     </g>
     <g id="text_5">
      <!-- 2.90 -->
      <defs>
       <path d="M 10.984375 1.515625 
L 10.984375 10.5 
Q 14.703125 8.734375 18.5 7.8125 
Q 22.3125 6.890625 25.984375 6.890625 
Q 35.75 6.890625 40.890625 13.453125 
Q 46.046875 20.015625 46.78125 33.40625 
Q 43.953125 29.203125 39.59375 26.953125 
Q 35.25 24.703125 29.984375 24.703125 
Q 19.046875 24.703125 12.671875 31.3125 
Q 6.296875 37.9375 6.296875 49.421875 
Q 6.296875 60.640625 12.9375 67.421875 
Q 19.578125 74.21875 30.609375 74.21875 
Q 43.265625 74.21875 49.921875 64.515625 
Q 56.59375 54.828125 56.59375 36.375 
Q 56.59375 19.140625 48.40625 8.859375 
Q 40.234375 -1.421875 26.421875 -1.421875 
Q 22.703125 -1.421875 18.890625 -0.6875 
Q 15.09375 0.046875 10.984375 1.515625 
z
M 30.609375 32.421875 
Q 37.25 32.421875 41.125 36.953125 
Q 45.015625 41.5 45.015625 49.421875 
Q 45.015625 57.28125 41.125 61.84375 
Q 37.25 66.40625 30.609375 66.40625 
Q 23.96875 66.40625 20.09375 61.84375 
Q 16.21875 57.28125 16.21875 49.421875 
Q 16.21875 41.5 20.09375 36.953125 
Q 23.96875 32.421875 30.609375 32.421875 
z
" id="DejaVuSans-39"/>
       <path d="M 31.78125 66.40625 
Q 24.171875 66.40625 20.328125 58.90625 
Q 16.5 51.421875 16.5 36.375 
Q 16.5 21.390625 20.328125 13.890625 
Q 24.171875 6.390625 31.78125 6.390625 
Q 39.453125 6.390625 43.28125 13.890625 
Q 47.125 21.390625 47.125 36.375 
Q 47.125 51.421875 43.28125 58.90625 
Q 39.453125 66.40625 31.78125 66.40625 
z
M 31.78125 74.21875 
Q 44.046875 74.21875 50.515625 64.515625 
Q 56.984375 54.828125 56.984375 36.375 
Q 56.984375 17.96875 50.515625 8.265625 
Q 44.046875 -1.421875 31.78125 -1.421875 
Q 19.53125 -1.421875 13.0625 8.265625 
Q 6.59375 17.96875 6.59375 36.375 
Q 6.59375 54.828125 13.0625 64.515625 
Q 19.53125 74.21875 31.78125 74.21875 
z
" id="DejaVuSans-30"/>
      </defs>
      <g transform="translate(439.246353 585.442188)scale(0.1 -0.1)">
       <use xlink:href="#DejaVuSans-32"/>
       <use x="63.623047" xlink:href="#DejaVuSans-2e"/>
       <use x="95.410156" xlink:href="#DejaVuSans-39"/>
       <use x="159.033203" xlink:href="#DejaVuSans-30"/>
      </g>
     </g>
    </g>
    <g id="xtick_6">
     <g id="line2d_6">
      <g>
       <use style="stroke:#000000;stroke-width:0.8;" x="551.97609" xlink:href="#m645b5748f1" y="570.84375"/>
      </g>
     </g>
     <g id="text_6">
      <!-- 2.92 -->
      <g transform="translate(540.843278 585.442188)scale(0.1 -0.1)">
       <use xlink:href="#DejaVuSans-32"/>
       <use x="63.623047" xlink:href="#DejaVuSans-2e"/>
       <use x="95.410156" xlink:href="#DejaVuSans-39"/>
       <use x="159.033203" xlink:href="#DejaVuSans-32"/>
      </g>
     </g>
    </g>
    <g id="text_7">
     <!-- frequency (GHz) -->
     <defs>
      <path d="M 37.109375 75.984375 
L 37.109375 68.5 
L 28.515625 68.5 
Q 23.6875 68.5 21.796875 66.546875 
Q 19.921875 64.59375 19.921875 59.515625 
L 19.921875 54.6875 
L 34.71875 54.6875 
L 34.71875 47.703125 
L 19.921875 47.703125 
L 19.921875 0 
L 10.890625 0 
L 10.890625 47.703125 
L 2.296875 47.703125 
L 2.296875 54.6875 
L 10.890625 54.6875 
L 10.890625 58.5 
Q 10.890625 67.625 15.140625 71.796875 
Q 19.390625 75.984375 28.609375 75.984375 
z
" id="DejaVuSans-66"/>
      <path d="M 41.109375 46.296875 
Q 39.59375 47.171875 37.8125 47.578125 
Q 36.03125 48 33.890625 48 
Q 26.265625 48 22.1875 43.046875 
Q 18.109375 38.09375 18.109375 28.8125 
L 18.109375 0 
L 9.078125 0 
L 9.078125 54.6875 
L 18.109375 54.6875 
L 18.109375 46.1875 
Q 20.953125 51.171875 25.484375 53.578125 
Q 30.03125 56 36.53125 56 
Q 37.453125 56 38.578125 55.875 
Q 39.703125 55.765625 41.0625 55.515625 
z
" id="DejaVuSans-72"/>
      <path d="M 56.203125 29.59375 
L 56.203125 25.203125 
L 14.890625 25.203125 
Q 15.484375 15.921875 20.484375 11.0625 
Q 25.484375 6.203125 34.421875 6.203125 
Q 39.59375 6.203125 44.453125 7.46875 
Q 49.3125 8.734375 54.109375 11.28125 
L 54.109375 2.78125 
Q 49.265625 0.734375 44.1875 -0.34375 
Q 39.109375 -1.421875 33.890625 -1.421875 
Q 20.796875 -1.421875 13.15625 6.1875 
Q 5.515625 13.8125 5.515625 26.8125 
Q 5.515625 40.234375 12.765625 48.109375 
Q 20.015625 56 32.328125 56 
Q 43.359375 56 49.78125 48.890625 
Q 56.203125 41.796875 56.203125 29.59375 
z
M 47.21875 32.234375 
Q 47.125 39.59375 43.09375 43.984375 
Q 39.0625 48.390625 32.421875 48.390625 
Q 24.90625 48.390625 20.390625 44.140625 
Q 15.875 39.890625 15.1875 32.171875 
z
" id="DejaVuSans-65"/>
      <path d="M 14.796875 27.296875 
Q 14.796875 17.390625 18.875 11.75 
Q 22.953125 6.109375 30.078125 6.109375 
Q 37.203125 6.109375 41.296875 11.75 
Q 45.40625 17.390625 45.40625 27.296875 
Q 45.40625 37.203125 41.296875 42.84375 
Q 37.203125 48.484375 30.078125 48.484375 
Q 22.953125 48.484375 18.875 42.84375 
Q 14.796875 37.203125 14.796875 27.296875 
z
M 45.40625 8.203125 
Q 42.578125 3.328125 38.25 0.953125 
Q 33.9375 -1.421875 27.875 -1.421875 
Q 17.96875 -1.421875 11.734375 6.484375 
Q 5.515625 14.40625 5.515625 27.296875 
Q 5.515625 40.1875 11.734375 48.09375 
Q 17.96875 56 27.875 56 
Q 33.9375 56 38.25 53.625 
Q 42.578125 51.265625 45.40625 46.390625 
L 45.40625 54.6875 
L 54.390625 54.6875 
L 54.390625 -20.796875 
L 45.40625 -20.796875 
z
" id="DejaVuSans-71"/>
      <path d="M 8.5 21.578125 
L 8.5 54.6875 
L 17.484375 54.6875 
L 17.484375 21.921875 
Q 17.484375 14.15625 20.5 10.265625 
Q 23.53125 6.390625 29.59375 6.390625 
Q 36.859375 6.390625 41.078125 11.03125 
Q 45.3125 15.671875 45.3125 23.6875 
L 45.3125 54.6875 
L 54.296875 54.6875 
L 54.296875 0 
L 45.3125 0 
L 45.3125 8.40625 
Q 42.046875 3.421875 37.71875 1 
Q 33.40625 -1.421875 27.6875 -1.421875 
Q 18.265625 -1.421875 13.375 4.4375 
Q 8.5 10.296875 8.5 21.578125 
z
M 31.109375 56 
z
" id="DejaVuSans-75"/>
      <path d="M 54.890625 33.015625 
L 54.890625 0 
L 45.90625 0 
L 45.90625 32.71875 
Q 45.90625 40.484375 42.875 44.328125 
Q 39.84375 48.1875 33.796875 48.1875 
Q 26.515625 48.1875 22.3125 43.546875 
Q 18.109375 38.921875 18.109375 30.90625 
L 18.109375 0 
L 9.078125 0 
L 9.078125 54.6875 
L 18.109375 54.6875 
L 18.109375 46.1875 
Q 21.34375 51.125 25.703125 53.5625 
Q 30.078125 56 35.796875 56 
Q 45.21875 56 50.046875 50.171875 
Q 54.890625 44.34375 54.890625 33.015625 
z
" id="DejaVuSans-6e"/>
      <path d="M 48.78125 52.59375 
L 48.78125 44.1875 
Q 44.96875 46.296875 41.140625 47.34375 
Q 37.3125 48.390625 33.40625 48.390625 
Q 24.65625 48.390625 19.8125 42.84375 
Q 14.984375 37.3125 14.984375 27.296875 
Q 14.984375 17.28125 19.8125 11.734375 
Q 24.65625 6.203125 33.40625 6.203125 
Q 37.3125 6.203125 41.140625 7.25 
Q 44.96875 8.296875 48.78125 10.40625 
L 48.78125 2.09375 
Q 45.015625 0.34375 40.984375 -0.53125 
Q 36.96875 -1.421875 32.421875 -1.421875 
Q 20.0625 -1.421875 12.78125 6.34375 
Q 5.515625 14.109375 5.515625 27.296875 
Q 5.515625 40.671875 12.859375 48.328125 
Q 20.21875 56 33.015625 56 
Q 37.15625 56 41.109375 55.140625 
Q 45.0625 54.296875 48.78125 52.59375 
z
" id="DejaVuSans-63"/>
      <path d="M 32.171875 -5.078125 
Q 28.375 -14.84375 24.75 -17.8125 
Q 21.140625 -20.796875 15.09375 -20.796875 
L 7.90625 -20.796875 
L 7.90625 -13.28125 
L 13.1875 -13.28125 
Q 16.890625 -13.28125 18.9375 -11.515625 
Q 21 -9.765625 23.484375 -3.21875 
L 25.09375 0.875 
L 2.984375 54.6875 
L 12.5 54.6875 
L 29.59375 11.921875 
L 46.6875 54.6875 
L 56.203125 54.6875 
z
" id="DejaVuSans-79"/>
      <path id="DejaVuSans-20"/>
      <path d="M 31 75.875 
Q 24.46875 64.65625 21.28125 53.65625 
Q 18.109375 42.671875 18.109375 31.390625 
Q 18.109375 20.125 21.3125 9.0625 
Q 24.515625 -2 31 -13.1875 
L 23.1875 -13.1875 
Q 15.875 -1.703125 12.234375 9.375 
Q 8.59375 20.453125 8.59375 31.390625 
Q 8.59375 42.28125 12.203125 53.3125 
Q 15.828125 64.359375 23.1875 75.875 
z
" id="DejaVuSans-28"/>
      <path d="M 59.515625 10.40625 
L 59.515625 29.984375 
L 43.40625 29.984375 
L 43.40625 38.09375 
L 69.28125 38.09375 
L 69.28125 6.78125 
Q 63.578125 2.734375 56.6875 0.65625 
Q 49.8125 -1.421875 42 -1.421875 
Q 24.90625 -1.421875 15.25 8.5625 
Q 5.609375 18.5625 5.609375 36.375 
Q 5.609375 54.25 15.25 64.234375 
Q 24.90625 74.21875 42 74.21875 
Q 49.125 74.21875 55.546875 72.453125 
Q 61.96875 70.703125 67.390625 67.28125 
L 67.390625 56.78125 
Q 61.921875 61.421875 55.765625 63.765625 
Q 49.609375 66.109375 42.828125 66.109375 
Q 29.4375 66.109375 22.71875 58.640625 
Q 16.015625 51.171875 16.015625 36.375 
Q 16.015625 21.625 22.71875 14.15625 
Q 29.4375 6.6875 42.828125 6.6875 
Q 48.046875 6.6875 52.140625 7.59375 
Q 56.25 8.5 59.515625 10.40625 
z
" id="DejaVuSans-47"/>
      <path d="M 9.8125 72.90625 
L 19.671875 72.90625 
L 19.671875 43.015625 
L 55.515625 43.015625 
L 55.515625 72.90625 
L 65.375 72.90625 
L 65.375 0 
L 55.515625 0 
L 55.515625 34.71875 
L 19.671875 34.71875 
L 19.671875 0 
L 9.8125 0 
z
" id="DejaVuSans-48"/>
      <path d="M 5.515625 54.6875 
L 48.1875 54.6875 
L 48.1875 46.484375 
L 14.40625 7.171875 
L 48.1875 7.171875 
L 48.1875 0 
L 4.296875 0 
L 4.296875 8.203125 
L 38.09375 47.515625 
L 5.515625 47.515625 
z
" id="DejaVuSans-7a"/>
      <path d="M 8.015625 75.875 
L 15.828125 75.875 
Q 23.140625 64.359375 26.78125 53.3125 
Q 30.421875 42.28125 30.421875 31.390625 
Q 30.421875 20.453125 26.78125 9.375 
Q 23.140625 -1.703125 15.828125 -13.1875 
L 8.015625 -13.1875 
Q 14.5 -2 17.703125 9.0625 
Q 20.90625 20.125 20.90625 31.390625 
Q 20.90625 42.671875 17.703125 53.65625 
Q 14.5 64.65625 8.015625 75.875 
z
" id="DejaVuSans-29"/>
     </defs>
     <g transform="translate(280.329688 599.120312)scale(0.1 -0.1)">
      <use xlink:href="#DejaVuSans-66"/>
      <use x="35.205078" xlink:href="#DejaVuSans-72"/>
      <use x="76.287109" xlink:href="#DejaVuSans-65"/>
      <use x="137.810547" xlink:href="#DejaVuSans-71"/>
      <use x="201.287109" xlink:href="#DejaVuSans-75"/>
      <use x="264.666016" xlink:href="#DejaVuSans-65"/>
      <use x="326.189453" xlink:href="#DejaVuSans-6e"/>
      <use x="389.568359" xlink:href="#DejaVuSans-63"/>
      <use x="444.548828" xlink:href="#DejaVuSans-79"/>
      <use x="503.728516" xlink:href="#DejaVuSans-20"/>
      <use x="535.515625" xlink:href="#DejaVuSans-28"/>
      <use x="574.529297" xlink:href="#DejaVuSans-47"/>
      <use x="652.019531" xlink:href="#DejaVuSans-48"/>
      <use x="727.214844" xlink:href="#DejaVuSans-7a"/>
      <use x="779.705078" xlink:href="#DejaVuSans-29"/>
     </g>
    </g>
   </g>
   <g id="matplotlib.axis_2">
    <g id="ytick_1">
     <g id="line2d_7">
      <defs>
       <path d="M 0 0 
L -3.5 0 
" id="m92d1478637" style="stroke:#000000;stroke-width:0.8;"/>
      </defs>
      <g>
       <use style="stroke:#000000;stroke-width:0.8;" x="44.203125" xlink:href="#m92d1478637" y="495.443948"/>
      </g>
     </g>
     <g id="text_8">
      <!-- 66 -->
      <g transform="translate(24.478125 499.243167)scale(0.1 -0.1)">
       <use xlink:href="#DejaVuSans-36"/>
       <use x="63.623047" xlink:href="#DejaVuSans-36"/>
      </g>
     </g>
    </g>
    <g id="ytick_2">
     <g id="line2d_8">
      <g>
       <use style="stroke:#000000;stroke-width:0.8;" x="44.203125" xlink:href="#m92d1478637" y="413.561811"/>
      </g>
     </g>
     <g id="text_9">
      <!-- 68 -->
      <g transform="translate(24.478125 417.36103)scale(0.1 -0.1)">
       <use xlink:href="#DejaVuSans-36"/>
       <use x="63.623047" xlink:href="#DejaVuSans-38"/>
      </g>
     </g>
    </g>
    <g id="ytick_3">
     <g id="line2d_9">
      <g>
       <use style="stroke:#000000;stroke-width:0.8;" x="44.203125" xlink:href="#m92d1478637" y="331.679673"/>
      </g>
     </g>
     <g id="text_10">
      <!-- 70 -->
      <defs>
       <path d="M 8.203125 72.90625 
L 55.078125 72.90625 
L 55.078125 68.703125 
L 28.609375 0 
L 18.3125 0 
L 43.21875 64.59375 
L 8.203125 64.59375 
z
" id="DejaVuSans-37"/>
      </defs>
      <g transform="translate(24.478125 335.478892)scale(0.1 -0.1)">
       <use xlink:href="#DejaVuSans-37"/>
       <use x="63.623047" xlink:href="#DejaVuSans-30"/>
      </g>
     </g>
    </g>
    <g id="ytick_4">
     <g id="line2d_10">
      <g>
       <use style="stroke:#000000;stroke-width:0.8;" x="44.203125" xlink:href="#m92d1478637" y="249.797536"/>
      </g>
     </g>
     <g id="text_11">
      <!-- 72 -->
      <g transform="translate(24.478125 253.596755)scale(0.1 -0.1)">
       <use xlink:href="#DejaVuSans-37"/>
       <use x="63.623047" xlink:href="#DejaVuSans-32"/>
      </g>
     </g>
    </g>
    <g id="ytick_5">
     <g id="line2d_11">
      <g>
       <use style="stroke:#000000;stroke-width:0.8;" x="44.203125" xlink:href="#m92d1478637" y="167.915398"/>
      </g>
     </g>
     <g id="text_12">
      <!-- 74 -->
      <g transform="translate(24.478125 171.714617)scale(0.1 -0.1)">
       <use xlink:href="#DejaVuSans-37"/>
       <use x="63.623047" xlink:href="#DejaVuSans-34"/>
      </g>
     </g>
    </g>
    <g id="ytick_6">
     <g id="line2d_12">
      <g>
       <use style="stroke:#000000;stroke-width:0.8;" x="44.203125" xlink:href="#m92d1478637" y="86.033261"/>
      </g>
     </g>
     <g id="text_13">
      <!-- 76 -->
      <g transform="translate(24.478125 89.83248)scale(0.1 -0.1)">
       <use xlink:href="#DejaVuSans-37"/>
       <use x="63.623047" xlink:href="#DejaVuSans-36"/>
      </g>
     </g>
    </g>
    <g id="text_14">
     <!-- kcts/sec -->
     <defs>
      <path d="M 9.078125 75.984375 
L 18.109375 75.984375 
L 18.109375 31.109375 
L 44.921875 54.6875 
L 56.390625 54.6875 
L 27.390625 29.109375 
L 57.625 0 
L 45.90625 0 
L 18.109375 26.703125 
L 18.109375 0 
L 9.078125 0 
z
" id="DejaVuSans-6b"/>
      <path d="M 18.3125 70.21875 
L 18.3125 54.6875 
L 36.8125 54.6875 
L 36.8125 47.703125 
L 18.3125 47.703125 
L 18.3125 18.015625 
Q 18.3125 11.328125 20.140625 9.421875 
Q 21.96875 7.515625 27.59375 7.515625 
L 36.8125 7.515625 
L 36.8125 0 
L 27.59375 0 
Q 17.1875 0 13.234375 3.875 
Q 9.28125 7.765625 9.28125 18.015625 
L 9.28125 47.703125 
L 2.6875 47.703125 
L 2.6875 54.6875 
L 9.28125 54.6875 
L 9.28125 70.21875 
z
" id="DejaVuSans-74"/>
      <path d="M 44.28125 53.078125 
L 44.28125 44.578125 
Q 40.484375 46.53125 36.375 47.5 
Q 32.28125 48.484375 27.875 48.484375 
Q 21.1875 48.484375 17.84375 46.4375 
Q 14.5 44.390625 14.5 40.28125 
Q 14.5 37.15625 16.890625 35.375 
Q 19.28125 33.59375 26.515625 31.984375 
L 29.59375 31.296875 
Q 39.15625 29.25 43.1875 25.515625 
Q 47.21875 21.78125 47.21875 15.09375 
Q 47.21875 7.46875 41.1875 3.015625 
Q 35.15625 -1.421875 24.609375 -1.421875 
Q 20.21875 -1.421875 15.453125 -0.5625 
Q 10.6875 0.296875 5.421875 2 
L 5.421875 11.28125 
Q 10.40625 8.6875 15.234375 7.390625 
Q 20.0625 6.109375 24.8125 6.109375 
Q 31.15625 6.109375 34.5625 8.28125 
Q 37.984375 10.453125 37.984375 14.40625 
Q 37.984375 18.0625 35.515625 20.015625 
Q 33.0625 21.96875 24.703125 23.78125 
L 21.578125 24.515625 
Q 13.234375 26.265625 9.515625 29.90625 
Q 5.8125 33.546875 5.8125 39.890625 
Q 5.8125 47.609375 11.28125 51.796875 
Q 16.75 56 26.8125 56 
Q 31.78125 56 36.171875 55.265625 
Q 40.578125 54.546875 44.28125 53.078125 
z
" id="DejaVuSans-73"/>
      <path d="M 25.390625 72.90625 
L 33.6875 72.90625 
L 8.296875 -9.28125 
L 0 -9.28125 
z
" id="DejaVuSans-2f"/>
     </defs>
     <g transform="translate(18.398438 318.705156)rotate(-90)scale(0.1 -0.1)">
      <use xlink:href="#DejaVuSans-6b"/>
      <use x="57.910156" xlink:href="#DejaVuSans-63"/>
      <use x="112.890625" xlink:href="#DejaVuSans-74"/>
      <use x="152.099609" xlink:href="#DejaVuSans-73"/>
      <use x="204.199219" xlink:href="#DejaVuSans-2f"/>
      <use x="237.890625" xlink:href="#DejaVuSans-73"/>
      <use x="289.990234" xlink:href="#DejaVuSans-65"/>
      <use x="351.513672" xlink:href="#DejaVuSans-63"/>
     </g>
    </g>
   </g>
   <g id="line2d_13">
    <path clip-path="url(#p9d6e26d955)" d="M 69.390696 148.946037 
L 73.623901 92.310891 
L 77.857106 219.091734 
L 82.090312 162.866 
L 86.323517 175.421261 
L 90.556722 170.917743 
L 94.789927 115.783771 
L 99.023133 114.828479 
L 103.256338 125.609627 
L 107.489543 163.13894 
L 111.722748 181.698892 
L 115.955953 142.531936 
L 120.189159 100.226165 
L 124.422364 119.468467 
L 128.655569 104.320272 
L 132.888774 115.920241 
L 137.121979 75.797994 
L 141.355185 90.946189 
L 145.58839 83.167386 
L 149.821595 146.489572 
L 154.0548 50.687472 
L 158.288006 149.218977 
L 162.521211 115.37436 
L 166.754416 128.202562 
L 170.987621 191.934159 
L 175.220826 200.941194 
L 179.454032 205.308241 
L 183.687237 147.990745 
L 187.920442 226.461127 
L 192.153647 147.717805 
L 196.386852 139.802531 
L 200.620058 187.567111 
L 204.853263 218.409383 
L 209.086468 221.957609 
L 213.319673 242.564614 
L 217.552879 240.654031 
L 221.786084 207.082354 
L 226.019289 219.364675 
L 230.252494 234.785811 
L 234.485699 273.406886 
L 238.718905 234.51287 
L 242.95211 169.14363 
L 247.185315 163.00247 
L 251.41852 143.487227 
L 255.651725 224.004663 
L 259.884931 223.868192 
L 264.118136 255.529286 
L 268.351341 262.079857 
L 272.584546 221.684669 
L 276.817752 204.48942 
L 281.050957 217.454092 
L 285.284162 190.978867 
L 289.517367 147.581334 
L 293.750572 186.065939 
L 297.983778 199.712962 
L 302.216983 162.320119 
L 306.450188 191.251808 
L 310.683393 244.202257 
L 314.916598 103.910861 
L 319.149804 108.414379 
L 323.383009 105.957914 
L 327.616214 150.310739 
L 331.849419 171.873035 
L 336.082624 139.666061 
L 340.31583 134.616663 
L 344.549035 143.487227 
L 348.78224 226.734067 
L 353.015445 147.854275 
L 357.248651 202.988247 
L 361.481856 184.974177 
L 365.715061 210.35764 
L 369.948266 187.294171 
L 374.181471 199.030611 
L 378.414677 156.042488 
L 382.647882 208.447056 
L 386.881087 161.091887 
L 391.114292 189.614165 
L 395.347497 168.051869 
L 399.580703 127.793151 
L 403.813908 82.894446 
L 408.047113 151.402501 
L 412.280318 162.047179 
L 416.513524 213.223515 
L 420.746729 137.209597 
L 424.979934 176.103612 
L 429.213139 171.054214 
L 433.446344 197.120027 
L 437.67955 157.816601 
L 441.912755 197.392968 
L 446.14596 168.051869 
L 450.379165 221.548198 
L 454.61237 200.668253 
L 458.845576 240.24462 
L 463.078781 257.303399 
L 467.311986 250.889298 
L 471.545191 218.682324 
L 475.778397 267.675136 
L 480.011602 239.152858 
L 484.244807 234.10346 
L 488.478012 303.020925 
L 492.711217 330.451441 
L 496.944423 303.020925 
L 501.177628 321.034996 
L 505.410833 392.818336 
L 509.644038 467.604022 
L 513.877243 442.76644 
L 518.110449 403.735954 
L 522.343654 430.074709 
L 526.576859 418.611209 
L 530.810064 409.331234 
L 535.04327 430.211179 
L 539.276475 388.587759 
L 543.50968 419.975912 
L 547.742885 424.342959 
L 551.97609 388.451289 
L 556.209296 467.467551 
L 560.442501 431.712351 
L 564.675706 439.218214 
L 568.908911 457.232284 
L 573.142116 446.451136 
" style="fill:none;stroke:#ff0000;stroke-linecap:square;stroke-width:1.5;"/>
   </g>
   <g id="line2d_14">
    <path clip-path="url(#p9d6e26d955)" d="M 69.390696 82.485035 
L 73.623901 141.440174 
L 77.857106 161.774238 
L 82.090312 163.275411 
L 86.323517 102.546159 
L 90.556722 181.01654 
L 94.789927 75.252113 
L 99.023133 120.150818 
L 103.256338 129.840204 
L 107.489543 175.557731 
L 111.722748 153.176614 
L 115.955953 116.329652 
L 120.189159 133.11549 
L 124.422364 129.021383 
L 128.655569 139.529591 
L 132.888774 125.473157 
L 137.121979 180.197719 
L 141.355185 150.037798 
L 145.58839 155.906018 
L 149.821595 115.51083 
L 154.0548 93.539124 
L 158.288006 216.089389 
L 162.521211 121.651991 
L 166.754416 189.750635 
L 170.987621 224.687014 
L 175.220826 227.825829 
L 179.454032 278.592754 
L 183.687237 343.143173 
L 187.920442 297.425646 
L 192.153647 301.110342 
L 196.386852 368.253695 
L 200.620058 419.15709 
L 204.853263 537.203839 
L 209.086468 509.090971 
L 213.319673 527.241512 
L 217.552879 404.418306 
L 221.786084 365.933701 
L 226.019289 413.01593 
L 230.252494 368.936046 
L 234.485699 345.736107 
L 238.718905 260.715154 
L 242.95211 225.369365 
L 247.185315 312.710312 
L 251.41852 320.079704 
L 255.651725 326.493805 
L 259.884931 277.091582 
L 264.118136 406.055948 
L 268.351341 323.62793 
L 272.584546 409.194764 
L 276.817752 370.300748 
L 281.050957 398.277145 
L 285.284162 364.023118 
L 289.517367 442.62997 
L 293.750572 520.28153 
L 297.983778 535.839136 
L 302.216983 546.074403 
L 306.450188 472.65342 
L 310.683393 497.491002 
L 314.916598 472.78989 
L 319.149804 347.78316 
L 323.383009 407.14771 
L 327.616214 342.597292 
L 331.849419 289.510373 
L 336.082624 307.115032 
L 340.31583 254.028113 
L 344.549035 267.948076 
L 348.78224 308.889145 
L 353.015445 295.515063 
L 357.248651 218.818794 
L 361.481856 194.663563 
L 365.715061 247.477542 
L 369.948266 256.211637 
L 374.181471 219.091734 
L 378.414677 167.778928 
L 382.647882 184.428296 
L 386.881087 230.555234 
L 391.114292 215.407038 
L 395.347497 92.310891 
L 399.580703 159.044834 
L 403.813908 129.567264 
L 408.047113 211.585872 
L 412.280318 173.374208 
L 416.513524 195.755325 
L 420.746729 204.76236 
L 424.979934 188.658873 
L 429.213139 204.080009 
L 433.446344 203.534128 
L 437.67955 176.103612 
L 441.912755 217.863502 
L 446.14596 216.63527 
L 450.379165 277.500992 
L 454.61237 239.562269 
L 458.845576 252.663411 
L 463.078781 266.173963 
L 467.311986 241.745792 
L 471.545191 247.477542 
L 475.778397 266.310434 
L 480.011602 266.037493 
L 484.244807 264.672791 
L 488.478012 321.717347 
L 492.711217 328.813799 
L 496.944423 279.957457 
L 501.177628 309.707967 
L 505.410833 381.900718 
L 509.644038 476.611057 
L 513.877243 449.317011 
L 518.110449 443.585261 
L 522.343654 458.596987 
L 526.576859 479.203991 
L 530.810064 480.432223 
L 535.04327 445.768785 
L 539.276475 464.055796 
L 543.50968 478.931051 
L 547.742885 456.004052 
L 551.97609 461.326391 
L 556.209296 464.601677 
L 560.442501 431.16647 
L 564.675706 418.338269 
L 568.908911 500.356877 
L 573.142116 503.495692 
" style="fill:none;stroke:#008000;stroke-linecap:square;stroke-width:1.5;"/>
   </g>
   <g id="patch_3">
    <path d="M 44.203125 570.84375 
L 44.203125 25.918125 
" style="fill:none;stroke:#000000;stroke-linecap:square;stroke-linejoin:miter;stroke-width:0.8;"/>
   </g>
   <g id="patch_4">
    <path d="M 598.329688 570.84375 
L 598.329688 25.918125 
" style="fill:none;stroke:#000000;stroke-linecap:square;stroke-linejoin:miter;stroke-width:0.8;"/>
   </g>
   <g id="patch_5">
    <path d="M 44.203125 570.84375 
L 598.329687 570.84375 
" style="fill:none;stroke:#000000;stroke-linecap:square;stroke-linejoin:miter;stroke-width:0.8;"/>
   </g>
   <g id="patch_6">
    <path d="M 44.203125 25.918125 
L 598.329687 25.918125 
" style="fill:none;stroke:#000000;stroke-linecap:square;stroke-linejoin:miter;stroke-width:0.8;"/>
   </g>
   <g id="text_15">
    <!-- Counts with/without rf -->
    <defs>
     <path d="M 64.40625 67.28125 
L 64.40625 56.890625 
Q 59.421875 61.53125 53.78125 63.8125 
Q 48.140625 66.109375 41.796875 66.109375 
Q 29.296875 66.109375 22.65625 58.46875 
Q 16.015625 50.828125 16.015625 36.375 
Q 16.015625 21.96875 22.65625 14.328125 
Q 29.296875 6.6875 41.796875 6.6875 
Q 48.140625 6.6875 53.78125 8.984375 
Q 59.421875 11.28125 64.40625 15.921875 
L 64.40625 5.609375 
Q 59.234375 2.09375 53.4375 0.328125 
Q 47.65625 -1.421875 41.21875 -1.421875 
Q 24.65625 -1.421875 15.125 8.703125 
Q 5.609375 18.84375 5.609375 36.375 
Q 5.609375 53.953125 15.125 64.078125 
Q 24.65625 74.21875 41.21875 74.21875 
Q 47.75 74.21875 53.53125 72.484375 
Q 59.328125 70.75 64.40625 67.28125 
z
" id="DejaVuSans-43"/>
     <path d="M 30.609375 48.390625 
Q 23.390625 48.390625 19.1875 42.75 
Q 14.984375 37.109375 14.984375 27.296875 
Q 14.984375 17.484375 19.15625 11.84375 
Q 23.34375 6.203125 30.609375 6.203125 
Q 37.796875 6.203125 41.984375 11.859375 
Q 46.1875 17.53125 46.1875 27.296875 
Q 46.1875 37.015625 41.984375 42.703125 
Q 37.796875 48.390625 30.609375 48.390625 
z
M 30.609375 56 
Q 42.328125 56 49.015625 48.375 
Q 55.71875 40.765625 55.71875 27.296875 
Q 55.71875 13.875 49.015625 6.21875 
Q 42.328125 -1.421875 30.609375 -1.421875 
Q 18.84375 -1.421875 12.171875 6.21875 
Q 5.515625 13.875 5.515625 27.296875 
Q 5.515625 40.765625 12.171875 48.375 
Q 18.84375 56 30.609375 56 
z
" id="DejaVuSans-6f"/>
     <path d="M 4.203125 54.6875 
L 13.1875 54.6875 
L 24.421875 12.015625 
L 35.59375 54.6875 
L 46.1875 54.6875 
L 57.421875 12.015625 
L 68.609375 54.6875 
L 77.59375 54.6875 
L 63.28125 0 
L 52.6875 0 
L 40.921875 44.828125 
L 29.109375 0 
L 18.5 0 
z
" id="DejaVuSans-77"/>
     <path d="M 9.421875 54.6875 
L 18.40625 54.6875 
L 18.40625 0 
L 9.421875 0 
z
M 9.421875 75.984375 
L 18.40625 75.984375 
L 18.40625 64.59375 
L 9.421875 64.59375 
z
" id="DejaVuSans-69"/>
     <path d="M 54.890625 33.015625 
L 54.890625 0 
L 45.90625 0 
L 45.90625 32.71875 
Q 45.90625 40.484375 42.875 44.328125 
Q 39.84375 48.1875 33.796875 48.1875 
Q 26.515625 48.1875 22.3125 43.546875 
Q 18.109375 38.921875 18.109375 30.90625 
L 18.109375 0 
L 9.078125 0 
L 9.078125 75.984375 
L 18.109375 75.984375 
L 18.109375 46.1875 
Q 21.34375 51.125 25.703125 53.5625 
Q 30.078125 56 35.796875 56 
Q 45.21875 56 50.046875 50.171875 
Q 54.890625 44.34375 54.890625 33.015625 
z
" id="DejaVuSans-68"/>
    </defs>
    <g transform="translate(254.626094 19.918125)scale(0.12 -0.12)">
     <use xlink:href="#DejaVuSans-43"/>
     <use x="69.824219" xlink:href="#DejaVuSans-6f"/>
     <use x="131.005859" xlink:href="#DejaVuSans-75"/>
     <use x="194.384766" xlink:href="#DejaVuSans-6e"/>
     <use x="257.763672" xlink:href="#DejaVuSans-74"/>
     <use x="296.972656" xlink:href="#DejaVuSans-73"/>
     <use x="349.072266" xlink:href="#DejaVuSans-20"/>
     <use x="380.859375" xlink:href="#DejaVuSans-77"/>
     <use x="462.646484" xlink:href="#DejaVuSans-69"/>
     <use x="490.429688" xlink:href="#DejaVuSans-74"/>
     <use x="529.638672" xlink:href="#DejaVuSans-68"/>
     <use x="593.017578" xlink:href="#DejaVuSans-2f"/>
     <use x="626.708984" xlink:href="#DejaVuSans-77"/>
     <use x="708.496094" xlink:href="#DejaVuSans-69"/>
     <use x="736.279297" xlink:href="#DejaVuSans-74"/>
     <use x="775.488281" xlink:href="#DejaVuSans-68"/>
     <use x="838.867188" xlink:href="#DejaVuSans-6f"/>
     <use x="900.048828" xlink:href="#DejaVuSans-75"/>
     <use x="963.427734" xlink:href="#DejaVuSans-74"/>
     <use x="1002.636719" xlink:href="#DejaVuSans-20"/>
     <use x="1034.423828" xlink:href="#DejaVuSans-72"/>
     <use x="1075.537109" xlink:href="#DejaVuSans-66"/>
    </g>
   </g>
   <g id="legend_1">
    <g id="patch_7">
     <path d="M 535.360938 63.274375 
L 591.329688 63.274375 
Q 593.329688 63.274375 593.329688 61.274375 
L 593.329688 32.918125 
Q 593.329688 30.918125 591.329688 30.918125 
L 535.360938 30.918125 
Q 533.360938 30.918125 533.360938 32.918125 
L 533.360938 61.274375 
Q 533.360938 63.274375 535.360938 63.274375 
z
" style="fill:#ffffff;opacity:0.8;stroke:#cccccc;stroke-linejoin:miter;"/>
    </g>
    <g id="line2d_15">
     <path d="M 537.360938 39.016562 
L 557.360938 39.016562 
" style="fill:none;stroke:#ff0000;stroke-linecap:square;stroke-width:1.5;"/>
    </g>
    <g id="line2d_16"/>
    <g id="text_16">
     <!-- rf off -->
     <g transform="translate(565.360938 42.516562)scale(0.1 -0.1)">
      <use xlink:href="#DejaVuSans-72"/>
      <use x="41.113281" xlink:href="#DejaVuSans-66"/>
      <use x="76.318359" xlink:href="#DejaVuSans-20"/>
      <use x="108.105469" xlink:href="#DejaVuSans-6f"/>
      <use x="169.287109" xlink:href="#DejaVuSans-66"/>
      <use x="204.492188" xlink:href="#DejaVuSans-66"/>
     </g>
    </g>
    <g id="line2d_17">
     <path d="M 537.360938 53.694687 
L 557.360938 53.694687 
" style="fill:none;stroke:#008000;stroke-linecap:square;stroke-width:1.5;"/>
    </g>
    <g id="line2d_18"/>
    <g id="text_17">
     <!-- rf on -->
     <g transform="translate(565.360938 57.194687)scale(0.1 -0.1)">
      <use xlink:href="#DejaVuSans-72"/>
      <use x="41.113281" xlink:href="#DejaVuSans-66"/>
      <use x="76.318359" xlink:href="#DejaVuSans-20"/>
      <use x="108.105469" xlink:href="#DejaVuSans-6f"/>
      <use x="169.287109" xlink:href="#DejaVuSans-6e"/>
     </g>
    </g>
   </g>
  </g>
  <g id="axes_2">
   <g id="patch_8">
    <path d="M 655.573438 570.84375 
L 1209.7 570.84375 
L 1209.7 25.918125 
L 655.573438 25.918125 
z
" style="fill:#ffffff;"/>
   </g>
   <g id="matplotlib.axis_3">
    <g id="xtick_7">
     <g id="line2d_19">
      <g>
       <use style="stroke:#000000;stroke-width:0.8;" x="655.361777" xlink:href="#m645b5748f1" y="570.84375"/>
      </g>
     </g>
     <g id="text_18">
      <!-- 2.82 -->
      <g transform="translate(644.228965 585.442188)scale(0.1 -0.1)">
       <use xlink:href="#DejaVuSans-32"/>
       <use x="63.623047" xlink:href="#DejaVuSans-2e"/>
       <use x="95.410156" xlink:href="#DejaVuSans-38"/>
       <use x="159.033203" xlink:href="#DejaVuSans-32"/>
      </g>
     </g>
    </g>
    <g id="xtick_8">
     <g id="line2d_20">
      <g>
       <use style="stroke:#000000;stroke-width:0.8;" x="756.958702" xlink:href="#m645b5748f1" y="570.84375"/>
      </g>
     </g>
     <g id="text_19">
      <!-- 2.84 -->
      <g transform="translate(745.82589 585.442188)scale(0.1 -0.1)">
       <use xlink:href="#DejaVuSans-32"/>
       <use x="63.623047" xlink:href="#DejaVuSans-2e"/>
       <use x="95.410156" xlink:href="#DejaVuSans-38"/>
       <use x="159.033203" xlink:href="#DejaVuSans-34"/>
      </g>
     </g>
    </g>
    <g id="xtick_9">
     <g id="line2d_21">
      <g>
       <use style="stroke:#000000;stroke-width:0.8;" x="858.555628" xlink:href="#m645b5748f1" y="570.84375"/>
      </g>
     </g>
     <g id="text_20">
      <!-- 2.86 -->
      <g transform="translate(847.422815 585.442188)scale(0.1 -0.1)">
       <use xlink:href="#DejaVuSans-32"/>
       <use x="63.623047" xlink:href="#DejaVuSans-2e"/>
       <use x="95.410156" xlink:href="#DejaVuSans-38"/>
       <use x="159.033203" xlink:href="#DejaVuSans-36"/>
      </g>
     </g>
    </g>
    <g id="xtick_10">
     <g id="line2d_22">
      <g>
       <use style="stroke:#000000;stroke-width:0.8;" x="960.152553" xlink:href="#m645b5748f1" y="570.84375"/>
      </g>
     </g>
     <g id="text_21">
      <!-- 2.88 -->
      <g transform="translate(949.01974 585.442188)scale(0.1 -0.1)">
       <use xlink:href="#DejaVuSans-32"/>
       <use x="63.623047" xlink:href="#DejaVuSans-2e"/>
       <use x="95.410156" xlink:href="#DejaVuSans-38"/>
       <use x="159.033203" xlink:href="#DejaVuSans-38"/>
      </g>
     </g>
    </g>
    <g id="xtick_11">
     <g id="line2d_23">
      <g>
       <use style="stroke:#000000;stroke-width:0.8;" x="1061.749478" xlink:href="#m645b5748f1" y="570.84375"/>
      </g>
     </g>
     <g id="text_22">
      <!-- 2.90 -->
      <g transform="translate(1050.616665 585.442188)scale(0.1 -0.1)">
       <use xlink:href="#DejaVuSans-32"/>
       <use x="63.623047" xlink:href="#DejaVuSans-2e"/>
       <use x="95.410156" xlink:href="#DejaVuSans-39"/>
       <use x="159.033203" xlink:href="#DejaVuSans-30"/>
      </g>
     </g>
    </g>
    <g id="xtick_12">
     <g id="line2d_24">
      <g>
       <use style="stroke:#000000;stroke-width:0.8;" x="1163.346403" xlink:href="#m645b5748f1" y="570.84375"/>
      </g>
     </g>
     <g id="text_23">
      <!-- 2.92 -->
      <g transform="translate(1152.21359 585.442188)scale(0.1 -0.1)">
       <use xlink:href="#DejaVuSans-32"/>
       <use x="63.623047" xlink:href="#DejaVuSans-2e"/>
       <use x="95.410156" xlink:href="#DejaVuSans-39"/>
       <use x="159.033203" xlink:href="#DejaVuSans-32"/>
      </g>
     </g>
    </g>
    <g id="text_24">
     <!-- frequency (GHz) -->
     <g transform="translate(891.7 599.120312)scale(0.1 -0.1)">
      <use xlink:href="#DejaVuSans-66"/>
      <use x="35.205078" xlink:href="#DejaVuSans-72"/>
      <use x="76.287109" xlink:href="#DejaVuSans-65"/>
      <use x="137.810547" xlink:href="#DejaVuSans-71"/>
      <use x="201.287109" xlink:href="#DejaVuSans-75"/>
      <use x="264.666016" xlink:href="#DejaVuSans-65"/>
      <use x="326.189453" xlink:href="#DejaVuSans-6e"/>
      <use x="389.568359" xlink:href="#DejaVuSans-63"/>
      <use x="444.548828" xlink:href="#DejaVuSans-79"/>
      <use x="503.728516" xlink:href="#DejaVuSans-20"/>
      <use x="535.515625" xlink:href="#DejaVuSans-28"/>
      <use x="574.529297" xlink:href="#DejaVuSans-47"/>
      <use x="652.019531" xlink:href="#DejaVuSans-48"/>
      <use x="727.214844" xlink:href="#DejaVuSans-7a"/>
      <use x="779.705078" xlink:href="#DejaVuSans-29"/>
     </g>
    </g>
   </g>
   <g id="matplotlib.axis_4">
    <g id="ytick_7">
     <g id="line2d_25">
      <g>
       <use style="stroke:#000000;stroke-width:0.8;" x="655.573438" xlink:href="#m92d1478637" y="526.473716"/>
      </g>
     </g>
     <g id="text_25">
      <!-- 0.88 -->
      <g transform="translate(626.307813 530.272935)scale(0.1 -0.1)">
       <use xlink:href="#DejaVuSans-30"/>
       <use x="63.623047" xlink:href="#DejaVuSans-2e"/>
       <use x="95.410156" xlink:href="#DejaVuSans-38"/>
       <use x="159.033203" xlink:href="#DejaVuSans-38"/>
      </g>
     </g>
    </g>
    <g id="ytick_8">
     <g id="line2d_26">
      <g>
       <use style="stroke:#000000;stroke-width:0.8;" x="655.573438" xlink:href="#m92d1478637" y="461.051354"/>
      </g>
     </g>
     <g id="text_26">
      <!-- 0.90 -->
      <g transform="translate(626.307813 464.850573)scale(0.1 -0.1)">
       <use xlink:href="#DejaVuSans-30"/>
       <use x="63.623047" xlink:href="#DejaVuSans-2e"/>
       <use x="95.410156" xlink:href="#DejaVuSans-39"/>
       <use x="159.033203" xlink:href="#DejaVuSans-30"/>
      </g>
     </g>
    </g>
    <g id="ytick_9">
     <g id="line2d_27">
      <g>
       <use style="stroke:#000000;stroke-width:0.8;" x="655.573438" xlink:href="#m92d1478637" y="395.628992"/>
      </g>
     </g>
     <g id="text_27">
      <!-- 0.92 -->
      <g transform="translate(626.307813 399.428211)scale(0.1 -0.1)">
       <use xlink:href="#DejaVuSans-30"/>
       <use x="63.623047" xlink:href="#DejaVuSans-2e"/>
       <use x="95.410156" xlink:href="#DejaVuSans-39"/>
       <use x="159.033203" xlink:href="#DejaVuSans-32"/>
      </g>
     </g>
    </g>
    <g id="ytick_10">
     <g id="line2d_28">
      <g>
       <use style="stroke:#000000;stroke-width:0.8;" x="655.573438" xlink:href="#m92d1478637" y="330.20663"/>
      </g>
     </g>
     <g id="text_28">
      <!-- 0.94 -->
      <g transform="translate(626.307813 334.005848)scale(0.1 -0.1)">
       <use xlink:href="#DejaVuSans-30"/>
       <use x="63.623047" xlink:href="#DejaVuSans-2e"/>
       <use x="95.410156" xlink:href="#DejaVuSans-39"/>
       <use x="159.033203" xlink:href="#DejaVuSans-34"/>
      </g>
     </g>
    </g>
    <g id="ytick_11">
     <g id="line2d_29">
      <g>
       <use style="stroke:#000000;stroke-width:0.8;" x="655.573438" xlink:href="#m92d1478637" y="264.784267"/>
      </g>
     </g>
     <g id="text_29">
      <!-- 0.96 -->
      <g transform="translate(626.307813 268.583486)scale(0.1 -0.1)">
       <use xlink:href="#DejaVuSans-30"/>
       <use x="63.623047" xlink:href="#DejaVuSans-2e"/>
       <use x="95.410156" xlink:href="#DejaVuSans-39"/>
       <use x="159.033203" xlink:href="#DejaVuSans-36"/>
      </g>
     </g>
    </g>
    <g id="ytick_12">
     <g id="line2d_30">
      <g>
       <use style="stroke:#000000;stroke-width:0.8;" x="655.573438" xlink:href="#m92d1478637" y="199.361905"/>
      </g>
     </g>
     <g id="text_30">
      <!-- 0.98 -->
      <g transform="translate(626.307813 203.161124)scale(0.1 -0.1)">
       <use xlink:href="#DejaVuSans-30"/>
       <use x="63.623047" xlink:href="#DejaVuSans-2e"/>
       <use x="95.410156" xlink:href="#DejaVuSans-39"/>
       <use x="159.033203" xlink:href="#DejaVuSans-38"/>
      </g>
     </g>
    </g>
    <g id="ytick_13">
     <g id="line2d_31">
      <g>
       <use style="stroke:#000000;stroke-width:0.8;" x="655.573438" xlink:href="#m92d1478637" y="133.939543"/>
      </g>
     </g>
     <g id="text_31">
      <!-- 1.00 -->
      <defs>
       <path d="M 12.40625 8.296875 
L 28.515625 8.296875 
L 28.515625 63.921875 
L 10.984375 60.40625 
L 10.984375 69.390625 
L 28.421875 72.90625 
L 38.28125 72.90625 
L 38.28125 8.296875 
L 54.390625 8.296875 
L 54.390625 0 
L 12.40625 0 
z
" id="DejaVuSans-31"/>
      </defs>
      <g transform="translate(626.307813 137.738762)scale(0.1 -0.1)">
       <use xlink:href="#DejaVuSans-31"/>
       <use x="63.623047" xlink:href="#DejaVuSans-2e"/>
       <use x="95.410156" xlink:href="#DejaVuSans-30"/>
       <use x="159.033203" xlink:href="#DejaVuSans-30"/>
      </g>
     </g>
    </g>
    <g id="ytick_14">
     <g id="line2d_32">
      <g>
       <use style="stroke:#000000;stroke-width:0.8;" x="655.573438" xlink:href="#m92d1478637" y="68.51718"/>
      </g>
     </g>
     <g id="text_32">
      <!-- 1.02 -->
      <g transform="translate(626.307813 72.316399)scale(0.1 -0.1)">
       <use xlink:href="#DejaVuSans-31"/>
       <use x="63.623047" xlink:href="#DejaVuSans-2e"/>
       <use x="95.410156" xlink:href="#DejaVuSans-30"/>
       <use x="159.033203" xlink:href="#DejaVuSans-32"/>
      </g>
     </g>
    </g>
    <g id="text_33">
     <!-- contrast (arb. units) -->
     <defs>
      <path d="M 34.28125 27.484375 
Q 23.390625 27.484375 19.1875 25 
Q 14.984375 22.515625 14.984375 16.5 
Q 14.984375 11.71875 18.140625 8.90625 
Q 21.296875 6.109375 26.703125 6.109375 
Q 34.1875 6.109375 38.703125 11.40625 
Q 43.21875 16.703125 43.21875 25.484375 
L 43.21875 27.484375 
z
M 52.203125 31.203125 
L 52.203125 0 
L 43.21875 0 
L 43.21875 8.296875 
Q 40.140625 3.328125 35.546875 0.953125 
Q 30.953125 -1.421875 24.3125 -1.421875 
Q 15.921875 -1.421875 10.953125 3.296875 
Q 6 8.015625 6 15.921875 
Q 6 25.140625 12.171875 29.828125 
Q 18.359375 34.515625 30.609375 34.515625 
L 43.21875 34.515625 
L 43.21875 35.40625 
Q 43.21875 41.609375 39.140625 45 
Q 35.0625 48.390625 27.6875 48.390625 
Q 23 48.390625 18.546875 47.265625 
Q 14.109375 46.140625 10.015625 43.890625 
L 10.015625 52.203125 
Q 14.9375 54.109375 19.578125 55.046875 
Q 24.21875 56 28.609375 56 
Q 40.484375 56 46.34375 49.84375 
Q 52.203125 43.703125 52.203125 31.203125 
z
" id="DejaVuSans-61"/>
      <path d="M 48.6875 27.296875 
Q 48.6875 37.203125 44.609375 42.84375 
Q 40.53125 48.484375 33.40625 48.484375 
Q 26.265625 48.484375 22.1875 42.84375 
Q 18.109375 37.203125 18.109375 27.296875 
Q 18.109375 17.390625 22.1875 11.75 
Q 26.265625 6.109375 33.40625 6.109375 
Q 40.53125 6.109375 44.609375 11.75 
Q 48.6875 17.390625 48.6875 27.296875 
z
M 18.109375 46.390625 
Q 20.953125 51.265625 25.265625 53.625 
Q 29.59375 56 35.59375 56 
Q 45.5625 56 51.78125 48.09375 
Q 58.015625 40.1875 58.015625 27.296875 
Q 58.015625 14.40625 51.78125 6.484375 
Q 45.5625 -1.421875 35.59375 -1.421875 
Q 29.59375 -1.421875 25.265625 0.953125 
Q 20.953125 3.328125 18.109375 8.203125 
L 18.109375 0 
L 9.078125 0 
L 9.078125 75.984375 
L 18.109375 75.984375 
z
" id="DejaVuSans-62"/>
     </defs>
     <g transform="translate(620.228125 348.256719)rotate(-90)scale(0.1 -0.1)">
      <use xlink:href="#DejaVuSans-63"/>
      <use x="54.980469" xlink:href="#DejaVuSans-6f"/>
      <use x="116.162109" xlink:href="#DejaVuSans-6e"/>
      <use x="179.541016" xlink:href="#DejaVuSans-74"/>
      <use x="218.75" xlink:href="#DejaVuSans-72"/>
      <use x="259.863281" xlink:href="#DejaVuSans-61"/>
      <use x="321.142578" xlink:href="#DejaVuSans-73"/>
      <use x="373.242188" xlink:href="#DejaVuSans-74"/>
      <use x="412.451172" xlink:href="#DejaVuSans-20"/>
      <use x="444.238281" xlink:href="#DejaVuSans-28"/>
      <use x="483.251953" xlink:href="#DejaVuSans-61"/>
      <use x="544.53125" xlink:href="#DejaVuSans-72"/>
      <use x="585.644531" xlink:href="#DejaVuSans-62"/>
      <use x="649.121094" xlink:href="#DejaVuSans-2e"/>
      <use x="680.908203" xlink:href="#DejaVuSans-20"/>
      <use x="712.695312" xlink:href="#DejaVuSans-75"/>
      <use x="776.074219" xlink:href="#DejaVuSans-6e"/>
      <use x="839.453125" xlink:href="#DejaVuSans-69"/>
      <use x="867.236328" xlink:href="#DejaVuSans-74"/>
      <use x="906.445312" xlink:href="#DejaVuSans-73"/>
      <use x="958.544922" xlink:href="#DejaVuSans-29"/>
     </g>
    </g>
   </g>
   <g id="line2d_33">
    <path clip-path="url(#peada519a59)" d="M 680.761009 62.483244 
L 684.994214 182.362518 
L 689.227419 73.83036 
L 693.460624 135.029323 
L 697.693829 55.503034 
L 701.927035 141.119239 
L 706.16024 91.75645 
L 710.393445 139.714669 
L 714.62665 137.050036 
L 718.859855 148.845667 
L 723.093061 101.358693 
L 727.326266 103.783851 
L 731.559471 165.466033 
L 735.792676 143.072696 
L 740.025882 169.298816 
L 744.259087 144.270544 
L 748.492292 242.185798 
L 752.725497 196.516856 
L 756.958702 207.756344 
L 761.191908 101.579434 
L 765.425113 179.240139 
L 769.658318 202.960524 
L 773.891523 140.448972 
L 778.124728 196.50069 
L 782.357934 169.892418 
L 786.591139 162.512368 
L 790.824344 208.221037 
L 795.057549 343.17323 
L 799.290755 208.789674 
L 803.52396 297.285778 
L 807.757165 377.740094 
L 811.99037 386.246141 
L 816.223575 485.198451 
L 820.456781 449.648711 
L 824.689986 449.175875 
L 828.923191 314.240137 
L 833.156396 306.995041 
L 837.389601 342.196331 
L 841.622807 279.908483 
L 845.856012 214.420675 
L 850.089217 161.035162 
L 854.322422 194.369003 
L 858.555628 295.059774 
L 862.788833 320.851424 
L 867.022038 245.957298 
L 871.255243 192.865739 
L 875.488448 303.767568 
L 879.721654 201.045505 
L 883.954859 337.219208 
L 888.188064 314.141629 
L 892.421269 331.958004 
L 896.654474 322.757096 
L 900.88768 448.110578 
L 905.120885 496.108625 
L 909.35409 500.992346 
L 913.587295 546.074403 
L 917.820501 437.606819 
L 922.053706 414.081377 
L 926.286911 524.087999 
L 930.520116 387.36056 
L 934.753321 451.696658 
L 938.986527 340.468159 
L 943.219732 261.30211 
L 947.452937 312.879203 
L 951.686142 260.391794 
L 955.919347 267.529793 
L 960.152553 224.160003 
L 964.385758 291.735286 
L 968.618963 153.628517 
L 972.852168 139.723731 
L 977.085373 174.832817 
L 981.318579 207.27845 
L 985.551784 152.848151 
L 989.784989 146.809248 
L 994.018194 105.45495 
L 998.2514 208.848349 
L 1002.484605 160.328105 
L 1006.71781 50.687472 
L 1010.951015 168.03995 
L 1015.18422 183.831203 
L 1019.417426 199.69349 
L 1023.650631 147.143157 
L 1027.883836 112.911968 
L 1032.117041 202.78792 
L 1036.350246 149.151359 
L 1040.583452 169.640063 
L 1044.816657 139.948586 
L 1049.049862 155.097853 
L 1053.283067 156.727496 
L 1057.516273 183.573466 
L 1061.749478 189.703924 
L 1065.982683 177.225632 
L 1070.215888 148.705266 
L 1074.449093 144.777217 
L 1078.682299 119.530478 
L 1082.915504 166.554123 
L 1087.148709 133.833735 
L 1091.381914 163.430739 
L 1095.615119 170.971745 
L 1099.848325 158.046186 
L 1104.08153 135.03704 
L 1108.314735 111.273634 
L 1112.54794 125.694151 
L 1116.781146 127.454523 
L 1121.014351 145.676253 
L 1125.247556 139.634025 
L 1129.480761 180.792649 
L 1133.713966 175.521269 
L 1137.947172 210.267649 
L 1142.180377 224.146685 
L 1146.413582 145.012898 
L 1150.646787 217.777119 
L 1154.879992 209.869366 
L 1159.113198 179.262587 
L 1163.346403 226.747684 
L 1167.579608 139.123377 
L 1171.812813 123.523377 
L 1176.046019 118.104156 
L 1180.279224 193.523685 
L 1184.512429 208.563132 
" style="fill:none;stroke:#0000ff;stroke-linecap:square;stroke-width:1.5;"/>
   </g>
   <g id="patch_9">
    <path d="M 655.573438 570.84375 
L 655.573438 25.918125 
" style="fill:none;stroke:#000000;stroke-linecap:square;stroke-linejoin:miter;stroke-width:0.8;"/>
   </g>
   <g id="patch_10">
    <path d="M 1209.7 570.84375 
L 1209.7 25.918125 
" style="fill:none;stroke:#000000;stroke-linecap:square;stroke-linejoin:miter;stroke-width:0.8;"/>
   </g>
   <g id="patch_11">
    <path d="M 655.573437 570.84375 
L 1209.7 570.84375 
" style="fill:none;stroke:#000000;stroke-linecap:square;stroke-linejoin:miter;stroke-width:0.8;"/>
   </g>
   <g id="patch_12">
    <path d="M 655.573437 25.918125 
L 1209.7 25.918125 
" style="fill:none;stroke:#000000;stroke-linecap:square;stroke-linejoin:miter;stroke-width:0.8;"/>
   </g>
   <g id="text_34">
    <!-- Electron Spin Resonance -->
    <defs>
     <path d="M 9.8125 72.90625 
L 55.90625 72.90625 
L 55.90625 64.59375 
L 19.671875 64.59375 
L 19.671875 43.015625 
L 54.390625 43.015625 
L 54.390625 34.71875 
L 19.671875 34.71875 
L 19.671875 8.296875 
L 56.78125 8.296875 
L 56.78125 0 
L 9.8125 0 
z
" id="DejaVuSans-45"/>
     <path d="M 9.421875 75.984375 
L 18.40625 75.984375 
L 18.40625 0 
L 9.421875 0 
z
" id="DejaVuSans-6c"/>
     <path d="M 53.515625 70.515625 
L 53.515625 60.890625 
Q 47.90625 63.578125 42.921875 64.890625 
Q 37.9375 66.21875 33.296875 66.21875 
Q 25.25 66.21875 20.875 63.09375 
Q 16.5 59.96875 16.5 54.203125 
Q 16.5 49.359375 19.40625 46.890625 
Q 22.3125 44.4375 30.421875 42.921875 
L 36.375 41.703125 
Q 47.40625 39.59375 52.65625 34.296875 
Q 57.90625 29 57.90625 20.125 
Q 57.90625 9.515625 50.796875 4.046875 
Q 43.703125 -1.421875 29.984375 -1.421875 
Q 24.8125 -1.421875 18.96875 -0.25 
Q 13.140625 0.921875 6.890625 3.21875 
L 6.890625 13.375 
Q 12.890625 10.015625 18.65625 8.296875 
Q 24.421875 6.59375 29.984375 6.59375 
Q 38.421875 6.59375 43.015625 9.90625 
Q 47.609375 13.234375 47.609375 19.390625 
Q 47.609375 24.75 44.3125 27.78125 
Q 41.015625 30.8125 33.5 32.328125 
L 27.484375 33.5 
Q 16.453125 35.6875 11.515625 40.375 
Q 6.59375 45.0625 6.59375 53.421875 
Q 6.59375 63.09375 13.40625 68.65625 
Q 20.21875 74.21875 32.171875 74.21875 
Q 37.3125 74.21875 42.625 73.28125 
Q 47.953125 72.359375 53.515625 70.515625 
z
" id="DejaVuSans-53"/>
     <path d="M 18.109375 8.203125 
L 18.109375 -20.796875 
L 9.078125 -20.796875 
L 9.078125 54.6875 
L 18.109375 54.6875 
L 18.109375 46.390625 
Q 20.953125 51.265625 25.265625 53.625 
Q 29.59375 56 35.59375 56 
Q 45.5625 56 51.78125 48.09375 
Q 58.015625 40.1875 58.015625 27.296875 
Q 58.015625 14.40625 51.78125 6.484375 
Q 45.5625 -1.421875 35.59375 -1.421875 
Q 29.59375 -1.421875 25.265625 0.953125 
Q 20.953125 3.328125 18.109375 8.203125 
z
M 48.6875 27.296875 
Q 48.6875 37.203125 44.609375 42.84375 
Q 40.53125 48.484375 33.40625 48.484375 
Q 26.265625 48.484375 22.1875 42.84375 
Q 18.109375 37.203125 18.109375 27.296875 
Q 18.109375 17.390625 22.1875 11.75 
Q 26.265625 6.109375 33.40625 6.109375 
Q 40.53125 6.109375 44.609375 11.75 
Q 48.6875 17.390625 48.6875 27.296875 
z
" id="DejaVuSans-70"/>
     <path d="M 44.390625 34.1875 
Q 47.5625 33.109375 50.5625 29.59375 
Q 53.5625 26.078125 56.59375 19.921875 
L 66.609375 0 
L 56 0 
L 46.6875 18.703125 
Q 43.0625 26.03125 39.671875 28.421875 
Q 36.28125 30.8125 30.421875 30.8125 
L 19.671875 30.8125 
L 19.671875 0 
L 9.8125 0 
L 9.8125 72.90625 
L 32.078125 72.90625 
Q 44.578125 72.90625 50.734375 67.671875 
Q 56.890625 62.453125 56.890625 51.90625 
Q 56.890625 45.015625 53.6875 40.46875 
Q 50.484375 35.9375 44.390625 34.1875 
z
M 19.671875 64.796875 
L 19.671875 38.921875 
L 32.078125 38.921875 
Q 39.203125 38.921875 42.84375 42.21875 
Q 46.484375 45.515625 46.484375 51.90625 
Q 46.484375 58.296875 42.84375 61.546875 
Q 39.203125 64.796875 32.078125 64.796875 
z
" id="DejaVuSans-52"/>
    </defs>
    <g transform="translate(858.068906 19.918125)scale(0.12 -0.12)">
     <use xlink:href="#DejaVuSans-45"/>
     <use x="63.183594" xlink:href="#DejaVuSans-6c"/>
     <use x="90.966797" xlink:href="#DejaVuSans-65"/>
     <use x="152.490234" xlink:href="#DejaVuSans-63"/>
     <use x="207.470703" xlink:href="#DejaVuSans-74"/>
     <use x="246.679688" xlink:href="#DejaVuSans-72"/>
     <use x="287.761719" xlink:href="#DejaVuSans-6f"/>
     <use x="348.943359" xlink:href="#DejaVuSans-6e"/>
     <use x="412.322266" xlink:href="#DejaVuSans-20"/>
     <use x="444.109375" xlink:href="#DejaVuSans-53"/>
     <use x="507.585938" xlink:href="#DejaVuSans-70"/>
     <use x="571.0625" xlink:href="#DejaVuSans-69"/>
     <use x="598.845703" xlink:href="#DejaVuSans-6e"/>
     <use x="662.224609" xlink:href="#DejaVuSans-20"/>
     <use x="694.011719" xlink:href="#DejaVuSans-52"/>
     <use x="763.431641" xlink:href="#DejaVuSans-65"/>
     <use x="824.955078" xlink:href="#DejaVuSans-73"/>
     <use x="877.054688" xlink:href="#DejaVuSans-6f"/>
     <use x="938.236328" xlink:href="#DejaVuSans-6e"/>
     <use x="1001.615234" xlink:href="#DejaVuSans-61"/>
     <use x="1062.894531" xlink:href="#DejaVuSans-6e"/>
     <use x="1126.273438" xlink:href="#DejaVuSans-63"/>
     <use x="1181.253906" xlink:href="#DejaVuSans-65"/>
    </g>
   </g>
  </g>
 </g>
 <defs>
  <clipPath id="p9d6e26d955">
   <rect height="544.925625" width="554.126563" x="44.203125" y="25.918125"/>
  </clipPath>
  <clipPath id="peada519a59">
   <rect height="544.925625" width="554.126563" x="655.573438" y="25.918125"/>
  </clipPath>
 </defs>
</svg>
