<?xml version="1.0" encoding="utf-8" standalone="no"?>
<!DOCTYPE svg PUBLIC "-//W3C//DTD SVG 1.1//EN"
  "http://www.w3.org/Graphics/SVG/1.1/DTD/svg11.dtd">
<!-- Created with matplotlib (http://matplotlib.org/) -->
<svg height="610.56pt" version="1.1" viewBox="0 0 792 610.56" width="792pt" xmlns="http://www.w3.org/2000/svg" xmlns:xlink="http://www.w3.org/1999/xlink">
 <defs>
  <style type="text/css">
*{stroke-linecap:butt;stroke-linejoin:round;}
  </style>
 </defs>
 <g id="figure_1">
  <g id="patch_1">
   <path d="M 0 610.56 
L 792 610.56 
L 792 0 
L 0 0 
z
" style="fill:#ffffff;"/>
  </g>
  <g id="axes_1">
   <g id="patch_2">
    <path d="M 99 543.3984 
L 378 543.3984 
L 378 73.2672 
L 99 73.2672 
z
" style="fill:#ffffff;"/>
   </g>
   <g id="matplotlib.axis_1">
    <g id="xtick_1">
     <g id="line2d_1">
      <defs>
       <path d="M 0 0 
L 0 3.5 
" id="m5a577cf404" style="stroke:#000000;stroke-width:0.8;"/>
      </defs>
      <g>
       <use style="stroke:#000000;stroke-width:0.8;" x="132.995798" xlink:href="#m5a577cf404" y="543.3984"/>
      </g>
     </g>
     <g id="text_1">
      <!-- 2.75 -->
      <defs>
       <path d="M 19.1875 8.296875 
L 53.609375 8.296875 
L 53.609375 0 
L 7.328125 0 
L 7.328125 8.296875 
Q 12.9375 14.109375 22.625 23.890625 
Q 32.328125 33.6875 34.8125 36.53125 
Q 39.546875 41.84375 41.421875 45.53125 
Q 43.3125 49.21875 43.3125 52.78125 
Q 43.3125 58.59375 39.234375 62.25 
Q 35.15625 65.921875 28.609375 65.921875 
Q 23.96875 65.921875 18.8125 64.3125 
Q 13.671875 62.703125 7.8125 59.421875 
L 7.8125 69.390625 
Q 13.765625 71.78125 18.9375 73 
Q 24.125 74.21875 28.421875 74.21875 
Q 39.75 74.21875 46.484375 68.546875 
Q 53.21875 62.890625 53.21875 53.421875 
Q 53.21875 48.921875 51.53125 44.890625 
Q 49.859375 40.875 45.40625 35.40625 
Q 44.1875 33.984375 37.640625 27.21875 
Q 31.109375 20.453125 19.1875 8.296875 
z
" id="DejaVuSans-32"/>
       <path d="M 10.6875 12.40625 
L 21 12.40625 
L 21 0 
L 10.6875 0 
z
" id="DejaVuSans-2e"/>
       <path d="M 8.203125 72.90625 
L 55.078125 72.90625 
L 55.078125 68.703125 
L 28.609375 0 
L 18.3125 0 
L 43.21875 64.59375 
L 8.203125 64.59375 
z
" id="DejaVuSans-37"/>
       <path d="M 10.796875 72.90625 
L 49.515625 72.90625 
L 49.515625 64.59375 
L 19.828125 64.59375 
L 19.828125 46.734375 
Q 21.96875 47.46875 24.109375 47.828125 
Q 26.265625 48.1875 28.421875 48.1875 
Q 40.625 48.1875 47.75 41.5 
Q 54.890625 34.8125 54.890625 23.390625 
Q 54.890625 11.625 47.5625 5.09375 
Q 40.234375 -1.421875 26.90625 -1.421875 
Q 22.3125 -1.421875 17.546875 -0.640625 
Q 12.796875 0.140625 7.71875 1.703125 
L 7.71875 11.625 
Q 12.109375 9.234375 16.796875 8.0625 
Q 21.484375 6.890625 26.703125 6.890625 
Q 35.15625 6.890625 40.078125 11.328125 
Q 45.015625 15.765625 45.015625 23.390625 
Q 45.015625 31 40.078125 35.4375 
Q 35.15625 39.890625 26.703125 39.890625 
Q 22.75 39.890625 18.8125 39.015625 
Q 14.890625 38.140625 10.796875 36.28125 
z
" id="DejaVuSans-35"/>
      </defs>
      <g transform="translate(121.862986 557.996838)scale(0.1 -0.1)">
       <use xlink:href="#DejaVuSans-32"/>
       <use x="63.623047" xlink:href="#DejaVuSans-2e"/>
       <use x="95.410156" xlink:href="#DejaVuSans-37"/>
       <use x="159.033203" xlink:href="#DejaVuSans-35"/>
      </g>
     </g>
    </g>
    <g id="xtick_2">
     <g id="line2d_2">
      <g>
       <use style="stroke:#000000;stroke-width:0.8;" x="175.623759" xlink:href="#m5a577cf404" y="543.3984"/>
      </g>
     </g>
     <g id="text_2">
      <!-- 2.80 -->
      <defs>
       <path d="M 31.78125 34.625 
Q 24.75 34.625 20.71875 30.859375 
Q 16.703125 27.09375 16.703125 20.515625 
Q 16.703125 13.921875 20.71875 10.15625 
Q 24.75 6.390625 31.78125 6.390625 
Q 38.8125 6.390625 42.859375 10.171875 
Q 46.921875 13.96875 46.921875 20.515625 
Q 46.921875 27.09375 42.890625 30.859375 
Q 38.875 34.625 31.78125 34.625 
z
M 21.921875 38.8125 
Q 15.578125 40.375 12.03125 44.71875 
Q 8.5 49.078125 8.5 55.328125 
Q 8.5 64.0625 14.71875 69.140625 
Q 20.953125 74.21875 31.78125 74.21875 
Q 42.671875 74.21875 48.875 69.140625 
Q 55.078125 64.0625 55.078125 55.328125 
Q 55.078125 49.078125 51.53125 44.71875 
Q 48 40.375 41.703125 38.8125 
Q 48.828125 37.15625 52.796875 32.3125 
Q 56.78125 27.484375 56.78125 20.515625 
Q 56.78125 9.90625 50.3125 4.234375 
Q 43.84375 -1.421875 31.78125 -1.421875 
Q 19.734375 -1.421875 13.25 4.234375 
Q 6.78125 9.90625 6.78125 20.515625 
Q 6.78125 27.484375 10.78125 32.3125 
Q 14.796875 37.15625 21.921875 38.8125 
z
M 18.3125 54.390625 
Q 18.3125 48.734375 21.84375 45.5625 
Q 25.390625 42.390625 31.78125 42.390625 
Q 38.140625 42.390625 41.71875 45.5625 
Q 45.3125 48.734375 45.3125 54.390625 
Q 45.3125 60.0625 41.71875 63.234375 
Q 38.140625 66.40625 31.78125 66.40625 
Q 25.390625 66.40625 21.84375 63.234375 
Q 18.3125 60.0625 18.3125 54.390625 
z
" id="DejaVuSans-38"/>
       <path d="M 31.78125 66.40625 
Q 24.171875 66.40625 20.328125 58.90625 
Q 16.5 51.421875 16.5 36.375 
Q 16.5 21.390625 20.328125 13.890625 
Q 24.171875 6.390625 31.78125 6.390625 
Q 39.453125 6.390625 43.28125 13.890625 
Q 47.125 21.390625 47.125 36.375 
Q 47.125 51.421875 43.28125 58.90625 
Q 39.453125 66.40625 31.78125 66.40625 
z
M 31.78125 74.21875 
Q 44.046875 74.21875 50.515625 64.515625 
Q 56.984375 54.828125 56.984375 36.375 
Q 56.984375 17.96875 50.515625 8.265625 
Q 44.046875 -1.421875 31.78125 -1.421875 
Q 19.53125 -1.421875 13.0625 8.265625 
Q 6.59375 17.96875 6.59375 36.375 
Q 6.59375 54.828125 13.0625 64.515625 
Q 19.53125 74.21875 31.78125 74.21875 
z
" id="DejaVuSans-30"/>
      </defs>
      <g transform="translate(164.490946 557.996838)scale(0.1 -0.1)">
       <use xlink:href="#DejaVuSans-32"/>
       <use x="63.623047" xlink:href="#DejaVuSans-2e"/>
       <use x="95.410156" xlink:href="#DejaVuSans-38"/>
       <use x="159.033203" xlink:href="#DejaVuSans-30"/>
      </g>
     </g>
    </g>
    <g id="xtick_3">
     <g id="line2d_3">
      <g>
       <use style="stroke:#000000;stroke-width:0.8;" x="218.251719" xlink:href="#m5a577cf404" y="543.3984"/>
      </g>
     </g>
     <g id="text_3">
      <!-- 2.85 -->
      <g transform="translate(207.118906 557.996838)scale(0.1 -0.1)">
       <use xlink:href="#DejaVuSans-32"/>
       <use x="63.623047" xlink:href="#DejaVuSans-2e"/>
       <use x="95.410156" xlink:href="#DejaVuSans-38"/>
       <use x="159.033203" xlink:href="#DejaVuSans-35"/>
      </g>
     </g>
    </g>
    <g id="xtick_4">
     <g id="line2d_4">
      <g>
       <use style="stroke:#000000;stroke-width:0.8;" x="260.879679" xlink:href="#m5a577cf404" y="543.3984"/>
      </g>
     </g>
     <g id="text_4">
      <!-- 2.90 -->
      <defs>
       <path d="M 10.984375 1.515625 
L 10.984375 10.5 
Q 14.703125 8.734375 18.5 7.8125 
Q 22.3125 6.890625 25.984375 6.890625 
Q 35.75 6.890625 40.890625 13.453125 
Q 46.046875 20.015625 46.78125 33.40625 
Q 43.953125 29.203125 39.59375 26.953125 
Q 35.25 24.703125 29.984375 24.703125 
Q 19.046875 24.703125 12.671875 31.3125 
Q 6.296875 37.9375 6.296875 49.421875 
Q 6.296875 60.640625 12.9375 67.421875 
Q 19.578125 74.21875 30.609375 74.21875 
Q 43.265625 74.21875 49.921875 64.515625 
Q 56.59375 54.828125 56.59375 36.375 
Q 56.59375 19.140625 48.40625 8.859375 
Q 40.234375 -1.421875 26.421875 -1.421875 
Q 22.703125 -1.421875 18.890625 -0.6875 
Q 15.09375 0.046875 10.984375 1.515625 
z
M 30.609375 32.421875 
Q 37.25 32.421875 41.125 36.953125 
Q 45.015625 41.5 45.015625 49.421875 
Q 45.015625 57.28125 41.125 61.84375 
Q 37.25 66.40625 30.609375 66.40625 
Q 23.96875 66.40625 20.09375 61.84375 
Q 16.21875 57.28125 16.21875 49.421875 
Q 16.21875 41.5 20.09375 36.953125 
Q 23.96875 32.421875 30.609375 32.421875 
z
" id="DejaVuSans-39"/>
      </defs>
      <g transform="translate(249.746867 557.996838)scale(0.1 -0.1)">
       <use xlink:href="#DejaVuSans-32"/>
       <use x="63.623047" xlink:href="#DejaVuSans-2e"/>
       <use x="95.410156" xlink:href="#DejaVuSans-39"/>
       <use x="159.033203" xlink:href="#DejaVuSans-30"/>
      </g>
     </g>
    </g>
    <g id="xtick_5">
     <g id="line2d_5">
      <g>
       <use style="stroke:#000000;stroke-width:0.8;" x="303.507639" xlink:href="#m5a577cf404" y="543.3984"/>
      </g>
     </g>
     <g id="text_5">
      <!-- 2.95 -->
      <g transform="translate(292.374827 557.996838)scale(0.1 -0.1)">
       <use xlink:href="#DejaVuSans-32"/>
       <use x="63.623047" xlink:href="#DejaVuSans-2e"/>
       <use x="95.410156" xlink:href="#DejaVuSans-39"/>
       <use x="159.033203" xlink:href="#DejaVuSans-35"/>
      </g>
     </g>
    </g>
    <g id="xtick_6">
     <g id="line2d_6">
      <g>
       <use style="stroke:#000000;stroke-width:0.8;" x="346.1356" xlink:href="#m5a577cf404" y="543.3984"/>
      </g>
     </g>
     <g id="text_6">
      <!-- 3.00 -->
      <defs>
       <path d="M 40.578125 39.3125 
Q 47.65625 37.796875 51.625 33 
Q 55.609375 28.21875 55.609375 21.1875 
Q 55.609375 10.40625 48.1875 4.484375 
Q 40.765625 -1.421875 27.09375 -1.421875 
Q 22.515625 -1.421875 17.65625 -0.515625 
Q 12.796875 0.390625 7.625 2.203125 
L 7.625 11.71875 
Q 11.71875 9.328125 16.59375 8.109375 
Q 21.484375 6.890625 26.8125 6.890625 
Q 36.078125 6.890625 40.9375 10.546875 
Q 45.796875 14.203125 45.796875 21.1875 
Q 45.796875 27.640625 41.28125 31.265625 
Q 36.765625 34.90625 28.71875 34.90625 
L 20.21875 34.90625 
L 20.21875 43.015625 
L 29.109375 43.015625 
Q 36.375 43.015625 40.234375 45.921875 
Q 44.09375 48.828125 44.09375 54.296875 
Q 44.09375 59.90625 40.109375 62.90625 
Q 36.140625 65.921875 28.71875 65.921875 
Q 24.65625 65.921875 20.015625 65.03125 
Q 15.375 64.15625 9.8125 62.3125 
L 9.8125 71.09375 
Q 15.4375 72.65625 20.34375 73.4375 
Q 25.25 74.21875 29.59375 74.21875 
Q 40.828125 74.21875 47.359375 69.109375 
Q 53.90625 64.015625 53.90625 55.328125 
Q 53.90625 49.265625 50.4375 45.09375 
Q 46.96875 40.921875 40.578125 39.3125 
z
" id="DejaVuSans-33"/>
      </defs>
      <g transform="translate(335.002787 557.996838)scale(0.1 -0.1)">
       <use xlink:href="#DejaVuSans-33"/>
       <use x="63.623047" xlink:href="#DejaVuSans-2e"/>
       <use x="95.410156" xlink:href="#DejaVuSans-30"/>
       <use x="159.033203" xlink:href="#DejaVuSans-30"/>
      </g>
     </g>
    </g>
   </g>
   <g id="matplotlib.axis_2">
    <g id="ytick_1">
     <g id="line2d_7">
      <defs>
       <path d="M 0 0 
L -3.5 0 
" id="m5a0fee74bb" style="stroke:#000000;stroke-width:0.8;"/>
      </defs>
      <g>
       <use style="stroke:#000000;stroke-width:0.8;" x="99" xlink:href="#m5a0fee74bb" y="467.647046"/>
      </g>
     </g>
     <g id="text_7">
      <!-- 8000 -->
      <g transform="translate(66.55 471.446264)scale(0.1 -0.1)">
       <use xlink:href="#DejaVuSans-38"/>
       <use x="63.623047" xlink:href="#DejaVuSans-30"/>
       <use x="127.246094" xlink:href="#DejaVuSans-30"/>
       <use x="190.869141" xlink:href="#DejaVuSans-30"/>
      </g>
     </g>
    </g>
    <g id="ytick_2">
     <g id="line2d_8">
      <g>
       <use style="stroke:#000000;stroke-width:0.8;" x="99" xlink:href="#m5a0fee74bb" y="374.207605"/>
      </g>
     </g>
     <g id="text_8">
      <!-- 8500 -->
      <g transform="translate(66.55 378.006824)scale(0.1 -0.1)">
       <use xlink:href="#DejaVuSans-38"/>
       <use x="63.623047" xlink:href="#DejaVuSans-35"/>
       <use x="127.246094" xlink:href="#DejaVuSans-30"/>
       <use x="190.869141" xlink:href="#DejaVuSans-30"/>
      </g>
     </g>
    </g>
    <g id="ytick_3">
     <g id="line2d_9">
      <g>
       <use style="stroke:#000000;stroke-width:0.8;" x="99" xlink:href="#m5a0fee74bb" y="280.768165"/>
      </g>
     </g>
     <g id="text_9">
      <!-- 9000 -->
      <g transform="translate(66.55 284.567384)scale(0.1 -0.1)">
       <use xlink:href="#DejaVuSans-39"/>
       <use x="63.623047" xlink:href="#DejaVuSans-30"/>
       <use x="127.246094" xlink:href="#DejaVuSans-30"/>
       <use x="190.869141" xlink:href="#DejaVuSans-30"/>
      </g>
     </g>
    </g>
    <g id="ytick_4">
     <g id="line2d_10">
      <g>
       <use style="stroke:#000000;stroke-width:0.8;" x="99" xlink:href="#m5a0fee74bb" y="187.328725"/>
      </g>
     </g>
     <g id="text_10">
      <!-- 9500 -->
      <g transform="translate(66.55 191.127944)scale(0.1 -0.1)">
       <use xlink:href="#DejaVuSans-39"/>
       <use x="63.623047" xlink:href="#DejaVuSans-35"/>
       <use x="127.246094" xlink:href="#DejaVuSans-30"/>
       <use x="190.869141" xlink:href="#DejaVuSans-30"/>
      </g>
     </g>
    </g>
    <g id="ytick_5">
     <g id="line2d_11">
      <g>
       <use style="stroke:#000000;stroke-width:0.8;" x="99" xlink:href="#m5a0fee74bb" y="93.889284"/>
      </g>
     </g>
     <g id="text_11">
      <!-- 10000 -->
      <defs>
       <path d="M 12.40625 8.296875 
L 28.515625 8.296875 
L 28.515625 63.921875 
L 10.984375 60.40625 
L 10.984375 69.390625 
L 28.421875 72.90625 
L 38.28125 72.90625 
L 38.28125 8.296875 
L 54.390625 8.296875 
L 54.390625 0 
L 12.40625 0 
z
" id="DejaVuSans-31"/>
      </defs>
      <g transform="translate(60.1875 97.688503)scale(0.1 -0.1)">
       <use xlink:href="#DejaVuSans-31"/>
       <use x="63.623047" xlink:href="#DejaVuSans-30"/>
       <use x="127.246094" xlink:href="#DejaVuSans-30"/>
       <use x="190.869141" xlink:href="#DejaVuSans-30"/>
       <use x="254.492188" xlink:href="#DejaVuSans-30"/>
      </g>
     </g>
    </g>
   </g>
   <g id="line2d_12">
    <path clip-path="url(#pfaff2c372a)" d="M 111.681818 95.197437 
L 113.813216 99.495651 
L 115.944614 126.593089 
L 118.076012 147.149765 
L 120.20741 152.195495 
L 122.338808 147.710402 
L 124.470206 148.271039 
L 126.601604 94.6368 
L 128.733002 136.123911 
L 130.8644 140.048368 
L 132.995798 110.708384 
L 135.127196 110.334626 
L 137.258594 137.618943 
L 139.389992 175.368476 
L 141.52139 140.048368 
L 143.652788 163.968865 
L 145.784186 131.078182 
L 147.915584 138.179579 
L 150.046982 148.271039 
L 152.17838 163.595107 
L 154.309778 161.726318 
L 156.441176 154.064284 
L 158.572574 130.704424 
L 160.703972 127.714362 
L 162.835371 116.875387 
L 164.966769 132.199455 
L 167.098167 103.420107 
L 169.229565 148.644797 
L 171.360963 186.207452 
L 173.492361 197.980821 
L 175.623759 127.714362 
L 177.755157 188.263119 
L 179.886555 182.282995 
L 182.017953 154.064284 
L 184.149351 180.974843 
L 186.280749 213.678647 
L 188.412147 138.179579 
L 190.543545 131.825697 
L 192.674943 169.575231 
L 194.806341 140.422126 
L 196.937739 177.050386 
L 199.069137 165.090138 
L 201.200535 166.211411 
L 203.331933 157.054346 
L 205.463331 151.634859 
L 207.594729 189.571271 
L 209.726127 164.529501 
L 211.857525 198.728337 
L 213.988923 177.424144 
L 216.120321 183.030511 
L 218.251719 214.239284 
L 220.383117 199.84961 
L 222.514515 185.459936 
L 224.645913 203.960945 
L 226.777311 192.374455 
L 228.908709 192.187576 
L 231.040107 231.61902 
L 233.171505 217.416225 
L 235.302903 182.843632 
L 237.434301 185.273057 
L 239.565699 258.903336 
L 241.697097 273.853647 
L 243.828495 248.998755 
L 245.959893 250.867544 
L 248.091291 228.068321 
L 250.222689 260.585246 
L 252.354087 277.591224 
L 254.485485 246.756209 
L 256.616883 278.712497 
L 258.748281 264.509702 
L 260.879679 240.962964 
L 263.011077 308.239361 
L 265.142475 296.839749 
L 267.273873 291.980898 
L 269.405271 342.811953 
L 271.536669 372.899453 
L 273.668067 374.394484 
L 275.799465 325.805975 
L 277.930863 380.748366 
L 280.062261 365.424298 
L 282.193659 365.237419 
L 284.325057 352.529655 
L 286.456455 355.14596 
L 288.587853 387.289127 
L 290.719251 344.306985 
L 292.850649 360.00481 
L 294.982047 343.933227 
L 297.113445 402.052559 
L 299.244843 365.984935 
L 301.376241 327.674764 
L 303.507639 349.726472 
L 305.639037 353.090292 
L 307.770435 371.591301 
L 309.901833 341.877559 
L 312.033231 345.428258 
L 314.164629 331.038584 
L 316.296028 342.625075 
L 318.427426 349.165835 
L 320.558824 300.390448 
L 322.690222 345.988894 
L 324.82162 366.73245 
L 326.953018 344.306985 
L 329.084416 357.388506 
L 331.215814 363.929267 
L 333.347212 398.688739 
L 335.47861 376.076394 
L 337.610008 403.360711 
L 339.741406 367.293087 
L 341.872804 401.305043 
L 344.004202 403.921347 
L 346.1356 430.831906 
L 348.266998 435.130121 
L 350.398396 453.63113 
L 352.529794 453.818009 
L 354.661192 467.833925 
L 356.79259 448.772279 
L 358.923988 461.293164 
L 361.055386 458.676859 
L 363.186784 511.750462 
L 365.318182 491.754421 
" style="fill:none;stroke:#ff0000;stroke-linecap:square;stroke-width:1.5;"/>
   </g>
   <g id="line2d_13">
    <path clip-path="url(#pfaff2c372a)" d="M 111.681818 143.412188 
L 113.813216 97.066225 
L 115.944614 124.911179 
L 118.076012 146.776008 
L 120.20741 141.730278 
L 122.338808 143.225309 
L 124.470206 123.04239 
L 126.601604 161.35256 
L 128.733002 112.390294 
L 130.8644 125.845573 
L 132.995798 110.521505 
L 135.127196 120.799843 
L 137.258594 169.201473 
L 139.389992 105.849533 
L 141.52139 142.104036 
L 143.652788 148.831675 
L 145.784186 169.76211 
L 147.915584 127.153725 
L 150.046982 128.274999 
L 152.17838 169.948989 
L 154.309778 136.497669 
L 156.441176 115.380356 
L 158.572574 143.599067 
L 160.703972 133.694486 
L 162.835371 118.370418 
L 164.966769 163.968865 
L 167.098167 158.175619 
L 169.229565 154.438042 
L 171.360963 151.261101 
L 173.492361 154.064284 
L 175.623759 157.801862 
L 177.755157 191.066302 
L 179.886555 155.185557 
L 182.017953 200.784004 
L 184.149351 191.44006 
L 186.280749 146.40225 
L 188.412147 178.17166 
L 190.543545 180.227327 
L 192.674943 203.774066 
L 194.806341 142.290915 
L 196.937739 153.12989 
L 199.069137 183.404268 
L 201.200535 203.400309 
L 203.331933 195.738274 
L 205.463331 247.877482 
L 207.594729 233.861566 
L 209.726127 228.442079 
L 211.857525 223.770107 
L 213.988923 228.628957 
L 216.120321 232.179656 
L 218.251719 218.537498 
L 220.383117 222.088197 
L 222.514515 251.61506 
L 224.645913 243.392389 
L 226.777311 251.054423 
L 228.908709 225.452016 
L 231.040107 275.348678 
L 233.171505 282.823833 
L 235.302903 326.366612 
L 237.434301 322.815913 
L 239.565699 317.957062 
L 241.697097 316.275152 
L 243.828495 281.70256 
L 245.959893 285.066379 
L 248.091291 273.479889 
L 250.222689 303.754267 
L 252.354087 311.976938 
L 254.485485 261.145883 
L 256.616883 292.541535 
L 258.748281 287.682684 
L 260.879679 269.92919 
L 263.011077 317.957062 
L 265.142475 338.887497 
L 267.273873 330.10419 
L 269.405271 349.352714 
L 271.536669 360.752326 
L 273.668067 323.937187 
L 275.799465 354.398444 
L 277.930863 377.010789 
L 280.062261 389.718553 
L 282.193659 346.923289 
L 284.325057 335.336798 
L 286.456455 342.998832 
L 288.587853 357.014748 
L 290.719251 399.062497 
L 292.850649 371.591301 
L 294.982047 393.082372 
L 297.113445 392.147978 
L 299.244843 399.996891 
L 301.376241 346.923289 
L 303.507639 392.147978 
L 305.639037 362.621115 
L 307.770435 334.589283 
L 309.901833 344.680742 
L 312.033231 347.857683 
L 314.164629 361.312963 
L 316.296028 386.72849 
L 318.427426 373.646969 
L 320.558824 348.41832 
L 322.690222 352.903413 
L 324.82162 379.627093 
L 326.953018 404.295105 
L 329.084416 429.149996 
L 331.215814 382.804034 
L 333.347212 386.167854 
L 335.47861 386.541612 
L 337.610008 373.273211 
L 339.741406 393.082372 
L 341.872804 381.86964 
L 344.004202 448.772279 
L 346.1356 463.348831 
L 348.266998 455.686797 
L 350.398396 450.827946 
L 352.529794 429.149996 
L 354.661192 467.460167 
L 356.79259 455.686797 
L 358.923988 496.98703 
L 361.055386 489.885633 
L 363.186784 505.957216 
L 365.318182 522.0288 
" style="fill:none;stroke:#1f77b4;stroke-linecap:square;stroke-width:1.5;"/>
    <defs>
     <path d="M 0 3 
C 0.795609 3 1.55874 2.683901 2.12132 2.12132 
C 2.683901 1.55874 3 0.795609 3 0 
C 3 -0.795609 2.683901 -1.55874 2.12132 -2.12132 
C 1.55874 -2.683901 0.795609 -3 0 -3 
C -0.795609 -3 -1.55874 -2.683901 -2.12132 -2.12132 
C -2.683901 -1.55874 -3 -0.795609 -3 0 
C -3 0.795609 -2.683901 1.55874 -2.12132 2.12132 
C -1.55874 2.683901 -0.795609 3 0 3 
z
" id="m4443bda2e7" style="stroke:#1f77b4;"/>
    </defs>
    <g clip-path="url(#pfaff2c372a)">
     <use style="fill:#1f77b4;stroke:#1f77b4;" x="111.681818" xlink:href="#m4443bda2e7" y="143.412188"/>
     <use style="fill:#1f77b4;stroke:#1f77b4;" x="113.813216" xlink:href="#m4443bda2e7" y="97.066225"/>
     <use style="fill:#1f77b4;stroke:#1f77b4;" x="115.944614" xlink:href="#m4443bda2e7" y="124.911179"/>
     <use style="fill:#1f77b4;stroke:#1f77b4;" x="118.076012" xlink:href="#m4443bda2e7" y="146.776008"/>
     <use style="fill:#1f77b4;stroke:#1f77b4;" x="120.20741" xlink:href="#m4443bda2e7" y="141.730278"/>
     <use style="fill:#1f77b4;stroke:#1f77b4;" x="122.338808" xlink:href="#m4443bda2e7" y="143.225309"/>
     <use style="fill:#1f77b4;stroke:#1f77b4;" x="124.470206" xlink:href="#m4443bda2e7" y="123.04239"/>
     <use style="fill:#1f77b4;stroke:#1f77b4;" x="126.601604" xlink:href="#m4443bda2e7" y="161.35256"/>
     <use style="fill:#1f77b4;stroke:#1f77b4;" x="128.733002" xlink:href="#m4443bda2e7" y="112.390294"/>
     <use style="fill:#1f77b4;stroke:#1f77b4;" x="130.8644" xlink:href="#m4443bda2e7" y="125.845573"/>
     <use style="fill:#1f77b4;stroke:#1f77b4;" x="132.995798" xlink:href="#m4443bda2e7" y="110.521505"/>
     <use style="fill:#1f77b4;stroke:#1f77b4;" x="135.127196" xlink:href="#m4443bda2e7" y="120.799843"/>
     <use style="fill:#1f77b4;stroke:#1f77b4;" x="137.258594" xlink:href="#m4443bda2e7" y="169.201473"/>
     <use style="fill:#1f77b4;stroke:#1f77b4;" x="139.389992" xlink:href="#m4443bda2e7" y="105.849533"/>
     <use style="fill:#1f77b4;stroke:#1f77b4;" x="141.52139" xlink:href="#m4443bda2e7" y="142.104036"/>
     <use style="fill:#1f77b4;stroke:#1f77b4;" x="143.652788" xlink:href="#m4443bda2e7" y="148.831675"/>
     <use style="fill:#1f77b4;stroke:#1f77b4;" x="145.784186" xlink:href="#m4443bda2e7" y="169.76211"/>
     <use style="fill:#1f77b4;stroke:#1f77b4;" x="147.915584" xlink:href="#m4443bda2e7" y="127.153725"/>
     <use style="fill:#1f77b4;stroke:#1f77b4;" x="150.046982" xlink:href="#m4443bda2e7" y="128.274999"/>
     <use style="fill:#1f77b4;stroke:#1f77b4;" x="152.17838" xlink:href="#m4443bda2e7" y="169.948989"/>
     <use style="fill:#1f77b4;stroke:#1f77b4;" x="154.309778" xlink:href="#m4443bda2e7" y="136.497669"/>
     <use style="fill:#1f77b4;stroke:#1f77b4;" x="156.441176" xlink:href="#m4443bda2e7" y="115.380356"/>
     <use style="fill:#1f77b4;stroke:#1f77b4;" x="158.572574" xlink:href="#m4443bda2e7" y="143.599067"/>
     <use style="fill:#1f77b4;stroke:#1f77b4;" x="160.703972" xlink:href="#m4443bda2e7" y="133.694486"/>
     <use style="fill:#1f77b4;stroke:#1f77b4;" x="162.835371" xlink:href="#m4443bda2e7" y="118.370418"/>
     <use style="fill:#1f77b4;stroke:#1f77b4;" x="164.966769" xlink:href="#m4443bda2e7" y="163.968865"/>
     <use style="fill:#1f77b4;stroke:#1f77b4;" x="167.098167" xlink:href="#m4443bda2e7" y="158.175619"/>
     <use style="fill:#1f77b4;stroke:#1f77b4;" x="169.229565" xlink:href="#m4443bda2e7" y="154.438042"/>
     <use style="fill:#1f77b4;stroke:#1f77b4;" x="171.360963" xlink:href="#m4443bda2e7" y="151.261101"/>
     <use style="fill:#1f77b4;stroke:#1f77b4;" x="173.492361" xlink:href="#m4443bda2e7" y="154.064284"/>
     <use style="fill:#1f77b4;stroke:#1f77b4;" x="175.623759" xlink:href="#m4443bda2e7" y="157.801862"/>
     <use style="fill:#1f77b4;stroke:#1f77b4;" x="177.755157" xlink:href="#m4443bda2e7" y="191.066302"/>
     <use style="fill:#1f77b4;stroke:#1f77b4;" x="179.886555" xlink:href="#m4443bda2e7" y="155.185557"/>
     <use style="fill:#1f77b4;stroke:#1f77b4;" x="182.017953" xlink:href="#m4443bda2e7" y="200.784004"/>
     <use style="fill:#1f77b4;stroke:#1f77b4;" x="184.149351" xlink:href="#m4443bda2e7" y="191.44006"/>
     <use style="fill:#1f77b4;stroke:#1f77b4;" x="186.280749" xlink:href="#m4443bda2e7" y="146.40225"/>
     <use style="fill:#1f77b4;stroke:#1f77b4;" x="188.412147" xlink:href="#m4443bda2e7" y="178.17166"/>
     <use style="fill:#1f77b4;stroke:#1f77b4;" x="190.543545" xlink:href="#m4443bda2e7" y="180.227327"/>
     <use style="fill:#1f77b4;stroke:#1f77b4;" x="192.674943" xlink:href="#m4443bda2e7" y="203.774066"/>
     <use style="fill:#1f77b4;stroke:#1f77b4;" x="194.806341" xlink:href="#m4443bda2e7" y="142.290915"/>
     <use style="fill:#1f77b4;stroke:#1f77b4;" x="196.937739" xlink:href="#m4443bda2e7" y="153.12989"/>
     <use style="fill:#1f77b4;stroke:#1f77b4;" x="199.069137" xlink:href="#m4443bda2e7" y="183.404268"/>
     <use style="fill:#1f77b4;stroke:#1f77b4;" x="201.200535" xlink:href="#m4443bda2e7" y="203.400309"/>
     <use style="fill:#1f77b4;stroke:#1f77b4;" x="203.331933" xlink:href="#m4443bda2e7" y="195.738274"/>
     <use style="fill:#1f77b4;stroke:#1f77b4;" x="205.463331" xlink:href="#m4443bda2e7" y="247.877482"/>
     <use style="fill:#1f77b4;stroke:#1f77b4;" x="207.594729" xlink:href="#m4443bda2e7" y="233.861566"/>
     <use style="fill:#1f77b4;stroke:#1f77b4;" x="209.726127" xlink:href="#m4443bda2e7" y="228.442079"/>
     <use style="fill:#1f77b4;stroke:#1f77b4;" x="211.857525" xlink:href="#m4443bda2e7" y="223.770107"/>
     <use style="fill:#1f77b4;stroke:#1f77b4;" x="213.988923" xlink:href="#m4443bda2e7" y="228.628957"/>
     <use style="fill:#1f77b4;stroke:#1f77b4;" x="216.120321" xlink:href="#m4443bda2e7" y="232.179656"/>
     <use style="fill:#1f77b4;stroke:#1f77b4;" x="218.251719" xlink:href="#m4443bda2e7" y="218.537498"/>
     <use style="fill:#1f77b4;stroke:#1f77b4;" x="220.383117" xlink:href="#m4443bda2e7" y="222.088197"/>
     <use style="fill:#1f77b4;stroke:#1f77b4;" x="222.514515" xlink:href="#m4443bda2e7" y="251.61506"/>
     <use style="fill:#1f77b4;stroke:#1f77b4;" x="224.645913" xlink:href="#m4443bda2e7" y="243.392389"/>
     <use style="fill:#1f77b4;stroke:#1f77b4;" x="226.777311" xlink:href="#m4443bda2e7" y="251.054423"/>
     <use style="fill:#1f77b4;stroke:#1f77b4;" x="228.908709" xlink:href="#m4443bda2e7" y="225.452016"/>
     <use style="fill:#1f77b4;stroke:#1f77b4;" x="231.040107" xlink:href="#m4443bda2e7" y="275.348678"/>
     <use style="fill:#1f77b4;stroke:#1f77b4;" x="233.171505" xlink:href="#m4443bda2e7" y="282.823833"/>
     <use style="fill:#1f77b4;stroke:#1f77b4;" x="235.302903" xlink:href="#m4443bda2e7" y="326.366612"/>
     <use style="fill:#1f77b4;stroke:#1f77b4;" x="237.434301" xlink:href="#m4443bda2e7" y="322.815913"/>
     <use style="fill:#1f77b4;stroke:#1f77b4;" x="239.565699" xlink:href="#m4443bda2e7" y="317.957062"/>
     <use style="fill:#1f77b4;stroke:#1f77b4;" x="241.697097" xlink:href="#m4443bda2e7" y="316.275152"/>
     <use style="fill:#1f77b4;stroke:#1f77b4;" x="243.828495" xlink:href="#m4443bda2e7" y="281.70256"/>
     <use style="fill:#1f77b4;stroke:#1f77b4;" x="245.959893" xlink:href="#m4443bda2e7" y="285.066379"/>
     <use style="fill:#1f77b4;stroke:#1f77b4;" x="248.091291" xlink:href="#m4443bda2e7" y="273.479889"/>
     <use style="fill:#1f77b4;stroke:#1f77b4;" x="250.222689" xlink:href="#m4443bda2e7" y="303.754267"/>
     <use style="fill:#1f77b4;stroke:#1f77b4;" x="252.354087" xlink:href="#m4443bda2e7" y="311.976938"/>
     <use style="fill:#1f77b4;stroke:#1f77b4;" x="254.485485" xlink:href="#m4443bda2e7" y="261.145883"/>
     <use style="fill:#1f77b4;stroke:#1f77b4;" x="256.616883" xlink:href="#m4443bda2e7" y="292.541535"/>
     <use style="fill:#1f77b4;stroke:#1f77b4;" x="258.748281" xlink:href="#m4443bda2e7" y="287.682684"/>
     <use style="fill:#1f77b4;stroke:#1f77b4;" x="260.879679" xlink:href="#m4443bda2e7" y="269.92919"/>
     <use style="fill:#1f77b4;stroke:#1f77b4;" x="263.011077" xlink:href="#m4443bda2e7" y="317.957062"/>
     <use style="fill:#1f77b4;stroke:#1f77b4;" x="265.142475" xlink:href="#m4443bda2e7" y="338.887497"/>
     <use style="fill:#1f77b4;stroke:#1f77b4;" x="267.273873" xlink:href="#m4443bda2e7" y="330.10419"/>
     <use style="fill:#1f77b4;stroke:#1f77b4;" x="269.405271" xlink:href="#m4443bda2e7" y="349.352714"/>
     <use style="fill:#1f77b4;stroke:#1f77b4;" x="271.536669" xlink:href="#m4443bda2e7" y="360.752326"/>
     <use style="fill:#1f77b4;stroke:#1f77b4;" x="273.668067" xlink:href="#m4443bda2e7" y="323.937187"/>
     <use style="fill:#1f77b4;stroke:#1f77b4;" x="275.799465" xlink:href="#m4443bda2e7" y="354.398444"/>
     <use style="fill:#1f77b4;stroke:#1f77b4;" x="277.930863" xlink:href="#m4443bda2e7" y="377.010789"/>
     <use style="fill:#1f77b4;stroke:#1f77b4;" x="280.062261" xlink:href="#m4443bda2e7" y="389.718553"/>
     <use style="fill:#1f77b4;stroke:#1f77b4;" x="282.193659" xlink:href="#m4443bda2e7" y="346.923289"/>
     <use style="fill:#1f77b4;stroke:#1f77b4;" x="284.325057" xlink:href="#m4443bda2e7" y="335.336798"/>
     <use style="fill:#1f77b4;stroke:#1f77b4;" x="286.456455" xlink:href="#m4443bda2e7" y="342.998832"/>
     <use style="fill:#1f77b4;stroke:#1f77b4;" x="288.587853" xlink:href="#m4443bda2e7" y="357.014748"/>
     <use style="fill:#1f77b4;stroke:#1f77b4;" x="290.719251" xlink:href="#m4443bda2e7" y="399.062497"/>
     <use style="fill:#1f77b4;stroke:#1f77b4;" x="292.850649" xlink:href="#m4443bda2e7" y="371.591301"/>
     <use style="fill:#1f77b4;stroke:#1f77b4;" x="294.982047" xlink:href="#m4443bda2e7" y="393.082372"/>
     <use style="fill:#1f77b4;stroke:#1f77b4;" x="297.113445" xlink:href="#m4443bda2e7" y="392.147978"/>
     <use style="fill:#1f77b4;stroke:#1f77b4;" x="299.244843" xlink:href="#m4443bda2e7" y="399.996891"/>
     <use style="fill:#1f77b4;stroke:#1f77b4;" x="301.376241" xlink:href="#m4443bda2e7" y="346.923289"/>
     <use style="fill:#1f77b4;stroke:#1f77b4;" x="303.507639" xlink:href="#m4443bda2e7" y="392.147978"/>
     <use style="fill:#1f77b4;stroke:#1f77b4;" x="305.639037" xlink:href="#m4443bda2e7" y="362.621115"/>
     <use style="fill:#1f77b4;stroke:#1f77b4;" x="307.770435" xlink:href="#m4443bda2e7" y="334.589283"/>
     <use style="fill:#1f77b4;stroke:#1f77b4;" x="309.901833" xlink:href="#m4443bda2e7" y="344.680742"/>
     <use style="fill:#1f77b4;stroke:#1f77b4;" x="312.033231" xlink:href="#m4443bda2e7" y="347.857683"/>
     <use style="fill:#1f77b4;stroke:#1f77b4;" x="314.164629" xlink:href="#m4443bda2e7" y="361.312963"/>
     <use style="fill:#1f77b4;stroke:#1f77b4;" x="316.296028" xlink:href="#m4443bda2e7" y="386.72849"/>
     <use style="fill:#1f77b4;stroke:#1f77b4;" x="318.427426" xlink:href="#m4443bda2e7" y="373.646969"/>
     <use style="fill:#1f77b4;stroke:#1f77b4;" x="320.558824" xlink:href="#m4443bda2e7" y="348.41832"/>
     <use style="fill:#1f77b4;stroke:#1f77b4;" x="322.690222" xlink:href="#m4443bda2e7" y="352.903413"/>
     <use style="fill:#1f77b4;stroke:#1f77b4;" x="324.82162" xlink:href="#m4443bda2e7" y="379.627093"/>
     <use style="fill:#1f77b4;stroke:#1f77b4;" x="326.953018" xlink:href="#m4443bda2e7" y="404.295105"/>
     <use style="fill:#1f77b4;stroke:#1f77b4;" x="329.084416" xlink:href="#m4443bda2e7" y="429.149996"/>
     <use style="fill:#1f77b4;stroke:#1f77b4;" x="331.215814" xlink:href="#m4443bda2e7" y="382.804034"/>
     <use style="fill:#1f77b4;stroke:#1f77b4;" x="333.347212" xlink:href="#m4443bda2e7" y="386.167854"/>
     <use style="fill:#1f77b4;stroke:#1f77b4;" x="335.47861" xlink:href="#m4443bda2e7" y="386.541612"/>
     <use style="fill:#1f77b4;stroke:#1f77b4;" x="337.610008" xlink:href="#m4443bda2e7" y="373.273211"/>
     <use style="fill:#1f77b4;stroke:#1f77b4;" x="339.741406" xlink:href="#m4443bda2e7" y="393.082372"/>
     <use style="fill:#1f77b4;stroke:#1f77b4;" x="341.872804" xlink:href="#m4443bda2e7" y="381.86964"/>
     <use style="fill:#1f77b4;stroke:#1f77b4;" x="344.004202" xlink:href="#m4443bda2e7" y="448.772279"/>
     <use style="fill:#1f77b4;stroke:#1f77b4;" x="346.1356" xlink:href="#m4443bda2e7" y="463.348831"/>
     <use style="fill:#1f77b4;stroke:#1f77b4;" x="348.266998" xlink:href="#m4443bda2e7" y="455.686797"/>
     <use style="fill:#1f77b4;stroke:#1f77b4;" x="350.398396" xlink:href="#m4443bda2e7" y="450.827946"/>
     <use style="fill:#1f77b4;stroke:#1f77b4;" x="352.529794" xlink:href="#m4443bda2e7" y="429.149996"/>
     <use style="fill:#1f77b4;stroke:#1f77b4;" x="354.661192" xlink:href="#m4443bda2e7" y="467.460167"/>
     <use style="fill:#1f77b4;stroke:#1f77b4;" x="356.79259" xlink:href="#m4443bda2e7" y="455.686797"/>
     <use style="fill:#1f77b4;stroke:#1f77b4;" x="358.923988" xlink:href="#m4443bda2e7" y="496.98703"/>
     <use style="fill:#1f77b4;stroke:#1f77b4;" x="361.055386" xlink:href="#m4443bda2e7" y="489.885633"/>
     <use style="fill:#1f77b4;stroke:#1f77b4;" x="363.186784" xlink:href="#m4443bda2e7" y="505.957216"/>
     <use style="fill:#1f77b4;stroke:#1f77b4;" x="365.318182" xlink:href="#m4443bda2e7" y="522.0288"/>
    </g>
   </g>
   <g id="patch_3">
    <path d="M 99 543.3984 
L 99 73.2672 
" style="fill:none;stroke:#000000;stroke-linecap:square;stroke-linejoin:miter;stroke-width:0.8;"/>
   </g>
   <g id="patch_4">
    <path d="M 378 543.3984 
L 378 73.2672 
" style="fill:none;stroke:#000000;stroke-linecap:square;stroke-linejoin:miter;stroke-width:0.8;"/>
   </g>
   <g id="patch_5">
    <path d="M 99 543.3984 
L 378 543.3984 
" style="fill:none;stroke:#000000;stroke-linecap:square;stroke-linejoin:miter;stroke-width:0.8;"/>
   </g>
   <g id="patch_6">
    <path d="M 99 73.2672 
L 378 73.2672 
" style="fill:none;stroke:#000000;stroke-linecap:square;stroke-linejoin:miter;stroke-width:0.8;"/>
   </g>
  </g>
  <g id="axes_2">
   <g id="patch_7">
    <path d="M 433.8 543.3984 
L 712.8 543.3984 
L 712.8 73.2672 
L 433.8 73.2672 
z
" style="fill:#ffffff;"/>
   </g>
   <g id="matplotlib.axis_3">
    <g id="xtick_7">
     <g id="line2d_14">
      <g>
       <use style="stroke:#000000;stroke-width:0.8;" x="467.795798" xlink:href="#m5a577cf404" y="543.3984"/>
      </g>
     </g>
     <g id="text_12">
      <!-- 2.75 -->
      <g transform="translate(456.662986 557.996838)scale(0.1 -0.1)">
       <use xlink:href="#DejaVuSans-32"/>
       <use x="63.623047" xlink:href="#DejaVuSans-2e"/>
       <use x="95.410156" xlink:href="#DejaVuSans-37"/>
       <use x="159.033203" xlink:href="#DejaVuSans-35"/>
      </g>
     </g>
    </g>
    <g id="xtick_8">
     <g id="line2d_15">
      <g>
       <use style="stroke:#000000;stroke-width:0.8;" x="510.423759" xlink:href="#m5a577cf404" y="543.3984"/>
      </g>
     </g>
     <g id="text_13">
      <!-- 2.80 -->
      <g transform="translate(499.290946 557.996838)scale(0.1 -0.1)">
       <use xlink:href="#DejaVuSans-32"/>
       <use x="63.623047" xlink:href="#DejaVuSans-2e"/>
       <use x="95.410156" xlink:href="#DejaVuSans-38"/>
       <use x="159.033203" xlink:href="#DejaVuSans-30"/>
      </g>
     </g>
    </g>
    <g id="xtick_9">
     <g id="line2d_16">
      <g>
       <use style="stroke:#000000;stroke-width:0.8;" x="553.051719" xlink:href="#m5a577cf404" y="543.3984"/>
      </g>
     </g>
     <g id="text_14">
      <!-- 2.85 -->
      <g transform="translate(541.918906 557.996838)scale(0.1 -0.1)">
       <use xlink:href="#DejaVuSans-32"/>
       <use x="63.623047" xlink:href="#DejaVuSans-2e"/>
       <use x="95.410156" xlink:href="#DejaVuSans-38"/>
       <use x="159.033203" xlink:href="#DejaVuSans-35"/>
      </g>
     </g>
    </g>
    <g id="xtick_10">
     <g id="line2d_17">
      <g>
       <use style="stroke:#000000;stroke-width:0.8;" x="595.679679" xlink:href="#m5a577cf404" y="543.3984"/>
      </g>
     </g>
     <g id="text_15">
      <!-- 2.90 -->
      <g transform="translate(584.546867 557.996838)scale(0.1 -0.1)">
       <use xlink:href="#DejaVuSans-32"/>
       <use x="63.623047" xlink:href="#DejaVuSans-2e"/>
       <use x="95.410156" xlink:href="#DejaVuSans-39"/>
       <use x="159.033203" xlink:href="#DejaVuSans-30"/>
      </g>
     </g>
    </g>
    <g id="xtick_11">
     <g id="line2d_18">
      <g>
       <use style="stroke:#000000;stroke-width:0.8;" x="638.307639" xlink:href="#m5a577cf404" y="543.3984"/>
      </g>
     </g>
     <g id="text_16">
      <!-- 2.95 -->
      <g transform="translate(627.174827 557.996838)scale(0.1 -0.1)">
       <use xlink:href="#DejaVuSans-32"/>
       <use x="63.623047" xlink:href="#DejaVuSans-2e"/>
       <use x="95.410156" xlink:href="#DejaVuSans-39"/>
       <use x="159.033203" xlink:href="#DejaVuSans-35"/>
      </g>
     </g>
    </g>
    <g id="xtick_12">
     <g id="line2d_19">
      <g>
       <use style="stroke:#000000;stroke-width:0.8;" x="680.9356" xlink:href="#m5a577cf404" y="543.3984"/>
      </g>
     </g>
     <g id="text_17">
      <!-- 3.00 -->
      <g transform="translate(669.802787 557.996838)scale(0.1 -0.1)">
       <use xlink:href="#DejaVuSans-33"/>
       <use x="63.623047" xlink:href="#DejaVuSans-2e"/>
       <use x="95.410156" xlink:href="#DejaVuSans-30"/>
       <use x="159.033203" xlink:href="#DejaVuSans-30"/>
      </g>
     </g>
    </g>
   </g>
   <g id="matplotlib.axis_4">
    <g id="ytick_6">
     <g id="line2d_20">
      <g>
       <use style="stroke:#000000;stroke-width:0.8;" x="433.8" xlink:href="#m5a0fee74bb" y="519.746261"/>
      </g>
     </g>
     <g id="text_18">
      <!-- 0.92 -->
      <g transform="translate(404.534375 523.54548)scale(0.1 -0.1)">
       <use xlink:href="#DejaVuSans-30"/>
       <use x="63.623047" xlink:href="#DejaVuSans-2e"/>
       <use x="95.410156" xlink:href="#DejaVuSans-39"/>
       <use x="159.033203" xlink:href="#DejaVuSans-32"/>
      </g>
     </g>
    </g>
    <g id="ytick_7">
     <g id="line2d_21">
      <g>
       <use style="stroke:#000000;stroke-width:0.8;" x="433.8" xlink:href="#m5a0fee74bb" y="448.236712"/>
      </g>
     </g>
     <g id="text_19">
      <!-- 0.94 -->
      <defs>
       <path d="M 37.796875 64.3125 
L 12.890625 25.390625 
L 37.796875 25.390625 
z
M 35.203125 72.90625 
L 47.609375 72.90625 
L 47.609375 25.390625 
L 58.015625 25.390625 
L 58.015625 17.1875 
L 47.609375 17.1875 
L 47.609375 0 
L 37.796875 0 
L 37.796875 17.1875 
L 4.890625 17.1875 
L 4.890625 26.703125 
z
" id="DejaVuSans-34"/>
      </defs>
      <g transform="translate(404.534375 452.035931)scale(0.1 -0.1)">
       <use xlink:href="#DejaVuSans-30"/>
       <use x="63.623047" xlink:href="#DejaVuSans-2e"/>
       <use x="95.410156" xlink:href="#DejaVuSans-39"/>
       <use x="159.033203" xlink:href="#DejaVuSans-34"/>
      </g>
     </g>
    </g>
    <g id="ytick_8">
     <g id="line2d_22">
      <g>
       <use style="stroke:#000000;stroke-width:0.8;" x="433.8" xlink:href="#m5a0fee74bb" y="376.727164"/>
      </g>
     </g>
     <g id="text_20">
      <!-- 0.96 -->
      <defs>
       <path d="M 33.015625 40.375 
Q 26.375 40.375 22.484375 35.828125 
Q 18.609375 31.296875 18.609375 23.390625 
Q 18.609375 15.53125 22.484375 10.953125 
Q 26.375 6.390625 33.015625 6.390625 
Q 39.65625 6.390625 43.53125 10.953125 
Q 47.40625 15.53125 47.40625 23.390625 
Q 47.40625 31.296875 43.53125 35.828125 
Q 39.65625 40.375 33.015625 40.375 
z
M 52.59375 71.296875 
L 52.59375 62.3125 
Q 48.875 64.0625 45.09375 64.984375 
Q 41.3125 65.921875 37.59375 65.921875 
Q 27.828125 65.921875 22.671875 59.328125 
Q 17.53125 52.734375 16.796875 39.40625 
Q 19.671875 43.65625 24.015625 45.921875 
Q 28.375 48.1875 33.59375 48.1875 
Q 44.578125 48.1875 50.953125 41.515625 
Q 57.328125 34.859375 57.328125 23.390625 
Q 57.328125 12.15625 50.6875 5.359375 
Q 44.046875 -1.421875 33.015625 -1.421875 
Q 20.359375 -1.421875 13.671875 8.265625 
Q 6.984375 17.96875 6.984375 36.375 
Q 6.984375 53.65625 15.1875 63.9375 
Q 23.390625 74.21875 37.203125 74.21875 
Q 40.921875 74.21875 44.703125 73.484375 
Q 48.484375 72.75 52.59375 71.296875 
z
" id="DejaVuSans-36"/>
      </defs>
      <g transform="translate(404.534375 380.526383)scale(0.1 -0.1)">
       <use xlink:href="#DejaVuSans-30"/>
       <use x="63.623047" xlink:href="#DejaVuSans-2e"/>
       <use x="95.410156" xlink:href="#DejaVuSans-39"/>
       <use x="159.033203" xlink:href="#DejaVuSans-36"/>
      </g>
     </g>
    </g>
    <g id="ytick_9">
     <g id="line2d_23">
      <g>
       <use style="stroke:#000000;stroke-width:0.8;" x="433.8" xlink:href="#m5a0fee74bb" y="305.217616"/>
      </g>
     </g>
     <g id="text_21">
      <!-- 0.98 -->
      <g transform="translate(404.534375 309.016834)scale(0.1 -0.1)">
       <use xlink:href="#DejaVuSans-30"/>
       <use x="63.623047" xlink:href="#DejaVuSans-2e"/>
       <use x="95.410156" xlink:href="#DejaVuSans-39"/>
       <use x="159.033203" xlink:href="#DejaVuSans-38"/>
      </g>
     </g>
    </g>
    <g id="ytick_10">
     <g id="line2d_24">
      <g>
       <use style="stroke:#000000;stroke-width:0.8;" x="433.8" xlink:href="#m5a0fee74bb" y="233.708067"/>
      </g>
     </g>
     <g id="text_22">
      <!-- 1.00 -->
      <g transform="translate(404.534375 237.507286)scale(0.1 -0.1)">
       <use xlink:href="#DejaVuSans-31"/>
       <use x="63.623047" xlink:href="#DejaVuSans-2e"/>
       <use x="95.410156" xlink:href="#DejaVuSans-30"/>
       <use x="159.033203" xlink:href="#DejaVuSans-30"/>
      </g>
     </g>
    </g>
    <g id="ytick_11">
     <g id="line2d_25">
      <g>
       <use style="stroke:#000000;stroke-width:0.8;" x="433.8" xlink:href="#m5a0fee74bb" y="162.198519"/>
      </g>
     </g>
     <g id="text_23">
      <!-- 1.02 -->
      <g transform="translate(404.534375 165.997738)scale(0.1 -0.1)">
       <use xlink:href="#DejaVuSans-31"/>
       <use x="63.623047" xlink:href="#DejaVuSans-2e"/>
       <use x="95.410156" xlink:href="#DejaVuSans-30"/>
       <use x="159.033203" xlink:href="#DejaVuSans-32"/>
      </g>
     </g>
    </g>
    <g id="ytick_12">
     <g id="line2d_26">
      <g>
       <use style="stroke:#000000;stroke-width:0.8;" x="433.8" xlink:href="#m5a0fee74bb" y="90.68897"/>
      </g>
     </g>
     <g id="text_24">
      <!-- 1.04 -->
      <g transform="translate(404.534375 94.488189)scale(0.1 -0.1)">
       <use xlink:href="#DejaVuSans-31"/>
       <use x="63.623047" xlink:href="#DejaVuSans-2e"/>
       <use x="95.410156" xlink:href="#DejaVuSans-30"/>
       <use x="159.033203" xlink:href="#DejaVuSans-34"/>
      </g>
     </g>
    </g>
   </g>
   <g id="line2d_27">
    <path clip-path="url(#p2b2175e084)" d="M 446.481818 326.020003 
L 448.613216 229.04596 
L 450.744614 230.432821 
L 452.876012 232.971994 
L 455.00741 213.040568 
L 457.138808 224.872456 
L 459.270206 183.992396 
L 461.401604 361.403689 
L 463.533002 187.249541 
L 465.6644 205.846252 
L 467.795798 233.347272 
L 469.927196 253.908505 
L 472.058594 295.581473 
L 474.189992 94.6368 
L 476.32139 237.740698 
L 478.452788 203.618335 
L 480.584186 309.223201 
L 482.715584 212.100655 
L 484.846982 194.303795 
L 486.97838 246.335701 
L 489.109778 183.62096 
L 491.241176 157.233194 
L 493.372574 258.874643 
L 495.503972 245.360504 
L 497.635371 236.60407 
L 499.766769 295.763316 
L 501.898167 339.006578 
L 504.029565 245.126611 
L 506.160963 163.37204 
L 508.292361 144.728167 
L 510.423759 292.33439 
L 512.555157 239.356531 
L 514.686555 179.289654 
L 516.817953 326.069026 
L 518.949351 254.709403 
L 521.080749 96.175011 
L 523.212147 312.080716 
L 525.343545 328.231763 
L 527.474943 301.901123 
L 529.606341 237.374848 
L 531.737739 185.810515 
L 533.869137 270.135636 
L 536.000535 307.724504 
L 538.131933 310.309581 
L 540.263331 423.716412 
L 542.394729 323.019634 
L 544.526127 360.793214 
L 546.657525 284.467043 
L 548.788923 336.26023 
L 550.920321 332.45327 
L 553.051719 242.497719 
L 555.183117 278.81374 
L 557.314515 366.801549 
L 559.445913 313.872315 
L 561.577311 352.223839 
L 563.708709 300.885076 
L 565.840107 324.031042 
L 567.971505 367.707114 
L 570.102903 522.0288 
L 572.234301 510.393104 
L 574.365699 357.635989 
L 576.497097 323.520325 
L 578.628495 301.942369 
L 580.759893 305.139548 
L 582.891291 327.313003 
L 585.022689 324.390466 
L 587.154087 306.668902 
L 589.285485 263.691923 
L 591.416883 263.07055 
L 593.548281 282.498559 
L 595.679679 293.862089 
L 597.811077 254.709403 
L 599.942475 323.957385 
L 602.073873 315.296143 
L 604.205271 248.145274 
L 606.336669 206.388679 
L 608.468067 120.120715 
L 610.599465 296.163604 
L 612.730863 225.260395 
L 614.862261 288.091133 
L 616.993659 192.716398 
L 619.125057 195.529803 
L 621.256455 206.690393 
L 623.387853 164.997825 
L 625.519251 354.679763 
L 627.650649 259.556901 
L 629.782047 342.268511 
L 631.913445 211.016138 
L 634.044843 309.871093 
L 636.176241 275.801355 
L 638.307639 327.74507 
L 640.439037 254.879477 
L 642.570435 150.55743 
L 644.701833 239.891875 
L 646.833231 239.079133 
L 648.964629 300.049534 
L 651.096028 331.044862 
L 653.227426 287.957261 
L 655.358824 337.013036 
L 657.490222 249.000249 
L 659.62162 262.596585 
L 661.753018 366.240198 
L 663.884416 393.543146 
L 666.015814 275.920016 
L 668.147212 205.083741 
L 670.27861 257.291899 
L 672.410008 164.718151 
L 674.541406 291.505406 
L 676.672804 189.201825 
L 678.804202 336.587168 
L 680.9356 309.605721 
L 683.066998 281.824353 
L 685.198396 227.066314 
L 687.329794 175.253396 
L 689.461192 232.814086 
L 691.59259 250.038479 
L 693.723988 318.711327 
L 695.855386 307.901001 
L 697.986784 219.431947 
L 700.118182 307.298125 
" style="fill:none;stroke:#0000ff;stroke-linecap:square;stroke-width:1.5;"/>
   </g>
   <g id="patch_8">
    <path d="M 433.8 543.3984 
L 433.8 73.2672 
" style="fill:none;stroke:#000000;stroke-linecap:square;stroke-linejoin:miter;stroke-width:0.8;"/>
   </g>
   <g id="patch_9">
    <path d="M 712.8 543.3984 
L 712.8 73.2672 
" style="fill:none;stroke:#000000;stroke-linecap:square;stroke-linejoin:miter;stroke-width:0.8;"/>
   </g>
   <g id="patch_10">
    <path d="M 433.8 543.3984 
L 712.8 543.3984 
" style="fill:none;stroke:#000000;stroke-linecap:square;stroke-linejoin:miter;stroke-width:0.8;"/>
   </g>
   <g id="patch_11">
    <path d="M 433.8 73.2672 
L 712.8 73.2672 
" style="fill:none;stroke:#000000;stroke-linecap:square;stroke-linejoin:miter;stroke-width:0.8;"/>
   </g>
  </g>
 </g>
 <defs>
  <clipPath id="pfaff2c372a">
   <rect height="470.1312" width="279" x="99" y="73.2672"/>
  </clipPath>
  <clipPath id="p2b2175e084">
   <rect height="470.1312" width="279" x="433.8" y="73.2672"/>
  </clipPath>
 </defs>
</svg>
