<?xml version="1.0" encoding="utf-8" standalone="no"?>
<!DOCTYPE svg PUBLIC "-//W3C//DTD SVG 1.1//EN"
  "http://www.w3.org/Graphics/SVG/1.1/DTD/svg11.dtd">
<!-- Created with matplotlib (http://matplotlib.org/) -->
<svg height="610.56pt" version="1.1" viewBox="0 0 792 610.56" width="792pt" xmlns="http://www.w3.org/2000/svg" xmlns:xlink="http://www.w3.org/1999/xlink">
 <defs>
  <style type="text/css">
*{stroke-linecap:butt;stroke-linejoin:round;}
  </style>
 </defs>
 <g id="figure_1">
  <g id="patch_1">
   <path d="M 0 610.56 
L 792 610.56 
L 792 0 
L 0 0 
z
" style="fill:#ffffff;"/>
  </g>
  <g id="axes_1">
   <g id="patch_2">
    <path d="M 99 543.3984 
L 378 543.3984 
L 378 73.2672 
L 99 73.2672 
z
" style="fill:#ffffff;"/>
   </g>
   <g id="matplotlib.axis_1">
    <g id="xtick_1">
     <g id="line2d_1">
      <defs>
       <path d="M 0 0 
L 0 3.5 
" id="mcb9bb1e1bd" style="stroke:#000000;stroke-width:0.8;"/>
      </defs>
      <g>
       <use style="stroke:#000000;stroke-width:0.8;" x="132.906618" xlink:href="#mcb9bb1e1bd" y="543.3984"/>
      </g>
     </g>
     <g id="text_1">
      <!-- 2.75 -->
      <defs>
       <path d="M 19.1875 8.296875 
L 53.609375 8.296875 
L 53.609375 0 
L 7.328125 0 
L 7.328125 8.296875 
Q 12.9375 14.109375 22.625 23.890625 
Q 32.328125 33.6875 34.8125 36.53125 
Q 39.546875 41.84375 41.421875 45.53125 
Q 43.3125 49.21875 43.3125 52.78125 
Q 43.3125 58.59375 39.234375 62.25 
Q 35.15625 65.921875 28.609375 65.921875 
Q 23.96875 65.921875 18.8125 64.3125 
Q 13.671875 62.703125 7.8125 59.421875 
L 7.8125 69.390625 
Q 13.765625 71.78125 18.9375 73 
Q 24.125 74.21875 28.421875 74.21875 
Q 39.75 74.21875 46.484375 68.546875 
Q 53.21875 62.890625 53.21875 53.421875 
Q 53.21875 48.921875 51.53125 44.890625 
Q 49.859375 40.875 45.40625 35.40625 
Q 44.1875 33.984375 37.640625 27.21875 
Q 31.109375 20.453125 19.1875 8.296875 
z
" id="DejaVuSans-32"/>
       <path d="M 10.6875 12.40625 
L 21 12.40625 
L 21 0 
L 10.6875 0 
z
" id="DejaVuSans-2e"/>
       <path d="M 8.203125 72.90625 
L 55.078125 72.90625 
L 55.078125 68.703125 
L 28.609375 0 
L 18.3125 0 
L 43.21875 64.59375 
L 8.203125 64.59375 
z
" id="DejaVuSans-37"/>
       <path d="M 10.796875 72.90625 
L 49.515625 72.90625 
L 49.515625 64.59375 
L 19.828125 64.59375 
L 19.828125 46.734375 
Q 21.96875 47.46875 24.109375 47.828125 
Q 26.265625 48.1875 28.421875 48.1875 
Q 40.625 48.1875 47.75 41.5 
Q 54.890625 34.8125 54.890625 23.390625 
Q 54.890625 11.625 47.5625 5.09375 
Q 40.234375 -1.421875 26.90625 -1.421875 
Q 22.3125 -1.421875 17.546875 -0.640625 
Q 12.796875 0.140625 7.71875 1.703125 
L 7.71875 11.625 
Q 12.109375 9.234375 16.796875 8.0625 
Q 21.484375 6.890625 26.703125 6.890625 
Q 35.15625 6.890625 40.078125 11.328125 
Q 45.015625 15.765625 45.015625 23.390625 
Q 45.015625 31 40.078125 35.4375 
Q 35.15625 39.890625 26.703125 39.890625 
Q 22.75 39.890625 18.8125 39.015625 
Q 14.890625 38.140625 10.796875 36.28125 
z
" id="DejaVuSans-35"/>
      </defs>
      <g transform="translate(121.773806 557.996838)scale(0.1 -0.1)">
       <use xlink:href="#DejaVuSans-32"/>
       <use x="63.623047" xlink:href="#DejaVuSans-2e"/>
       <use x="95.410156" xlink:href="#DejaVuSans-37"/>
       <use x="159.033203" xlink:href="#DejaVuSans-35"/>
      </g>
     </g>
    </g>
    <g id="xtick_2">
     <g id="line2d_2">
      <g>
       <use style="stroke:#000000;stroke-width:0.8;" x="175.356219" xlink:href="#mcb9bb1e1bd" y="543.3984"/>
      </g>
     </g>
     <g id="text_2">
      <!-- 2.80 -->
      <defs>
       <path d="M 31.78125 34.625 
Q 24.75 34.625 20.71875 30.859375 
Q 16.703125 27.09375 16.703125 20.515625 
Q 16.703125 13.921875 20.71875 10.15625 
Q 24.75 6.390625 31.78125 6.390625 
Q 38.8125 6.390625 42.859375 10.171875 
Q 46.921875 13.96875 46.921875 20.515625 
Q 46.921875 27.09375 42.890625 30.859375 
Q 38.875 34.625 31.78125 34.625 
z
M 21.921875 38.8125 
Q 15.578125 40.375 12.03125 44.71875 
Q 8.5 49.078125 8.5 55.328125 
Q 8.5 64.0625 14.71875 69.140625 
Q 20.953125 74.21875 31.78125 74.21875 
Q 42.671875 74.21875 48.875 69.140625 
Q 55.078125 64.0625 55.078125 55.328125 
Q 55.078125 49.078125 51.53125 44.71875 
Q 48 40.375 41.703125 38.8125 
Q 48.828125 37.15625 52.796875 32.3125 
Q 56.78125 27.484375 56.78125 20.515625 
Q 56.78125 9.90625 50.3125 4.234375 
Q 43.84375 -1.421875 31.78125 -1.421875 
Q 19.734375 -1.421875 13.25 4.234375 
Q 6.78125 9.90625 6.78125 20.515625 
Q 6.78125 27.484375 10.78125 32.3125 
Q 14.796875 37.15625 21.921875 38.8125 
z
M 18.3125 54.390625 
Q 18.3125 48.734375 21.84375 45.5625 
Q 25.390625 42.390625 31.78125 42.390625 
Q 38.140625 42.390625 41.71875 45.5625 
Q 45.3125 48.734375 45.3125 54.390625 
Q 45.3125 60.0625 41.71875 63.234375 
Q 38.140625 66.40625 31.78125 66.40625 
Q 25.390625 66.40625 21.84375 63.234375 
Q 18.3125 60.0625 18.3125 54.390625 
z
" id="DejaVuSans-38"/>
       <path d="M 31.78125 66.40625 
Q 24.171875 66.40625 20.328125 58.90625 
Q 16.5 51.421875 16.5 36.375 
Q 16.5 21.390625 20.328125 13.890625 
Q 24.171875 6.390625 31.78125 6.390625 
Q 39.453125 6.390625 43.28125 13.890625 
Q 47.125 21.390625 47.125 36.375 
Q 47.125 51.421875 43.28125 58.90625 
Q 39.453125 66.40625 31.78125 66.40625 
z
M 31.78125 74.21875 
Q 44.046875 74.21875 50.515625 64.515625 
Q 56.984375 54.828125 56.984375 36.375 
Q 56.984375 17.96875 50.515625 8.265625 
Q 44.046875 -1.421875 31.78125 -1.421875 
Q 19.53125 -1.421875 13.0625 8.265625 
Q 6.59375 17.96875 6.59375 36.375 
Q 6.59375 54.828125 13.0625 64.515625 
Q 19.53125 74.21875 31.78125 74.21875 
z
" id="DejaVuSans-30"/>
      </defs>
      <g transform="translate(164.223407 557.996838)scale(0.1 -0.1)">
       <use xlink:href="#DejaVuSans-32"/>
       <use x="63.623047" xlink:href="#DejaVuSans-2e"/>
       <use x="95.410156" xlink:href="#DejaVuSans-38"/>
       <use x="159.033203" xlink:href="#DejaVuSans-30"/>
      </g>
     </g>
    </g>
    <g id="xtick_3">
     <g id="line2d_3">
      <g>
       <use style="stroke:#000000;stroke-width:0.8;" x="217.80582" xlink:href="#mcb9bb1e1bd" y="543.3984"/>
      </g>
     </g>
     <g id="text_3">
      <!-- 2.85 -->
      <g transform="translate(206.673007 557.996838)scale(0.1 -0.1)">
       <use xlink:href="#DejaVuSans-32"/>
       <use x="63.623047" xlink:href="#DejaVuSans-2e"/>
       <use x="95.410156" xlink:href="#DejaVuSans-38"/>
       <use x="159.033203" xlink:href="#DejaVuSans-35"/>
      </g>
     </g>
    </g>
    <g id="xtick_4">
     <g id="line2d_4">
      <g>
       <use style="stroke:#000000;stroke-width:0.8;" x="260.25542" xlink:href="#mcb9bb1e1bd" y="543.3984"/>
      </g>
     </g>
     <g id="text_4">
      <!-- 2.90 -->
      <defs>
       <path d="M 10.984375 1.515625 
L 10.984375 10.5 
Q 14.703125 8.734375 18.5 7.8125 
Q 22.3125 6.890625 25.984375 6.890625 
Q 35.75 6.890625 40.890625 13.453125 
Q 46.046875 20.015625 46.78125 33.40625 
Q 43.953125 29.203125 39.59375 26.953125 
Q 35.25 24.703125 29.984375 24.703125 
Q 19.046875 24.703125 12.671875 31.3125 
Q 6.296875 37.9375 6.296875 49.421875 
Q 6.296875 60.640625 12.9375 67.421875 
Q 19.578125 74.21875 30.609375 74.21875 
Q 43.265625 74.21875 49.921875 64.515625 
Q 56.59375 54.828125 56.59375 36.375 
Q 56.59375 19.140625 48.40625 8.859375 
Q 40.234375 -1.421875 26.421875 -1.421875 
Q 22.703125 -1.421875 18.890625 -0.6875 
Q 15.09375 0.046875 10.984375 1.515625 
z
M 30.609375 32.421875 
Q 37.25 32.421875 41.125 36.953125 
Q 45.015625 41.5 45.015625 49.421875 
Q 45.015625 57.28125 41.125 61.84375 
Q 37.25 66.40625 30.609375 66.40625 
Q 23.96875 66.40625 20.09375 61.84375 
Q 16.21875 57.28125 16.21875 49.421875 
Q 16.21875 41.5 20.09375 36.953125 
Q 23.96875 32.421875 30.609375 32.421875 
z
" id="DejaVuSans-39"/>
      </defs>
      <g transform="translate(249.122608 557.996838)scale(0.1 -0.1)">
       <use xlink:href="#DejaVuSans-32"/>
       <use x="63.623047" xlink:href="#DejaVuSans-2e"/>
       <use x="95.410156" xlink:href="#DejaVuSans-39"/>
       <use x="159.033203" xlink:href="#DejaVuSans-30"/>
      </g>
     </g>
    </g>
    <g id="xtick_5">
     <g id="line2d_5">
      <g>
       <use style="stroke:#000000;stroke-width:0.8;" x="302.705021" xlink:href="#mcb9bb1e1bd" y="543.3984"/>
      </g>
     </g>
     <g id="text_5">
      <!-- 2.95 -->
      <g transform="translate(291.572208 557.996838)scale(0.1 -0.1)">
       <use xlink:href="#DejaVuSans-32"/>
       <use x="63.623047" xlink:href="#DejaVuSans-2e"/>
       <use x="95.410156" xlink:href="#DejaVuSans-39"/>
       <use x="159.033203" xlink:href="#DejaVuSans-35"/>
      </g>
     </g>
    </g>
    <g id="xtick_6">
     <g id="line2d_6">
      <g>
       <use style="stroke:#000000;stroke-width:0.8;" x="345.154622" xlink:href="#mcb9bb1e1bd" y="543.3984"/>
      </g>
     </g>
     <g id="text_6">
      <!-- 3.00 -->
      <defs>
       <path d="M 40.578125 39.3125 
Q 47.65625 37.796875 51.625 33 
Q 55.609375 28.21875 55.609375 21.1875 
Q 55.609375 10.40625 48.1875 4.484375 
Q 40.765625 -1.421875 27.09375 -1.421875 
Q 22.515625 -1.421875 17.65625 -0.515625 
Q 12.796875 0.390625 7.625 2.203125 
L 7.625 11.71875 
Q 11.71875 9.328125 16.59375 8.109375 
Q 21.484375 6.890625 26.8125 6.890625 
Q 36.078125 6.890625 40.9375 10.546875 
Q 45.796875 14.203125 45.796875 21.1875 
Q 45.796875 27.640625 41.28125 31.265625 
Q 36.765625 34.90625 28.71875 34.90625 
L 20.21875 34.90625 
L 20.21875 43.015625 
L 29.109375 43.015625 
Q 36.375 43.015625 40.234375 45.921875 
Q 44.09375 48.828125 44.09375 54.296875 
Q 44.09375 59.90625 40.109375 62.90625 
Q 36.140625 65.921875 28.71875 65.921875 
Q 24.65625 65.921875 20.015625 65.03125 
Q 15.375 64.15625 9.8125 62.3125 
L 9.8125 71.09375 
Q 15.4375 72.65625 20.34375 73.4375 
Q 25.25 74.21875 29.59375 74.21875 
Q 40.828125 74.21875 47.359375 69.109375 
Q 53.90625 64.015625 53.90625 55.328125 
Q 53.90625 49.265625 50.4375 45.09375 
Q 46.96875 40.921875 40.578125 39.3125 
z
" id="DejaVuSans-33"/>
      </defs>
      <g transform="translate(334.021809 557.996838)scale(0.1 -0.1)">
       <use xlink:href="#DejaVuSans-33"/>
       <use x="63.623047" xlink:href="#DejaVuSans-2e"/>
       <use x="95.410156" xlink:href="#DejaVuSans-30"/>
       <use x="159.033203" xlink:href="#DejaVuSans-30"/>
      </g>
     </g>
    </g>
   </g>
   <g id="matplotlib.axis_2">
    <g id="ytick_1">
     <g id="line2d_7">
      <defs>
       <path d="M 0 0 
L -3.5 0 
" id="m77293bf857" style="stroke:#000000;stroke-width:0.8;"/>
      </defs>
      <g>
       <use style="stroke:#000000;stroke-width:0.8;" x="99" xlink:href="#m77293bf857" y="487.907793"/>
      </g>
     </g>
     <g id="text_7">
      <!-- 19000 -->
      <defs>
       <path d="M 12.40625 8.296875 
L 28.515625 8.296875 
L 28.515625 63.921875 
L 10.984375 60.40625 
L 10.984375 69.390625 
L 28.421875 72.90625 
L 38.28125 72.90625 
L 38.28125 8.296875 
L 54.390625 8.296875 
L 54.390625 0 
L 12.40625 0 
z
" id="DejaVuSans-31"/>
      </defs>
      <g transform="translate(60.1875 491.707011)scale(0.1 -0.1)">
       <use xlink:href="#DejaVuSans-31"/>
       <use x="63.623047" xlink:href="#DejaVuSans-39"/>
       <use x="127.246094" xlink:href="#DejaVuSans-30"/>
       <use x="190.869141" xlink:href="#DejaVuSans-30"/>
       <use x="254.492188" xlink:href="#DejaVuSans-30"/>
      </g>
     </g>
    </g>
    <g id="ytick_2">
     <g id="line2d_8">
      <g>
       <use style="stroke:#000000;stroke-width:0.8;" x="99" xlink:href="#m77293bf857" y="399.967052"/>
      </g>
     </g>
     <g id="text_8">
      <!-- 19500 -->
      <g transform="translate(60.1875 403.766271)scale(0.1 -0.1)">
       <use xlink:href="#DejaVuSans-31"/>
       <use x="63.623047" xlink:href="#DejaVuSans-39"/>
       <use x="127.246094" xlink:href="#DejaVuSans-35"/>
       <use x="190.869141" xlink:href="#DejaVuSans-30"/>
       <use x="254.492188" xlink:href="#DejaVuSans-30"/>
      </g>
     </g>
    </g>
    <g id="ytick_3">
     <g id="line2d_9">
      <g>
       <use style="stroke:#000000;stroke-width:0.8;" x="99" xlink:href="#m77293bf857" y="312.026311"/>
      </g>
     </g>
     <g id="text_9">
      <!-- 20000 -->
      <g transform="translate(60.1875 315.82553)scale(0.1 -0.1)">
       <use xlink:href="#DejaVuSans-32"/>
       <use x="63.623047" xlink:href="#DejaVuSans-30"/>
       <use x="127.246094" xlink:href="#DejaVuSans-30"/>
       <use x="190.869141" xlink:href="#DejaVuSans-30"/>
       <use x="254.492188" xlink:href="#DejaVuSans-30"/>
      </g>
     </g>
    </g>
    <g id="ytick_4">
     <g id="line2d_10">
      <g>
       <use style="stroke:#000000;stroke-width:0.8;" x="99" xlink:href="#m77293bf857" y="224.08557"/>
      </g>
     </g>
     <g id="text_10">
      <!-- 20500 -->
      <g transform="translate(60.1875 227.884789)scale(0.1 -0.1)">
       <use xlink:href="#DejaVuSans-32"/>
       <use x="63.623047" xlink:href="#DejaVuSans-30"/>
       <use x="127.246094" xlink:href="#DejaVuSans-35"/>
       <use x="190.869141" xlink:href="#DejaVuSans-30"/>
       <use x="254.492188" xlink:href="#DejaVuSans-30"/>
      </g>
     </g>
    </g>
    <g id="ytick_5">
     <g id="line2d_11">
      <g>
       <use style="stroke:#000000;stroke-width:0.8;" x="99" xlink:href="#m77293bf857" y="136.14483"/>
      </g>
     </g>
     <g id="text_11">
      <!-- 21000 -->
      <g transform="translate(60.1875 139.944048)scale(0.1 -0.1)">
       <use xlink:href="#DejaVuSans-32"/>
       <use x="63.623047" xlink:href="#DejaVuSans-31"/>
       <use x="127.246094" xlink:href="#DejaVuSans-30"/>
       <use x="190.869141" xlink:href="#DejaVuSans-30"/>
       <use x="254.492188" xlink:href="#DejaVuSans-30"/>
      </g>
     </g>
    </g>
   </g>
   <g id="line2d_12">
    <path clip-path="url(#pa9b4be3e65)" d="M 111.681818 216.87443 
L 112.743058 262.603615 
L 113.804298 268.231822 
L 114.865538 294.262281 
L 115.926778 268.231822 
L 116.988018 201.396859 
L 118.049258 224.613215 
L 119.110498 206.849185 
L 120.171738 204.210963 
L 121.232978 196.648059 
L 122.294218 152.677689 
L 123.355458 195.944533 
L 124.416698 187.853985 
L 125.477938 108.531437 
L 126.539178 170.265837 
L 127.600418 94.6368 
L 128.661658 196.472178 
L 129.722898 196.296296 
L 130.784138 148.280652 
L 131.845378 234.462578 
L 132.906618 242.729007 
L 133.967859 323.458607 
L 135.029099 270.166519 
L 136.090339 332.956207 
L 137.151579 362.504296 
L 138.212819 384.137719 
L 139.274059 342.102044 
L 140.335299 337.880889 
L 141.396539 291.624059 
L 142.457779 356.700207 
L 143.519019 391.524741 
L 144.580259 378.33363 
L 145.641499 421.952237 
L 146.702739 397.856474 
L 147.763979 444.81683 
L 148.825219 359.514311 
L 149.886459 385.54477 
L 150.947699 366.373689 
L 152.008939 395.394133 
L 153.070179 402.429393 
L 154.131419 380.092444 
L 155.192659 375.695407 
L 156.253899 305.342815 
L 157.315139 401.549985 
L 158.376379 332.780326 
L 159.437619 276.850015 
L 160.498859 375.519526 
L 161.560099 418.610489 
L 162.621339 371.826015 
L 163.682579 386.072415 
L 164.743819 316.950993 
L 165.805059 384.489481 
L 166.866299 389.590044 
L 167.927539 420.369304 
L 170.050019 348.257896 
L 171.111259 323.81037 
L 172.172499 327.328 
L 173.233739 315.543941 
L 174.294979 323.634489 
L 175.356219 416.148148 
L 176.417459 422.655763 
L 177.478699 433.384533 
L 178.539939 440.595674 
L 179.601179 475.596089 
L 180.662419 476.475496 
L 181.723659 442.882133 
L 182.784899 433.208652 
L 183.846139 375.519526 
L 184.907379 328.55917 
L 185.968619 340.34323 
L 187.029859 231.296711 
L 188.091099 333.835615 
L 189.152339 351.247881 
L 190.213579 315.192178 
L 191.274819 300.945778 
L 192.336059 426.876919 
L 193.397299 410.168178 
L 194.458539 473.837274 
L 195.519779 357.227852 
L 196.581019 369.363674 
L 197.642259 290.920533 
L 198.703499 238.859615 
L 199.764739 245.543111 
L 200.825979 262.779496 
L 201.887219 283.35763 
L 202.948459 352.830815 
L 204.0097 334.539141 
L 206.13218 379.916563 
L 207.19342 395.570015 
L 209.3159 409.640533 
L 210.37714 390.997096 
L 211.43838 391.348859 
L 212.49962 358.283141 
L 213.56086 364.966637 
L 214.6221 322.227437 
L 215.68334 380.268326 
L 216.74458 362.504296 
L 217.80582 364.438993 
L 218.86706 339.287941 
L 219.9283 286.523496 
L 220.98954 258.382459 
L 222.05078 320.468622 
L 223.11202 262.779496 
L 224.17326 282.478222 
L 225.2345 293.382874 
L 226.29574 258.910104 
L 227.35698 282.126459 
L 228.41822 315.543941 
L 229.47946 293.910519 
L 230.5407 256.096 
L 231.60194 294.614044 
L 232.66318 191.723378 
L 233.72442 240.090785 
L 234.78566 164.461748 
L 235.8469 257.503052 
L 236.90814 249.060741 
L 237.96938 267.000652 
L 239.03062 250.995437 
L 240.09186 262.779496 
L 241.1531 279.312356 
L 242.21434 293.734637 
L 243.27558 251.874844 
L 244.33682 306.398104 
L 245.39806 250.291911 
L 246.4593 164.285867 
L 247.52054 296.900504 
L 248.58178 276.850015 
L 249.64302 259.261867 
L 250.70426 296.021096 
L 252.82674 263.483022 
L 253.88798 260.141274 
L 254.94922 325.569185 
L 256.01046 324.338015 
L 257.0717 307.805156 
L 258.13294 336.8256 
L 259.19418 378.685393 
L 260.25542 339.287941 
L 261.31666 336.8256 
L 262.3779 387.655348 
L 263.43914 409.640533 
L 264.50038 386.248296 
L 265.56162 419.841659 
L 266.62286 403.836444 
L 267.6841 431.8016 
L 268.74534 350.368474 
L 269.80658 378.861274 
L 270.86782 314.840415 
L 271.92906 310.619259 
L 272.9903 338.584415 
L 274.051541 339.815585 
L 275.112781 407.354074 
L 276.174021 429.339259 
L 277.235261 436.022756 
L 278.296501 452.02797 
L 279.357741 418.78637 
L 280.418981 428.987496 
L 281.480221 364.263111 
L 282.541461 412.8064 
L 283.602701 385.193007 
L 284.663941 252.050726 
L 285.725181 385.896533 
L 286.786421 383.08243 
L 287.847661 358.810785 
L 288.908901 406.474667 
L 289.970141 431.273956 
L 291.031381 383.434193 
L 292.092621 406.122904 
L 293.153861 339.639704 
L 294.215101 313.433363 
L 295.276341 283.533511 
L 296.337581 335.770311 
L 297.398821 371.474252 
L 298.460061 367.253096 
L 299.521301 449.037985 
L 300.582541 465.922607 
L 301.643781 477.706667 
L 302.705021 472.430222 
L 303.766261 419.138133 
L 304.827501 372.529541 
L 305.888741 344.564385 
L 306.949981 347.026726 
L 308.011221 395.570015 
L 309.072461 406.82643 
L 310.133701 432.329244 
L 311.194941 401.022341 
L 312.256181 504.088889 
L 313.317421 428.987496 
L 314.378661 388.358874 
L 315.439901 383.610074 
L 316.501141 380.092444 
L 317.562381 314.31277 
L 318.623621 338.408533 
L 319.684861 367.604859 
L 320.746101 350.896119 
L 321.807341 504.440652 
L 323.929821 397.680593 
L 324.991061 374.816 
L 326.052301 330.669748 
L 327.113541 383.785956 
L 328.174781 371.826015 
L 329.236021 385.368889 
L 330.297261 420.369304 
L 331.358501 427.580444 
L 332.419741 409.992296 
L 333.480981 444.992711 
L 334.542221 413.861689 
L 335.603461 422.655763 
L 336.664701 376.574815 
L 337.725941 353.534341 
L 338.787181 345.443793 
L 339.848421 347.026726 
L 340.909661 384.489481 
L 341.970901 430.042785 
L 343.032141 508.310044 
L 344.093382 450.972681 
L 345.154622 514.465896 
L 346.215862 453.962667 
L 347.277102 485.621333 
L 348.338342 473.30963 
L 349.399582 417.379319 
L 350.460822 391.876504 
L 351.522062 437.429807 
L 352.583302 418.962252 
L 353.644542 387.127704 
L 354.705782 408.585244 
L 355.767022 388.182993 
L 356.828262 430.042785 
L 357.889502 368.308385 
L 358.950742 405.947022 
L 360.011982 401.725867 
L 361.073222 421.07283 
L 362.134462 426.876919 
L 363.195702 404.53997 
L 364.256942 398.735881 
L 365.318182 403.660563 
L 365.318182 403.660563 
" style="fill:none;stroke:#ff0000;stroke-linecap:square;stroke-width:1.5;"/>
   </g>
   <g id="line2d_13">
    <path clip-path="url(#pa9b4be3e65)" d="M 111.681818 245.543111 
L 112.743058 299.538726 
L 113.804298 224.789096 
L 114.865538 266.297126 
L 115.926778 201.220978 
L 118.049258 224.613215 
L 119.110498 247.301926 
L 120.171738 204.914489 
L 121.232978 200.693333 
L 122.294218 160.592356 
L 123.355458 246.246637 
L 124.416698 131.923674 
L 125.477938 178.180504 
L 126.539178 143.531852 
L 127.600418 192.075141 
L 128.661658 278.081185 
L 129.722898 275.0912 
L 130.784138 219.160889 
L 131.845378 178.532267 
L 132.906618 296.021096 
L 133.967859 274.211793 
L 135.029099 269.11123 
L 136.090339 299.890489 
L 137.151579 345.619674 
L 138.212819 405.595259 
L 139.274059 372.001896 
L 140.335299 359.33843 
L 141.396539 314.31277 
L 142.457779 348.609659 
L 143.519019 366.725452 
L 144.580259 431.625719 
L 145.641499 376.750696 
L 146.702739 429.163378 
L 147.763979 367.604859 
L 148.825219 344.212622 
L 149.886459 340.34323 
L 150.947699 373.936593 
L 152.008939 319.237452 
L 153.070179 422.128119 
L 154.131419 373.233067 
L 155.192659 374.640119 
L 156.253899 377.102459 
L 157.315139 394.338844 
L 158.376379 314.31277 
L 159.437619 369.363674 
L 160.498859 346.674963 
L 161.560099 347.730252 
L 162.621339 314.664533 
L 163.682579 337.705007 
L 165.805059 410.695822 
L 166.866299 434.263941 
L 167.927539 371.650133 
L 168.988779 362.504296 
L 170.050019 327.152119 
L 171.111259 299.186963 
L 172.172499 316.950993 
L 173.233739 402.07763 
L 174.294979 365.670163 
L 175.356219 412.278756 
L 176.417459 437.957452 
L 177.478699 472.957867 
L 178.539939 498.460681 
L 179.601179 445.520356 
L 180.662419 473.133748 
L 181.723659 440.419793 
L 182.784899 421.424593 
L 183.846139 371.474252 
L 184.907379 379.213037 
L 185.968619 395.218252 
L 187.029859 337.353244 
L 188.091099 362.504296 
L 189.152339 347.202607 
L 190.213579 398.208237 
L 191.274819 407.881719 
L 192.336059 387.303585 
L 193.397299 455.897363 
L 194.458539 484.741926 
L 195.519779 394.690607 
L 196.581019 382.554785 
L 197.642259 353.182578 
L 198.703499 303.935763 
L 199.764739 268.583585 
L 200.825979 336.8256 
L 201.887219 328.55917 
L 202.948459 356.876089 
L 204.0097 353.710222 
L 205.07094 447.982696 
L 206.13218 407.881719 
L 207.19342 430.746311 
L 208.25466 409.112889 
L 209.3159 484.390163 
L 210.37714 430.218667 
L 211.43838 465.922607 
L 212.49962 440.419793 
L 213.56086 389.590044 
L 214.6221 425.997511 
L 215.68334 434.967467 
L 216.74458 412.630519 
L 217.80582 354.58963 
L 218.86706 321.699793 
L 219.9283 300.418133 
L 220.98954 315.543941 
L 222.05078 307.981037 
L 223.11202 250.11603 
L 224.17326 325.217422 
L 225.2345 272.628859 
L 226.29574 273.332385 
L 227.35698 336.649719 
L 228.41822 263.483022 
L 229.47946 212.829156 
L 230.5407 288.985837 
L 231.60194 310.795141 
L 232.66318 273.86003 
L 233.72442 250.819556 
L 234.78566 279.664119 
L 235.8469 294.614044 
L 236.90814 291.096415 
L 237.96938 301.473422 
L 239.03062 336.8256 
L 240.09186 313.257481 
L 241.1531 352.127289 
L 242.21434 328.207407 
L 244.33682 336.649719 
L 245.39806 319.237452 
L 246.4593 291.096415 
L 247.52054 354.061985 
L 248.58178 399.263526 
L 249.64302 291.272296 
L 250.70426 383.08243 
L 251.7655 400.846459 
L 252.82674 343.333215 
L 253.88798 396.449422 
L 254.94922 411.399348 
L 256.01046 418.962252 
L 257.0717 445.872119 
L 258.13294 406.474667 
L 259.19418 456.425007 
L 260.25542 446.048 
L 261.31666 466.450252 
L 262.3779 522.0288 
L 263.43914 481.048415 
L 264.50038 453.435022 
L 265.56162 472.430222 
L 266.62286 413.509926 
L 267.6841 468.209067 
L 268.74534 379.916563 
L 269.80658 379.740681 
L 270.86782 346.850844 
L 271.92906 381.499496 
L 272.9903 376.223052 
L 274.051541 455.721481 
L 275.112781 439.188622 
L 276.174021 414.389333 
L 277.235261 488.083674 
L 278.296501 490.546015 
L 279.357741 399.263526 
L 280.418981 452.379733 
L 281.480221 389.941807 
L 282.541461 357.227852 
L 283.602701 332.604444 
L 284.663941 361.624889 
L 285.725181 379.037156 
L 286.786421 458.887348 
L 287.847661 406.298785 
L 288.908901 419.138133 
L 289.970141 464.515556 
L 291.031381 350.720237 
L 292.092621 405.947022 
L 293.153861 321.523911 
L 294.215101 297.779911 
L 296.337581 337.001481 
L 297.398821 424.766341 
L 298.460061 449.389748 
L 299.521301 450.620919 
L 300.582541 466.977896 
L 301.643781 505.671822 
L 302.705021 514.114133 
L 303.766261 408.233481 
L 304.827501 369.715437 
L 305.888741 347.55437 
L 306.949981 377.278341 
L 308.011221 398.735881 
L 309.072461 439.892148 
L 310.133701 357.403733 
L 311.194941 474.892563 
L 312.256181 473.661393 
L 313.317421 469.088474 
L 314.378661 476.299615 
L 315.439901 433.912178 
L 316.501141 373.936593 
L 317.562381 306.046341 
L 318.623621 388.182993 
L 319.684861 401.549985 
L 320.746101 436.726281 
L 321.807341 465.922607 
L 322.868581 458.711467 
L 323.929821 354.58963 
L 324.991061 382.730667 
L 326.052301 375.695407 
L 327.113541 328.207407 
L 328.174781 450.445037 
L 329.236021 407.002311 
L 330.297261 409.640533 
L 331.358501 444.113304 
L 332.419741 493.360119 
L 333.480981 450.269156 
L 334.542221 413.158163 
L 335.603461 368.660148 
L 336.664701 376.574815 
L 337.725941 335.59443 
L 338.787181 373.057185 
L 339.848421 439.188622 
L 340.909661 433.208652 
L 341.970901 446.399763 
L 343.032141 473.485511 
L 344.093382 522.0288 
L 345.154622 496.525985 
L 346.215862 478.761956 
L 347.277102 441.123319 
L 348.338342 412.982281 
L 349.399582 399.087644 
L 350.460822 341.926163 
L 351.522062 465.0432 
L 352.583302 376.750696 
L 353.644542 377.630104 
L 354.705782 381.851259 
L 355.767022 376.223052 
L 356.828262 448.862104 
L 357.889502 442.354489 
L 358.950742 436.902163 
L 360.011982 436.5504 
L 361.073222 462.053215 
L 362.134462 390.997096 
L 363.195702 419.841659 
L 364.256942 405.595259 
L 365.318182 412.630519 
L 365.318182 412.630519 
" style="fill:none;stroke:#1f77b4;stroke-linecap:square;stroke-width:1.5;"/>
    <defs>
     <path d="M 0 3 
C 0.795609 3 1.55874 2.683901 2.12132 2.12132 
C 2.683901 1.55874 3 0.795609 3 0 
C 3 -0.795609 2.683901 -1.55874 2.12132 -2.12132 
C 1.55874 -2.683901 0.795609 -3 0 -3 
C -0.795609 -3 -1.55874 -2.683901 -2.12132 -2.12132 
C -2.683901 -1.55874 -3 -0.795609 -3 0 
C -3 0.795609 -2.683901 1.55874 -2.12132 2.12132 
C -1.55874 2.683901 -0.795609 3 0 3 
z
" id="m91257370a5" style="stroke:#1f77b4;"/>
    </defs>
    <g clip-path="url(#pa9b4be3e65)">
     <use style="fill:#1f77b4;stroke:#1f77b4;" x="111.681818" xlink:href="#m91257370a5" y="245.543111"/>
     <use style="fill:#1f77b4;stroke:#1f77b4;" x="112.743058" xlink:href="#m91257370a5" y="299.538726"/>
     <use style="fill:#1f77b4;stroke:#1f77b4;" x="113.804298" xlink:href="#m91257370a5" y="224.789096"/>
     <use style="fill:#1f77b4;stroke:#1f77b4;" x="114.865538" xlink:href="#m91257370a5" y="266.297126"/>
     <use style="fill:#1f77b4;stroke:#1f77b4;" x="115.926778" xlink:href="#m91257370a5" y="201.220978"/>
     <use style="fill:#1f77b4;stroke:#1f77b4;" x="116.988018" xlink:href="#m91257370a5" y="213.005037"/>
     <use style="fill:#1f77b4;stroke:#1f77b4;" x="118.049258" xlink:href="#m91257370a5" y="224.613215"/>
     <use style="fill:#1f77b4;stroke:#1f77b4;" x="119.110498" xlink:href="#m91257370a5" y="247.301926"/>
     <use style="fill:#1f77b4;stroke:#1f77b4;" x="120.171738" xlink:href="#m91257370a5" y="204.914489"/>
     <use style="fill:#1f77b4;stroke:#1f77b4;" x="121.232978" xlink:href="#m91257370a5" y="200.693333"/>
     <use style="fill:#1f77b4;stroke:#1f77b4;" x="122.294218" xlink:href="#m91257370a5" y="160.592356"/>
     <use style="fill:#1f77b4;stroke:#1f77b4;" x="123.355458" xlink:href="#m91257370a5" y="246.246637"/>
     <use style="fill:#1f77b4;stroke:#1f77b4;" x="124.416698" xlink:href="#m91257370a5" y="131.923674"/>
     <use style="fill:#1f77b4;stroke:#1f77b4;" x="125.477938" xlink:href="#m91257370a5" y="178.180504"/>
     <use style="fill:#1f77b4;stroke:#1f77b4;" x="126.539178" xlink:href="#m91257370a5" y="143.531852"/>
     <use style="fill:#1f77b4;stroke:#1f77b4;" x="127.600418" xlink:href="#m91257370a5" y="192.075141"/>
     <use style="fill:#1f77b4;stroke:#1f77b4;" x="128.661658" xlink:href="#m91257370a5" y="278.081185"/>
     <use style="fill:#1f77b4;stroke:#1f77b4;" x="129.722898" xlink:href="#m91257370a5" y="275.0912"/>
     <use style="fill:#1f77b4;stroke:#1f77b4;" x="130.784138" xlink:href="#m91257370a5" y="219.160889"/>
     <use style="fill:#1f77b4;stroke:#1f77b4;" x="131.845378" xlink:href="#m91257370a5" y="178.532267"/>
     <use style="fill:#1f77b4;stroke:#1f77b4;" x="132.906618" xlink:href="#m91257370a5" y="296.021096"/>
     <use style="fill:#1f77b4;stroke:#1f77b4;" x="133.967859" xlink:href="#m91257370a5" y="274.211793"/>
     <use style="fill:#1f77b4;stroke:#1f77b4;" x="135.029099" xlink:href="#m91257370a5" y="269.11123"/>
     <use style="fill:#1f77b4;stroke:#1f77b4;" x="136.090339" xlink:href="#m91257370a5" y="299.890489"/>
     <use style="fill:#1f77b4;stroke:#1f77b4;" x="137.151579" xlink:href="#m91257370a5" y="345.619674"/>
     <use style="fill:#1f77b4;stroke:#1f77b4;" x="138.212819" xlink:href="#m91257370a5" y="405.595259"/>
     <use style="fill:#1f77b4;stroke:#1f77b4;" x="139.274059" xlink:href="#m91257370a5" y="372.001896"/>
     <use style="fill:#1f77b4;stroke:#1f77b4;" x="140.335299" xlink:href="#m91257370a5" y="359.33843"/>
     <use style="fill:#1f77b4;stroke:#1f77b4;" x="141.396539" xlink:href="#m91257370a5" y="314.31277"/>
     <use style="fill:#1f77b4;stroke:#1f77b4;" x="142.457779" xlink:href="#m91257370a5" y="348.609659"/>
     <use style="fill:#1f77b4;stroke:#1f77b4;" x="143.519019" xlink:href="#m91257370a5" y="366.725452"/>
     <use style="fill:#1f77b4;stroke:#1f77b4;" x="144.580259" xlink:href="#m91257370a5" y="431.625719"/>
     <use style="fill:#1f77b4;stroke:#1f77b4;" x="145.641499" xlink:href="#m91257370a5" y="376.750696"/>
     <use style="fill:#1f77b4;stroke:#1f77b4;" x="146.702739" xlink:href="#m91257370a5" y="429.163378"/>
     <use style="fill:#1f77b4;stroke:#1f77b4;" x="147.763979" xlink:href="#m91257370a5" y="367.604859"/>
     <use style="fill:#1f77b4;stroke:#1f77b4;" x="148.825219" xlink:href="#m91257370a5" y="344.212622"/>
     <use style="fill:#1f77b4;stroke:#1f77b4;" x="149.886459" xlink:href="#m91257370a5" y="340.34323"/>
     <use style="fill:#1f77b4;stroke:#1f77b4;" x="150.947699" xlink:href="#m91257370a5" y="373.936593"/>
     <use style="fill:#1f77b4;stroke:#1f77b4;" x="152.008939" xlink:href="#m91257370a5" y="319.237452"/>
     <use style="fill:#1f77b4;stroke:#1f77b4;" x="153.070179" xlink:href="#m91257370a5" y="422.128119"/>
     <use style="fill:#1f77b4;stroke:#1f77b4;" x="154.131419" xlink:href="#m91257370a5" y="373.233067"/>
     <use style="fill:#1f77b4;stroke:#1f77b4;" x="155.192659" xlink:href="#m91257370a5" y="374.640119"/>
     <use style="fill:#1f77b4;stroke:#1f77b4;" x="156.253899" xlink:href="#m91257370a5" y="377.102459"/>
     <use style="fill:#1f77b4;stroke:#1f77b4;" x="157.315139" xlink:href="#m91257370a5" y="394.338844"/>
     <use style="fill:#1f77b4;stroke:#1f77b4;" x="158.376379" xlink:href="#m91257370a5" y="314.31277"/>
     <use style="fill:#1f77b4;stroke:#1f77b4;" x="159.437619" xlink:href="#m91257370a5" y="369.363674"/>
     <use style="fill:#1f77b4;stroke:#1f77b4;" x="160.498859" xlink:href="#m91257370a5" y="346.674963"/>
     <use style="fill:#1f77b4;stroke:#1f77b4;" x="161.560099" xlink:href="#m91257370a5" y="347.730252"/>
     <use style="fill:#1f77b4;stroke:#1f77b4;" x="162.621339" xlink:href="#m91257370a5" y="314.664533"/>
     <use style="fill:#1f77b4;stroke:#1f77b4;" x="163.682579" xlink:href="#m91257370a5" y="337.705007"/>
     <use style="fill:#1f77b4;stroke:#1f77b4;" x="164.743819" xlink:href="#m91257370a5" y="372.881304"/>
     <use style="fill:#1f77b4;stroke:#1f77b4;" x="165.805059" xlink:href="#m91257370a5" y="410.695822"/>
     <use style="fill:#1f77b4;stroke:#1f77b4;" x="166.866299" xlink:href="#m91257370a5" y="434.263941"/>
     <use style="fill:#1f77b4;stroke:#1f77b4;" x="167.927539" xlink:href="#m91257370a5" y="371.650133"/>
     <use style="fill:#1f77b4;stroke:#1f77b4;" x="168.988779" xlink:href="#m91257370a5" y="362.504296"/>
     <use style="fill:#1f77b4;stroke:#1f77b4;" x="170.050019" xlink:href="#m91257370a5" y="327.152119"/>
     <use style="fill:#1f77b4;stroke:#1f77b4;" x="171.111259" xlink:href="#m91257370a5" y="299.186963"/>
     <use style="fill:#1f77b4;stroke:#1f77b4;" x="172.172499" xlink:href="#m91257370a5" y="316.950993"/>
     <use style="fill:#1f77b4;stroke:#1f77b4;" x="173.233739" xlink:href="#m91257370a5" y="402.07763"/>
     <use style="fill:#1f77b4;stroke:#1f77b4;" x="174.294979" xlink:href="#m91257370a5" y="365.670163"/>
     <use style="fill:#1f77b4;stroke:#1f77b4;" x="175.356219" xlink:href="#m91257370a5" y="412.278756"/>
     <use style="fill:#1f77b4;stroke:#1f77b4;" x="176.417459" xlink:href="#m91257370a5" y="437.957452"/>
     <use style="fill:#1f77b4;stroke:#1f77b4;" x="177.478699" xlink:href="#m91257370a5" y="472.957867"/>
     <use style="fill:#1f77b4;stroke:#1f77b4;" x="178.539939" xlink:href="#m91257370a5" y="498.460681"/>
     <use style="fill:#1f77b4;stroke:#1f77b4;" x="179.601179" xlink:href="#m91257370a5" y="445.520356"/>
     <use style="fill:#1f77b4;stroke:#1f77b4;" x="180.662419" xlink:href="#m91257370a5" y="473.133748"/>
     <use style="fill:#1f77b4;stroke:#1f77b4;" x="181.723659" xlink:href="#m91257370a5" y="440.419793"/>
     <use style="fill:#1f77b4;stroke:#1f77b4;" x="182.784899" xlink:href="#m91257370a5" y="421.424593"/>
     <use style="fill:#1f77b4;stroke:#1f77b4;" x="183.846139" xlink:href="#m91257370a5" y="371.474252"/>
     <use style="fill:#1f77b4;stroke:#1f77b4;" x="184.907379" xlink:href="#m91257370a5" y="379.213037"/>
     <use style="fill:#1f77b4;stroke:#1f77b4;" x="185.968619" xlink:href="#m91257370a5" y="395.218252"/>
     <use style="fill:#1f77b4;stroke:#1f77b4;" x="187.029859" xlink:href="#m91257370a5" y="337.353244"/>
     <use style="fill:#1f77b4;stroke:#1f77b4;" x="188.091099" xlink:href="#m91257370a5" y="362.504296"/>
     <use style="fill:#1f77b4;stroke:#1f77b4;" x="189.152339" xlink:href="#m91257370a5" y="347.202607"/>
     <use style="fill:#1f77b4;stroke:#1f77b4;" x="190.213579" xlink:href="#m91257370a5" y="398.208237"/>
     <use style="fill:#1f77b4;stroke:#1f77b4;" x="191.274819" xlink:href="#m91257370a5" y="407.881719"/>
     <use style="fill:#1f77b4;stroke:#1f77b4;" x="192.336059" xlink:href="#m91257370a5" y="387.303585"/>
     <use style="fill:#1f77b4;stroke:#1f77b4;" x="193.397299" xlink:href="#m91257370a5" y="455.897363"/>
     <use style="fill:#1f77b4;stroke:#1f77b4;" x="194.458539" xlink:href="#m91257370a5" y="484.741926"/>
     <use style="fill:#1f77b4;stroke:#1f77b4;" x="195.519779" xlink:href="#m91257370a5" y="394.690607"/>
     <use style="fill:#1f77b4;stroke:#1f77b4;" x="196.581019" xlink:href="#m91257370a5" y="382.554785"/>
     <use style="fill:#1f77b4;stroke:#1f77b4;" x="197.642259" xlink:href="#m91257370a5" y="353.182578"/>
     <use style="fill:#1f77b4;stroke:#1f77b4;" x="198.703499" xlink:href="#m91257370a5" y="303.935763"/>
     <use style="fill:#1f77b4;stroke:#1f77b4;" x="199.764739" xlink:href="#m91257370a5" y="268.583585"/>
     <use style="fill:#1f77b4;stroke:#1f77b4;" x="200.825979" xlink:href="#m91257370a5" y="336.8256"/>
     <use style="fill:#1f77b4;stroke:#1f77b4;" x="201.887219" xlink:href="#m91257370a5" y="328.55917"/>
     <use style="fill:#1f77b4;stroke:#1f77b4;" x="202.948459" xlink:href="#m91257370a5" y="356.876089"/>
     <use style="fill:#1f77b4;stroke:#1f77b4;" x="204.0097" xlink:href="#m91257370a5" y="353.710222"/>
     <use style="fill:#1f77b4;stroke:#1f77b4;" x="205.07094" xlink:href="#m91257370a5" y="447.982696"/>
     <use style="fill:#1f77b4;stroke:#1f77b4;" x="206.13218" xlink:href="#m91257370a5" y="407.881719"/>
     <use style="fill:#1f77b4;stroke:#1f77b4;" x="207.19342" xlink:href="#m91257370a5" y="430.746311"/>
     <use style="fill:#1f77b4;stroke:#1f77b4;" x="208.25466" xlink:href="#m91257370a5" y="409.112889"/>
     <use style="fill:#1f77b4;stroke:#1f77b4;" x="209.3159" xlink:href="#m91257370a5" y="484.390163"/>
     <use style="fill:#1f77b4;stroke:#1f77b4;" x="210.37714" xlink:href="#m91257370a5" y="430.218667"/>
     <use style="fill:#1f77b4;stroke:#1f77b4;" x="211.43838" xlink:href="#m91257370a5" y="465.922607"/>
     <use style="fill:#1f77b4;stroke:#1f77b4;" x="212.49962" xlink:href="#m91257370a5" y="440.419793"/>
     <use style="fill:#1f77b4;stroke:#1f77b4;" x="213.56086" xlink:href="#m91257370a5" y="389.590044"/>
     <use style="fill:#1f77b4;stroke:#1f77b4;" x="214.6221" xlink:href="#m91257370a5" y="425.997511"/>
     <use style="fill:#1f77b4;stroke:#1f77b4;" x="215.68334" xlink:href="#m91257370a5" y="434.967467"/>
     <use style="fill:#1f77b4;stroke:#1f77b4;" x="216.74458" xlink:href="#m91257370a5" y="412.630519"/>
     <use style="fill:#1f77b4;stroke:#1f77b4;" x="217.80582" xlink:href="#m91257370a5" y="354.58963"/>
     <use style="fill:#1f77b4;stroke:#1f77b4;" x="218.86706" xlink:href="#m91257370a5" y="321.699793"/>
     <use style="fill:#1f77b4;stroke:#1f77b4;" x="219.9283" xlink:href="#m91257370a5" y="300.418133"/>
     <use style="fill:#1f77b4;stroke:#1f77b4;" x="220.98954" xlink:href="#m91257370a5" y="315.543941"/>
     <use style="fill:#1f77b4;stroke:#1f77b4;" x="222.05078" xlink:href="#m91257370a5" y="307.981037"/>
     <use style="fill:#1f77b4;stroke:#1f77b4;" x="223.11202" xlink:href="#m91257370a5" y="250.11603"/>
     <use style="fill:#1f77b4;stroke:#1f77b4;" x="224.17326" xlink:href="#m91257370a5" y="325.217422"/>
     <use style="fill:#1f77b4;stroke:#1f77b4;" x="225.2345" xlink:href="#m91257370a5" y="272.628859"/>
     <use style="fill:#1f77b4;stroke:#1f77b4;" x="226.29574" xlink:href="#m91257370a5" y="273.332385"/>
     <use style="fill:#1f77b4;stroke:#1f77b4;" x="227.35698" xlink:href="#m91257370a5" y="336.649719"/>
     <use style="fill:#1f77b4;stroke:#1f77b4;" x="228.41822" xlink:href="#m91257370a5" y="263.483022"/>
     <use style="fill:#1f77b4;stroke:#1f77b4;" x="229.47946" xlink:href="#m91257370a5" y="212.829156"/>
     <use style="fill:#1f77b4;stroke:#1f77b4;" x="230.5407" xlink:href="#m91257370a5" y="288.985837"/>
     <use style="fill:#1f77b4;stroke:#1f77b4;" x="231.60194" xlink:href="#m91257370a5" y="310.795141"/>
     <use style="fill:#1f77b4;stroke:#1f77b4;" x="232.66318" xlink:href="#m91257370a5" y="273.86003"/>
     <use style="fill:#1f77b4;stroke:#1f77b4;" x="233.72442" xlink:href="#m91257370a5" y="250.819556"/>
     <use style="fill:#1f77b4;stroke:#1f77b4;" x="234.78566" xlink:href="#m91257370a5" y="279.664119"/>
     <use style="fill:#1f77b4;stroke:#1f77b4;" x="235.8469" xlink:href="#m91257370a5" y="294.614044"/>
     <use style="fill:#1f77b4;stroke:#1f77b4;" x="236.90814" xlink:href="#m91257370a5" y="291.096415"/>
     <use style="fill:#1f77b4;stroke:#1f77b4;" x="237.96938" xlink:href="#m91257370a5" y="301.473422"/>
     <use style="fill:#1f77b4;stroke:#1f77b4;" x="239.03062" xlink:href="#m91257370a5" y="336.8256"/>
     <use style="fill:#1f77b4;stroke:#1f77b4;" x="240.09186" xlink:href="#m91257370a5" y="313.257481"/>
     <use style="fill:#1f77b4;stroke:#1f77b4;" x="241.1531" xlink:href="#m91257370a5" y="352.127289"/>
     <use style="fill:#1f77b4;stroke:#1f77b4;" x="242.21434" xlink:href="#m91257370a5" y="328.207407"/>
     <use style="fill:#1f77b4;stroke:#1f77b4;" x="243.27558" xlink:href="#m91257370a5" y="332.428563"/>
     <use style="fill:#1f77b4;stroke:#1f77b4;" x="244.33682" xlink:href="#m91257370a5" y="336.649719"/>
     <use style="fill:#1f77b4;stroke:#1f77b4;" x="245.39806" xlink:href="#m91257370a5" y="319.237452"/>
     <use style="fill:#1f77b4;stroke:#1f77b4;" x="246.4593" xlink:href="#m91257370a5" y="291.096415"/>
     <use style="fill:#1f77b4;stroke:#1f77b4;" x="247.52054" xlink:href="#m91257370a5" y="354.061985"/>
     <use style="fill:#1f77b4;stroke:#1f77b4;" x="248.58178" xlink:href="#m91257370a5" y="399.263526"/>
     <use style="fill:#1f77b4;stroke:#1f77b4;" x="249.64302" xlink:href="#m91257370a5" y="291.272296"/>
     <use style="fill:#1f77b4;stroke:#1f77b4;" x="250.70426" xlink:href="#m91257370a5" y="383.08243"/>
     <use style="fill:#1f77b4;stroke:#1f77b4;" x="251.7655" xlink:href="#m91257370a5" y="400.846459"/>
     <use style="fill:#1f77b4;stroke:#1f77b4;" x="252.82674" xlink:href="#m91257370a5" y="343.333215"/>
     <use style="fill:#1f77b4;stroke:#1f77b4;" x="253.88798" xlink:href="#m91257370a5" y="396.449422"/>
     <use style="fill:#1f77b4;stroke:#1f77b4;" x="254.94922" xlink:href="#m91257370a5" y="411.399348"/>
     <use style="fill:#1f77b4;stroke:#1f77b4;" x="256.01046" xlink:href="#m91257370a5" y="418.962252"/>
     <use style="fill:#1f77b4;stroke:#1f77b4;" x="257.0717" xlink:href="#m91257370a5" y="445.872119"/>
     <use style="fill:#1f77b4;stroke:#1f77b4;" x="258.13294" xlink:href="#m91257370a5" y="406.474667"/>
     <use style="fill:#1f77b4;stroke:#1f77b4;" x="259.19418" xlink:href="#m91257370a5" y="456.425007"/>
     <use style="fill:#1f77b4;stroke:#1f77b4;" x="260.25542" xlink:href="#m91257370a5" y="446.048"/>
     <use style="fill:#1f77b4;stroke:#1f77b4;" x="261.31666" xlink:href="#m91257370a5" y="466.450252"/>
     <use style="fill:#1f77b4;stroke:#1f77b4;" x="262.3779" xlink:href="#m91257370a5" y="522.0288"/>
     <use style="fill:#1f77b4;stroke:#1f77b4;" x="263.43914" xlink:href="#m91257370a5" y="481.048415"/>
     <use style="fill:#1f77b4;stroke:#1f77b4;" x="264.50038" xlink:href="#m91257370a5" y="453.435022"/>
     <use style="fill:#1f77b4;stroke:#1f77b4;" x="265.56162" xlink:href="#m91257370a5" y="472.430222"/>
     <use style="fill:#1f77b4;stroke:#1f77b4;" x="266.62286" xlink:href="#m91257370a5" y="413.509926"/>
     <use style="fill:#1f77b4;stroke:#1f77b4;" x="267.6841" xlink:href="#m91257370a5" y="468.209067"/>
     <use style="fill:#1f77b4;stroke:#1f77b4;" x="268.74534" xlink:href="#m91257370a5" y="379.916563"/>
     <use style="fill:#1f77b4;stroke:#1f77b4;" x="269.80658" xlink:href="#m91257370a5" y="379.740681"/>
     <use style="fill:#1f77b4;stroke:#1f77b4;" x="270.86782" xlink:href="#m91257370a5" y="346.850844"/>
     <use style="fill:#1f77b4;stroke:#1f77b4;" x="271.92906" xlink:href="#m91257370a5" y="381.499496"/>
     <use style="fill:#1f77b4;stroke:#1f77b4;" x="272.9903" xlink:href="#m91257370a5" y="376.223052"/>
     <use style="fill:#1f77b4;stroke:#1f77b4;" x="274.051541" xlink:href="#m91257370a5" y="455.721481"/>
     <use style="fill:#1f77b4;stroke:#1f77b4;" x="275.112781" xlink:href="#m91257370a5" y="439.188622"/>
     <use style="fill:#1f77b4;stroke:#1f77b4;" x="276.174021" xlink:href="#m91257370a5" y="414.389333"/>
     <use style="fill:#1f77b4;stroke:#1f77b4;" x="277.235261" xlink:href="#m91257370a5" y="488.083674"/>
     <use style="fill:#1f77b4;stroke:#1f77b4;" x="278.296501" xlink:href="#m91257370a5" y="490.546015"/>
     <use style="fill:#1f77b4;stroke:#1f77b4;" x="279.357741" xlink:href="#m91257370a5" y="399.263526"/>
     <use style="fill:#1f77b4;stroke:#1f77b4;" x="280.418981" xlink:href="#m91257370a5" y="452.379733"/>
     <use style="fill:#1f77b4;stroke:#1f77b4;" x="281.480221" xlink:href="#m91257370a5" y="389.941807"/>
     <use style="fill:#1f77b4;stroke:#1f77b4;" x="282.541461" xlink:href="#m91257370a5" y="357.227852"/>
     <use style="fill:#1f77b4;stroke:#1f77b4;" x="283.602701" xlink:href="#m91257370a5" y="332.604444"/>
     <use style="fill:#1f77b4;stroke:#1f77b4;" x="284.663941" xlink:href="#m91257370a5" y="361.624889"/>
     <use style="fill:#1f77b4;stroke:#1f77b4;" x="285.725181" xlink:href="#m91257370a5" y="379.037156"/>
     <use style="fill:#1f77b4;stroke:#1f77b4;" x="286.786421" xlink:href="#m91257370a5" y="458.887348"/>
     <use style="fill:#1f77b4;stroke:#1f77b4;" x="287.847661" xlink:href="#m91257370a5" y="406.298785"/>
     <use style="fill:#1f77b4;stroke:#1f77b4;" x="288.908901" xlink:href="#m91257370a5" y="419.138133"/>
     <use style="fill:#1f77b4;stroke:#1f77b4;" x="289.970141" xlink:href="#m91257370a5" y="464.515556"/>
     <use style="fill:#1f77b4;stroke:#1f77b4;" x="291.031381" xlink:href="#m91257370a5" y="350.720237"/>
     <use style="fill:#1f77b4;stroke:#1f77b4;" x="292.092621" xlink:href="#m91257370a5" y="405.947022"/>
     <use style="fill:#1f77b4;stroke:#1f77b4;" x="293.153861" xlink:href="#m91257370a5" y="321.523911"/>
     <use style="fill:#1f77b4;stroke:#1f77b4;" x="294.215101" xlink:href="#m91257370a5" y="297.779911"/>
     <use style="fill:#1f77b4;stroke:#1f77b4;" x="295.276341" xlink:href="#m91257370a5" y="318.006281"/>
     <use style="fill:#1f77b4;stroke:#1f77b4;" x="296.337581" xlink:href="#m91257370a5" y="337.001481"/>
     <use style="fill:#1f77b4;stroke:#1f77b4;" x="297.398821" xlink:href="#m91257370a5" y="424.766341"/>
     <use style="fill:#1f77b4;stroke:#1f77b4;" x="298.460061" xlink:href="#m91257370a5" y="449.389748"/>
     <use style="fill:#1f77b4;stroke:#1f77b4;" x="299.521301" xlink:href="#m91257370a5" y="450.620919"/>
     <use style="fill:#1f77b4;stroke:#1f77b4;" x="300.582541" xlink:href="#m91257370a5" y="466.977896"/>
     <use style="fill:#1f77b4;stroke:#1f77b4;" x="301.643781" xlink:href="#m91257370a5" y="505.671822"/>
     <use style="fill:#1f77b4;stroke:#1f77b4;" x="302.705021" xlink:href="#m91257370a5" y="514.114133"/>
     <use style="fill:#1f77b4;stroke:#1f77b4;" x="303.766261" xlink:href="#m91257370a5" y="408.233481"/>
     <use style="fill:#1f77b4;stroke:#1f77b4;" x="304.827501" xlink:href="#m91257370a5" y="369.715437"/>
     <use style="fill:#1f77b4;stroke:#1f77b4;" x="305.888741" xlink:href="#m91257370a5" y="347.55437"/>
     <use style="fill:#1f77b4;stroke:#1f77b4;" x="306.949981" xlink:href="#m91257370a5" y="377.278341"/>
     <use style="fill:#1f77b4;stroke:#1f77b4;" x="308.011221" xlink:href="#m91257370a5" y="398.735881"/>
     <use style="fill:#1f77b4;stroke:#1f77b4;" x="309.072461" xlink:href="#m91257370a5" y="439.892148"/>
     <use style="fill:#1f77b4;stroke:#1f77b4;" x="310.133701" xlink:href="#m91257370a5" y="357.403733"/>
     <use style="fill:#1f77b4;stroke:#1f77b4;" x="311.194941" xlink:href="#m91257370a5" y="474.892563"/>
     <use style="fill:#1f77b4;stroke:#1f77b4;" x="312.256181" xlink:href="#m91257370a5" y="473.661393"/>
     <use style="fill:#1f77b4;stroke:#1f77b4;" x="313.317421" xlink:href="#m91257370a5" y="469.088474"/>
     <use style="fill:#1f77b4;stroke:#1f77b4;" x="314.378661" xlink:href="#m91257370a5" y="476.299615"/>
     <use style="fill:#1f77b4;stroke:#1f77b4;" x="315.439901" xlink:href="#m91257370a5" y="433.912178"/>
     <use style="fill:#1f77b4;stroke:#1f77b4;" x="316.501141" xlink:href="#m91257370a5" y="373.936593"/>
     <use style="fill:#1f77b4;stroke:#1f77b4;" x="317.562381" xlink:href="#m91257370a5" y="306.046341"/>
     <use style="fill:#1f77b4;stroke:#1f77b4;" x="318.623621" xlink:href="#m91257370a5" y="388.182993"/>
     <use style="fill:#1f77b4;stroke:#1f77b4;" x="319.684861" xlink:href="#m91257370a5" y="401.549985"/>
     <use style="fill:#1f77b4;stroke:#1f77b4;" x="320.746101" xlink:href="#m91257370a5" y="436.726281"/>
     <use style="fill:#1f77b4;stroke:#1f77b4;" x="321.807341" xlink:href="#m91257370a5" y="465.922607"/>
     <use style="fill:#1f77b4;stroke:#1f77b4;" x="322.868581" xlink:href="#m91257370a5" y="458.711467"/>
     <use style="fill:#1f77b4;stroke:#1f77b4;" x="323.929821" xlink:href="#m91257370a5" y="354.58963"/>
     <use style="fill:#1f77b4;stroke:#1f77b4;" x="324.991061" xlink:href="#m91257370a5" y="382.730667"/>
     <use style="fill:#1f77b4;stroke:#1f77b4;" x="326.052301" xlink:href="#m91257370a5" y="375.695407"/>
     <use style="fill:#1f77b4;stroke:#1f77b4;" x="327.113541" xlink:href="#m91257370a5" y="328.207407"/>
     <use style="fill:#1f77b4;stroke:#1f77b4;" x="328.174781" xlink:href="#m91257370a5" y="450.445037"/>
     <use style="fill:#1f77b4;stroke:#1f77b4;" x="329.236021" xlink:href="#m91257370a5" y="407.002311"/>
     <use style="fill:#1f77b4;stroke:#1f77b4;" x="330.297261" xlink:href="#m91257370a5" y="409.640533"/>
     <use style="fill:#1f77b4;stroke:#1f77b4;" x="331.358501" xlink:href="#m91257370a5" y="444.113304"/>
     <use style="fill:#1f77b4;stroke:#1f77b4;" x="332.419741" xlink:href="#m91257370a5" y="493.360119"/>
     <use style="fill:#1f77b4;stroke:#1f77b4;" x="333.480981" xlink:href="#m91257370a5" y="450.269156"/>
     <use style="fill:#1f77b4;stroke:#1f77b4;" x="334.542221" xlink:href="#m91257370a5" y="413.158163"/>
     <use style="fill:#1f77b4;stroke:#1f77b4;" x="335.603461" xlink:href="#m91257370a5" y="368.660148"/>
     <use style="fill:#1f77b4;stroke:#1f77b4;" x="336.664701" xlink:href="#m91257370a5" y="376.574815"/>
     <use style="fill:#1f77b4;stroke:#1f77b4;" x="337.725941" xlink:href="#m91257370a5" y="335.59443"/>
     <use style="fill:#1f77b4;stroke:#1f77b4;" x="338.787181" xlink:href="#m91257370a5" y="373.057185"/>
     <use style="fill:#1f77b4;stroke:#1f77b4;" x="339.848421" xlink:href="#m91257370a5" y="439.188622"/>
     <use style="fill:#1f77b4;stroke:#1f77b4;" x="340.909661" xlink:href="#m91257370a5" y="433.208652"/>
     <use style="fill:#1f77b4;stroke:#1f77b4;" x="341.970901" xlink:href="#m91257370a5" y="446.399763"/>
     <use style="fill:#1f77b4;stroke:#1f77b4;" x="343.032141" xlink:href="#m91257370a5" y="473.485511"/>
     <use style="fill:#1f77b4;stroke:#1f77b4;" x="344.093382" xlink:href="#m91257370a5" y="522.0288"/>
     <use style="fill:#1f77b4;stroke:#1f77b4;" x="345.154622" xlink:href="#m91257370a5" y="496.525985"/>
     <use style="fill:#1f77b4;stroke:#1f77b4;" x="346.215862" xlink:href="#m91257370a5" y="478.761956"/>
     <use style="fill:#1f77b4;stroke:#1f77b4;" x="347.277102" xlink:href="#m91257370a5" y="441.123319"/>
     <use style="fill:#1f77b4;stroke:#1f77b4;" x="348.338342" xlink:href="#m91257370a5" y="412.982281"/>
     <use style="fill:#1f77b4;stroke:#1f77b4;" x="349.399582" xlink:href="#m91257370a5" y="399.087644"/>
     <use style="fill:#1f77b4;stroke:#1f77b4;" x="350.460822" xlink:href="#m91257370a5" y="341.926163"/>
     <use style="fill:#1f77b4;stroke:#1f77b4;" x="351.522062" xlink:href="#m91257370a5" y="465.0432"/>
     <use style="fill:#1f77b4;stroke:#1f77b4;" x="352.583302" xlink:href="#m91257370a5" y="376.750696"/>
     <use style="fill:#1f77b4;stroke:#1f77b4;" x="353.644542" xlink:href="#m91257370a5" y="377.630104"/>
     <use style="fill:#1f77b4;stroke:#1f77b4;" x="354.705782" xlink:href="#m91257370a5" y="381.851259"/>
     <use style="fill:#1f77b4;stroke:#1f77b4;" x="355.767022" xlink:href="#m91257370a5" y="376.223052"/>
     <use style="fill:#1f77b4;stroke:#1f77b4;" x="356.828262" xlink:href="#m91257370a5" y="448.862104"/>
     <use style="fill:#1f77b4;stroke:#1f77b4;" x="357.889502" xlink:href="#m91257370a5" y="442.354489"/>
     <use style="fill:#1f77b4;stroke:#1f77b4;" x="358.950742" xlink:href="#m91257370a5" y="436.902163"/>
     <use style="fill:#1f77b4;stroke:#1f77b4;" x="360.011982" xlink:href="#m91257370a5" y="436.5504"/>
     <use style="fill:#1f77b4;stroke:#1f77b4;" x="361.073222" xlink:href="#m91257370a5" y="462.053215"/>
     <use style="fill:#1f77b4;stroke:#1f77b4;" x="362.134462" xlink:href="#m91257370a5" y="390.997096"/>
     <use style="fill:#1f77b4;stroke:#1f77b4;" x="363.195702" xlink:href="#m91257370a5" y="419.841659"/>
     <use style="fill:#1f77b4;stroke:#1f77b4;" x="364.256942" xlink:href="#m91257370a5" y="405.595259"/>
     <use style="fill:#1f77b4;stroke:#1f77b4;" x="365.318182" xlink:href="#m91257370a5" y="412.630519"/>
    </g>
   </g>
   <g id="patch_3">
    <path d="M 99 543.3984 
L 99 73.2672 
" style="fill:none;stroke:#000000;stroke-linecap:square;stroke-linejoin:miter;stroke-width:0.8;"/>
   </g>
   <g id="patch_4">
    <path d="M 378 543.3984 
L 378 73.2672 
" style="fill:none;stroke:#000000;stroke-linecap:square;stroke-linejoin:miter;stroke-width:0.8;"/>
   </g>
   <g id="patch_5">
    <path d="M 99 543.3984 
L 378 543.3984 
" style="fill:none;stroke:#000000;stroke-linecap:square;stroke-linejoin:miter;stroke-width:0.8;"/>
   </g>
   <g id="patch_6">
    <path d="M 99 73.2672 
L 378 73.2672 
" style="fill:none;stroke:#000000;stroke-linecap:square;stroke-linejoin:miter;stroke-width:0.8;"/>
   </g>
  </g>
  <g id="axes_2">
   <g id="patch_7">
    <path d="M 433.8 543.3984 
L 712.8 543.3984 
L 712.8 73.2672 
L 433.8 73.2672 
z
" style="fill:#ffffff;"/>
   </g>
   <g id="matplotlib.axis_3">
    <g id="xtick_7">
     <g id="line2d_14">
      <g>
       <use style="stroke:#000000;stroke-width:0.8;" x="467.706618" xlink:href="#mcb9bb1e1bd" y="543.3984"/>
      </g>
     </g>
     <g id="text_12">
      <!-- 2.75 -->
      <g transform="translate(456.573806 557.996838)scale(0.1 -0.1)">
       <use xlink:href="#DejaVuSans-32"/>
       <use x="63.623047" xlink:href="#DejaVuSans-2e"/>
       <use x="95.410156" xlink:href="#DejaVuSans-37"/>
       <use x="159.033203" xlink:href="#DejaVuSans-35"/>
      </g>
     </g>
    </g>
    <g id="xtick_8">
     <g id="line2d_15">
      <g>
       <use style="stroke:#000000;stroke-width:0.8;" x="510.156219" xlink:href="#mcb9bb1e1bd" y="543.3984"/>
      </g>
     </g>
     <g id="text_13">
      <!-- 2.80 -->
      <g transform="translate(499.023407 557.996838)scale(0.1 -0.1)">
       <use xlink:href="#DejaVuSans-32"/>
       <use x="63.623047" xlink:href="#DejaVuSans-2e"/>
       <use x="95.410156" xlink:href="#DejaVuSans-38"/>
       <use x="159.033203" xlink:href="#DejaVuSans-30"/>
      </g>
     </g>
    </g>
    <g id="xtick_9">
     <g id="line2d_16">
      <g>
       <use style="stroke:#000000;stroke-width:0.8;" x="552.60582" xlink:href="#mcb9bb1e1bd" y="543.3984"/>
      </g>
     </g>
     <g id="text_14">
      <!-- 2.85 -->
      <g transform="translate(541.473007 557.996838)scale(0.1 -0.1)">
       <use xlink:href="#DejaVuSans-32"/>
       <use x="63.623047" xlink:href="#DejaVuSans-2e"/>
       <use x="95.410156" xlink:href="#DejaVuSans-38"/>
       <use x="159.033203" xlink:href="#DejaVuSans-35"/>
      </g>
     </g>
    </g>
    <g id="xtick_10">
     <g id="line2d_17">
      <g>
       <use style="stroke:#000000;stroke-width:0.8;" x="595.05542" xlink:href="#mcb9bb1e1bd" y="543.3984"/>
      </g>
     </g>
     <g id="text_15">
      <!-- 2.90 -->
      <g transform="translate(583.922608 557.996838)scale(0.1 -0.1)">
       <use xlink:href="#DejaVuSans-32"/>
       <use x="63.623047" xlink:href="#DejaVuSans-2e"/>
       <use x="95.410156" xlink:href="#DejaVuSans-39"/>
       <use x="159.033203" xlink:href="#DejaVuSans-30"/>
      </g>
     </g>
    </g>
    <g id="xtick_11">
     <g id="line2d_18">
      <g>
       <use style="stroke:#000000;stroke-width:0.8;" x="637.505021" xlink:href="#mcb9bb1e1bd" y="543.3984"/>
      </g>
     </g>
     <g id="text_16">
      <!-- 2.95 -->
      <g transform="translate(626.372208 557.996838)scale(0.1 -0.1)">
       <use xlink:href="#DejaVuSans-32"/>
       <use x="63.623047" xlink:href="#DejaVuSans-2e"/>
       <use x="95.410156" xlink:href="#DejaVuSans-39"/>
       <use x="159.033203" xlink:href="#DejaVuSans-35"/>
      </g>
     </g>
    </g>
    <g id="xtick_12">
     <g id="line2d_19">
      <g>
       <use style="stroke:#000000;stroke-width:0.8;" x="679.954622" xlink:href="#mcb9bb1e1bd" y="543.3984"/>
      </g>
     </g>
     <g id="text_17">
      <!-- 3.00 -->
      <g transform="translate(668.821809 557.996838)scale(0.1 -0.1)">
       <use xlink:href="#DejaVuSans-33"/>
       <use x="63.623047" xlink:href="#DejaVuSans-2e"/>
       <use x="95.410156" xlink:href="#DejaVuSans-30"/>
       <use x="159.033203" xlink:href="#DejaVuSans-30"/>
      </g>
     </g>
    </g>
   </g>
   <g id="matplotlib.axis_4">
    <g id="ytick_6">
     <g id="line2d_20">
      <g>
       <use style="stroke:#000000;stroke-width:0.8;" x="433.8" xlink:href="#m77293bf857" y="527.51123"/>
      </g>
     </g>
     <g id="text_18">
      <!-- 0.96 -->
      <defs>
       <path d="M 33.015625 40.375 
Q 26.375 40.375 22.484375 35.828125 
Q 18.609375 31.296875 18.609375 23.390625 
Q 18.609375 15.53125 22.484375 10.953125 
Q 26.375 6.390625 33.015625 6.390625 
Q 39.65625 6.390625 43.53125 10.953125 
Q 47.40625 15.53125 47.40625 23.390625 
Q 47.40625 31.296875 43.53125 35.828125 
Q 39.65625 40.375 33.015625 40.375 
z
M 52.59375 71.296875 
L 52.59375 62.3125 
Q 48.875 64.0625 45.09375 64.984375 
Q 41.3125 65.921875 37.59375 65.921875 
Q 27.828125 65.921875 22.671875 59.328125 
Q 17.53125 52.734375 16.796875 39.40625 
Q 19.671875 43.65625 24.015625 45.921875 
Q 28.375 48.1875 33.59375 48.1875 
Q 44.578125 48.1875 50.953125 41.515625 
Q 57.328125 34.859375 57.328125 23.390625 
Q 57.328125 12.15625 50.6875 5.359375 
Q 44.046875 -1.421875 33.015625 -1.421875 
Q 20.359375 -1.421875 13.671875 8.265625 
Q 6.984375 17.96875 6.984375 36.375 
Q 6.984375 53.65625 15.1875 63.9375 
Q 23.390625 74.21875 37.203125 74.21875 
Q 40.921875 74.21875 44.703125 73.484375 
Q 48.484375 72.75 52.59375 71.296875 
z
" id="DejaVuSans-36"/>
      </defs>
      <g transform="translate(404.534375 531.310449)scale(0.1 -0.1)">
       <use xlink:href="#DejaVuSans-30"/>
       <use x="63.623047" xlink:href="#DejaVuSans-2e"/>
       <use x="95.410156" xlink:href="#DejaVuSans-39"/>
       <use x="159.033203" xlink:href="#DejaVuSans-36"/>
      </g>
     </g>
    </g>
    <g id="ytick_7">
     <g id="line2d_21">
      <g>
       <use style="stroke:#000000;stroke-width:0.8;" x="433.8" xlink:href="#m77293bf857" y="458.726651"/>
      </g>
     </g>
     <g id="text_19">
      <!-- 0.97 -->
      <g transform="translate(404.534375 462.52587)scale(0.1 -0.1)">
       <use xlink:href="#DejaVuSans-30"/>
       <use x="63.623047" xlink:href="#DejaVuSans-2e"/>
       <use x="95.410156" xlink:href="#DejaVuSans-39"/>
       <use x="159.033203" xlink:href="#DejaVuSans-37"/>
      </g>
     </g>
    </g>
    <g id="ytick_8">
     <g id="line2d_22">
      <g>
       <use style="stroke:#000000;stroke-width:0.8;" x="433.8" xlink:href="#m77293bf857" y="389.942072"/>
      </g>
     </g>
     <g id="text_20">
      <!-- 0.98 -->
      <g transform="translate(404.534375 393.741291)scale(0.1 -0.1)">
       <use xlink:href="#DejaVuSans-30"/>
       <use x="63.623047" xlink:href="#DejaVuSans-2e"/>
       <use x="95.410156" xlink:href="#DejaVuSans-39"/>
       <use x="159.033203" xlink:href="#DejaVuSans-38"/>
      </g>
     </g>
    </g>
    <g id="ytick_9">
     <g id="line2d_23">
      <g>
       <use style="stroke:#000000;stroke-width:0.8;" x="433.8" xlink:href="#m77293bf857" y="321.157493"/>
      </g>
     </g>
     <g id="text_21">
      <!-- 0.99 -->
      <g transform="translate(404.534375 324.956712)scale(0.1 -0.1)">
       <use xlink:href="#DejaVuSans-30"/>
       <use x="63.623047" xlink:href="#DejaVuSans-2e"/>
       <use x="95.410156" xlink:href="#DejaVuSans-39"/>
       <use x="159.033203" xlink:href="#DejaVuSans-39"/>
      </g>
     </g>
    </g>
    <g id="ytick_10">
     <g id="line2d_24">
      <g>
       <use style="stroke:#000000;stroke-width:0.8;" x="433.8" xlink:href="#m77293bf857" y="252.372914"/>
      </g>
     </g>
     <g id="text_22">
      <!-- 1.00 -->
      <g transform="translate(404.534375 256.172133)scale(0.1 -0.1)">
       <use xlink:href="#DejaVuSans-31"/>
       <use x="63.623047" xlink:href="#DejaVuSans-2e"/>
       <use x="95.410156" xlink:href="#DejaVuSans-30"/>
       <use x="159.033203" xlink:href="#DejaVuSans-30"/>
      </g>
     </g>
    </g>
    <g id="ytick_11">
     <g id="line2d_25">
      <g>
       <use style="stroke:#000000;stroke-width:0.8;" x="433.8" xlink:href="#m77293bf857" y="183.588335"/>
      </g>
     </g>
     <g id="text_23">
      <!-- 1.01 -->
      <g transform="translate(404.534375 187.387554)scale(0.1 -0.1)">
       <use xlink:href="#DejaVuSans-31"/>
       <use x="63.623047" xlink:href="#DejaVuSans-2e"/>
       <use x="95.410156" xlink:href="#DejaVuSans-30"/>
       <use x="159.033203" xlink:href="#DejaVuSans-31"/>
      </g>
     </g>
    </g>
    <g id="ytick_12">
     <g id="line2d_26">
      <g>
       <use style="stroke:#000000;stroke-width:0.8;" x="433.8" xlink:href="#m77293bf857" y="114.803756"/>
      </g>
     </g>
     <g id="text_24">
      <!-- 1.02 -->
      <g transform="translate(404.534375 118.602974)scale(0.1 -0.1)">
       <use xlink:href="#DejaVuSans-31"/>
       <use x="63.623047" xlink:href="#DejaVuSans-2e"/>
       <use x="95.410156" xlink:href="#DejaVuSans-30"/>
       <use x="159.033203" xlink:href="#DejaVuSans-32"/>
      </g>
     </g>
    </g>
   </g>
   <g id="line2d_27">
    <path clip-path="url(#p8ac0ad6c34)" d="M 446.481818 306.955877 
L 447.543058 323.596037 
L 448.604298 168.468568 
L 449.665538 197.963939 
L 450.726778 122.949611 
L 451.788018 274.379711 
L 452.849258 252.372914 
L 453.910498 329.178687 
L 454.971738 253.707694 
L 456.032978 260.031925 
L 457.094218 267.17874 
L 458.155458 347.592612 
L 459.216698 146.73447 
L 460.277938 381.118451 
L 461.339178 202.121755 
L 462.400418 431.81658 
L 463.461658 406.877657 
L 464.522898 401.542686 
L 465.584138 384.808944 
L 466.645378 145.364959 
L 467.706618 354.568302 
L 468.767859 155.760513 
L 469.829099 250.333644 
L 470.890339 187.328395 
L 471.951579 218.87563 
L 473.012819 295.209661 
L 474.074059 311.344009 
L 475.135299 294.642186 
L 476.196539 296.483128 
L 477.257779 236.348956 
L 478.319019 202.7585 
L 479.380259 358.583623 
L 480.441499 161.133498 
L 481.502739 315.122274 
L 482.563979 95.467587 
L 483.625219 222.042157 
L 484.686459 162.097984 
L 485.747699 267.393669 
L 486.808939 99.839252 
L 487.870179 291.908339 
L 488.931419 238.695258 
L 489.992659 250.271338 
L 491.053899 392.427352 
L 492.115139 237.903837 
L 493.176379 216.046685 
L 494.237619 431.485234 
L 495.298859 194.932764 
L 496.360099 109.441155 
L 497.421339 138.664937 
L 498.482579 155.760425 
L 499.543819 361.893724 
L 500.605059 304.695266 
L 501.666299 341.698969 
L 502.727539 154.078814 
L 503.788779 208.124908 
L 504.850019 210.672654 
L 505.911259 204.061867 
L 506.972499 231.99281 
L 508.033739 421.752358 
L 510.156219 244.575816 
L 511.217459 283.265787 
L 512.278699 332.520663 
L 513.339939 369.816095 
L 514.401179 190.694031 
L 515.462419 245.517907 
L 516.523659 247.371958 
L 517.584899 228.507931 
L 518.646139 244.317283 
L 519.707379 351.89044 
L 520.768619 360.547664 
L 521.829859 455.105703 
L 522.891099 308.782083 
L 523.952339 244.373494 
L 525.013579 414.850751 
L 526.074819 460.821422 
L 527.136059 172.378443 
L 528.197299 344.359287 
L 529.258539 274.724297 
L 530.319779 326.582078 
L 531.381019 278.594544 
L 532.442259 373.395484 
L 533.503499 377.031487 
L 534.564739 296.59109 
L 535.625979 395.165359 
L 536.687219 340.046558 
L 537.748459 260.375976 
L 538.8097 290.101976 
L 539.87094 433.50413 
L 540.93218 308.132821 
L 541.99342 322.83087 
L 543.05466 265.082033 
L 544.1159 402.712056 
L 545.17714 330.82906 
L 546.23838 401.5604 
L 547.29962 415.125097 
L 548.36086 301.257837 
L 549.4221 455.877586 
L 550.48334 361.449011 
L 551.54458 351.817976 
L 552.60582 232.821922 
L 553.66706 217.712002 
L 554.7283 279.347259 
L 555.78954 362.468891 
L 556.85078 227.895643 
L 557.91202 227.952353 
L 558.97326 335.25001 
L 560.0345 212.003968 
L 561.09574 280.155081 
L 562.15698 358.090413 
L 563.21822 150.469834 
L 564.27946 94.6368 
L 565.3407 315.679914 
L 566.40194 283.857969 
L 567.46318 407.673622 
L 568.52442 272.931782 
L 569.58566 468.572824 
L 570.6469 323.833013 
L 571.70814 333.125023 
L 572.76938 318.929872 
L 573.83062 417.345021 
L 574.89186 349.715982 
L 575.9531 393.445022 
L 577.01434 319.433089 
L 578.07558 407.24135 
L 579.13682 311.433156 
L 580.19806 384.865445 
L 581.2593 490.346434 
L 582.32054 363.669281 
L 583.38178 489.373246 
L 584.44302 314.041847 
L 585.50426 421.843655 
L 586.5655 486.846433 
L 587.62674 406.388494 
L 588.68798 515.038836 
L 589.74922 420.855947 
L 590.81046 438.053313 
L 591.8717 522.0288 
L 592.93294 389.533362 
L 593.99418 407.323141 
L 595.05542 462.764648 
L 596.11666 507.643747 
L 597.1779 520.903412 
L 598.23914 395.991012 
L 599.30038 386.583299 
L 600.36162 358.457348 
L 601.42286 271.795605 
L 602.4841 326.074492 
L 603.54534 310.788692 
L 604.60658 254.125834 
L 605.66782 315.016996 
L 606.72906 390.918423 
L 607.7903 326.532317 
L 608.851541 480.822857 
L 609.912781 316.356925 
L 610.974021 222.130897 
L 612.035261 357.893699 
L 613.096501 330.813983 
L 614.157741 213.002583 
L 615.218981 299.687882 
L 616.280221 303.342556 
L 617.341461 140.48777 
L 618.402701 147.355608 
L 619.463941 463.04492 
L 620.525181 238.672206 
L 621.586421 403.659675 
L 622.647661 346.48377 
L 623.708901 277.818579 
L 624.770141 319.655211 
L 625.831381 187.077764 
L 626.892621 252.019538 
L 627.953861 216.668577 
L 629.015101 221.751528 
L 630.076341 319.240177 
L 631.137581 254.796735 
L 632.198821 358.372952 
L 633.260061 415.546735 
L 634.321301 255.593668 
L 635.382541 254.530862 
L 636.443781 309.759566 
L 637.505021 337.77707 
L 638.566261 230.38001 
L 639.627501 246.773844 
L 640.688741 258.27419 
L 641.749981 312.122157 
L 642.811221 258.71413 
L 643.872461 318.8212 
L 644.933701 100.673645 
L 645.994941 400.569914 
L 647.056181 189.438007 
L 648.117421 333.484287 
L 649.178661 428.148696 
L 650.239901 352.778108 
L 651.301141 240.098095 
L 652.362381 236.198024 
L 653.423621 350.438586 
L 654.484861 319.815628 
L 655.546101 422.082579 
L 656.607341 172.695442 
L 657.668581 265.268679 
L 658.729821 166.008839 
L 659.791061 268.130721 
L 660.852301 340.886296 
L 661.913541 141.430044 
L 662.974781 408.765116 
L 664.036021 295.576219 
L 665.097261 230.726921 
L 666.158501 285.799737 
L 667.219741 420.062522 
L 668.280981 263.095931 
L 669.342221 250.956209 
L 670.403461 143.360133 
L 671.464701 252.372914 
L 672.525941 216.87389 
L 673.587181 306.886689 
L 674.648421 434.399678 
L 675.709661 349.643327 
L 676.770901 285.468086 
L 677.832141 180.251824 
L 678.893382 397.031789 
L 679.954622 215.150637 
L 681.015862 302.905012 
L 682.077102 160.843442 
L 683.138342 128.738734 
L 684.199582 215.500607 
L 685.260822 152.43011 
L 686.322062 308.364924 
L 687.383302 167.243484 
L 688.444542 233.395919 
L 689.505782 198.621148 
L 690.567022 228.468629 
L 691.628262 290.450155 
L 692.689502 399.518787 
L 693.750742 314.563841 
L 694.811982 322.251553 
L 695.873222 335.070576 
L 696.934462 179.844594 
L 697.995702 283.102391 
L 699.056942 266.124893 
L 700.118182 270.382121 
L 700.118182 270.382121 
" style="fill:none;stroke:#0000ff;stroke-linecap:square;stroke-width:1.5;"/>
   </g>
   <g id="patch_8">
    <path d="M 433.8 543.3984 
L 433.8 73.2672 
" style="fill:none;stroke:#000000;stroke-linecap:square;stroke-linejoin:miter;stroke-width:0.8;"/>
   </g>
   <g id="patch_9">
    <path d="M 712.8 543.3984 
L 712.8 73.2672 
" style="fill:none;stroke:#000000;stroke-linecap:square;stroke-linejoin:miter;stroke-width:0.8;"/>
   </g>
   <g id="patch_10">
    <path d="M 433.8 543.3984 
L 712.8 543.3984 
" style="fill:none;stroke:#000000;stroke-linecap:square;stroke-linejoin:miter;stroke-width:0.8;"/>
   </g>
   <g id="patch_11">
    <path d="M 433.8 73.2672 
L 712.8 73.2672 
" style="fill:none;stroke:#000000;stroke-linecap:square;stroke-linejoin:miter;stroke-width:0.8;"/>
   </g>
  </g>
 </g>
 <defs>
  <clipPath id="pa9b4be3e65">
   <rect height="470.1312" width="279" x="99" y="73.2672"/>
  </clipPath>
  <clipPath id="p8ac0ad6c34">
   <rect height="470.1312" width="279" x="433.8" y="73.2672"/>
  </clipPath>
 </defs>
</svg>
