<?xml version="1.0" encoding="utf-8" standalone="no"?>
<!DOCTYPE svg PUBLIC "-//W3C//DTD SVG 1.1//EN"
  "http://www.w3.org/Graphics/SVG/1.1/DTD/svg11.dtd">
<!-- Created with matplotlib (http://matplotlib.org/) -->
<svg height="610.56pt" version="1.1" viewBox="0 0 792 610.56" width="792pt" xmlns="http://www.w3.org/2000/svg" xmlns:xlink="http://www.w3.org/1999/xlink">
 <defs>
  <style type="text/css">
*{stroke-linecap:butt;stroke-linejoin:round;}
  </style>
 </defs>
 <g id="figure_1">
  <g id="patch_1">
   <path d="M 0 610.56 
L 792 610.56 
L 792 0 
L 0 0 
z
" style="fill:#ffffff;"/>
  </g>
  <g id="axes_1">
   <g id="patch_2">
    <path d="M 99 543.3984 
L 279.529412 543.3984 
L 279.529412 73.2672 
L 99 73.2672 
z
" style="fill:#ffffff;"/>
   </g>
   <g id="matplotlib.axis_1">
    <g id="xtick_1">
     <g id="line2d_1">
      <defs>
       <path d="M 0 0 
L 0 3.5 
" id="m7e4d74b269" style="stroke:#000000;stroke-width:0.8;"/>
      </defs>
      <g>
       <use style="stroke:#000000;stroke-width:0.8;" x="115.550847" xlink:href="#m7e4d74b269" y="543.3984"/>
      </g>
     </g>
     <g id="text_1">
      <!-- −0.070 -->
      <defs>
       <path d="M 10.59375 35.5 
L 73.1875 35.5 
L 73.1875 27.203125 
L 10.59375 27.203125 
z
" id="DejaVuSans-2212"/>
       <path d="M 31.78125 66.40625 
Q 24.171875 66.40625 20.328125 58.90625 
Q 16.5 51.421875 16.5 36.375 
Q 16.5 21.390625 20.328125 13.890625 
Q 24.171875 6.390625 31.78125 6.390625 
Q 39.453125 6.390625 43.28125 13.890625 
Q 47.125 21.390625 47.125 36.375 
Q 47.125 51.421875 43.28125 58.90625 
Q 39.453125 66.40625 31.78125 66.40625 
z
M 31.78125 74.21875 
Q 44.046875 74.21875 50.515625 64.515625 
Q 56.984375 54.828125 56.984375 36.375 
Q 56.984375 17.96875 50.515625 8.265625 
Q 44.046875 -1.421875 31.78125 -1.421875 
Q 19.53125 -1.421875 13.0625 8.265625 
Q 6.59375 17.96875 6.59375 36.375 
Q 6.59375 54.828125 13.0625 64.515625 
Q 19.53125 74.21875 31.78125 74.21875 
z
" id="DejaVuSans-30"/>
       <path d="M 10.6875 12.40625 
L 21 12.40625 
L 21 0 
L 10.6875 0 
z
" id="DejaVuSans-2e"/>
       <path d="M 8.203125 72.90625 
L 55.078125 72.90625 
L 55.078125 68.703125 
L 28.609375 0 
L 18.3125 0 
L 43.21875 64.59375 
L 8.203125 64.59375 
z
" id="DejaVuSans-37"/>
      </defs>
      <g transform="translate(97.046941 557.996838)scale(0.1 -0.1)">
       <use xlink:href="#DejaVuSans-2212"/>
       <use x="83.789062" xlink:href="#DejaVuSans-30"/>
       <use x="147.412109" xlink:href="#DejaVuSans-2e"/>
       <use x="179.199219" xlink:href="#DejaVuSans-30"/>
       <use x="242.822266" xlink:href="#DejaVuSans-37"/>
       <use x="306.445312" xlink:href="#DejaVuSans-30"/>
      </g>
     </g>
    </g>
    <g id="xtick_2">
     <g id="line2d_2">
      <g>
       <use style="stroke:#000000;stroke-width:0.8;" x="157.275673" xlink:href="#m7e4d74b269" y="543.3984"/>
      </g>
     </g>
     <g id="text_2">
      <!-- −0.065 -->
      <defs>
       <path d="M 33.015625 40.375 
Q 26.375 40.375 22.484375 35.828125 
Q 18.609375 31.296875 18.609375 23.390625 
Q 18.609375 15.53125 22.484375 10.953125 
Q 26.375 6.390625 33.015625 6.390625 
Q 39.65625 6.390625 43.53125 10.953125 
Q 47.40625 15.53125 47.40625 23.390625 
Q 47.40625 31.296875 43.53125 35.828125 
Q 39.65625 40.375 33.015625 40.375 
z
M 52.59375 71.296875 
L 52.59375 62.3125 
Q 48.875 64.0625 45.09375 64.984375 
Q 41.3125 65.921875 37.59375 65.921875 
Q 27.828125 65.921875 22.671875 59.328125 
Q 17.53125 52.734375 16.796875 39.40625 
Q 19.671875 43.65625 24.015625 45.921875 
Q 28.375 48.1875 33.59375 48.1875 
Q 44.578125 48.1875 50.953125 41.515625 
Q 57.328125 34.859375 57.328125 23.390625 
Q 57.328125 12.15625 50.6875 5.359375 
Q 44.046875 -1.421875 33.015625 -1.421875 
Q 20.359375 -1.421875 13.671875 8.265625 
Q 6.984375 17.96875 6.984375 36.375 
Q 6.984375 53.65625 15.1875 63.9375 
Q 23.390625 74.21875 37.203125 74.21875 
Q 40.921875 74.21875 44.703125 73.484375 
Q 48.484375 72.75 52.59375 71.296875 
z
" id="DejaVuSans-36"/>
       <path d="M 10.796875 72.90625 
L 49.515625 72.90625 
L 49.515625 64.59375 
L 19.828125 64.59375 
L 19.828125 46.734375 
Q 21.96875 47.46875 24.109375 47.828125 
Q 26.265625 48.1875 28.421875 48.1875 
Q 40.625 48.1875 47.75 41.5 
Q 54.890625 34.8125 54.890625 23.390625 
Q 54.890625 11.625 47.5625 5.09375 
Q 40.234375 -1.421875 26.90625 -1.421875 
Q 22.3125 -1.421875 17.546875 -0.640625 
Q 12.796875 0.140625 7.71875 1.703125 
L 7.71875 11.625 
Q 12.109375 9.234375 16.796875 8.0625 
Q 21.484375 6.890625 26.703125 6.890625 
Q 35.15625 6.890625 40.078125 11.328125 
Q 45.015625 15.765625 45.015625 23.390625 
Q 45.015625 31 40.078125 35.4375 
Q 35.15625 39.890625 26.703125 39.890625 
Q 22.75 39.890625 18.8125 39.015625 
Q 14.890625 38.140625 10.796875 36.28125 
z
" id="DejaVuSans-35"/>
      </defs>
      <g transform="translate(138.771767 557.996838)scale(0.1 -0.1)">
       <use xlink:href="#DejaVuSans-2212"/>
       <use x="83.789062" xlink:href="#DejaVuSans-30"/>
       <use x="147.412109" xlink:href="#DejaVuSans-2e"/>
       <use x="179.199219" xlink:href="#DejaVuSans-30"/>
       <use x="242.822266" xlink:href="#DejaVuSans-36"/>
       <use x="306.445312" xlink:href="#DejaVuSans-35"/>
      </g>
     </g>
    </g>
    <g id="xtick_3">
     <g id="line2d_3">
      <g>
       <use style="stroke:#000000;stroke-width:0.8;" x="199.000499" xlink:href="#m7e4d74b269" y="543.3984"/>
      </g>
     </g>
     <g id="text_3">
      <!-- −0.060 -->
      <g transform="translate(180.496592 557.996838)scale(0.1 -0.1)">
       <use xlink:href="#DejaVuSans-2212"/>
       <use x="83.789062" xlink:href="#DejaVuSans-30"/>
       <use x="147.412109" xlink:href="#DejaVuSans-2e"/>
       <use x="179.199219" xlink:href="#DejaVuSans-30"/>
       <use x="242.822266" xlink:href="#DejaVuSans-36"/>
       <use x="306.445312" xlink:href="#DejaVuSans-30"/>
      </g>
     </g>
    </g>
    <g id="xtick_4">
     <g id="line2d_4">
      <g>
       <use style="stroke:#000000;stroke-width:0.8;" x="240.725324" xlink:href="#m7e4d74b269" y="543.3984"/>
      </g>
     </g>
     <g id="text_4">
      <!-- −0.055 -->
      <g transform="translate(222.221418 557.996838)scale(0.1 -0.1)">
       <use xlink:href="#DejaVuSans-2212"/>
       <use x="83.789062" xlink:href="#DejaVuSans-30"/>
       <use x="147.412109" xlink:href="#DejaVuSans-2e"/>
       <use x="179.199219" xlink:href="#DejaVuSans-30"/>
       <use x="242.822266" xlink:href="#DejaVuSans-35"/>
       <use x="306.445312" xlink:href="#DejaVuSans-35"/>
      </g>
     </g>
    </g>
   </g>
   <g id="matplotlib.axis_2">
    <g id="ytick_1">
     <g id="line2d_5">
      <defs>
       <path d="M 0 0 
L -3.5 0 
" id="m828ece8a3d" style="stroke:#000000;stroke-width:0.8;"/>
      </defs>
      <g>
       <use style="stroke:#000000;stroke-width:0.8;" x="99" xlink:href="#m828ece8a3d" y="482.59078"/>
      </g>
     </g>
     <g id="text_5">
      <!-- 100 -->
      <defs>
       <path d="M 12.40625 8.296875 
L 28.515625 8.296875 
L 28.515625 63.921875 
L 10.984375 60.40625 
L 10.984375 69.390625 
L 28.421875 72.90625 
L 38.28125 72.90625 
L 38.28125 8.296875 
L 54.390625 8.296875 
L 54.390625 0 
L 12.40625 0 
z
" id="DejaVuSans-31"/>
      </defs>
      <g transform="translate(72.9125 486.389999)scale(0.1 -0.1)">
       <use xlink:href="#DejaVuSans-31"/>
       <use x="63.623047" xlink:href="#DejaVuSans-30"/>
       <use x="127.246094" xlink:href="#DejaVuSans-30"/>
      </g>
     </g>
    </g>
    <g id="ytick_2">
     <g id="line2d_6">
      <g>
       <use style="stroke:#000000;stroke-width:0.8;" x="99" xlink:href="#m828ece8a3d" y="396.855953"/>
      </g>
     </g>
     <g id="text_6">
      <!-- 150 -->
      <g transform="translate(72.9125 400.655172)scale(0.1 -0.1)">
       <use xlink:href="#DejaVuSans-31"/>
       <use x="63.623047" xlink:href="#DejaVuSans-35"/>
       <use x="127.246094" xlink:href="#DejaVuSans-30"/>
      </g>
     </g>
    </g>
    <g id="ytick_3">
     <g id="line2d_7">
      <g>
       <use style="stroke:#000000;stroke-width:0.8;" x="99" xlink:href="#m828ece8a3d" y="311.121127"/>
      </g>
     </g>
     <g id="text_7">
      <!-- 200 -->
      <defs>
       <path d="M 19.1875 8.296875 
L 53.609375 8.296875 
L 53.609375 0 
L 7.328125 0 
L 7.328125 8.296875 
Q 12.9375 14.109375 22.625 23.890625 
Q 32.328125 33.6875 34.8125 36.53125 
Q 39.546875 41.84375 41.421875 45.53125 
Q 43.3125 49.21875 43.3125 52.78125 
Q 43.3125 58.59375 39.234375 62.25 
Q 35.15625 65.921875 28.609375 65.921875 
Q 23.96875 65.921875 18.8125 64.3125 
Q 13.671875 62.703125 7.8125 59.421875 
L 7.8125 69.390625 
Q 13.765625 71.78125 18.9375 73 
Q 24.125 74.21875 28.421875 74.21875 
Q 39.75 74.21875 46.484375 68.546875 
Q 53.21875 62.890625 53.21875 53.421875 
Q 53.21875 48.921875 51.53125 44.890625 
Q 49.859375 40.875 45.40625 35.40625 
Q 44.1875 33.984375 37.640625 27.21875 
Q 31.109375 20.453125 19.1875 8.296875 
z
" id="DejaVuSans-32"/>
      </defs>
      <g transform="translate(72.9125 314.920345)scale(0.1 -0.1)">
       <use xlink:href="#DejaVuSans-32"/>
       <use x="63.623047" xlink:href="#DejaVuSans-30"/>
       <use x="127.246094" xlink:href="#DejaVuSans-30"/>
      </g>
     </g>
    </g>
    <g id="ytick_4">
     <g id="line2d_8">
      <g>
       <use style="stroke:#000000;stroke-width:0.8;" x="99" xlink:href="#m828ece8a3d" y="225.3863"/>
      </g>
     </g>
     <g id="text_8">
      <!-- 250 -->
      <g transform="translate(72.9125 229.185519)scale(0.1 -0.1)">
       <use xlink:href="#DejaVuSans-32"/>
       <use x="63.623047" xlink:href="#DejaVuSans-35"/>
       <use x="127.246094" xlink:href="#DejaVuSans-30"/>
      </g>
     </g>
    </g>
    <g id="ytick_5">
     <g id="line2d_9">
      <g>
       <use style="stroke:#000000;stroke-width:0.8;" x="99" xlink:href="#m828ece8a3d" y="139.651474"/>
      </g>
     </g>
     <g id="text_9">
      <!-- 300 -->
      <defs>
       <path d="M 40.578125 39.3125 
Q 47.65625 37.796875 51.625 33 
Q 55.609375 28.21875 55.609375 21.1875 
Q 55.609375 10.40625 48.1875 4.484375 
Q 40.765625 -1.421875 27.09375 -1.421875 
Q 22.515625 -1.421875 17.65625 -0.515625 
Q 12.796875 0.390625 7.625 2.203125 
L 7.625 11.71875 
Q 11.71875 9.328125 16.59375 8.109375 
Q 21.484375 6.890625 26.8125 6.890625 
Q 36.078125 6.890625 40.9375 10.546875 
Q 45.796875 14.203125 45.796875 21.1875 
Q 45.796875 27.640625 41.28125 31.265625 
Q 36.765625 34.90625 28.71875 34.90625 
L 20.21875 34.90625 
L 20.21875 43.015625 
L 29.109375 43.015625 
Q 36.375 43.015625 40.234375 45.921875 
Q 44.09375 48.828125 44.09375 54.296875 
Q 44.09375 59.90625 40.109375 62.90625 
Q 36.140625 65.921875 28.71875 65.921875 
Q 24.65625 65.921875 20.015625 65.03125 
Q 15.375 64.15625 9.8125 62.3125 
L 9.8125 71.09375 
Q 15.4375 72.65625 20.34375 73.4375 
Q 25.25 74.21875 29.59375 74.21875 
Q 40.828125 74.21875 47.359375 69.109375 
Q 53.90625 64.015625 53.90625 55.328125 
Q 53.90625 49.265625 50.4375 45.09375 
Q 46.96875 40.921875 40.578125 39.3125 
z
" id="DejaVuSans-33"/>
      </defs>
      <g transform="translate(72.9125 143.450692)scale(0.1 -0.1)">
       <use xlink:href="#DejaVuSans-33"/>
       <use x="63.623047" xlink:href="#DejaVuSans-30"/>
       <use x="127.246094" xlink:href="#DejaVuSans-30"/>
      </g>
     </g>
    </g>
   </g>
   <g id="line2d_10">
    <path clip-path="url(#p3ba5e8c943)" d="M 107.205882 492.878959 
L 109.987537 503.167138 
L 112.769192 510.025924 
L 115.550847 487.734869 
L 118.332502 508.311228 
L 121.114158 486.020173 
L 123.895813 513.455317 
L 126.677468 504.881835 
L 129.459123 499.737745 
L 132.240778 480.876083 
L 135.022433 522.0288 
L 137.804088 506.596531 
L 140.585743 510.025924 
L 143.367398 504.881835 
L 146.149053 487.734869 
L 148.930708 470.587904 
L 151.712363 494.593656 
L 154.494018 474.017297 
L 157.275673 460.299725 
L 160.057328 429.435187 
L 162.838983 453.440939 
L 165.620638 422.576401 
L 168.402293 348.84445 
L 171.183948 302.547644 
L 173.965603 199.665852 
L 176.747258 180.80419 
L 179.528913 143.080867 
L 182.310568 122.504508 
L 185.092223 107.07224 
L 187.873878 100.213453 
L 190.655533 124.219205 
L 193.437188 197.951156 
L 196.218843 278.541893 
L 199.000499 341.985664 
L 201.782154 353.98854 
L 204.563809 408.858829 
L 207.345464 432.86458 
L 210.127119 460.299725 
L 212.908774 472.302601 
L 215.690429 487.734869 
L 218.472084 501.452442 
L 221.253739 482.59078 
L 224.035394 474.017297 
L 226.817049 480.876083 
L 229.598704 477.44669 
L 232.380359 492.878959 
L 235.162014 467.158511 
L 237.943669 480.876083 
L 240.725324 410.573526 
L 243.506979 427.720491 
L 246.288634 482.59078 
L 249.070289 432.86458 
L 251.851944 465.443814 
L 254.633599 475.731994 
L 257.415254 504.881835 
L 260.196909 501.452442 
L 262.978564 492.878959 
L 265.760219 513.455317 
L 268.541874 511.740621 
L 271.323529 496.308352 
" style="fill:none;stroke:#1f77b4;stroke-linecap:square;stroke-width:1.5;"/>
   </g>
   <g id="line2d_11">
    <path clip-path="url(#p3ba5e8c943)" d="M 107.205882 488.214951 
L 139.569422 488.110216 
L 142.855061 487.881439 
L 145.155008 487.502849 
L 146.797827 487.022574 
L 148.276365 486.353941 
L 149.59062 485.491487 
L 150.740594 484.45814 
L 151.890567 483.088142 
L 152.876259 481.579533 
L 153.86195 479.694579 
L 154.847642 477.360251 
L 155.833333 474.495203 
L 156.819025 471.010396 
L 157.968998 466.033636 
L 159.118972 459.923112 
L 160.268945 452.515203 
L 161.418919 443.649411 
L 162.568892 433.176873 
L 163.883148 419.079003 
L 165.197403 402.581177 
L 166.675941 381.084468 
L 168.31876 353.649169 
L 170.125861 319.617632 
L 172.59009 268.536189 
L 177.025702 175.86779 
L 178.668521 146.536893 
L 179.982777 126.856045 
L 181.13275 113.054782 
L 181.95416 105.403701 
L 182.77557 99.73372 
L 183.432697 96.686945 
L 183.925543 95.292608 
L 184.254107 94.792207 
L 184.582671 94.6368 
L 184.911235 94.826795 
L 185.239799 95.361693 
L 185.732644 96.807406 
L 186.22549 99.017235 
L 186.882618 103.129184 
L 187.704028 110.079766 
L 188.525437 118.936393 
L 189.511129 131.880811 
L 190.661102 149.806166 
L 192.13964 176.49876 
L 194.111023 216.461797 
L 200.025172 339.252465 
L 201.832273 371.086942 
L 203.475093 396.227204 
L 204.95363 415.580323 
L 206.267886 430.208647 
L 207.582141 442.536942 
L 208.896396 452.746712 
L 210.04637 460.115229 
L 211.196343 466.191038 
L 212.346317 471.137737 
L 213.49629 475.115002 
L 214.646264 478.273443 
L 215.796237 480.751066 
L 216.946211 482.671149 
L 218.096184 484.141331 
L 219.246158 485.253644 
L 220.396131 486.085261 
L 221.710387 486.772907 
L 223.188924 487.300453 
L 224.996025 487.703329 
L 227.295972 487.979855 
L 230.745893 488.147395 
L 237.810016 488.211064 
L 271.323529 488.214951 
L 271.323529 488.214951 
" style="fill:none;stroke:#ff7f0e;stroke-linecap:square;stroke-width:1.5;"/>
   </g>
   <g id="patch_3">
    <path d="M 99 543.3984 
L 99 73.2672 
" style="fill:none;stroke:#000000;stroke-linecap:square;stroke-linejoin:miter;stroke-width:0.8;"/>
   </g>
   <g id="patch_4">
    <path d="M 279.529412 543.3984 
L 279.529412 73.2672 
" style="fill:none;stroke:#000000;stroke-linecap:square;stroke-linejoin:miter;stroke-width:0.8;"/>
   </g>
   <g id="patch_5">
    <path d="M 99 543.3984 
L 279.529412 543.3984 
" style="fill:none;stroke:#000000;stroke-linecap:square;stroke-linejoin:miter;stroke-width:0.8;"/>
   </g>
   <g id="patch_6">
    <path d="M 99 73.2672 
L 279.529412 73.2672 
" style="fill:none;stroke:#000000;stroke-linecap:square;stroke-linejoin:miter;stroke-width:0.8;"/>
   </g>
   <g id="text_10">
    <g id="patch_7">
     <path d="M 108.026471 152.32401 
L 194.201471 152.32401 
Q 197.801471 152.32401 197.801471 148.72401 
L 197.801471 96.77376 
Q 197.801471 93.17376 194.201471 93.17376 
L 108.026471 93.17376 
Q 104.426471 93.17376 104.426471 96.77376 
L 104.426471 148.72401 
Q 104.426471 152.32401 108.026471 152.32401 
z
" style="fill:#f5deb3;opacity:0.5;stroke:#000000;stroke-linejoin:miter;"/>
    </g>
    <!-- a=229.533 -->
    <defs>
     <path d="M 34.28125 27.484375 
Q 23.390625 27.484375 19.1875 25 
Q 14.984375 22.515625 14.984375 16.5 
Q 14.984375 11.71875 18.140625 8.90625 
Q 21.296875 6.109375 26.703125 6.109375 
Q 34.1875 6.109375 38.703125 11.40625 
Q 43.21875 16.703125 43.21875 25.484375 
L 43.21875 27.484375 
z
M 52.203125 31.203125 
L 52.203125 0 
L 43.21875 0 
L 43.21875 8.296875 
Q 40.140625 3.328125 35.546875 0.953125 
Q 30.953125 -1.421875 24.3125 -1.421875 
Q 15.921875 -1.421875 10.953125 3.296875 
Q 6 8.015625 6 15.921875 
Q 6 25.140625 12.171875 29.828125 
Q 18.359375 34.515625 30.609375 34.515625 
L 43.21875 34.515625 
L 43.21875 35.40625 
Q 43.21875 41.609375 39.140625 45 
Q 35.0625 48.390625 27.6875 48.390625 
Q 23 48.390625 18.546875 47.265625 
Q 14.109375 46.140625 10.015625 43.890625 
L 10.015625 52.203125 
Q 14.9375 54.109375 19.578125 55.046875 
Q 24.21875 56 28.609375 56 
Q 40.484375 56 46.34375 49.84375 
Q 52.203125 43.703125 52.203125 31.203125 
z
" id="DejaVuSans-61"/>
     <path d="M 10.59375 45.40625 
L 73.1875 45.40625 
L 73.1875 37.203125 
L 10.59375 37.203125 
z
M 10.59375 25.484375 
L 73.1875 25.484375 
L 73.1875 17.1875 
L 10.59375 17.1875 
z
" id="DejaVuSans-3d"/>
     <path d="M 10.984375 1.515625 
L 10.984375 10.5 
Q 14.703125 8.734375 18.5 7.8125 
Q 22.3125 6.890625 25.984375 6.890625 
Q 35.75 6.890625 40.890625 13.453125 
Q 46.046875 20.015625 46.78125 33.40625 
Q 43.953125 29.203125 39.59375 26.953125 
Q 35.25 24.703125 29.984375 24.703125 
Q 19.046875 24.703125 12.671875 31.3125 
Q 6.296875 37.9375 6.296875 49.421875 
Q 6.296875 60.640625 12.9375 67.421875 
Q 19.578125 74.21875 30.609375 74.21875 
Q 43.265625 74.21875 49.921875 64.515625 
Q 56.59375 54.828125 56.59375 36.375 
Q 56.59375 19.140625 48.40625 8.859375 
Q 40.234375 -1.421875 26.421875 -1.421875 
Q 22.703125 -1.421875 18.890625 -0.6875 
Q 15.09375 0.046875 10.984375 1.515625 
z
M 30.609375 32.421875 
Q 37.25 32.421875 41.125 36.953125 
Q 45.015625 41.5 45.015625 49.421875 
Q 45.015625 57.28125 41.125 61.84375 
Q 37.25 66.40625 30.609375 66.40625 
Q 23.96875 66.40625 20.09375 61.84375 
Q 16.21875 57.28125 16.21875 49.421875 
Q 16.21875 41.5 20.09375 36.953125 
Q 23.96875 32.421875 30.609375 32.421875 
z
" id="DejaVuSans-39"/>
    </defs>
    <g transform="translate(108.026471 105.891885)scale(0.12 -0.12)">
     <use xlink:href="#DejaVuSans-61"/>
     <use x="61.279297" xlink:href="#DejaVuSans-3d"/>
     <use x="145.068359" xlink:href="#DejaVuSans-32"/>
     <use x="208.691406" xlink:href="#DejaVuSans-32"/>
     <use x="272.314453" xlink:href="#DejaVuSans-39"/>
     <use x="335.9375" xlink:href="#DejaVuSans-2e"/>
     <use x="367.724609" xlink:href="#DejaVuSans-35"/>
     <use x="431.347656" xlink:href="#DejaVuSans-33"/>
     <use x="494.970703" xlink:href="#DejaVuSans-33"/>
    </g>
    <!-- $\mu$=-0.062 -->
    <defs>
     <path d="M -1.3125 -20.796875 
L 13.375 54.6875 
L 22.40625 54.6875 
L 15.765625 20.65625 
Q 15.578125 19.625 15.421875 18.359375 
Q 15.28125 17.09375 15.28125 15.828125 
Q 15.28125 11.28125 18.140625 8.828125 
Q 21 6.390625 26.3125 6.390625 
Q 33.546875 6.390625 37.984375 10.484375 
Q 42.4375 14.59375 44 22.796875 
L 50.203125 54.6875 
L 59.1875 54.6875 
L 51.03125 12.640625 
Q 50.828125 11.71875 50.75 11.03125 
Q 50.6875 10.359375 50.6875 9.8125 
Q 50.6875 8.296875 51.296875 7.59375 
Q 51.90625 6.890625 53.21875 6.890625 
Q 53.71875 6.890625 54.5625 7.125 
Q 55.421875 7.375 56.984375 8.015625 
L 55.609375 0.78125 
Q 53.46875 -0.296875 51.515625 -0.859375 
Q 49.5625 -1.421875 47.703125 -1.421875 
Q 44.484375 -1.421875 42.65625 0.625 
Q 40.828125 2.6875 40.828125 6.296875 
Q 38.09375 2.390625 34.296875 0.484375 
Q 30.515625 -1.421875 25.390625 -1.421875 
Q 20.84375 -1.421875 17.453125 0.671875 
Q 14.0625 2.78125 12.984375 6.203125 
L 7.71875 -20.796875 
z
" id="DejaVuSans-Oblique-3bc"/>
     <path d="M 4.890625 31.390625 
L 31.203125 31.390625 
L 31.203125 23.390625 
L 4.890625 23.390625 
z
" id="DejaVuSans-2d"/>
    </defs>
    <g transform="translate(108.026471 119.32926)scale(0.12 -0.12)">
     <use transform="translate(0 0.78125)" xlink:href="#DejaVuSans-Oblique-3bc"/>
     <use transform="translate(63.623047 0.78125)" xlink:href="#DejaVuSans-3d"/>
     <use transform="translate(147.412109 0.78125)" xlink:href="#DejaVuSans-2d"/>
     <use transform="translate(183.496094 0.78125)" xlink:href="#DejaVuSans-30"/>
     <use transform="translate(247.119141 0.78125)" xlink:href="#DejaVuSans-2e"/>
     <use transform="translate(278.90625 0.78125)" xlink:href="#DejaVuSans-30"/>
     <use transform="translate(342.529297 0.78125)" xlink:href="#DejaVuSans-36"/>
     <use transform="translate(406.152344 0.78125)" xlink:href="#DejaVuSans-32"/>
    </g>
    <!-- $\sigma$=0.001 -->
    <defs>
     <path d="M 34.671875 47.5625 
Q 27.25 47.5625 22.21875 42.1875 
Q 16.890625 36.578125 15.140625 27.296875 
Q 13.1875 17.484375 16.3125 11.8125 
Q 19.390625 6.203125 26.65625 6.203125 
Q 33.84375 6.203125 39.109375 11.859375 
Q 44.4375 17.53125 46.34375 27.296875 
Q 48.046875 36.234375 45.015625 42.1875 
Q 42.1875 47.5625 34.671875 47.5625 
z
M 36.078125 54.734375 
L 65.921875 54.6875 
L 64.15625 45.703125 
L 54.109375 45.703125 
Q 57.90625 38.09375 55.859375 27.296875 
Q 53.21875 13.875 45.0625 6.25 
Q 36.859375 -1.421875 25.140625 -1.421875 
Q 13.375 -1.421875 8.203125 6.25 
Q 3.03125 13.875 5.671875 27.296875 
Q 8.25 40.765625 16.40625 48.390625 
Q 23.1875 54.734375 36.078125 54.734375 
z
" id="DejaVuSans-Oblique-3c3"/>
    </defs>
    <g transform="translate(108.026471 132.79101)scale(0.12 -0.12)">
     <use transform="translate(0 0.78125)" xlink:href="#DejaVuSans-Oblique-3c3"/>
     <use transform="translate(63.378906 0.78125)" xlink:href="#DejaVuSans-3d"/>
     <use transform="translate(147.167969 0.78125)" xlink:href="#DejaVuSans-30"/>
     <use transform="translate(210.791016 0.78125)" xlink:href="#DejaVuSans-2e"/>
     <use transform="translate(242.578125 0.78125)" xlink:href="#DejaVuSans-30"/>
     <use transform="translate(306.201172 0.78125)" xlink:href="#DejaVuSans-30"/>
     <use transform="translate(369.824219 0.78125)" xlink:href="#DejaVuSans-31"/>
    </g>
    <!-- offset=96.720 -->
    <defs>
     <path d="M 30.609375 48.390625 
Q 23.390625 48.390625 19.1875 42.75 
Q 14.984375 37.109375 14.984375 27.296875 
Q 14.984375 17.484375 19.15625 11.84375 
Q 23.34375 6.203125 30.609375 6.203125 
Q 37.796875 6.203125 41.984375 11.859375 
Q 46.1875 17.53125 46.1875 27.296875 
Q 46.1875 37.015625 41.984375 42.703125 
Q 37.796875 48.390625 30.609375 48.390625 
z
M 30.609375 56 
Q 42.328125 56 49.015625 48.375 
Q 55.71875 40.765625 55.71875 27.296875 
Q 55.71875 13.875 49.015625 6.21875 
Q 42.328125 -1.421875 30.609375 -1.421875 
Q 18.84375 -1.421875 12.171875 6.21875 
Q 5.515625 13.875 5.515625 27.296875 
Q 5.515625 40.765625 12.171875 48.375 
Q 18.84375 56 30.609375 56 
z
" id="DejaVuSans-6f"/>
     <path d="M 37.109375 75.984375 
L 37.109375 68.5 
L 28.515625 68.5 
Q 23.6875 68.5 21.796875 66.546875 
Q 19.921875 64.59375 19.921875 59.515625 
L 19.921875 54.6875 
L 34.71875 54.6875 
L 34.71875 47.703125 
L 19.921875 47.703125 
L 19.921875 0 
L 10.890625 0 
L 10.890625 47.703125 
L 2.296875 47.703125 
L 2.296875 54.6875 
L 10.890625 54.6875 
L 10.890625 58.5 
Q 10.890625 67.625 15.140625 71.796875 
Q 19.390625 75.984375 28.609375 75.984375 
z
" id="DejaVuSans-66"/>
     <path d="M 44.28125 53.078125 
L 44.28125 44.578125 
Q 40.484375 46.53125 36.375 47.5 
Q 32.28125 48.484375 27.875 48.484375 
Q 21.1875 48.484375 17.84375 46.4375 
Q 14.5 44.390625 14.5 40.28125 
Q 14.5 37.15625 16.890625 35.375 
Q 19.28125 33.59375 26.515625 31.984375 
L 29.59375 31.296875 
Q 39.15625 29.25 43.1875 25.515625 
Q 47.21875 21.78125 47.21875 15.09375 
Q 47.21875 7.46875 41.1875 3.015625 
Q 35.15625 -1.421875 24.609375 -1.421875 
Q 20.21875 -1.421875 15.453125 -0.5625 
Q 10.6875 0.296875 5.421875 2 
L 5.421875 11.28125 
Q 10.40625 8.6875 15.234375 7.390625 
Q 20.0625 6.109375 24.8125 6.109375 
Q 31.15625 6.109375 34.5625 8.28125 
Q 37.984375 10.453125 37.984375 14.40625 
Q 37.984375 18.0625 35.515625 20.015625 
Q 33.0625 21.96875 24.703125 23.78125 
L 21.578125 24.515625 
Q 13.234375 26.265625 9.515625 29.90625 
Q 5.8125 33.546875 5.8125 39.890625 
Q 5.8125 47.609375 11.28125 51.796875 
Q 16.75 56 26.8125 56 
Q 31.78125 56 36.171875 55.265625 
Q 40.578125 54.546875 44.28125 53.078125 
z
" id="DejaVuSans-73"/>
     <path d="M 56.203125 29.59375 
L 56.203125 25.203125 
L 14.890625 25.203125 
Q 15.484375 15.921875 20.484375 11.0625 
Q 25.484375 6.203125 34.421875 6.203125 
Q 39.59375 6.203125 44.453125 7.46875 
Q 49.3125 8.734375 54.109375 11.28125 
L 54.109375 2.78125 
Q 49.265625 0.734375 44.1875 -0.34375 
Q 39.109375 -1.421875 33.890625 -1.421875 
Q 20.796875 -1.421875 13.15625 6.1875 
Q 5.515625 13.8125 5.515625 26.8125 
Q 5.515625 40.234375 12.765625 48.109375 
Q 20.015625 56 32.328125 56 
Q 43.359375 56 49.78125 48.890625 
Q 56.203125 41.796875 56.203125 29.59375 
z
M 47.21875 32.234375 
Q 47.125 39.59375 43.09375 43.984375 
Q 39.0625 48.390625 32.421875 48.390625 
Q 24.90625 48.390625 20.390625 44.140625 
Q 15.875 39.890625 15.1875 32.171875 
z
" id="DejaVuSans-65"/>
     <path d="M 18.3125 70.21875 
L 18.3125 54.6875 
L 36.8125 54.6875 
L 36.8125 47.703125 
L 18.3125 47.703125 
L 18.3125 18.015625 
Q 18.3125 11.328125 20.140625 9.421875 
Q 21.96875 7.515625 27.59375 7.515625 
L 36.8125 7.515625 
L 36.8125 0 
L 27.59375 0 
Q 17.1875 0 13.234375 3.875 
Q 9.28125 7.765625 9.28125 18.015625 
L 9.28125 47.703125 
L 2.6875 47.703125 
L 2.6875 54.6875 
L 9.28125 54.6875 
L 9.28125 70.21875 
z
" id="DejaVuSans-74"/>
    </defs>
    <g transform="translate(108.026471 146.228385)scale(0.12 -0.12)">
     <use xlink:href="#DejaVuSans-6f"/>
     <use x="61.181641" xlink:href="#DejaVuSans-66"/>
     <use x="96.386719" xlink:href="#DejaVuSans-66"/>
     <use x="131.591797" xlink:href="#DejaVuSans-73"/>
     <use x="183.691406" xlink:href="#DejaVuSans-65"/>
     <use x="245.214844" xlink:href="#DejaVuSans-74"/>
     <use x="284.423828" xlink:href="#DejaVuSans-3d"/>
     <use x="368.212891" xlink:href="#DejaVuSans-39"/>
     <use x="431.835938" xlink:href="#DejaVuSans-36"/>
     <use x="495.458984" xlink:href="#DejaVuSans-2e"/>
     <use x="527.246094" xlink:href="#DejaVuSans-37"/>
     <use x="590.869141" xlink:href="#DejaVuSans-32"/>
     <use x="654.492188" xlink:href="#DejaVuSans-30"/>
    </g>
   </g>
   <g id="text_11">
    <!-- X Axis -->
    <defs>
     <path d="M 6.296875 72.90625 
L 16.890625 72.90625 
L 35.015625 45.796875 
L 53.21875 72.90625 
L 63.8125 72.90625 
L 40.375 37.890625 
L 65.375 0 
L 54.78125 0 
L 34.28125 31 
L 13.625 0 
L 2.984375 0 
L 29 38.921875 
z
" id="DejaVuSans-58"/>
     <path id="DejaVuSans-20"/>
     <path d="M 34.1875 63.1875 
L 20.796875 26.90625 
L 47.609375 26.90625 
z
M 28.609375 72.90625 
L 39.796875 72.90625 
L 67.578125 0 
L 57.328125 0 
L 50.6875 18.703125 
L 17.828125 18.703125 
L 11.1875 0 
L 0.78125 0 
z
" id="DejaVuSans-41"/>
     <path d="M 54.890625 54.6875 
L 35.109375 28.078125 
L 55.90625 0 
L 45.3125 0 
L 29.390625 21.484375 
L 13.484375 0 
L 2.875 0 
L 24.125 28.609375 
L 4.6875 54.6875 
L 15.28125 54.6875 
L 29.78125 35.203125 
L 44.28125 54.6875 
z
" id="DejaVuSans-78"/>
     <path d="M 9.421875 54.6875 
L 18.40625 54.6875 
L 18.40625 0 
L 9.421875 0 
z
M 9.421875 75.984375 
L 18.40625 75.984375 
L 18.40625 64.59375 
L 9.421875 64.59375 
z
" id="DejaVuSans-69"/>
    </defs>
    <g transform="translate(170.799706 67.2672)scale(0.12 -0.12)">
     <use xlink:href="#DejaVuSans-58"/>
     <use x="68.505859" xlink:href="#DejaVuSans-20"/>
     <use x="100.292969" xlink:href="#DejaVuSans-41"/>
     <use x="168.701172" xlink:href="#DejaVuSans-78"/>
     <use x="227.880859" xlink:href="#DejaVuSans-69"/>
     <use x="255.664062" xlink:href="#DejaVuSans-73"/>
    </g>
   </g>
  </g>
  <g id="axes_2">
   <g id="patch_8">
    <path d="M 315.635294 543.3984 
L 496.164706 543.3984 
L 496.164706 73.2672 
L 315.635294 73.2672 
z
" style="fill:#ffffff;"/>
   </g>
   <g id="matplotlib.axis_3">
    <g id="xtick_5">
     <g id="line2d_12">
      <g>
       <use style="stroke:#000000;stroke-width:0.8;" x="332.047059" xlink:href="#m7e4d74b269" y="543.3984"/>
      </g>
     </g>
     <g id="text_12">
      <!-- −0.005 -->
      <g transform="translate(313.543153 557.996838)scale(0.1 -0.1)">
       <use xlink:href="#DejaVuSans-2212"/>
       <use x="83.789062" xlink:href="#DejaVuSans-30"/>
       <use x="147.412109" xlink:href="#DejaVuSans-2e"/>
       <use x="179.199219" xlink:href="#DejaVuSans-30"/>
       <use x="242.822266" xlink:href="#DejaVuSans-30"/>
       <use x="306.445312" xlink:href="#DejaVuSans-35"/>
      </g>
     </g>
    </g>
    <g id="xtick_6">
     <g id="line2d_13">
      <g>
       <use style="stroke:#000000;stroke-width:0.8;" x="373.076471" xlink:href="#m7e4d74b269" y="543.3984"/>
      </g>
     </g>
     <g id="text_13">
      <!-- 0.000 -->
      <g transform="translate(358.762408 557.996838)scale(0.1 -0.1)">
       <use xlink:href="#DejaVuSans-30"/>
       <use x="63.623047" xlink:href="#DejaVuSans-2e"/>
       <use x="95.410156" xlink:href="#DejaVuSans-30"/>
       <use x="159.033203" xlink:href="#DejaVuSans-30"/>
       <use x="222.65625" xlink:href="#DejaVuSans-30"/>
      </g>
     </g>
    </g>
    <g id="xtick_7">
     <g id="line2d_14">
      <g>
       <use style="stroke:#000000;stroke-width:0.8;" x="414.105882" xlink:href="#m7e4d74b269" y="543.3984"/>
      </g>
     </g>
     <g id="text_14">
      <!-- 0.005 -->
      <g transform="translate(399.79182 557.996838)scale(0.1 -0.1)">
       <use xlink:href="#DejaVuSans-30"/>
       <use x="63.623047" xlink:href="#DejaVuSans-2e"/>
       <use x="95.410156" xlink:href="#DejaVuSans-30"/>
       <use x="159.033203" xlink:href="#DejaVuSans-30"/>
       <use x="222.65625" xlink:href="#DejaVuSans-35"/>
      </g>
     </g>
    </g>
    <g id="xtick_8">
     <g id="line2d_15">
      <g>
       <use style="stroke:#000000;stroke-width:0.8;" x="455.135294" xlink:href="#m7e4d74b269" y="543.3984"/>
      </g>
     </g>
     <g id="text_15">
      <!-- 0.010 -->
      <g transform="translate(440.821232 557.996838)scale(0.1 -0.1)">
       <use xlink:href="#DejaVuSans-30"/>
       <use x="63.623047" xlink:href="#DejaVuSans-2e"/>
       <use x="95.410156" xlink:href="#DejaVuSans-30"/>
       <use x="159.033203" xlink:href="#DejaVuSans-31"/>
       <use x="222.65625" xlink:href="#DejaVuSans-30"/>
      </g>
     </g>
    </g>
    <g id="xtick_9">
     <g id="line2d_16">
      <g>
       <use style="stroke:#000000;stroke-width:0.8;" x="496.164706" xlink:href="#m7e4d74b269" y="543.3984"/>
      </g>
     </g>
     <g id="text_16">
      <!-- 0.015 -->
      <g transform="translate(481.850643 557.996838)scale(0.1 -0.1)">
       <use xlink:href="#DejaVuSans-30"/>
       <use x="63.623047" xlink:href="#DejaVuSans-2e"/>
       <use x="95.410156" xlink:href="#DejaVuSans-30"/>
       <use x="159.033203" xlink:href="#DejaVuSans-31"/>
       <use x="222.65625" xlink:href="#DejaVuSans-35"/>
      </g>
     </g>
    </g>
   </g>
   <g id="matplotlib.axis_4">
    <g id="ytick_6">
     <g id="line2d_17">
      <g>
       <use style="stroke:#000000;stroke-width:0.8;" x="315.635294" xlink:href="#m828ece8a3d" y="481.185878"/>
      </g>
     </g>
     <g id="text_17">
      <!-- 100 -->
      <g transform="translate(289.547794 484.985097)scale(0.1 -0.1)">
       <use xlink:href="#DejaVuSans-31"/>
       <use x="63.623047" xlink:href="#DejaVuSans-30"/>
       <use x="127.246094" xlink:href="#DejaVuSans-30"/>
      </g>
     </g>
    </g>
    <g id="ytick_7">
     <g id="line2d_18">
      <g>
       <use style="stroke:#000000;stroke-width:0.8;" x="315.635294" xlink:href="#m828ece8a3d" y="408.25209"/>
      </g>
     </g>
     <g id="text_18">
      <!-- 150 -->
      <g transform="translate(289.547794 412.051309)scale(0.1 -0.1)">
       <use xlink:href="#DejaVuSans-31"/>
       <use x="63.623047" xlink:href="#DejaVuSans-35"/>
       <use x="127.246094" xlink:href="#DejaVuSans-30"/>
      </g>
     </g>
    </g>
    <g id="ytick_8">
     <g id="line2d_19">
      <g>
       <use style="stroke:#000000;stroke-width:0.8;" x="315.635294" xlink:href="#m828ece8a3d" y="335.318302"/>
      </g>
     </g>
     <g id="text_19">
      <!-- 200 -->
      <g transform="translate(289.547794 339.11752)scale(0.1 -0.1)">
       <use xlink:href="#DejaVuSans-32"/>
       <use x="63.623047" xlink:href="#DejaVuSans-30"/>
       <use x="127.246094" xlink:href="#DejaVuSans-30"/>
      </g>
     </g>
    </g>
    <g id="ytick_9">
     <g id="line2d_20">
      <g>
       <use style="stroke:#000000;stroke-width:0.8;" x="315.635294" xlink:href="#m828ece8a3d" y="262.384513"/>
      </g>
     </g>
     <g id="text_20">
      <!-- 250 -->
      <g transform="translate(289.547794 266.183732)scale(0.1 -0.1)">
       <use xlink:href="#DejaVuSans-32"/>
       <use x="63.623047" xlink:href="#DejaVuSans-35"/>
       <use x="127.246094" xlink:href="#DejaVuSans-30"/>
      </g>
     </g>
    </g>
    <g id="ytick_10">
     <g id="line2d_21">
      <g>
       <use style="stroke:#000000;stroke-width:0.8;" x="315.635294" xlink:href="#m828ece8a3d" y="189.450725"/>
      </g>
     </g>
     <g id="text_21">
      <!-- 300 -->
      <g transform="translate(289.547794 193.249944)scale(0.1 -0.1)">
       <use xlink:href="#DejaVuSans-33"/>
       <use x="63.623047" xlink:href="#DejaVuSans-30"/>
       <use x="127.246094" xlink:href="#DejaVuSans-30"/>
      </g>
     </g>
    </g>
    <g id="ytick_11">
     <g id="line2d_22">
      <g>
       <use style="stroke:#000000;stroke-width:0.8;" x="315.635294" xlink:href="#m828ece8a3d" y="116.516937"/>
      </g>
     </g>
     <g id="text_22">
      <!-- 350 -->
      <g transform="translate(289.547794 120.316155)scale(0.1 -0.1)">
       <use xlink:href="#DejaVuSans-33"/>
       <use x="63.623047" xlink:href="#DejaVuSans-35"/>
       <use x="127.246094" xlink:href="#DejaVuSans-30"/>
      </g>
     </g>
    </g>
   </g>
   <g id="line2d_23">
    <path clip-path="url(#p22e9c6789f)" d="M 323.841176 504.524691 
L 326.576471 494.31396 
L 329.311765 462.223094 
L 332.047059 484.10323 
L 334.782353 516.194097 
L 337.517647 494.31396 
L 340.252941 468.057797 
L 342.988235 491.396609 
L 345.723529 503.066015 
L 348.458824 475.351175 
L 351.194118 520.570124 
L 353.929412 507.442042 
L 356.664706 503.066015 
L 359.4 482.644554 
L 362.135294 485.561906 
L 364.870588 481.185878 
L 367.605882 505.983367 
L 370.341176 508.900718 
L 373.076471 468.057797 
L 375.811765 505.983367 
L 378.547059 511.81807 
L 381.282353 494.31396 
L 384.017647 505.983367 
L 386.752941 492.855285 
L 389.488235 476.809851 
L 392.223529 465.140445 
L 394.958824 457.847066 
L 397.694118 398.04136 
L 400.429412 338.235653 
L 403.164706 246.33908 
L 405.9 247.797756 
L 408.635294 195.285428 
L 411.370588 169.029264 
L 414.105882 129.645018 
L 416.841176 94.6368 
L 419.576471 145.690452 
L 422.311765 196.744104 
L 425.047059 290.099353 
L 427.782353 399.500035 
L 430.517647 473.8925 
L 433.252941 444.718984 
L 435.988235 453.471039 
L 438.723529 433.049578 
L 441.458824 453.471039 
L 444.194118 469.516472 
L 446.929412 508.900718 
L 449.664706 425.756199 
L 452.4 450.553687 
L 455.135294 469.516472 
L 457.870588 481.185878 
L 460.605882 479.727203 
L 463.341176 484.10323 
L 466.076471 522.0288 
L 468.811765 504.524691 
L 471.547059 497.231312 
L 474.282353 501.607339 
L 477.017647 510.359394 
L 479.752941 482.644554 
L 482.488235 489.937933 
L 485.223529 491.396609 
L 487.958824 492.855285 
" style="fill:none;stroke:#1f77b4;stroke-linecap:square;stroke-width:1.5;"/>
   </g>
   <g id="line2d_24">
    <path clip-path="url(#p22e9c6789f)" d="M 323.841176 490.302226 
L 375.918548 490.193445 
L 378.711341 489.959211 
L 380.518442 489.613783 
L 381.996979 489.117481 
L 383.146953 488.525353 
L 384.296926 487.676377 
L 385.282618 486.675253 
L 386.268309 485.346544 
L 387.254001 483.604192 
L 388.239693 481.347014 
L 389.225384 478.45848 
L 390.211076 474.807391 
L 391.196767 470.249682 
L 392.182459 464.631586 
L 393.168151 457.794351 
L 394.318124 448.067197 
L 395.468098 436.234398 
L 396.618071 422.101819 
L 397.932326 402.9683 
L 399.246582 380.60486 
L 400.725119 351.765159 
L 402.53222 312.042 
L 405.982141 229.645973 
L 408.117806 181.789841 
L 409.432061 156.630763 
L 410.582035 138.552961 
L 411.567727 126.583542 
L 412.389136 119.387593 
L 413.046264 115.568322 
L 413.53911 113.872034 
L 413.867674 113.305843 
L 414.196237 113.194012 
L 414.524801 113.536945 
L 414.853365 114.333402 
L 415.346211 116.371709 
L 415.839057 119.407075 
L 416.496184 124.96179 
L 417.317594 134.212949 
L 418.303286 148.425218 
L 419.453259 168.73404 
L 420.931797 199.467334 
L 423.067462 249.367155 
L 426.845946 337.881039 
L 428.653047 374.571837 
L 430.131585 400.392589 
L 431.44584 419.923615 
L 432.760095 436.265089 
L 433.910069 448.092649 
L 435.060042 457.815079 
L 436.210016 465.664872 
L 437.359989 471.892027 
L 438.345681 476.128269 
L 439.331373 479.507579 
L 440.317064 482.169982 
L 441.302756 484.241885 
L 442.288447 485.834687 
L 443.274139 487.044426 
L 444.424112 488.079104 
L 445.574086 488.807422 
L 446.888341 489.369572 
L 448.531161 489.798896 
L 450.502544 490.071487 
L 453.459618 490.236209 
L 459.53805 490.298517 
L 487.958824 490.302226 
L 487.958824 490.302226 
" style="fill:none;stroke:#ff7f0e;stroke-linecap:square;stroke-width:1.5;"/>
   </g>
   <g id="patch_9">
    <path d="M 315.635294 543.3984 
L 315.635294 73.2672 
" style="fill:none;stroke:#000000;stroke-linecap:square;stroke-linejoin:miter;stroke-width:0.8;"/>
   </g>
   <g id="patch_10">
    <path d="M 496.164706 543.3984 
L 496.164706 73.2672 
" style="fill:none;stroke:#000000;stroke-linecap:square;stroke-linejoin:miter;stroke-width:0.8;"/>
   </g>
   <g id="patch_11">
    <path d="M 315.635294 543.3984 
L 496.164706 543.3984 
" style="fill:none;stroke:#000000;stroke-linecap:square;stroke-linejoin:miter;stroke-width:0.8;"/>
   </g>
   <g id="patch_12">
    <path d="M 315.635294 73.2672 
L 496.164706 73.2672 
" style="fill:none;stroke:#000000;stroke-linecap:square;stroke-linejoin:miter;stroke-width:0.8;"/>
   </g>
   <g id="text_23">
    <g id="patch_13">
     <path d="M 324.661765 152.32401 
L 410.836765 152.32401 
Q 414.436765 152.32401 414.436765 148.72401 
L 414.436765 96.77376 
Q 414.436765 93.17376 410.836765 93.17376 
L 324.661765 93.17376 
Q 321.061765 93.17376 321.061765 96.77376 
L 321.061765 148.72401 
Q 321.061765 152.32401 324.661765 152.32401 
z
" style="fill:#f5deb3;opacity:0.5;stroke:#000000;stroke-linejoin:miter;"/>
    </g>
    <!-- a=258.538 -->
    <defs>
     <path d="M 31.78125 34.625 
Q 24.75 34.625 20.71875 30.859375 
Q 16.703125 27.09375 16.703125 20.515625 
Q 16.703125 13.921875 20.71875 10.15625 
Q 24.75 6.390625 31.78125 6.390625 
Q 38.8125 6.390625 42.859375 10.171875 
Q 46.921875 13.96875 46.921875 20.515625 
Q 46.921875 27.09375 42.890625 30.859375 
Q 38.875 34.625 31.78125 34.625 
z
M 21.921875 38.8125 
Q 15.578125 40.375 12.03125 44.71875 
Q 8.5 49.078125 8.5 55.328125 
Q 8.5 64.0625 14.71875 69.140625 
Q 20.953125 74.21875 31.78125 74.21875 
Q 42.671875 74.21875 48.875 69.140625 
Q 55.078125 64.0625 55.078125 55.328125 
Q 55.078125 49.078125 51.53125 44.71875 
Q 48 40.375 41.703125 38.8125 
Q 48.828125 37.15625 52.796875 32.3125 
Q 56.78125 27.484375 56.78125 20.515625 
Q 56.78125 9.90625 50.3125 4.234375 
Q 43.84375 -1.421875 31.78125 -1.421875 
Q 19.734375 -1.421875 13.25 4.234375 
Q 6.78125 9.90625 6.78125 20.515625 
Q 6.78125 27.484375 10.78125 32.3125 
Q 14.796875 37.15625 21.921875 38.8125 
z
M 18.3125 54.390625 
Q 18.3125 48.734375 21.84375 45.5625 
Q 25.390625 42.390625 31.78125 42.390625 
Q 38.140625 42.390625 41.71875 45.5625 
Q 45.3125 48.734375 45.3125 54.390625 
Q 45.3125 60.0625 41.71875 63.234375 
Q 38.140625 66.40625 31.78125 66.40625 
Q 25.390625 66.40625 21.84375 63.234375 
Q 18.3125 60.0625 18.3125 54.390625 
z
" id="DejaVuSans-38"/>
    </defs>
    <g transform="translate(324.661765 105.891885)scale(0.12 -0.12)">
     <use xlink:href="#DejaVuSans-61"/>
     <use x="61.279297" xlink:href="#DejaVuSans-3d"/>
     <use x="145.068359" xlink:href="#DejaVuSans-32"/>
     <use x="208.691406" xlink:href="#DejaVuSans-35"/>
     <use x="272.314453" xlink:href="#DejaVuSans-38"/>
     <use x="335.9375" xlink:href="#DejaVuSans-2e"/>
     <use x="367.724609" xlink:href="#DejaVuSans-35"/>
     <use x="431.347656" xlink:href="#DejaVuSans-33"/>
     <use x="494.970703" xlink:href="#DejaVuSans-38"/>
    </g>
    <!-- $\mu$=0.005 -->
    <g transform="translate(324.661765 119.32926)scale(0.12 -0.12)">
     <use transform="translate(0 0.78125)" xlink:href="#DejaVuSans-Oblique-3bc"/>
     <use transform="translate(63.623047 0.78125)" xlink:href="#DejaVuSans-3d"/>
     <use transform="translate(147.412109 0.78125)" xlink:href="#DejaVuSans-30"/>
     <use transform="translate(211.035156 0.78125)" xlink:href="#DejaVuSans-2e"/>
     <use transform="translate(242.822266 0.78125)" xlink:href="#DejaVuSans-30"/>
     <use transform="translate(306.445312 0.78125)" xlink:href="#DejaVuSans-30"/>
     <use transform="translate(370.068359 0.78125)" xlink:href="#DejaVuSans-35"/>
    </g>
    <!-- $\sigma$=0.001 -->
    <g transform="translate(324.661765 132.79101)scale(0.12 -0.12)">
     <use transform="translate(0 0.78125)" xlink:href="#DejaVuSans-Oblique-3c3"/>
     <use transform="translate(63.378906 0.78125)" xlink:href="#DejaVuSans-3d"/>
     <use transform="translate(147.167969 0.78125)" xlink:href="#DejaVuSans-30"/>
     <use transform="translate(210.791016 0.78125)" xlink:href="#DejaVuSans-2e"/>
     <use transform="translate(242.578125 0.78125)" xlink:href="#DejaVuSans-30"/>
     <use transform="translate(306.201172 0.78125)" xlink:href="#DejaVuSans-30"/>
     <use transform="translate(369.824219 0.78125)" xlink:href="#DejaVuSans-31"/>
    </g>
    <!-- offset=93.750 -->
    <g transform="translate(324.661765 146.228385)scale(0.12 -0.12)">
     <use xlink:href="#DejaVuSans-6f"/>
     <use x="61.181641" xlink:href="#DejaVuSans-66"/>
     <use x="96.386719" xlink:href="#DejaVuSans-66"/>
     <use x="131.591797" xlink:href="#DejaVuSans-73"/>
     <use x="183.691406" xlink:href="#DejaVuSans-65"/>
     <use x="245.214844" xlink:href="#DejaVuSans-74"/>
     <use x="284.423828" xlink:href="#DejaVuSans-3d"/>
     <use x="368.212891" xlink:href="#DejaVuSans-39"/>
     <use x="431.835938" xlink:href="#DejaVuSans-33"/>
     <use x="495.458984" xlink:href="#DejaVuSans-2e"/>
     <use x="527.246094" xlink:href="#DejaVuSans-37"/>
     <use x="590.869141" xlink:href="#DejaVuSans-35"/>
     <use x="654.492188" xlink:href="#DejaVuSans-30"/>
    </g>
   </g>
   <g id="text_24">
    <!-- Y Axis -->
    <defs>
     <path d="M -0.203125 72.90625 
L 10.40625 72.90625 
L 30.609375 42.921875 
L 50.6875 72.90625 
L 61.28125 72.90625 
L 35.5 34.71875 
L 35.5 0 
L 25.59375 0 
L 25.59375 34.71875 
z
" id="DejaVuSans-59"/>
    </defs>
    <g transform="translate(387.880313 67.2672)scale(0.12 -0.12)">
     <use xlink:href="#DejaVuSans-59"/>
     <use x="61.083984" xlink:href="#DejaVuSans-20"/>
     <use x="92.871094" xlink:href="#DejaVuSans-41"/>
     <use x="161.279297" xlink:href="#DejaVuSans-78"/>
     <use x="220.458984" xlink:href="#DejaVuSans-69"/>
     <use x="248.242188" xlink:href="#DejaVuSans-73"/>
    </g>
   </g>
  </g>
  <g id="axes_3">
   <g id="patch_14">
    <path d="M 532.270588 543.3984 
L 712.8 543.3984 
L 712.8 73.2672 
L 532.270588 73.2672 
z
" style="fill:#ffffff;"/>
   </g>
   <g id="matplotlib.axis_5">
    <g id="xtick_10">
     <g id="line2d_25">
      <g>
       <use style="stroke:#000000;stroke-width:0.8;" x="540.476471" xlink:href="#m7e4d74b269" y="543.3984"/>
      </g>
     </g>
     <g id="text_25">
      <!-- 0 -->
      <g transform="translate(537.295221 557.996838)scale(0.1 -0.1)">
       <use xlink:href="#DejaVuSans-30"/>
      </g>
     </g>
    </g>
    <g id="xtick_11">
     <g id="line2d_26">
      <g>
       <use style="stroke:#000000;stroke-width:0.8;" x="573.3" xlink:href="#m7e4d74b269" y="543.3984"/>
      </g>
     </g>
     <g id="text_26">
      <!-- 2 -->
      <g transform="translate(570.11875 557.996838)scale(0.1 -0.1)">
       <use xlink:href="#DejaVuSans-32"/>
      </g>
     </g>
    </g>
    <g id="xtick_12">
     <g id="line2d_27">
      <g>
       <use style="stroke:#000000;stroke-width:0.8;" x="606.123529" xlink:href="#m7e4d74b269" y="543.3984"/>
      </g>
     </g>
     <g id="text_27">
      <!-- 4 -->
      <defs>
       <path d="M 37.796875 64.3125 
L 12.890625 25.390625 
L 37.796875 25.390625 
z
M 35.203125 72.90625 
L 47.609375 72.90625 
L 47.609375 25.390625 
L 58.015625 25.390625 
L 58.015625 17.1875 
L 47.609375 17.1875 
L 47.609375 0 
L 37.796875 0 
L 37.796875 17.1875 
L 4.890625 17.1875 
L 4.890625 26.703125 
z
" id="DejaVuSans-34"/>
      </defs>
      <g transform="translate(602.942279 557.996838)scale(0.1 -0.1)">
       <use xlink:href="#DejaVuSans-34"/>
      </g>
     </g>
    </g>
    <g id="xtick_13">
     <g id="line2d_28">
      <g>
       <use style="stroke:#000000;stroke-width:0.8;" x="638.947059" xlink:href="#m7e4d74b269" y="543.3984"/>
      </g>
     </g>
     <g id="text_28">
      <!-- 6 -->
      <g transform="translate(635.765809 557.996838)scale(0.1 -0.1)">
       <use xlink:href="#DejaVuSans-36"/>
      </g>
     </g>
    </g>
    <g id="xtick_14">
     <g id="line2d_29">
      <g>
       <use style="stroke:#000000;stroke-width:0.8;" x="671.770588" xlink:href="#m7e4d74b269" y="543.3984"/>
      </g>
     </g>
     <g id="text_29">
      <!-- 8 -->
      <g transform="translate(668.589338 557.996838)scale(0.1 -0.1)">
       <use xlink:href="#DejaVuSans-38"/>
      </g>
     </g>
    </g>
    <g id="xtick_15">
     <g id="line2d_30">
      <g>
       <use style="stroke:#000000;stroke-width:0.8;" x="704.594118" xlink:href="#m7e4d74b269" y="543.3984"/>
      </g>
     </g>
     <g id="text_30">
      <!-- 10 -->
      <g transform="translate(698.231618 557.996838)scale(0.1 -0.1)">
       <use xlink:href="#DejaVuSans-31"/>
       <use x="63.623047" xlink:href="#DejaVuSans-30"/>
      </g>
     </g>
    </g>
   </g>
   <g id="matplotlib.axis_6">
    <g id="ytick_12">
     <g id="line2d_31">
      <g>
       <use style="stroke:#000000;stroke-width:0.8;" x="532.270588" xlink:href="#m828ece8a3d" y="541.507792"/>
      </g>
     </g>
     <g id="text_31">
      <!-- 50 -->
      <g transform="translate(512.545588 545.307011)scale(0.1 -0.1)">
       <use xlink:href="#DejaVuSans-35"/>
       <use x="63.623047" xlink:href="#DejaVuSans-30"/>
      </g>
     </g>
    </g>
    <g id="ytick_13">
     <g id="line2d_32">
      <g>
       <use style="stroke:#000000;stroke-width:0.8;" x="532.270588" xlink:href="#m828ece8a3d" y="484.216639"/>
      </g>
     </g>
     <g id="text_32">
      <!-- 100 -->
      <g transform="translate(506.183088 488.015858)scale(0.1 -0.1)">
       <use xlink:href="#DejaVuSans-31"/>
       <use x="63.623047" xlink:href="#DejaVuSans-30"/>
       <use x="127.246094" xlink:href="#DejaVuSans-30"/>
      </g>
     </g>
    </g>
    <g id="ytick_14">
     <g id="line2d_33">
      <g>
       <use style="stroke:#000000;stroke-width:0.8;" x="532.270588" xlink:href="#m828ece8a3d" y="426.925486"/>
      </g>
     </g>
     <g id="text_33">
      <!-- 150 -->
      <g transform="translate(506.183088 430.724705)scale(0.1 -0.1)">
       <use xlink:href="#DejaVuSans-31"/>
       <use x="63.623047" xlink:href="#DejaVuSans-35"/>
       <use x="127.246094" xlink:href="#DejaVuSans-30"/>
      </g>
     </g>
    </g>
    <g id="ytick_15">
     <g id="line2d_34">
      <g>
       <use style="stroke:#000000;stroke-width:0.8;" x="532.270588" xlink:href="#m828ece8a3d" y="369.634334"/>
      </g>
     </g>
     <g id="text_34">
      <!-- 200 -->
      <g transform="translate(506.183088 373.433552)scale(0.1 -0.1)">
       <use xlink:href="#DejaVuSans-32"/>
       <use x="63.623047" xlink:href="#DejaVuSans-30"/>
       <use x="127.246094" xlink:href="#DejaVuSans-30"/>
      </g>
     </g>
    </g>
    <g id="ytick_16">
     <g id="line2d_35">
      <g>
       <use style="stroke:#000000;stroke-width:0.8;" x="532.270588" xlink:href="#m828ece8a3d" y="312.343181"/>
      </g>
     </g>
     <g id="text_35">
      <!-- 250 -->
      <g transform="translate(506.183088 316.142399)scale(0.1 -0.1)">
       <use xlink:href="#DejaVuSans-32"/>
       <use x="63.623047" xlink:href="#DejaVuSans-35"/>
       <use x="127.246094" xlink:href="#DejaVuSans-30"/>
      </g>
     </g>
    </g>
    <g id="ytick_17">
     <g id="line2d_36">
      <g>
       <use style="stroke:#000000;stroke-width:0.8;" x="532.270588" xlink:href="#m828ece8a3d" y="255.052028"/>
      </g>
     </g>
     <g id="text_36">
      <!-- 300 -->
      <g transform="translate(506.183088 258.851247)scale(0.1 -0.1)">
       <use xlink:href="#DejaVuSans-33"/>
       <use x="63.623047" xlink:href="#DejaVuSans-30"/>
       <use x="127.246094" xlink:href="#DejaVuSans-30"/>
      </g>
     </g>
    </g>
    <g id="ytick_18">
     <g id="line2d_37">
      <g>
       <use style="stroke:#000000;stroke-width:0.8;" x="532.270588" xlink:href="#m828ece8a3d" y="197.760875"/>
      </g>
     </g>
     <g id="text_37">
      <!-- 350 -->
      <g transform="translate(506.183088 201.560094)scale(0.1 -0.1)">
       <use xlink:href="#DejaVuSans-33"/>
       <use x="63.623047" xlink:href="#DejaVuSans-35"/>
       <use x="127.246094" xlink:href="#DejaVuSans-30"/>
      </g>
     </g>
    </g>
    <g id="ytick_19">
     <g id="line2d_38">
      <g>
       <use style="stroke:#000000;stroke-width:0.8;" x="532.270588" xlink:href="#m828ece8a3d" y="140.469722"/>
      </g>
     </g>
     <g id="text_38">
      <!-- 400 -->
      <g transform="translate(506.183088 144.268941)scale(0.1 -0.1)">
       <use xlink:href="#DejaVuSans-34"/>
       <use x="63.623047" xlink:href="#DejaVuSans-30"/>
       <use x="127.246094" xlink:href="#DejaVuSans-30"/>
      </g>
     </g>
    </g>
    <g id="ytick_20">
     <g id="line2d_39">
      <g>
       <use style="stroke:#000000;stroke-width:0.8;" x="532.270588" xlink:href="#m828ece8a3d" y="83.178569"/>
      </g>
     </g>
     <g id="text_39">
      <!-- 450 -->
      <g transform="translate(506.183088 86.977788)scale(0.1 -0.1)">
       <use xlink:href="#DejaVuSans-34"/>
       <use x="63.623047" xlink:href="#DejaVuSans-35"/>
       <use x="127.246094" xlink:href="#DejaVuSans-30"/>
      </g>
     </g>
    </g>
   </g>
   <g id="line2d_40">
    <path clip-path="url(#p23ad23ef2c)" d="M 540.476471 510.570569 
L 543.211765 504.841454 
L 545.947059 503.695631 
L 548.682353 522.0288 
L 551.417647 497.966516 
L 554.152941 493.383224 
L 556.888235 479.633347 
L 559.623529 446.404478 
L 562.358824 454.42524 
L 565.094118 389.113325 
L 567.829412 410.883964 
L 570.564706 337.551288 
L 573.3 349.009518 
L 576.035294 298.593304 
L 578.770588 306.614065 
L 581.505882 265.364435 
L 584.241176 279.114312 
L 586.976471 186.302645 
L 589.711765 204.635813 
L 592.447059 216.094044 
L 595.182353 175.990237 
L 597.917647 120.99073 
L 600.652941 126.719846 
L 603.388235 94.6368 
L 606.123529 134.740607 
L 608.858824 145.053014 
L 611.594118 172.552768 
L 614.329412 156.511245 
L 617.064706 174.844414 
L 619.8 134.740607 
L 622.535294 131.303138 
L 625.270588 174.844414 
L 628.005882 188.594291 
L 630.741176 194.323406 
L 633.476471 203.48999 
L 636.211765 204.635813 
L 638.947059 224.114805 
L 641.682353 244.73962 
L 644.417647 228.698098 
L 647.152941 253.906205 
L 649.888235 292.864189 
L 652.623529 320.363942 
L 655.358824 332.967996 
L 658.094118 315.78065 
L 660.829412 351.301165 
L 663.564706 342.13458 
L 666.3 328.384703 
L 669.035294 362.759395 
L 671.770588 382.238387 
L 674.505882 406.300671 
L 677.241176 381.092564 
L 679.976471 395.988264 
L 682.711765 398.27991 
L 685.447059 417.758902 
L 688.182353 395.988264 
L 690.917647 387.967502 
L 693.652941 423.488017 
L 696.388235 456.716886 
L 699.123529 405.154848 
L 701.858824 414.321433 
L 704.594118 453.279417 
" style="fill:none;stroke:#1f77b4;stroke-linecap:square;stroke-width:1.5;"/>
   </g>
   <g id="line2d_41">
    <path clip-path="url(#p23ad23ef2c)" d="M 540.476471 455.251756 
L 542.447854 452.245163 
L 544.419237 448.856848 
L 546.554902 444.719567 
L 548.690567 440.059326 
L 550.826232 434.838883 
L 552.961897 429.023416 
L 555.097562 422.581566 
L 557.397509 414.913095 
L 559.697456 406.461315 
L 562.161685 396.518185 
L 564.625914 385.651358 
L 567.254425 373.05502 
L 570.047218 358.576995 
L 573.168574 341.15876 
L 576.618495 320.584064 
L 580.889825 293.643613 
L 594.360943 207.427061 
L 597.318018 190.523595 
L 599.782247 177.607129 
L 602.082194 166.708772 
L 604.053577 158.379954 
L 605.860678 151.648924 
L 607.503498 146.334713 
L 608.982035 142.243089 
L 610.29629 139.177936 
L 611.610546 136.667324 
L 612.760519 134.935606 
L 613.746211 133.802275 
L 614.731902 132.996454 
L 615.553312 132.576834 
L 616.374722 132.387143 
L 617.196131 132.427762 
L 618.017541 132.698611 
L 618.838951 133.199141 
L 619.824642 134.101501 
L 620.810334 135.330501 
L 621.960307 137.17237 
L 623.110281 139.446707 
L 624.424536 142.564001 
L 625.903074 146.712326 
L 627.545893 152.086707 
L 629.188712 158.225795 
L 630.995813 165.805393 
L 633.131479 175.786501 
L 635.431426 187.637989 
L 638.059936 202.371361 
L 641.181293 221.164234 
L 645.452623 248.38151 
L 656.788076 321.353164 
L 660.402279 342.826473 
L 663.523635 360.12919 
L 666.48071 375.303371 
L 669.273503 388.464242 
L 671.902014 399.775834 
L 674.366243 409.426102 
L 676.830472 418.163542 
L 679.130419 425.516593 
L 681.430366 432.125243 
L 683.566031 437.626985 
L 685.701696 442.551456 
L 687.837361 446.934862 
L 689.973026 450.815315 
L 692.108691 454.231922 
L 694.244356 457.223989 
L 696.380021 459.830326 
L 698.515686 462.088676 
L 700.651351 464.035246 
L 702.951298 465.822182 
L 704.594118 466.923826 
L 704.594118 466.923826 
" style="fill:none;stroke:#ff7f0e;stroke-linecap:square;stroke-width:1.5;"/>
   </g>
   <g id="patch_15">
    <path d="M 532.270588 543.3984 
L 532.270588 73.2672 
" style="fill:none;stroke:#000000;stroke-linecap:square;stroke-linejoin:miter;stroke-width:0.8;"/>
   </g>
   <g id="patch_16">
    <path d="M 712.8 543.3984 
L 712.8 73.2672 
" style="fill:none;stroke:#000000;stroke-linecap:square;stroke-linejoin:miter;stroke-width:0.8;"/>
   </g>
   <g id="patch_17">
    <path d="M 532.270588 543.3984 
L 712.8 543.3984 
" style="fill:none;stroke:#000000;stroke-linecap:square;stroke-linejoin:miter;stroke-width:0.8;"/>
   </g>
   <g id="patch_18">
    <path d="M 532.270588 73.2672 
L 712.8 73.2672 
" style="fill:none;stroke:#000000;stroke-linecap:square;stroke-linejoin:miter;stroke-width:0.8;"/>
   </g>
   <g id="text_40">
    <g id="patch_19">
     <path d="M 541.297059 152.32401 
L 635.107059 152.32401 
Q 638.707059 152.32401 638.707059 148.72401 
L 638.707059 96.77376 
Q 638.707059 93.17376 635.107059 93.17376 
L 541.297059 93.17376 
Q 537.697059 93.17376 537.697059 96.77376 
L 537.697059 148.72401 
Q 537.697059 152.32401 541.297059 152.32401 
z
" style="fill:#f5deb3;opacity:0.5;stroke:#000000;stroke-linejoin:miter;"/>
    </g>
    <!-- a=298.225 -->
    <g transform="translate(541.297059 105.891885)scale(0.12 -0.12)">
     <use xlink:href="#DejaVuSans-61"/>
     <use x="61.279297" xlink:href="#DejaVuSans-3d"/>
     <use x="145.068359" xlink:href="#DejaVuSans-32"/>
     <use x="208.691406" xlink:href="#DejaVuSans-39"/>
     <use x="272.314453" xlink:href="#DejaVuSans-38"/>
     <use x="335.9375" xlink:href="#DejaVuSans-2e"/>
     <use x="367.724609" xlink:href="#DejaVuSans-32"/>
     <use x="431.347656" xlink:href="#DejaVuSans-32"/>
     <use x="494.970703" xlink:href="#DejaVuSans-35"/>
    </g>
    <!-- $\mu$=4.641 -->
    <g transform="translate(541.297059 119.32926)scale(0.12 -0.12)">
     <use transform="translate(0 0.78125)" xlink:href="#DejaVuSans-Oblique-3bc"/>
     <use transform="translate(63.623047 0.78125)" xlink:href="#DejaVuSans-3d"/>
     <use transform="translate(147.412109 0.78125)" xlink:href="#DejaVuSans-34"/>
     <use transform="translate(211.035156 0.78125)" xlink:href="#DejaVuSans-2e"/>
     <use transform="translate(242.822266 0.78125)" xlink:href="#DejaVuSans-36"/>
     <use transform="translate(306.445312 0.78125)" xlink:href="#DejaVuSans-34"/>
     <use transform="translate(370.068359 0.78125)" xlink:href="#DejaVuSans-31"/>
    </g>
    <!-- $\sigma$=1.928 -->
    <g transform="translate(541.297059 132.79101)scale(0.12 -0.12)">
     <use transform="translate(0 0.78125)" xlink:href="#DejaVuSans-Oblique-3c3"/>
     <use transform="translate(63.378906 0.78125)" xlink:href="#DejaVuSans-3d"/>
     <use transform="translate(147.167969 0.78125)" xlink:href="#DejaVuSans-31"/>
     <use transform="translate(210.791016 0.78125)" xlink:href="#DejaVuSans-2e"/>
     <use transform="translate(242.578125 0.78125)" xlink:href="#DejaVuSans-39"/>
     <use transform="translate(306.185547 0.78125)" xlink:href="#DejaVuSans-32"/>
     <use transform="translate(369.808594 0.78125)" xlink:href="#DejaVuSans-38"/>
    </g>
    <!-- offset=108.839 -->
    <g transform="translate(541.297059 146.228385)scale(0.12 -0.12)">
     <use xlink:href="#DejaVuSans-6f"/>
     <use x="61.181641" xlink:href="#DejaVuSans-66"/>
     <use x="96.386719" xlink:href="#DejaVuSans-66"/>
     <use x="131.591797" xlink:href="#DejaVuSans-73"/>
     <use x="183.691406" xlink:href="#DejaVuSans-65"/>
     <use x="245.214844" xlink:href="#DejaVuSans-74"/>
     <use x="284.423828" xlink:href="#DejaVuSans-3d"/>
     <use x="368.212891" xlink:href="#DejaVuSans-31"/>
     <use x="431.835938" xlink:href="#DejaVuSans-30"/>
     <use x="495.458984" xlink:href="#DejaVuSans-38"/>
     <use x="559.082031" xlink:href="#DejaVuSans-2e"/>
     <use x="590.869141" xlink:href="#DejaVuSans-38"/>
     <use x="654.492188" xlink:href="#DejaVuSans-33"/>
     <use x="718.115234" xlink:href="#DejaVuSans-39"/>
    </g>
   </g>
   <g id="text_41">
    <!-- Z Axis -->
    <defs>
     <path d="M 5.609375 72.90625 
L 62.890625 72.90625 
L 62.890625 65.375 
L 16.796875 8.296875 
L 64.015625 8.296875 
L 64.015625 0 
L 4.5 0 
L 4.5 7.515625 
L 50.59375 64.59375 
L 5.609375 64.59375 
z
" id="DejaVuSans-5a"/>
    </defs>
    <g transform="translate(604.070294 67.2672)scale(0.12 -0.12)">
     <use xlink:href="#DejaVuSans-5a"/>
     <use x="68.505859" xlink:href="#DejaVuSans-20"/>
     <use x="100.292969" xlink:href="#DejaVuSans-41"/>
     <use x="168.701172" xlink:href="#DejaVuSans-78"/>
     <use x="227.880859" xlink:href="#DejaVuSans-69"/>
     <use x="255.664062" xlink:href="#DejaVuSans-73"/>
    </g>
   </g>
  </g>
 </g>
 <defs>
  <clipPath id="p3ba5e8c943">
   <rect height="470.1312" width="180.529412" x="99" y="73.2672"/>
  </clipPath>
  <clipPath id="p22e9c6789f">
   <rect height="470.1312" width="180.529412" x="315.635294" y="73.2672"/>
  </clipPath>
  <clipPath id="p23ad23ef2c">
   <rect height="470.1312" width="180.529412" x="532.270588" y="73.2672"/>
  </clipPath>
 </defs>
</svg>
