<?xml version="1.0" encoding="utf-8" standalone="no"?>
<!DOCTYPE svg PUBLIC "-//W3C//DTD SVG 1.1//EN"
  "http://www.w3.org/Graphics/SVG/1.1/DTD/svg11.dtd">
<!-- Created with matplotlib (http://matplotlib.org/) -->
<svg height="612pt" version="1.1" viewBox="0 0 792 612" width="792pt" xmlns="http://www.w3.org/2000/svg" xmlns:xlink="http://www.w3.org/1999/xlink">
 <defs>
  <style type="text/css">
*{stroke-linecap:butt;stroke-linejoin:round;}
  </style>
 </defs>
 <g id="figure_1">
  <g id="patch_1">
   <path d="M 0 612 
L 792 612 
L 792 0 
L 0 0 
z
" style="fill:#ffffff;"/>
  </g>
  <g id="axes_1">
   <g id="patch_2">
    <path d="M 99 544.68 
L 279.529412 544.68 
L 279.529412 73.44 
L 99 73.44 
z
" style="fill:#ffffff;"/>
   </g>
   <g id="matplotlib.axis_1">
    <g id="xtick_1">
     <g id="line2d_1">
      <defs>
       <path d="M 0 0 
L 0 3.5 
" id="m7d0f13d86c" style="stroke:#000000;stroke-width:0.8;"/>
      </defs>
      <g>
       <use style="stroke:#000000;stroke-width:0.8;" x="107.205882" xlink:href="#m7d0f13d86c" y="544.68"/>
      </g>
     </g>
     <g id="text_1">
      <!-- −0.4 -->
      <defs>
       <path d="M 10.59375 35.5 
L 73.1875 35.5 
L 73.1875 27.203125 
L 10.59375 27.203125 
z
" id="DejaVuSans-2212"/>
       <path d="M 31.78125 66.40625 
Q 24.171875 66.40625 20.328125 58.90625 
Q 16.5 51.421875 16.5 36.375 
Q 16.5 21.390625 20.328125 13.890625 
Q 24.171875 6.390625 31.78125 6.390625 
Q 39.453125 6.390625 43.28125 13.890625 
Q 47.125 21.390625 47.125 36.375 
Q 47.125 51.421875 43.28125 58.90625 
Q 39.453125 66.40625 31.78125 66.40625 
z
M 31.78125 74.21875 
Q 44.046875 74.21875 50.515625 64.515625 
Q 56.984375 54.828125 56.984375 36.375 
Q 56.984375 17.96875 50.515625 8.265625 
Q 44.046875 -1.421875 31.78125 -1.421875 
Q 19.53125 -1.421875 13.0625 8.265625 
Q 6.59375 17.96875 6.59375 36.375 
Q 6.59375 54.828125 13.0625 64.515625 
Q 19.53125 74.21875 31.78125 74.21875 
z
" id="DejaVuSans-30"/>
       <path d="M 10.6875 12.40625 
L 21 12.40625 
L 21 0 
L 10.6875 0 
z
" id="DejaVuSans-2e"/>
       <path d="M 37.796875 64.3125 
L 12.890625 25.390625 
L 37.796875 25.390625 
z
M 35.203125 72.90625 
L 47.609375 72.90625 
L 47.609375 25.390625 
L 58.015625 25.390625 
L 58.015625 17.1875 
L 47.609375 17.1875 
L 47.609375 0 
L 37.796875 0 
L 37.796875 17.1875 
L 4.890625 17.1875 
L 4.890625 26.703125 
z
" id="DejaVuSans-34"/>
      </defs>
      <g transform="translate(95.064476 559.278437)scale(0.1 -0.1)">
       <use xlink:href="#DejaVuSans-2212"/>
       <use x="83.789062" xlink:href="#DejaVuSans-30"/>
       <use x="147.412109" xlink:href="#DejaVuSans-2e"/>
       <use x="179.199219" xlink:href="#DejaVuSans-34"/>
      </g>
     </g>
    </g>
    <g id="xtick_2">
     <g id="line2d_2">
      <g>
       <use style="stroke:#000000;stroke-width:0.8;" x="148.235294" xlink:href="#m7d0f13d86c" y="544.68"/>
      </g>
     </g>
     <g id="text_2">
      <!-- −0.2 -->
      <defs>
       <path d="M 19.1875 8.296875 
L 53.609375 8.296875 
L 53.609375 0 
L 7.328125 0 
L 7.328125 8.296875 
Q 12.9375 14.109375 22.625 23.890625 
Q 32.328125 33.6875 34.8125 36.53125 
Q 39.546875 41.84375 41.421875 45.53125 
Q 43.3125 49.21875 43.3125 52.78125 
Q 43.3125 58.59375 39.234375 62.25 
Q 35.15625 65.921875 28.609375 65.921875 
Q 23.96875 65.921875 18.8125 64.3125 
Q 13.671875 62.703125 7.8125 59.421875 
L 7.8125 69.390625 
Q 13.765625 71.78125 18.9375 73 
Q 24.125 74.21875 28.421875 74.21875 
Q 39.75 74.21875 46.484375 68.546875 
Q 53.21875 62.890625 53.21875 53.421875 
Q 53.21875 48.921875 51.53125 44.890625 
Q 49.859375 40.875 45.40625 35.40625 
Q 44.1875 33.984375 37.640625 27.21875 
Q 31.109375 20.453125 19.1875 8.296875 
z
" id="DejaVuSans-32"/>
      </defs>
      <g transform="translate(136.093888 559.278437)scale(0.1 -0.1)">
       <use xlink:href="#DejaVuSans-2212"/>
       <use x="83.789062" xlink:href="#DejaVuSans-30"/>
       <use x="147.412109" xlink:href="#DejaVuSans-2e"/>
       <use x="179.199219" xlink:href="#DejaVuSans-32"/>
      </g>
     </g>
    </g>
    <g id="xtick_3">
     <g id="line2d_3">
      <g>
       <use style="stroke:#000000;stroke-width:0.8;" x="189.264706" xlink:href="#m7d0f13d86c" y="544.68"/>
      </g>
     </g>
     <g id="text_3">
      <!-- 0.0 -->
      <g transform="translate(181.313143 559.278437)scale(0.1 -0.1)">
       <use xlink:href="#DejaVuSans-30"/>
       <use x="63.623047" xlink:href="#DejaVuSans-2e"/>
       <use x="95.410156" xlink:href="#DejaVuSans-30"/>
      </g>
     </g>
    </g>
    <g id="xtick_4">
     <g id="line2d_4">
      <g>
       <use style="stroke:#000000;stroke-width:0.8;" x="230.294118" xlink:href="#m7d0f13d86c" y="544.68"/>
      </g>
     </g>
     <g id="text_4">
      <!-- 0.2 -->
      <g transform="translate(222.342555 559.278437)scale(0.1 -0.1)">
       <use xlink:href="#DejaVuSans-30"/>
       <use x="63.623047" xlink:href="#DejaVuSans-2e"/>
       <use x="95.410156" xlink:href="#DejaVuSans-32"/>
      </g>
     </g>
    </g>
    <g id="xtick_5">
     <g id="line2d_5">
      <g>
       <use style="stroke:#000000;stroke-width:0.8;" x="271.323529" xlink:href="#m7d0f13d86c" y="544.68"/>
      </g>
     </g>
     <g id="text_5">
      <!-- 0.4 -->
      <g transform="translate(263.371967 559.278437)scale(0.1 -0.1)">
       <use xlink:href="#DejaVuSans-30"/>
       <use x="63.623047" xlink:href="#DejaVuSans-2e"/>
       <use x="95.410156" xlink:href="#DejaVuSans-34"/>
      </g>
     </g>
    </g>
   </g>
   <g id="matplotlib.axis_2">
    <g id="ytick_1">
     <g id="line2d_6">
      <defs>
       <path d="M 0 0 
L -3.5 0 
" id="m625cfed874" style="stroke:#000000;stroke-width:0.8;"/>
      </defs>
      <g>
       <use style="stroke:#000000;stroke-width:0.8;" x="99" xlink:href="#m625cfed874" y="476.620468"/>
      </g>
     </g>
     <g id="text_6">
      <!-- 0.0 -->
      <g transform="translate(76.096875 480.419687)scale(0.1 -0.1)">
       <use xlink:href="#DejaVuSans-30"/>
       <use x="63.623047" xlink:href="#DejaVuSans-2e"/>
       <use x="95.410156" xlink:href="#DejaVuSans-30"/>
      </g>
     </g>
    </g>
    <g id="ytick_2">
     <g id="line2d_7">
      <g>
       <use style="stroke:#000000;stroke-width:0.8;" x="99" xlink:href="#m625cfed874" y="399.511511"/>
      </g>
     </g>
     <g id="text_7">
      <!-- 0.5 -->
      <defs>
       <path d="M 10.796875 72.90625 
L 49.515625 72.90625 
L 49.515625 64.59375 
L 19.828125 64.59375 
L 19.828125 46.734375 
Q 21.96875 47.46875 24.109375 47.828125 
Q 26.265625 48.1875 28.421875 48.1875 
Q 40.625 48.1875 47.75 41.5 
Q 54.890625 34.8125 54.890625 23.390625 
Q 54.890625 11.625 47.5625 5.09375 
Q 40.234375 -1.421875 26.90625 -1.421875 
Q 22.3125 -1.421875 17.546875 -0.640625 
Q 12.796875 0.140625 7.71875 1.703125 
L 7.71875 11.625 
Q 12.109375 9.234375 16.796875 8.0625 
Q 21.484375 6.890625 26.703125 6.890625 
Q 35.15625 6.890625 40.078125 11.328125 
Q 45.015625 15.765625 45.015625 23.390625 
Q 45.015625 31 40.078125 35.4375 
Q 35.15625 39.890625 26.703125 39.890625 
Q 22.75 39.890625 18.8125 39.015625 
Q 14.890625 38.140625 10.796875 36.28125 
z
" id="DejaVuSans-35"/>
      </defs>
      <g transform="translate(76.096875 403.31073)scale(0.1 -0.1)">
       <use xlink:href="#DejaVuSans-30"/>
       <use x="63.623047" xlink:href="#DejaVuSans-2e"/>
       <use x="95.410156" xlink:href="#DejaVuSans-35"/>
      </g>
     </g>
    </g>
    <g id="ytick_3">
     <g id="line2d_8">
      <g>
       <use style="stroke:#000000;stroke-width:0.8;" x="99" xlink:href="#m625cfed874" y="322.402554"/>
      </g>
     </g>
     <g id="text_8">
      <!-- 1.0 -->
      <defs>
       <path d="M 12.40625 8.296875 
L 28.515625 8.296875 
L 28.515625 63.921875 
L 10.984375 60.40625 
L 10.984375 69.390625 
L 28.421875 72.90625 
L 38.28125 72.90625 
L 38.28125 8.296875 
L 54.390625 8.296875 
L 54.390625 0 
L 12.40625 0 
z
" id="DejaVuSans-31"/>
      </defs>
      <g transform="translate(76.096875 326.201773)scale(0.1 -0.1)">
       <use xlink:href="#DejaVuSans-31"/>
       <use x="63.623047" xlink:href="#DejaVuSans-2e"/>
       <use x="95.410156" xlink:href="#DejaVuSans-30"/>
      </g>
     </g>
    </g>
    <g id="ytick_4">
     <g id="line2d_9">
      <g>
       <use style="stroke:#000000;stroke-width:0.8;" x="99" xlink:href="#m625cfed874" y="245.293597"/>
      </g>
     </g>
     <g id="text_9">
      <!-- 1.5 -->
      <g transform="translate(76.096875 249.092816)scale(0.1 -0.1)">
       <use xlink:href="#DejaVuSans-31"/>
       <use x="63.623047" xlink:href="#DejaVuSans-2e"/>
       <use x="95.410156" xlink:href="#DejaVuSans-35"/>
      </g>
     </g>
    </g>
    <g id="ytick_5">
     <g id="line2d_10">
      <g>
       <use style="stroke:#000000;stroke-width:0.8;" x="99" xlink:href="#m625cfed874" y="168.18464"/>
      </g>
     </g>
     <g id="text_10">
      <!-- 2.0 -->
      <g transform="translate(76.096875 171.983859)scale(0.1 -0.1)">
       <use xlink:href="#DejaVuSans-32"/>
       <use x="63.623047" xlink:href="#DejaVuSans-2e"/>
       <use x="95.410156" xlink:href="#DejaVuSans-30"/>
      </g>
     </g>
    </g>
    <g id="ytick_6">
     <g id="line2d_11">
      <g>
       <use style="stroke:#000000;stroke-width:0.8;" x="99" xlink:href="#m625cfed874" y="91.075683"/>
      </g>
     </g>
     <g id="text_11">
      <!-- 2.5 -->
      <g transform="translate(76.096875 94.874902)scale(0.1 -0.1)">
       <use xlink:href="#DejaVuSans-32"/>
       <use x="63.623047" xlink:href="#DejaVuSans-2e"/>
       <use x="95.410156" xlink:href="#DejaVuSans-35"/>
      </g>
     </g>
    </g>
    <g id="text_12">
     <!-- 1e−16 -->
     <defs>
      <path d="M 56.203125 29.59375 
L 56.203125 25.203125 
L 14.890625 25.203125 
Q 15.484375 15.921875 20.484375 11.0625 
Q 25.484375 6.203125 34.421875 6.203125 
Q 39.59375 6.203125 44.453125 7.46875 
Q 49.3125 8.734375 54.109375 11.28125 
L 54.109375 2.78125 
Q 49.265625 0.734375 44.1875 -0.34375 
Q 39.109375 -1.421875 33.890625 -1.421875 
Q 20.796875 -1.421875 13.15625 6.1875 
Q 5.515625 13.8125 5.515625 26.8125 
Q 5.515625 40.234375 12.765625 48.109375 
Q 20.015625 56 32.328125 56 
Q 43.359375 56 49.78125 48.890625 
Q 56.203125 41.796875 56.203125 29.59375 
z
M 47.21875 32.234375 
Q 47.125 39.59375 43.09375 43.984375 
Q 39.0625 48.390625 32.421875 48.390625 
Q 24.90625 48.390625 20.390625 44.140625 
Q 15.875 39.890625 15.1875 32.171875 
z
" id="DejaVuSans-65"/>
      <path d="M 33.015625 40.375 
Q 26.375 40.375 22.484375 35.828125 
Q 18.609375 31.296875 18.609375 23.390625 
Q 18.609375 15.53125 22.484375 10.953125 
Q 26.375 6.390625 33.015625 6.390625 
Q 39.65625 6.390625 43.53125 10.953125 
Q 47.40625 15.53125 47.40625 23.390625 
Q 47.40625 31.296875 43.53125 35.828125 
Q 39.65625 40.375 33.015625 40.375 
z
M 52.59375 71.296875 
L 52.59375 62.3125 
Q 48.875 64.0625 45.09375 64.984375 
Q 41.3125 65.921875 37.59375 65.921875 
Q 27.828125 65.921875 22.671875 59.328125 
Q 17.53125 52.734375 16.796875 39.40625 
Q 19.671875 43.65625 24.015625 45.921875 
Q 28.375 48.1875 33.59375 48.1875 
Q 44.578125 48.1875 50.953125 41.515625 
Q 57.328125 34.859375 57.328125 23.390625 
Q 57.328125 12.15625 50.6875 5.359375 
Q 44.046875 -1.421875 33.015625 -1.421875 
Q 20.359375 -1.421875 13.671875 8.265625 
Q 6.984375 17.96875 6.984375 36.375 
Q 6.984375 53.65625 15.1875 63.9375 
Q 23.390625 74.21875 37.203125 74.21875 
Q 40.921875 74.21875 44.703125 73.484375 
Q 48.484375 72.75 52.59375 71.296875 
z
" id="DejaVuSans-36"/>
     </defs>
     <g transform="translate(99 70.44)scale(0.1 -0.1)">
      <use xlink:href="#DejaVuSans-31"/>
      <use x="63.623047" xlink:href="#DejaVuSans-65"/>
      <use x="125.146484" xlink:href="#DejaVuSans-2212"/>
      <use x="208.935547" xlink:href="#DejaVuSans-31"/>
      <use x="272.558594" xlink:href="#DejaVuSans-36"/>
     </g>
    </g>
   </g>
   <g id="line2d_12">
    <path clip-path="url(#p3d3c716941)" d="M 107.205882 476.620468 
L 108.573529 476.620468 
L 109.941176 476.620468 
L 111.308824 476.620468 
L 112.676471 476.620468 
L 114.044118 476.620468 
L 115.411765 476.620468 
L 116.779412 476.620468 
L 118.147059 476.620468 
L 119.514706 476.620468 
L 120.882353 476.620468 
L 122.25 476.620468 
L 123.617647 476.620468 
L 124.985294 476.620468 
L 126.352941 476.620468 
L 127.720588 476.620468 
L 129.088235 476.620468 
L 130.455882 476.620468 
L 131.823529 476.620468 
L 133.191176 476.620468 
L 134.558824 476.620468 
L 135.926471 476.620468 
L 137.294118 476.620468 
L 138.661765 476.620468 
L 140.029412 476.620468 
L 141.397059 476.620468 
L 142.764706 476.620468 
L 144.132353 476.620468 
L 145.5 476.620468 
L 146.867647 476.620468 
L 148.235294 476.620468 
L 149.602941 476.620468 
L 150.970588 476.620468 
L 152.338235 476.620468 
L 153.705882 476.620468 
L 155.073529 476.620468 
L 156.441176 476.620468 
L 157.808824 476.620468 
L 159.176471 476.620468 
L 160.544118 476.620468 
L 161.911765 476.620468 
L 163.279412 476.620468 
L 164.647059 476.620468 
L 166.014706 476.620468 
L 167.382353 476.620468 
L 168.75 476.620468 
L 170.117647 476.620468 
L 171.485294 476.620468 
L 172.852941 476.620468 
L 174.220588 476.620468 
L 175.588235 476.620468 
L 176.955882 476.620468 
L 178.323529 476.620468 
L 179.691176 476.620468 
L 181.058824 476.620468 
L 182.426471 476.620468 
L 183.794118 476.620468 
L 185.161765 476.620468 
L 186.529412 476.620468 
L 187.897059 476.620468 
L 189.264706 476.620468 
L 190.632353 476.620468 
L 192 476.620468 
L 193.367647 476.620468 
L 194.735294 476.620468 
L 196.102941 476.620468 
L 197.470588 476.620468 
L 198.838235 476.620468 
L 200.205882 476.620468 
L 201.573529 476.620468 
L 202.941176 476.620468 
L 204.308824 476.620468 
L 205.676471 476.620468 
L 207.044118 476.620468 
L 208.411765 476.620468 
L 209.779412 476.620468 
L 211.147059 476.620468 
L 212.514706 476.620468 
L 213.882353 476.620468 
L 215.25 476.620468 
L 216.617647 476.620468 
L 217.985294 476.620468 
L 219.352941 476.620468 
L 220.720588 476.620468 
L 222.088235 476.620468 
L 223.455882 476.620468 
L 224.823529 476.620468 
L 226.191176 476.620468 
L 227.558824 476.620468 
L 228.926471 476.620468 
L 230.294118 476.620468 
L 231.661765 476.620468 
L 233.029412 476.620468 
L 234.397059 476.620468 
L 235.764706 476.620468 
L 237.132353 476.620468 
L 238.5 476.620468 
L 239.867647 476.620468 
L 241.235294 476.620468 
L 242.602941 476.620468 
L 243.970588 476.620468 
L 245.338235 476.620468 
L 246.705882 476.620468 
L 248.073529 476.620468 
L 249.441176 476.620468 
L 250.808824 476.620468 
L 252.176471 476.620468 
L 253.544118 476.620468 
L 254.911765 476.620468 
L 256.279412 476.620468 
L 257.647059 476.620468 
L 259.014706 476.620468 
L 260.382353 476.620468 
L 261.75 476.620468 
L 263.117647 476.620468 
L 264.485294 476.620468 
L 265.852941 476.620468 
L 267.220588 476.620468 
L 268.588235 476.620468 
L 269.955882 476.620468 
L 271.323529 476.620468 
" style="fill:none;stroke:#1f77b4;stroke-linecap:square;stroke-width:1.5;"/>
   </g>
   <g id="line2d_13">
    <path clip-path="url(#p3d3c716941)" d="M 107.205882 523.26 
L 109.341547 522.008278 
L 111.312931 520.606194 
L 113.284314 518.927569 
L 115.091415 517.109394 
L 116.898516 514.986976 
L 118.705617 512.521692 
L 120.512719 509.672444 
L 122.31982 506.395974 
L 124.126921 502.647287 
L 125.934022 498.380196 
L 127.741123 493.547984 
L 129.548225 488.104198 
L 131.519608 481.414878 
L 133.490991 473.888184 
L 135.462374 465.473314 
L 137.598039 455.304132 
L 139.733704 443.997083 
L 141.869369 431.523478 
L 144.169316 416.774514 
L 146.633545 399.475941 
L 149.262056 379.386857 
L 152.219131 354.933499 
L 155.504769 325.810154 
L 159.7761 285.789476 
L 168.811606 200.513081 
L 171.76868 175.003536 
L 174.232909 155.574937 
L 176.368574 140.427418 
L 178.175676 129.034723 
L 179.818495 119.93621 
L 181.297032 112.852889 
L 182.611288 107.486391 
L 183.925543 103.03292 
L 185.075517 99.909085 
L 186.061208 97.818958 
L 186.882618 96.49772 
L 187.704028 95.56264 
L 188.361155 95.09434 
L 189.018283 94.875627 
L 189.675411 94.906878 
L 190.332538 95.18804 
L 190.989666 95.718627 
L 191.811076 96.731174 
L 192.632485 98.129249 
L 193.618177 100.310461 
L 194.603869 103.03292 
L 195.753842 106.879096 
L 197.068098 112.13333 
L 198.546635 119.096173 
L 200.189454 128.069149 
L 201.996555 139.335195 
L 203.967939 153.134924 
L 206.267886 170.968834 
L 208.896396 193.225583 
L 212.182035 223.092354 
L 217.767621 276.355123 
L 223.188924 327.307566 
L 226.638845 357.739717 
L 229.595919 381.986567 
L 232.388712 403.057269 
L 234.852941 420.049579 
L 237.31717 435.486767 
L 239.617117 448.48281 
L 241.752782 459.347915 
L 243.888447 469.090447 
L 246.024112 477.759514 
L 247.995495 484.860821 
L 249.966879 491.152111 
L 251.938262 496.690871 
L 253.909645 501.536909 
L 255.716746 505.422363 
L 257.523847 508.823096 
L 259.330949 511.784488 
L 261.13805 514.350315 
L 262.945151 516.562303 
L 264.916534 518.617964 
L 266.887917 520.346733 
L 268.8593 521.792106 
L 270.994966 523.083771 
L 271.323529 523.26 
L 271.323529 523.26 
" style="fill:none;stroke:#ff7f0e;stroke-linecap:square;stroke-width:1.5;"/>
   </g>
   <g id="patch_3">
    <path d="M 99 544.68 
L 99 73.44 
" style="fill:none;stroke:#000000;stroke-linecap:square;stroke-linejoin:miter;stroke-width:0.8;"/>
   </g>
   <g id="patch_4">
    <path d="M 279.529412 544.68 
L 279.529412 73.44 
" style="fill:none;stroke:#000000;stroke-linecap:square;stroke-linejoin:miter;stroke-width:0.8;"/>
   </g>
   <g id="patch_5">
    <path d="M 99 544.68 
L 279.529412 544.68 
" style="fill:none;stroke:#000000;stroke-linecap:square;stroke-linejoin:miter;stroke-width:0.8;"/>
   </g>
   <g id="patch_6">
    <path d="M 99 73.44 
L 279.529412 73.44 
" style="fill:none;stroke:#000000;stroke-linecap:square;stroke-linejoin:miter;stroke-width:0.8;"/>
   </g>
   <g id="text_13">
    <g id="patch_7">
     <path d="M 108.026471 152.55225 
L 190.895846 152.55225 
Q 194.495846 152.55225 194.495846 148.95225 
L 194.495846 97.002 
Q 194.495846 93.402 190.895846 93.402 
L 108.026471 93.402 
Q 104.426471 93.402 104.426471 97.002 
L 104.426471 148.95225 
Q 104.426471 152.55225 108.026471 152.55225 
z
" style="fill:#f5deb3;opacity:0.5;stroke:#000000;stroke-linejoin:miter;"/>
    </g>
    <!-- a=0.000 -->
    <defs>
     <path d="M 34.28125 27.484375 
Q 23.390625 27.484375 19.1875 25 
Q 14.984375 22.515625 14.984375 16.5 
Q 14.984375 11.71875 18.140625 8.90625 
Q 21.296875 6.109375 26.703125 6.109375 
Q 34.1875 6.109375 38.703125 11.40625 
Q 43.21875 16.703125 43.21875 25.484375 
L 43.21875 27.484375 
z
M 52.203125 31.203125 
L 52.203125 0 
L 43.21875 0 
L 43.21875 8.296875 
Q 40.140625 3.328125 35.546875 0.953125 
Q 30.953125 -1.421875 24.3125 -1.421875 
Q 15.921875 -1.421875 10.953125 3.296875 
Q 6 8.015625 6 15.921875 
Q 6 25.140625 12.171875 29.828125 
Q 18.359375 34.515625 30.609375 34.515625 
L 43.21875 34.515625 
L 43.21875 35.40625 
Q 43.21875 41.609375 39.140625 45 
Q 35.0625 48.390625 27.6875 48.390625 
Q 23 48.390625 18.546875 47.265625 
Q 14.109375 46.140625 10.015625 43.890625 
L 10.015625 52.203125 
Q 14.9375 54.109375 19.578125 55.046875 
Q 24.21875 56 28.609375 56 
Q 40.484375 56 46.34375 49.84375 
Q 52.203125 43.703125 52.203125 31.203125 
z
" id="DejaVuSans-61"/>
     <path d="M 10.59375 45.40625 
L 73.1875 45.40625 
L 73.1875 37.203125 
L 10.59375 37.203125 
z
M 10.59375 25.484375 
L 73.1875 25.484375 
L 73.1875 17.1875 
L 10.59375 17.1875 
z
" id="DejaVuSans-3d"/>
    </defs>
    <g transform="translate(108.026471 106.120125)scale(0.12 -0.12)">
     <use xlink:href="#DejaVuSans-61"/>
     <use x="61.279297" xlink:href="#DejaVuSans-3d"/>
     <use x="145.068359" xlink:href="#DejaVuSans-30"/>
     <use x="208.691406" xlink:href="#DejaVuSans-2e"/>
     <use x="240.478516" xlink:href="#DejaVuSans-30"/>
     <use x="304.101562" xlink:href="#DejaVuSans-30"/>
     <use x="367.724609" xlink:href="#DejaVuSans-30"/>
    </g>
    <!-- $\mu$=0.000 -->
    <defs>
     <path d="M -1.3125 -20.796875 
L 13.375 54.6875 
L 22.40625 54.6875 
L 15.765625 20.65625 
Q 15.578125 19.625 15.421875 18.359375 
Q 15.28125 17.09375 15.28125 15.828125 
Q 15.28125 11.28125 18.140625 8.828125 
Q 21 6.390625 26.3125 6.390625 
Q 33.546875 6.390625 37.984375 10.484375 
Q 42.4375 14.59375 44 22.796875 
L 50.203125 54.6875 
L 59.1875 54.6875 
L 51.03125 12.640625 
Q 50.828125 11.71875 50.75 11.03125 
Q 50.6875 10.359375 50.6875 9.8125 
Q 50.6875 8.296875 51.296875 7.59375 
Q 51.90625 6.890625 53.21875 6.890625 
Q 53.71875 6.890625 54.5625 7.125 
Q 55.421875 7.375 56.984375 8.015625 
L 55.609375 0.78125 
Q 53.46875 -0.296875 51.515625 -0.859375 
Q 49.5625 -1.421875 47.703125 -1.421875 
Q 44.484375 -1.421875 42.65625 0.625 
Q 40.828125 2.6875 40.828125 6.296875 
Q 38.09375 2.390625 34.296875 0.484375 
Q 30.515625 -1.421875 25.390625 -1.421875 
Q 20.84375 -1.421875 17.453125 0.671875 
Q 14.0625 2.78125 12.984375 6.203125 
L 7.71875 -20.796875 
z
" id="DejaVuSans-Oblique-3bc"/>
    </defs>
    <g transform="translate(108.026471 119.5575)scale(0.12 -0.12)">
     <use transform="translate(0 0.78125)" xlink:href="#DejaVuSans-Oblique-3bc"/>
     <use transform="translate(63.623047 0.78125)" xlink:href="#DejaVuSans-3d"/>
     <use transform="translate(147.412109 0.78125)" xlink:href="#DejaVuSans-30"/>
     <use transform="translate(211.035156 0.78125)" xlink:href="#DejaVuSans-2e"/>
     <use transform="translate(242.822266 0.78125)" xlink:href="#DejaVuSans-30"/>
     <use transform="translate(306.445312 0.78125)" xlink:href="#DejaVuSans-30"/>
     <use transform="translate(370.068359 0.78125)" xlink:href="#DejaVuSans-30"/>
    </g>
    <!-- $\sigma$=0.133 -->
    <defs>
     <path d="M 34.671875 47.5625 
Q 27.25 47.5625 22.21875 42.1875 
Q 16.890625 36.578125 15.140625 27.296875 
Q 13.1875 17.484375 16.3125 11.8125 
Q 19.390625 6.203125 26.65625 6.203125 
Q 33.84375 6.203125 39.109375 11.859375 
Q 44.4375 17.53125 46.34375 27.296875 
Q 48.046875 36.234375 45.015625 42.1875 
Q 42.1875 47.5625 34.671875 47.5625 
z
M 36.078125 54.734375 
L 65.921875 54.6875 
L 64.15625 45.703125 
L 54.109375 45.703125 
Q 57.90625 38.09375 55.859375 27.296875 
Q 53.21875 13.875 45.0625 6.25 
Q 36.859375 -1.421875 25.140625 -1.421875 
Q 13.375 -1.421875 8.203125 6.25 
Q 3.03125 13.875 5.671875 27.296875 
Q 8.25 40.765625 16.40625 48.390625 
Q 23.1875 54.734375 36.078125 54.734375 
z
" id="DejaVuSans-Oblique-3c3"/>
     <path d="M 40.578125 39.3125 
Q 47.65625 37.796875 51.625 33 
Q 55.609375 28.21875 55.609375 21.1875 
Q 55.609375 10.40625 48.1875 4.484375 
Q 40.765625 -1.421875 27.09375 -1.421875 
Q 22.515625 -1.421875 17.65625 -0.515625 
Q 12.796875 0.390625 7.625 2.203125 
L 7.625 11.71875 
Q 11.71875 9.328125 16.59375 8.109375 
Q 21.484375 6.890625 26.8125 6.890625 
Q 36.078125 6.890625 40.9375 10.546875 
Q 45.796875 14.203125 45.796875 21.1875 
Q 45.796875 27.640625 41.28125 31.265625 
Q 36.765625 34.90625 28.71875 34.90625 
L 20.21875 34.90625 
L 20.21875 43.015625 
L 29.109375 43.015625 
Q 36.375 43.015625 40.234375 45.921875 
Q 44.09375 48.828125 44.09375 54.296875 
Q 44.09375 59.90625 40.109375 62.90625 
Q 36.140625 65.921875 28.71875 65.921875 
Q 24.65625 65.921875 20.015625 65.03125 
Q 15.375 64.15625 9.8125 62.3125 
L 9.8125 71.09375 
Q 15.4375 72.65625 20.34375 73.4375 
Q 25.25 74.21875 29.59375 74.21875 
Q 40.828125 74.21875 47.359375 69.109375 
Q 53.90625 64.015625 53.90625 55.328125 
Q 53.90625 49.265625 50.4375 45.09375 
Q 46.96875 40.921875 40.578125 39.3125 
z
" id="DejaVuSans-33"/>
    </defs>
    <g transform="translate(108.026471 133.01925)scale(0.12 -0.12)">
     <use transform="translate(0 0.78125)" xlink:href="#DejaVuSans-Oblique-3c3"/>
     <use transform="translate(63.378906 0.78125)" xlink:href="#DejaVuSans-3d"/>
     <use transform="translate(147.167969 0.78125)" xlink:href="#DejaVuSans-30"/>
     <use transform="translate(210.791016 0.78125)" xlink:href="#DejaVuSans-2e"/>
     <use transform="translate(242.578125 0.78125)" xlink:href="#DejaVuSans-31"/>
     <use transform="translate(306.201172 0.78125)" xlink:href="#DejaVuSans-33"/>
     <use transform="translate(369.824219 0.78125)" xlink:href="#DejaVuSans-33"/>
    </g>
    <!-- offset=-0.000 -->
    <defs>
     <path d="M 30.609375 48.390625 
Q 23.390625 48.390625 19.1875 42.75 
Q 14.984375 37.109375 14.984375 27.296875 
Q 14.984375 17.484375 19.15625 11.84375 
Q 23.34375 6.203125 30.609375 6.203125 
Q 37.796875 6.203125 41.984375 11.859375 
Q 46.1875 17.53125 46.1875 27.296875 
Q 46.1875 37.015625 41.984375 42.703125 
Q 37.796875 48.390625 30.609375 48.390625 
z
M 30.609375 56 
Q 42.328125 56 49.015625 48.375 
Q 55.71875 40.765625 55.71875 27.296875 
Q 55.71875 13.875 49.015625 6.21875 
Q 42.328125 -1.421875 30.609375 -1.421875 
Q 18.84375 -1.421875 12.171875 6.21875 
Q 5.515625 13.875 5.515625 27.296875 
Q 5.515625 40.765625 12.171875 48.375 
Q 18.84375 56 30.609375 56 
z
" id="DejaVuSans-6f"/>
     <path d="M 37.109375 75.984375 
L 37.109375 68.5 
L 28.515625 68.5 
Q 23.6875 68.5 21.796875 66.546875 
Q 19.921875 64.59375 19.921875 59.515625 
L 19.921875 54.6875 
L 34.71875 54.6875 
L 34.71875 47.703125 
L 19.921875 47.703125 
L 19.921875 0 
L 10.890625 0 
L 10.890625 47.703125 
L 2.296875 47.703125 
L 2.296875 54.6875 
L 10.890625 54.6875 
L 10.890625 58.5 
Q 10.890625 67.625 15.140625 71.796875 
Q 19.390625 75.984375 28.609375 75.984375 
z
" id="DejaVuSans-66"/>
     <path d="M 44.28125 53.078125 
L 44.28125 44.578125 
Q 40.484375 46.53125 36.375 47.5 
Q 32.28125 48.484375 27.875 48.484375 
Q 21.1875 48.484375 17.84375 46.4375 
Q 14.5 44.390625 14.5 40.28125 
Q 14.5 37.15625 16.890625 35.375 
Q 19.28125 33.59375 26.515625 31.984375 
L 29.59375 31.296875 
Q 39.15625 29.25 43.1875 25.515625 
Q 47.21875 21.78125 47.21875 15.09375 
Q 47.21875 7.46875 41.1875 3.015625 
Q 35.15625 -1.421875 24.609375 -1.421875 
Q 20.21875 -1.421875 15.453125 -0.5625 
Q 10.6875 0.296875 5.421875 2 
L 5.421875 11.28125 
Q 10.40625 8.6875 15.234375 7.390625 
Q 20.0625 6.109375 24.8125 6.109375 
Q 31.15625 6.109375 34.5625 8.28125 
Q 37.984375 10.453125 37.984375 14.40625 
Q 37.984375 18.0625 35.515625 20.015625 
Q 33.0625 21.96875 24.703125 23.78125 
L 21.578125 24.515625 
Q 13.234375 26.265625 9.515625 29.90625 
Q 5.8125 33.546875 5.8125 39.890625 
Q 5.8125 47.609375 11.28125 51.796875 
Q 16.75 56 26.8125 56 
Q 31.78125 56 36.171875 55.265625 
Q 40.578125 54.546875 44.28125 53.078125 
z
" id="DejaVuSans-73"/>
     <path d="M 18.3125 70.21875 
L 18.3125 54.6875 
L 36.8125 54.6875 
L 36.8125 47.703125 
L 18.3125 47.703125 
L 18.3125 18.015625 
Q 18.3125 11.328125 20.140625 9.421875 
Q 21.96875 7.515625 27.59375 7.515625 
L 36.8125 7.515625 
L 36.8125 0 
L 27.59375 0 
Q 17.1875 0 13.234375 3.875 
Q 9.28125 7.765625 9.28125 18.015625 
L 9.28125 47.703125 
L 2.6875 47.703125 
L 2.6875 54.6875 
L 9.28125 54.6875 
L 9.28125 70.21875 
z
" id="DejaVuSans-74"/>
     <path d="M 4.890625 31.390625 
L 31.203125 31.390625 
L 31.203125 23.390625 
L 4.890625 23.390625 
z
" id="DejaVuSans-2d"/>
    </defs>
    <g transform="translate(108.026471 146.456625)scale(0.12 -0.12)">
     <use xlink:href="#DejaVuSans-6f"/>
     <use x="61.181641" xlink:href="#DejaVuSans-66"/>
     <use x="96.386719" xlink:href="#DejaVuSans-66"/>
     <use x="131.591797" xlink:href="#DejaVuSans-73"/>
     <use x="183.691406" xlink:href="#DejaVuSans-65"/>
     <use x="245.214844" xlink:href="#DejaVuSans-74"/>
     <use x="284.423828" xlink:href="#DejaVuSans-3d"/>
     <use x="368.212891" xlink:href="#DejaVuSans-2d"/>
     <use x="404.296875" xlink:href="#DejaVuSans-30"/>
     <use x="467.919922" xlink:href="#DejaVuSans-2e"/>
     <use x="499.707031" xlink:href="#DejaVuSans-30"/>
     <use x="563.330078" xlink:href="#DejaVuSans-30"/>
     <use x="626.953125" xlink:href="#DejaVuSans-30"/>
    </g>
   </g>
   <g id="text_14">
    <!-- X Axis -->
    <defs>
     <path d="M 6.296875 72.90625 
L 16.890625 72.90625 
L 35.015625 45.796875 
L 53.21875 72.90625 
L 63.8125 72.90625 
L 40.375 37.890625 
L 65.375 0 
L 54.78125 0 
L 34.28125 31 
L 13.625 0 
L 2.984375 0 
L 29 38.921875 
z
" id="DejaVuSans-58"/>
     <path id="DejaVuSans-20"/>
     <path d="M 34.1875 63.1875 
L 20.796875 26.90625 
L 47.609375 26.90625 
z
M 28.609375 72.90625 
L 39.796875 72.90625 
L 67.578125 0 
L 57.328125 0 
L 50.6875 18.703125 
L 17.828125 18.703125 
L 11.1875 0 
L 0.78125 0 
z
" id="DejaVuSans-41"/>
     <path d="M 54.890625 54.6875 
L 35.109375 28.078125 
L 55.90625 0 
L 45.3125 0 
L 29.390625 21.484375 
L 13.484375 0 
L 2.875 0 
L 24.125 28.609375 
L 4.6875 54.6875 
L 15.28125 54.6875 
L 29.78125 35.203125 
L 44.28125 54.6875 
z
" id="DejaVuSans-78"/>
     <path d="M 9.421875 54.6875 
L 18.40625 54.6875 
L 18.40625 0 
L 9.421875 0 
z
M 9.421875 75.984375 
L 18.40625 75.984375 
L 18.40625 64.59375 
L 9.421875 64.59375 
z
" id="DejaVuSans-69"/>
    </defs>
    <g transform="translate(170.799706 67.44)scale(0.12 -0.12)">
     <use xlink:href="#DejaVuSans-58"/>
     <use x="68.505859" xlink:href="#DejaVuSans-20"/>
     <use x="100.292969" xlink:href="#DejaVuSans-41"/>
     <use x="168.701172" xlink:href="#DejaVuSans-78"/>
     <use x="227.880859" xlink:href="#DejaVuSans-69"/>
     <use x="255.664062" xlink:href="#DejaVuSans-73"/>
    </g>
   </g>
  </g>
  <g id="axes_2">
   <g id="patch_8">
    <path d="M 315.635294 544.68 
L 496.164706 544.68 
L 496.164706 73.44 
L 315.635294 73.44 
z
" style="fill:#ffffff;"/>
   </g>
   <g id="matplotlib.axis_3">
    <g id="xtick_6">
     <g id="line2d_14">
      <g>
       <use style="stroke:#000000;stroke-width:0.8;" x="323.841176" xlink:href="#m7d0f13d86c" y="544.68"/>
      </g>
     </g>
     <g id="text_15">
      <!-- −0.4 -->
      <g transform="translate(311.69977 559.278437)scale(0.1 -0.1)">
       <use xlink:href="#DejaVuSans-2212"/>
       <use x="83.789062" xlink:href="#DejaVuSans-30"/>
       <use x="147.412109" xlink:href="#DejaVuSans-2e"/>
       <use x="179.199219" xlink:href="#DejaVuSans-34"/>
      </g>
     </g>
    </g>
    <g id="xtick_7">
     <g id="line2d_15">
      <g>
       <use style="stroke:#000000;stroke-width:0.8;" x="364.870588" xlink:href="#m7d0f13d86c" y="544.68"/>
      </g>
     </g>
     <g id="text_16">
      <!-- −0.2 -->
      <g transform="translate(352.729182 559.278437)scale(0.1 -0.1)">
       <use xlink:href="#DejaVuSans-2212"/>
       <use x="83.789062" xlink:href="#DejaVuSans-30"/>
       <use x="147.412109" xlink:href="#DejaVuSans-2e"/>
       <use x="179.199219" xlink:href="#DejaVuSans-32"/>
      </g>
     </g>
    </g>
    <g id="xtick_8">
     <g id="line2d_16">
      <g>
       <use style="stroke:#000000;stroke-width:0.8;" x="405.9" xlink:href="#m7d0f13d86c" y="544.68"/>
      </g>
     </g>
     <g id="text_17">
      <!-- 0.0 -->
      <g transform="translate(397.948438 559.278437)scale(0.1 -0.1)">
       <use xlink:href="#DejaVuSans-30"/>
       <use x="63.623047" xlink:href="#DejaVuSans-2e"/>
       <use x="95.410156" xlink:href="#DejaVuSans-30"/>
      </g>
     </g>
    </g>
    <g id="xtick_9">
     <g id="line2d_17">
      <g>
       <use style="stroke:#000000;stroke-width:0.8;" x="446.929412" xlink:href="#m7d0f13d86c" y="544.68"/>
      </g>
     </g>
     <g id="text_18">
      <!-- 0.2 -->
      <g transform="translate(438.977849 559.278437)scale(0.1 -0.1)">
       <use xlink:href="#DejaVuSans-30"/>
       <use x="63.623047" xlink:href="#DejaVuSans-2e"/>
       <use x="95.410156" xlink:href="#DejaVuSans-32"/>
      </g>
     </g>
    </g>
    <g id="xtick_10">
     <g id="line2d_18">
      <g>
       <use style="stroke:#000000;stroke-width:0.8;" x="487.958824" xlink:href="#m7d0f13d86c" y="544.68"/>
      </g>
     </g>
     <g id="text_19">
      <!-- 0.4 -->
      <g transform="translate(480.007261 559.278437)scale(0.1 -0.1)">
       <use xlink:href="#DejaVuSans-30"/>
       <use x="63.623047" xlink:href="#DejaVuSans-2e"/>
       <use x="95.410156" xlink:href="#DejaVuSans-34"/>
      </g>
     </g>
    </g>
   </g>
   <g id="matplotlib.axis_4">
    <g id="ytick_7">
     <g id="line2d_19">
      <g>
       <use style="stroke:#000000;stroke-width:0.8;" x="315.635294" xlink:href="#m625cfed874" y="476.620468"/>
      </g>
     </g>
     <g id="text_20">
      <!-- 0.0 -->
      <g transform="translate(292.732169 480.419687)scale(0.1 -0.1)">
       <use xlink:href="#DejaVuSans-30"/>
       <use x="63.623047" xlink:href="#DejaVuSans-2e"/>
       <use x="95.410156" xlink:href="#DejaVuSans-30"/>
      </g>
     </g>
    </g>
    <g id="ytick_8">
     <g id="line2d_20">
      <g>
       <use style="stroke:#000000;stroke-width:0.8;" x="315.635294" xlink:href="#m625cfed874" y="399.511511"/>
      </g>
     </g>
     <g id="text_21">
      <!-- 0.5 -->
      <g transform="translate(292.732169 403.31073)scale(0.1 -0.1)">
       <use xlink:href="#DejaVuSans-30"/>
       <use x="63.623047" xlink:href="#DejaVuSans-2e"/>
       <use x="95.410156" xlink:href="#DejaVuSans-35"/>
      </g>
     </g>
    </g>
    <g id="ytick_9">
     <g id="line2d_21">
      <g>
       <use style="stroke:#000000;stroke-width:0.8;" x="315.635294" xlink:href="#m625cfed874" y="322.402554"/>
      </g>
     </g>
     <g id="text_22">
      <!-- 1.0 -->
      <g transform="translate(292.732169 326.201773)scale(0.1 -0.1)">
       <use xlink:href="#DejaVuSans-31"/>
       <use x="63.623047" xlink:href="#DejaVuSans-2e"/>
       <use x="95.410156" xlink:href="#DejaVuSans-30"/>
      </g>
     </g>
    </g>
    <g id="ytick_10">
     <g id="line2d_22">
      <g>
       <use style="stroke:#000000;stroke-width:0.8;" x="315.635294" xlink:href="#m625cfed874" y="245.293597"/>
      </g>
     </g>
     <g id="text_23">
      <!-- 1.5 -->
      <g transform="translate(292.732169 249.092816)scale(0.1 -0.1)">
       <use xlink:href="#DejaVuSans-31"/>
       <use x="63.623047" xlink:href="#DejaVuSans-2e"/>
       <use x="95.410156" xlink:href="#DejaVuSans-35"/>
      </g>
     </g>
    </g>
    <g id="ytick_11">
     <g id="line2d_23">
      <g>
       <use style="stroke:#000000;stroke-width:0.8;" x="315.635294" xlink:href="#m625cfed874" y="168.18464"/>
      </g>
     </g>
     <g id="text_24">
      <!-- 2.0 -->
      <g transform="translate(292.732169 171.983859)scale(0.1 -0.1)">
       <use xlink:href="#DejaVuSans-32"/>
       <use x="63.623047" xlink:href="#DejaVuSans-2e"/>
       <use x="95.410156" xlink:href="#DejaVuSans-30"/>
      </g>
     </g>
    </g>
    <g id="ytick_12">
     <g id="line2d_24">
      <g>
       <use style="stroke:#000000;stroke-width:0.8;" x="315.635294" xlink:href="#m625cfed874" y="91.075683"/>
      </g>
     </g>
     <g id="text_25">
      <!-- 2.5 -->
      <g transform="translate(292.732169 94.874902)scale(0.1 -0.1)">
       <use xlink:href="#DejaVuSans-32"/>
       <use x="63.623047" xlink:href="#DejaVuSans-2e"/>
       <use x="95.410156" xlink:href="#DejaVuSans-35"/>
      </g>
     </g>
    </g>
    <g id="text_26">
     <!-- 1e−16 -->
     <g transform="translate(315.635294 70.44)scale(0.1 -0.1)">
      <use xlink:href="#DejaVuSans-31"/>
      <use x="63.623047" xlink:href="#DejaVuSans-65"/>
      <use x="125.146484" xlink:href="#DejaVuSans-2212"/>
      <use x="208.935547" xlink:href="#DejaVuSans-31"/>
      <use x="272.558594" xlink:href="#DejaVuSans-36"/>
     </g>
    </g>
   </g>
   <g id="line2d_25">
    <path clip-path="url(#p6f0519a67e)" d="M 323.841176 476.620468 
L 325.208824 476.620468 
L 326.576471 476.620468 
L 327.944118 476.620468 
L 329.311765 476.620468 
L 330.679412 476.620468 
L 332.047059 476.620468 
L 333.414706 476.620468 
L 334.782353 476.620468 
L 336.15 476.620468 
L 337.517647 476.620468 
L 338.885294 476.620468 
L 340.252941 476.620468 
L 341.620588 476.620468 
L 342.988235 476.620468 
L 344.355882 476.620468 
L 345.723529 476.620468 
L 347.091176 476.620468 
L 348.458824 476.620468 
L 349.826471 476.620468 
L 351.194118 476.620468 
L 352.561765 476.620468 
L 353.929412 476.620468 
L 355.297059 476.620468 
L 356.664706 476.620468 
L 358.032353 476.620468 
L 359.4 476.620468 
L 360.767647 476.620468 
L 362.135294 476.620468 
L 363.502941 476.620468 
L 364.870588 476.620468 
L 366.238235 476.620468 
L 367.605882 476.620468 
L 368.973529 476.620468 
L 370.341176 476.620468 
L 371.708824 476.620468 
L 373.076471 476.620468 
L 374.444118 476.620468 
L 375.811765 476.620468 
L 377.179412 476.620468 
L 378.547059 476.620468 
L 379.914706 476.620468 
L 381.282353 476.620468 
L 382.65 476.620468 
L 384.017647 476.620468 
L 385.385294 476.620468 
L 386.752941 476.620468 
L 388.120588 476.620468 
L 389.488235 476.620468 
L 390.855882 476.620468 
L 392.223529 476.620468 
L 393.591176 476.620468 
L 394.958824 476.620468 
L 396.326471 476.620468 
L 397.694118 476.620468 
L 399.061765 476.620468 
L 400.429412 476.620468 
L 401.797059 476.620468 
L 403.164706 476.620468 
L 404.532353 476.620468 
L 405.9 476.620468 
L 407.267647 476.620468 
L 408.635294 476.620468 
L 410.002941 476.620468 
L 411.370588 476.620468 
L 412.738235 476.620468 
L 414.105882 476.620468 
L 415.473529 476.620468 
L 416.841176 476.620468 
L 418.208824 476.620468 
L 419.576471 476.620468 
L 420.944118 476.620468 
L 422.311765 476.620468 
L 423.679412 476.620468 
L 425.047059 476.620468 
L 426.414706 476.620468 
L 427.782353 476.620468 
L 429.15 476.620468 
L 430.517647 476.620468 
L 431.885294 476.620468 
L 433.252941 476.620468 
L 434.620588 476.620468 
L 435.988235 476.620468 
L 437.355882 476.620468 
L 438.723529 476.620468 
L 440.091176 476.620468 
L 441.458824 476.620468 
L 442.826471 476.620468 
L 444.194118 476.620468 
L 445.561765 476.620468 
L 446.929412 476.620468 
L 448.297059 476.620468 
L 449.664706 476.620468 
L 451.032353 476.620468 
L 452.4 476.620468 
L 453.767647 476.620468 
L 455.135294 476.620468 
L 456.502941 476.620468 
L 457.870588 476.620468 
L 459.238235 476.620468 
L 460.605882 476.620468 
L 461.973529 476.620468 
L 463.341176 476.620468 
L 464.708824 476.620468 
L 466.076471 476.620468 
L 467.444118 476.620468 
L 468.811765 476.620468 
L 470.179412 476.620468 
L 471.547059 476.620468 
L 472.914706 476.620468 
L 474.282353 476.620468 
L 475.65 476.620468 
L 477.017647 476.620468 
L 478.385294 476.620468 
L 479.752941 476.620468 
L 481.120588 476.620468 
L 482.488235 476.620468 
L 483.855882 476.620468 
L 485.223529 476.620468 
L 486.591176 476.620468 
L 487.958824 476.620468 
" style="fill:none;stroke:#1f77b4;stroke-linecap:square;stroke-width:1.5;"/>
   </g>
   <g id="line2d_26">
    <path clip-path="url(#p6f0519a67e)" d="M 323.841176 523.26 
L 325.976842 522.008278 
L 327.948225 520.606194 
L 329.919608 518.927569 
L 331.726709 517.109394 
L 333.53381 514.986976 
L 335.340911 512.521692 
L 337.148013 509.672444 
L 338.955114 506.395974 
L 340.762215 502.647287 
L 342.569316 498.380196 
L 344.376418 493.547984 
L 346.183519 488.104198 
L 348.154902 481.414878 
L 350.126285 473.888184 
L 352.097668 465.473314 
L 354.233333 455.304132 
L 356.368998 443.997083 
L 358.504663 431.523478 
L 360.80461 416.774514 
L 363.268839 399.475941 
L 365.89735 379.386857 
L 368.854425 354.933499 
L 372.140064 325.810154 
L 376.411394 285.789476 
L 385.4469 200.513081 
L 388.403975 175.003536 
L 390.868203 155.574937 
L 393.003869 140.427418 
L 394.81097 129.034723 
L 396.453789 119.93621 
L 397.932326 112.852889 
L 399.246582 107.486391 
L 400.560837 103.03292 
L 401.710811 99.909085 
L 402.696502 97.818958 
L 403.517912 96.49772 
L 404.339322 95.56264 
L 404.996449 95.09434 
L 405.653577 94.875627 
L 406.310705 94.906878 
L 406.967833 95.18804 
L 407.62496 95.718627 
L 408.44637 96.731174 
L 409.26778 98.129249 
L 410.253471 100.310461 
L 411.239163 103.03292 
L 412.389136 106.879096 
L 413.703392 112.13333 
L 415.181929 119.096173 
L 416.824748 128.069149 
L 418.631849 139.335195 
L 420.603233 153.134924 
L 422.90318 170.968834 
L 425.531691 193.225583 
L 428.817329 223.092354 
L 434.402915 276.355123 
L 439.824218 327.307566 
L 443.274139 357.739717 
L 446.231214 381.986567 
L 449.024006 403.057269 
L 451.488235 420.049579 
L 453.952464 435.486767 
L 456.252411 448.48281 
L 458.388076 459.347915 
L 460.523741 469.090447 
L 462.659406 477.759514 
L 464.63079 484.860821 
L 466.602173 491.152111 
L 468.573556 496.690871 
L 470.544939 501.536909 
L 472.35204 505.422363 
L 474.159141 508.823096 
L 475.966243 511.784488 
L 477.773344 514.350315 
L 479.580445 516.562303 
L 481.551828 518.617964 
L 483.523211 520.346733 
L 485.494595 521.792106 
L 487.63026 523.083771 
L 487.958824 523.26 
L 487.958824 523.26 
" style="fill:none;stroke:#ff7f0e;stroke-linecap:square;stroke-width:1.5;"/>
   </g>
   <g id="patch_9">
    <path d="M 315.635294 544.68 
L 315.635294 73.44 
" style="fill:none;stroke:#000000;stroke-linecap:square;stroke-linejoin:miter;stroke-width:0.8;"/>
   </g>
   <g id="patch_10">
    <path d="M 496.164706 544.68 
L 496.164706 73.44 
" style="fill:none;stroke:#000000;stroke-linecap:square;stroke-linejoin:miter;stroke-width:0.8;"/>
   </g>
   <g id="patch_11">
    <path d="M 315.635294 544.68 
L 496.164706 544.68 
" style="fill:none;stroke:#000000;stroke-linecap:square;stroke-linejoin:miter;stroke-width:0.8;"/>
   </g>
   <g id="patch_12">
    <path d="M 315.635294 73.44 
L 496.164706 73.44 
" style="fill:none;stroke:#000000;stroke-linecap:square;stroke-linejoin:miter;stroke-width:0.8;"/>
   </g>
   <g id="text_27">
    <g id="patch_13">
     <path d="M 324.661765 152.55225 
L 407.53114 152.55225 
Q 411.13114 152.55225 411.13114 148.95225 
L 411.13114 97.002 
Q 411.13114 93.402 407.53114 93.402 
L 324.661765 93.402 
Q 321.061765 93.402 321.061765 97.002 
L 321.061765 148.95225 
Q 321.061765 152.55225 324.661765 152.55225 
z
" style="fill:#f5deb3;opacity:0.5;stroke:#000000;stroke-linejoin:miter;"/>
    </g>
    <!-- a=0.000 -->
    <g transform="translate(324.661765 106.120125)scale(0.12 -0.12)">
     <use xlink:href="#DejaVuSans-61"/>
     <use x="61.279297" xlink:href="#DejaVuSans-3d"/>
     <use x="145.068359" xlink:href="#DejaVuSans-30"/>
     <use x="208.691406" xlink:href="#DejaVuSans-2e"/>
     <use x="240.478516" xlink:href="#DejaVuSans-30"/>
     <use x="304.101562" xlink:href="#DejaVuSans-30"/>
     <use x="367.724609" xlink:href="#DejaVuSans-30"/>
    </g>
    <!-- $\mu$=0.000 -->
    <g transform="translate(324.661765 119.5575)scale(0.12 -0.12)">
     <use transform="translate(0 0.78125)" xlink:href="#DejaVuSans-Oblique-3bc"/>
     <use transform="translate(63.623047 0.78125)" xlink:href="#DejaVuSans-3d"/>
     <use transform="translate(147.412109 0.78125)" xlink:href="#DejaVuSans-30"/>
     <use transform="translate(211.035156 0.78125)" xlink:href="#DejaVuSans-2e"/>
     <use transform="translate(242.822266 0.78125)" xlink:href="#DejaVuSans-30"/>
     <use transform="translate(306.445312 0.78125)" xlink:href="#DejaVuSans-30"/>
     <use transform="translate(370.068359 0.78125)" xlink:href="#DejaVuSans-30"/>
    </g>
    <!-- $\sigma$=0.133 -->
    <g transform="translate(324.661765 133.01925)scale(0.12 -0.12)">
     <use transform="translate(0 0.78125)" xlink:href="#DejaVuSans-Oblique-3c3"/>
     <use transform="translate(63.378906 0.78125)" xlink:href="#DejaVuSans-3d"/>
     <use transform="translate(147.167969 0.78125)" xlink:href="#DejaVuSans-30"/>
     <use transform="translate(210.791016 0.78125)" xlink:href="#DejaVuSans-2e"/>
     <use transform="translate(242.578125 0.78125)" xlink:href="#DejaVuSans-31"/>
     <use transform="translate(306.201172 0.78125)" xlink:href="#DejaVuSans-33"/>
     <use transform="translate(369.824219 0.78125)" xlink:href="#DejaVuSans-33"/>
    </g>
    <!-- offset=-0.000 -->
    <g transform="translate(324.661765 146.456625)scale(0.12 -0.12)">
     <use xlink:href="#DejaVuSans-6f"/>
     <use x="61.181641" xlink:href="#DejaVuSans-66"/>
     <use x="96.386719" xlink:href="#DejaVuSans-66"/>
     <use x="131.591797" xlink:href="#DejaVuSans-73"/>
     <use x="183.691406" xlink:href="#DejaVuSans-65"/>
     <use x="245.214844" xlink:href="#DejaVuSans-74"/>
     <use x="284.423828" xlink:href="#DejaVuSans-3d"/>
     <use x="368.212891" xlink:href="#DejaVuSans-2d"/>
     <use x="404.296875" xlink:href="#DejaVuSans-30"/>
     <use x="467.919922" xlink:href="#DejaVuSans-2e"/>
     <use x="499.707031" xlink:href="#DejaVuSans-30"/>
     <use x="563.330078" xlink:href="#DejaVuSans-30"/>
     <use x="626.953125" xlink:href="#DejaVuSans-30"/>
    </g>
   </g>
   <g id="text_28">
    <!-- Y Axis -->
    <defs>
     <path d="M -0.203125 72.90625 
L 10.40625 72.90625 
L 30.609375 42.921875 
L 50.6875 72.90625 
L 61.28125 72.90625 
L 35.5 34.71875 
L 35.5 0 
L 25.59375 0 
L 25.59375 34.71875 
z
" id="DejaVuSans-59"/>
    </defs>
    <g transform="translate(387.880313 67.44)scale(0.12 -0.12)">
     <use xlink:href="#DejaVuSans-59"/>
     <use x="61.083984" xlink:href="#DejaVuSans-20"/>
     <use x="92.871094" xlink:href="#DejaVuSans-41"/>
     <use x="161.279297" xlink:href="#DejaVuSans-78"/>
     <use x="220.458984" xlink:href="#DejaVuSans-69"/>
     <use x="248.242188" xlink:href="#DejaVuSans-73"/>
    </g>
   </g>
  </g>
  <g id="axes_3">
   <g id="patch_14">
    <path d="M 532.270588 544.68 
L 712.8 544.68 
L 712.8 73.44 
L 532.270588 73.44 
z
" style="fill:#ffffff;"/>
   </g>
   <g id="matplotlib.axis_5">
    <g id="xtick_11">
     <g id="line2d_27">
      <g>
       <use style="stroke:#000000;stroke-width:0.8;" x="540.476471" xlink:href="#m7d0f13d86c" y="544.68"/>
      </g>
     </g>
     <g id="text_29">
      <!-- 0 -->
      <g transform="translate(537.295221 559.278437)scale(0.1 -0.1)">
       <use xlink:href="#DejaVuSans-30"/>
      </g>
     </g>
    </g>
    <g id="xtick_12">
     <g id="line2d_28">
      <g>
       <use style="stroke:#000000;stroke-width:0.8;" x="573.3" xlink:href="#m7d0f13d86c" y="544.68"/>
      </g>
     </g>
     <g id="text_30">
      <!-- 2 -->
      <g transform="translate(570.11875 559.278437)scale(0.1 -0.1)">
       <use xlink:href="#DejaVuSans-32"/>
      </g>
     </g>
    </g>
    <g id="xtick_13">
     <g id="line2d_29">
      <g>
       <use style="stroke:#000000;stroke-width:0.8;" x="606.123529" xlink:href="#m7d0f13d86c" y="544.68"/>
      </g>
     </g>
     <g id="text_31">
      <!-- 4 -->
      <g transform="translate(602.942279 559.278437)scale(0.1 -0.1)">
       <use xlink:href="#DejaVuSans-34"/>
      </g>
     </g>
    </g>
    <g id="xtick_14">
     <g id="line2d_30">
      <g>
       <use style="stroke:#000000;stroke-width:0.8;" x="638.947059" xlink:href="#m7d0f13d86c" y="544.68"/>
      </g>
     </g>
     <g id="text_32">
      <!-- 6 -->
      <g transform="translate(635.765809 559.278437)scale(0.1 -0.1)">
       <use xlink:href="#DejaVuSans-36"/>
      </g>
     </g>
    </g>
    <g id="xtick_15">
     <g id="line2d_31">
      <g>
       <use style="stroke:#000000;stroke-width:0.8;" x="671.770588" xlink:href="#m7d0f13d86c" y="544.68"/>
      </g>
     </g>
     <g id="text_33">
      <!-- 8 -->
      <defs>
       <path d="M 31.78125 34.625 
Q 24.75 34.625 20.71875 30.859375 
Q 16.703125 27.09375 16.703125 20.515625 
Q 16.703125 13.921875 20.71875 10.15625 
Q 24.75 6.390625 31.78125 6.390625 
Q 38.8125 6.390625 42.859375 10.171875 
Q 46.921875 13.96875 46.921875 20.515625 
Q 46.921875 27.09375 42.890625 30.859375 
Q 38.875 34.625 31.78125 34.625 
z
M 21.921875 38.8125 
Q 15.578125 40.375 12.03125 44.71875 
Q 8.5 49.078125 8.5 55.328125 
Q 8.5 64.0625 14.71875 69.140625 
Q 20.953125 74.21875 31.78125 74.21875 
Q 42.671875 74.21875 48.875 69.140625 
Q 55.078125 64.0625 55.078125 55.328125 
Q 55.078125 49.078125 51.53125 44.71875 
Q 48 40.375 41.703125 38.8125 
Q 48.828125 37.15625 52.796875 32.3125 
Q 56.78125 27.484375 56.78125 20.515625 
Q 56.78125 9.90625 50.3125 4.234375 
Q 43.84375 -1.421875 31.78125 -1.421875 
Q 19.734375 -1.421875 13.25 4.234375 
Q 6.78125 9.90625 6.78125 20.515625 
Q 6.78125 27.484375 10.78125 32.3125 
Q 14.796875 37.15625 21.921875 38.8125 
z
M 18.3125 54.390625 
Q 18.3125 48.734375 21.84375 45.5625 
Q 25.390625 42.390625 31.78125 42.390625 
Q 38.140625 42.390625 41.71875 45.5625 
Q 45.3125 48.734375 45.3125 54.390625 
Q 45.3125 60.0625 41.71875 63.234375 
Q 38.140625 66.40625 31.78125 66.40625 
Q 25.390625 66.40625 21.84375 63.234375 
Q 18.3125 60.0625 18.3125 54.390625 
z
" id="DejaVuSans-38"/>
      </defs>
      <g transform="translate(668.589338 559.278437)scale(0.1 -0.1)">
       <use xlink:href="#DejaVuSans-38"/>
      </g>
     </g>
    </g>
    <g id="xtick_16">
     <g id="line2d_32">
      <g>
       <use style="stroke:#000000;stroke-width:0.8;" x="704.594118" xlink:href="#m7d0f13d86c" y="544.68"/>
      </g>
     </g>
     <g id="text_34">
      <!-- 10 -->
      <g transform="translate(698.231618 559.278437)scale(0.1 -0.1)">
       <use xlink:href="#DejaVuSans-31"/>
       <use x="63.623047" xlink:href="#DejaVuSans-30"/>
      </g>
     </g>
    </g>
   </g>
   <g id="matplotlib.axis_6">
    <g id="ytick_13">
     <g id="line2d_33">
      <g>
       <use style="stroke:#000000;stroke-width:0.8;" x="532.270588" xlink:href="#m625cfed874" y="491.966189"/>
      </g>
     </g>
     <g id="text_35">
      <!-- −4 -->
      <g transform="translate(510.528401 495.765407)scale(0.1 -0.1)">
       <use xlink:href="#DejaVuSans-2212"/>
       <use x="83.789062" xlink:href="#DejaVuSans-34"/>
      </g>
     </g>
    </g>
    <g id="ytick_14">
     <g id="line2d_34">
      <g>
       <use style="stroke:#000000;stroke-width:0.8;" x="532.270588" xlink:href="#m625cfed874" y="415.145563"/>
      </g>
     </g>
     <g id="text_36">
      <!-- −3 -->
      <g transform="translate(510.528401 418.944782)scale(0.1 -0.1)">
       <use xlink:href="#DejaVuSans-2212"/>
       <use x="83.789062" xlink:href="#DejaVuSans-33"/>
      </g>
     </g>
    </g>
    <g id="ytick_15">
     <g id="line2d_35">
      <g>
       <use style="stroke:#000000;stroke-width:0.8;" x="532.270588" xlink:href="#m625cfed874" y="338.324938"/>
      </g>
     </g>
     <g id="text_37">
      <!-- −2 -->
      <g transform="translate(510.528401 342.124156)scale(0.1 -0.1)">
       <use xlink:href="#DejaVuSans-2212"/>
       <use x="83.789062" xlink:href="#DejaVuSans-32"/>
      </g>
     </g>
    </g>
    <g id="ytick_16">
     <g id="line2d_36">
      <g>
       <use style="stroke:#000000;stroke-width:0.8;" x="532.270588" xlink:href="#m625cfed874" y="261.504312"/>
      </g>
     </g>
     <g id="text_38">
      <!-- −1 -->
      <g transform="translate(510.528401 265.303531)scale(0.1 -0.1)">
       <use xlink:href="#DejaVuSans-2212"/>
       <use x="83.789062" xlink:href="#DejaVuSans-31"/>
      </g>
     </g>
    </g>
    <g id="ytick_17">
     <g id="line2d_37">
      <g>
       <use style="stroke:#000000;stroke-width:0.8;" x="532.270588" xlink:href="#m625cfed874" y="184.683687"/>
      </g>
     </g>
     <g id="text_39">
      <!-- 0 -->
      <g transform="translate(518.908088 188.482905)scale(0.1 -0.1)">
       <use xlink:href="#DejaVuSans-30"/>
      </g>
     </g>
    </g>
    <g id="ytick_18">
     <g id="line2d_38">
      <g>
       <use style="stroke:#000000;stroke-width:0.8;" x="532.270588" xlink:href="#m625cfed874" y="107.863061"/>
      </g>
     </g>
     <g id="text_40">
      <!-- 1 -->
      <g transform="translate(518.908088 111.66228)scale(0.1 -0.1)">
       <use xlink:href="#DejaVuSans-31"/>
      </g>
     </g>
    </g>
    <g id="text_41">
     <!-- 1e−16 -->
     <g transform="translate(532.270588 70.44)scale(0.1 -0.1)">
      <use xlink:href="#DejaVuSans-31"/>
      <use x="63.623047" xlink:href="#DejaVuSans-65"/>
      <use x="125.146484" xlink:href="#DejaVuSans-2212"/>
      <use x="208.935547" xlink:href="#DejaVuSans-31"/>
      <use x="272.558594" xlink:href="#DejaVuSans-36"/>
     </g>
    </g>
   </g>
   <g id="line2d_39">
    <path clip-path="url(#pfd922586bb)" d="M 540.476471 184.683687 
L 541.844118 184.683687 
L 543.211765 184.683687 
L 544.579412 184.683687 
L 545.947059 184.683687 
L 547.314706 184.683687 
L 548.682353 184.683687 
L 550.05 184.683687 
L 551.417647 184.683687 
L 552.785294 184.683687 
L 554.152941 184.683687 
L 555.520588 184.683687 
L 556.888235 184.683687 
L 558.255882 184.683687 
L 559.623529 184.683687 
L 560.991176 184.683687 
L 562.358824 184.683687 
L 563.726471 184.683687 
L 565.094118 184.683687 
L 566.461765 184.683687 
L 567.829412 184.683687 
L 569.197059 184.683687 
L 570.564706 184.683687 
L 571.932353 184.683687 
L 573.3 184.683687 
L 574.667647 184.683687 
L 576.035294 184.683687 
L 577.402941 184.683687 
L 578.770588 184.683687 
L 580.138235 184.683687 
L 581.505882 184.683687 
L 582.873529 184.683687 
L 584.241176 184.683687 
L 585.608824 184.683687 
L 586.976471 184.683687 
L 588.344118 184.683687 
L 589.711765 184.683687 
L 591.079412 184.683687 
L 592.447059 184.683687 
L 593.814706 184.683687 
L 595.182353 184.683687 
L 596.55 184.683687 
L 597.917647 184.683687 
L 599.285294 184.683687 
L 600.652941 184.683687 
L 602.020588 184.683687 
L 603.388235 184.683687 
L 604.755882 184.683687 
L 606.123529 184.683687 
L 607.491176 184.683687 
L 608.858824 184.683687 
L 610.226471 184.683687 
L 611.594118 184.683687 
L 612.961765 184.683687 
L 614.329412 184.683687 
L 615.697059 184.683687 
L 617.064706 184.683687 
L 618.432353 184.683687 
L 619.8 184.683687 
L 621.167647 184.683687 
L 622.535294 184.683687 
L 623.902941 184.683687 
L 625.270588 184.683687 
L 626.638235 184.683687 
L 628.005882 184.683687 
L 629.373529 184.683687 
L 630.741176 184.683687 
L 632.108824 184.683687 
L 633.476471 184.683687 
L 634.844118 184.683687 
L 636.211765 184.683687 
L 637.579412 184.683687 
L 638.947059 184.683687 
L 640.314706 184.683687 
L 641.682353 184.683687 
L 643.05 184.683687 
L 644.417647 184.683687 
L 645.785294 184.683687 
L 647.152941 184.683687 
L 648.520588 184.683687 
L 649.888235 184.683687 
L 651.255882 184.683687 
L 652.623529 184.683687 
L 653.991176 184.683687 
L 655.358824 184.683687 
L 656.726471 184.683687 
L 658.094118 184.683687 
L 659.461765 184.683687 
L 660.829412 184.683687 
L 662.197059 184.683687 
L 663.564706 184.683687 
L 664.932353 184.683687 
L 666.3 184.683687 
L 667.667647 184.683687 
L 669.035294 184.683687 
L 670.402941 184.683687 
L 671.770588 184.683687 
L 673.138235 184.683687 
L 674.505882 184.683687 
L 675.873529 184.683687 
L 677.241176 184.683687 
L 678.608824 184.683687 
L 679.976471 184.683687 
L 681.344118 184.683687 
L 682.711765 184.683687 
L 684.079412 184.683687 
L 685.447059 184.683687 
L 686.814706 184.683687 
L 688.182353 184.683687 
L 689.55 184.683687 
L 690.917647 184.683687 
L 692.285294 184.683687 
L 693.652941 184.683687 
L 695.020588 184.683687 
L 696.388235 184.683687 
L 697.755882 184.683687 
L 699.123529 184.683687 
L 700.491176 184.683687 
L 701.858824 184.683687 
L 703.226471 184.683687 
L 704.594118 184.683687 
" style="fill:none;stroke:#1f77b4;stroke-linecap:square;stroke-width:1.5;"/>
   </g>
   <g id="line2d_40">
    <path clip-path="url(#pfd922586bb)" d="M 540.476471 94.86 
L 542.612136 96.111722 
L 544.583519 97.513806 
L 546.554902 99.192431 
L 548.362003 101.010606 
L 550.169104 103.133024 
L 551.976206 105.598308 
L 553.783307 108.447556 
L 555.590408 111.724026 
L 557.397509 115.472713 
L 559.20461 119.739804 
L 561.011712 124.572016 
L 562.818813 130.015802 
L 564.790196 136.705122 
L 566.761579 144.231817 
L 568.732962 152.646686 
L 570.868627 162.815868 
L 573.004293 174.122918 
L 575.139958 186.596522 
L 577.439905 201.345487 
L 579.904134 218.644059 
L 582.532644 238.733144 
L 585.489719 263.186501 
L 588.775358 292.309846 
L 593.046688 332.330524 
L 602.082194 417.60692 
L 605.039269 443.116464 
L 607.503498 462.545063 
L 609.639163 477.692582 
L 611.446264 489.085277 
L 613.089083 498.18379 
L 614.567621 505.267111 
L 615.881876 510.633609 
L 617.196131 515.08708 
L 618.346105 518.210915 
L 619.331797 520.301042 
L 620.153206 521.62228 
L 620.974616 522.55736 
L 621.631744 523.02566 
L 622.288871 523.244373 
L 622.945999 523.213122 
L 623.603127 522.93196 
L 624.260254 522.401373 
L 625.081664 521.388826 
L 625.903074 519.990751 
L 626.888765 517.809539 
L 627.874457 515.08708 
L 629.02443 511.240904 
L 630.338686 505.98667 
L 631.817223 499.023827 
L 633.460042 490.050851 
L 635.267144 478.784805 
L 637.238527 464.985076 
L 639.538474 447.151166 
L 642.166985 424.894417 
L 645.452623 395.027646 
L 651.038209 341.764877 
L 656.459512 290.812434 
L 659.909433 260.380283 
L 662.866508 236.133433 
L 665.6593 215.062731 
L 668.123529 198.070422 
L 670.587758 182.633233 
L 672.887705 169.637191 
L 675.02337 158.772086 
L 677.159036 149.029554 
L 679.294701 140.360486 
L 681.266084 133.259179 
L 683.237467 126.967889 
L 685.20885 121.429129 
L 687.180233 116.583091 
L 688.987334 112.697637 
L 690.794436 109.296904 
L 692.601537 106.335512 
L 694.408638 103.769685 
L 696.215739 101.557697 
L 698.187122 99.502036 
L 700.158506 97.773267 
L 702.129889 96.327894 
L 704.265554 95.036229 
L 704.594118 94.86 
L 704.594118 94.86 
" style="fill:none;stroke:#ff7f0e;stroke-linecap:square;stroke-width:1.5;"/>
   </g>
   <g id="patch_15">
    <path d="M 532.270588 544.68 
L 532.270588 73.44 
" style="fill:none;stroke:#000000;stroke-linecap:square;stroke-linejoin:miter;stroke-width:0.8;"/>
   </g>
   <g id="patch_16">
    <path d="M 712.8 544.68 
L 712.8 73.44 
" style="fill:none;stroke:#000000;stroke-linecap:square;stroke-linejoin:miter;stroke-width:0.8;"/>
   </g>
   <g id="patch_17">
    <path d="M 532.270588 544.68 
L 712.8 544.68 
" style="fill:none;stroke:#000000;stroke-linecap:square;stroke-linejoin:miter;stroke-width:0.8;"/>
   </g>
   <g id="patch_18">
    <path d="M 532.270588 73.44 
L 712.8 73.44 
" style="fill:none;stroke:#000000;stroke-linecap:square;stroke-linejoin:miter;stroke-width:0.8;"/>
   </g>
   <g id="text_42">
    <g id="patch_19">
     <path d="M 541.297059 152.55225 
L 619.837059 152.55225 
Q 623.437059 152.55225 623.437059 148.95225 
L 623.437059 97.002 
Q 623.437059 93.402 619.837059 93.402 
L 541.297059 93.402 
Q 537.697059 93.402 537.697059 97.002 
L 537.697059 148.95225 
Q 537.697059 152.55225 541.297059 152.55225 
z
" style="fill:#f5deb3;opacity:0.5;stroke:#000000;stroke-linejoin:miter;"/>
    </g>
    <!-- a=-0.000 -->
    <g transform="translate(541.297059 106.120125)scale(0.12 -0.12)">
     <use xlink:href="#DejaVuSans-61"/>
     <use x="61.279297" xlink:href="#DejaVuSans-3d"/>
     <use x="145.068359" xlink:href="#DejaVuSans-2d"/>
     <use x="181.152344" xlink:href="#DejaVuSans-30"/>
     <use x="244.775391" xlink:href="#DejaVuSans-2e"/>
     <use x="276.5625" xlink:href="#DejaVuSans-30"/>
     <use x="340.185547" xlink:href="#DejaVuSans-30"/>
     <use x="403.808594" xlink:href="#DejaVuSans-30"/>
    </g>
    <!-- $\mu$=5.000 -->
    <g transform="translate(541.297059 119.5575)scale(0.12 -0.12)">
     <use transform="translate(0 0.78125)" xlink:href="#DejaVuSans-Oblique-3bc"/>
     <use transform="translate(63.623047 0.78125)" xlink:href="#DejaVuSans-3d"/>
     <use transform="translate(147.412109 0.78125)" xlink:href="#DejaVuSans-35"/>
     <use transform="translate(211.035156 0.78125)" xlink:href="#DejaVuSans-2e"/>
     <use transform="translate(242.822266 0.78125)" xlink:href="#DejaVuSans-30"/>
     <use transform="translate(306.445312 0.78125)" xlink:href="#DejaVuSans-30"/>
     <use transform="translate(370.068359 0.78125)" xlink:href="#DejaVuSans-30"/>
    </g>
    <!-- $\sigma$=1.667 -->
    <defs>
     <path d="M 8.203125 72.90625 
L 55.078125 72.90625 
L 55.078125 68.703125 
L 28.609375 0 
L 18.3125 0 
L 43.21875 64.59375 
L 8.203125 64.59375 
z
" id="DejaVuSans-37"/>
    </defs>
    <g transform="translate(541.297059 133.01925)scale(0.12 -0.12)">
     <use transform="translate(0 0.78125)" xlink:href="#DejaVuSans-Oblique-3c3"/>
     <use transform="translate(63.378906 0.78125)" xlink:href="#DejaVuSans-3d"/>
     <use transform="translate(147.167969 0.78125)" xlink:href="#DejaVuSans-31"/>
     <use transform="translate(210.791016 0.78125)" xlink:href="#DejaVuSans-2e"/>
     <use transform="translate(242.578125 0.78125)" xlink:href="#DejaVuSans-36"/>
     <use transform="translate(306.201172 0.78125)" xlink:href="#DejaVuSans-36"/>
     <use transform="translate(369.824219 0.78125)" xlink:href="#DejaVuSans-37"/>
    </g>
    <!-- offset=0.000 -->
    <g transform="translate(541.297059 146.456625)scale(0.12 -0.12)">
     <use xlink:href="#DejaVuSans-6f"/>
     <use x="61.181641" xlink:href="#DejaVuSans-66"/>
     <use x="96.386719" xlink:href="#DejaVuSans-66"/>
     <use x="131.591797" xlink:href="#DejaVuSans-73"/>
     <use x="183.691406" xlink:href="#DejaVuSans-65"/>
     <use x="245.214844" xlink:href="#DejaVuSans-74"/>
     <use x="284.423828" xlink:href="#DejaVuSans-3d"/>
     <use x="368.212891" xlink:href="#DejaVuSans-30"/>
     <use x="431.835938" xlink:href="#DejaVuSans-2e"/>
     <use x="463.623047" xlink:href="#DejaVuSans-30"/>
     <use x="527.246094" xlink:href="#DejaVuSans-30"/>
     <use x="590.869141" xlink:href="#DejaVuSans-30"/>
    </g>
   </g>
   <g id="text_43">
    <!-- Z Axis -->
    <defs>
     <path d="M 5.609375 72.90625 
L 62.890625 72.90625 
L 62.890625 65.375 
L 16.796875 8.296875 
L 64.015625 8.296875 
L 64.015625 0 
L 4.5 0 
L 4.5 7.515625 
L 50.59375 64.59375 
L 5.609375 64.59375 
z
" id="DejaVuSans-5a"/>
    </defs>
    <g transform="translate(604.070294 67.44)scale(0.12 -0.12)">
     <use xlink:href="#DejaVuSans-5a"/>
     <use x="68.505859" xlink:href="#DejaVuSans-20"/>
     <use x="100.292969" xlink:href="#DejaVuSans-41"/>
     <use x="168.701172" xlink:href="#DejaVuSans-78"/>
     <use x="227.880859" xlink:href="#DejaVuSans-69"/>
     <use x="255.664062" xlink:href="#DejaVuSans-73"/>
    </g>
   </g>
  </g>
 </g>
 <defs>
  <clipPath id="p3d3c716941">
   <rect height="471.24" width="180.529412" x="99" y="73.44"/>
  </clipPath>
  <clipPath id="p6f0519a67e">
   <rect height="471.24" width="180.529412" x="315.635294" y="73.44"/>
  </clipPath>
  <clipPath id="pfd922586bb">
   <rect height="471.24" width="180.529412" x="532.270588" y="73.44"/>
  </clipPath>
 </defs>
</svg>
