<?xml version="1.0" encoding="utf-8" standalone="no"?>
<!DOCTYPE svg PUBLIC "-//W3C//DTD SVG 1.1//EN"
  "http://www.w3.org/Graphics/SVG/1.1/DTD/svg11.dtd">
<!-- Created with matplotlib (http://matplotlib.org/) -->
<svg height="610.56pt" version="1.1" viewBox="0 0 1224 610.56" width="1224pt" xmlns="http://www.w3.org/2000/svg" xmlns:xlink="http://www.w3.org/1999/xlink">
 <defs>
  <style type="text/css">
*{stroke-linecap:butt;stroke-linejoin:round;}
  </style>
 </defs>
 <g id="figure_1">
  <g id="patch_1">
   <path d="M 0 610.56 
L 1224 610.56 
L 1224 0 
L 0 0 
z
" style="fill:#ffffff;"/>
  </g>
  <g id="axes_1">
   <g id="patch_2">
    <path d="M 153 543.3984 
L 432 543.3984 
L 432 73.2672 
L 153 73.2672 
z
" style="fill:#ffffff;"/>
   </g>
   <g id="matplotlib.axis_1">
    <g id="xtick_1">
     <g id="line2d_1">
      <defs>
       <path d="M 0 0 
L 0 3.5 
" id="m59f7c8d949" style="stroke:#000000;stroke-width:0.8;"/>
      </defs>
      <g>
       <use style="stroke:#000000;stroke-width:0.8;" x="165.681818" xlink:href="#m59f7c8d949" y="543.3984"/>
      </g>
     </g>
     <g id="text_1">
      <!-- −0.105 -->
      <defs>
       <path d="M 10.59375 35.5 
L 73.1875 35.5 
L 73.1875 27.203125 
L 10.59375 27.203125 
z
" id="DejaVuSans-2212"/>
       <path d="M 31.78125 66.40625 
Q 24.171875 66.40625 20.328125 58.90625 
Q 16.5 51.421875 16.5 36.375 
Q 16.5 21.390625 20.328125 13.890625 
Q 24.171875 6.390625 31.78125 6.390625 
Q 39.453125 6.390625 43.28125 13.890625 
Q 47.125 21.390625 47.125 36.375 
Q 47.125 51.421875 43.28125 58.90625 
Q 39.453125 66.40625 31.78125 66.40625 
z
M 31.78125 74.21875 
Q 44.046875 74.21875 50.515625 64.515625 
Q 56.984375 54.828125 56.984375 36.375 
Q 56.984375 17.96875 50.515625 8.265625 
Q 44.046875 -1.421875 31.78125 -1.421875 
Q 19.53125 -1.421875 13.0625 8.265625 
Q 6.59375 17.96875 6.59375 36.375 
Q 6.59375 54.828125 13.0625 64.515625 
Q 19.53125 74.21875 31.78125 74.21875 
z
" id="DejaVuSans-30"/>
       <path d="M 10.6875 12.40625 
L 21 12.40625 
L 21 0 
L 10.6875 0 
z
" id="DejaVuSans-2e"/>
       <path d="M 12.40625 8.296875 
L 28.515625 8.296875 
L 28.515625 63.921875 
L 10.984375 60.40625 
L 10.984375 69.390625 
L 28.421875 72.90625 
L 38.28125 72.90625 
L 38.28125 8.296875 
L 54.390625 8.296875 
L 54.390625 0 
L 12.40625 0 
z
" id="DejaVuSans-31"/>
       <path d="M 10.796875 72.90625 
L 49.515625 72.90625 
L 49.515625 64.59375 
L 19.828125 64.59375 
L 19.828125 46.734375 
Q 21.96875 47.46875 24.109375 47.828125 
Q 26.265625 48.1875 28.421875 48.1875 
Q 40.625 48.1875 47.75 41.5 
Q 54.890625 34.8125 54.890625 23.390625 
Q 54.890625 11.625 47.5625 5.09375 
Q 40.234375 -1.421875 26.90625 -1.421875 
Q 22.3125 -1.421875 17.546875 -0.640625 
Q 12.796875 0.140625 7.71875 1.703125 
L 7.71875 11.625 
Q 12.109375 9.234375 16.796875 8.0625 
Q 21.484375 6.890625 26.703125 6.890625 
Q 35.15625 6.890625 40.078125 11.328125 
Q 45.015625 15.765625 45.015625 23.390625 
Q 45.015625 31 40.078125 35.4375 
Q 35.15625 39.890625 26.703125 39.890625 
Q 22.75 39.890625 18.8125 39.015625 
Q 14.890625 38.140625 10.796875 36.28125 
z
" id="DejaVuSans-35"/>
      </defs>
      <g transform="translate(147.177912 557.996838)scale(0.1 -0.1)">
       <use xlink:href="#DejaVuSans-2212"/>
       <use x="83.789062" xlink:href="#DejaVuSans-30"/>
       <use x="147.412109" xlink:href="#DejaVuSans-2e"/>
       <use x="179.199219" xlink:href="#DejaVuSans-31"/>
       <use x="242.822266" xlink:href="#DejaVuSans-30"/>
       <use x="306.445312" xlink:href="#DejaVuSans-35"/>
      </g>
     </g>
    </g>
    <g id="xtick_2">
     <g id="line2d_2">
      <g>
       <use style="stroke:#000000;stroke-width:0.8;" x="197.386364" xlink:href="#m59f7c8d949" y="543.3984"/>
      </g>
     </g>
     <g id="text_2">
      <!-- −0.100 -->
      <g transform="translate(178.882457 557.996838)scale(0.1 -0.1)">
       <use xlink:href="#DejaVuSans-2212"/>
       <use x="83.789062" xlink:href="#DejaVuSans-30"/>
       <use x="147.412109" xlink:href="#DejaVuSans-2e"/>
       <use x="179.199219" xlink:href="#DejaVuSans-31"/>
       <use x="242.822266" xlink:href="#DejaVuSans-30"/>
       <use x="306.445312" xlink:href="#DejaVuSans-30"/>
      </g>
     </g>
    </g>
    <g id="xtick_3">
     <g id="line2d_3">
      <g>
       <use style="stroke:#000000;stroke-width:0.8;" x="229.090909" xlink:href="#m59f7c8d949" y="543.3984"/>
      </g>
     </g>
     <g id="text_3">
      <!-- −0.095 -->
      <defs>
       <path d="M 10.984375 1.515625 
L 10.984375 10.5 
Q 14.703125 8.734375 18.5 7.8125 
Q 22.3125 6.890625 25.984375 6.890625 
Q 35.75 6.890625 40.890625 13.453125 
Q 46.046875 20.015625 46.78125 33.40625 
Q 43.953125 29.203125 39.59375 26.953125 
Q 35.25 24.703125 29.984375 24.703125 
Q 19.046875 24.703125 12.671875 31.3125 
Q 6.296875 37.9375 6.296875 49.421875 
Q 6.296875 60.640625 12.9375 67.421875 
Q 19.578125 74.21875 30.609375 74.21875 
Q 43.265625 74.21875 49.921875 64.515625 
Q 56.59375 54.828125 56.59375 36.375 
Q 56.59375 19.140625 48.40625 8.859375 
Q 40.234375 -1.421875 26.421875 -1.421875 
Q 22.703125 -1.421875 18.890625 -0.6875 
Q 15.09375 0.046875 10.984375 1.515625 
z
M 30.609375 32.421875 
Q 37.25 32.421875 41.125 36.953125 
Q 45.015625 41.5 45.015625 49.421875 
Q 45.015625 57.28125 41.125 61.84375 
Q 37.25 66.40625 30.609375 66.40625 
Q 23.96875 66.40625 20.09375 61.84375 
Q 16.21875 57.28125 16.21875 49.421875 
Q 16.21875 41.5 20.09375 36.953125 
Q 23.96875 32.421875 30.609375 32.421875 
z
" id="DejaVuSans-39"/>
      </defs>
      <g transform="translate(210.587003 557.996838)scale(0.1 -0.1)">
       <use xlink:href="#DejaVuSans-2212"/>
       <use x="83.789062" xlink:href="#DejaVuSans-30"/>
       <use x="147.412109" xlink:href="#DejaVuSans-2e"/>
       <use x="179.199219" xlink:href="#DejaVuSans-30"/>
       <use x="242.822266" xlink:href="#DejaVuSans-39"/>
       <use x="306.445312" xlink:href="#DejaVuSans-35"/>
      </g>
     </g>
    </g>
    <g id="xtick_4">
     <g id="line2d_4">
      <g>
       <use style="stroke:#000000;stroke-width:0.8;" x="260.795455" xlink:href="#m59f7c8d949" y="543.3984"/>
      </g>
     </g>
     <g id="text_4">
      <!-- −0.090 -->
      <g transform="translate(242.291548 557.996838)scale(0.1 -0.1)">
       <use xlink:href="#DejaVuSans-2212"/>
       <use x="83.789062" xlink:href="#DejaVuSans-30"/>
       <use x="147.412109" xlink:href="#DejaVuSans-2e"/>
       <use x="179.199219" xlink:href="#DejaVuSans-30"/>
       <use x="242.822266" xlink:href="#DejaVuSans-39"/>
       <use x="306.445312" xlink:href="#DejaVuSans-30"/>
      </g>
     </g>
    </g>
    <g id="xtick_5">
     <g id="line2d_5">
      <g>
       <use style="stroke:#000000;stroke-width:0.8;" x="292.5" xlink:href="#m59f7c8d949" y="543.3984"/>
      </g>
     </g>
     <g id="text_5">
      <!-- −0.085 -->
      <defs>
       <path d="M 31.78125 34.625 
Q 24.75 34.625 20.71875 30.859375 
Q 16.703125 27.09375 16.703125 20.515625 
Q 16.703125 13.921875 20.71875 10.15625 
Q 24.75 6.390625 31.78125 6.390625 
Q 38.8125 6.390625 42.859375 10.171875 
Q 46.921875 13.96875 46.921875 20.515625 
Q 46.921875 27.09375 42.890625 30.859375 
Q 38.875 34.625 31.78125 34.625 
z
M 21.921875 38.8125 
Q 15.578125 40.375 12.03125 44.71875 
Q 8.5 49.078125 8.5 55.328125 
Q 8.5 64.0625 14.71875 69.140625 
Q 20.953125 74.21875 31.78125 74.21875 
Q 42.671875 74.21875 48.875 69.140625 
Q 55.078125 64.0625 55.078125 55.328125 
Q 55.078125 49.078125 51.53125 44.71875 
Q 48 40.375 41.703125 38.8125 
Q 48.828125 37.15625 52.796875 32.3125 
Q 56.78125 27.484375 56.78125 20.515625 
Q 56.78125 9.90625 50.3125 4.234375 
Q 43.84375 -1.421875 31.78125 -1.421875 
Q 19.734375 -1.421875 13.25 4.234375 
Q 6.78125 9.90625 6.78125 20.515625 
Q 6.78125 27.484375 10.78125 32.3125 
Q 14.796875 37.15625 21.921875 38.8125 
z
M 18.3125 54.390625 
Q 18.3125 48.734375 21.84375 45.5625 
Q 25.390625 42.390625 31.78125 42.390625 
Q 38.140625 42.390625 41.71875 45.5625 
Q 45.3125 48.734375 45.3125 54.390625 
Q 45.3125 60.0625 41.71875 63.234375 
Q 38.140625 66.40625 31.78125 66.40625 
Q 25.390625 66.40625 21.84375 63.234375 
Q 18.3125 60.0625 18.3125 54.390625 
z
" id="DejaVuSans-38"/>
      </defs>
      <g transform="translate(273.996094 557.996838)scale(0.1 -0.1)">
       <use xlink:href="#DejaVuSans-2212"/>
       <use x="83.789062" xlink:href="#DejaVuSans-30"/>
       <use x="147.412109" xlink:href="#DejaVuSans-2e"/>
       <use x="179.199219" xlink:href="#DejaVuSans-30"/>
       <use x="242.822266" xlink:href="#DejaVuSans-38"/>
       <use x="306.445312" xlink:href="#DejaVuSans-35"/>
      </g>
     </g>
    </g>
    <g id="xtick_6">
     <g id="line2d_6">
      <g>
       <use style="stroke:#000000;stroke-width:0.8;" x="324.204545" xlink:href="#m59f7c8d949" y="543.3984"/>
      </g>
     </g>
     <g id="text_6">
      <!-- −0.080 -->
      <g transform="translate(305.700639 557.996838)scale(0.1 -0.1)">
       <use xlink:href="#DejaVuSans-2212"/>
       <use x="83.789062" xlink:href="#DejaVuSans-30"/>
       <use x="147.412109" xlink:href="#DejaVuSans-2e"/>
       <use x="179.199219" xlink:href="#DejaVuSans-30"/>
       <use x="242.822266" xlink:href="#DejaVuSans-38"/>
       <use x="306.445312" xlink:href="#DejaVuSans-30"/>
      </g>
     </g>
    </g>
    <g id="xtick_7">
     <g id="line2d_7">
      <g>
       <use style="stroke:#000000;stroke-width:0.8;" x="355.909091" xlink:href="#m59f7c8d949" y="543.3984"/>
      </g>
     </g>
     <g id="text_7">
      <!-- −0.075 -->
      <defs>
       <path d="M 8.203125 72.90625 
L 55.078125 72.90625 
L 55.078125 68.703125 
L 28.609375 0 
L 18.3125 0 
L 43.21875 64.59375 
L 8.203125 64.59375 
z
" id="DejaVuSans-37"/>
      </defs>
      <g transform="translate(337.405185 557.996838)scale(0.1 -0.1)">
       <use xlink:href="#DejaVuSans-2212"/>
       <use x="83.789062" xlink:href="#DejaVuSans-30"/>
       <use x="147.412109" xlink:href="#DejaVuSans-2e"/>
       <use x="179.199219" xlink:href="#DejaVuSans-30"/>
       <use x="242.822266" xlink:href="#DejaVuSans-37"/>
       <use x="306.445312" xlink:href="#DejaVuSans-35"/>
      </g>
     </g>
    </g>
    <g id="xtick_8">
     <g id="line2d_8">
      <g>
       <use style="stroke:#000000;stroke-width:0.8;" x="387.613636" xlink:href="#m59f7c8d949" y="543.3984"/>
      </g>
     </g>
     <g id="text_8">
      <!-- −0.070 -->
      <g transform="translate(369.10973 557.996838)scale(0.1 -0.1)">
       <use xlink:href="#DejaVuSans-2212"/>
       <use x="83.789062" xlink:href="#DejaVuSans-30"/>
       <use x="147.412109" xlink:href="#DejaVuSans-2e"/>
       <use x="179.199219" xlink:href="#DejaVuSans-30"/>
       <use x="242.822266" xlink:href="#DejaVuSans-37"/>
       <use x="306.445312" xlink:href="#DejaVuSans-30"/>
      </g>
     </g>
    </g>
    <g id="xtick_9">
     <g id="line2d_9">
      <g>
       <use style="stroke:#000000;stroke-width:0.8;" x="419.318182" xlink:href="#m59f7c8d949" y="543.3984"/>
      </g>
     </g>
     <g id="text_9">
      <!-- −0.065 -->
      <defs>
       <path d="M 33.015625 40.375 
Q 26.375 40.375 22.484375 35.828125 
Q 18.609375 31.296875 18.609375 23.390625 
Q 18.609375 15.53125 22.484375 10.953125 
Q 26.375 6.390625 33.015625 6.390625 
Q 39.65625 6.390625 43.53125 10.953125 
Q 47.40625 15.53125 47.40625 23.390625 
Q 47.40625 31.296875 43.53125 35.828125 
Q 39.65625 40.375 33.015625 40.375 
z
M 52.59375 71.296875 
L 52.59375 62.3125 
Q 48.875 64.0625 45.09375 64.984375 
Q 41.3125 65.921875 37.59375 65.921875 
Q 27.828125 65.921875 22.671875 59.328125 
Q 17.53125 52.734375 16.796875 39.40625 
Q 19.671875 43.65625 24.015625 45.921875 
Q 28.375 48.1875 33.59375 48.1875 
Q 44.578125 48.1875 50.953125 41.515625 
Q 57.328125 34.859375 57.328125 23.390625 
Q 57.328125 12.15625 50.6875 5.359375 
Q 44.046875 -1.421875 33.015625 -1.421875 
Q 20.359375 -1.421875 13.671875 8.265625 
Q 6.984375 17.96875 6.984375 36.375 
Q 6.984375 53.65625 15.1875 63.9375 
Q 23.390625 74.21875 37.203125 74.21875 
Q 40.921875 74.21875 44.703125 73.484375 
Q 48.484375 72.75 52.59375 71.296875 
z
" id="DejaVuSans-36"/>
      </defs>
      <g transform="translate(400.814276 557.996838)scale(0.1 -0.1)">
       <use xlink:href="#DejaVuSans-2212"/>
       <use x="83.789062" xlink:href="#DejaVuSans-30"/>
       <use x="147.412109" xlink:href="#DejaVuSans-2e"/>
       <use x="179.199219" xlink:href="#DejaVuSans-30"/>
       <use x="242.822266" xlink:href="#DejaVuSans-36"/>
       <use x="306.445312" xlink:href="#DejaVuSans-35"/>
      </g>
     </g>
    </g>
   </g>
   <g id="matplotlib.axis_2">
    <g id="ytick_1">
     <g id="line2d_10">
      <defs>
       <path d="M 0 0 
L -3.5 0 
" id="m0cd62eaea3" style="stroke:#000000;stroke-width:0.8;"/>
      </defs>
      <g>
       <use style="stroke:#000000;stroke-width:0.8;" x="153" xlink:href="#m0cd62eaea3" y="459.015877"/>
      </g>
     </g>
     <g id="text_10">
      <!-- 100 -->
      <g transform="translate(126.9125 462.815096)scale(0.1 -0.1)">
       <use xlink:href="#DejaVuSans-31"/>
       <use x="63.623047" xlink:href="#DejaVuSans-30"/>
       <use x="127.246094" xlink:href="#DejaVuSans-30"/>
      </g>
     </g>
    </g>
    <g id="ytick_2">
     <g id="line2d_11">
      <g>
       <use style="stroke:#000000;stroke-width:0.8;" x="153" xlink:href="#m0cd62eaea3" y="367.6928"/>
      </g>
     </g>
     <g id="text_11">
      <!-- 200 -->
      <defs>
       <path d="M 19.1875 8.296875 
L 53.609375 8.296875 
L 53.609375 0 
L 7.328125 0 
L 7.328125 8.296875 
Q 12.9375 14.109375 22.625 23.890625 
Q 32.328125 33.6875 34.8125 36.53125 
Q 39.546875 41.84375 41.421875 45.53125 
Q 43.3125 49.21875 43.3125 52.78125 
Q 43.3125 58.59375 39.234375 62.25 
Q 35.15625 65.921875 28.609375 65.921875 
Q 23.96875 65.921875 18.8125 64.3125 
Q 13.671875 62.703125 7.8125 59.421875 
L 7.8125 69.390625 
Q 13.765625 71.78125 18.9375 73 
Q 24.125 74.21875 28.421875 74.21875 
Q 39.75 74.21875 46.484375 68.546875 
Q 53.21875 62.890625 53.21875 53.421875 
Q 53.21875 48.921875 51.53125 44.890625 
Q 49.859375 40.875 45.40625 35.40625 
Q 44.1875 33.984375 37.640625 27.21875 
Q 31.109375 20.453125 19.1875 8.296875 
z
" id="DejaVuSans-32"/>
      </defs>
      <g transform="translate(126.9125 371.492019)scale(0.1 -0.1)">
       <use xlink:href="#DejaVuSans-32"/>
       <use x="63.623047" xlink:href="#DejaVuSans-30"/>
       <use x="127.246094" xlink:href="#DejaVuSans-30"/>
      </g>
     </g>
    </g>
    <g id="ytick_3">
     <g id="line2d_12">
      <g>
       <use style="stroke:#000000;stroke-width:0.8;" x="153" xlink:href="#m0cd62eaea3" y="276.369723"/>
      </g>
     </g>
     <g id="text_12">
      <!-- 300 -->
      <defs>
       <path d="M 40.578125 39.3125 
Q 47.65625 37.796875 51.625 33 
Q 55.609375 28.21875 55.609375 21.1875 
Q 55.609375 10.40625 48.1875 4.484375 
Q 40.765625 -1.421875 27.09375 -1.421875 
Q 22.515625 -1.421875 17.65625 -0.515625 
Q 12.796875 0.390625 7.625 2.203125 
L 7.625 11.71875 
Q 11.71875 9.328125 16.59375 8.109375 
Q 21.484375 6.890625 26.8125 6.890625 
Q 36.078125 6.890625 40.9375 10.546875 
Q 45.796875 14.203125 45.796875 21.1875 
Q 45.796875 27.640625 41.28125 31.265625 
Q 36.765625 34.90625 28.71875 34.90625 
L 20.21875 34.90625 
L 20.21875 43.015625 
L 29.109375 43.015625 
Q 36.375 43.015625 40.234375 45.921875 
Q 44.09375 48.828125 44.09375 54.296875 
Q 44.09375 59.90625 40.109375 62.90625 
Q 36.140625 65.921875 28.71875 65.921875 
Q 24.65625 65.921875 20.015625 65.03125 
Q 15.375 64.15625 9.8125 62.3125 
L 9.8125 71.09375 
Q 15.4375 72.65625 20.34375 73.4375 
Q 25.25 74.21875 29.59375 74.21875 
Q 40.828125 74.21875 47.359375 69.109375 
Q 53.90625 64.015625 53.90625 55.328125 
Q 53.90625 49.265625 50.4375 45.09375 
Q 46.96875 40.921875 40.578125 39.3125 
z
" id="DejaVuSans-33"/>
      </defs>
      <g transform="translate(126.9125 280.168942)scale(0.1 -0.1)">
       <use xlink:href="#DejaVuSans-33"/>
       <use x="63.623047" xlink:href="#DejaVuSans-30"/>
       <use x="127.246094" xlink:href="#DejaVuSans-30"/>
      </g>
     </g>
    </g>
    <g id="ytick_4">
     <g id="line2d_13">
      <g>
       <use style="stroke:#000000;stroke-width:0.8;" x="153" xlink:href="#m0cd62eaea3" y="185.046646"/>
      </g>
     </g>
     <g id="text_13">
      <!-- 400 -->
      <defs>
       <path d="M 37.796875 64.3125 
L 12.890625 25.390625 
L 37.796875 25.390625 
z
M 35.203125 72.90625 
L 47.609375 72.90625 
L 47.609375 25.390625 
L 58.015625 25.390625 
L 58.015625 17.1875 
L 47.609375 17.1875 
L 47.609375 0 
L 37.796875 0 
L 37.796875 17.1875 
L 4.890625 17.1875 
L 4.890625 26.703125 
z
" id="DejaVuSans-34"/>
      </defs>
      <g transform="translate(126.9125 188.845865)scale(0.1 -0.1)">
       <use xlink:href="#DejaVuSans-34"/>
       <use x="63.623047" xlink:href="#DejaVuSans-30"/>
       <use x="127.246094" xlink:href="#DejaVuSans-30"/>
      </g>
     </g>
    </g>
    <g id="ytick_5">
     <g id="line2d_14">
      <g>
       <use style="stroke:#000000;stroke-width:0.8;" x="153" xlink:href="#m0cd62eaea3" y="93.723569"/>
      </g>
     </g>
     <g id="text_14">
      <!-- 500 -->
      <g transform="translate(126.9125 97.522788)scale(0.1 -0.1)">
       <use xlink:href="#DejaVuSans-35"/>
       <use x="63.623047" xlink:href="#DejaVuSans-30"/>
       <use x="127.246094" xlink:href="#DejaVuSans-30"/>
      </g>
     </g>
    </g>
   </g>
   <g id="line2d_15">
    <path clip-path="url(#peaa147089f)" d="M 165.681818 511.070031 
L 169.909091 521.115569 
L 174.136364 519.289108 
L 178.363636 506.503877 
L 182.590909 507.417108 
L 186.818182 511.070031 
L 191.045455 511.070031 
L 195.272727 511.070031 
L 199.5 508.330338 
L 203.727273 512.896492 
L 207.954545 522.0288 
L 212.181818 514.722954 
L 216.409091 509.243569 
L 220.636364 512.896492 
L 224.863636 509.243569 
L 229.090909 479.106954 
L 233.318182 489.152492 
L 237.545455 483.673108 
L 241.772727 449.883569 
L 246 432.532185 
L 250.227273 400.569108 
L 254.454545 376.825108 
L 258.681818 347.601723 
L 262.909091 334.816492 
L 267.136364 235.274338 
L 271.363636 218.836185 
L 275.590909 208.790646 
L 279.818182 192.352492 
L 284.045455 130.2528 
L 288.272727 133.905723 
L 292.5 94.6368 
L 296.727273 149.430646 
L 300.954545 111.074954 
L 305.181818 138.471877 
L 309.409091 157.649723 
L 313.636364 184.133415 
L 317.863636 246.233108 
L 322.090909 252.625723 
L 326.318182 295.547569 
L 330.545455 319.291569 
L 334.772727 360.386954 
L 339 418.833723 
L 343.227273 437.098338 
L 347.454545 459.929108 
L 351.681818 491.892185 
L 355.909091 499.198031 
L 360.136364 501.937723 
L 364.363636 503.764185 
L 368.590909 511.070031 
L 372.818182 511.070031 
L 377.045455 517.462646 
L 381.272727 511.070031 
L 385.5 513.809723 
L 389.727273 509.243569 
L 393.954545 515.636185 
L 398.181818 511.983262 
L 402.409091 519.289108 
L 406.636364 517.462646 
L 410.863636 518.375877 
L 415.090909 511.070031 
L 419.318182 518.375877 
" style="fill:none;stroke:#1f77b4;stroke-linecap:square;stroke-width:1.5;"/>
   </g>
   <g id="line2d_16">
    <path clip-path="url(#peaa147089f)" d="M 165.681818 517.209765 
L 184.723587 517.079734 
L 192.340295 516.818899 
L 197.4181 516.44035 
L 201.480344 515.923143 
L 204.780917 515.289159 
L 207.57371 514.545458 
L 210.112613 513.654867 
L 212.397625 512.635399 
L 214.682637 511.364482 
L 216.713759 509.983465 
L 218.744881 508.324955 
L 220.776003 506.345347 
L 222.553235 504.312414 
L 224.330467 501.962864 
L 226.107699 499.260316 
L 227.88493 496.166639 
L 229.662162 492.642323 
L 231.439394 488.646957 
L 233.216626 484.139801 
L 234.993857 479.08046 
L 237.02498 472.571915 
L 239.056102 465.23559 
L 241.087224 457.021439 
L 243.118346 447.886733 
L 245.149468 437.798211 
L 247.43448 425.282163 
L 249.719492 411.522458 
L 252.258395 394.796246 
L 254.797297 376.620965 
L 257.59009 355.092994 
L 260.890663 327.885162 
L 265.206798 290.264118 
L 274.346847 209.982533 
L 277.39353 185.549197 
L 279.932432 166.993857 
L 281.963554 153.632619 
L 283.740786 143.193678 
L 285.518018 134.051199 
L 287.04136 127.329291 
L 288.310811 122.559546 
L 289.580262 118.57785 
L 290.595823 115.976792 
L 291.611384 113.906597 
L 292.626945 112.375634 
L 293.388616 111.585101 
L 294.150287 111.103231 
L 294.911957 110.931126 
L 295.673628 111.069182 
L 296.435299 111.517081 
L 297.19697 112.273799 
L 297.95864 113.337605 
L 298.974201 115.229409 
L 299.989762 117.655095 
L 301.005324 120.60488 
L 302.274775 125.010894 
L 303.544226 130.189706 
L 305.067568 137.379011 
L 306.844799 147.029669 
L 308.622031 157.931825 
L 310.653153 171.761802 
L 312.938165 188.823483 
L 315.730958 211.403815 
L 319.539312 244.267226 
L 330.710483 342.05935 
L 334.011057 368.329691 
L 336.803849 388.901275 
L 339.342752 406.119549 
L 341.881654 421.839957 
L 344.166667 434.677957 
L 346.451679 446.277092 
L 348.736691 456.663753 
L 350.767813 464.915022 
L 352.798935 472.286547 
L 354.830057 478.828113 
L 356.861179 484.59487 
L 358.892301 489.645449 
L 360.923423 494.040266 
L 362.700655 497.395557 
L 364.477887 500.335417 
L 366.255119 502.89888 
L 368.286241 505.415683 
L 370.317363 507.542744 
L 372.348485 509.329353 
L 374.379607 510.820824 
L 376.410729 512.058342 
L 378.695741 513.192946 
L 381.234644 514.187935 
L 384.027437 515.022331 
L 387.07412 515.690718 
L 390.628583 516.233149 
L 394.944717 516.652441 
L 400.530303 516.951584 
L 408.400901 517.131347 
L 419.318182 517.201133 
L 419.318182 517.201133 
" style="fill:none;stroke:#ff7f0e;stroke-linecap:square;stroke-width:1.5;"/>
   </g>
   <g id="patch_3">
    <path d="M 153 543.3984 
L 153 73.2672 
" style="fill:none;stroke:#000000;stroke-linecap:square;stroke-linejoin:miter;stroke-width:0.8;"/>
   </g>
   <g id="patch_4">
    <path d="M 432 543.3984 
L 432 73.2672 
" style="fill:none;stroke:#000000;stroke-linecap:square;stroke-linejoin:miter;stroke-width:0.8;"/>
   </g>
   <g id="patch_5">
    <path d="M 153 543.3984 
L 432 543.3984 
" style="fill:none;stroke:#000000;stroke-linecap:square;stroke-linejoin:miter;stroke-width:0.8;"/>
   </g>
   <g id="patch_6">
    <path d="M 153 73.2672 
L 432 73.2672 
" style="fill:none;stroke:#000000;stroke-linecap:square;stroke-linejoin:miter;stroke-width:0.8;"/>
   </g>
   <g id="text_15">
    <g id="patch_7">
     <path d="M 166.95 152.32401 
L 253.125 152.32401 
Q 256.725 152.32401 256.725 148.72401 
L 256.725 96.77376 
Q 256.725 93.17376 253.125 93.17376 
L 166.95 93.17376 
Q 163.35 93.17376 163.35 96.77376 
L 163.35 148.72401 
Q 163.35 152.32401 166.95 152.32401 
z
" style="fill:#f5deb3;opacity:0.5;stroke:#000000;stroke-linejoin:miter;"/>
    </g>
    <!-- a=21.092 -->
    <defs>
     <path d="M 34.28125 27.484375 
Q 23.390625 27.484375 19.1875 25 
Q 14.984375 22.515625 14.984375 16.5 
Q 14.984375 11.71875 18.140625 8.90625 
Q 21.296875 6.109375 26.703125 6.109375 
Q 34.1875 6.109375 38.703125 11.40625 
Q 43.21875 16.703125 43.21875 25.484375 
L 43.21875 27.484375 
z
M 52.203125 31.203125 
L 52.203125 0 
L 43.21875 0 
L 43.21875 8.296875 
Q 40.140625 3.328125 35.546875 0.953125 
Q 30.953125 -1.421875 24.3125 -1.421875 
Q 15.921875 -1.421875 10.953125 3.296875 
Q 6 8.015625 6 15.921875 
Q 6 25.140625 12.171875 29.828125 
Q 18.359375 34.515625 30.609375 34.515625 
L 43.21875 34.515625 
L 43.21875 35.40625 
Q 43.21875 41.609375 39.140625 45 
Q 35.0625 48.390625 27.6875 48.390625 
Q 23 48.390625 18.546875 47.265625 
Q 14.109375 46.140625 10.015625 43.890625 
L 10.015625 52.203125 
Q 14.9375 54.109375 19.578125 55.046875 
Q 24.21875 56 28.609375 56 
Q 40.484375 56 46.34375 49.84375 
Q 52.203125 43.703125 52.203125 31.203125 
z
" id="DejaVuSans-61"/>
     <path d="M 10.59375 45.40625 
L 73.1875 45.40625 
L 73.1875 37.203125 
L 10.59375 37.203125 
z
M 10.59375 25.484375 
L 73.1875 25.484375 
L 73.1875 17.1875 
L 10.59375 17.1875 
z
" id="DejaVuSans-3d"/>
    </defs>
    <g transform="translate(166.95 105.891885)scale(0.12 -0.12)">
     <use xlink:href="#DejaVuSans-61"/>
     <use x="61.279297" xlink:href="#DejaVuSans-3d"/>
     <use x="145.068359" xlink:href="#DejaVuSans-32"/>
     <use x="208.691406" xlink:href="#DejaVuSans-31"/>
     <use x="272.314453" xlink:href="#DejaVuSans-2e"/>
     <use x="304.101562" xlink:href="#DejaVuSans-30"/>
     <use x="367.724609" xlink:href="#DejaVuSans-39"/>
     <use x="431.347656" xlink:href="#DejaVuSans-32"/>
    </g>
    <!-- $\mu$=-0.085 -->
    <defs>
     <path d="M -1.3125 -20.796875 
L 13.375 54.6875 
L 22.40625 54.6875 
L 15.765625 20.65625 
Q 15.578125 19.625 15.421875 18.359375 
Q 15.28125 17.09375 15.28125 15.828125 
Q 15.28125 11.28125 18.140625 8.828125 
Q 21 6.390625 26.3125 6.390625 
Q 33.546875 6.390625 37.984375 10.484375 
Q 42.4375 14.59375 44 22.796875 
L 50.203125 54.6875 
L 59.1875 54.6875 
L 51.03125 12.640625 
Q 50.828125 11.71875 50.75 11.03125 
Q 50.6875 10.359375 50.6875 9.8125 
Q 50.6875 8.296875 51.296875 7.59375 
Q 51.90625 6.890625 53.21875 6.890625 
Q 53.71875 6.890625 54.5625 7.125 
Q 55.421875 7.375 56.984375 8.015625 
L 55.609375 0.78125 
Q 53.46875 -0.296875 51.515625 -0.859375 
Q 49.5625 -1.421875 47.703125 -1.421875 
Q 44.484375 -1.421875 42.65625 0.625 
Q 40.828125 2.6875 40.828125 6.296875 
Q 38.09375 2.390625 34.296875 0.484375 
Q 30.515625 -1.421875 25.390625 -1.421875 
Q 20.84375 -1.421875 17.453125 0.671875 
Q 14.0625 2.78125 12.984375 6.203125 
L 7.71875 -20.796875 
z
" id="DejaVuSans-Oblique-3bc"/>
     <path d="M 4.890625 31.390625 
L 31.203125 31.390625 
L 31.203125 23.390625 
L 4.890625 23.390625 
z
" id="DejaVuSans-2d"/>
    </defs>
    <g transform="translate(166.95 119.32926)scale(0.12 -0.12)">
     <use transform="translate(0 0.78125)" xlink:href="#DejaVuSans-Oblique-3bc"/>
     <use transform="translate(63.623047 0.78125)" xlink:href="#DejaVuSans-3d"/>
     <use transform="translate(147.412109 0.78125)" xlink:href="#DejaVuSans-2d"/>
     <use transform="translate(183.496094 0.78125)" xlink:href="#DejaVuSans-30"/>
     <use transform="translate(247.119141 0.78125)" xlink:href="#DejaVuSans-2e"/>
     <use transform="translate(278.90625 0.78125)" xlink:href="#DejaVuSans-30"/>
     <use transform="translate(342.529297 0.78125)" xlink:href="#DejaVuSans-38"/>
     <use transform="translate(406.152344 0.78125)" xlink:href="#DejaVuSans-35"/>
    </g>
    <!-- $\sigma$=0.0043 -->
    <defs>
     <path d="M 34.671875 47.5625 
Q 27.25 47.5625 22.21875 42.1875 
Q 16.890625 36.578125 15.140625 27.296875 
Q 13.1875 17.484375 16.3125 11.8125 
Q 19.390625 6.203125 26.65625 6.203125 
Q 33.84375 6.203125 39.109375 11.859375 
Q 44.4375 17.53125 46.34375 27.296875 
Q 48.046875 36.234375 45.015625 42.1875 
Q 42.1875 47.5625 34.671875 47.5625 
z
M 36.078125 54.734375 
L 65.921875 54.6875 
L 64.15625 45.703125 
L 54.109375 45.703125 
Q 57.90625 38.09375 55.859375 27.296875 
Q 53.21875 13.875 45.0625 6.25 
Q 36.859375 -1.421875 25.140625 -1.421875 
Q 13.375 -1.421875 8.203125 6.25 
Q 3.03125 13.875 5.671875 27.296875 
Q 8.25 40.765625 16.40625 48.390625 
Q 23.1875 54.734375 36.078125 54.734375 
z
" id="DejaVuSans-Oblique-3c3"/>
    </defs>
    <g transform="translate(166.95 132.79101)scale(0.12 -0.12)">
     <use transform="translate(0 0.78125)" xlink:href="#DejaVuSans-Oblique-3c3"/>
     <use transform="translate(63.378906 0.78125)" xlink:href="#DejaVuSans-3d"/>
     <use transform="translate(147.167969 0.78125)" xlink:href="#DejaVuSans-30"/>
     <use transform="translate(210.791016 0.78125)" xlink:href="#DejaVuSans-2e"/>
     <use transform="translate(242.578125 0.78125)" xlink:href="#DejaVuSans-30"/>
     <use transform="translate(306.201172 0.78125)" xlink:href="#DejaVuSans-30"/>
     <use transform="translate(369.824219 0.78125)" xlink:href="#DejaVuSans-34"/>
     <use transform="translate(433.447266 0.78125)" xlink:href="#DejaVuSans-33"/>
    </g>
    <!-- offset=36.269 -->
    <defs>
     <path d="M 30.609375 48.390625 
Q 23.390625 48.390625 19.1875 42.75 
Q 14.984375 37.109375 14.984375 27.296875 
Q 14.984375 17.484375 19.15625 11.84375 
Q 23.34375 6.203125 30.609375 6.203125 
Q 37.796875 6.203125 41.984375 11.859375 
Q 46.1875 17.53125 46.1875 27.296875 
Q 46.1875 37.015625 41.984375 42.703125 
Q 37.796875 48.390625 30.609375 48.390625 
z
M 30.609375 56 
Q 42.328125 56 49.015625 48.375 
Q 55.71875 40.765625 55.71875 27.296875 
Q 55.71875 13.875 49.015625 6.21875 
Q 42.328125 -1.421875 30.609375 -1.421875 
Q 18.84375 -1.421875 12.171875 6.21875 
Q 5.515625 13.875 5.515625 27.296875 
Q 5.515625 40.765625 12.171875 48.375 
Q 18.84375 56 30.609375 56 
z
" id="DejaVuSans-6f"/>
     <path d="M 37.109375 75.984375 
L 37.109375 68.5 
L 28.515625 68.5 
Q 23.6875 68.5 21.796875 66.546875 
Q 19.921875 64.59375 19.921875 59.515625 
L 19.921875 54.6875 
L 34.71875 54.6875 
L 34.71875 47.703125 
L 19.921875 47.703125 
L 19.921875 0 
L 10.890625 0 
L 10.890625 47.703125 
L 2.296875 47.703125 
L 2.296875 54.6875 
L 10.890625 54.6875 
L 10.890625 58.5 
Q 10.890625 67.625 15.140625 71.796875 
Q 19.390625 75.984375 28.609375 75.984375 
z
" id="DejaVuSans-66"/>
     <path d="M 44.28125 53.078125 
L 44.28125 44.578125 
Q 40.484375 46.53125 36.375 47.5 
Q 32.28125 48.484375 27.875 48.484375 
Q 21.1875 48.484375 17.84375 46.4375 
Q 14.5 44.390625 14.5 40.28125 
Q 14.5 37.15625 16.890625 35.375 
Q 19.28125 33.59375 26.515625 31.984375 
L 29.59375 31.296875 
Q 39.15625 29.25 43.1875 25.515625 
Q 47.21875 21.78125 47.21875 15.09375 
Q 47.21875 7.46875 41.1875 3.015625 
Q 35.15625 -1.421875 24.609375 -1.421875 
Q 20.21875 -1.421875 15.453125 -0.5625 
Q 10.6875 0.296875 5.421875 2 
L 5.421875 11.28125 
Q 10.40625 8.6875 15.234375 7.390625 
Q 20.0625 6.109375 24.8125 6.109375 
Q 31.15625 6.109375 34.5625 8.28125 
Q 37.984375 10.453125 37.984375 14.40625 
Q 37.984375 18.0625 35.515625 20.015625 
Q 33.0625 21.96875 24.703125 23.78125 
L 21.578125 24.515625 
Q 13.234375 26.265625 9.515625 29.90625 
Q 5.8125 33.546875 5.8125 39.890625 
Q 5.8125 47.609375 11.28125 51.796875 
Q 16.75 56 26.8125 56 
Q 31.78125 56 36.171875 55.265625 
Q 40.578125 54.546875 44.28125 53.078125 
z
" id="DejaVuSans-73"/>
     <path d="M 56.203125 29.59375 
L 56.203125 25.203125 
L 14.890625 25.203125 
Q 15.484375 15.921875 20.484375 11.0625 
Q 25.484375 6.203125 34.421875 6.203125 
Q 39.59375 6.203125 44.453125 7.46875 
Q 49.3125 8.734375 54.109375 11.28125 
L 54.109375 2.78125 
Q 49.265625 0.734375 44.1875 -0.34375 
Q 39.109375 -1.421875 33.890625 -1.421875 
Q 20.796875 -1.421875 13.15625 6.1875 
Q 5.515625 13.8125 5.515625 26.8125 
Q 5.515625 40.234375 12.765625 48.109375 
Q 20.015625 56 32.328125 56 
Q 43.359375 56 49.78125 48.890625 
Q 56.203125 41.796875 56.203125 29.59375 
z
M 47.21875 32.234375 
Q 47.125 39.59375 43.09375 43.984375 
Q 39.0625 48.390625 32.421875 48.390625 
Q 24.90625 48.390625 20.390625 44.140625 
Q 15.875 39.890625 15.1875 32.171875 
z
" id="DejaVuSans-65"/>
     <path d="M 18.3125 70.21875 
L 18.3125 54.6875 
L 36.8125 54.6875 
L 36.8125 47.703125 
L 18.3125 47.703125 
L 18.3125 18.015625 
Q 18.3125 11.328125 20.140625 9.421875 
Q 21.96875 7.515625 27.59375 7.515625 
L 36.8125 7.515625 
L 36.8125 0 
L 27.59375 0 
Q 17.1875 0 13.234375 3.875 
Q 9.28125 7.765625 9.28125 18.015625 
L 9.28125 47.703125 
L 2.6875 47.703125 
L 2.6875 54.6875 
L 9.28125 54.6875 
L 9.28125 70.21875 
z
" id="DejaVuSans-74"/>
    </defs>
    <g transform="translate(166.95 146.228385)scale(0.12 -0.12)">
     <use xlink:href="#DejaVuSans-6f"/>
     <use x="61.181641" xlink:href="#DejaVuSans-66"/>
     <use x="96.386719" xlink:href="#DejaVuSans-66"/>
     <use x="131.591797" xlink:href="#DejaVuSans-73"/>
     <use x="183.691406" xlink:href="#DejaVuSans-65"/>
     <use x="245.214844" xlink:href="#DejaVuSans-74"/>
     <use x="284.423828" xlink:href="#DejaVuSans-3d"/>
     <use x="368.212891" xlink:href="#DejaVuSans-33"/>
     <use x="431.835938" xlink:href="#DejaVuSans-36"/>
     <use x="495.458984" xlink:href="#DejaVuSans-2e"/>
     <use x="527.246094" xlink:href="#DejaVuSans-32"/>
     <use x="590.869141" xlink:href="#DejaVuSans-36"/>
     <use x="654.492188" xlink:href="#DejaVuSans-39"/>
    </g>
   </g>
   <g id="text_16">
    <!-- X Axis -->
    <defs>
     <path d="M 6.296875 72.90625 
L 16.890625 72.90625 
L 35.015625 45.796875 
L 53.21875 72.90625 
L 63.8125 72.90625 
L 40.375 37.890625 
L 65.375 0 
L 54.78125 0 
L 34.28125 31 
L 13.625 0 
L 2.984375 0 
L 29 38.921875 
z
" id="DejaVuSans-58"/>
     <path id="DejaVuSans-20"/>
     <path d="M 34.1875 63.1875 
L 20.796875 26.90625 
L 47.609375 26.90625 
z
M 28.609375 72.90625 
L 39.796875 72.90625 
L 67.578125 0 
L 57.328125 0 
L 50.6875 18.703125 
L 17.828125 18.703125 
L 11.1875 0 
L 0.78125 0 
z
" id="DejaVuSans-41"/>
     <path d="M 54.890625 54.6875 
L 35.109375 28.078125 
L 55.90625 0 
L 45.3125 0 
L 29.390625 21.484375 
L 13.484375 0 
L 2.875 0 
L 24.125 28.609375 
L 4.6875 54.6875 
L 15.28125 54.6875 
L 29.78125 35.203125 
L 44.28125 54.6875 
z
" id="DejaVuSans-78"/>
     <path d="M 9.421875 54.6875 
L 18.40625 54.6875 
L 18.40625 0 
L 9.421875 0 
z
M 9.421875 75.984375 
L 18.40625 75.984375 
L 18.40625 64.59375 
L 9.421875 64.59375 
z
" id="DejaVuSans-69"/>
    </defs>
    <g transform="translate(274.035 67.2672)scale(0.12 -0.12)">
     <use xlink:href="#DejaVuSans-58"/>
     <use x="68.505859" xlink:href="#DejaVuSans-20"/>
     <use x="100.292969" xlink:href="#DejaVuSans-41"/>
     <use x="168.701172" xlink:href="#DejaVuSans-78"/>
     <use x="227.880859" xlink:href="#DejaVuSans-69"/>
     <use x="255.664062" xlink:href="#DejaVuSans-73"/>
    </g>
   </g>
  </g>
  <g id="axes_2">
   <g id="patch_8">
    <path d="M 487.8 543.3984 
L 766.8 543.3984 
L 766.8 73.2672 
L 487.8 73.2672 
z
" style="fill:#ffffff;"/>
   </g>
   <g id="matplotlib.axis_3">
    <g id="xtick_10">
     <g id="line2d_17">
      <g>
       <use style="stroke:#000000;stroke-width:0.8;" x="500.481818" xlink:href="#m59f7c8d949" y="543.3984"/>
      </g>
     </g>
     <g id="text_17">
      <!-- 0.015 -->
      <g transform="translate(486.167756 557.996838)scale(0.1 -0.1)">
       <use xlink:href="#DejaVuSans-30"/>
       <use x="63.623047" xlink:href="#DejaVuSans-2e"/>
       <use x="95.410156" xlink:href="#DejaVuSans-30"/>
       <use x="159.033203" xlink:href="#DejaVuSans-31"/>
       <use x="222.65625" xlink:href="#DejaVuSans-35"/>
      </g>
     </g>
    </g>
    <g id="xtick_11">
     <g id="line2d_18">
      <g>
       <use style="stroke:#000000;stroke-width:0.8;" x="532.186364" xlink:href="#m59f7c8d949" y="543.3984"/>
      </g>
     </g>
     <g id="text_18">
      <!-- 0.020 -->
      <g transform="translate(517.872301 557.996838)scale(0.1 -0.1)">
       <use xlink:href="#DejaVuSans-30"/>
       <use x="63.623047" xlink:href="#DejaVuSans-2e"/>
       <use x="95.410156" xlink:href="#DejaVuSans-30"/>
       <use x="159.033203" xlink:href="#DejaVuSans-32"/>
       <use x="222.65625" xlink:href="#DejaVuSans-30"/>
      </g>
     </g>
    </g>
    <g id="xtick_12">
     <g id="line2d_19">
      <g>
       <use style="stroke:#000000;stroke-width:0.8;" x="563.890909" xlink:href="#m59f7c8d949" y="543.3984"/>
      </g>
     </g>
     <g id="text_19">
      <!-- 0.025 -->
      <g transform="translate(549.576847 557.996838)scale(0.1 -0.1)">
       <use xlink:href="#DejaVuSans-30"/>
       <use x="63.623047" xlink:href="#DejaVuSans-2e"/>
       <use x="95.410156" xlink:href="#DejaVuSans-30"/>
       <use x="159.033203" xlink:href="#DejaVuSans-32"/>
       <use x="222.65625" xlink:href="#DejaVuSans-35"/>
      </g>
     </g>
    </g>
    <g id="xtick_13">
     <g id="line2d_20">
      <g>
       <use style="stroke:#000000;stroke-width:0.8;" x="595.595455" xlink:href="#m59f7c8d949" y="543.3984"/>
      </g>
     </g>
     <g id="text_20">
      <!-- 0.030 -->
      <g transform="translate(581.281392 557.996838)scale(0.1 -0.1)">
       <use xlink:href="#DejaVuSans-30"/>
       <use x="63.623047" xlink:href="#DejaVuSans-2e"/>
       <use x="95.410156" xlink:href="#DejaVuSans-30"/>
       <use x="159.033203" xlink:href="#DejaVuSans-33"/>
       <use x="222.65625" xlink:href="#DejaVuSans-30"/>
      </g>
     </g>
    </g>
    <g id="xtick_14">
     <g id="line2d_21">
      <g>
       <use style="stroke:#000000;stroke-width:0.8;" x="627.3" xlink:href="#m59f7c8d949" y="543.3984"/>
      </g>
     </g>
     <g id="text_21">
      <!-- 0.035 -->
      <g transform="translate(612.985937 557.996838)scale(0.1 -0.1)">
       <use xlink:href="#DejaVuSans-30"/>
       <use x="63.623047" xlink:href="#DejaVuSans-2e"/>
       <use x="95.410156" xlink:href="#DejaVuSans-30"/>
       <use x="159.033203" xlink:href="#DejaVuSans-33"/>
       <use x="222.65625" xlink:href="#DejaVuSans-35"/>
      </g>
     </g>
    </g>
    <g id="xtick_15">
     <g id="line2d_22">
      <g>
       <use style="stroke:#000000;stroke-width:0.8;" x="659.004545" xlink:href="#m59f7c8d949" y="543.3984"/>
      </g>
     </g>
     <g id="text_22">
      <!-- 0.040 -->
      <g transform="translate(644.690483 557.996838)scale(0.1 -0.1)">
       <use xlink:href="#DejaVuSans-30"/>
       <use x="63.623047" xlink:href="#DejaVuSans-2e"/>
       <use x="95.410156" xlink:href="#DejaVuSans-30"/>
       <use x="159.033203" xlink:href="#DejaVuSans-34"/>
       <use x="222.65625" xlink:href="#DejaVuSans-30"/>
      </g>
     </g>
    </g>
    <g id="xtick_16">
     <g id="line2d_23">
      <g>
       <use style="stroke:#000000;stroke-width:0.8;" x="690.709091" xlink:href="#m59f7c8d949" y="543.3984"/>
      </g>
     </g>
     <g id="text_23">
      <!-- 0.045 -->
      <g transform="translate(676.395028 557.996838)scale(0.1 -0.1)">
       <use xlink:href="#DejaVuSans-30"/>
       <use x="63.623047" xlink:href="#DejaVuSans-2e"/>
       <use x="95.410156" xlink:href="#DejaVuSans-30"/>
       <use x="159.033203" xlink:href="#DejaVuSans-34"/>
       <use x="222.65625" xlink:href="#DejaVuSans-35"/>
      </g>
     </g>
    </g>
    <g id="xtick_17">
     <g id="line2d_24">
      <g>
       <use style="stroke:#000000;stroke-width:0.8;" x="722.413636" xlink:href="#m59f7c8d949" y="543.3984"/>
      </g>
     </g>
     <g id="text_24">
      <!-- 0.050 -->
      <g transform="translate(708.099574 557.996838)scale(0.1 -0.1)">
       <use xlink:href="#DejaVuSans-30"/>
       <use x="63.623047" xlink:href="#DejaVuSans-2e"/>
       <use x="95.410156" xlink:href="#DejaVuSans-30"/>
       <use x="159.033203" xlink:href="#DejaVuSans-35"/>
       <use x="222.65625" xlink:href="#DejaVuSans-30"/>
      </g>
     </g>
    </g>
    <g id="xtick_18">
     <g id="line2d_25">
      <g>
       <use style="stroke:#000000;stroke-width:0.8;" x="754.118182" xlink:href="#m59f7c8d949" y="543.3984"/>
      </g>
     </g>
     <g id="text_25">
      <!-- 0.055 -->
      <g transform="translate(739.804119 557.996838)scale(0.1 -0.1)">
       <use xlink:href="#DejaVuSans-30"/>
       <use x="63.623047" xlink:href="#DejaVuSans-2e"/>
       <use x="95.410156" xlink:href="#DejaVuSans-30"/>
       <use x="159.033203" xlink:href="#DejaVuSans-35"/>
       <use x="222.65625" xlink:href="#DejaVuSans-35"/>
      </g>
     </g>
    </g>
   </g>
   <g id="matplotlib.axis_4">
    <g id="ytick_6">
     <g id="line2d_26">
      <g>
       <use style="stroke:#000000;stroke-width:0.8;" x="487.8" xlink:href="#m0cd62eaea3" y="542.792784"/>
      </g>
     </g>
     <g id="text_26">
      <!-- 0 -->
      <g transform="translate(474.4375 546.592003)scale(0.1 -0.1)">
       <use xlink:href="#DejaVuSans-30"/>
      </g>
     </g>
    </g>
    <g id="ytick_7">
     <g id="line2d_27">
      <g>
       <use style="stroke:#000000;stroke-width:0.8;" x="487.8" xlink:href="#m0cd62eaea3" y="456.276185"/>
      </g>
     </g>
     <g id="text_27">
      <!-- 100 -->
      <g transform="translate(461.7125 460.075403)scale(0.1 -0.1)">
       <use xlink:href="#DejaVuSans-31"/>
       <use x="63.623047" xlink:href="#DejaVuSans-30"/>
       <use x="127.246094" xlink:href="#DejaVuSans-30"/>
      </g>
     </g>
    </g>
    <g id="ytick_8">
     <g id="line2d_28">
      <g>
       <use style="stroke:#000000;stroke-width:0.8;" x="487.8" xlink:href="#m0cd62eaea3" y="369.759585"/>
      </g>
     </g>
     <g id="text_28">
      <!-- 200 -->
      <g transform="translate(461.7125 373.558804)scale(0.1 -0.1)">
       <use xlink:href="#DejaVuSans-32"/>
       <use x="63.623047" xlink:href="#DejaVuSans-30"/>
       <use x="127.246094" xlink:href="#DejaVuSans-30"/>
      </g>
     </g>
    </g>
    <g id="ytick_9">
     <g id="line2d_29">
      <g>
       <use style="stroke:#000000;stroke-width:0.8;" x="487.8" xlink:href="#m0cd62eaea3" y="283.242986"/>
      </g>
     </g>
     <g id="text_29">
      <!-- 300 -->
      <g transform="translate(461.7125 287.042205)scale(0.1 -0.1)">
       <use xlink:href="#DejaVuSans-33"/>
       <use x="63.623047" xlink:href="#DejaVuSans-30"/>
       <use x="127.246094" xlink:href="#DejaVuSans-30"/>
      </g>
     </g>
    </g>
    <g id="ytick_10">
     <g id="line2d_30">
      <g>
       <use style="stroke:#000000;stroke-width:0.8;" x="487.8" xlink:href="#m0cd62eaea3" y="196.726387"/>
      </g>
     </g>
     <g id="text_30">
      <!-- 400 -->
      <g transform="translate(461.7125 200.525606)scale(0.1 -0.1)">
       <use xlink:href="#DejaVuSans-34"/>
       <use x="63.623047" xlink:href="#DejaVuSans-30"/>
       <use x="127.246094" xlink:href="#DejaVuSans-30"/>
      </g>
     </g>
    </g>
    <g id="ytick_11">
     <g id="line2d_31">
      <g>
       <use style="stroke:#000000;stroke-width:0.8;" x="487.8" xlink:href="#m0cd62eaea3" y="110.209788"/>
      </g>
     </g>
     <g id="text_31">
      <!-- 500 -->
      <g transform="translate(461.7125 114.009007)scale(0.1 -0.1)">
       <use xlink:href="#DejaVuSans-35"/>
       <use x="63.623047" xlink:href="#DejaVuSans-30"/>
       <use x="127.246094" xlink:href="#DejaVuSans-30"/>
      </g>
     </g>
    </g>
   </g>
   <g id="line2d_32">
    <path clip-path="url(#p31f60fab48)" d="M 500.481818 513.37714 
L 504.709091 509.05131 
L 508.936364 521.163634 
L 513.163636 507.320978 
L 517.390909 500.39965 
L 521.618182 506.455812 
L 525.845455 504.72548 
L 530.072727 512.511974 
L 534.3 508.186144 
L 538.527273 502.995148 
L 542.754545 509.05131 
L 546.981818 512.511974 
L 551.209091 493.478322 
L 555.436364 495.208654 
L 559.663636 491.74799 
L 563.890909 472.714338 
L 568.118182 458.006517 
L 572.345455 438.972865 
L 576.572727 422.534711 
L 580.8 374.950581 
L 585.027273 358.512428 
L 589.254545 326.501286 
L 593.481818 291.02948 
L 597.709091 258.153172 
L 601.936364 259.018338 
L 606.163636 221.816201 
L 610.390909 167.310743 
L 614.618182 124.052444 
L 618.845455 139.625432 
L 623.072727 94.6368 
L 627.3 160.389415 
L 631.527273 162.984913 
L 635.754545 193.265723 
L 639.981818 190.670225 
L 644.209091 202.782549 
L 648.436364 220.085869 
L 652.663636 263.344168 
L 656.890909 316.119294 
L 661.118182 333.422614 
L 665.345455 364.568589 
L 669.572727 375.815747 
L 673.8 417.343715 
L 678.027273 425.995375 
L 682.254545 456.276185 
L 686.481818 470.984006 
L 690.709091 479.635666 
L 694.936364 494.343488 
L 699.163636 506.455812 
L 703.390909 512.511974 
L 707.618182 505.590646 
L 711.845455 515.972638 
L 716.072727 510.781642 
L 720.3 507.320978 
L 724.527273 513.37714 
L 728.754545 522.0288 
L 732.981818 505.590646 
L 737.209091 518.568136 
L 741.436364 515.107472 
L 745.663636 502.995148 
L 749.890909 508.186144 
L 754.118182 511.646808 
" style="fill:none;stroke:#1f77b4;stroke-linecap:square;stroke-width:1.5;"/>
   </g>
   <g id="line2d_33">
    <path clip-path="url(#p31f60fab48)" d="M 500.481818 513.428233 
L 511.652989 513.229789 
L 518.254136 512.902283 
L 523.078051 512.451993 
L 526.886405 511.891547 
L 530.186978 511.19572 
L 533.233661 510.321395 
L 535.772563 509.375884 
L 538.311466 508.186812 
L 540.596478 506.866763 
L 542.881491 505.266858 
L 544.912613 503.572398 
L 546.943735 501.584656 
L 548.974857 499.265347 
L 551.005979 496.573743 
L 553.037101 493.46703 
L 555.068223 489.900792 
L 557.099345 485.829621 
L 559.130467 481.207873 
L 561.161589 475.990546 
L 563.192711 470.134307 
L 565.223833 463.598636 
L 567.254955 456.347079 
L 569.539967 447.29498 
L 571.82498 437.264012 
L 574.109992 426.233966 
L 576.648894 412.802189 
L 579.187797 398.153646 
L 581.98059 380.699371 
L 585.027273 360.195372 
L 588.581736 334.648029 
L 593.151761 300.016526 
L 602.29181 230.311217 
L 605.592383 207.148041 
L 608.131286 190.788583 
L 610.416298 177.438329 
L 612.44742 166.845692 
L 614.224652 158.675663 
L 615.747993 152.556006 
L 617.271335 147.301218 
L 618.540786 143.61236 
L 619.810238 140.572351 
L 620.825799 138.618749 
L 621.84136 137.097903 
L 622.856921 136.01515 
L 623.618591 135.492935 
L 624.380262 135.220357 
L 625.141933 135.197958 
L 625.903604 135.425782 
L 626.665274 135.903377 
L 627.426945 136.629795 
L 628.442506 137.982856 
L 629.458067 139.770903 
L 630.473628 141.98767 
L 631.743079 145.34959 
L 633.012531 149.350944 
L 634.535872 154.966039 
L 636.059214 161.42753 
L 637.836446 169.969877 
L 639.867568 180.949099 
L 642.15258 194.679846 
L 644.691482 211.38954 
L 647.738165 233.024059 
L 651.80041 263.628003 
L 662.4638 344.799035 
L 666.018264 369.70697 
L 669.064947 389.537493 
L 671.85774 406.304568 
L 674.396642 420.292864 
L 676.935545 433.049022 
L 679.220557 443.471048 
L 681.505569 452.904506 
L 683.790581 461.378126 
L 686.075594 468.932584 
L 688.106716 474.916319 
L 690.137838 480.253101 
L 692.16896 484.985817 
L 694.200082 489.159229 
L 696.231204 492.818933 
L 698.262326 496.010444 
L 700.293448 498.778419 
L 702.32457 501.166023 
L 704.355692 503.214416 
L 706.386814 504.962374 
L 708.671826 506.614579 
L 710.956839 507.979337 
L 713.241851 509.099158 
L 715.780753 510.102053 
L 718.573546 510.963944 
L 721.620229 511.674212 
L 725.174693 512.270444 
L 729.490827 512.751411 
L 734.822523 513.102693 
L 741.93145 513.332302 
L 753.610401 513.454725 
L 754.118182 513.456853 
L 754.118182 513.456853 
" style="fill:none;stroke:#ff7f0e;stroke-linecap:square;stroke-width:1.5;"/>
   </g>
   <g id="patch_9">
    <path d="M 487.8 543.3984 
L 487.8 73.2672 
" style="fill:none;stroke:#000000;stroke-linecap:square;stroke-linejoin:miter;stroke-width:0.8;"/>
   </g>
   <g id="patch_10">
    <path d="M 766.8 543.3984 
L 766.8 73.2672 
" style="fill:none;stroke:#000000;stroke-linecap:square;stroke-linejoin:miter;stroke-width:0.8;"/>
   </g>
   <g id="patch_11">
    <path d="M 487.8 543.3984 
L 766.8 543.3984 
" style="fill:none;stroke:#000000;stroke-linecap:square;stroke-linejoin:miter;stroke-width:0.8;"/>
   </g>
   <g id="patch_12">
    <path d="M 487.8 73.2672 
L 766.8 73.2672 
" style="fill:none;stroke:#000000;stroke-linecap:square;stroke-linejoin:miter;stroke-width:0.8;"/>
   </g>
   <g id="text_32">
    <g id="patch_13">
     <path d="M 501.75 152.32401 
L 587.925 152.32401 
Q 591.525 152.32401 591.525 148.72401 
L 591.525 96.77376 
Q 591.525 93.17376 587.925 93.17376 
L 501.75 93.17376 
Q 498.15 93.17376 498.15 96.77376 
L 498.15 148.72401 
Q 498.15 152.32401 501.75 152.32401 
z
" style="fill:#f5deb3;opacity:0.5;stroke:#000000;stroke-linejoin:miter;"/>
    </g>
    <!-- a=20.911 -->
    <g transform="translate(501.75 105.891885)scale(0.12 -0.12)">
     <use xlink:href="#DejaVuSans-61"/>
     <use x="61.279297" xlink:href="#DejaVuSans-3d"/>
     <use x="145.068359" xlink:href="#DejaVuSans-32"/>
     <use x="208.691406" xlink:href="#DejaVuSans-30"/>
     <use x="272.314453" xlink:href="#DejaVuSans-2e"/>
     <use x="304.101562" xlink:href="#DejaVuSans-39"/>
     <use x="367.724609" xlink:href="#DejaVuSans-31"/>
     <use x="431.347656" xlink:href="#DejaVuSans-31"/>
    </g>
    <!-- $\mu$=0.035 -->
    <g transform="translate(501.75 119.32926)scale(0.12 -0.12)">
     <use transform="translate(0 0.78125)" xlink:href="#DejaVuSans-Oblique-3bc"/>
     <use transform="translate(63.623047 0.78125)" xlink:href="#DejaVuSans-3d"/>
     <use transform="translate(147.412109 0.78125)" xlink:href="#DejaVuSans-30"/>
     <use transform="translate(211.035156 0.78125)" xlink:href="#DejaVuSans-2e"/>
     <use transform="translate(242.822266 0.78125)" xlink:href="#DejaVuSans-30"/>
     <use transform="translate(306.445312 0.78125)" xlink:href="#DejaVuSans-33"/>
     <use transform="translate(370.068359 0.78125)" xlink:href="#DejaVuSans-35"/>
    </g>
    <!-- $\sigma$=0.0047 -->
    <g transform="translate(501.75 132.79101)scale(0.12 -0.12)">
     <use transform="translate(0 0.78125)" xlink:href="#DejaVuSans-Oblique-3c3"/>
     <use transform="translate(63.378906 0.78125)" xlink:href="#DejaVuSans-3d"/>
     <use transform="translate(147.167969 0.78125)" xlink:href="#DejaVuSans-30"/>
     <use transform="translate(210.791016 0.78125)" xlink:href="#DejaVuSans-2e"/>
     <use transform="translate(242.578125 0.78125)" xlink:href="#DejaVuSans-30"/>
     <use transform="translate(306.201172 0.78125)" xlink:href="#DejaVuSans-30"/>
     <use transform="translate(369.824219 0.78125)" xlink:href="#DejaVuSans-34"/>
     <use transform="translate(433.447266 0.78125)" xlink:href="#DejaVuSans-37"/>
    </g>
    <!-- offset=33.876 -->
    <g transform="translate(501.75 146.228385)scale(0.12 -0.12)">
     <use xlink:href="#DejaVuSans-6f"/>
     <use x="61.181641" xlink:href="#DejaVuSans-66"/>
     <use x="96.386719" xlink:href="#DejaVuSans-66"/>
     <use x="131.591797" xlink:href="#DejaVuSans-73"/>
     <use x="183.691406" xlink:href="#DejaVuSans-65"/>
     <use x="245.214844" xlink:href="#DejaVuSans-74"/>
     <use x="284.423828" xlink:href="#DejaVuSans-3d"/>
     <use x="368.212891" xlink:href="#DejaVuSans-33"/>
     <use x="431.835938" xlink:href="#DejaVuSans-33"/>
     <use x="495.458984" xlink:href="#DejaVuSans-2e"/>
     <use x="527.246094" xlink:href="#DejaVuSans-38"/>
     <use x="590.869141" xlink:href="#DejaVuSans-37"/>
     <use x="654.492188" xlink:href="#DejaVuSans-36"/>
    </g>
   </g>
   <g id="text_33">
    <!-- Y Axis -->
    <defs>
     <path d="M -0.203125 72.90625 
L 10.40625 72.90625 
L 30.609375 42.921875 
L 50.6875 72.90625 
L 61.28125 72.90625 
L 35.5 34.71875 
L 35.5 0 
L 25.59375 0 
L 25.59375 34.71875 
z
" id="DejaVuSans-59"/>
    </defs>
    <g transform="translate(609.280312 67.2672)scale(0.12 -0.12)">
     <use xlink:href="#DejaVuSans-59"/>
     <use x="61.083984" xlink:href="#DejaVuSans-20"/>
     <use x="92.871094" xlink:href="#DejaVuSans-41"/>
     <use x="161.279297" xlink:href="#DejaVuSans-78"/>
     <use x="220.458984" xlink:href="#DejaVuSans-69"/>
     <use x="248.242188" xlink:href="#DejaVuSans-73"/>
    </g>
   </g>
  </g>
  <g id="axes_3">
   <g id="patch_14">
    <path d="M 822.6 543.3984 
L 1101.6 543.3984 
L 1101.6 73.2672 
L 822.6 73.2672 
z
" style="fill:#ffffff;"/>
   </g>
   <g id="matplotlib.axis_5">
    <g id="xtick_19">
     <g id="line2d_34">
      <g>
       <use style="stroke:#000000;stroke-width:0.8;" x="860.645455" xlink:href="#m59f7c8d949" y="543.3984"/>
      </g>
     </g>
     <g id="text_34">
      <!-- 48 -->
      <g transform="translate(854.282955 557.996838)scale(0.1 -0.1)">
       <use xlink:href="#DejaVuSans-34"/>
       <use x="63.623047" xlink:href="#DejaVuSans-38"/>
      </g>
     </g>
    </g>
    <g id="xtick_20">
     <g id="line2d_35">
      <g>
       <use style="stroke:#000000;stroke-width:0.8;" x="911.372727" xlink:href="#m59f7c8d949" y="543.3984"/>
      </g>
     </g>
     <g id="text_35">
      <!-- 49 -->
      <g transform="translate(905.010227 557.996838)scale(0.1 -0.1)">
       <use xlink:href="#DejaVuSans-34"/>
       <use x="63.623047" xlink:href="#DejaVuSans-39"/>
      </g>
     </g>
    </g>
    <g id="xtick_21">
     <g id="line2d_36">
      <g>
       <use style="stroke:#000000;stroke-width:0.8;" x="962.1" xlink:href="#m59f7c8d949" y="543.3984"/>
      </g>
     </g>
     <g id="text_36">
      <!-- 50 -->
      <g transform="translate(955.7375 557.996838)scale(0.1 -0.1)">
       <use xlink:href="#DejaVuSans-35"/>
       <use x="63.623047" xlink:href="#DejaVuSans-30"/>
      </g>
     </g>
    </g>
    <g id="xtick_22">
     <g id="line2d_37">
      <g>
       <use style="stroke:#000000;stroke-width:0.8;" x="1012.827273" xlink:href="#m59f7c8d949" y="543.3984"/>
      </g>
     </g>
     <g id="text_37">
      <!-- 51 -->
      <g transform="translate(1006.464773 557.996838)scale(0.1 -0.1)">
       <use xlink:href="#DejaVuSans-35"/>
       <use x="63.623047" xlink:href="#DejaVuSans-31"/>
      </g>
     </g>
    </g>
    <g id="xtick_23">
     <g id="line2d_38">
      <g>
       <use style="stroke:#000000;stroke-width:0.8;" x="1063.554545" xlink:href="#m59f7c8d949" y="543.3984"/>
      </g>
     </g>
     <g id="text_38">
      <!-- 52 -->
      <g transform="translate(1057.192045 557.996838)scale(0.1 -0.1)">
       <use xlink:href="#DejaVuSans-35"/>
       <use x="63.623047" xlink:href="#DejaVuSans-32"/>
      </g>
     </g>
    </g>
   </g>
   <g id="matplotlib.axis_6">
    <g id="ytick_12">
     <g id="line2d_39">
      <g>
       <use style="stroke:#000000;stroke-width:0.8;" x="822.6" xlink:href="#m0cd62eaea3" y="504.818384"/>
      </g>
     </g>
     <g id="text_39">
      <!-- 100 -->
      <g transform="translate(796.5125 508.617603)scale(0.1 -0.1)">
       <use xlink:href="#DejaVuSans-31"/>
       <use x="63.623047" xlink:href="#DejaVuSans-30"/>
       <use x="127.246094" xlink:href="#DejaVuSans-30"/>
      </g>
     </g>
    </g>
    <g id="ytick_13">
     <g id="line2d_40">
      <g>
       <use style="stroke:#000000;stroke-width:0.8;" x="822.6" xlink:href="#m0cd62eaea3" y="433.108317"/>
      </g>
     </g>
     <g id="text_40">
      <!-- 200 -->
      <g transform="translate(796.5125 436.907536)scale(0.1 -0.1)">
       <use xlink:href="#DejaVuSans-32"/>
       <use x="63.623047" xlink:href="#DejaVuSans-30"/>
       <use x="127.246094" xlink:href="#DejaVuSans-30"/>
      </g>
     </g>
    </g>
    <g id="ytick_14">
     <g id="line2d_41">
      <g>
       <use style="stroke:#000000;stroke-width:0.8;" x="822.6" xlink:href="#m0cd62eaea3" y="361.39825"/>
      </g>
     </g>
     <g id="text_41">
      <!-- 300 -->
      <g transform="translate(796.5125 365.197468)scale(0.1 -0.1)">
       <use xlink:href="#DejaVuSans-33"/>
       <use x="63.623047" xlink:href="#DejaVuSans-30"/>
       <use x="127.246094" xlink:href="#DejaVuSans-30"/>
      </g>
     </g>
    </g>
    <g id="ytick_15">
     <g id="line2d_42">
      <g>
       <use style="stroke:#000000;stroke-width:0.8;" x="822.6" xlink:href="#m0cd62eaea3" y="289.688183"/>
      </g>
     </g>
     <g id="text_42">
      <!-- 400 -->
      <g transform="translate(796.5125 293.487401)scale(0.1 -0.1)">
       <use xlink:href="#DejaVuSans-34"/>
       <use x="63.623047" xlink:href="#DejaVuSans-30"/>
       <use x="127.246094" xlink:href="#DejaVuSans-30"/>
      </g>
     </g>
    </g>
    <g id="ytick_16">
     <g id="line2d_43">
      <g>
       <use style="stroke:#000000;stroke-width:0.8;" x="822.6" xlink:href="#m0cd62eaea3" y="217.978115"/>
      </g>
     </g>
     <g id="text_43">
      <!-- 500 -->
      <g transform="translate(796.5125 221.777334)scale(0.1 -0.1)">
       <use xlink:href="#DejaVuSans-35"/>
       <use x="63.623047" xlink:href="#DejaVuSans-30"/>
       <use x="127.246094" xlink:href="#DejaVuSans-30"/>
      </g>
     </g>
    </g>
    <g id="ytick_17">
     <g id="line2d_44">
      <g>
       <use style="stroke:#000000;stroke-width:0.8;" x="822.6" xlink:href="#m0cd62eaea3" y="146.268048"/>
      </g>
     </g>
     <g id="text_44">
      <!-- 600 -->
      <g transform="translate(796.5125 150.067267)scale(0.1 -0.1)">
       <use xlink:href="#DejaVuSans-36"/>
       <use x="63.623047" xlink:href="#DejaVuSans-30"/>
       <use x="127.246094" xlink:href="#DejaVuSans-30"/>
      </g>
     </g>
    </g>
    <g id="ytick_18">
     <g id="line2d_45">
      <g>
       <use style="stroke:#000000;stroke-width:0.8;" x="822.6" xlink:href="#m0cd62eaea3" y="74.557981"/>
      </g>
     </g>
     <g id="text_45">
      <!-- 700 -->
      <g transform="translate(796.5125 78.3572)scale(0.1 -0.1)">
       <use xlink:href="#DejaVuSans-37"/>
       <use x="63.623047" xlink:href="#DejaVuSans-30"/>
       <use x="127.246094" xlink:href="#DejaVuSans-30"/>
      </g>
     </g>
    </g>
   </g>
   <g id="line2d_46">
    <path clip-path="url(#p3d8264e5cc)" d="M 835.281818 511.27229 
L 839.509091 522.0288 
L 843.736364 511.27229 
L 847.963636 510.555189 
L 852.190909 506.969686 
L 856.418182 492.627672 
L 860.645455 503.384183 
L 864.872727 496.930277 
L 869.1 496.213176 
L 873.327273 479.00276 
L 877.554545 486.890867 
L 881.781818 481.871162 
L 886.009091 462.509444 
L 890.236364 453.904236 
L 894.463636 466.812048 
L 898.690909 449.601632 
L 902.918182 443.147726 
L 907.145455 428.088612 
L 911.372727 408.009793 
L 915.6 401.555887 
L 919.827273 419.483404 
L 924.054545 364.983753 
L 928.281818 397.970384 
L 932.509091 368.569256 
L 936.736364 357.095646 
L 940.963636 321.240612 
L 945.190909 292.556585 
L 949.418182 301.878894 
L 953.645455 286.102679 
L 957.872727 300.444693 
L 962.1 286.81978 
L 966.327273 226.583323 
L 970.554545 253.833149 
L 974.781818 250.247646 
L 979.009091 213.675511 
L 983.236364 182.123082 
L 987.463636 173.517874 
L 991.690909 149.136451 
L 995.918182 133.360236 
L 1000.145455 108.261713 
L 1004.372727 120.452424 
L 1008.6 124.755028 
L 1012.827273 122.603726 
L 1017.054545 145.550948 
L 1021.281818 94.6368 
L 1025.509091 101.090706 
L 1029.736364 113.281417 
L 1033.963636 99.656505 
L 1038.190909 126.90633 
L 1042.418182 144.833847 
L 1046.645455 144.833847 
L 1050.872727 194.313793 
L 1055.1 217.978115 
L 1059.327273 210.807109 
L 1063.554545 248.096344 
L 1067.781818 283.234277 
L 1072.009091 289.688183 
L 1076.236364 343.470733 
L 1080.463636 376.457364 
L 1084.690909 390.799377 
L 1088.918182 411.595297 
" style="fill:none;stroke:#1f77b4;stroke-linecap:square;stroke-width:1.5;"/>
   </g>
   <g id="line2d_47">
    <path clip-path="url(#p3d8264e5cc)" d="M 835.281818 498.677487 
L 841.629075 498.017677 
L 846.96077 497.251764 
L 851.784685 496.343015 
L 856.100819 495.314186 
L 860.163063 494.121203 
L 863.971417 492.769231 
L 867.52588 491.270882 
L 870.826454 489.646234 
L 874.127027 487.768273 
L 877.17371 485.784159 
L 880.220393 483.534014 
L 883.267076 480.991958 
L 886.059869 478.382439 
L 888.852662 475.484004 
L 891.645455 472.275247 
L 894.438247 468.734698 
L 897.23104 464.841071 
L 900.023833 460.573543 
L 902.816626 455.912051 
L 905.609419 450.837632 
L 908.656102 444.81042 
L 911.702785 438.250727 
L 914.749468 431.141484 
L 917.796151 423.469417 
L 921.096724 414.512732 
L 924.397297 404.880652 
L 927.697871 394.576442 
L 931.252334 382.741795 
L 935.060688 369.243321 
L 939.122932 353.968079 
L 943.439066 336.84021 
L 948.262981 316.764324 
L 954.102457 291.471146 
L 973.652007 205.891445 
L 977.968141 188.500919 
L 981.522604 175.044106 
L 984.823178 163.396909 
L 987.869861 153.47914 
L 990.662654 145.170506 
L 993.201556 138.32341 
L 995.486568 132.774662 
L 997.51769 128.355679 
L 999.548812 124.439562 
L 1001.326044 121.438834 
L 1003.103276 118.846112 
L 1004.880508 116.670082 
L 1006.403849 115.14215 
L 1007.927191 113.929547 
L 1009.450532 113.035288 
L 1010.719984 112.53488 
L 1011.989435 112.257971 
L 1013.258886 112.205039 
L 1014.528337 112.376177 
L 1015.797789 112.771089 
L 1017.06724 113.389089 
L 1018.336691 114.229109 
L 1019.860033 115.528129 
L 1021.383374 117.141519 
L 1022.906716 119.065283 
L 1024.683948 121.695571 
L 1026.461179 124.733008 
L 1028.492301 128.689878 
L 1030.523423 133.148173 
L 1032.808436 138.739233 
L 1035.093448 144.910597 
L 1037.632351 152.40829 
L 1040.425143 161.378368 
L 1043.471826 171.948324 
L 1046.7724 184.215616 
L 1050.580753 199.264811 
L 1055.150778 218.320883 
L 1060.990254 243.732282 
L 1078.508681 320.674934 
L 1083.586486 341.598078 
L 1087.902621 358.484782 
L 1088.918182 362.322841 
L 1088.918182 362.322841 
" style="fill:none;stroke:#ff7f0e;stroke-linecap:square;stroke-width:1.5;"/>
   </g>
   <g id="patch_15">
    <path d="M 822.6 543.3984 
L 822.6 73.2672 
" style="fill:none;stroke:#000000;stroke-linecap:square;stroke-linejoin:miter;stroke-width:0.8;"/>
   </g>
   <g id="patch_16">
    <path d="M 1101.6 543.3984 
L 1101.6 73.2672 
" style="fill:none;stroke:#000000;stroke-linecap:square;stroke-linejoin:miter;stroke-width:0.8;"/>
   </g>
   <g id="patch_17">
    <path d="M 822.6 543.3984 
L 1101.6 543.3984 
" style="fill:none;stroke:#000000;stroke-linecap:square;stroke-linejoin:miter;stroke-width:0.8;"/>
   </g>
   <g id="patch_18">
    <path d="M 822.6 73.2672 
L 1101.6 73.2672 
" style="fill:none;stroke:#000000;stroke-linecap:square;stroke-linejoin:miter;stroke-width:0.8;"/>
   </g>
   <g id="text_46">
    <g id="patch_19">
     <path d="M 836.55 152.32401 
L 930.36 152.32401 
Q 933.96 152.32401 933.96 148.72401 
L 933.96 96.77376 
Q 933.96 93.17376 930.36 93.17376 
L 836.55 93.17376 
Q 832.95 93.17376 832.95 96.77376 
L 832.95 148.72401 
Q 832.95 152.32401 836.55 152.32401 
z
" style="fill:#f5deb3;opacity:0.5;stroke:#000000;stroke-linejoin:miter;"/>
    </g>
    <!-- a=23.256 -->
    <g transform="translate(836.55 105.891885)scale(0.12 -0.12)">
     <use xlink:href="#DejaVuSans-61"/>
     <use x="61.279297" xlink:href="#DejaVuSans-3d"/>
     <use x="145.068359" xlink:href="#DejaVuSans-32"/>
     <use x="208.691406" xlink:href="#DejaVuSans-33"/>
     <use x="272.314453" xlink:href="#DejaVuSans-2e"/>
     <use x="304.101562" xlink:href="#DejaVuSans-32"/>
     <use x="367.724609" xlink:href="#DejaVuSans-35"/>
     <use x="431.347656" xlink:href="#DejaVuSans-36"/>
    </g>
    <!-- $\mu$=51.002 -->
    <g transform="translate(836.55 119.32926)scale(0.12 -0.12)">
     <use transform="translate(0 0.78125)" xlink:href="#DejaVuSans-Oblique-3bc"/>
     <use transform="translate(63.623047 0.78125)" xlink:href="#DejaVuSans-3d"/>
     <use transform="translate(147.412109 0.78125)" xlink:href="#DejaVuSans-35"/>
     <use transform="translate(211.035156 0.78125)" xlink:href="#DejaVuSans-31"/>
     <use transform="translate(274.658203 0.78125)" xlink:href="#DejaVuSans-2e"/>
     <use transform="translate(306.445312 0.78125)" xlink:href="#DejaVuSans-30"/>
     <use transform="translate(370.068359 0.78125)" xlink:href="#DejaVuSans-30"/>
     <use transform="translate(433.691406 0.78125)" xlink:href="#DejaVuSans-32"/>
    </g>
    <!-- $\sigma$=1.0410 -->
    <g transform="translate(836.55 132.79101)scale(0.12 -0.12)">
     <use transform="translate(0 0.78125)" xlink:href="#DejaVuSans-Oblique-3c3"/>
     <use transform="translate(63.378906 0.78125)" xlink:href="#DejaVuSans-3d"/>
     <use transform="translate(147.167969 0.78125)" xlink:href="#DejaVuSans-31"/>
     <use transform="translate(210.791016 0.78125)" xlink:href="#DejaVuSans-2e"/>
     <use transform="translate(242.578125 0.78125)" xlink:href="#DejaVuSans-30"/>
     <use transform="translate(306.201172 0.78125)" xlink:href="#DejaVuSans-34"/>
     <use transform="translate(369.824219 0.78125)" xlink:href="#DejaVuSans-31"/>
     <use transform="translate(433.447266 0.78125)" xlink:href="#DejaVuSans-30"/>
    </g>
    <!-- offset=106.676 -->
    <g transform="translate(836.55 146.228385)scale(0.12 -0.12)">
     <use xlink:href="#DejaVuSans-6f"/>
     <use x="61.181641" xlink:href="#DejaVuSans-66"/>
     <use x="96.386719" xlink:href="#DejaVuSans-66"/>
     <use x="131.591797" xlink:href="#DejaVuSans-73"/>
     <use x="183.691406" xlink:href="#DejaVuSans-65"/>
     <use x="245.214844" xlink:href="#DejaVuSans-74"/>
     <use x="284.423828" xlink:href="#DejaVuSans-3d"/>
     <use x="368.212891" xlink:href="#DejaVuSans-31"/>
     <use x="431.835938" xlink:href="#DejaVuSans-30"/>
     <use x="495.458984" xlink:href="#DejaVuSans-36"/>
     <use x="559.082031" xlink:href="#DejaVuSans-2e"/>
     <use x="590.869141" xlink:href="#DejaVuSans-36"/>
     <use x="654.492188" xlink:href="#DejaVuSans-37"/>
     <use x="718.115234" xlink:href="#DejaVuSans-36"/>
    </g>
   </g>
   <g id="text_47">
    <!-- Z Axis -->
    <defs>
     <path d="M 5.609375 72.90625 
L 62.890625 72.90625 
L 62.890625 65.375 
L 16.796875 8.296875 
L 64.015625 8.296875 
L 64.015625 0 
L 4.5 0 
L 4.5 7.515625 
L 50.59375 64.59375 
L 5.609375 64.59375 
z
" id="DejaVuSans-5a"/>
    </defs>
    <g transform="translate(943.635 67.2672)scale(0.12 -0.12)">
     <use xlink:href="#DejaVuSans-5a"/>
     <use x="68.505859" xlink:href="#DejaVuSans-20"/>
     <use x="100.292969" xlink:href="#DejaVuSans-41"/>
     <use x="168.701172" xlink:href="#DejaVuSans-78"/>
     <use x="227.880859" xlink:href="#DejaVuSans-69"/>
     <use x="255.664062" xlink:href="#DejaVuSans-73"/>
    </g>
   </g>
  </g>
 </g>
 <defs>
  <clipPath id="peaa147089f">
   <rect height="470.1312" width="279" x="153" y="73.2672"/>
  </clipPath>
  <clipPath id="p31f60fab48">
   <rect height="470.1312" width="279" x="487.8" y="73.2672"/>
  </clipPath>
  <clipPath id="p3d8264e5cc">
   <rect height="470.1312" width="279" x="822.6" y="73.2672"/>
  </clipPath>
 </defs>
</svg>
