<?xml version="1.0" encoding="utf-8" standalone="no"?>
<!DOCTYPE svg PUBLIC "-//W3C//DTD SVG 1.1//EN"
  "http://www.w3.org/Graphics/SVG/1.1/DTD/svg11.dtd">
<!-- Created with matplotlib (http://matplotlib.org/) -->
<svg height="610.56pt" version="1.1" viewBox="0 0 1224 610.56" width="1224pt" xmlns="http://www.w3.org/2000/svg" xmlns:xlink="http://www.w3.org/1999/xlink">
 <defs>
  <style type="text/css">
*{stroke-linecap:butt;stroke-linejoin:round;}
  </style>
 </defs>
 <g id="figure_1">
  <g id="patch_1">
   <path d="M 0 610.56 
L 1224 610.56 
L 1224 0 
L 0 0 
z
" style="fill:#ffffff;"/>
  </g>
  <g id="axes_1">
   <g id="patch_2">
    <path d="M 153 543.3984 
L 432 543.3984 
L 432 73.2672 
L 153 73.2672 
z
" style="fill:#ffffff;"/>
   </g>
   <g id="matplotlib.axis_1">
    <g id="xtick_1">
     <g id="line2d_1">
      <defs>
       <path d="M 0 0 
L 0 3.5 
" id="m0ce1609be6" style="stroke:#000000;stroke-width:0.8;"/>
      </defs>
      <g>
       <use style="stroke:#000000;stroke-width:0.8;" x="178.363636" xlink:href="#m0ce1609be6" y="543.3984"/>
      </g>
     </g>
     <g id="text_1">
      <!-- 0.1150 -->
      <defs>
       <path d="M 31.78125 66.40625 
Q 24.171875 66.40625 20.328125 58.90625 
Q 16.5 51.421875 16.5 36.375 
Q 16.5 21.390625 20.328125 13.890625 
Q 24.171875 6.390625 31.78125 6.390625 
Q 39.453125 6.390625 43.28125 13.890625 
Q 47.125 21.390625 47.125 36.375 
Q 47.125 51.421875 43.28125 58.90625 
Q 39.453125 66.40625 31.78125 66.40625 
z
M 31.78125 74.21875 
Q 44.046875 74.21875 50.515625 64.515625 
Q 56.984375 54.828125 56.984375 36.375 
Q 56.984375 17.96875 50.515625 8.265625 
Q 44.046875 -1.421875 31.78125 -1.421875 
Q 19.53125 -1.421875 13.0625 8.265625 
Q 6.59375 17.96875 6.59375 36.375 
Q 6.59375 54.828125 13.0625 64.515625 
Q 19.53125 74.21875 31.78125 74.21875 
z
" id="DejaVuSans-30"/>
       <path d="M 10.6875 12.40625 
L 21 12.40625 
L 21 0 
L 10.6875 0 
z
" id="DejaVuSans-2e"/>
       <path d="M 12.40625 8.296875 
L 28.515625 8.296875 
L 28.515625 63.921875 
L 10.984375 60.40625 
L 10.984375 69.390625 
L 28.421875 72.90625 
L 38.28125 72.90625 
L 38.28125 8.296875 
L 54.390625 8.296875 
L 54.390625 0 
L 12.40625 0 
z
" id="DejaVuSans-31"/>
       <path d="M 10.796875 72.90625 
L 49.515625 72.90625 
L 49.515625 64.59375 
L 19.828125 64.59375 
L 19.828125 46.734375 
Q 21.96875 47.46875 24.109375 47.828125 
Q 26.265625 48.1875 28.421875 48.1875 
Q 40.625 48.1875 47.75 41.5 
Q 54.890625 34.8125 54.890625 23.390625 
Q 54.890625 11.625 47.5625 5.09375 
Q 40.234375 -1.421875 26.90625 -1.421875 
Q 22.3125 -1.421875 17.546875 -0.640625 
Q 12.796875 0.140625 7.71875 1.703125 
L 7.71875 11.625 
Q 12.109375 9.234375 16.796875 8.0625 
Q 21.484375 6.890625 26.703125 6.890625 
Q 35.15625 6.890625 40.078125 11.328125 
Q 45.015625 15.765625 45.015625 23.390625 
Q 45.015625 31 40.078125 35.4375 
Q 35.15625 39.890625 26.703125 39.890625 
Q 22.75 39.890625 18.8125 39.015625 
Q 14.890625 38.140625 10.796875 36.28125 
z
" id="DejaVuSans-35"/>
      </defs>
      <g transform="translate(160.868324 557.996838)scale(0.1 -0.1)">
       <use xlink:href="#DejaVuSans-30"/>
       <use x="63.623047" xlink:href="#DejaVuSans-2e"/>
       <use x="95.410156" xlink:href="#DejaVuSans-31"/>
       <use x="159.033203" xlink:href="#DejaVuSans-31"/>
       <use x="222.65625" xlink:href="#DejaVuSans-35"/>
       <use x="286.279297" xlink:href="#DejaVuSans-30"/>
      </g>
     </g>
    </g>
    <g id="xtick_2">
     <g id="line2d_2">
      <g>
       <use style="stroke:#000000;stroke-width:0.8;" x="210.068182" xlink:href="#m0ce1609be6" y="543.3984"/>
      </g>
     </g>
     <g id="text_2">
      <!-- 0.1175 -->
      <defs>
       <path d="M 8.203125 72.90625 
L 55.078125 72.90625 
L 55.078125 68.703125 
L 28.609375 0 
L 18.3125 0 
L 43.21875 64.59375 
L 8.203125 64.59375 
z
" id="DejaVuSans-37"/>
      </defs>
      <g transform="translate(192.572869 557.996838)scale(0.1 -0.1)">
       <use xlink:href="#DejaVuSans-30"/>
       <use x="63.623047" xlink:href="#DejaVuSans-2e"/>
       <use x="95.410156" xlink:href="#DejaVuSans-31"/>
       <use x="159.033203" xlink:href="#DejaVuSans-31"/>
       <use x="222.65625" xlink:href="#DejaVuSans-37"/>
       <use x="286.279297" xlink:href="#DejaVuSans-35"/>
      </g>
     </g>
    </g>
    <g id="xtick_3">
     <g id="line2d_3">
      <g>
       <use style="stroke:#000000;stroke-width:0.8;" x="241.772727" xlink:href="#m0ce1609be6" y="543.3984"/>
      </g>
     </g>
     <g id="text_3">
      <!-- 0.1200 -->
      <defs>
       <path d="M 19.1875 8.296875 
L 53.609375 8.296875 
L 53.609375 0 
L 7.328125 0 
L 7.328125 8.296875 
Q 12.9375 14.109375 22.625 23.890625 
Q 32.328125 33.6875 34.8125 36.53125 
Q 39.546875 41.84375 41.421875 45.53125 
Q 43.3125 49.21875 43.3125 52.78125 
Q 43.3125 58.59375 39.234375 62.25 
Q 35.15625 65.921875 28.609375 65.921875 
Q 23.96875 65.921875 18.8125 64.3125 
Q 13.671875 62.703125 7.8125 59.421875 
L 7.8125 69.390625 
Q 13.765625 71.78125 18.9375 73 
Q 24.125 74.21875 28.421875 74.21875 
Q 39.75 74.21875 46.484375 68.546875 
Q 53.21875 62.890625 53.21875 53.421875 
Q 53.21875 48.921875 51.53125 44.890625 
Q 49.859375 40.875 45.40625 35.40625 
Q 44.1875 33.984375 37.640625 27.21875 
Q 31.109375 20.453125 19.1875 8.296875 
z
" id="DejaVuSans-32"/>
      </defs>
      <g transform="translate(224.277415 557.996838)scale(0.1 -0.1)">
       <use xlink:href="#DejaVuSans-30"/>
       <use x="63.623047" xlink:href="#DejaVuSans-2e"/>
       <use x="95.410156" xlink:href="#DejaVuSans-31"/>
       <use x="159.033203" xlink:href="#DejaVuSans-32"/>
       <use x="222.65625" xlink:href="#DejaVuSans-30"/>
       <use x="286.279297" xlink:href="#DejaVuSans-30"/>
      </g>
     </g>
    </g>
    <g id="xtick_4">
     <g id="line2d_4">
      <g>
       <use style="stroke:#000000;stroke-width:0.8;" x="273.477273" xlink:href="#m0ce1609be6" y="543.3984"/>
      </g>
     </g>
     <g id="text_4">
      <!-- 0.1225 -->
      <g transform="translate(255.98196 557.996838)scale(0.1 -0.1)">
       <use xlink:href="#DejaVuSans-30"/>
       <use x="63.623047" xlink:href="#DejaVuSans-2e"/>
       <use x="95.410156" xlink:href="#DejaVuSans-31"/>
       <use x="159.033203" xlink:href="#DejaVuSans-32"/>
       <use x="222.65625" xlink:href="#DejaVuSans-32"/>
       <use x="286.279297" xlink:href="#DejaVuSans-35"/>
      </g>
     </g>
    </g>
    <g id="xtick_5">
     <g id="line2d_5">
      <g>
       <use style="stroke:#000000;stroke-width:0.8;" x="305.181818" xlink:href="#m0ce1609be6" y="543.3984"/>
      </g>
     </g>
     <g id="text_5">
      <!-- 0.1250 -->
      <g transform="translate(287.686506 557.996838)scale(0.1 -0.1)">
       <use xlink:href="#DejaVuSans-30"/>
       <use x="63.623047" xlink:href="#DejaVuSans-2e"/>
       <use x="95.410156" xlink:href="#DejaVuSans-31"/>
       <use x="159.033203" xlink:href="#DejaVuSans-32"/>
       <use x="222.65625" xlink:href="#DejaVuSans-35"/>
       <use x="286.279297" xlink:href="#DejaVuSans-30"/>
      </g>
     </g>
    </g>
    <g id="xtick_6">
     <g id="line2d_6">
      <g>
       <use style="stroke:#000000;stroke-width:0.8;" x="336.886364" xlink:href="#m0ce1609be6" y="543.3984"/>
      </g>
     </g>
     <g id="text_6">
      <!-- 0.1275 -->
      <g transform="translate(319.391051 557.996838)scale(0.1 -0.1)">
       <use xlink:href="#DejaVuSans-30"/>
       <use x="63.623047" xlink:href="#DejaVuSans-2e"/>
       <use x="95.410156" xlink:href="#DejaVuSans-31"/>
       <use x="159.033203" xlink:href="#DejaVuSans-32"/>
       <use x="222.65625" xlink:href="#DejaVuSans-37"/>
       <use x="286.279297" xlink:href="#DejaVuSans-35"/>
      </g>
     </g>
    </g>
    <g id="xtick_7">
     <g id="line2d_7">
      <g>
       <use style="stroke:#000000;stroke-width:0.8;" x="368.590909" xlink:href="#m0ce1609be6" y="543.3984"/>
      </g>
     </g>
     <g id="text_7">
      <!-- 0.1300 -->
      <defs>
       <path d="M 40.578125 39.3125 
Q 47.65625 37.796875 51.625 33 
Q 55.609375 28.21875 55.609375 21.1875 
Q 55.609375 10.40625 48.1875 4.484375 
Q 40.765625 -1.421875 27.09375 -1.421875 
Q 22.515625 -1.421875 17.65625 -0.515625 
Q 12.796875 0.390625 7.625 2.203125 
L 7.625 11.71875 
Q 11.71875 9.328125 16.59375 8.109375 
Q 21.484375 6.890625 26.8125 6.890625 
Q 36.078125 6.890625 40.9375 10.546875 
Q 45.796875 14.203125 45.796875 21.1875 
Q 45.796875 27.640625 41.28125 31.265625 
Q 36.765625 34.90625 28.71875 34.90625 
L 20.21875 34.90625 
L 20.21875 43.015625 
L 29.109375 43.015625 
Q 36.375 43.015625 40.234375 45.921875 
Q 44.09375 48.828125 44.09375 54.296875 
Q 44.09375 59.90625 40.109375 62.90625 
Q 36.140625 65.921875 28.71875 65.921875 
Q 24.65625 65.921875 20.015625 65.03125 
Q 15.375 64.15625 9.8125 62.3125 
L 9.8125 71.09375 
Q 15.4375 72.65625 20.34375 73.4375 
Q 25.25 74.21875 29.59375 74.21875 
Q 40.828125 74.21875 47.359375 69.109375 
Q 53.90625 64.015625 53.90625 55.328125 
Q 53.90625 49.265625 50.4375 45.09375 
Q 46.96875 40.921875 40.578125 39.3125 
z
" id="DejaVuSans-33"/>
      </defs>
      <g transform="translate(351.095597 557.996838)scale(0.1 -0.1)">
       <use xlink:href="#DejaVuSans-30"/>
       <use x="63.623047" xlink:href="#DejaVuSans-2e"/>
       <use x="95.410156" xlink:href="#DejaVuSans-31"/>
       <use x="159.033203" xlink:href="#DejaVuSans-33"/>
       <use x="222.65625" xlink:href="#DejaVuSans-30"/>
       <use x="286.279297" xlink:href="#DejaVuSans-30"/>
      </g>
     </g>
    </g>
    <g id="xtick_8">
     <g id="line2d_8">
      <g>
       <use style="stroke:#000000;stroke-width:0.8;" x="400.295455" xlink:href="#m0ce1609be6" y="543.3984"/>
      </g>
     </g>
     <g id="text_8">
      <!-- 0.1325 -->
      <g transform="translate(382.800142 557.996838)scale(0.1 -0.1)">
       <use xlink:href="#DejaVuSans-30"/>
       <use x="63.623047" xlink:href="#DejaVuSans-2e"/>
       <use x="95.410156" xlink:href="#DejaVuSans-31"/>
       <use x="159.033203" xlink:href="#DejaVuSans-33"/>
       <use x="222.65625" xlink:href="#DejaVuSans-32"/>
       <use x="286.279297" xlink:href="#DejaVuSans-35"/>
      </g>
     </g>
    </g>
    <g id="xtick_9">
     <g id="line2d_9">
      <g>
       <use style="stroke:#000000;stroke-width:0.8;" x="432" xlink:href="#m0ce1609be6" y="543.3984"/>
      </g>
     </g>
     <g id="text_9">
      <!-- 0.1350 -->
      <g transform="translate(414.504688 557.996838)scale(0.1 -0.1)">
       <use xlink:href="#DejaVuSans-30"/>
       <use x="63.623047" xlink:href="#DejaVuSans-2e"/>
       <use x="95.410156" xlink:href="#DejaVuSans-31"/>
       <use x="159.033203" xlink:href="#DejaVuSans-33"/>
       <use x="222.65625" xlink:href="#DejaVuSans-35"/>
       <use x="286.279297" xlink:href="#DejaVuSans-30"/>
      </g>
     </g>
    </g>
   </g>
   <g id="matplotlib.axis_2">
    <g id="ytick_1">
     <g id="line2d_10">
      <defs>
       <path d="M 0 0 
L -3.5 0 
" id="maca5ef3c93" style="stroke:#000000;stroke-width:0.8;"/>
      </defs>
      <g>
       <use style="stroke:#000000;stroke-width:0.8;" x="153" xlink:href="#maca5ef3c93" y="529.595875"/>
      </g>
     </g>
     <g id="text_10">
      <!-- 0 -->
      <g transform="translate(139.6375 533.395094)scale(0.1 -0.1)">
       <use xlink:href="#DejaVuSans-30"/>
      </g>
     </g>
    </g>
    <g id="ytick_2">
     <g id="line2d_11">
      <g>
       <use style="stroke:#000000;stroke-width:0.8;" x="153" xlink:href="#maca5ef3c93" y="463.092128"/>
      </g>
     </g>
     <g id="text_11">
      <!-- 500 -->
      <g transform="translate(126.9125 466.891347)scale(0.1 -0.1)">
       <use xlink:href="#DejaVuSans-35"/>
       <use x="63.623047" xlink:href="#DejaVuSans-30"/>
       <use x="127.246094" xlink:href="#DejaVuSans-30"/>
      </g>
     </g>
    </g>
    <g id="ytick_3">
     <g id="line2d_12">
      <g>
       <use style="stroke:#000000;stroke-width:0.8;" x="153" xlink:href="#maca5ef3c93" y="396.58838"/>
      </g>
     </g>
     <g id="text_12">
      <!-- 1000 -->
      <g transform="translate(120.55 400.387599)scale(0.1 -0.1)">
       <use xlink:href="#DejaVuSans-31"/>
       <use x="63.623047" xlink:href="#DejaVuSans-30"/>
       <use x="127.246094" xlink:href="#DejaVuSans-30"/>
       <use x="190.869141" xlink:href="#DejaVuSans-30"/>
      </g>
     </g>
    </g>
    <g id="ytick_4">
     <g id="line2d_13">
      <g>
       <use style="stroke:#000000;stroke-width:0.8;" x="153" xlink:href="#maca5ef3c93" y="330.084633"/>
      </g>
     </g>
     <g id="text_13">
      <!-- 1500 -->
      <g transform="translate(120.55 333.883852)scale(0.1 -0.1)">
       <use xlink:href="#DejaVuSans-31"/>
       <use x="63.623047" xlink:href="#DejaVuSans-35"/>
       <use x="127.246094" xlink:href="#DejaVuSans-30"/>
       <use x="190.869141" xlink:href="#DejaVuSans-30"/>
      </g>
     </g>
    </g>
    <g id="ytick_5">
     <g id="line2d_14">
      <g>
       <use style="stroke:#000000;stroke-width:0.8;" x="153" xlink:href="#maca5ef3c93" y="263.580885"/>
      </g>
     </g>
     <g id="text_14">
      <!-- 2000 -->
      <g transform="translate(120.55 267.380104)scale(0.1 -0.1)">
       <use xlink:href="#DejaVuSans-32"/>
       <use x="63.623047" xlink:href="#DejaVuSans-30"/>
       <use x="127.246094" xlink:href="#DejaVuSans-30"/>
       <use x="190.869141" xlink:href="#DejaVuSans-30"/>
      </g>
     </g>
    </g>
    <g id="ytick_6">
     <g id="line2d_15">
      <g>
       <use style="stroke:#000000;stroke-width:0.8;" x="153" xlink:href="#maca5ef3c93" y="197.077138"/>
      </g>
     </g>
     <g id="text_15">
      <!-- 2500 -->
      <g transform="translate(120.55 200.876357)scale(0.1 -0.1)">
       <use xlink:href="#DejaVuSans-32"/>
       <use x="63.623047" xlink:href="#DejaVuSans-35"/>
       <use x="127.246094" xlink:href="#DejaVuSans-30"/>
       <use x="190.869141" xlink:href="#DejaVuSans-30"/>
      </g>
     </g>
    </g>
    <g id="ytick_7">
     <g id="line2d_16">
      <g>
       <use style="stroke:#000000;stroke-width:0.8;" x="153" xlink:href="#maca5ef3c93" y="130.57339"/>
      </g>
     </g>
     <g id="text_16">
      <!-- 3000 -->
      <g transform="translate(120.55 134.372609)scale(0.1 -0.1)">
       <use xlink:href="#DejaVuSans-33"/>
       <use x="63.623047" xlink:href="#DejaVuSans-30"/>
       <use x="127.246094" xlink:href="#DejaVuSans-30"/>
       <use x="190.869141" xlink:href="#DejaVuSans-30"/>
      </g>
     </g>
    </g>
   </g>
   <g id="line2d_17">
    <path clip-path="url(#p7fd60678cc)" d="M 165.681818 507.383624 
L 174.136364 506.851594 
L 182.590909 497.541069 
L 191.045455 485.038365 
L 199.5 470.540548 
L 207.954545 458.436866 
L 216.409091 405.366875 
L 224.863636 355.489065 
L 233.318182 309.734486 
L 241.772727 256.797503 
L 250.227273 232.856154 
L 258.681818 174.332856 
L 267.136364 135.89369 
L 275.590909 117.405648 
L 284.045455 99.981667 
L 292.5 116.873618 
L 300.954545 106.632041 
L 309.409091 113.947454 
L 317.863636 128.179256 
L 326.318182 155.445792 
L 334.772727 187.633606 
L 343.227273 215.299165 
L 351.681818 260.388706 
L 360.136364 280.472837 
L 368.590909 327.690498 
L 377.045455 387.410863 
L 385.5 404.701838 
L 393.954545 443.274011 
L 402.409091 460.431978 
L 410.863636 481.447162 
L 419.318182 493.417837 
" style="fill:none;stroke:#1f77b4;stroke-linecap:square;stroke-width:1.5;"/>
   </g>
   <g id="line2d_18">
    <path clip-path="url(#p7fd60678cc)" d="M 165.681818 522.0288 
L 168.474611 518.440388 
L 171.267404 514.510002 
L 174.060197 510.217482 
L 176.852989 505.543101 
L 179.899672 499.985907 
L 182.946355 493.928197 
L 185.993038 487.348345 
L 189.039722 480.226994 
L 192.086405 472.547546 
L 195.133088 464.296668 
L 198.433661 454.702395 
L 201.734234 444.419897 
L 205.288698 432.577149 
L 208.843161 419.946354 
L 212.651515 405.56249 
L 216.713759 389.294322 
L 221.029894 371.039107 
L 225.599918 350.740953 
L 230.931613 326.018404 
L 237.78665 293.089364 
L 253.020066 219.498244 
L 257.84398 197.443074 
L 261.906224 179.827812 
L 265.460688 165.324293 
L 268.761261 152.754017 
L 271.807944 142.019334 
L 274.600737 132.986694 
L 277.13964 125.498746 
L 279.424652 119.385283 
L 281.709664 113.894152 
L 283.740786 109.556513 
L 285.771908 105.747238 
L 287.54914 102.858866 
L 289.326372 100.394397 
L 290.849713 98.624854 
L 292.373055 97.175831 
L 293.896396 96.050441 
L 295.165848 95.361606 
L 296.435299 94.900242 
L 297.70475 94.667042 
L 298.974201 94.662355 
L 300.243653 94.886188 
L 301.513104 95.338205 
L 302.782555 96.017729 
L 304.052007 96.923743 
L 305.575348 98.307994 
L 307.09869 100.013445 
L 308.622031 102.036438 
L 310.399263 104.792124 
L 312.176495 107.966108 
L 314.207617 112.093911 
L 316.238739 116.740574 
L 318.523751 122.56665 
L 320.808763 129.000218 
L 323.347666 136.824823 
L 326.140459 146.202784 
L 329.187142 157.282161 
L 332.487715 170.185864 
L 336.042179 184.999752 
L 340.104423 202.905863 
L 344.928337 225.216664 
L 351.529484 256.924116 
L 367.01679 331.747553 
L 372.602375 357.375494 
L 377.42629 378.449505 
L 381.742424 396.316039 
L 385.804668 412.185255 
L 389.613022 426.17413 
L 393.167486 438.424327 
L 396.721949 449.880432 
L 400.022523 459.80279 
L 403.323096 469.039512 
L 406.623669 477.600223 
L 409.670352 484.915411 
L 412.717035 491.682944 
L 415.763718 497.921269 
L 418.810401 503.651271 
L 419.318182 504.558431 
L 419.318182 504.558431 
" style="fill:none;stroke:#ff7f0e;stroke-linecap:square;stroke-width:1.5;"/>
   </g>
   <g id="patch_3">
    <path d="M 153 543.3984 
L 153 73.2672 
" style="fill:none;stroke:#000000;stroke-linecap:square;stroke-linejoin:miter;stroke-width:0.8;"/>
   </g>
   <g id="patch_4">
    <path d="M 432 543.3984 
L 432 73.2672 
" style="fill:none;stroke:#000000;stroke-linecap:square;stroke-linejoin:miter;stroke-width:0.8;"/>
   </g>
   <g id="patch_5">
    <path d="M 153 543.3984 
L 432 543.3984 
" style="fill:none;stroke:#000000;stroke-linecap:square;stroke-linejoin:miter;stroke-width:0.8;"/>
   </g>
   <g id="patch_6">
    <path d="M 153 73.2672 
L 432 73.2672 
" style="fill:none;stroke:#000000;stroke-linecap:square;stroke-linejoin:miter;stroke-width:0.8;"/>
   </g>
   <g id="text_17">
    <g id="patch_7">
     <path d="M 166.95 152.32401 
L 265.089375 152.32401 
Q 268.689375 152.32401 268.689375 148.72401 
L 268.689375 96.77376 
Q 268.689375 93.17376 265.089375 93.17376 
L 166.95 93.17376 
Q 163.35 93.17376 163.35 96.77376 
L 163.35 148.72401 
Q 163.35 152.32401 166.95 152.32401 
z
" style="fill:#f5deb3;opacity:0.5;stroke:#000000;stroke-linejoin:miter;"/>
    </g>
    <!-- a=58.628 -->
    <defs>
     <path d="M 34.28125 27.484375 
Q 23.390625 27.484375 19.1875 25 
Q 14.984375 22.515625 14.984375 16.5 
Q 14.984375 11.71875 18.140625 8.90625 
Q 21.296875 6.109375 26.703125 6.109375 
Q 34.1875 6.109375 38.703125 11.40625 
Q 43.21875 16.703125 43.21875 25.484375 
L 43.21875 27.484375 
z
M 52.203125 31.203125 
L 52.203125 0 
L 43.21875 0 
L 43.21875 8.296875 
Q 40.140625 3.328125 35.546875 0.953125 
Q 30.953125 -1.421875 24.3125 -1.421875 
Q 15.921875 -1.421875 10.953125 3.296875 
Q 6 8.015625 6 15.921875 
Q 6 25.140625 12.171875 29.828125 
Q 18.359375 34.515625 30.609375 34.515625 
L 43.21875 34.515625 
L 43.21875 35.40625 
Q 43.21875 41.609375 39.140625 45 
Q 35.0625 48.390625 27.6875 48.390625 
Q 23 48.390625 18.546875 47.265625 
Q 14.109375 46.140625 10.015625 43.890625 
L 10.015625 52.203125 
Q 14.9375 54.109375 19.578125 55.046875 
Q 24.21875 56 28.609375 56 
Q 40.484375 56 46.34375 49.84375 
Q 52.203125 43.703125 52.203125 31.203125 
z
" id="DejaVuSans-61"/>
     <path d="M 10.59375 45.40625 
L 73.1875 45.40625 
L 73.1875 37.203125 
L 10.59375 37.203125 
z
M 10.59375 25.484375 
L 73.1875 25.484375 
L 73.1875 17.1875 
L 10.59375 17.1875 
z
" id="DejaVuSans-3d"/>
     <path d="M 31.78125 34.625 
Q 24.75 34.625 20.71875 30.859375 
Q 16.703125 27.09375 16.703125 20.515625 
Q 16.703125 13.921875 20.71875 10.15625 
Q 24.75 6.390625 31.78125 6.390625 
Q 38.8125 6.390625 42.859375 10.171875 
Q 46.921875 13.96875 46.921875 20.515625 
Q 46.921875 27.09375 42.890625 30.859375 
Q 38.875 34.625 31.78125 34.625 
z
M 21.921875 38.8125 
Q 15.578125 40.375 12.03125 44.71875 
Q 8.5 49.078125 8.5 55.328125 
Q 8.5 64.0625 14.71875 69.140625 
Q 20.953125 74.21875 31.78125 74.21875 
Q 42.671875 74.21875 48.875 69.140625 
Q 55.078125 64.0625 55.078125 55.328125 
Q 55.078125 49.078125 51.53125 44.71875 
Q 48 40.375 41.703125 38.8125 
Q 48.828125 37.15625 52.796875 32.3125 
Q 56.78125 27.484375 56.78125 20.515625 
Q 56.78125 9.90625 50.3125 4.234375 
Q 43.84375 -1.421875 31.78125 -1.421875 
Q 19.734375 -1.421875 13.25 4.234375 
Q 6.78125 9.90625 6.78125 20.515625 
Q 6.78125 27.484375 10.78125 32.3125 
Q 14.796875 37.15625 21.921875 38.8125 
z
M 18.3125 54.390625 
Q 18.3125 48.734375 21.84375 45.5625 
Q 25.390625 42.390625 31.78125 42.390625 
Q 38.140625 42.390625 41.71875 45.5625 
Q 45.3125 48.734375 45.3125 54.390625 
Q 45.3125 60.0625 41.71875 63.234375 
Q 38.140625 66.40625 31.78125 66.40625 
Q 25.390625 66.40625 21.84375 63.234375 
Q 18.3125 60.0625 18.3125 54.390625 
z
" id="DejaVuSans-38"/>
     <path d="M 33.015625 40.375 
Q 26.375 40.375 22.484375 35.828125 
Q 18.609375 31.296875 18.609375 23.390625 
Q 18.609375 15.53125 22.484375 10.953125 
Q 26.375 6.390625 33.015625 6.390625 
Q 39.65625 6.390625 43.53125 10.953125 
Q 47.40625 15.53125 47.40625 23.390625 
Q 47.40625 31.296875 43.53125 35.828125 
Q 39.65625 40.375 33.015625 40.375 
z
M 52.59375 71.296875 
L 52.59375 62.3125 
Q 48.875 64.0625 45.09375 64.984375 
Q 41.3125 65.921875 37.59375 65.921875 
Q 27.828125 65.921875 22.671875 59.328125 
Q 17.53125 52.734375 16.796875 39.40625 
Q 19.671875 43.65625 24.015625 45.921875 
Q 28.375 48.1875 33.59375 48.1875 
Q 44.578125 48.1875 50.953125 41.515625 
Q 57.328125 34.859375 57.328125 23.390625 
Q 57.328125 12.15625 50.6875 5.359375 
Q 44.046875 -1.421875 33.015625 -1.421875 
Q 20.359375 -1.421875 13.671875 8.265625 
Q 6.984375 17.96875 6.984375 36.375 
Q 6.984375 53.65625 15.1875 63.9375 
Q 23.390625 74.21875 37.203125 74.21875 
Q 40.921875 74.21875 44.703125 73.484375 
Q 48.484375 72.75 52.59375 71.296875 
z
" id="DejaVuSans-36"/>
    </defs>
    <g transform="translate(166.95 105.891885)scale(0.12 -0.12)">
     <use xlink:href="#DejaVuSans-61"/>
     <use x="61.279297" xlink:href="#DejaVuSans-3d"/>
     <use x="145.068359" xlink:href="#DejaVuSans-35"/>
     <use x="208.691406" xlink:href="#DejaVuSans-38"/>
     <use x="272.314453" xlink:href="#DejaVuSans-2e"/>
     <use x="304.101562" xlink:href="#DejaVuSans-36"/>
     <use x="367.724609" xlink:href="#DejaVuSans-32"/>
     <use x="431.347656" xlink:href="#DejaVuSans-38"/>
    </g>
    <!-- $\mu$=0.124 -->
    <defs>
     <path d="M -1.3125 -20.796875 
L 13.375 54.6875 
L 22.40625 54.6875 
L 15.765625 20.65625 
Q 15.578125 19.625 15.421875 18.359375 
Q 15.28125 17.09375 15.28125 15.828125 
Q 15.28125 11.28125 18.140625 8.828125 
Q 21 6.390625 26.3125 6.390625 
Q 33.546875 6.390625 37.984375 10.484375 
Q 42.4375 14.59375 44 22.796875 
L 50.203125 54.6875 
L 59.1875 54.6875 
L 51.03125 12.640625 
Q 50.828125 11.71875 50.75 11.03125 
Q 50.6875 10.359375 50.6875 9.8125 
Q 50.6875 8.296875 51.296875 7.59375 
Q 51.90625 6.890625 53.21875 6.890625 
Q 53.71875 6.890625 54.5625 7.125 
Q 55.421875 7.375 56.984375 8.015625 
L 55.609375 0.78125 
Q 53.46875 -0.296875 51.515625 -0.859375 
Q 49.5625 -1.421875 47.703125 -1.421875 
Q 44.484375 -1.421875 42.65625 0.625 
Q 40.828125 2.6875 40.828125 6.296875 
Q 38.09375 2.390625 34.296875 0.484375 
Q 30.515625 -1.421875 25.390625 -1.421875 
Q 20.84375 -1.421875 17.453125 0.671875 
Q 14.0625 2.78125 12.984375 6.203125 
L 7.71875 -20.796875 
z
" id="DejaVuSans-Oblique-3bc"/>
     <path d="M 37.796875 64.3125 
L 12.890625 25.390625 
L 37.796875 25.390625 
z
M 35.203125 72.90625 
L 47.609375 72.90625 
L 47.609375 25.390625 
L 58.015625 25.390625 
L 58.015625 17.1875 
L 47.609375 17.1875 
L 47.609375 0 
L 37.796875 0 
L 37.796875 17.1875 
L 4.890625 17.1875 
L 4.890625 26.703125 
z
" id="DejaVuSans-34"/>
    </defs>
    <g transform="translate(166.95 119.32926)scale(0.12 -0.12)">
     <use transform="translate(0 0.78125)" xlink:href="#DejaVuSans-Oblique-3bc"/>
     <use transform="translate(63.623047 0.78125)" xlink:href="#DejaVuSans-3d"/>
     <use transform="translate(147.412109 0.78125)" xlink:href="#DejaVuSans-30"/>
     <use transform="translate(211.035156 0.78125)" xlink:href="#DejaVuSans-2e"/>
     <use transform="translate(242.822266 0.78125)" xlink:href="#DejaVuSans-31"/>
     <use transform="translate(306.445312 0.78125)" xlink:href="#DejaVuSans-32"/>
     <use transform="translate(370.068359 0.78125)" xlink:href="#DejaVuSans-34"/>
    </g>
    <!-- $\sigma$=0.0045 -->
    <defs>
     <path d="M 34.671875 47.5625 
Q 27.25 47.5625 22.21875 42.1875 
Q 16.890625 36.578125 15.140625 27.296875 
Q 13.1875 17.484375 16.3125 11.8125 
Q 19.390625 6.203125 26.65625 6.203125 
Q 33.84375 6.203125 39.109375 11.859375 
Q 44.4375 17.53125 46.34375 27.296875 
Q 48.046875 36.234375 45.015625 42.1875 
Q 42.1875 47.5625 34.671875 47.5625 
z
M 36.078125 54.734375 
L 65.921875 54.6875 
L 64.15625 45.703125 
L 54.109375 45.703125 
Q 57.90625 38.09375 55.859375 27.296875 
Q 53.21875 13.875 45.0625 6.25 
Q 36.859375 -1.421875 25.140625 -1.421875 
Q 13.375 -1.421875 8.203125 6.25 
Q 3.03125 13.875 5.671875 27.296875 
Q 8.25 40.765625 16.40625 48.390625 
Q 23.1875 54.734375 36.078125 54.734375 
z
" id="DejaVuSans-Oblique-3c3"/>
    </defs>
    <g transform="translate(166.95 132.79101)scale(0.12 -0.12)">
     <use transform="translate(0 0.78125)" xlink:href="#DejaVuSans-Oblique-3c3"/>
     <use transform="translate(63.378906 0.78125)" xlink:href="#DejaVuSans-3d"/>
     <use transform="translate(147.167969 0.78125)" xlink:href="#DejaVuSans-30"/>
     <use transform="translate(210.791016 0.78125)" xlink:href="#DejaVuSans-2e"/>
     <use transform="translate(242.578125 0.78125)" xlink:href="#DejaVuSans-30"/>
     <use transform="translate(306.201172 0.78125)" xlink:href="#DejaVuSans-30"/>
     <use transform="translate(369.824219 0.78125)" xlink:href="#DejaVuSans-34"/>
     <use transform="translate(433.447266 0.78125)" xlink:href="#DejaVuSans-35"/>
    </g>
    <!-- offset=-167.026 -->
    <defs>
     <path d="M 30.609375 48.390625 
Q 23.390625 48.390625 19.1875 42.75 
Q 14.984375 37.109375 14.984375 27.296875 
Q 14.984375 17.484375 19.15625 11.84375 
Q 23.34375 6.203125 30.609375 6.203125 
Q 37.796875 6.203125 41.984375 11.859375 
Q 46.1875 17.53125 46.1875 27.296875 
Q 46.1875 37.015625 41.984375 42.703125 
Q 37.796875 48.390625 30.609375 48.390625 
z
M 30.609375 56 
Q 42.328125 56 49.015625 48.375 
Q 55.71875 40.765625 55.71875 27.296875 
Q 55.71875 13.875 49.015625 6.21875 
Q 42.328125 -1.421875 30.609375 -1.421875 
Q 18.84375 -1.421875 12.171875 6.21875 
Q 5.515625 13.875 5.515625 27.296875 
Q 5.515625 40.765625 12.171875 48.375 
Q 18.84375 56 30.609375 56 
z
" id="DejaVuSans-6f"/>
     <path d="M 37.109375 75.984375 
L 37.109375 68.5 
L 28.515625 68.5 
Q 23.6875 68.5 21.796875 66.546875 
Q 19.921875 64.59375 19.921875 59.515625 
L 19.921875 54.6875 
L 34.71875 54.6875 
L 34.71875 47.703125 
L 19.921875 47.703125 
L 19.921875 0 
L 10.890625 0 
L 10.890625 47.703125 
L 2.296875 47.703125 
L 2.296875 54.6875 
L 10.890625 54.6875 
L 10.890625 58.5 
Q 10.890625 67.625 15.140625 71.796875 
Q 19.390625 75.984375 28.609375 75.984375 
z
" id="DejaVuSans-66"/>
     <path d="M 44.28125 53.078125 
L 44.28125 44.578125 
Q 40.484375 46.53125 36.375 47.5 
Q 32.28125 48.484375 27.875 48.484375 
Q 21.1875 48.484375 17.84375 46.4375 
Q 14.5 44.390625 14.5 40.28125 
Q 14.5 37.15625 16.890625 35.375 
Q 19.28125 33.59375 26.515625 31.984375 
L 29.59375 31.296875 
Q 39.15625 29.25 43.1875 25.515625 
Q 47.21875 21.78125 47.21875 15.09375 
Q 47.21875 7.46875 41.1875 3.015625 
Q 35.15625 -1.421875 24.609375 -1.421875 
Q 20.21875 -1.421875 15.453125 -0.5625 
Q 10.6875 0.296875 5.421875 2 
L 5.421875 11.28125 
Q 10.40625 8.6875 15.234375 7.390625 
Q 20.0625 6.109375 24.8125 6.109375 
Q 31.15625 6.109375 34.5625 8.28125 
Q 37.984375 10.453125 37.984375 14.40625 
Q 37.984375 18.0625 35.515625 20.015625 
Q 33.0625 21.96875 24.703125 23.78125 
L 21.578125 24.515625 
Q 13.234375 26.265625 9.515625 29.90625 
Q 5.8125 33.546875 5.8125 39.890625 
Q 5.8125 47.609375 11.28125 51.796875 
Q 16.75 56 26.8125 56 
Q 31.78125 56 36.171875 55.265625 
Q 40.578125 54.546875 44.28125 53.078125 
z
" id="DejaVuSans-73"/>
     <path d="M 56.203125 29.59375 
L 56.203125 25.203125 
L 14.890625 25.203125 
Q 15.484375 15.921875 20.484375 11.0625 
Q 25.484375 6.203125 34.421875 6.203125 
Q 39.59375 6.203125 44.453125 7.46875 
Q 49.3125 8.734375 54.109375 11.28125 
L 54.109375 2.78125 
Q 49.265625 0.734375 44.1875 -0.34375 
Q 39.109375 -1.421875 33.890625 -1.421875 
Q 20.796875 -1.421875 13.15625 6.1875 
Q 5.515625 13.8125 5.515625 26.8125 
Q 5.515625 40.234375 12.765625 48.109375 
Q 20.015625 56 32.328125 56 
Q 43.359375 56 49.78125 48.890625 
Q 56.203125 41.796875 56.203125 29.59375 
z
M 47.21875 32.234375 
Q 47.125 39.59375 43.09375 43.984375 
Q 39.0625 48.390625 32.421875 48.390625 
Q 24.90625 48.390625 20.390625 44.140625 
Q 15.875 39.890625 15.1875 32.171875 
z
" id="DejaVuSans-65"/>
     <path d="M 18.3125 70.21875 
L 18.3125 54.6875 
L 36.8125 54.6875 
L 36.8125 47.703125 
L 18.3125 47.703125 
L 18.3125 18.015625 
Q 18.3125 11.328125 20.140625 9.421875 
Q 21.96875 7.515625 27.59375 7.515625 
L 36.8125 7.515625 
L 36.8125 0 
L 27.59375 0 
Q 17.1875 0 13.234375 3.875 
Q 9.28125 7.765625 9.28125 18.015625 
L 9.28125 47.703125 
L 2.6875 47.703125 
L 2.6875 54.6875 
L 9.28125 54.6875 
L 9.28125 70.21875 
z
" id="DejaVuSans-74"/>
     <path d="M 4.890625 31.390625 
L 31.203125 31.390625 
L 31.203125 23.390625 
L 4.890625 23.390625 
z
" id="DejaVuSans-2d"/>
    </defs>
    <g transform="translate(166.95 146.228385)scale(0.12 -0.12)">
     <use xlink:href="#DejaVuSans-6f"/>
     <use x="61.181641" xlink:href="#DejaVuSans-66"/>
     <use x="96.386719" xlink:href="#DejaVuSans-66"/>
     <use x="131.591797" xlink:href="#DejaVuSans-73"/>
     <use x="183.691406" xlink:href="#DejaVuSans-65"/>
     <use x="245.214844" xlink:href="#DejaVuSans-74"/>
     <use x="284.423828" xlink:href="#DejaVuSans-3d"/>
     <use x="368.212891" xlink:href="#DejaVuSans-2d"/>
     <use x="404.296875" xlink:href="#DejaVuSans-31"/>
     <use x="467.919922" xlink:href="#DejaVuSans-36"/>
     <use x="531.542969" xlink:href="#DejaVuSans-37"/>
     <use x="595.166016" xlink:href="#DejaVuSans-2e"/>
     <use x="626.953125" xlink:href="#DejaVuSans-30"/>
     <use x="690.576172" xlink:href="#DejaVuSans-32"/>
     <use x="754.199219" xlink:href="#DejaVuSans-36"/>
    </g>
   </g>
   <g id="text_18">
    <!-- X Axis -->
    <defs>
     <path d="M 6.296875 72.90625 
L 16.890625 72.90625 
L 35.015625 45.796875 
L 53.21875 72.90625 
L 63.8125 72.90625 
L 40.375 37.890625 
L 65.375 0 
L 54.78125 0 
L 34.28125 31 
L 13.625 0 
L 2.984375 0 
L 29 38.921875 
z
" id="DejaVuSans-58"/>
     <path id="DejaVuSans-20"/>
     <path d="M 34.1875 63.1875 
L 20.796875 26.90625 
L 47.609375 26.90625 
z
M 28.609375 72.90625 
L 39.796875 72.90625 
L 67.578125 0 
L 57.328125 0 
L 50.6875 18.703125 
L 17.828125 18.703125 
L 11.1875 0 
L 0.78125 0 
z
" id="DejaVuSans-41"/>
     <path d="M 54.890625 54.6875 
L 35.109375 28.078125 
L 55.90625 0 
L 45.3125 0 
L 29.390625 21.484375 
L 13.484375 0 
L 2.875 0 
L 24.125 28.609375 
L 4.6875 54.6875 
L 15.28125 54.6875 
L 29.78125 35.203125 
L 44.28125 54.6875 
z
" id="DejaVuSans-78"/>
     <path d="M 9.421875 54.6875 
L 18.40625 54.6875 
L 18.40625 0 
L 9.421875 0 
z
M 9.421875 75.984375 
L 18.40625 75.984375 
L 18.40625 64.59375 
L 9.421875 64.59375 
z
" id="DejaVuSans-69"/>
    </defs>
    <g transform="translate(274.035 67.2672)scale(0.12 -0.12)">
     <use xlink:href="#DejaVuSans-58"/>
     <use x="68.505859" xlink:href="#DejaVuSans-20"/>
     <use x="100.292969" xlink:href="#DejaVuSans-41"/>
     <use x="168.701172" xlink:href="#DejaVuSans-78"/>
     <use x="227.880859" xlink:href="#DejaVuSans-69"/>
     <use x="255.664062" xlink:href="#DejaVuSans-73"/>
    </g>
   </g>
  </g>
  <g id="axes_2">
   <g id="patch_8">
    <path d="M 487.8 543.3984 
L 766.8 543.3984 
L 766.8 73.2672 
L 487.8 73.2672 
z
" style="fill:#ffffff;"/>
   </g>
   <g id="matplotlib.axis_3">
    <g id="xtick_10">
     <g id="line2d_19">
      <g>
       <use style="stroke:#000000;stroke-width:0.8;" x="500.481818" xlink:href="#m0ce1609be6" y="543.3984"/>
      </g>
     </g>
     <g id="text_19">
      <!-- −0.0200 -->
      <defs>
       <path d="M 10.59375 35.5 
L 73.1875 35.5 
L 73.1875 27.203125 
L 10.59375 27.203125 
z
" id="DejaVuSans-2212"/>
      </defs>
      <g transform="translate(478.796662 557.996838)scale(0.1 -0.1)">
       <use xlink:href="#DejaVuSans-2212"/>
       <use x="83.789062" xlink:href="#DejaVuSans-30"/>
       <use x="147.412109" xlink:href="#DejaVuSans-2e"/>
       <use x="179.199219" xlink:href="#DejaVuSans-30"/>
       <use x="242.822266" xlink:href="#DejaVuSans-32"/>
       <use x="306.445312" xlink:href="#DejaVuSans-30"/>
       <use x="370.068359" xlink:href="#DejaVuSans-30"/>
      </g>
     </g>
    </g>
    <g id="xtick_11">
     <g id="line2d_20">
      <g>
       <use style="stroke:#000000;stroke-width:0.8;" x="532.186364" xlink:href="#m0ce1609be6" y="543.3984"/>
      </g>
     </g>
     <g id="text_20">
      <!-- −0.0175 -->
      <g transform="translate(510.501207 557.996838)scale(0.1 -0.1)">
       <use xlink:href="#DejaVuSans-2212"/>
       <use x="83.789062" xlink:href="#DejaVuSans-30"/>
       <use x="147.412109" xlink:href="#DejaVuSans-2e"/>
       <use x="179.199219" xlink:href="#DejaVuSans-30"/>
       <use x="242.822266" xlink:href="#DejaVuSans-31"/>
       <use x="306.445312" xlink:href="#DejaVuSans-37"/>
       <use x="370.068359" xlink:href="#DejaVuSans-35"/>
      </g>
     </g>
    </g>
    <g id="xtick_12">
     <g id="line2d_21">
      <g>
       <use style="stroke:#000000;stroke-width:0.8;" x="563.890909" xlink:href="#m0ce1609be6" y="543.3984"/>
      </g>
     </g>
     <g id="text_21">
      <!-- −0.0150 -->
      <g transform="translate(542.205753 557.996838)scale(0.1 -0.1)">
       <use xlink:href="#DejaVuSans-2212"/>
       <use x="83.789062" xlink:href="#DejaVuSans-30"/>
       <use x="147.412109" xlink:href="#DejaVuSans-2e"/>
       <use x="179.199219" xlink:href="#DejaVuSans-30"/>
       <use x="242.822266" xlink:href="#DejaVuSans-31"/>
       <use x="306.445312" xlink:href="#DejaVuSans-35"/>
       <use x="370.068359" xlink:href="#DejaVuSans-30"/>
      </g>
     </g>
    </g>
    <g id="xtick_13">
     <g id="line2d_22">
      <g>
       <use style="stroke:#000000;stroke-width:0.8;" x="595.595455" xlink:href="#m0ce1609be6" y="543.3984"/>
      </g>
     </g>
     <g id="text_22">
      <!-- −0.0125 -->
      <g transform="translate(573.910298 557.996838)scale(0.1 -0.1)">
       <use xlink:href="#DejaVuSans-2212"/>
       <use x="83.789062" xlink:href="#DejaVuSans-30"/>
       <use x="147.412109" xlink:href="#DejaVuSans-2e"/>
       <use x="179.199219" xlink:href="#DejaVuSans-30"/>
       <use x="242.822266" xlink:href="#DejaVuSans-31"/>
       <use x="306.445312" xlink:href="#DejaVuSans-32"/>
       <use x="370.068359" xlink:href="#DejaVuSans-35"/>
      </g>
     </g>
    </g>
    <g id="xtick_14">
     <g id="line2d_23">
      <g>
       <use style="stroke:#000000;stroke-width:0.8;" x="627.3" xlink:href="#m0ce1609be6" y="543.3984"/>
      </g>
     </g>
     <g id="text_23">
      <!-- −0.0100 -->
      <g transform="translate(605.614844 557.996838)scale(0.1 -0.1)">
       <use xlink:href="#DejaVuSans-2212"/>
       <use x="83.789062" xlink:href="#DejaVuSans-30"/>
       <use x="147.412109" xlink:href="#DejaVuSans-2e"/>
       <use x="179.199219" xlink:href="#DejaVuSans-30"/>
       <use x="242.822266" xlink:href="#DejaVuSans-31"/>
       <use x="306.445312" xlink:href="#DejaVuSans-30"/>
       <use x="370.068359" xlink:href="#DejaVuSans-30"/>
      </g>
     </g>
    </g>
    <g id="xtick_15">
     <g id="line2d_24">
      <g>
       <use style="stroke:#000000;stroke-width:0.8;" x="659.004545" xlink:href="#m0ce1609be6" y="543.3984"/>
      </g>
     </g>
     <g id="text_24">
      <!-- −0.0075 -->
      <g transform="translate(637.319389 557.996838)scale(0.1 -0.1)">
       <use xlink:href="#DejaVuSans-2212"/>
       <use x="83.789062" xlink:href="#DejaVuSans-30"/>
       <use x="147.412109" xlink:href="#DejaVuSans-2e"/>
       <use x="179.199219" xlink:href="#DejaVuSans-30"/>
       <use x="242.822266" xlink:href="#DejaVuSans-30"/>
       <use x="306.445312" xlink:href="#DejaVuSans-37"/>
       <use x="370.068359" xlink:href="#DejaVuSans-35"/>
      </g>
     </g>
    </g>
    <g id="xtick_16">
     <g id="line2d_25">
      <g>
       <use style="stroke:#000000;stroke-width:0.8;" x="690.709091" xlink:href="#m0ce1609be6" y="543.3984"/>
      </g>
     </g>
     <g id="text_25">
      <!-- −0.0050 -->
      <g transform="translate(669.023935 557.996838)scale(0.1 -0.1)">
       <use xlink:href="#DejaVuSans-2212"/>
       <use x="83.789062" xlink:href="#DejaVuSans-30"/>
       <use x="147.412109" xlink:href="#DejaVuSans-2e"/>
       <use x="179.199219" xlink:href="#DejaVuSans-30"/>
       <use x="242.822266" xlink:href="#DejaVuSans-30"/>
       <use x="306.445312" xlink:href="#DejaVuSans-35"/>
       <use x="370.068359" xlink:href="#DejaVuSans-30"/>
      </g>
     </g>
    </g>
    <g id="xtick_17">
     <g id="line2d_26">
      <g>
       <use style="stroke:#000000;stroke-width:0.8;" x="722.413636" xlink:href="#m0ce1609be6" y="543.3984"/>
      </g>
     </g>
     <g id="text_26">
      <!-- −0.0025 -->
      <g transform="translate(700.72848 557.996838)scale(0.1 -0.1)">
       <use xlink:href="#DejaVuSans-2212"/>
       <use x="83.789062" xlink:href="#DejaVuSans-30"/>
       <use x="147.412109" xlink:href="#DejaVuSans-2e"/>
       <use x="179.199219" xlink:href="#DejaVuSans-30"/>
       <use x="242.822266" xlink:href="#DejaVuSans-30"/>
       <use x="306.445312" xlink:href="#DejaVuSans-32"/>
       <use x="370.068359" xlink:href="#DejaVuSans-35"/>
      </g>
     </g>
    </g>
    <g id="xtick_18">
     <g id="line2d_27">
      <g>
       <use style="stroke:#000000;stroke-width:0.8;" x="754.118182" xlink:href="#m0ce1609be6" y="543.3984"/>
      </g>
     </g>
     <g id="text_27">
      <!-- 0.0000 -->
      <g transform="translate(736.622869 557.996838)scale(0.1 -0.1)">
       <use xlink:href="#DejaVuSans-30"/>
       <use x="63.623047" xlink:href="#DejaVuSans-2e"/>
       <use x="95.410156" xlink:href="#DejaVuSans-30"/>
       <use x="159.033203" xlink:href="#DejaVuSans-30"/>
       <use x="222.65625" xlink:href="#DejaVuSans-30"/>
       <use x="286.279297" xlink:href="#DejaVuSans-30"/>
      </g>
     </g>
    </g>
   </g>
   <g id="matplotlib.axis_4">
    <g id="ytick_8">
     <g id="line2d_28">
      <g>
       <use style="stroke:#000000;stroke-width:0.8;" x="487.8" xlink:href="#maca5ef3c93" y="542.361306"/>
      </g>
     </g>
     <g id="text_28">
      <!-- 0 -->
      <g transform="translate(474.4375 546.160524)scale(0.1 -0.1)">
       <use xlink:href="#DejaVuSans-30"/>
      </g>
     </g>
    </g>
    <g id="ytick_9">
     <g id="line2d_29">
      <g>
       <use style="stroke:#000000;stroke-width:0.8;" x="487.8" xlink:href="#maca5ef3c93" y="474.131421"/>
      </g>
     </g>
     <g id="text_29">
      <!-- 500 -->
      <g transform="translate(461.7125 477.930639)scale(0.1 -0.1)">
       <use xlink:href="#DejaVuSans-35"/>
       <use x="63.623047" xlink:href="#DejaVuSans-30"/>
       <use x="127.246094" xlink:href="#DejaVuSans-30"/>
      </g>
     </g>
    </g>
    <g id="ytick_10">
     <g id="line2d_30">
      <g>
       <use style="stroke:#000000;stroke-width:0.8;" x="487.8" xlink:href="#maca5ef3c93" y="405.901536"/>
      </g>
     </g>
     <g id="text_30">
      <!-- 1000 -->
      <g transform="translate(455.35 409.700754)scale(0.1 -0.1)">
       <use xlink:href="#DejaVuSans-31"/>
       <use x="63.623047" xlink:href="#DejaVuSans-30"/>
       <use x="127.246094" xlink:href="#DejaVuSans-30"/>
       <use x="190.869141" xlink:href="#DejaVuSans-30"/>
      </g>
     </g>
    </g>
    <g id="ytick_11">
     <g id="line2d_31">
      <g>
       <use style="stroke:#000000;stroke-width:0.8;" x="487.8" xlink:href="#maca5ef3c93" y="337.671651"/>
      </g>
     </g>
     <g id="text_31">
      <!-- 1500 -->
      <g transform="translate(455.35 341.470869)scale(0.1 -0.1)">
       <use xlink:href="#DejaVuSans-31"/>
       <use x="63.623047" xlink:href="#DejaVuSans-35"/>
       <use x="127.246094" xlink:href="#DejaVuSans-30"/>
       <use x="190.869141" xlink:href="#DejaVuSans-30"/>
      </g>
     </g>
    </g>
    <g id="ytick_12">
     <g id="line2d_32">
      <g>
       <use style="stroke:#000000;stroke-width:0.8;" x="487.8" xlink:href="#maca5ef3c93" y="269.441766"/>
      </g>
     </g>
     <g id="text_32">
      <!-- 2000 -->
      <g transform="translate(455.35 273.240984)scale(0.1 -0.1)">
       <use xlink:href="#DejaVuSans-32"/>
       <use x="63.623047" xlink:href="#DejaVuSans-30"/>
       <use x="127.246094" xlink:href="#DejaVuSans-30"/>
       <use x="190.869141" xlink:href="#DejaVuSans-30"/>
      </g>
     </g>
    </g>
    <g id="ytick_13">
     <g id="line2d_33">
      <g>
       <use style="stroke:#000000;stroke-width:0.8;" x="487.8" xlink:href="#maca5ef3c93" y="201.21188"/>
      </g>
     </g>
     <g id="text_33">
      <!-- 2500 -->
      <g transform="translate(455.35 205.011099)scale(0.1 -0.1)">
       <use xlink:href="#DejaVuSans-32"/>
       <use x="63.623047" xlink:href="#DejaVuSans-35"/>
       <use x="127.246094" xlink:href="#DejaVuSans-30"/>
       <use x="190.869141" xlink:href="#DejaVuSans-30"/>
      </g>
     </g>
    </g>
    <g id="ytick_14">
     <g id="line2d_34">
      <g>
       <use style="stroke:#000000;stroke-width:0.8;" x="487.8" xlink:href="#maca5ef3c93" y="132.981995"/>
      </g>
     </g>
     <g id="text_34">
      <!-- 3000 -->
      <g transform="translate(455.35 136.781214)scale(0.1 -0.1)">
       <use xlink:href="#DejaVuSans-33"/>
       <use x="63.623047" xlink:href="#DejaVuSans-30"/>
       <use x="127.246094" xlink:href="#DejaVuSans-30"/>
       <use x="190.869141" xlink:href="#DejaVuSans-30"/>
      </g>
     </g>
    </g>
   </g>
   <g id="line2d_35">
    <path clip-path="url(#pe2f0bce341)" d="M 500.481818 461.031283 
L 508.936364 476.860616 
L 517.390909 457.210409 
L 525.845455 434.967467 
L 534.3 386.524248 
L 542.754545 358.959375 
L 551.209091 328.528846 
L 559.663636 287.727375 
L 568.118182 247.608202 
L 576.572727 223.727743 
L 585.027273 181.015834 
L 593.481818 158.090593 
L 601.936364 133.254915 
L 610.390909 118.10788 
L 618.845455 124.11211 
L 627.3 94.6368 
L 635.754545 106.5088 
L 644.209091 125.476708 
L 652.663636 179.514777 
L 661.118182 188.111743 
L 669.572727 210.491145 
L 678.027273 258.661444 
L 686.481818 311.607834 
L 694.936364 350.08949 
L 703.390909 400.579605 
L 711.845455 408.630731 
L 720.3 451.888478 
L 728.754545 474.950179 
L 737.209091 505.107789 
L 745.663636 513.568294 
L 754.118182 522.0288 
" style="fill:none;stroke:#1f77b4;stroke-linecap:square;stroke-width:1.5;"/>
   </g>
   <g id="line2d_36">
    <path clip-path="url(#pe2f0bce341)" d="M 500.481818 497.784388 
L 503.528501 491.307077 
L 506.829075 483.740352 
L 510.129648 475.586991 
L 513.430221 466.835383 
L 516.730794 457.478346 
L 520.285258 446.722049 
L 523.839722 435.26554 
L 527.648075 422.228107 
L 531.710319 407.481738 
L 536.026454 390.916782 
L 540.596478 372.455859 
L 545.674283 350.976009 
L 551.513759 325.274351 
L 559.892138 287.272554 
L 571.063309 236.703604 
L 576.648894 212.50146 
L 581.218919 193.702018 
L 585.027273 178.93636 
L 588.581736 166.038685 
L 591.628419 155.75614 
L 594.675102 146.262863 
L 597.467895 138.31187 
L 600.006798 131.749271 
L 602.29181 126.413547 
L 604.576822 121.641472 
L 606.607944 117.889035 
L 608.639066 114.610294 
L 610.416298 112.138656 
L 612.19353 110.044503 
L 613.716871 108.554095 
L 615.240213 107.34786 
L 616.763554 106.428101 
L 618.286896 105.796577 
L 619.556347 105.491376 
L 620.825799 105.387594 
L 622.09525 105.48537 
L 623.364701 105.784573 
L 624.634152 106.284805 
L 626.157494 107.149486 
L 627.680835 108.301023 
L 629.204177 109.737215 
L 630.727518 111.455324 
L 632.50475 113.811709 
L 634.281982 116.541262 
L 636.313104 120.108651 
L 638.344226 124.142328 
L 640.629238 129.220837 
L 642.914251 134.851298 
L 645.453153 141.726315 
L 648.245946 150.001039 
L 651.038739 158.973345 
L 654.085422 169.494117 
L 657.385995 181.671797 
L 661.194349 196.607006 
L 665.510483 214.491593 
L 670.588288 236.536163 
L 677.443325 267.388974 
L 693.438411 339.747764 
L 699.023997 363.816954 
L 703.847912 383.692371 
L 708.417936 401.59329 
L 712.73407 417.575248 
L 716.796314 431.737434 
L 720.604668 444.205871 
L 724.159132 455.120329 
L 727.713595 465.330481 
L 731.268059 474.837719 
L 734.568632 483.043549 
L 737.869206 490.661553 
L 741.169779 497.706886 
L 744.470352 504.198057 
L 747.517035 509.716437 
L 750.563718 514.799255 
L 753.610401 519.4663 
L 754.118182 520.205165 
L 754.118182 520.205165 
" style="fill:none;stroke:#ff7f0e;stroke-linecap:square;stroke-width:1.5;"/>
   </g>
   <g id="patch_9">
    <path d="M 487.8 543.3984 
L 487.8 73.2672 
" style="fill:none;stroke:#000000;stroke-linecap:square;stroke-linejoin:miter;stroke-width:0.8;"/>
   </g>
   <g id="patch_10">
    <path d="M 766.8 543.3984 
L 766.8 73.2672 
" style="fill:none;stroke:#000000;stroke-linecap:square;stroke-linejoin:miter;stroke-width:0.8;"/>
   </g>
   <g id="patch_11">
    <path d="M 487.8 543.3984 
L 766.8 543.3984 
" style="fill:none;stroke:#000000;stroke-linecap:square;stroke-linejoin:miter;stroke-width:0.8;"/>
   </g>
   <g id="patch_12">
    <path d="M 487.8 73.2672 
L 766.8 73.2672 
" style="fill:none;stroke:#000000;stroke-linecap:square;stroke-linejoin:miter;stroke-width:0.8;"/>
   </g>
   <g id="text_35">
    <g id="patch_13">
     <path d="M 501.75 152.32401 
L 599.889375 152.32401 
Q 603.489375 152.32401 603.489375 148.72401 
L 603.489375 96.77376 
Q 603.489375 93.17376 599.889375 93.17376 
L 501.75 93.17376 
Q 498.15 93.17376 498.15 96.77376 
L 498.15 148.72401 
Q 498.15 152.32401 501.75 152.32401 
z
" style="fill:#f5deb3;opacity:0.5;stroke:#000000;stroke-linejoin:miter;"/>
    </g>
    <!-- a=57.691 -->
    <defs>
     <path d="M 10.984375 1.515625 
L 10.984375 10.5 
Q 14.703125 8.734375 18.5 7.8125 
Q 22.3125 6.890625 25.984375 6.890625 
Q 35.75 6.890625 40.890625 13.453125 
Q 46.046875 20.015625 46.78125 33.40625 
Q 43.953125 29.203125 39.59375 26.953125 
Q 35.25 24.703125 29.984375 24.703125 
Q 19.046875 24.703125 12.671875 31.3125 
Q 6.296875 37.9375 6.296875 49.421875 
Q 6.296875 60.640625 12.9375 67.421875 
Q 19.578125 74.21875 30.609375 74.21875 
Q 43.265625 74.21875 49.921875 64.515625 
Q 56.59375 54.828125 56.59375 36.375 
Q 56.59375 19.140625 48.40625 8.859375 
Q 40.234375 -1.421875 26.421875 -1.421875 
Q 22.703125 -1.421875 18.890625 -0.6875 
Q 15.09375 0.046875 10.984375 1.515625 
z
M 30.609375 32.421875 
Q 37.25 32.421875 41.125 36.953125 
Q 45.015625 41.5 45.015625 49.421875 
Q 45.015625 57.28125 41.125 61.84375 
Q 37.25 66.40625 30.609375 66.40625 
Q 23.96875 66.40625 20.09375 61.84375 
Q 16.21875 57.28125 16.21875 49.421875 
Q 16.21875 41.5 20.09375 36.953125 
Q 23.96875 32.421875 30.609375 32.421875 
z
" id="DejaVuSans-39"/>
    </defs>
    <g transform="translate(501.75 105.891885)scale(0.12 -0.12)">
     <use xlink:href="#DejaVuSans-61"/>
     <use x="61.279297" xlink:href="#DejaVuSans-3d"/>
     <use x="145.068359" xlink:href="#DejaVuSans-35"/>
     <use x="208.691406" xlink:href="#DejaVuSans-37"/>
     <use x="272.314453" xlink:href="#DejaVuSans-2e"/>
     <use x="304.101562" xlink:href="#DejaVuSans-36"/>
     <use x="367.724609" xlink:href="#DejaVuSans-39"/>
     <use x="431.347656" xlink:href="#DejaVuSans-31"/>
    </g>
    <!-- $\mu$=-0.011 -->
    <g transform="translate(501.75 119.32926)scale(0.12 -0.12)">
     <use transform="translate(0 0.78125)" xlink:href="#DejaVuSans-Oblique-3bc"/>
     <use transform="translate(63.623047 0.78125)" xlink:href="#DejaVuSans-3d"/>
     <use transform="translate(147.412109 0.78125)" xlink:href="#DejaVuSans-2d"/>
     <use transform="translate(183.496094 0.78125)" xlink:href="#DejaVuSans-30"/>
     <use transform="translate(247.119141 0.78125)" xlink:href="#DejaVuSans-2e"/>
     <use transform="translate(278.90625 0.78125)" xlink:href="#DejaVuSans-30"/>
     <use transform="translate(342.529297 0.78125)" xlink:href="#DejaVuSans-31"/>
     <use transform="translate(406.152344 0.78125)" xlink:href="#DejaVuSans-31"/>
    </g>
    <!-- $\sigma$=0.0048 -->
    <g transform="translate(501.75 132.79101)scale(0.12 -0.12)">
     <use transform="translate(0 0.78125)" xlink:href="#DejaVuSans-Oblique-3c3"/>
     <use transform="translate(63.378906 0.78125)" xlink:href="#DejaVuSans-3d"/>
     <use transform="translate(147.167969 0.78125)" xlink:href="#DejaVuSans-30"/>
     <use transform="translate(210.791016 0.78125)" xlink:href="#DejaVuSans-2e"/>
     <use transform="translate(242.578125 0.78125)" xlink:href="#DejaVuSans-30"/>
     <use transform="translate(306.201172 0.78125)" xlink:href="#DejaVuSans-30"/>
     <use transform="translate(369.824219 0.78125)" xlink:href="#DejaVuSans-34"/>
     <use transform="translate(433.447266 0.78125)" xlink:href="#DejaVuSans-38"/>
    </g>
    <!-- offset=-125.988 -->
    <g transform="translate(501.75 146.228385)scale(0.12 -0.12)">
     <use xlink:href="#DejaVuSans-6f"/>
     <use x="61.181641" xlink:href="#DejaVuSans-66"/>
     <use x="96.386719" xlink:href="#DejaVuSans-66"/>
     <use x="131.591797" xlink:href="#DejaVuSans-73"/>
     <use x="183.691406" xlink:href="#DejaVuSans-65"/>
     <use x="245.214844" xlink:href="#DejaVuSans-74"/>
     <use x="284.423828" xlink:href="#DejaVuSans-3d"/>
     <use x="368.212891" xlink:href="#DejaVuSans-2d"/>
     <use x="404.296875" xlink:href="#DejaVuSans-31"/>
     <use x="467.919922" xlink:href="#DejaVuSans-32"/>
     <use x="531.542969" xlink:href="#DejaVuSans-35"/>
     <use x="595.166016" xlink:href="#DejaVuSans-2e"/>
     <use x="626.953125" xlink:href="#DejaVuSans-39"/>
     <use x="690.576172" xlink:href="#DejaVuSans-38"/>
     <use x="754.199219" xlink:href="#DejaVuSans-38"/>
    </g>
   </g>
   <g id="text_36">
    <!-- Y Axis -->
    <defs>
     <path d="M -0.203125 72.90625 
L 10.40625 72.90625 
L 30.609375 42.921875 
L 50.6875 72.90625 
L 61.28125 72.90625 
L 35.5 34.71875 
L 35.5 0 
L 25.59375 0 
L 25.59375 34.71875 
z
" id="DejaVuSans-59"/>
    </defs>
    <g transform="translate(609.280312 67.2672)scale(0.12 -0.12)">
     <use xlink:href="#DejaVuSans-59"/>
     <use x="61.083984" xlink:href="#DejaVuSans-20"/>
     <use x="92.871094" xlink:href="#DejaVuSans-41"/>
     <use x="161.279297" xlink:href="#DejaVuSans-78"/>
     <use x="220.458984" xlink:href="#DejaVuSans-69"/>
     <use x="248.242188" xlink:href="#DejaVuSans-73"/>
    </g>
   </g>
  </g>
  <g id="axes_3">
   <g id="patch_14">
    <path d="M 822.6 543.3984 
L 1101.6 543.3984 
L 1101.6 73.2672 
L 822.6 73.2672 
z
" style="fill:#ffffff;"/>
   </g>
   <g id="matplotlib.axis_5">
    <g id="xtick_19">
     <g id="line2d_37">
      <g>
       <use style="stroke:#000000;stroke-width:0.8;" x="830.209091" xlink:href="#m0ce1609be6" y="543.3984"/>
      </g>
     </g>
     <g id="text_37">
      <!-- 45 -->
      <g transform="translate(823.846591 557.996838)scale(0.1 -0.1)">
       <use xlink:href="#DejaVuSans-34"/>
       <use x="63.623047" xlink:href="#DejaVuSans-35"/>
      </g>
     </g>
    </g>
    <g id="xtick_20">
     <g id="line2d_38">
      <g>
       <use style="stroke:#000000;stroke-width:0.8;" x="880.936364" xlink:href="#m0ce1609be6" y="543.3984"/>
      </g>
     </g>
     <g id="text_38">
      <!-- 46 -->
      <g transform="translate(874.573864 557.996838)scale(0.1 -0.1)">
       <use xlink:href="#DejaVuSans-34"/>
       <use x="63.623047" xlink:href="#DejaVuSans-36"/>
      </g>
     </g>
    </g>
    <g id="xtick_21">
     <g id="line2d_39">
      <g>
       <use style="stroke:#000000;stroke-width:0.8;" x="931.663636" xlink:href="#m0ce1609be6" y="543.3984"/>
      </g>
     </g>
     <g id="text_39">
      <!-- 47 -->
      <g transform="translate(925.301136 557.996838)scale(0.1 -0.1)">
       <use xlink:href="#DejaVuSans-34"/>
       <use x="63.623047" xlink:href="#DejaVuSans-37"/>
      </g>
     </g>
    </g>
    <g id="xtick_22">
     <g id="line2d_40">
      <g>
       <use style="stroke:#000000;stroke-width:0.8;" x="982.390909" xlink:href="#m0ce1609be6" y="543.3984"/>
      </g>
     </g>
     <g id="text_40">
      <!-- 48 -->
      <g transform="translate(976.028409 557.996838)scale(0.1 -0.1)">
       <use xlink:href="#DejaVuSans-34"/>
       <use x="63.623047" xlink:href="#DejaVuSans-38"/>
      </g>
     </g>
    </g>
    <g id="xtick_23">
     <g id="line2d_41">
      <g>
       <use style="stroke:#000000;stroke-width:0.8;" x="1033.118182" xlink:href="#m0ce1609be6" y="543.3984"/>
      </g>
     </g>
     <g id="text_41">
      <!-- 49 -->
      <g transform="translate(1026.755682 557.996838)scale(0.1 -0.1)">
       <use xlink:href="#DejaVuSans-34"/>
       <use x="63.623047" xlink:href="#DejaVuSans-39"/>
      </g>
     </g>
    </g>
    <g id="xtick_24">
     <g id="line2d_42">
      <g>
       <use style="stroke:#000000;stroke-width:0.8;" x="1083.845455" xlink:href="#m0ce1609be6" y="543.3984"/>
      </g>
     </g>
     <g id="text_42">
      <!-- 50 -->
      <g transform="translate(1077.482955 557.996838)scale(0.1 -0.1)">
       <use xlink:href="#DejaVuSans-35"/>
       <use x="63.623047" xlink:href="#DejaVuSans-30"/>
      </g>
     </g>
    </g>
   </g>
   <g id="matplotlib.axis_6">
    <g id="ytick_15">
     <g id="line2d_43">
      <g>
       <use style="stroke:#000000;stroke-width:0.8;" x="822.6" xlink:href="#maca5ef3c93" y="502.473895"/>
      </g>
     </g>
     <g id="text_43">
      <!-- 1000 -->
      <g transform="translate(790.15 506.273114)scale(0.1 -0.1)">
       <use xlink:href="#DejaVuSans-31"/>
       <use x="63.623047" xlink:href="#DejaVuSans-30"/>
       <use x="127.246094" xlink:href="#DejaVuSans-30"/>
       <use x="190.869141" xlink:href="#DejaVuSans-30"/>
      </g>
     </g>
    </g>
    <g id="ytick_16">
     <g id="line2d_44">
      <g>
       <use style="stroke:#000000;stroke-width:0.8;" x="822.6" xlink:href="#maca5ef3c93" y="424.254276"/>
      </g>
     </g>
     <g id="text_44">
      <!-- 1500 -->
      <g transform="translate(790.15 428.053495)scale(0.1 -0.1)">
       <use xlink:href="#DejaVuSans-31"/>
       <use x="63.623047" xlink:href="#DejaVuSans-35"/>
       <use x="127.246094" xlink:href="#DejaVuSans-30"/>
       <use x="190.869141" xlink:href="#DejaVuSans-30"/>
      </g>
     </g>
    </g>
    <g id="ytick_17">
     <g id="line2d_45">
      <g>
       <use style="stroke:#000000;stroke-width:0.8;" x="822.6" xlink:href="#maca5ef3c93" y="346.034657"/>
      </g>
     </g>
     <g id="text_45">
      <!-- 2000 -->
      <g transform="translate(790.15 349.833875)scale(0.1 -0.1)">
       <use xlink:href="#DejaVuSans-32"/>
       <use x="63.623047" xlink:href="#DejaVuSans-30"/>
       <use x="127.246094" xlink:href="#DejaVuSans-30"/>
       <use x="190.869141" xlink:href="#DejaVuSans-30"/>
      </g>
     </g>
    </g>
    <g id="ytick_18">
     <g id="line2d_46">
      <g>
       <use style="stroke:#000000;stroke-width:0.8;" x="822.6" xlink:href="#maca5ef3c93" y="267.815037"/>
      </g>
     </g>
     <g id="text_46">
      <!-- 2500 -->
      <g transform="translate(790.15 271.614256)scale(0.1 -0.1)">
       <use xlink:href="#DejaVuSans-32"/>
       <use x="63.623047" xlink:href="#DejaVuSans-35"/>
       <use x="127.246094" xlink:href="#DejaVuSans-30"/>
       <use x="190.869141" xlink:href="#DejaVuSans-30"/>
      </g>
     </g>
    </g>
    <g id="ytick_19">
     <g id="line2d_47">
      <g>
       <use style="stroke:#000000;stroke-width:0.8;" x="822.6" xlink:href="#maca5ef3c93" y="189.595418"/>
      </g>
     </g>
     <g id="text_47">
      <!-- 3000 -->
      <g transform="translate(790.15 193.394637)scale(0.1 -0.1)">
       <use xlink:href="#DejaVuSans-33"/>
       <use x="63.623047" xlink:href="#DejaVuSans-30"/>
       <use x="127.246094" xlink:href="#DejaVuSans-30"/>
       <use x="190.869141" xlink:href="#DejaVuSans-30"/>
      </g>
     </g>
    </g>
    <g id="ytick_20">
     <g id="line2d_48">
      <g>
       <use style="stroke:#000000;stroke-width:0.8;" x="822.6" xlink:href="#maca5ef3c93" y="111.375799"/>
      </g>
     </g>
     <g id="text_48">
      <!-- 3500 -->
      <g transform="translate(790.15 115.175017)scale(0.1 -0.1)">
       <use xlink:href="#DejaVuSans-33"/>
       <use x="63.623047" xlink:href="#DejaVuSans-35"/>
       <use x="127.246094" xlink:href="#DejaVuSans-30"/>
       <use x="190.869141" xlink:href="#DejaVuSans-30"/>
      </g>
     </g>
    </g>
   </g>
   <g id="line2d_49">
    <path clip-path="url(#pe44a7ebcc1)" d="M 835.281818 469.934534 
L 843.736364 522.0288 
L 852.190909 501.848138 
L 860.645455 479.790206 
L 869.1 460.235301 
L 877.554545 442.401228 
L 886.009091 420.186856 
L 894.463636 404.542932 
L 902.918182 342.905872 
L 911.372727 336.648302 
L 919.827273 299.102885 
L 928.281818 258.741561 
L 936.736364 240.281731 
L 945.190909 195.070791 
L 953.645455 187.561708 
L 962.1 129.835629 
L 970.554545 158.933327 
L 979.009091 143.445842 
L 987.463636 94.6368 
L 995.918182 95.575435 
L 1004.372727 128.896993 
L 1012.827273 139.378422 
L 1021.281818 187.09239 
L 1029.736364 207.116613 
L 1038.190909 262.808982 
L 1046.645455 326.949069 
L 1055.1 370.126299 
L 1063.554545 426.287986 
L 1072.009091 451.318264 
L 1080.463636 489.645878 
L 1088.918182 512.486006 
" style="fill:none;stroke:#1f77b4;stroke-linecap:square;stroke-width:1.5;"/>
   </g>
   <g id="line2d_50">
    <path clip-path="url(#pe44a7ebcc1)" d="M 835.281818 514.061222 
L 838.582391 512.058916 
L 841.629075 509.952551 
L 844.675758 507.573142 
L 847.722441 504.895021 
L 850.515233 502.155021 
L 853.308026 499.12083 
L 856.100819 495.771272 
L 858.893612 492.085102 
L 861.686405 488.041235 
L 864.479197 483.619004 
L 867.27199 478.798437 
L 870.064783 473.560563 
L 873.111466 467.349891 
L 876.158149 460.601009 
L 879.204832 453.296225 
L 882.251515 445.421345 
L 885.552088 436.235265 
L 888.852662 426.361658 
L 892.153235 415.801108 
L 895.707699 403.670055 
L 899.516052 389.825112 
L 903.324406 375.146337 
L 907.640541 357.580391 
L 912.210565 338.031239 
L 917.54226 314.22386 
L 924.905078 280.205547 
L 936.83792 224.98844 
L 941.915725 202.621299 
L 945.977969 185.674652 
L 949.532432 171.741185 
L 952.833006 159.693854 
L 955.879689 149.440879 
L 958.672482 140.852043 
L 961.211384 133.771404 
L 963.496396 128.028829 
L 965.781409 122.913425 
L 967.812531 118.91419 
L 969.589762 115.851287 
L 971.366994 113.205858 
L 973.144226 110.986262 
L 974.667568 109.428056 
L 976.190909 108.191548 
L 977.46036 107.408981 
L 978.729812 106.853117 
L 979.999263 106.524864 
L 981.268714 106.424759 
L 982.538165 106.552964 
L 983.807617 106.909271 
L 985.077068 107.493097 
L 986.346519 108.30349 
L 987.869861 109.573144 
L 989.393202 111.164156 
L 990.916544 113.072807 
L 992.693776 115.695049 
L 994.471007 118.735258 
L 996.502129 122.709248 
L 998.533251 127.200383 
L 1000.818264 132.848304 
L 1003.103276 139.098896 
L 1005.642179 146.712477 
L 1008.434971 155.845985 
L 1011.481654 166.639818 
L 1014.782228 179.206429 
L 1018.336691 193.617987 
L 1022.652826 212.118848 
L 1027.730631 234.921446 
L 1035.601229 271.446019 
L 1045.756839 318.386266 
L 1051.342424 343.128205 
L 1056.166339 363.485905 
L 1060.482473 380.735717 
L 1064.544717 396.036921 
L 1068.353071 409.499291 
L 1071.907535 421.26069 
L 1075.461998 432.229223 
L 1078.762572 441.69966 
L 1082.063145 450.485647 
L 1085.109828 457.997288 
L 1088.156511 464.947405 
L 1088.918182 466.599055 
L 1088.918182 466.599055 
" style="fill:none;stroke:#ff7f0e;stroke-linecap:square;stroke-width:1.5;"/>
   </g>
   <g id="patch_15">
    <path d="M 822.6 543.3984 
L 822.6 73.2672 
" style="fill:none;stroke:#000000;stroke-linecap:square;stroke-linejoin:miter;stroke-width:0.8;"/>
   </g>
   <g id="patch_16">
    <path d="M 1101.6 543.3984 
L 1101.6 73.2672 
" style="fill:none;stroke:#000000;stroke-linecap:square;stroke-linejoin:miter;stroke-width:0.8;"/>
   </g>
   <g id="patch_17">
    <path d="M 822.6 543.3984 
L 1101.6 543.3984 
" style="fill:none;stroke:#000000;stroke-linecap:square;stroke-linejoin:miter;stroke-width:0.8;"/>
   </g>
   <g id="patch_18">
    <path d="M 822.6 73.2672 
L 1101.6 73.2672 
" style="fill:none;stroke:#000000;stroke-linecap:square;stroke-linejoin:miter;stroke-width:0.8;"/>
   </g>
   <g id="text_49">
    <g id="patch_19">
     <path d="M 836.55 152.32401 
L 930.36 152.32401 
Q 933.96 152.32401 933.96 148.72401 
L 933.96 96.77376 
Q 933.96 93.17376 930.36 93.17376 
L 836.55 93.17376 
Q 832.95 93.17376 832.95 96.77376 
L 832.95 148.72401 
Q 832.95 152.32401 836.55 152.32401 
z
" style="fill:#f5deb3;opacity:0.5;stroke:#000000;stroke-linejoin:miter;"/>
    </g>
    <!-- a=51.759 -->
    <g transform="translate(836.55 105.891885)scale(0.12 -0.12)">
     <use xlink:href="#DejaVuSans-61"/>
     <use x="61.279297" xlink:href="#DejaVuSans-3d"/>
     <use x="145.068359" xlink:href="#DejaVuSans-35"/>
     <use x="208.691406" xlink:href="#DejaVuSans-31"/>
     <use x="272.314453" xlink:href="#DejaVuSans-2e"/>
     <use x="304.101562" xlink:href="#DejaVuSans-37"/>
     <use x="367.724609" xlink:href="#DejaVuSans-35"/>
     <use x="431.347656" xlink:href="#DejaVuSans-39"/>
    </g>
    <!-- $\mu$=47.976 -->
    <g transform="translate(836.55 119.32926)scale(0.12 -0.12)">
     <use transform="translate(0 0.78125)" xlink:href="#DejaVuSans-Oblique-3bc"/>
     <use transform="translate(63.623047 0.78125)" xlink:href="#DejaVuSans-3d"/>
     <use transform="translate(147.412109 0.78125)" xlink:href="#DejaVuSans-34"/>
     <use transform="translate(211.035156 0.78125)" xlink:href="#DejaVuSans-37"/>
     <use transform="translate(274.658203 0.78125)" xlink:href="#DejaVuSans-2e"/>
     <use transform="translate(306.445312 0.78125)" xlink:href="#DejaVuSans-39"/>
     <use transform="translate(370.068359 0.78125)" xlink:href="#DejaVuSans-37"/>
     <use transform="translate(433.691406 0.78125)" xlink:href="#DejaVuSans-36"/>
    </g>
    <!-- $\sigma$=1.0721 -->
    <g transform="translate(836.55 132.79101)scale(0.12 -0.12)">
     <use transform="translate(0 0.78125)" xlink:href="#DejaVuSans-Oblique-3c3"/>
     <use transform="translate(63.378906 0.78125)" xlink:href="#DejaVuSans-3d"/>
     <use transform="translate(147.167969 0.78125)" xlink:href="#DejaVuSans-31"/>
     <use transform="translate(210.791016 0.78125)" xlink:href="#DejaVuSans-2e"/>
     <use transform="translate(242.578125 0.78125)" xlink:href="#DejaVuSans-30"/>
     <use transform="translate(306.201172 0.78125)" xlink:href="#DejaVuSans-37"/>
     <use transform="translate(369.824219 0.78125)" xlink:href="#DejaVuSans-32"/>
     <use transform="translate(433.447266 0.78125)" xlink:href="#DejaVuSans-31"/>
    </g>
    <!-- offset=852.650 -->
    <g transform="translate(836.55 146.228385)scale(0.12 -0.12)">
     <use xlink:href="#DejaVuSans-6f"/>
     <use x="61.181641" xlink:href="#DejaVuSans-66"/>
     <use x="96.386719" xlink:href="#DejaVuSans-66"/>
     <use x="131.591797" xlink:href="#DejaVuSans-73"/>
     <use x="183.691406" xlink:href="#DejaVuSans-65"/>
     <use x="245.214844" xlink:href="#DejaVuSans-74"/>
     <use x="284.423828" xlink:href="#DejaVuSans-3d"/>
     <use x="368.212891" xlink:href="#DejaVuSans-38"/>
     <use x="431.835938" xlink:href="#DejaVuSans-35"/>
     <use x="495.458984" xlink:href="#DejaVuSans-32"/>
     <use x="559.082031" xlink:href="#DejaVuSans-2e"/>
     <use x="590.869141" xlink:href="#DejaVuSans-36"/>
     <use x="654.492188" xlink:href="#DejaVuSans-35"/>
     <use x="718.115234" xlink:href="#DejaVuSans-30"/>
    </g>
   </g>
   <g id="text_50">
    <!-- Z Axis -->
    <defs>
     <path d="M 5.609375 72.90625 
L 62.890625 72.90625 
L 62.890625 65.375 
L 16.796875 8.296875 
L 64.015625 8.296875 
L 64.015625 0 
L 4.5 0 
L 4.5 7.515625 
L 50.59375 64.59375 
L 5.609375 64.59375 
z
" id="DejaVuSans-5a"/>
    </defs>
    <g transform="translate(943.635 67.2672)scale(0.12 -0.12)">
     <use xlink:href="#DejaVuSans-5a"/>
     <use x="68.505859" xlink:href="#DejaVuSans-20"/>
     <use x="100.292969" xlink:href="#DejaVuSans-41"/>
     <use x="168.701172" xlink:href="#DejaVuSans-78"/>
     <use x="227.880859" xlink:href="#DejaVuSans-69"/>
     <use x="255.664062" xlink:href="#DejaVuSans-73"/>
    </g>
   </g>
  </g>
 </g>
 <defs>
  <clipPath id="p7fd60678cc">
   <rect height="470.1312" width="279" x="153" y="73.2672"/>
  </clipPath>
  <clipPath id="pe2f0bce341">
   <rect height="470.1312" width="279" x="487.8" y="73.2672"/>
  </clipPath>
  <clipPath id="pe44a7ebcc1">
   <rect height="470.1312" width="279" x="822.6" y="73.2672"/>
  </clipPath>
 </defs>
</svg>
