<?xml version="1.0" encoding="utf-8" standalone="no"?>
<!DOCTYPE svg PUBLIC "-//W3C//DTD SVG 1.1//EN"
  "http://www.w3.org/Graphics/SVG/1.1/DTD/svg11.dtd">
<!-- Created with matplotlib (http://matplotlib.org/) -->
<svg height="610.56pt" version="1.1" viewBox="0 0 1224 610.56" width="1224pt" xmlns="http://www.w3.org/2000/svg" xmlns:xlink="http://www.w3.org/1999/xlink">
 <defs>
  <style type="text/css">
*{stroke-linecap:butt;stroke-linejoin:round;}
  </style>
 </defs>
 <g id="figure_1">
  <g id="patch_1">
   <path d="M 0 610.56 
L 1224 610.56 
L 1224 0 
L 0 0 
z
" style="fill:#ffffff;"/>
  </g>
  <g id="axes_1">
   <g id="patch_2">
    <path d="M 153 543.3984 
L 432 543.3984 
L 432 73.2672 
L 153 73.2672 
z
" style="fill:#ffffff;"/>
   </g>
   <g id="matplotlib.axis_1">
    <g id="xtick_1">
     <g id="line2d_1">
      <defs>
       <path d="M 0 0 
L 0 3.5 
" id="mef9a5c7ecd" style="stroke:#000000;stroke-width:0.8;"/>
      </defs>
      <g>
       <use style="stroke:#000000;stroke-width:0.8;" x="155.536364" xlink:href="#mef9a5c7ecd" y="543.3984"/>
      </g>
     </g>
     <g id="text_1">
      <!-- −0.04 -->
      <defs>
       <path d="M 10.59375 35.5 
L 73.1875 35.5 
L 73.1875 27.203125 
L 10.59375 27.203125 
z
" id="DejaVuSans-2212"/>
       <path d="M 31.78125 66.40625 
Q 24.171875 66.40625 20.328125 58.90625 
Q 16.5 51.421875 16.5 36.375 
Q 16.5 21.390625 20.328125 13.890625 
Q 24.171875 6.390625 31.78125 6.390625 
Q 39.453125 6.390625 43.28125 13.890625 
Q 47.125 21.390625 47.125 36.375 
Q 47.125 51.421875 43.28125 58.90625 
Q 39.453125 66.40625 31.78125 66.40625 
z
M 31.78125 74.21875 
Q 44.046875 74.21875 50.515625 64.515625 
Q 56.984375 54.828125 56.984375 36.375 
Q 56.984375 17.96875 50.515625 8.265625 
Q 44.046875 -1.421875 31.78125 -1.421875 
Q 19.53125 -1.421875 13.0625 8.265625 
Q 6.59375 17.96875 6.59375 36.375 
Q 6.59375 54.828125 13.0625 64.515625 
Q 19.53125 74.21875 31.78125 74.21875 
z
" id="DejaVuSans-30"/>
       <path d="M 10.6875 12.40625 
L 21 12.40625 
L 21 0 
L 10.6875 0 
z
" id="DejaVuSans-2e"/>
       <path d="M 37.796875 64.3125 
L 12.890625 25.390625 
L 37.796875 25.390625 
z
M 35.203125 72.90625 
L 47.609375 72.90625 
L 47.609375 25.390625 
L 58.015625 25.390625 
L 58.015625 17.1875 
L 47.609375 17.1875 
L 47.609375 0 
L 37.796875 0 
L 37.796875 17.1875 
L 4.890625 17.1875 
L 4.890625 26.703125 
z
" id="DejaVuSans-34"/>
      </defs>
      <g transform="translate(140.213707 557.996838)scale(0.1 -0.1)">
       <use xlink:href="#DejaVuSans-2212"/>
       <use x="83.789062" xlink:href="#DejaVuSans-30"/>
       <use x="147.412109" xlink:href="#DejaVuSans-2e"/>
       <use x="179.199219" xlink:href="#DejaVuSans-30"/>
       <use x="242.822266" xlink:href="#DejaVuSans-34"/>
      </g>
     </g>
    </g>
    <g id="xtick_2">
     <g id="line2d_2">
      <g>
       <use style="stroke:#000000;stroke-width:0.8;" x="206.263636" xlink:href="#mef9a5c7ecd" y="543.3984"/>
      </g>
     </g>
     <g id="text_2">
      <!-- −0.03 -->
      <defs>
       <path d="M 40.578125 39.3125 
Q 47.65625 37.796875 51.625 33 
Q 55.609375 28.21875 55.609375 21.1875 
Q 55.609375 10.40625 48.1875 4.484375 
Q 40.765625 -1.421875 27.09375 -1.421875 
Q 22.515625 -1.421875 17.65625 -0.515625 
Q 12.796875 0.390625 7.625 2.203125 
L 7.625 11.71875 
Q 11.71875 9.328125 16.59375 8.109375 
Q 21.484375 6.890625 26.8125 6.890625 
Q 36.078125 6.890625 40.9375 10.546875 
Q 45.796875 14.203125 45.796875 21.1875 
Q 45.796875 27.640625 41.28125 31.265625 
Q 36.765625 34.90625 28.71875 34.90625 
L 20.21875 34.90625 
L 20.21875 43.015625 
L 29.109375 43.015625 
Q 36.375 43.015625 40.234375 45.921875 
Q 44.09375 48.828125 44.09375 54.296875 
Q 44.09375 59.90625 40.109375 62.90625 
Q 36.140625 65.921875 28.71875 65.921875 
Q 24.65625 65.921875 20.015625 65.03125 
Q 15.375 64.15625 9.8125 62.3125 
L 9.8125 71.09375 
Q 15.4375 72.65625 20.34375 73.4375 
Q 25.25 74.21875 29.59375 74.21875 
Q 40.828125 74.21875 47.359375 69.109375 
Q 53.90625 64.015625 53.90625 55.328125 
Q 53.90625 49.265625 50.4375 45.09375 
Q 46.96875 40.921875 40.578125 39.3125 
z
" id="DejaVuSans-33"/>
      </defs>
      <g transform="translate(190.94098 557.996838)scale(0.1 -0.1)">
       <use xlink:href="#DejaVuSans-2212"/>
       <use x="83.789062" xlink:href="#DejaVuSans-30"/>
       <use x="147.412109" xlink:href="#DejaVuSans-2e"/>
       <use x="179.199219" xlink:href="#DejaVuSans-30"/>
       <use x="242.822266" xlink:href="#DejaVuSans-33"/>
      </g>
     </g>
    </g>
    <g id="xtick_3">
     <g id="line2d_3">
      <g>
       <use style="stroke:#000000;stroke-width:0.8;" x="256.990909" xlink:href="#mef9a5c7ecd" y="543.3984"/>
      </g>
     </g>
     <g id="text_3">
      <!-- −0.02 -->
      <defs>
       <path d="M 19.1875 8.296875 
L 53.609375 8.296875 
L 53.609375 0 
L 7.328125 0 
L 7.328125 8.296875 
Q 12.9375 14.109375 22.625 23.890625 
Q 32.328125 33.6875 34.8125 36.53125 
Q 39.546875 41.84375 41.421875 45.53125 
Q 43.3125 49.21875 43.3125 52.78125 
Q 43.3125 58.59375 39.234375 62.25 
Q 35.15625 65.921875 28.609375 65.921875 
Q 23.96875 65.921875 18.8125 64.3125 
Q 13.671875 62.703125 7.8125 59.421875 
L 7.8125 69.390625 
Q 13.765625 71.78125 18.9375 73 
Q 24.125 74.21875 28.421875 74.21875 
Q 39.75 74.21875 46.484375 68.546875 
Q 53.21875 62.890625 53.21875 53.421875 
Q 53.21875 48.921875 51.53125 44.890625 
Q 49.859375 40.875 45.40625 35.40625 
Q 44.1875 33.984375 37.640625 27.21875 
Q 31.109375 20.453125 19.1875 8.296875 
z
" id="DejaVuSans-32"/>
      </defs>
      <g transform="translate(241.668253 557.996838)scale(0.1 -0.1)">
       <use xlink:href="#DejaVuSans-2212"/>
       <use x="83.789062" xlink:href="#DejaVuSans-30"/>
       <use x="147.412109" xlink:href="#DejaVuSans-2e"/>
       <use x="179.199219" xlink:href="#DejaVuSans-30"/>
       <use x="242.822266" xlink:href="#DejaVuSans-32"/>
      </g>
     </g>
    </g>
    <g id="xtick_4">
     <g id="line2d_4">
      <g>
       <use style="stroke:#000000;stroke-width:0.8;" x="307.718182" xlink:href="#mef9a5c7ecd" y="543.3984"/>
      </g>
     </g>
     <g id="text_4">
      <!-- −0.01 -->
      <defs>
       <path d="M 12.40625 8.296875 
L 28.515625 8.296875 
L 28.515625 63.921875 
L 10.984375 60.40625 
L 10.984375 69.390625 
L 28.421875 72.90625 
L 38.28125 72.90625 
L 38.28125 8.296875 
L 54.390625 8.296875 
L 54.390625 0 
L 12.40625 0 
z
" id="DejaVuSans-31"/>
      </defs>
      <g transform="translate(292.395526 557.996838)scale(0.1 -0.1)">
       <use xlink:href="#DejaVuSans-2212"/>
       <use x="83.789062" xlink:href="#DejaVuSans-30"/>
       <use x="147.412109" xlink:href="#DejaVuSans-2e"/>
       <use x="179.199219" xlink:href="#DejaVuSans-30"/>
       <use x="242.822266" xlink:href="#DejaVuSans-31"/>
      </g>
     </g>
    </g>
    <g id="xtick_5">
     <g id="line2d_5">
      <g>
       <use style="stroke:#000000;stroke-width:0.8;" x="358.445455" xlink:href="#mef9a5c7ecd" y="543.3984"/>
      </g>
     </g>
     <g id="text_5">
      <!-- 0.00 -->
      <g transform="translate(347.312642 557.996838)scale(0.1 -0.1)">
       <use xlink:href="#DejaVuSans-30"/>
       <use x="63.623047" xlink:href="#DejaVuSans-2e"/>
       <use x="95.410156" xlink:href="#DejaVuSans-30"/>
       <use x="159.033203" xlink:href="#DejaVuSans-30"/>
      </g>
     </g>
    </g>
    <g id="xtick_6">
     <g id="line2d_6">
      <g>
       <use style="stroke:#000000;stroke-width:0.8;" x="409.172727" xlink:href="#mef9a5c7ecd" y="543.3984"/>
      </g>
     </g>
     <g id="text_6">
      <!-- 0.01 -->
      <g transform="translate(398.039915 557.996838)scale(0.1 -0.1)">
       <use xlink:href="#DejaVuSans-30"/>
       <use x="63.623047" xlink:href="#DejaVuSans-2e"/>
       <use x="95.410156" xlink:href="#DejaVuSans-30"/>
       <use x="159.033203" xlink:href="#DejaVuSans-31"/>
      </g>
     </g>
    </g>
   </g>
   <g id="matplotlib.axis_2">
    <g id="ytick_1">
     <g id="line2d_7">
      <defs>
       <path d="M 0 0 
L -3.5 0 
" id="m60f06f19c9" style="stroke:#000000;stroke-width:0.8;"/>
      </defs>
      <g>
       <use style="stroke:#000000;stroke-width:0.8;" x="153" xlink:href="#m60f06f19c9" y="541.237429"/>
      </g>
     </g>
     <g id="text_7">
      <!-- 25 -->
      <defs>
       <path d="M 10.796875 72.90625 
L 49.515625 72.90625 
L 49.515625 64.59375 
L 19.828125 64.59375 
L 19.828125 46.734375 
Q 21.96875 47.46875 24.109375 47.828125 
Q 26.265625 48.1875 28.421875 48.1875 
Q 40.625 48.1875 47.75 41.5 
Q 54.890625 34.8125 54.890625 23.390625 
Q 54.890625 11.625 47.5625 5.09375 
Q 40.234375 -1.421875 26.90625 -1.421875 
Q 22.3125 -1.421875 17.546875 -0.640625 
Q 12.796875 0.140625 7.71875 1.703125 
L 7.71875 11.625 
Q 12.109375 9.234375 16.796875 8.0625 
Q 21.484375 6.890625 26.703125 6.890625 
Q 35.15625 6.890625 40.078125 11.328125 
Q 45.015625 15.765625 45.015625 23.390625 
Q 45.015625 31 40.078125 35.4375 
Q 35.15625 39.890625 26.703125 39.890625 
Q 22.75 39.890625 18.8125 39.015625 
Q 14.890625 38.140625 10.796875 36.28125 
z
" id="DejaVuSans-35"/>
      </defs>
      <g transform="translate(133.275 545.036648)scale(0.1 -0.1)">
       <use xlink:href="#DejaVuSans-32"/>
       <use x="63.623047" xlink:href="#DejaVuSans-35"/>
      </g>
     </g>
    </g>
    <g id="ytick_2">
     <g id="line2d_8">
      <g>
       <use style="stroke:#000000;stroke-width:0.8;" x="153" xlink:href="#m60f06f19c9" y="481.210463"/>
      </g>
     </g>
     <g id="text_8">
      <!-- 50 -->
      <g transform="translate(133.275 485.009682)scale(0.1 -0.1)">
       <use xlink:href="#DejaVuSans-35"/>
       <use x="63.623047" xlink:href="#DejaVuSans-30"/>
      </g>
     </g>
    </g>
    <g id="ytick_3">
     <g id="line2d_9">
      <g>
       <use style="stroke:#000000;stroke-width:0.8;" x="153" xlink:href="#m60f06f19c9" y="421.183497"/>
      </g>
     </g>
     <g id="text_9">
      <!-- 75 -->
      <defs>
       <path d="M 8.203125 72.90625 
L 55.078125 72.90625 
L 55.078125 68.703125 
L 28.609375 0 
L 18.3125 0 
L 43.21875 64.59375 
L 8.203125 64.59375 
z
" id="DejaVuSans-37"/>
      </defs>
      <g transform="translate(133.275 424.982715)scale(0.1 -0.1)">
       <use xlink:href="#DejaVuSans-37"/>
       <use x="63.623047" xlink:href="#DejaVuSans-35"/>
      </g>
     </g>
    </g>
    <g id="ytick_4">
     <g id="line2d_10">
      <g>
       <use style="stroke:#000000;stroke-width:0.8;" x="153" xlink:href="#m60f06f19c9" y="361.15653"/>
      </g>
     </g>
     <g id="text_10">
      <!-- 100 -->
      <g transform="translate(126.9125 364.955749)scale(0.1 -0.1)">
       <use xlink:href="#DejaVuSans-31"/>
       <use x="63.623047" xlink:href="#DejaVuSans-30"/>
       <use x="127.246094" xlink:href="#DejaVuSans-30"/>
      </g>
     </g>
    </g>
    <g id="ytick_5">
     <g id="line2d_11">
      <g>
       <use style="stroke:#000000;stroke-width:0.8;" x="153" xlink:href="#m60f06f19c9" y="301.129564"/>
      </g>
     </g>
     <g id="text_11">
      <!-- 125 -->
      <g transform="translate(126.9125 304.928783)scale(0.1 -0.1)">
       <use xlink:href="#DejaVuSans-31"/>
       <use x="63.623047" xlink:href="#DejaVuSans-32"/>
       <use x="127.246094" xlink:href="#DejaVuSans-35"/>
      </g>
     </g>
    </g>
    <g id="ytick_6">
     <g id="line2d_12">
      <g>
       <use style="stroke:#000000;stroke-width:0.8;" x="153" xlink:href="#m60f06f19c9" y="241.102598"/>
      </g>
     </g>
     <g id="text_12">
      <!-- 150 -->
      <g transform="translate(126.9125 244.901817)scale(0.1 -0.1)">
       <use xlink:href="#DejaVuSans-31"/>
       <use x="63.623047" xlink:href="#DejaVuSans-35"/>
       <use x="127.246094" xlink:href="#DejaVuSans-30"/>
      </g>
     </g>
    </g>
    <g id="ytick_7">
     <g id="line2d_13">
      <g>
       <use style="stroke:#000000;stroke-width:0.8;" x="153" xlink:href="#m60f06f19c9" y="181.075631"/>
      </g>
     </g>
     <g id="text_13">
      <!-- 175 -->
      <g transform="translate(126.9125 184.87485)scale(0.1 -0.1)">
       <use xlink:href="#DejaVuSans-31"/>
       <use x="63.623047" xlink:href="#DejaVuSans-37"/>
       <use x="127.246094" xlink:href="#DejaVuSans-35"/>
      </g>
     </g>
    </g>
    <g id="ytick_8">
     <g id="line2d_14">
      <g>
       <use style="stroke:#000000;stroke-width:0.8;" x="153" xlink:href="#m60f06f19c9" y="121.048665"/>
      </g>
     </g>
     <g id="text_14">
      <!-- 200 -->
      <g transform="translate(126.9125 124.847884)scale(0.1 -0.1)">
       <use xlink:href="#DejaVuSans-32"/>
       <use x="63.623047" xlink:href="#DejaVuSans-30"/>
       <use x="127.246094" xlink:href="#DejaVuSans-30"/>
      </g>
     </g>
    </g>
   </g>
   <g id="line2d_15">
    <path clip-path="url(#p48e364ed39)" d="M 165.681818 519.627721 
L 169.909091 500.419092 
L 174.136364 483.611542 
L 178.363636 498.018013 
L 182.590909 500.419092 
L 186.818182 500.419092 
L 191.045455 488.413699 
L 195.272727 493.215856 
L 199.5 486.01262 
L 203.727273 522.0288 
L 207.954545 502.820171 
L 212.181818 481.210463 
L 216.409091 493.215856 
L 220.636364 445.194283 
L 224.863636 469.20507 
L 229.090909 486.01262 
L 233.318182 500.419092 
L 237.545455 486.01262 
L 241.772727 449.99644 
L 246 462.001834 
L 250.227273 425.985654 
L 254.454545 404.375946 
L 258.681818 313.134957 
L 262.909091 250.706912 
L 267.136364 209.888575 
L 271.363636 94.6368 
L 275.590909 169.070238 
L 279.818182 243.503676 
L 284.045455 238.701519 
L 288.272727 308.3328 
L 292.5 317.937115 
L 296.727273 380.36516 
L 300.954545 449.99644 
L 305.181818 452.397519 
L 309.409091 440.392126 
L 313.636364 435.589969 
L 317.863636 433.18889 
L 322.090909 440.392126 
L 326.318182 401.974867 
L 330.545455 435.589969 
L 334.772727 464.402912 
L 339 435.589969 
L 343.227273 437.991047 
L 347.454545 430.787811 
L 351.681818 411.579182 
L 355.909091 449.99644 
L 360.136364 478.809384 
L 364.363636 457.199676 
L 368.590909 457.199676 
L 372.818182 449.99644 
L 377.045455 498.018013 
L 381.272727 488.413699 
L 385.5 490.814778 
L 389.727273 490.814778 
L 393.954545 483.611542 
L 398.181818 445.194283 
L 402.409091 476.408306 
L 406.636364 478.809384 
L 410.863636 507.622328 
L 415.090909 514.825564 
L 419.318182 500.419092 
" style="fill:none;stroke:#1f77b4;stroke-linecap:square;stroke-width:1.5;"/>
   </g>
   <g id="line2d_16">
    <path clip-path="url(#p48e364ed39)" d="M 165.681818 473.826993 
L 222.299345 473.722637 
L 226.361589 473.478564 
L 228.900491 473.122761 
L 230.931613 472.624147 
L 232.708845 471.943773 
L 234.232187 471.102501 
L 235.501638 470.159572 
L 236.771089 468.937391 
L 238.040541 467.370097 
L 239.309992 465.381761 
L 240.579443 462.886498 
L 241.848894 459.789165 
L 243.118346 455.986766 
L 244.387797 451.370682 
L 245.657248 445.829833 
L 246.926699 439.254785 
L 248.196151 431.542825 
L 249.465602 422.603875 
L 250.988943 410.159544 
L 252.512285 395.776625 
L 254.289517 376.552334 
L 256.066749 354.849154 
L 258.351761 323.880965 
L 261.906224 271.797987 
L 264.952907 228.117561 
L 266.730139 205.331025 
L 268.253481 188.424339 
L 269.522932 176.674408 
L 270.538493 169.037669 
L 271.554054 163.116427 
L 272.315725 159.866505 
L 273.077396 157.675318 
L 273.585176 156.814295 
L 274.092957 156.438018 
L 274.346847 156.432287 
L 274.854627 156.785671 
L 275.362408 157.623933 
L 275.870188 158.943224 
L 276.631859 161.810286 
L 277.39353 165.716179 
L 278.409091 172.469895 
L 279.424652 180.878047 
L 280.694103 193.487761 
L 282.217445 211.248126 
L 283.994676 234.758332 
L 286.787469 275.206585 
L 291.103604 337.685617 
L 293.388616 367.248769 
L 295.165848 387.598665 
L 296.943079 405.361293 
L 298.466421 418.477493 
L 299.989762 429.694301 
L 301.513104 439.120302 
L 302.782555 445.71585 
L 304.052007 451.275185 
L 305.321458 455.907664 
L 306.590909 459.724376 
L 307.86036 462.834019 
L 309.129812 465.339719 
L 310.399263 467.336782 
L 311.668714 468.911275 
L 312.938165 470.139318 
L 314.207617 471.086959 
L 315.730958 471.93262 
L 317.2543 472.535236 
L 319.031532 473.014898 
L 321.316544 473.39203 
L 324.363227 473.646719 
L 329.187142 473.787068 
L 341.119984 473.826464 
L 419.318182 473.826993 
L 419.318182 473.826993 
" style="fill:none;stroke:#ff7f0e;stroke-linecap:square;stroke-width:1.5;"/>
   </g>
   <g id="patch_3">
    <path d="M 153 543.3984 
L 153 73.2672 
" style="fill:none;stroke:#000000;stroke-linecap:square;stroke-linejoin:miter;stroke-width:0.8;"/>
   </g>
   <g id="patch_4">
    <path d="M 432 543.3984 
L 432 73.2672 
" style="fill:none;stroke:#000000;stroke-linecap:square;stroke-linejoin:miter;stroke-width:0.8;"/>
   </g>
   <g id="patch_5">
    <path d="M 153 543.3984 
L 432 543.3984 
" style="fill:none;stroke:#000000;stroke-linecap:square;stroke-linejoin:miter;stroke-width:0.8;"/>
   </g>
   <g id="patch_6">
    <path d="M 153 73.2672 
L 432 73.2672 
" style="fill:none;stroke:#000000;stroke-linecap:square;stroke-linejoin:miter;stroke-width:0.8;"/>
   </g>
   <g id="text_15">
    <g id="patch_7">
     <path d="M 166.95 152.32401 
L 253.125 152.32401 
Q 256.725 152.32401 256.725 148.72401 
L 256.725 96.77376 
Q 256.725 93.17376 253.125 93.17376 
L 166.95 93.17376 
Q 163.35 93.17376 163.35 96.77376 
L 163.35 148.72401 
Q 163.35 152.32401 166.95 152.32401 
z
" style="fill:#f5deb3;opacity:0.5;stroke:#000000;stroke-linejoin:miter;"/>
    </g>
    <!-- a=11.498 -->
    <defs>
     <path d="M 34.28125 27.484375 
Q 23.390625 27.484375 19.1875 25 
Q 14.984375 22.515625 14.984375 16.5 
Q 14.984375 11.71875 18.140625 8.90625 
Q 21.296875 6.109375 26.703125 6.109375 
Q 34.1875 6.109375 38.703125 11.40625 
Q 43.21875 16.703125 43.21875 25.484375 
L 43.21875 27.484375 
z
M 52.203125 31.203125 
L 52.203125 0 
L 43.21875 0 
L 43.21875 8.296875 
Q 40.140625 3.328125 35.546875 0.953125 
Q 30.953125 -1.421875 24.3125 -1.421875 
Q 15.921875 -1.421875 10.953125 3.296875 
Q 6 8.015625 6 15.921875 
Q 6 25.140625 12.171875 29.828125 
Q 18.359375 34.515625 30.609375 34.515625 
L 43.21875 34.515625 
L 43.21875 35.40625 
Q 43.21875 41.609375 39.140625 45 
Q 35.0625 48.390625 27.6875 48.390625 
Q 23 48.390625 18.546875 47.265625 
Q 14.109375 46.140625 10.015625 43.890625 
L 10.015625 52.203125 
Q 14.9375 54.109375 19.578125 55.046875 
Q 24.21875 56 28.609375 56 
Q 40.484375 56 46.34375 49.84375 
Q 52.203125 43.703125 52.203125 31.203125 
z
" id="DejaVuSans-61"/>
     <path d="M 10.59375 45.40625 
L 73.1875 45.40625 
L 73.1875 37.203125 
L 10.59375 37.203125 
z
M 10.59375 25.484375 
L 73.1875 25.484375 
L 73.1875 17.1875 
L 10.59375 17.1875 
z
" id="DejaVuSans-3d"/>
     <path d="M 10.984375 1.515625 
L 10.984375 10.5 
Q 14.703125 8.734375 18.5 7.8125 
Q 22.3125 6.890625 25.984375 6.890625 
Q 35.75 6.890625 40.890625 13.453125 
Q 46.046875 20.015625 46.78125 33.40625 
Q 43.953125 29.203125 39.59375 26.953125 
Q 35.25 24.703125 29.984375 24.703125 
Q 19.046875 24.703125 12.671875 31.3125 
Q 6.296875 37.9375 6.296875 49.421875 
Q 6.296875 60.640625 12.9375 67.421875 
Q 19.578125 74.21875 30.609375 74.21875 
Q 43.265625 74.21875 49.921875 64.515625 
Q 56.59375 54.828125 56.59375 36.375 
Q 56.59375 19.140625 48.40625 8.859375 
Q 40.234375 -1.421875 26.421875 -1.421875 
Q 22.703125 -1.421875 18.890625 -0.6875 
Q 15.09375 0.046875 10.984375 1.515625 
z
M 30.609375 32.421875 
Q 37.25 32.421875 41.125 36.953125 
Q 45.015625 41.5 45.015625 49.421875 
Q 45.015625 57.28125 41.125 61.84375 
Q 37.25 66.40625 30.609375 66.40625 
Q 23.96875 66.40625 20.09375 61.84375 
Q 16.21875 57.28125 16.21875 49.421875 
Q 16.21875 41.5 20.09375 36.953125 
Q 23.96875 32.421875 30.609375 32.421875 
z
" id="DejaVuSans-39"/>
     <path d="M 31.78125 34.625 
Q 24.75 34.625 20.71875 30.859375 
Q 16.703125 27.09375 16.703125 20.515625 
Q 16.703125 13.921875 20.71875 10.15625 
Q 24.75 6.390625 31.78125 6.390625 
Q 38.8125 6.390625 42.859375 10.171875 
Q 46.921875 13.96875 46.921875 20.515625 
Q 46.921875 27.09375 42.890625 30.859375 
Q 38.875 34.625 31.78125 34.625 
z
M 21.921875 38.8125 
Q 15.578125 40.375 12.03125 44.71875 
Q 8.5 49.078125 8.5 55.328125 
Q 8.5 64.0625 14.71875 69.140625 
Q 20.953125 74.21875 31.78125 74.21875 
Q 42.671875 74.21875 48.875 69.140625 
Q 55.078125 64.0625 55.078125 55.328125 
Q 55.078125 49.078125 51.53125 44.71875 
Q 48 40.375 41.703125 38.8125 
Q 48.828125 37.15625 52.796875 32.3125 
Q 56.78125 27.484375 56.78125 20.515625 
Q 56.78125 9.90625 50.3125 4.234375 
Q 43.84375 -1.421875 31.78125 -1.421875 
Q 19.734375 -1.421875 13.25 4.234375 
Q 6.78125 9.90625 6.78125 20.515625 
Q 6.78125 27.484375 10.78125 32.3125 
Q 14.796875 37.15625 21.921875 38.8125 
z
M 18.3125 54.390625 
Q 18.3125 48.734375 21.84375 45.5625 
Q 25.390625 42.390625 31.78125 42.390625 
Q 38.140625 42.390625 41.71875 45.5625 
Q 45.3125 48.734375 45.3125 54.390625 
Q 45.3125 60.0625 41.71875 63.234375 
Q 38.140625 66.40625 31.78125 66.40625 
Q 25.390625 66.40625 21.84375 63.234375 
Q 18.3125 60.0625 18.3125 54.390625 
z
" id="DejaVuSans-38"/>
    </defs>
    <g transform="translate(166.95 105.891885)scale(0.12 -0.12)">
     <use xlink:href="#DejaVuSans-61"/>
     <use x="61.279297" xlink:href="#DejaVuSans-3d"/>
     <use x="145.068359" xlink:href="#DejaVuSans-31"/>
     <use x="208.691406" xlink:href="#DejaVuSans-31"/>
     <use x="272.314453" xlink:href="#DejaVuSans-2e"/>
     <use x="304.101562" xlink:href="#DejaVuSans-34"/>
     <use x="367.724609" xlink:href="#DejaVuSans-39"/>
     <use x="431.347656" xlink:href="#DejaVuSans-38"/>
    </g>
    <!-- $\mu$=-0.017 -->
    <defs>
     <path d="M -1.3125 -20.796875 
L 13.375 54.6875 
L 22.40625 54.6875 
L 15.765625 20.65625 
Q 15.578125 19.625 15.421875 18.359375 
Q 15.28125 17.09375 15.28125 15.828125 
Q 15.28125 11.28125 18.140625 8.828125 
Q 21 6.390625 26.3125 6.390625 
Q 33.546875 6.390625 37.984375 10.484375 
Q 42.4375 14.59375 44 22.796875 
L 50.203125 54.6875 
L 59.1875 54.6875 
L 51.03125 12.640625 
Q 50.828125 11.71875 50.75 11.03125 
Q 50.6875 10.359375 50.6875 9.8125 
Q 50.6875 8.296875 51.296875 7.59375 
Q 51.90625 6.890625 53.21875 6.890625 
Q 53.71875 6.890625 54.5625 7.125 
Q 55.421875 7.375 56.984375 8.015625 
L 55.609375 0.78125 
Q 53.46875 -0.296875 51.515625 -0.859375 
Q 49.5625 -1.421875 47.703125 -1.421875 
Q 44.484375 -1.421875 42.65625 0.625 
Q 40.828125 2.6875 40.828125 6.296875 
Q 38.09375 2.390625 34.296875 0.484375 
Q 30.515625 -1.421875 25.390625 -1.421875 
Q 20.84375 -1.421875 17.453125 0.671875 
Q 14.0625 2.78125 12.984375 6.203125 
L 7.71875 -20.796875 
z
" id="DejaVuSans-Oblique-3bc"/>
     <path d="M 4.890625 31.390625 
L 31.203125 31.390625 
L 31.203125 23.390625 
L 4.890625 23.390625 
z
" id="DejaVuSans-2d"/>
    </defs>
    <g transform="translate(166.95 119.32926)scale(0.12 -0.12)">
     <use transform="translate(0 0.78125)" xlink:href="#DejaVuSans-Oblique-3bc"/>
     <use transform="translate(63.623047 0.78125)" xlink:href="#DejaVuSans-3d"/>
     <use transform="translate(147.412109 0.78125)" xlink:href="#DejaVuSans-2d"/>
     <use transform="translate(183.496094 0.78125)" xlink:href="#DejaVuSans-30"/>
     <use transform="translate(247.119141 0.78125)" xlink:href="#DejaVuSans-2e"/>
     <use transform="translate(278.90625 0.78125)" xlink:href="#DejaVuSans-30"/>
     <use transform="translate(342.529297 0.78125)" xlink:href="#DejaVuSans-31"/>
     <use transform="translate(406.152344 0.78125)" xlink:href="#DejaVuSans-37"/>
    </g>
    <!-- $\sigma$=0.0026 -->
    <defs>
     <path d="M 34.671875 47.5625 
Q 27.25 47.5625 22.21875 42.1875 
Q 16.890625 36.578125 15.140625 27.296875 
Q 13.1875 17.484375 16.3125 11.8125 
Q 19.390625 6.203125 26.65625 6.203125 
Q 33.84375 6.203125 39.109375 11.859375 
Q 44.4375 17.53125 46.34375 27.296875 
Q 48.046875 36.234375 45.015625 42.1875 
Q 42.1875 47.5625 34.671875 47.5625 
z
M 36.078125 54.734375 
L 65.921875 54.6875 
L 64.15625 45.703125 
L 54.109375 45.703125 
Q 57.90625 38.09375 55.859375 27.296875 
Q 53.21875 13.875 45.0625 6.25 
Q 36.859375 -1.421875 25.140625 -1.421875 
Q 13.375 -1.421875 8.203125 6.25 
Q 3.03125 13.875 5.671875 27.296875 
Q 8.25 40.765625 16.40625 48.390625 
Q 23.1875 54.734375 36.078125 54.734375 
z
" id="DejaVuSans-Oblique-3c3"/>
     <path d="M 33.015625 40.375 
Q 26.375 40.375 22.484375 35.828125 
Q 18.609375 31.296875 18.609375 23.390625 
Q 18.609375 15.53125 22.484375 10.953125 
Q 26.375 6.390625 33.015625 6.390625 
Q 39.65625 6.390625 43.53125 10.953125 
Q 47.40625 15.53125 47.40625 23.390625 
Q 47.40625 31.296875 43.53125 35.828125 
Q 39.65625 40.375 33.015625 40.375 
z
M 52.59375 71.296875 
L 52.59375 62.3125 
Q 48.875 64.0625 45.09375 64.984375 
Q 41.3125 65.921875 37.59375 65.921875 
Q 27.828125 65.921875 22.671875 59.328125 
Q 17.53125 52.734375 16.796875 39.40625 
Q 19.671875 43.65625 24.015625 45.921875 
Q 28.375 48.1875 33.59375 48.1875 
Q 44.578125 48.1875 50.953125 41.515625 
Q 57.328125 34.859375 57.328125 23.390625 
Q 57.328125 12.15625 50.6875 5.359375 
Q 44.046875 -1.421875 33.015625 -1.421875 
Q 20.359375 -1.421875 13.671875 8.265625 
Q 6.984375 17.96875 6.984375 36.375 
Q 6.984375 53.65625 15.1875 63.9375 
Q 23.390625 74.21875 37.203125 74.21875 
Q 40.921875 74.21875 44.703125 73.484375 
Q 48.484375 72.75 52.59375 71.296875 
z
" id="DejaVuSans-36"/>
    </defs>
    <g transform="translate(166.95 132.79101)scale(0.12 -0.12)">
     <use transform="translate(0 0.78125)" xlink:href="#DejaVuSans-Oblique-3c3"/>
     <use transform="translate(63.378906 0.78125)" xlink:href="#DejaVuSans-3d"/>
     <use transform="translate(147.167969 0.78125)" xlink:href="#DejaVuSans-30"/>
     <use transform="translate(210.791016 0.78125)" xlink:href="#DejaVuSans-2e"/>
     <use transform="translate(242.578125 0.78125)" xlink:href="#DejaVuSans-30"/>
     <use transform="translate(306.201172 0.78125)" xlink:href="#DejaVuSans-30"/>
     <use transform="translate(369.824219 0.78125)" xlink:href="#DejaVuSans-32"/>
     <use transform="translate(433.447266 0.78125)" xlink:href="#DejaVuSans-36"/>
    </g>
    <!-- offset=53.075 -->
    <defs>
     <path d="M 30.609375 48.390625 
Q 23.390625 48.390625 19.1875 42.75 
Q 14.984375 37.109375 14.984375 27.296875 
Q 14.984375 17.484375 19.15625 11.84375 
Q 23.34375 6.203125 30.609375 6.203125 
Q 37.796875 6.203125 41.984375 11.859375 
Q 46.1875 17.53125 46.1875 27.296875 
Q 46.1875 37.015625 41.984375 42.703125 
Q 37.796875 48.390625 30.609375 48.390625 
z
M 30.609375 56 
Q 42.328125 56 49.015625 48.375 
Q 55.71875 40.765625 55.71875 27.296875 
Q 55.71875 13.875 49.015625 6.21875 
Q 42.328125 -1.421875 30.609375 -1.421875 
Q 18.84375 -1.421875 12.171875 6.21875 
Q 5.515625 13.875 5.515625 27.296875 
Q 5.515625 40.765625 12.171875 48.375 
Q 18.84375 56 30.609375 56 
z
" id="DejaVuSans-6f"/>
     <path d="M 37.109375 75.984375 
L 37.109375 68.5 
L 28.515625 68.5 
Q 23.6875 68.5 21.796875 66.546875 
Q 19.921875 64.59375 19.921875 59.515625 
L 19.921875 54.6875 
L 34.71875 54.6875 
L 34.71875 47.703125 
L 19.921875 47.703125 
L 19.921875 0 
L 10.890625 0 
L 10.890625 47.703125 
L 2.296875 47.703125 
L 2.296875 54.6875 
L 10.890625 54.6875 
L 10.890625 58.5 
Q 10.890625 67.625 15.140625 71.796875 
Q 19.390625 75.984375 28.609375 75.984375 
z
" id="DejaVuSans-66"/>
     <path d="M 44.28125 53.078125 
L 44.28125 44.578125 
Q 40.484375 46.53125 36.375 47.5 
Q 32.28125 48.484375 27.875 48.484375 
Q 21.1875 48.484375 17.84375 46.4375 
Q 14.5 44.390625 14.5 40.28125 
Q 14.5 37.15625 16.890625 35.375 
Q 19.28125 33.59375 26.515625 31.984375 
L 29.59375 31.296875 
Q 39.15625 29.25 43.1875 25.515625 
Q 47.21875 21.78125 47.21875 15.09375 
Q 47.21875 7.46875 41.1875 3.015625 
Q 35.15625 -1.421875 24.609375 -1.421875 
Q 20.21875 -1.421875 15.453125 -0.5625 
Q 10.6875 0.296875 5.421875 2 
L 5.421875 11.28125 
Q 10.40625 8.6875 15.234375 7.390625 
Q 20.0625 6.109375 24.8125 6.109375 
Q 31.15625 6.109375 34.5625 8.28125 
Q 37.984375 10.453125 37.984375 14.40625 
Q 37.984375 18.0625 35.515625 20.015625 
Q 33.0625 21.96875 24.703125 23.78125 
L 21.578125 24.515625 
Q 13.234375 26.265625 9.515625 29.90625 
Q 5.8125 33.546875 5.8125 39.890625 
Q 5.8125 47.609375 11.28125 51.796875 
Q 16.75 56 26.8125 56 
Q 31.78125 56 36.171875 55.265625 
Q 40.578125 54.546875 44.28125 53.078125 
z
" id="DejaVuSans-73"/>
     <path d="M 56.203125 29.59375 
L 56.203125 25.203125 
L 14.890625 25.203125 
Q 15.484375 15.921875 20.484375 11.0625 
Q 25.484375 6.203125 34.421875 6.203125 
Q 39.59375 6.203125 44.453125 7.46875 
Q 49.3125 8.734375 54.109375 11.28125 
L 54.109375 2.78125 
Q 49.265625 0.734375 44.1875 -0.34375 
Q 39.109375 -1.421875 33.890625 -1.421875 
Q 20.796875 -1.421875 13.15625 6.1875 
Q 5.515625 13.8125 5.515625 26.8125 
Q 5.515625 40.234375 12.765625 48.109375 
Q 20.015625 56 32.328125 56 
Q 43.359375 56 49.78125 48.890625 
Q 56.203125 41.796875 56.203125 29.59375 
z
M 47.21875 32.234375 
Q 47.125 39.59375 43.09375 43.984375 
Q 39.0625 48.390625 32.421875 48.390625 
Q 24.90625 48.390625 20.390625 44.140625 
Q 15.875 39.890625 15.1875 32.171875 
z
" id="DejaVuSans-65"/>
     <path d="M 18.3125 70.21875 
L 18.3125 54.6875 
L 36.8125 54.6875 
L 36.8125 47.703125 
L 18.3125 47.703125 
L 18.3125 18.015625 
Q 18.3125 11.328125 20.140625 9.421875 
Q 21.96875 7.515625 27.59375 7.515625 
L 36.8125 7.515625 
L 36.8125 0 
L 27.59375 0 
Q 17.1875 0 13.234375 3.875 
Q 9.28125 7.765625 9.28125 18.015625 
L 9.28125 47.703125 
L 2.6875 47.703125 
L 2.6875 54.6875 
L 9.28125 54.6875 
L 9.28125 70.21875 
z
" id="DejaVuSans-74"/>
    </defs>
    <g transform="translate(166.95 146.228385)scale(0.12 -0.12)">
     <use xlink:href="#DejaVuSans-6f"/>
     <use x="61.181641" xlink:href="#DejaVuSans-66"/>
     <use x="96.386719" xlink:href="#DejaVuSans-66"/>
     <use x="131.591797" xlink:href="#DejaVuSans-73"/>
     <use x="183.691406" xlink:href="#DejaVuSans-65"/>
     <use x="245.214844" xlink:href="#DejaVuSans-74"/>
     <use x="284.423828" xlink:href="#DejaVuSans-3d"/>
     <use x="368.212891" xlink:href="#DejaVuSans-35"/>
     <use x="431.835938" xlink:href="#DejaVuSans-33"/>
     <use x="495.458984" xlink:href="#DejaVuSans-2e"/>
     <use x="527.246094" xlink:href="#DejaVuSans-30"/>
     <use x="590.869141" xlink:href="#DejaVuSans-37"/>
     <use x="654.492188" xlink:href="#DejaVuSans-35"/>
    </g>
   </g>
   <g id="text_16">
    <!-- X Axis -->
    <defs>
     <path d="M 6.296875 72.90625 
L 16.890625 72.90625 
L 35.015625 45.796875 
L 53.21875 72.90625 
L 63.8125 72.90625 
L 40.375 37.890625 
L 65.375 0 
L 54.78125 0 
L 34.28125 31 
L 13.625 0 
L 2.984375 0 
L 29 38.921875 
z
" id="DejaVuSans-58"/>
     <path id="DejaVuSans-20"/>
     <path d="M 34.1875 63.1875 
L 20.796875 26.90625 
L 47.609375 26.90625 
z
M 28.609375 72.90625 
L 39.796875 72.90625 
L 67.578125 0 
L 57.328125 0 
L 50.6875 18.703125 
L 17.828125 18.703125 
L 11.1875 0 
L 0.78125 0 
z
" id="DejaVuSans-41"/>
     <path d="M 54.890625 54.6875 
L 35.109375 28.078125 
L 55.90625 0 
L 45.3125 0 
L 29.390625 21.484375 
L 13.484375 0 
L 2.875 0 
L 24.125 28.609375 
L 4.6875 54.6875 
L 15.28125 54.6875 
L 29.78125 35.203125 
L 44.28125 54.6875 
z
" id="DejaVuSans-78"/>
     <path d="M 9.421875 54.6875 
L 18.40625 54.6875 
L 18.40625 0 
L 9.421875 0 
z
M 9.421875 75.984375 
L 18.40625 75.984375 
L 18.40625 64.59375 
L 9.421875 64.59375 
z
" id="DejaVuSans-69"/>
    </defs>
    <g transform="translate(274.035 67.2672)scale(0.12 -0.12)">
     <use xlink:href="#DejaVuSans-58"/>
     <use x="68.505859" xlink:href="#DejaVuSans-20"/>
     <use x="100.292969" xlink:href="#DejaVuSans-41"/>
     <use x="168.701172" xlink:href="#DejaVuSans-78"/>
     <use x="227.880859" xlink:href="#DejaVuSans-69"/>
     <use x="255.664062" xlink:href="#DejaVuSans-73"/>
    </g>
   </g>
  </g>
  <g id="axes_2">
   <g id="patch_8">
    <path d="M 487.8 543.3984 
L 766.8 543.3984 
L 766.8 73.2672 
L 487.8 73.2672 
z
" style="fill:#ffffff;"/>
   </g>
   <g id="matplotlib.axis_3">
    <g id="xtick_7">
     <g id="line2d_17">
      <g>
       <use style="stroke:#000000;stroke-width:0.8;" x="505.640524" xlink:href="#mef9a5c7ecd" y="543.3984"/>
      </g>
     </g>
     <g id="text_17">
      <!-- −0.19 -->
      <g transform="translate(490.317868 557.996838)scale(0.1 -0.1)">
       <use xlink:href="#DejaVuSans-2212"/>
       <use x="83.789062" xlink:href="#DejaVuSans-30"/>
       <use x="147.412109" xlink:href="#DejaVuSans-2e"/>
       <use x="179.199219" xlink:href="#DejaVuSans-31"/>
       <use x="242.822266" xlink:href="#DejaVuSans-39"/>
      </g>
     </g>
    </g>
    <g id="xtick_8">
     <g id="line2d_18">
      <g>
       <use style="stroke:#000000;stroke-width:0.8;" x="557.227581" xlink:href="#mef9a5c7ecd" y="543.3984"/>
      </g>
     </g>
     <g id="text_18">
      <!-- −0.18 -->
      <g transform="translate(541.904925 557.996838)scale(0.1 -0.1)">
       <use xlink:href="#DejaVuSans-2212"/>
       <use x="83.789062" xlink:href="#DejaVuSans-30"/>
       <use x="147.412109" xlink:href="#DejaVuSans-2e"/>
       <use x="179.199219" xlink:href="#DejaVuSans-31"/>
       <use x="242.822266" xlink:href="#DejaVuSans-38"/>
      </g>
     </g>
    </g>
    <g id="xtick_9">
     <g id="line2d_19">
      <g>
       <use style="stroke:#000000;stroke-width:0.8;" x="608.814638" xlink:href="#mef9a5c7ecd" y="543.3984"/>
      </g>
     </g>
     <g id="text_19">
      <!-- −0.17 -->
      <g transform="translate(593.491982 557.996838)scale(0.1 -0.1)">
       <use xlink:href="#DejaVuSans-2212"/>
       <use x="83.789062" xlink:href="#DejaVuSans-30"/>
       <use x="147.412109" xlink:href="#DejaVuSans-2e"/>
       <use x="179.199219" xlink:href="#DejaVuSans-31"/>
       <use x="242.822266" xlink:href="#DejaVuSans-37"/>
      </g>
     </g>
    </g>
    <g id="xtick_10">
     <g id="line2d_20">
      <g>
       <use style="stroke:#000000;stroke-width:0.8;" x="660.401695" xlink:href="#mef9a5c7ecd" y="543.3984"/>
      </g>
     </g>
     <g id="text_20">
      <!-- −0.16 -->
      <g transform="translate(645.079039 557.996838)scale(0.1 -0.1)">
       <use xlink:href="#DejaVuSans-2212"/>
       <use x="83.789062" xlink:href="#DejaVuSans-30"/>
       <use x="147.412109" xlink:href="#DejaVuSans-2e"/>
       <use x="179.199219" xlink:href="#DejaVuSans-31"/>
       <use x="242.822266" xlink:href="#DejaVuSans-36"/>
      </g>
     </g>
    </g>
    <g id="xtick_11">
     <g id="line2d_21">
      <g>
       <use style="stroke:#000000;stroke-width:0.8;" x="711.988752" xlink:href="#mef9a5c7ecd" y="543.3984"/>
      </g>
     </g>
     <g id="text_21">
      <!-- −0.15 -->
      <g transform="translate(696.666096 557.996838)scale(0.1 -0.1)">
       <use xlink:href="#DejaVuSans-2212"/>
       <use x="83.789062" xlink:href="#DejaVuSans-30"/>
       <use x="147.412109" xlink:href="#DejaVuSans-2e"/>
       <use x="179.199219" xlink:href="#DejaVuSans-31"/>
       <use x="242.822266" xlink:href="#DejaVuSans-35"/>
      </g>
     </g>
    </g>
    <g id="xtick_12">
     <g id="line2d_22">
      <g>
       <use style="stroke:#000000;stroke-width:0.8;" x="763.575809" xlink:href="#mef9a5c7ecd" y="543.3984"/>
      </g>
     </g>
     <g id="text_22">
      <!-- −0.14 -->
      <g transform="translate(748.253153 557.996838)scale(0.1 -0.1)">
       <use xlink:href="#DejaVuSans-2212"/>
       <use x="83.789062" xlink:href="#DejaVuSans-30"/>
       <use x="147.412109" xlink:href="#DejaVuSans-2e"/>
       <use x="179.199219" xlink:href="#DejaVuSans-31"/>
       <use x="242.822266" xlink:href="#DejaVuSans-34"/>
      </g>
     </g>
    </g>
   </g>
   <g id="matplotlib.axis_4">
    <g id="ytick_9">
     <g id="line2d_23">
      <g>
       <use style="stroke:#000000;stroke-width:0.8;" x="487.8" xlink:href="#m60f06f19c9" y="455.087884"/>
      </g>
     </g>
     <g id="text_23">
      <!-- 40 -->
      <g transform="translate(468.075 458.887103)scale(0.1 -0.1)">
       <use xlink:href="#DejaVuSans-34"/>
       <use x="63.623047" xlink:href="#DejaVuSans-30"/>
      </g>
     </g>
    </g>
    <g id="ytick_10">
     <g id="line2d_24">
      <g>
       <use style="stroke:#000000;stroke-width:0.8;" x="487.8" xlink:href="#m60f06f19c9" y="352.10186"/>
      </g>
     </g>
     <g id="text_24">
      <!-- 60 -->
      <g transform="translate(468.075 355.901079)scale(0.1 -0.1)">
       <use xlink:href="#DejaVuSans-36"/>
       <use x="63.623047" xlink:href="#DejaVuSans-30"/>
      </g>
     </g>
    </g>
    <g id="ytick_11">
     <g id="line2d_25">
      <g>
       <use style="stroke:#000000;stroke-width:0.8;" x="487.8" xlink:href="#m60f06f19c9" y="249.115836"/>
      </g>
     </g>
     <g id="text_25">
      <!-- 80 -->
      <g transform="translate(468.075 252.915055)scale(0.1 -0.1)">
       <use xlink:href="#DejaVuSans-38"/>
       <use x="63.623047" xlink:href="#DejaVuSans-30"/>
      </g>
     </g>
    </g>
    <g id="ytick_12">
     <g id="line2d_26">
      <g>
       <use style="stroke:#000000;stroke-width:0.8;" x="487.8" xlink:href="#m60f06f19c9" y="146.129812"/>
      </g>
     </g>
     <g id="text_26">
      <!-- 100 -->
      <g transform="translate(461.7125 149.929031)scale(0.1 -0.1)">
       <use xlink:href="#DejaVuSans-31"/>
       <use x="63.623047" xlink:href="#DejaVuSans-30"/>
       <use x="127.246094" xlink:href="#DejaVuSans-30"/>
      </g>
     </g>
    </g>
   </g>
   <g id="line2d_27">
    <path clip-path="url(#p920999fa6e)" d="M 500.481818 408.744173 
L 504.78074 382.997667 
L 509.079661 321.206053 
L 513.378582 352.10186 
L 517.677504 341.803258 
L 521.976425 326.355354 
L 526.275347 305.758149 
L 530.574268 269.713041 
L 534.87319 218.220029 
L 539.172111 377.848366 
L 543.471032 290.310246 
L 547.769954 259.414439 
L 552.068875 321.206053 
L 556.367797 382.997667 
L 560.666718 357.251161 
L 564.965639 372.699065 
L 569.264561 336.653957 
L 573.563482 341.803258 
L 577.862404 316.056752 
L 582.161325 269.713041 
L 586.460247 300.608848 
L 590.759168 177.025619 
L 595.058089 197.622824 
L 599.357011 218.220029 
L 603.655932 177.025619 
L 607.954854 192.473523 
L 612.253775 259.414439 
L 616.552696 223.36933 
L 620.851618 254.265137 
L 625.150539 285.160945 
L 629.449461 300.608848 
L 633.748382 182.17492 
L 638.047304 110.084704 
L 642.346225 140.980511 
L 646.645146 94.6368 
L 650.944068 228.518631 
L 655.242989 249.115836 
L 659.541911 372.699065 
L 663.840832 419.042776 
L 668.139753 475.685089 
L 672.438675 444.789282 
L 676.737596 434.49068 
L 681.036518 413.893475 
L 685.335439 408.744173 
L 689.634361 465.386487 
L 693.933282 362.400463 
L 698.232203 455.087884 
L 702.531125 465.386487 
L 706.830046 408.744173 
L 711.128968 460.237186 
L 715.427889 491.132993 
L 719.72681 444.789282 
L 724.025732 485.983692 
L 728.324653 449.938583 
L 732.623575 470.535788 
L 736.922496 522.0288 
L 741.221418 439.639981 
L 745.520339 511.730198 
L 749.81926 470.535788 
L 754.118182 388.146969 
" style="fill:none;stroke:#1f77b4;stroke-linecap:square;stroke-width:1.5;"/>
   </g>
   <g id="line2d_28">
    <path clip-path="url(#p920999fa6e)" d="M 500.481818 414.509519 
L 504.797952 405.769139 
L 509.367977 395.997599 
L 514.191892 385.157118 
L 519.523587 372.630425 
L 525.870844 357.130416 
L 535.264783 333.515996 
L 546.182064 306.190881 
L 552.02154 292.178632 
L 556.845455 281.174366 
L 560.907699 272.430878 
L 564.716052 264.754226 
L 568.016626 258.565473 
L 571.317199 252.854801 
L 574.363882 248.043975 
L 577.156675 244.049347 
L 579.695577 240.781356 
L 582.23448 237.874792 
L 584.519492 235.578846 
L 586.804505 233.594873 
L 588.835627 232.099245 
L 590.866749 230.86039 
L 592.897871 229.881986 
L 594.928993 229.166943 
L 596.706224 228.759014 
L 598.483456 228.555297 
L 600.260688 228.556258 
L 602.03792 228.761896 
L 603.815152 229.171739 
L 605.846274 229.888957 
L 607.877396 230.869514 
L 609.908518 232.110494 
L 611.93964 233.608215 
L 614.224652 235.594495 
L 616.509664 237.89269 
L 618.794676 240.494286 
L 621.333579 243.729111 
L 623.872482 247.31208 
L 626.665274 251.636317 
L 629.711957 256.784799 
L 633.012531 262.833453 
L 636.566994 269.846294 
L 640.375348 277.870105 
L 644.691482 287.510215 
L 649.515397 298.840724 
L 655.608763 313.758079 
L 665.764373 339.337086 
L 675.666093 364.057044 
L 682.01335 379.296378 
L 687.345045 391.532861 
L 692.16896 402.065568 
L 696.738984 411.514475 
L 701.055119 419.929366 
L 705.117363 427.376217 
L 709.179607 434.352037 
L 712.987961 440.459151 
L 716.796314 446.147711 
L 720.604668 451.422136 
L 724.159132 455.978375 
L 727.713595 460.189954 
L 731.268059 464.068021 
L 734.822523 467.62545 
L 738.376986 470.876507 
L 741.93145 473.836538 
L 745.485913 476.52167 
L 749.294267 479.11245 
L 753.102621 481.427537 
L 754.118182 482.000991 
L 754.118182 482.000991 
" style="fill:none;stroke:#ff7f0e;stroke-linecap:square;stroke-width:1.5;"/>
   </g>
   <g id="patch_9">
    <path d="M 487.8 543.3984 
L 487.8 73.2672 
" style="fill:none;stroke:#000000;stroke-linecap:square;stroke-linejoin:miter;stroke-width:0.8;"/>
   </g>
   <g id="patch_10">
    <path d="M 766.8 543.3984 
L 766.8 73.2672 
" style="fill:none;stroke:#000000;stroke-linecap:square;stroke-linejoin:miter;stroke-width:0.8;"/>
   </g>
   <g id="patch_11">
    <path d="M 487.8 543.3984 
L 766.8 543.3984 
" style="fill:none;stroke:#000000;stroke-linecap:square;stroke-linejoin:miter;stroke-width:0.8;"/>
   </g>
   <g id="patch_12">
    <path d="M 487.8 73.2672 
L 766.8 73.2672 
" style="fill:none;stroke:#000000;stroke-linecap:square;stroke-linejoin:miter;stroke-width:0.8;"/>
   </g>
   <g id="text_27">
    <g id="patch_13">
     <path d="M 501.75 152.32401 
L 587.925 152.32401 
Q 591.525 152.32401 591.525 148.72401 
L 591.525 96.77376 
Q 591.525 93.17376 587.925 93.17376 
L 501.75 93.17376 
Q 498.15 93.17376 498.15 96.77376 
L 498.15 148.72401 
Q 498.15 152.32401 501.75 152.32401 
z
" style="fill:#f5deb3;opacity:0.5;stroke:#000000;stroke-linejoin:miter;"/>
    </g>
    <!-- a=7.219 -->
    <g transform="translate(501.75 105.891885)scale(0.12 -0.12)">
     <use xlink:href="#DejaVuSans-61"/>
     <use x="61.279297" xlink:href="#DejaVuSans-3d"/>
     <use x="145.068359" xlink:href="#DejaVuSans-37"/>
     <use x="208.691406" xlink:href="#DejaVuSans-2e"/>
     <use x="240.478516" xlink:href="#DejaVuSans-32"/>
     <use x="304.101562" xlink:href="#DejaVuSans-31"/>
     <use x="367.724609" xlink:href="#DejaVuSans-39"/>
    </g>
    <!-- $\mu$=-0.172 -->
    <g transform="translate(501.75 119.32926)scale(0.12 -0.12)">
     <use transform="translate(0 0.78125)" xlink:href="#DejaVuSans-Oblique-3bc"/>
     <use transform="translate(63.623047 0.78125)" xlink:href="#DejaVuSans-3d"/>
     <use transform="translate(147.412109 0.78125)" xlink:href="#DejaVuSans-2d"/>
     <use transform="translate(183.496094 0.78125)" xlink:href="#DejaVuSans-30"/>
     <use transform="translate(247.119141 0.78125)" xlink:href="#DejaVuSans-2e"/>
     <use transform="translate(278.90625 0.78125)" xlink:href="#DejaVuSans-31"/>
     <use transform="translate(342.529297 0.78125)" xlink:href="#DejaVuSans-37"/>
     <use transform="translate(406.152344 0.78125)" xlink:href="#DejaVuSans-32"/>
    </g>
    <!-- $\sigma$=0.0125 -->
    <g transform="translate(501.75 132.79101)scale(0.12 -0.12)">
     <use transform="translate(0 0.78125)" xlink:href="#DejaVuSans-Oblique-3c3"/>
     <use transform="translate(63.378906 0.78125)" xlink:href="#DejaVuSans-3d"/>
     <use transform="translate(147.167969 0.78125)" xlink:href="#DejaVuSans-30"/>
     <use transform="translate(210.791016 0.78125)" xlink:href="#DejaVuSans-2e"/>
     <use transform="translate(242.578125 0.78125)" xlink:href="#DejaVuSans-30"/>
     <use transform="translate(306.201172 0.78125)" xlink:href="#DejaVuSans-31"/>
     <use transform="translate(369.824219 0.78125)" xlink:href="#DejaVuSans-32"/>
     <use transform="translate(433.447266 0.78125)" xlink:href="#DejaVuSans-35"/>
    </g>
    <!-- offset=31.886 -->
    <g transform="translate(501.75 146.228385)scale(0.12 -0.12)">
     <use xlink:href="#DejaVuSans-6f"/>
     <use x="61.181641" xlink:href="#DejaVuSans-66"/>
     <use x="96.386719" xlink:href="#DejaVuSans-66"/>
     <use x="131.591797" xlink:href="#DejaVuSans-73"/>
     <use x="183.691406" xlink:href="#DejaVuSans-65"/>
     <use x="245.214844" xlink:href="#DejaVuSans-74"/>
     <use x="284.423828" xlink:href="#DejaVuSans-3d"/>
     <use x="368.212891" xlink:href="#DejaVuSans-33"/>
     <use x="431.835938" xlink:href="#DejaVuSans-31"/>
     <use x="495.458984" xlink:href="#DejaVuSans-2e"/>
     <use x="527.246094" xlink:href="#DejaVuSans-38"/>
     <use x="590.869141" xlink:href="#DejaVuSans-38"/>
     <use x="654.492188" xlink:href="#DejaVuSans-36"/>
    </g>
   </g>
   <g id="text_28">
    <!-- Y Axis -->
    <defs>
     <path d="M -0.203125 72.90625 
L 10.40625 72.90625 
L 30.609375 42.921875 
L 50.6875 72.90625 
L 61.28125 72.90625 
L 35.5 34.71875 
L 35.5 0 
L 25.59375 0 
L 25.59375 34.71875 
z
" id="DejaVuSans-59"/>
    </defs>
    <g transform="translate(609.280312 67.2672)scale(0.12 -0.12)">
     <use xlink:href="#DejaVuSans-59"/>
     <use x="61.083984" xlink:href="#DejaVuSans-20"/>
     <use x="92.871094" xlink:href="#DejaVuSans-41"/>
     <use x="161.279297" xlink:href="#DejaVuSans-78"/>
     <use x="220.458984" xlink:href="#DejaVuSans-69"/>
     <use x="248.242188" xlink:href="#DejaVuSans-73"/>
    </g>
   </g>
  </g>
  <g id="axes_3">
   <g id="patch_14">
    <path d="M 822.6 543.3984 
L 1101.6 543.3984 
L 1101.6 73.2672 
L 822.6 73.2672 
z
" style="fill:#ffffff;"/>
   </g>
   <g id="matplotlib.axis_5">
    <g id="xtick_13">
     <g id="line2d_29">
      <g>
       <use style="stroke:#000000;stroke-width:0.8;" x="830.209091" xlink:href="#mef9a5c7ecd" y="543.3984"/>
      </g>
     </g>
     <g id="text_29">
      <!-- 45 -->
      <g transform="translate(823.846591 557.996838)scale(0.1 -0.1)">
       <use xlink:href="#DejaVuSans-34"/>
       <use x="63.623047" xlink:href="#DejaVuSans-35"/>
      </g>
     </g>
    </g>
    <g id="xtick_14">
     <g id="line2d_30">
      <g>
       <use style="stroke:#000000;stroke-width:0.8;" x="880.936364" xlink:href="#mef9a5c7ecd" y="543.3984"/>
      </g>
     </g>
     <g id="text_30">
      <!-- 46 -->
      <g transform="translate(874.573864 557.996838)scale(0.1 -0.1)">
       <use xlink:href="#DejaVuSans-34"/>
       <use x="63.623047" xlink:href="#DejaVuSans-36"/>
      </g>
     </g>
    </g>
    <g id="xtick_15">
     <g id="line2d_31">
      <g>
       <use style="stroke:#000000;stroke-width:0.8;" x="931.663636" xlink:href="#mef9a5c7ecd" y="543.3984"/>
      </g>
     </g>
     <g id="text_31">
      <!-- 47 -->
      <g transform="translate(925.301136 557.996838)scale(0.1 -0.1)">
       <use xlink:href="#DejaVuSans-34"/>
       <use x="63.623047" xlink:href="#DejaVuSans-37"/>
      </g>
     </g>
    </g>
    <g id="xtick_16">
     <g id="line2d_32">
      <g>
       <use style="stroke:#000000;stroke-width:0.8;" x="982.390909" xlink:href="#mef9a5c7ecd" y="543.3984"/>
      </g>
     </g>
     <g id="text_32">
      <!-- 48 -->
      <g transform="translate(976.028409 557.996838)scale(0.1 -0.1)">
       <use xlink:href="#DejaVuSans-34"/>
       <use x="63.623047" xlink:href="#DejaVuSans-38"/>
      </g>
     </g>
    </g>
    <g id="xtick_17">
     <g id="line2d_33">
      <g>
       <use style="stroke:#000000;stroke-width:0.8;" x="1033.118182" xlink:href="#mef9a5c7ecd" y="543.3984"/>
      </g>
     </g>
     <g id="text_33">
      <!-- 49 -->
      <g transform="translate(1026.755682 557.996838)scale(0.1 -0.1)">
       <use xlink:href="#DejaVuSans-34"/>
       <use x="63.623047" xlink:href="#DejaVuSans-39"/>
      </g>
     </g>
    </g>
    <g id="xtick_18">
     <g id="line2d_34">
      <g>
       <use style="stroke:#000000;stroke-width:0.8;" x="1083.845455" xlink:href="#mef9a5c7ecd" y="543.3984"/>
      </g>
     </g>
     <g id="text_34">
      <!-- 50 -->
      <g transform="translate(1077.482955 557.996838)scale(0.1 -0.1)">
       <use xlink:href="#DejaVuSans-35"/>
       <use x="63.623047" xlink:href="#DejaVuSans-30"/>
      </g>
     </g>
    </g>
   </g>
   <g id="matplotlib.axis_6">
    <g id="ytick_13">
     <g id="line2d_35">
      <g>
       <use style="stroke:#000000;stroke-width:0.8;" x="822.6" xlink:href="#m60f06f19c9" y="533.246438"/>
      </g>
     </g>
     <g id="text_35">
      <!-- 0 -->
      <g transform="translate(809.2375 537.045657)scale(0.1 -0.1)">
       <use xlink:href="#DejaVuSans-30"/>
      </g>
     </g>
    </g>
    <g id="ytick_14">
     <g id="line2d_36">
      <g>
       <use style="stroke:#000000;stroke-width:0.8;" x="822.6" xlink:href="#m60f06f19c9" y="477.158249"/>
      </g>
     </g>
     <g id="text_36">
      <!-- 50 -->
      <g transform="translate(802.875 480.957468)scale(0.1 -0.1)">
       <use xlink:href="#DejaVuSans-35"/>
       <use x="63.623047" xlink:href="#DejaVuSans-30"/>
      </g>
     </g>
    </g>
    <g id="ytick_15">
     <g id="line2d_37">
      <g>
       <use style="stroke:#000000;stroke-width:0.8;" x="822.6" xlink:href="#m60f06f19c9" y="421.07006"/>
      </g>
     </g>
     <g id="text_37">
      <!-- 100 -->
      <g transform="translate(796.5125 424.869279)scale(0.1 -0.1)">
       <use xlink:href="#DejaVuSans-31"/>
       <use x="63.623047" xlink:href="#DejaVuSans-30"/>
       <use x="127.246094" xlink:href="#DejaVuSans-30"/>
      </g>
     </g>
    </g>
    <g id="ytick_16">
     <g id="line2d_38">
      <g>
       <use style="stroke:#000000;stroke-width:0.8;" x="822.6" xlink:href="#m60f06f19c9" y="364.981871"/>
      </g>
     </g>
     <g id="text_38">
      <!-- 150 -->
      <g transform="translate(796.5125 368.78109)scale(0.1 -0.1)">
       <use xlink:href="#DejaVuSans-31"/>
       <use x="63.623047" xlink:href="#DejaVuSans-35"/>
       <use x="127.246094" xlink:href="#DejaVuSans-30"/>
      </g>
     </g>
    </g>
    <g id="ytick_17">
     <g id="line2d_39">
      <g>
       <use style="stroke:#000000;stroke-width:0.8;" x="822.6" xlink:href="#m60f06f19c9" y="308.893682"/>
      </g>
     </g>
     <g id="text_39">
      <!-- 200 -->
      <g transform="translate(796.5125 312.692901)scale(0.1 -0.1)">
       <use xlink:href="#DejaVuSans-32"/>
       <use x="63.623047" xlink:href="#DejaVuSans-30"/>
       <use x="127.246094" xlink:href="#DejaVuSans-30"/>
      </g>
     </g>
    </g>
    <g id="ytick_18">
     <g id="line2d_40">
      <g>
       <use style="stroke:#000000;stroke-width:0.8;" x="822.6" xlink:href="#m60f06f19c9" y="252.805493"/>
      </g>
     </g>
     <g id="text_40">
      <!-- 250 -->
      <g transform="translate(796.5125 256.604712)scale(0.1 -0.1)">
       <use xlink:href="#DejaVuSans-32"/>
       <use x="63.623047" xlink:href="#DejaVuSans-35"/>
       <use x="127.246094" xlink:href="#DejaVuSans-30"/>
      </g>
     </g>
    </g>
    <g id="ytick_19">
     <g id="line2d_41">
      <g>
       <use style="stroke:#000000;stroke-width:0.8;" x="822.6" xlink:href="#m60f06f19c9" y="196.717304"/>
      </g>
     </g>
     <g id="text_41">
      <!-- 300 -->
      <g transform="translate(796.5125 200.516523)scale(0.1 -0.1)">
       <use xlink:href="#DejaVuSans-33"/>
       <use x="63.623047" xlink:href="#DejaVuSans-30"/>
       <use x="127.246094" xlink:href="#DejaVuSans-30"/>
      </g>
     </g>
    </g>
    <g id="ytick_20">
     <g id="line2d_42">
      <g>
       <use style="stroke:#000000;stroke-width:0.8;" x="822.6" xlink:href="#m60f06f19c9" y="140.629115"/>
      </g>
     </g>
     <g id="text_42">
      <!-- 350 -->
      <g transform="translate(796.5125 144.428334)scale(0.1 -0.1)">
       <use xlink:href="#DejaVuSans-33"/>
       <use x="63.623047" xlink:href="#DejaVuSans-35"/>
       <use x="127.246094" xlink:href="#DejaVuSans-30"/>
      </g>
     </g>
    </g>
    <g id="ytick_21">
     <g id="line2d_43">
      <g>
       <use style="stroke:#000000;stroke-width:0.8;" x="822.6" xlink:href="#m60f06f19c9" y="84.540926"/>
      </g>
     </g>
     <g id="text_43">
      <!-- 400 -->
      <g transform="translate(796.5125 88.340145)scale(0.1 -0.1)">
       <use xlink:href="#DejaVuSans-34"/>
       <use x="63.623047" xlink:href="#DejaVuSans-30"/>
       <use x="127.246094" xlink:href="#DejaVuSans-30"/>
      </g>
     </g>
    </g>
   </g>
   <g id="line2d_44">
    <path clip-path="url(#p4de2c0469a)" d="M 835.281818 522.0288 
L 839.509091 213.543761 
L 843.736364 235.979036 
L 847.963636 174.282028 
L 852.190909 191.108485 
L 856.418182 172.038501 
L 860.645455 177.64732 
L 864.872727 152.968517 
L 869.1 133.898532 
L 873.327273 137.263824 
L 877.554545 143.994406 
L 881.781818 176.525556 
L 886.009091 94.6368 
L 890.236364 147.359698 
L 894.463636 137.263824 
L 898.690909 179.890847 
L 902.918182 223.639635 
L 907.145455 202.326123 
L 911.372727 206.813178 
L 915.6 184.377902 
L 919.827273 249.440202 
L 924.054545 239.344328 
L 928.281818 258.414312 
L 932.509091 253.927257 
L 936.736364 271.875477 
L 940.963636 326.841902 
L 945.190909 330.207194 
L 949.418182 339.181304 
L 953.645455 367.225398 
L 957.872727 389.660674 
L 962.1 394.147729 
L 966.327273 436.774753 
L 970.554545 447.992391 
L 974.781818 444.627099 
L 979.009091 446.870627 
L 983.236364 450.235918 
L 987.463636 467.062375 
L 991.690909 471.54943 
L 995.918182 481.645304 
L 1000.145455 460.331792 
L 1004.372727 453.601209 
L 1008.6 467.062375 
L 1012.827273 479.401776 
L 1017.054545 471.54943 
L 1021.281818 476.036485 
L 1025.509091 477.158249 
L 1029.736364 463.697083 
L 1033.963636 478.280013 
L 1038.190909 474.914721 
L 1042.418182 460.331792 
L 1046.645455 489.49765 
L 1050.872727 485.010595 
L 1055.1 476.036485 
L 1059.327273 478.280013 
L 1063.554545 481.645304 
L 1067.781818 486.132359 
L 1072.009091 478.280013 
L 1076.236364 465.940611 
L 1080.463636 482.767068 
L 1084.690909 471.54943 
L 1088.918182 468.184139 
" style="fill:none;stroke:#1f77b4;stroke-linecap:square;stroke-width:1.5;"/>
   </g>
   <g id="line2d_45">
    <path clip-path="url(#p4de2c0469a)" d="M 835.281818 298.729848 
L 843.660197 259.013659 
L 850.261343 228.164432 
L 854.577477 209.014822 
L 858.131941 194.229542 
L 861.178624 182.468226 
L 863.971417 172.563247 
L 866.510319 164.381723 
L 868.795332 157.754358 
L 870.826454 152.491928 
L 872.857576 147.855092 
L 874.634808 144.333917 
L 876.412039 141.33095 
L 877.935381 139.180558 
L 879.458722 137.429368 
L 880.728174 136.279583 
L 881.997625 135.414313 
L 883.267076 134.835735 
L 884.536527 134.545304 
L 885.552088 134.520942 
L 886.567649 134.681516 
L 887.58321 135.026768 
L 888.852662 135.717158 
L 890.122113 136.693477 
L 891.391564 137.953272 
L 892.914906 139.834719 
L 894.438247 142.113016 
L 895.961589 144.780001 
L 897.738821 148.36998 
L 899.516052 152.458698 
L 901.547174 157.717035 
L 903.832187 164.340072 
L 906.117199 171.662726 
L 908.656102 180.551692 
L 911.448894 191.149826 
L 914.749468 204.629249 
L 918.557821 221.220306 
L 923.127846 242.177977 
L 931.506224 281.902799 
L 938.361261 313.921869 
L 943.185176 335.388614 
L 947.24742 352.4676 
L 950.801884 366.521995 
L 954.356347 379.660029 
L 957.656921 390.990818 
L 960.703604 400.684753 
L 963.750287 409.636708 
L 966.543079 417.19411 
L 969.335872 424.141516 
L 972.128665 430.494997 
L 974.921458 436.275578 
L 977.714251 441.508338 
L 980.253153 445.813743 
L 982.792056 449.71268 
L 985.330958 453.229233 
L 987.869861 456.388175 
L 990.408763 459.214579 
L 992.947666 461.733461 
L 995.740459 464.178453 
L 998.533251 466.313093 
L 1001.326044 468.168055 
L 1004.118837 469.77249 
L 1007.16552 471.269232 
L 1010.466093 472.629324 
L 1013.766667 473.754911 
L 1017.57502 474.807186 
L 1021.637265 475.688587 
L 1026.207289 476.441757 
L 1031.285094 477.049528 
L 1037.37846 477.545471 
L 1044.741278 477.913811 
L 1054.642998 478.171053 
L 1069.876413 478.316137 
L 1088.918182 478.356347 
L 1088.918182 478.356347 
" style="fill:none;stroke:#ff7f0e;stroke-linecap:square;stroke-width:1.5;"/>
   </g>
   <g id="patch_15">
    <path d="M 822.6 543.3984 
L 822.6 73.2672 
" style="fill:none;stroke:#000000;stroke-linecap:square;stroke-linejoin:miter;stroke-width:0.8;"/>
   </g>
   <g id="patch_16">
    <path d="M 1101.6 543.3984 
L 1101.6 73.2672 
" style="fill:none;stroke:#000000;stroke-linecap:square;stroke-linejoin:miter;stroke-width:0.8;"/>
   </g>
   <g id="patch_17">
    <path d="M 822.6 543.3984 
L 1101.6 543.3984 
" style="fill:none;stroke:#000000;stroke-linecap:square;stroke-linejoin:miter;stroke-width:0.8;"/>
   </g>
   <g id="patch_18">
    <path d="M 822.6 73.2672 
L 1101.6 73.2672 
" style="fill:none;stroke:#000000;stroke-linecap:square;stroke-linejoin:miter;stroke-width:0.8;"/>
   </g>
   <g id="text_44">
    <g id="patch_19">
     <path d="M 836.55 152.32401 
L 922.725 152.32401 
Q 926.325 152.32401 926.325 148.72401 
L 926.325 96.77376 
Q 926.325 93.17376 922.725 93.17376 
L 836.55 93.17376 
Q 832.95 93.17376 832.95 96.77376 
L 832.95 148.72401 
Q 832.95 152.32401 836.55 152.32401 
z
" style="fill:#f5deb3;opacity:0.5;stroke:#000000;stroke-linejoin:miter;"/>
    </g>
    <!-- a=17.508 -->
    <g transform="translate(836.55 105.891885)scale(0.12 -0.12)">
     <use xlink:href="#DejaVuSans-61"/>
     <use x="61.279297" xlink:href="#DejaVuSans-3d"/>
     <use x="145.068359" xlink:href="#DejaVuSans-31"/>
     <use x="208.691406" xlink:href="#DejaVuSans-37"/>
     <use x="272.314453" xlink:href="#DejaVuSans-2e"/>
     <use x="304.101562" xlink:href="#DejaVuSans-35"/>
     <use x="367.724609" xlink:href="#DejaVuSans-30"/>
     <use x="431.347656" xlink:href="#DejaVuSans-38"/>
    </g>
    <!-- $\mu$=46.084 -->
    <g transform="translate(836.55 119.32926)scale(0.12 -0.12)">
     <use transform="translate(0 0.78125)" xlink:href="#DejaVuSans-Oblique-3bc"/>
     <use transform="translate(63.623047 0.78125)" xlink:href="#DejaVuSans-3d"/>
     <use transform="translate(147.412109 0.78125)" xlink:href="#DejaVuSans-34"/>
     <use transform="translate(211.035156 0.78125)" xlink:href="#DejaVuSans-36"/>
     <use transform="translate(274.658203 0.78125)" xlink:href="#DejaVuSans-2e"/>
     <use transform="translate(306.445312 0.78125)" xlink:href="#DejaVuSans-30"/>
     <use transform="translate(370.068359 0.78125)" xlink:href="#DejaVuSans-38"/>
     <use transform="translate(433.691406 0.78125)" xlink:href="#DejaVuSans-34"/>
    </g>
    <!-- $\sigma$=0.8632 -->
    <g transform="translate(836.55 132.79101)scale(0.12 -0.12)">
     <use transform="translate(0 0.78125)" xlink:href="#DejaVuSans-Oblique-3c3"/>
     <use transform="translate(63.378906 0.78125)" xlink:href="#DejaVuSans-3d"/>
     <use transform="translate(147.167969 0.78125)" xlink:href="#DejaVuSans-30"/>
     <use transform="translate(210.791016 0.78125)" xlink:href="#DejaVuSans-2e"/>
     <use transform="translate(242.546875 0.78125)" xlink:href="#DejaVuSans-38"/>
     <use transform="translate(306.169922 0.78125)" xlink:href="#DejaVuSans-36"/>
     <use transform="translate(369.792969 0.78125)" xlink:href="#DejaVuSans-33"/>
     <use transform="translate(433.416016 0.78125)" xlink:href="#DejaVuSans-32"/>
    </g>
    <!-- offset=48.926 -->
    <g transform="translate(836.55 146.228385)scale(0.12 -0.12)">
     <use xlink:href="#DejaVuSans-6f"/>
     <use x="61.181641" xlink:href="#DejaVuSans-66"/>
     <use x="96.386719" xlink:href="#DejaVuSans-66"/>
     <use x="131.591797" xlink:href="#DejaVuSans-73"/>
     <use x="183.691406" xlink:href="#DejaVuSans-65"/>
     <use x="245.214844" xlink:href="#DejaVuSans-74"/>
     <use x="284.423828" xlink:href="#DejaVuSans-3d"/>
     <use x="368.212891" xlink:href="#DejaVuSans-34"/>
     <use x="431.835938" xlink:href="#DejaVuSans-38"/>
     <use x="495.458984" xlink:href="#DejaVuSans-2e"/>
     <use x="527.246094" xlink:href="#DejaVuSans-39"/>
     <use x="590.869141" xlink:href="#DejaVuSans-32"/>
     <use x="654.492188" xlink:href="#DejaVuSans-36"/>
    </g>
   </g>
   <g id="text_45">
    <!-- Z Axis -->
    <defs>
     <path d="M 5.609375 72.90625 
L 62.890625 72.90625 
L 62.890625 65.375 
L 16.796875 8.296875 
L 64.015625 8.296875 
L 64.015625 0 
L 4.5 0 
L 4.5 7.515625 
L 50.59375 64.59375 
L 5.609375 64.59375 
z
" id="DejaVuSans-5a"/>
    </defs>
    <g transform="translate(943.635 67.2672)scale(0.12 -0.12)">
     <use xlink:href="#DejaVuSans-5a"/>
     <use x="68.505859" xlink:href="#DejaVuSans-20"/>
     <use x="100.292969" xlink:href="#DejaVuSans-41"/>
     <use x="168.701172" xlink:href="#DejaVuSans-78"/>
     <use x="227.880859" xlink:href="#DejaVuSans-69"/>
     <use x="255.664062" xlink:href="#DejaVuSans-73"/>
    </g>
   </g>
  </g>
 </g>
 <defs>
  <clipPath id="p48e364ed39">
   <rect height="470.1312" width="279" x="153" y="73.2672"/>
  </clipPath>
  <clipPath id="p920999fa6e">
   <rect height="470.1312" width="279" x="487.8" y="73.2672"/>
  </clipPath>
  <clipPath id="p4de2c0469a">
   <rect height="470.1312" width="279" x="822.6" y="73.2672"/>
  </clipPath>
 </defs>
</svg>
