<?xml version="1.0" encoding="utf-8" standalone="no"?>
<!DOCTYPE svg PUBLIC "-//W3C//DTD SVG 1.1//EN"
  "http://www.w3.org/Graphics/SVG/1.1/DTD/svg11.dtd">
<!-- Created with matplotlib (http://matplotlib.org/) -->
<svg height="610.56pt" version="1.1" viewBox="0 0 1224 610.56" width="1224pt" xmlns="http://www.w3.org/2000/svg" xmlns:xlink="http://www.w3.org/1999/xlink">
 <defs>
  <style type="text/css">
*{stroke-linecap:butt;stroke-linejoin:round;}
  </style>
 </defs>
 <g id="figure_1">
  <g id="patch_1">
   <path d="M 0 610.56 
L 1224 610.56 
L 1224 0 
L 0 0 
z
" style="fill:#ffffff;"/>
  </g>
  <g id="axes_1">
   <g id="patch_2">
    <path d="M 153 543.3984 
L 432 543.3984 
L 432 73.2672 
L 153 73.2672 
z
" style="fill:#ffffff;"/>
   </g>
   <g id="matplotlib.axis_1">
    <g id="xtick_1">
     <g id="line2d_1">
      <defs>
       <path d="M 0 0 
L 0 3.5 
" id="mff146afbb8" style="stroke:#000000;stroke-width:0.8;"/>
      </defs>
      <g>
       <use style="stroke:#000000;stroke-width:0.8;" x="172.022727" xlink:href="#mff146afbb8" y="543.3984"/>
      </g>
     </g>
     <g id="text_1">
      <!-- −0.0625 -->
      <defs>
       <path d="M 10.59375 35.5 
L 73.1875 35.5 
L 73.1875 27.203125 
L 10.59375 27.203125 
z
" id="DejaVuSans-2212"/>
       <path d="M 31.78125 66.40625 
Q 24.171875 66.40625 20.328125 58.90625 
Q 16.5 51.421875 16.5 36.375 
Q 16.5 21.390625 20.328125 13.890625 
Q 24.171875 6.390625 31.78125 6.390625 
Q 39.453125 6.390625 43.28125 13.890625 
Q 47.125 21.390625 47.125 36.375 
Q 47.125 51.421875 43.28125 58.90625 
Q 39.453125 66.40625 31.78125 66.40625 
z
M 31.78125 74.21875 
Q 44.046875 74.21875 50.515625 64.515625 
Q 56.984375 54.828125 56.984375 36.375 
Q 56.984375 17.96875 50.515625 8.265625 
Q 44.046875 -1.421875 31.78125 -1.421875 
Q 19.53125 -1.421875 13.0625 8.265625 
Q 6.59375 17.96875 6.59375 36.375 
Q 6.59375 54.828125 13.0625 64.515625 
Q 19.53125 74.21875 31.78125 74.21875 
z
" id="DejaVuSans-30"/>
       <path d="M 10.6875 12.40625 
L 21 12.40625 
L 21 0 
L 10.6875 0 
z
" id="DejaVuSans-2e"/>
       <path d="M 33.015625 40.375 
Q 26.375 40.375 22.484375 35.828125 
Q 18.609375 31.296875 18.609375 23.390625 
Q 18.609375 15.53125 22.484375 10.953125 
Q 26.375 6.390625 33.015625 6.390625 
Q 39.65625 6.390625 43.53125 10.953125 
Q 47.40625 15.53125 47.40625 23.390625 
Q 47.40625 31.296875 43.53125 35.828125 
Q 39.65625 40.375 33.015625 40.375 
z
M 52.59375 71.296875 
L 52.59375 62.3125 
Q 48.875 64.0625 45.09375 64.984375 
Q 41.3125 65.921875 37.59375 65.921875 
Q 27.828125 65.921875 22.671875 59.328125 
Q 17.53125 52.734375 16.796875 39.40625 
Q 19.671875 43.65625 24.015625 45.921875 
Q 28.375 48.1875 33.59375 48.1875 
Q 44.578125 48.1875 50.953125 41.515625 
Q 57.328125 34.859375 57.328125 23.390625 
Q 57.328125 12.15625 50.6875 5.359375 
Q 44.046875 -1.421875 33.015625 -1.421875 
Q 20.359375 -1.421875 13.671875 8.265625 
Q 6.984375 17.96875 6.984375 36.375 
Q 6.984375 53.65625 15.1875 63.9375 
Q 23.390625 74.21875 37.203125 74.21875 
Q 40.921875 74.21875 44.703125 73.484375 
Q 48.484375 72.75 52.59375 71.296875 
z
" id="DejaVuSans-36"/>
       <path d="M 19.1875 8.296875 
L 53.609375 8.296875 
L 53.609375 0 
L 7.328125 0 
L 7.328125 8.296875 
Q 12.9375 14.109375 22.625 23.890625 
Q 32.328125 33.6875 34.8125 36.53125 
Q 39.546875 41.84375 41.421875 45.53125 
Q 43.3125 49.21875 43.3125 52.78125 
Q 43.3125 58.59375 39.234375 62.25 
Q 35.15625 65.921875 28.609375 65.921875 
Q 23.96875 65.921875 18.8125 64.3125 
Q 13.671875 62.703125 7.8125 59.421875 
L 7.8125 69.390625 
Q 13.765625 71.78125 18.9375 73 
Q 24.125 74.21875 28.421875 74.21875 
Q 39.75 74.21875 46.484375 68.546875 
Q 53.21875 62.890625 53.21875 53.421875 
Q 53.21875 48.921875 51.53125 44.890625 
Q 49.859375 40.875 45.40625 35.40625 
Q 44.1875 33.984375 37.640625 27.21875 
Q 31.109375 20.453125 19.1875 8.296875 
z
" id="DejaVuSans-32"/>
       <path d="M 10.796875 72.90625 
L 49.515625 72.90625 
L 49.515625 64.59375 
L 19.828125 64.59375 
L 19.828125 46.734375 
Q 21.96875 47.46875 24.109375 47.828125 
Q 26.265625 48.1875 28.421875 48.1875 
Q 40.625 48.1875 47.75 41.5 
Q 54.890625 34.8125 54.890625 23.390625 
Q 54.890625 11.625 47.5625 5.09375 
Q 40.234375 -1.421875 26.90625 -1.421875 
Q 22.3125 -1.421875 17.546875 -0.640625 
Q 12.796875 0.140625 7.71875 1.703125 
L 7.71875 11.625 
Q 12.109375 9.234375 16.796875 8.0625 
Q 21.484375 6.890625 26.703125 6.890625 
Q 35.15625 6.890625 40.078125 11.328125 
Q 45.015625 15.765625 45.015625 23.390625 
Q 45.015625 31 40.078125 35.4375 
Q 35.15625 39.890625 26.703125 39.890625 
Q 22.75 39.890625 18.8125 39.015625 
Q 14.890625 38.140625 10.796875 36.28125 
z
" id="DejaVuSans-35"/>
      </defs>
      <g transform="translate(150.337571 557.996838)scale(0.1 -0.1)">
       <use xlink:href="#DejaVuSans-2212"/>
       <use x="83.789062" xlink:href="#DejaVuSans-30"/>
       <use x="147.412109" xlink:href="#DejaVuSans-2e"/>
       <use x="179.199219" xlink:href="#DejaVuSans-30"/>
       <use x="242.822266" xlink:href="#DejaVuSans-36"/>
       <use x="306.445312" xlink:href="#DejaVuSans-32"/>
       <use x="370.068359" xlink:href="#DejaVuSans-35"/>
      </g>
     </g>
    </g>
    <g id="xtick_2">
     <g id="line2d_2">
      <g>
       <use style="stroke:#000000;stroke-width:0.8;" x="203.727273" xlink:href="#mff146afbb8" y="543.3984"/>
      </g>
     </g>
     <g id="text_2">
      <!-- −0.0600 -->
      <g transform="translate(182.042116 557.996838)scale(0.1 -0.1)">
       <use xlink:href="#DejaVuSans-2212"/>
       <use x="83.789062" xlink:href="#DejaVuSans-30"/>
       <use x="147.412109" xlink:href="#DejaVuSans-2e"/>
       <use x="179.199219" xlink:href="#DejaVuSans-30"/>
       <use x="242.822266" xlink:href="#DejaVuSans-36"/>
       <use x="306.445312" xlink:href="#DejaVuSans-30"/>
       <use x="370.068359" xlink:href="#DejaVuSans-30"/>
      </g>
     </g>
    </g>
    <g id="xtick_3">
     <g id="line2d_3">
      <g>
       <use style="stroke:#000000;stroke-width:0.8;" x="235.431818" xlink:href="#mff146afbb8" y="543.3984"/>
      </g>
     </g>
     <g id="text_3">
      <!-- −0.0575 -->
      <defs>
       <path d="M 8.203125 72.90625 
L 55.078125 72.90625 
L 55.078125 68.703125 
L 28.609375 0 
L 18.3125 0 
L 43.21875 64.59375 
L 8.203125 64.59375 
z
" id="DejaVuSans-37"/>
      </defs>
      <g transform="translate(213.746662 557.996838)scale(0.1 -0.1)">
       <use xlink:href="#DejaVuSans-2212"/>
       <use x="83.789062" xlink:href="#DejaVuSans-30"/>
       <use x="147.412109" xlink:href="#DejaVuSans-2e"/>
       <use x="179.199219" xlink:href="#DejaVuSans-30"/>
       <use x="242.822266" xlink:href="#DejaVuSans-35"/>
       <use x="306.445312" xlink:href="#DejaVuSans-37"/>
       <use x="370.068359" xlink:href="#DejaVuSans-35"/>
      </g>
     </g>
    </g>
    <g id="xtick_4">
     <g id="line2d_4">
      <g>
       <use style="stroke:#000000;stroke-width:0.8;" x="267.136364" xlink:href="#mff146afbb8" y="543.3984"/>
      </g>
     </g>
     <g id="text_4">
      <!-- −0.0550 -->
      <g transform="translate(245.451207 557.996838)scale(0.1 -0.1)">
       <use xlink:href="#DejaVuSans-2212"/>
       <use x="83.789062" xlink:href="#DejaVuSans-30"/>
       <use x="147.412109" xlink:href="#DejaVuSans-2e"/>
       <use x="179.199219" xlink:href="#DejaVuSans-30"/>
       <use x="242.822266" xlink:href="#DejaVuSans-35"/>
       <use x="306.445312" xlink:href="#DejaVuSans-35"/>
       <use x="370.068359" xlink:href="#DejaVuSans-30"/>
      </g>
     </g>
    </g>
    <g id="xtick_5">
     <g id="line2d_5">
      <g>
       <use style="stroke:#000000;stroke-width:0.8;" x="298.840909" xlink:href="#mff146afbb8" y="543.3984"/>
      </g>
     </g>
     <g id="text_5">
      <!-- −0.0525 -->
      <g transform="translate(277.155753 557.996838)scale(0.1 -0.1)">
       <use xlink:href="#DejaVuSans-2212"/>
       <use x="83.789062" xlink:href="#DejaVuSans-30"/>
       <use x="147.412109" xlink:href="#DejaVuSans-2e"/>
       <use x="179.199219" xlink:href="#DejaVuSans-30"/>
       <use x="242.822266" xlink:href="#DejaVuSans-35"/>
       <use x="306.445312" xlink:href="#DejaVuSans-32"/>
       <use x="370.068359" xlink:href="#DejaVuSans-35"/>
      </g>
     </g>
    </g>
    <g id="xtick_6">
     <g id="line2d_6">
      <g>
       <use style="stroke:#000000;stroke-width:0.8;" x="330.545455" xlink:href="#mff146afbb8" y="543.3984"/>
      </g>
     </g>
     <g id="text_6">
      <!-- −0.0500 -->
      <g transform="translate(308.860298 557.996838)scale(0.1 -0.1)">
       <use xlink:href="#DejaVuSans-2212"/>
       <use x="83.789062" xlink:href="#DejaVuSans-30"/>
       <use x="147.412109" xlink:href="#DejaVuSans-2e"/>
       <use x="179.199219" xlink:href="#DejaVuSans-30"/>
       <use x="242.822266" xlink:href="#DejaVuSans-35"/>
       <use x="306.445312" xlink:href="#DejaVuSans-30"/>
       <use x="370.068359" xlink:href="#DejaVuSans-30"/>
      </g>
     </g>
    </g>
    <g id="xtick_7">
     <g id="line2d_7">
      <g>
       <use style="stroke:#000000;stroke-width:0.8;" x="362.25" xlink:href="#mff146afbb8" y="543.3984"/>
      </g>
     </g>
     <g id="text_7">
      <!-- −0.0475 -->
      <defs>
       <path d="M 37.796875 64.3125 
L 12.890625 25.390625 
L 37.796875 25.390625 
z
M 35.203125 72.90625 
L 47.609375 72.90625 
L 47.609375 25.390625 
L 58.015625 25.390625 
L 58.015625 17.1875 
L 47.609375 17.1875 
L 47.609375 0 
L 37.796875 0 
L 37.796875 17.1875 
L 4.890625 17.1875 
L 4.890625 26.703125 
z
" id="DejaVuSans-34"/>
      </defs>
      <g transform="translate(340.564844 557.996838)scale(0.1 -0.1)">
       <use xlink:href="#DejaVuSans-2212"/>
       <use x="83.789062" xlink:href="#DejaVuSans-30"/>
       <use x="147.412109" xlink:href="#DejaVuSans-2e"/>
       <use x="179.199219" xlink:href="#DejaVuSans-30"/>
       <use x="242.822266" xlink:href="#DejaVuSans-34"/>
       <use x="306.445312" xlink:href="#DejaVuSans-37"/>
       <use x="370.068359" xlink:href="#DejaVuSans-35"/>
      </g>
     </g>
    </g>
    <g id="xtick_8">
     <g id="line2d_8">
      <g>
       <use style="stroke:#000000;stroke-width:0.8;" x="393.954545" xlink:href="#mff146afbb8" y="543.3984"/>
      </g>
     </g>
     <g id="text_8">
      <!-- −0.0450 -->
      <g transform="translate(372.269389 557.996838)scale(0.1 -0.1)">
       <use xlink:href="#DejaVuSans-2212"/>
       <use x="83.789062" xlink:href="#DejaVuSans-30"/>
       <use x="147.412109" xlink:href="#DejaVuSans-2e"/>
       <use x="179.199219" xlink:href="#DejaVuSans-30"/>
       <use x="242.822266" xlink:href="#DejaVuSans-34"/>
       <use x="306.445312" xlink:href="#DejaVuSans-35"/>
       <use x="370.068359" xlink:href="#DejaVuSans-30"/>
      </g>
     </g>
    </g>
    <g id="xtick_9">
     <g id="line2d_9">
      <g>
       <use style="stroke:#000000;stroke-width:0.8;" x="425.659091" xlink:href="#mff146afbb8" y="543.3984"/>
      </g>
     </g>
     <g id="text_9">
      <!-- −0.0425 -->
      <g transform="translate(403.973935 557.996838)scale(0.1 -0.1)">
       <use xlink:href="#DejaVuSans-2212"/>
       <use x="83.789062" xlink:href="#DejaVuSans-30"/>
       <use x="147.412109" xlink:href="#DejaVuSans-2e"/>
       <use x="179.199219" xlink:href="#DejaVuSans-30"/>
       <use x="242.822266" xlink:href="#DejaVuSans-34"/>
       <use x="306.445312" xlink:href="#DejaVuSans-32"/>
       <use x="370.068359" xlink:href="#DejaVuSans-35"/>
      </g>
     </g>
    </g>
   </g>
   <g id="matplotlib.axis_2">
    <g id="ytick_1">
     <g id="line2d_10">
      <defs>
       <path d="M 0 0 
L -3.5 0 
" id="md8c3ea9e9a" style="stroke:#000000;stroke-width:0.8;"/>
      </defs>
      <g>
       <use style="stroke:#000000;stroke-width:0.8;" x="153" xlink:href="#md8c3ea9e9a" y="537.538994"/>
      </g>
     </g>
     <g id="text_10">
      <!-- 0 -->
      <g transform="translate(139.6375 541.338212)scale(0.1 -0.1)">
       <use xlink:href="#DejaVuSans-30"/>
      </g>
     </g>
    </g>
    <g id="ytick_2">
     <g id="line2d_11">
      <g>
       <use style="stroke:#000000;stroke-width:0.8;" x="153" xlink:href="#md8c3ea9e9a" y="451.371252"/>
      </g>
     </g>
     <g id="text_11">
      <!-- 50 -->
      <g transform="translate(133.275 455.17047)scale(0.1 -0.1)">
       <use xlink:href="#DejaVuSans-35"/>
       <use x="63.623047" xlink:href="#DejaVuSans-30"/>
      </g>
     </g>
    </g>
    <g id="ytick_3">
     <g id="line2d_12">
      <g>
       <use style="stroke:#000000;stroke-width:0.8;" x="153" xlink:href="#md8c3ea9e9a" y="365.20351"/>
      </g>
     </g>
     <g id="text_12">
      <!-- 100 -->
      <defs>
       <path d="M 12.40625 8.296875 
L 28.515625 8.296875 
L 28.515625 63.921875 
L 10.984375 60.40625 
L 10.984375 69.390625 
L 28.421875 72.90625 
L 38.28125 72.90625 
L 38.28125 8.296875 
L 54.390625 8.296875 
L 54.390625 0 
L 12.40625 0 
z
" id="DejaVuSans-31"/>
      </defs>
      <g transform="translate(126.9125 369.002728)scale(0.1 -0.1)">
       <use xlink:href="#DejaVuSans-31"/>
       <use x="63.623047" xlink:href="#DejaVuSans-30"/>
       <use x="127.246094" xlink:href="#DejaVuSans-30"/>
      </g>
     </g>
    </g>
    <g id="ytick_4">
     <g id="line2d_13">
      <g>
       <use style="stroke:#000000;stroke-width:0.8;" x="153" xlink:href="#md8c3ea9e9a" y="279.035768"/>
      </g>
     </g>
     <g id="text_13">
      <!-- 150 -->
      <g transform="translate(126.9125 282.834986)scale(0.1 -0.1)">
       <use xlink:href="#DejaVuSans-31"/>
       <use x="63.623047" xlink:href="#DejaVuSans-35"/>
       <use x="127.246094" xlink:href="#DejaVuSans-30"/>
      </g>
     </g>
    </g>
    <g id="ytick_5">
     <g id="line2d_14">
      <g>
       <use style="stroke:#000000;stroke-width:0.8;" x="153" xlink:href="#md8c3ea9e9a" y="192.868026"/>
      </g>
     </g>
     <g id="text_14">
      <!-- 200 -->
      <g transform="translate(126.9125 196.667245)scale(0.1 -0.1)">
       <use xlink:href="#DejaVuSans-32"/>
       <use x="63.623047" xlink:href="#DejaVuSans-30"/>
       <use x="127.246094" xlink:href="#DejaVuSans-30"/>
      </g>
     </g>
    </g>
    <g id="ytick_6">
     <g id="line2d_15">
      <g>
       <use style="stroke:#000000;stroke-width:0.8;" x="153" xlink:href="#md8c3ea9e9a" y="106.700284"/>
      </g>
     </g>
     <g id="text_15">
      <!-- 250 -->
      <g transform="translate(126.9125 110.499503)scale(0.1 -0.1)">
       <use xlink:href="#DejaVuSans-32"/>
       <use x="63.623047" xlink:href="#DejaVuSans-35"/>
       <use x="127.246094" xlink:href="#DejaVuSans-30"/>
      </g>
     </g>
    </g>
   </g>
   <g id="line2d_16">
    <path clip-path="url(#pbc25a3ebdd)" d="M 165.681818 504.795252 
L 174.136364 518.58209 
L 182.590909 504.795252 
L 191.045455 504.795252 
L 199.5 466.881445 
L 207.954545 437.584413 
L 216.409091 406.564026 
L 224.863636 372.096929 
L 233.318182 356.586735 
L 241.772727 292.822606 
L 250.227273 258.35551 
L 258.681818 192.868026 
L 267.136364 210.101574 
L 275.590909 123.933832 
L 284.045455 94.6368 
L 292.5 120.487123 
L 300.954545 99.806865 
L 309.409091 127.380542 
L 317.863636 185.974606 
L 326.318182 258.35551 
L 334.772727 268.695639 
L 343.227273 299.716026 
L 351.681818 334.183123 
L 360.136364 434.137703 
L 368.590909 454.817961 
L 377.045455 466.881445 
L 385.5 482.391639 
L 393.954545 522.0288 
L 402.409091 494.455123 
L 410.863636 513.412026 
L 419.318182 515.135381 
" style="fill:none;stroke:#1f77b4;stroke-linecap:square;stroke-width:1.5;"/>
   </g>
   <g id="line2d_17">
    <path clip-path="url(#pbc25a3ebdd)" d="M 165.681818 516.499657 
L 168.728501 514.882713 
L 171.521294 513.145605 
L 174.314087 511.132834 
L 176.852989 509.036014 
L 179.391892 506.65775 
L 181.930794 503.970561 
L 184.469697 500.945983 
L 187.0086 497.554817 
L 189.547502 493.767438 
L 192.086405 489.554149 
L 194.625307 484.885593 
L 197.16421 479.733213 
L 199.703112 474.069764 
L 202.242015 467.86987 
L 204.780917 461.110614 
L 207.57371 453.005816 
L 210.366503 444.179159 
L 213.159296 434.616058 
L 216.205979 423.335678 
L 219.252662 411.173384 
L 222.553235 397.021681 
L 225.853808 381.895142 
L 229.408272 364.587611 
L 233.470516 343.654586 
L 238.040541 318.895512 
L 244.133907 284.555019 
L 255.305078 221.371224 
L 259.621212 198.360508 
L 263.175676 180.582593 
L 266.222359 166.428297 
L 269.015152 154.494741 
L 271.554054 144.623877 
L 273.839066 136.614579 
L 275.870188 130.24212 
L 277.90131 124.613204 
L 279.678542 120.325192 
L 281.455774 116.653443 
L 282.979115 114.010127 
L 284.502457 111.841883 
L 285.771908 110.40352 
L 287.04136 109.304 
L 288.056921 108.67021 
L 289.072482 108.256047 
L 290.088043 108.062169 
L 291.103604 108.088884 
L 292.119165 108.336149 
L 293.134726 108.803572 
L 294.150287 109.490409 
L 295.419738 110.655813 
L 296.689189 112.159436 
L 297.95864 113.997561 
L 299.481982 116.638419 
L 301.005324 119.745056 
L 302.782555 123.943486 
L 304.559787 128.740966 
L 306.590909 134.928146 
L 308.622031 141.830279 
L 310.907043 150.397745 
L 313.445946 160.837791 
L 316.238739 173.330715 
L 319.285422 188.010684 
L 322.839885 206.285633 
L 327.15602 229.728185 
L 333.503276 265.634922 
L 343.404996 321.655192 
L 348.228911 347.622949 
L 352.291155 368.340996 
L 356.099509 386.613049 
L 359.653972 402.548313 
L 362.954545 416.315507 
L 366.001229 428.11381 
L 369.047912 439.027512 
L 371.840704 448.256618 
L 374.633497 456.754991 
L 377.42629 464.5403 
L 380.219083 471.636269 
L 382.757985 477.513049 
L 385.296888 482.868272 
L 387.83579 487.7285 
L 390.374693 492.121825 
L 392.913595 496.077339 
L 395.452498 499.624655 
L 397.9914 502.793473 
L 400.530303 505.613202 
L 403.069206 508.112638 
L 405.608108 510.319683 
L 408.400901 512.441661 
L 411.193694 514.276085 
L 413.986486 515.854713 
L 417.03317 517.319751 
L 419.318182 518.263083 
L 419.318182 518.263083 
" style="fill:none;stroke:#ff7f0e;stroke-linecap:square;stroke-width:1.5;"/>
   </g>
   <g id="patch_3">
    <path d="M 153 543.3984 
L 153 73.2672 
" style="fill:none;stroke:#000000;stroke-linecap:square;stroke-linejoin:miter;stroke-width:0.8;"/>
   </g>
   <g id="patch_4">
    <path d="M 432 543.3984 
L 432 73.2672 
" style="fill:none;stroke:#000000;stroke-linecap:square;stroke-linejoin:miter;stroke-width:0.8;"/>
   </g>
   <g id="patch_5">
    <path d="M 153 543.3984 
L 432 543.3984 
" style="fill:none;stroke:#000000;stroke-linecap:square;stroke-linejoin:miter;stroke-width:0.8;"/>
   </g>
   <g id="patch_6">
    <path d="M 153 73.2672 
L 432 73.2672 
" style="fill:none;stroke:#000000;stroke-linecap:square;stroke-linejoin:miter;stroke-width:0.8;"/>
   </g>
   <g id="text_16">
    <g id="patch_7">
     <path d="M 166.95 152.32401 
L 245.49 152.32401 
Q 249.09 152.32401 249.09 148.72401 
L 249.09 96.77376 
Q 249.09 93.17376 245.49 93.17376 
L 166.95 93.17376 
Q 163.35 93.17376 163.35 96.77376 
L 163.35 148.72401 
Q 163.35 152.32401 166.95 152.32401 
z
" style="fill:#f5deb3;opacity:0.5;stroke:#000000;stroke-linejoin:miter;"/>
    </g>
    <!-- a=15.538 -->
    <defs>
     <path d="M 34.28125 27.484375 
Q 23.390625 27.484375 19.1875 25 
Q 14.984375 22.515625 14.984375 16.5 
Q 14.984375 11.71875 18.140625 8.90625 
Q 21.296875 6.109375 26.703125 6.109375 
Q 34.1875 6.109375 38.703125 11.40625 
Q 43.21875 16.703125 43.21875 25.484375 
L 43.21875 27.484375 
z
M 52.203125 31.203125 
L 52.203125 0 
L 43.21875 0 
L 43.21875 8.296875 
Q 40.140625 3.328125 35.546875 0.953125 
Q 30.953125 -1.421875 24.3125 -1.421875 
Q 15.921875 -1.421875 10.953125 3.296875 
Q 6 8.015625 6 15.921875 
Q 6 25.140625 12.171875 29.828125 
Q 18.359375 34.515625 30.609375 34.515625 
L 43.21875 34.515625 
L 43.21875 35.40625 
Q 43.21875 41.609375 39.140625 45 
Q 35.0625 48.390625 27.6875 48.390625 
Q 23 48.390625 18.546875 47.265625 
Q 14.109375 46.140625 10.015625 43.890625 
L 10.015625 52.203125 
Q 14.9375 54.109375 19.578125 55.046875 
Q 24.21875 56 28.609375 56 
Q 40.484375 56 46.34375 49.84375 
Q 52.203125 43.703125 52.203125 31.203125 
z
" id="DejaVuSans-61"/>
     <path d="M 10.59375 45.40625 
L 73.1875 45.40625 
L 73.1875 37.203125 
L 10.59375 37.203125 
z
M 10.59375 25.484375 
L 73.1875 25.484375 
L 73.1875 17.1875 
L 10.59375 17.1875 
z
" id="DejaVuSans-3d"/>
     <path d="M 40.578125 39.3125 
Q 47.65625 37.796875 51.625 33 
Q 55.609375 28.21875 55.609375 21.1875 
Q 55.609375 10.40625 48.1875 4.484375 
Q 40.765625 -1.421875 27.09375 -1.421875 
Q 22.515625 -1.421875 17.65625 -0.515625 
Q 12.796875 0.390625 7.625 2.203125 
L 7.625 11.71875 
Q 11.71875 9.328125 16.59375 8.109375 
Q 21.484375 6.890625 26.8125 6.890625 
Q 36.078125 6.890625 40.9375 10.546875 
Q 45.796875 14.203125 45.796875 21.1875 
Q 45.796875 27.640625 41.28125 31.265625 
Q 36.765625 34.90625 28.71875 34.90625 
L 20.21875 34.90625 
L 20.21875 43.015625 
L 29.109375 43.015625 
Q 36.375 43.015625 40.234375 45.921875 
Q 44.09375 48.828125 44.09375 54.296875 
Q 44.09375 59.90625 40.109375 62.90625 
Q 36.140625 65.921875 28.71875 65.921875 
Q 24.65625 65.921875 20.015625 65.03125 
Q 15.375 64.15625 9.8125 62.3125 
L 9.8125 71.09375 
Q 15.4375 72.65625 20.34375 73.4375 
Q 25.25 74.21875 29.59375 74.21875 
Q 40.828125 74.21875 47.359375 69.109375 
Q 53.90625 64.015625 53.90625 55.328125 
Q 53.90625 49.265625 50.4375 45.09375 
Q 46.96875 40.921875 40.578125 39.3125 
z
" id="DejaVuSans-33"/>
     <path d="M 31.78125 34.625 
Q 24.75 34.625 20.71875 30.859375 
Q 16.703125 27.09375 16.703125 20.515625 
Q 16.703125 13.921875 20.71875 10.15625 
Q 24.75 6.390625 31.78125 6.390625 
Q 38.8125 6.390625 42.859375 10.171875 
Q 46.921875 13.96875 46.921875 20.515625 
Q 46.921875 27.09375 42.890625 30.859375 
Q 38.875 34.625 31.78125 34.625 
z
M 21.921875 38.8125 
Q 15.578125 40.375 12.03125 44.71875 
Q 8.5 49.078125 8.5 55.328125 
Q 8.5 64.0625 14.71875 69.140625 
Q 20.953125 74.21875 31.78125 74.21875 
Q 42.671875 74.21875 48.875 69.140625 
Q 55.078125 64.0625 55.078125 55.328125 
Q 55.078125 49.078125 51.53125 44.71875 
Q 48 40.375 41.703125 38.8125 
Q 48.828125 37.15625 52.796875 32.3125 
Q 56.78125 27.484375 56.78125 20.515625 
Q 56.78125 9.90625 50.3125 4.234375 
Q 43.84375 -1.421875 31.78125 -1.421875 
Q 19.734375 -1.421875 13.25 4.234375 
Q 6.78125 9.90625 6.78125 20.515625 
Q 6.78125 27.484375 10.78125 32.3125 
Q 14.796875 37.15625 21.921875 38.8125 
z
M 18.3125 54.390625 
Q 18.3125 48.734375 21.84375 45.5625 
Q 25.390625 42.390625 31.78125 42.390625 
Q 38.140625 42.390625 41.71875 45.5625 
Q 45.3125 48.734375 45.3125 54.390625 
Q 45.3125 60.0625 41.71875 63.234375 
Q 38.140625 66.40625 31.78125 66.40625 
Q 25.390625 66.40625 21.84375 63.234375 
Q 18.3125 60.0625 18.3125 54.390625 
z
" id="DejaVuSans-38"/>
    </defs>
    <g transform="translate(166.95 105.891885)scale(0.12 -0.12)">
     <use xlink:href="#DejaVuSans-61"/>
     <use x="61.279297" xlink:href="#DejaVuSans-3d"/>
     <use x="145.068359" xlink:href="#DejaVuSans-31"/>
     <use x="208.691406" xlink:href="#DejaVuSans-35"/>
     <use x="272.314453" xlink:href="#DejaVuSans-2e"/>
     <use x="304.101562" xlink:href="#DejaVuSans-35"/>
     <use x="367.724609" xlink:href="#DejaVuSans-33"/>
     <use x="431.347656" xlink:href="#DejaVuSans-38"/>
    </g>
    <!-- $\mu$=-0.053 -->
    <defs>
     <path d="M -1.3125 -20.796875 
L 13.375 54.6875 
L 22.40625 54.6875 
L 15.765625 20.65625 
Q 15.578125 19.625 15.421875 18.359375 
Q 15.28125 17.09375 15.28125 15.828125 
Q 15.28125 11.28125 18.140625 8.828125 
Q 21 6.390625 26.3125 6.390625 
Q 33.546875 6.390625 37.984375 10.484375 
Q 42.4375 14.59375 44 22.796875 
L 50.203125 54.6875 
L 59.1875 54.6875 
L 51.03125 12.640625 
Q 50.828125 11.71875 50.75 11.03125 
Q 50.6875 10.359375 50.6875 9.8125 
Q 50.6875 8.296875 51.296875 7.59375 
Q 51.90625 6.890625 53.21875 6.890625 
Q 53.71875 6.890625 54.5625 7.125 
Q 55.421875 7.375 56.984375 8.015625 
L 55.609375 0.78125 
Q 53.46875 -0.296875 51.515625 -0.859375 
Q 49.5625 -1.421875 47.703125 -1.421875 
Q 44.484375 -1.421875 42.65625 0.625 
Q 40.828125 2.6875 40.828125 6.296875 
Q 38.09375 2.390625 34.296875 0.484375 
Q 30.515625 -1.421875 25.390625 -1.421875 
Q 20.84375 -1.421875 17.453125 0.671875 
Q 14.0625 2.78125 12.984375 6.203125 
L 7.71875 -20.796875 
z
" id="DejaVuSans-Oblique-3bc"/>
     <path d="M 4.890625 31.390625 
L 31.203125 31.390625 
L 31.203125 23.390625 
L 4.890625 23.390625 
z
" id="DejaVuSans-2d"/>
    </defs>
    <g transform="translate(166.95 119.32926)scale(0.12 -0.12)">
     <use transform="translate(0 0.78125)" xlink:href="#DejaVuSans-Oblique-3bc"/>
     <use transform="translate(63.623047 0.78125)" xlink:href="#DejaVuSans-3d"/>
     <use transform="translate(147.412109 0.78125)" xlink:href="#DejaVuSans-2d"/>
     <use transform="translate(183.496094 0.78125)" xlink:href="#DejaVuSans-30"/>
     <use transform="translate(247.119141 0.78125)" xlink:href="#DejaVuSans-2e"/>
     <use transform="translate(278.90625 0.78125)" xlink:href="#DejaVuSans-30"/>
     <use transform="translate(342.529297 0.78125)" xlink:href="#DejaVuSans-35"/>
     <use transform="translate(406.152344 0.78125)" xlink:href="#DejaVuSans-33"/>
    </g>
    <!-- $\sigma$=0.0035 -->
    <defs>
     <path d="M 34.671875 47.5625 
Q 27.25 47.5625 22.21875 42.1875 
Q 16.890625 36.578125 15.140625 27.296875 
Q 13.1875 17.484375 16.3125 11.8125 
Q 19.390625 6.203125 26.65625 6.203125 
Q 33.84375 6.203125 39.109375 11.859375 
Q 44.4375 17.53125 46.34375 27.296875 
Q 48.046875 36.234375 45.015625 42.1875 
Q 42.1875 47.5625 34.671875 47.5625 
z
M 36.078125 54.734375 
L 65.921875 54.6875 
L 64.15625 45.703125 
L 54.109375 45.703125 
Q 57.90625 38.09375 55.859375 27.296875 
Q 53.21875 13.875 45.0625 6.25 
Q 36.859375 -1.421875 25.140625 -1.421875 
Q 13.375 -1.421875 8.203125 6.25 
Q 3.03125 13.875 5.671875 27.296875 
Q 8.25 40.765625 16.40625 48.390625 
Q 23.1875 54.734375 36.078125 54.734375 
z
" id="DejaVuSans-Oblique-3c3"/>
    </defs>
    <g transform="translate(166.95 132.79101)scale(0.12 -0.12)">
     <use transform="translate(0 0.78125)" xlink:href="#DejaVuSans-Oblique-3c3"/>
     <use transform="translate(63.378906 0.78125)" xlink:href="#DejaVuSans-3d"/>
     <use transform="translate(147.167969 0.78125)" xlink:href="#DejaVuSans-30"/>
     <use transform="translate(210.791016 0.78125)" xlink:href="#DejaVuSans-2e"/>
     <use transform="translate(242.578125 0.78125)" xlink:href="#DejaVuSans-30"/>
     <use transform="translate(306.201172 0.78125)" xlink:href="#DejaVuSans-30"/>
     <use transform="translate(369.824219 0.78125)" xlink:href="#DejaVuSans-33"/>
     <use transform="translate(433.447266 0.78125)" xlink:href="#DejaVuSans-35"/>
    </g>
    <!-- offset=7.804 -->
    <defs>
     <path d="M 30.609375 48.390625 
Q 23.390625 48.390625 19.1875 42.75 
Q 14.984375 37.109375 14.984375 27.296875 
Q 14.984375 17.484375 19.15625 11.84375 
Q 23.34375 6.203125 30.609375 6.203125 
Q 37.796875 6.203125 41.984375 11.859375 
Q 46.1875 17.53125 46.1875 27.296875 
Q 46.1875 37.015625 41.984375 42.703125 
Q 37.796875 48.390625 30.609375 48.390625 
z
M 30.609375 56 
Q 42.328125 56 49.015625 48.375 
Q 55.71875 40.765625 55.71875 27.296875 
Q 55.71875 13.875 49.015625 6.21875 
Q 42.328125 -1.421875 30.609375 -1.421875 
Q 18.84375 -1.421875 12.171875 6.21875 
Q 5.515625 13.875 5.515625 27.296875 
Q 5.515625 40.765625 12.171875 48.375 
Q 18.84375 56 30.609375 56 
z
" id="DejaVuSans-6f"/>
     <path d="M 37.109375 75.984375 
L 37.109375 68.5 
L 28.515625 68.5 
Q 23.6875 68.5 21.796875 66.546875 
Q 19.921875 64.59375 19.921875 59.515625 
L 19.921875 54.6875 
L 34.71875 54.6875 
L 34.71875 47.703125 
L 19.921875 47.703125 
L 19.921875 0 
L 10.890625 0 
L 10.890625 47.703125 
L 2.296875 47.703125 
L 2.296875 54.6875 
L 10.890625 54.6875 
L 10.890625 58.5 
Q 10.890625 67.625 15.140625 71.796875 
Q 19.390625 75.984375 28.609375 75.984375 
z
" id="DejaVuSans-66"/>
     <path d="M 44.28125 53.078125 
L 44.28125 44.578125 
Q 40.484375 46.53125 36.375 47.5 
Q 32.28125 48.484375 27.875 48.484375 
Q 21.1875 48.484375 17.84375 46.4375 
Q 14.5 44.390625 14.5 40.28125 
Q 14.5 37.15625 16.890625 35.375 
Q 19.28125 33.59375 26.515625 31.984375 
L 29.59375 31.296875 
Q 39.15625 29.25 43.1875 25.515625 
Q 47.21875 21.78125 47.21875 15.09375 
Q 47.21875 7.46875 41.1875 3.015625 
Q 35.15625 -1.421875 24.609375 -1.421875 
Q 20.21875 -1.421875 15.453125 -0.5625 
Q 10.6875 0.296875 5.421875 2 
L 5.421875 11.28125 
Q 10.40625 8.6875 15.234375 7.390625 
Q 20.0625 6.109375 24.8125 6.109375 
Q 31.15625 6.109375 34.5625 8.28125 
Q 37.984375 10.453125 37.984375 14.40625 
Q 37.984375 18.0625 35.515625 20.015625 
Q 33.0625 21.96875 24.703125 23.78125 
L 21.578125 24.515625 
Q 13.234375 26.265625 9.515625 29.90625 
Q 5.8125 33.546875 5.8125 39.890625 
Q 5.8125 47.609375 11.28125 51.796875 
Q 16.75 56 26.8125 56 
Q 31.78125 56 36.171875 55.265625 
Q 40.578125 54.546875 44.28125 53.078125 
z
" id="DejaVuSans-73"/>
     <path d="M 56.203125 29.59375 
L 56.203125 25.203125 
L 14.890625 25.203125 
Q 15.484375 15.921875 20.484375 11.0625 
Q 25.484375 6.203125 34.421875 6.203125 
Q 39.59375 6.203125 44.453125 7.46875 
Q 49.3125 8.734375 54.109375 11.28125 
L 54.109375 2.78125 
Q 49.265625 0.734375 44.1875 -0.34375 
Q 39.109375 -1.421875 33.890625 -1.421875 
Q 20.796875 -1.421875 13.15625 6.1875 
Q 5.515625 13.8125 5.515625 26.8125 
Q 5.515625 40.234375 12.765625 48.109375 
Q 20.015625 56 32.328125 56 
Q 43.359375 56 49.78125 48.890625 
Q 56.203125 41.796875 56.203125 29.59375 
z
M 47.21875 32.234375 
Q 47.125 39.59375 43.09375 43.984375 
Q 39.0625 48.390625 32.421875 48.390625 
Q 24.90625 48.390625 20.390625 44.140625 
Q 15.875 39.890625 15.1875 32.171875 
z
" id="DejaVuSans-65"/>
     <path d="M 18.3125 70.21875 
L 18.3125 54.6875 
L 36.8125 54.6875 
L 36.8125 47.703125 
L 18.3125 47.703125 
L 18.3125 18.015625 
Q 18.3125 11.328125 20.140625 9.421875 
Q 21.96875 7.515625 27.59375 7.515625 
L 36.8125 7.515625 
L 36.8125 0 
L 27.59375 0 
Q 17.1875 0 13.234375 3.875 
Q 9.28125 7.765625 9.28125 18.015625 
L 9.28125 47.703125 
L 2.6875 47.703125 
L 2.6875 54.6875 
L 9.28125 54.6875 
L 9.28125 70.21875 
z
" id="DejaVuSans-74"/>
    </defs>
    <g transform="translate(166.95 146.228385)scale(0.12 -0.12)">
     <use xlink:href="#DejaVuSans-6f"/>
     <use x="61.181641" xlink:href="#DejaVuSans-66"/>
     <use x="96.386719" xlink:href="#DejaVuSans-66"/>
     <use x="131.591797" xlink:href="#DejaVuSans-73"/>
     <use x="183.691406" xlink:href="#DejaVuSans-65"/>
     <use x="245.214844" xlink:href="#DejaVuSans-74"/>
     <use x="284.423828" xlink:href="#DejaVuSans-3d"/>
     <use x="368.212891" xlink:href="#DejaVuSans-37"/>
     <use x="431.835938" xlink:href="#DejaVuSans-2e"/>
     <use x="463.623047" xlink:href="#DejaVuSans-38"/>
     <use x="527.246094" xlink:href="#DejaVuSans-30"/>
     <use x="590.869141" xlink:href="#DejaVuSans-34"/>
    </g>
   </g>
   <g id="text_17">
    <!-- X Axis -->
    <defs>
     <path d="M 6.296875 72.90625 
L 16.890625 72.90625 
L 35.015625 45.796875 
L 53.21875 72.90625 
L 63.8125 72.90625 
L 40.375 37.890625 
L 65.375 0 
L 54.78125 0 
L 34.28125 31 
L 13.625 0 
L 2.984375 0 
L 29 38.921875 
z
" id="DejaVuSans-58"/>
     <path id="DejaVuSans-20"/>
     <path d="M 34.1875 63.1875 
L 20.796875 26.90625 
L 47.609375 26.90625 
z
M 28.609375 72.90625 
L 39.796875 72.90625 
L 67.578125 0 
L 57.328125 0 
L 50.6875 18.703125 
L 17.828125 18.703125 
L 11.1875 0 
L 0.78125 0 
z
" id="DejaVuSans-41"/>
     <path d="M 54.890625 54.6875 
L 35.109375 28.078125 
L 55.90625 0 
L 45.3125 0 
L 29.390625 21.484375 
L 13.484375 0 
L 2.875 0 
L 24.125 28.609375 
L 4.6875 54.6875 
L 15.28125 54.6875 
L 29.78125 35.203125 
L 44.28125 54.6875 
z
" id="DejaVuSans-78"/>
     <path d="M 9.421875 54.6875 
L 18.40625 54.6875 
L 18.40625 0 
L 9.421875 0 
z
M 9.421875 75.984375 
L 18.40625 75.984375 
L 18.40625 64.59375 
L 9.421875 64.59375 
z
" id="DejaVuSans-69"/>
    </defs>
    <g transform="translate(274.035 67.2672)scale(0.12 -0.12)">
     <use xlink:href="#DejaVuSans-58"/>
     <use x="68.505859" xlink:href="#DejaVuSans-20"/>
     <use x="100.292969" xlink:href="#DejaVuSans-41"/>
     <use x="168.701172" xlink:href="#DejaVuSans-78"/>
     <use x="227.880859" xlink:href="#DejaVuSans-69"/>
     <use x="255.664062" xlink:href="#DejaVuSans-73"/>
    </g>
   </g>
  </g>
  <g id="axes_2">
   <g id="patch_8">
    <path d="M 487.8 543.3984 
L 766.8 543.3984 
L 766.8 73.2672 
L 487.8 73.2672 
z
" style="fill:#ffffff;"/>
   </g>
   <g id="matplotlib.axis_3">
    <g id="xtick_10">
     <g id="line2d_18">
      <g>
       <use style="stroke:#000000;stroke-width:0.8;" x="493.922257" xlink:href="#mff146afbb8" y="543.3984"/>
      </g>
     </g>
     <g id="text_18">
      <!-- 0.0175 -->
      <g transform="translate(476.426945 557.996838)scale(0.1 -0.1)">
       <use xlink:href="#DejaVuSans-30"/>
       <use x="63.623047" xlink:href="#DejaVuSans-2e"/>
       <use x="95.410156" xlink:href="#DejaVuSans-30"/>
       <use x="159.033203" xlink:href="#DejaVuSans-31"/>
       <use x="222.65625" xlink:href="#DejaVuSans-37"/>
       <use x="286.279297" xlink:href="#DejaVuSans-35"/>
      </g>
     </g>
    </g>
    <g id="xtick_11">
     <g id="line2d_19">
      <g>
       <use style="stroke:#000000;stroke-width:0.8;" x="526.720063" xlink:href="#mff146afbb8" y="543.3984"/>
      </g>
     </g>
     <g id="text_19">
      <!-- 0.0200 -->
      <g transform="translate(509.22475 557.996838)scale(0.1 -0.1)">
       <use xlink:href="#DejaVuSans-30"/>
       <use x="63.623047" xlink:href="#DejaVuSans-2e"/>
       <use x="95.410156" xlink:href="#DejaVuSans-30"/>
       <use x="159.033203" xlink:href="#DejaVuSans-32"/>
       <use x="222.65625" xlink:href="#DejaVuSans-30"/>
       <use x="286.279297" xlink:href="#DejaVuSans-30"/>
      </g>
     </g>
    </g>
    <g id="xtick_12">
     <g id="line2d_20">
      <g>
       <use style="stroke:#000000;stroke-width:0.8;" x="559.517868" xlink:href="#mff146afbb8" y="543.3984"/>
      </g>
     </g>
     <g id="text_20">
      <!-- 0.0225 -->
      <g transform="translate(542.022556 557.996838)scale(0.1 -0.1)">
       <use xlink:href="#DejaVuSans-30"/>
       <use x="63.623047" xlink:href="#DejaVuSans-2e"/>
       <use x="95.410156" xlink:href="#DejaVuSans-30"/>
       <use x="159.033203" xlink:href="#DejaVuSans-32"/>
       <use x="222.65625" xlink:href="#DejaVuSans-32"/>
       <use x="286.279297" xlink:href="#DejaVuSans-35"/>
      </g>
     </g>
    </g>
    <g id="xtick_13">
     <g id="line2d_21">
      <g>
       <use style="stroke:#000000;stroke-width:0.8;" x="592.315674" xlink:href="#mff146afbb8" y="543.3984"/>
      </g>
     </g>
     <g id="text_21">
      <!-- 0.0250 -->
      <g transform="translate(574.820361 557.996838)scale(0.1 -0.1)">
       <use xlink:href="#DejaVuSans-30"/>
       <use x="63.623047" xlink:href="#DejaVuSans-2e"/>
       <use x="95.410156" xlink:href="#DejaVuSans-30"/>
       <use x="159.033203" xlink:href="#DejaVuSans-32"/>
       <use x="222.65625" xlink:href="#DejaVuSans-35"/>
       <use x="286.279297" xlink:href="#DejaVuSans-30"/>
      </g>
     </g>
    </g>
    <g id="xtick_14">
     <g id="line2d_22">
      <g>
       <use style="stroke:#000000;stroke-width:0.8;" x="625.11348" xlink:href="#mff146afbb8" y="543.3984"/>
      </g>
     </g>
     <g id="text_22">
      <!-- 0.0275 -->
      <g transform="translate(607.618167 557.996838)scale(0.1 -0.1)">
       <use xlink:href="#DejaVuSans-30"/>
       <use x="63.623047" xlink:href="#DejaVuSans-2e"/>
       <use x="95.410156" xlink:href="#DejaVuSans-30"/>
       <use x="159.033203" xlink:href="#DejaVuSans-32"/>
       <use x="222.65625" xlink:href="#DejaVuSans-37"/>
       <use x="286.279297" xlink:href="#DejaVuSans-35"/>
      </g>
     </g>
    </g>
    <g id="xtick_15">
     <g id="line2d_23">
      <g>
       <use style="stroke:#000000;stroke-width:0.8;" x="657.911285" xlink:href="#mff146afbb8" y="543.3984"/>
      </g>
     </g>
     <g id="text_23">
      <!-- 0.0300 -->
      <g transform="translate(640.415973 557.996838)scale(0.1 -0.1)">
       <use xlink:href="#DejaVuSans-30"/>
       <use x="63.623047" xlink:href="#DejaVuSans-2e"/>
       <use x="95.410156" xlink:href="#DejaVuSans-30"/>
       <use x="159.033203" xlink:href="#DejaVuSans-33"/>
       <use x="222.65625" xlink:href="#DejaVuSans-30"/>
       <use x="286.279297" xlink:href="#DejaVuSans-30"/>
      </g>
     </g>
    </g>
    <g id="xtick_16">
     <g id="line2d_24">
      <g>
       <use style="stroke:#000000;stroke-width:0.8;" x="690.709091" xlink:href="#mff146afbb8" y="543.3984"/>
      </g>
     </g>
     <g id="text_24">
      <!-- 0.0325 -->
      <g transform="translate(673.213778 557.996838)scale(0.1 -0.1)">
       <use xlink:href="#DejaVuSans-30"/>
       <use x="63.623047" xlink:href="#DejaVuSans-2e"/>
       <use x="95.410156" xlink:href="#DejaVuSans-30"/>
       <use x="159.033203" xlink:href="#DejaVuSans-33"/>
       <use x="222.65625" xlink:href="#DejaVuSans-32"/>
       <use x="286.279297" xlink:href="#DejaVuSans-35"/>
      </g>
     </g>
    </g>
    <g id="xtick_17">
     <g id="line2d_25">
      <g>
       <use style="stroke:#000000;stroke-width:0.8;" x="723.506897" xlink:href="#mff146afbb8" y="543.3984"/>
      </g>
     </g>
     <g id="text_25">
      <!-- 0.0350 -->
      <g transform="translate(706.011584 557.996838)scale(0.1 -0.1)">
       <use xlink:href="#DejaVuSans-30"/>
       <use x="63.623047" xlink:href="#DejaVuSans-2e"/>
       <use x="95.410156" xlink:href="#DejaVuSans-30"/>
       <use x="159.033203" xlink:href="#DejaVuSans-33"/>
       <use x="222.65625" xlink:href="#DejaVuSans-35"/>
       <use x="286.279297" xlink:href="#DejaVuSans-30"/>
      </g>
     </g>
    </g>
    <g id="xtick_18">
     <g id="line2d_26">
      <g>
       <use style="stroke:#000000;stroke-width:0.8;" x="756.304702" xlink:href="#mff146afbb8" y="543.3984"/>
      </g>
     </g>
     <g id="text_26">
      <!-- 0.0375 -->
      <g transform="translate(738.80939 557.996838)scale(0.1 -0.1)">
       <use xlink:href="#DejaVuSans-30"/>
       <use x="63.623047" xlink:href="#DejaVuSans-2e"/>
       <use x="95.410156" xlink:href="#DejaVuSans-30"/>
       <use x="159.033203" xlink:href="#DejaVuSans-33"/>
       <use x="222.65625" xlink:href="#DejaVuSans-37"/>
       <use x="286.279297" xlink:href="#DejaVuSans-35"/>
      </g>
     </g>
    </g>
   </g>
   <g id="matplotlib.axis_4">
    <g id="ytick_7">
     <g id="line2d_27">
      <g>
       <use style="stroke:#000000;stroke-width:0.8;" x="487.8" xlink:href="#md8c3ea9e9a" y="542.220548"/>
      </g>
     </g>
     <g id="text_27">
      <!-- 0 -->
      <g transform="translate(474.4375 546.019767)scale(0.1 -0.1)">
       <use xlink:href="#DejaVuSans-30"/>
      </g>
     </g>
    </g>
    <g id="ytick_8">
     <g id="line2d_28">
      <g>
       <use style="stroke:#000000;stroke-width:0.8;" x="487.8" xlink:href="#md8c3ea9e9a" y="458.088265"/>
      </g>
     </g>
     <g id="text_28">
      <!-- 50 -->
      <g transform="translate(468.075 461.887483)scale(0.1 -0.1)">
       <use xlink:href="#DejaVuSans-35"/>
       <use x="63.623047" xlink:href="#DejaVuSans-30"/>
      </g>
     </g>
    </g>
    <g id="ytick_9">
     <g id="line2d_29">
      <g>
       <use style="stroke:#000000;stroke-width:0.8;" x="487.8" xlink:href="#md8c3ea9e9a" y="373.955981"/>
      </g>
     </g>
     <g id="text_29">
      <!-- 100 -->
      <g transform="translate(461.7125 377.7552)scale(0.1 -0.1)">
       <use xlink:href="#DejaVuSans-31"/>
       <use x="63.623047" xlink:href="#DejaVuSans-30"/>
       <use x="127.246094" xlink:href="#DejaVuSans-30"/>
      </g>
     </g>
    </g>
    <g id="ytick_10">
     <g id="line2d_30">
      <g>
       <use style="stroke:#000000;stroke-width:0.8;" x="487.8" xlink:href="#md8c3ea9e9a" y="289.823698"/>
      </g>
     </g>
     <g id="text_30">
      <!-- 150 -->
      <g transform="translate(461.7125 293.622916)scale(0.1 -0.1)">
       <use xlink:href="#DejaVuSans-31"/>
       <use x="63.623047" xlink:href="#DejaVuSans-35"/>
       <use x="127.246094" xlink:href="#DejaVuSans-30"/>
      </g>
     </g>
    </g>
    <g id="ytick_11">
     <g id="line2d_31">
      <g>
       <use style="stroke:#000000;stroke-width:0.8;" x="487.8" xlink:href="#md8c3ea9e9a" y="205.691414"/>
      </g>
     </g>
     <g id="text_31">
      <!-- 200 -->
      <g transform="translate(461.7125 209.490633)scale(0.1 -0.1)">
       <use xlink:href="#DejaVuSans-32"/>
       <use x="63.623047" xlink:href="#DejaVuSans-30"/>
       <use x="127.246094" xlink:href="#DejaVuSans-30"/>
      </g>
     </g>
    </g>
    <g id="ytick_12">
     <g id="line2d_32">
      <g>
       <use style="stroke:#000000;stroke-width:0.8;" x="487.8" xlink:href="#md8c3ea9e9a" y="121.559131"/>
      </g>
     </g>
     <g id="text_32">
      <!-- 250 -->
      <g transform="translate(461.7125 125.358349)scale(0.1 -0.1)">
       <use xlink:href="#DejaVuSans-32"/>
       <use x="63.623047" xlink:href="#DejaVuSans-35"/>
       <use x="127.246094" xlink:href="#DejaVuSans-30"/>
      </g>
     </g>
    </g>
   </g>
   <g id="line2d_33">
    <path clip-path="url(#p810896682a)" d="M 500.481818 493.423824 
L 509.2279 491.741178 
L 517.973981 473.232076 
L 526.720063 439.579162 
L 535.466144 459.77091 
L 544.212226 431.165934 
L 552.958307 390.782438 
L 561.704389 348.716296 
L 570.45047 313.380737 
L 579.196552 267.949304 
L 587.942633 272.997241 
L 596.688715 229.248454 
L 605.434796 234.296391 
L 614.180878 161.942627 
L 622.926959 140.068233 
L 631.673041 94.6368 
L 640.419122 140.068233 
L 649.165204 155.212044 
L 657.911285 155.212044 
L 666.657367 278.045178 
L 675.403448 293.188989 
L 684.14953 323.476611 
L 692.895611 333.572485 
L 701.641693 394.147729 
L 710.387774 405.926249 
L 719.133856 436.213871 
L 727.879937 458.088265 
L 736.626019 495.106469 
L 745.3721 495.106469 
L 754.118182 522.0288 
" style="fill:none;stroke:#1f77b4;stroke-linecap:square;stroke-width:1.5;"/>
   </g>
   <g id="line2d_34">
    <path clip-path="url(#p810896682a)" d="M 500.481818 499.21211 
L 503.528501 497.082756 
L 506.321294 494.864594 
L 509.114087 492.367131 
L 511.90688 489.56571 
L 514.699672 486.435158 
L 517.492465 482.950064 
L 520.285258 479.085092 
L 523.078051 474.815335 
L 525.870844 470.116717 
L 528.663636 464.966431 
L 531.456429 459.343411 
L 534.249222 453.228838 
L 537.042015 446.606661 
L 540.088698 438.788685 
L 543.135381 430.340278 
L 546.182064 421.256495 
L 549.482637 410.701434 
L 552.78321 399.416618 
L 556.337674 386.476708 
L 560.146028 371.760669 
L 564.208272 355.183433 
L 568.778296 335.608655 
L 574.617772 309.535975 
L 592.1362 230.488912 
L 596.198444 213.553848 
L 599.752907 199.646001 
L 602.79959 188.551197 
L 605.592383 179.153821 
L 608.131286 171.324316 
L 610.670188 164.234547 
L 612.955201 158.530508 
L 614.986323 154.028282 
L 617.017445 150.083912 
L 618.794676 147.105707 
L 620.571908 144.581112 
L 622.09525 142.785639 
L 623.618591 141.33572 
L 624.888043 140.394434 
L 626.157494 139.697878 
L 627.426945 139.247436 
L 628.696396 139.044005 
L 629.965848 139.087991 
L 631.235299 139.379306 
L 632.50475 139.917369 
L 633.774201 140.70111 
L 635.043653 141.728971 
L 636.566994 143.281735 
L 638.090336 145.178641 
L 639.613677 147.414297 
L 641.390909 150.44221 
L 643.168141 153.910935 
L 645.199263 158.397934 
L 647.230385 163.421208 
L 649.515397 169.682715 
L 652.0543 177.352681 
L 654.847093 186.589939 
L 657.893776 197.529644 
L 661.194349 210.269537 
L 665.002703 225.926774 
L 669.572727 245.751049 
L 675.666093 273.272107 
L 688.614496 332.017122 
L 693.692301 353.88286 
L 698.008436 371.536112 
L 702.07068 387.216018 
L 705.879034 401.001868 
L 709.433497 413.018481 
L 712.73407 423.415525 
L 716.034644 433.068185 
L 719.081327 441.317289 
L 722.12801 448.938866 
L 725.174693 455.945986 
L 727.967486 461.844922 
L 730.760278 467.26017 
L 733.553071 472.211587 
L 736.345864 476.721057 
L 739.138657 480.811993 
L 741.93145 484.508884 
L 744.724242 487.836869 
L 747.517035 490.82136 
L 750.309828 493.487699 
L 753.102621 495.860866 
L 754.118182 496.655932 
L 754.118182 496.655932 
" style="fill:none;stroke:#ff7f0e;stroke-linecap:square;stroke-width:1.5;"/>
   </g>
   <g id="patch_9">
    <path d="M 487.8 543.3984 
L 487.8 73.2672 
" style="fill:none;stroke:#000000;stroke-linecap:square;stroke-linejoin:miter;stroke-width:0.8;"/>
   </g>
   <g id="patch_10">
    <path d="M 766.8 543.3984 
L 766.8 73.2672 
" style="fill:none;stroke:#000000;stroke-linecap:square;stroke-linejoin:miter;stroke-width:0.8;"/>
   </g>
   <g id="patch_11">
    <path d="M 487.8 543.3984 
L 766.8 543.3984 
" style="fill:none;stroke:#000000;stroke-linecap:square;stroke-linejoin:miter;stroke-width:0.8;"/>
   </g>
   <g id="patch_12">
    <path d="M 487.8 73.2672 
L 766.8 73.2672 
" style="fill:none;stroke:#000000;stroke-linecap:square;stroke-linejoin:miter;stroke-width:0.8;"/>
   </g>
   <g id="text_33">
    <g id="patch_13">
     <path d="M 501.75 152.32401 
L 587.925 152.32401 
Q 591.525 152.32401 591.525 148.72401 
L 591.525 96.77376 
Q 591.525 93.17376 587.925 93.17376 
L 501.75 93.17376 
Q 498.15 93.17376 498.15 96.77376 
L 498.15 148.72401 
Q 498.15 152.32401 501.75 152.32401 
z
" style="fill:#f5deb3;opacity:0.5;stroke:#000000;stroke-linejoin:miter;"/>
    </g>
    <!-- a=14.878 -->
    <g transform="translate(501.75 105.891885)scale(0.12 -0.12)">
     <use xlink:href="#DejaVuSans-61"/>
     <use x="61.279297" xlink:href="#DejaVuSans-3d"/>
     <use x="145.068359" xlink:href="#DejaVuSans-31"/>
     <use x="208.691406" xlink:href="#DejaVuSans-34"/>
     <use x="272.314453" xlink:href="#DejaVuSans-2e"/>
     <use x="304.101562" xlink:href="#DejaVuSans-38"/>
     <use x="367.724609" xlink:href="#DejaVuSans-37"/>
     <use x="431.347656" xlink:href="#DejaVuSans-38"/>
    </g>
    <!-- $\mu$=0.028 -->
    <g transform="translate(501.75 119.32926)scale(0.12 -0.12)">
     <use transform="translate(0 0.78125)" xlink:href="#DejaVuSans-Oblique-3bc"/>
     <use transform="translate(63.623047 0.78125)" xlink:href="#DejaVuSans-3d"/>
     <use transform="translate(147.412109 0.78125)" xlink:href="#DejaVuSans-30"/>
     <use transform="translate(211.035156 0.78125)" xlink:href="#DejaVuSans-2e"/>
     <use transform="translate(242.822266 0.78125)" xlink:href="#DejaVuSans-30"/>
     <use transform="translate(306.445312 0.78125)" xlink:href="#DejaVuSans-32"/>
     <use transform="translate(370.068359 0.78125)" xlink:href="#DejaVuSans-38"/>
    </g>
    <!-- $\sigma$=0.0038 -->
    <g transform="translate(501.75 132.79101)scale(0.12 -0.12)">
     <use transform="translate(0 0.78125)" xlink:href="#DejaVuSans-Oblique-3c3"/>
     <use transform="translate(63.378906 0.78125)" xlink:href="#DejaVuSans-3d"/>
     <use transform="translate(147.167969 0.78125)" xlink:href="#DejaVuSans-30"/>
     <use transform="translate(210.791016 0.78125)" xlink:href="#DejaVuSans-2e"/>
     <use transform="translate(242.578125 0.78125)" xlink:href="#DejaVuSans-30"/>
     <use transform="translate(306.201172 0.78125)" xlink:href="#DejaVuSans-30"/>
     <use transform="translate(369.824219 0.78125)" xlink:href="#DejaVuSans-33"/>
     <use transform="translate(433.447266 0.78125)" xlink:href="#DejaVuSans-38"/>
    </g>
    <!-- offset=18.250 -->
    <g transform="translate(501.75 146.228385)scale(0.12 -0.12)">
     <use xlink:href="#DejaVuSans-6f"/>
     <use x="61.181641" xlink:href="#DejaVuSans-66"/>
     <use x="96.386719" xlink:href="#DejaVuSans-66"/>
     <use x="131.591797" xlink:href="#DejaVuSans-73"/>
     <use x="183.691406" xlink:href="#DejaVuSans-65"/>
     <use x="245.214844" xlink:href="#DejaVuSans-74"/>
     <use x="284.423828" xlink:href="#DejaVuSans-3d"/>
     <use x="368.212891" xlink:href="#DejaVuSans-31"/>
     <use x="431.835938" xlink:href="#DejaVuSans-38"/>
     <use x="495.458984" xlink:href="#DejaVuSans-2e"/>
     <use x="527.246094" xlink:href="#DejaVuSans-32"/>
     <use x="590.869141" xlink:href="#DejaVuSans-35"/>
     <use x="654.492188" xlink:href="#DejaVuSans-30"/>
    </g>
   </g>
   <g id="text_34">
    <!-- Y Axis -->
    <defs>
     <path d="M -0.203125 72.90625 
L 10.40625 72.90625 
L 30.609375 42.921875 
L 50.6875 72.90625 
L 61.28125 72.90625 
L 35.5 34.71875 
L 35.5 0 
L 25.59375 0 
L 25.59375 34.71875 
z
" id="DejaVuSans-59"/>
    </defs>
    <g transform="translate(609.280312 67.2672)scale(0.12 -0.12)">
     <use xlink:href="#DejaVuSans-59"/>
     <use x="61.083984" xlink:href="#DejaVuSans-20"/>
     <use x="92.871094" xlink:href="#DejaVuSans-41"/>
     <use x="161.279297" xlink:href="#DejaVuSans-78"/>
     <use x="220.458984" xlink:href="#DejaVuSans-69"/>
     <use x="248.242188" xlink:href="#DejaVuSans-73"/>
    </g>
   </g>
  </g>
  <g id="axes_3">
   <g id="patch_14">
    <path d="M 822.6 543.3984 
L 1101.6 543.3984 
L 1101.6 73.2672 
L 822.6 73.2672 
z
" style="fill:#ffffff;"/>
   </g>
   <g id="matplotlib.axis_5">
    <g id="xtick_19">
     <g id="line2d_35">
      <g>
       <use style="stroke:#000000;stroke-width:0.8;" x="825.136364" xlink:href="#mff146afbb8" y="543.3984"/>
      </g>
     </g>
     <g id="text_35">
      <!-- 43 -->
      <g transform="translate(818.773864 557.996838)scale(0.1 -0.1)">
       <use xlink:href="#DejaVuSans-34"/>
       <use x="63.623047" xlink:href="#DejaVuSans-33"/>
      </g>
     </g>
    </g>
    <g id="xtick_20">
     <g id="line2d_36">
      <g>
       <use style="stroke:#000000;stroke-width:0.8;" x="875.863636" xlink:href="#mff146afbb8" y="543.3984"/>
      </g>
     </g>
     <g id="text_36">
      <!-- 44 -->
      <g transform="translate(869.501136 557.996838)scale(0.1 -0.1)">
       <use xlink:href="#DejaVuSans-34"/>
       <use x="63.623047" xlink:href="#DejaVuSans-34"/>
      </g>
     </g>
    </g>
    <g id="xtick_21">
     <g id="line2d_37">
      <g>
       <use style="stroke:#000000;stroke-width:0.8;" x="926.590909" xlink:href="#mff146afbb8" y="543.3984"/>
      </g>
     </g>
     <g id="text_37">
      <!-- 45 -->
      <g transform="translate(920.228409 557.996838)scale(0.1 -0.1)">
       <use xlink:href="#DejaVuSans-34"/>
       <use x="63.623047" xlink:href="#DejaVuSans-35"/>
      </g>
     </g>
    </g>
    <g id="xtick_22">
     <g id="line2d_38">
      <g>
       <use style="stroke:#000000;stroke-width:0.8;" x="977.318182" xlink:href="#mff146afbb8" y="543.3984"/>
      </g>
     </g>
     <g id="text_38">
      <!-- 46 -->
      <g transform="translate(970.955682 557.996838)scale(0.1 -0.1)">
       <use xlink:href="#DejaVuSans-34"/>
       <use x="63.623047" xlink:href="#DejaVuSans-36"/>
      </g>
     </g>
    </g>
    <g id="xtick_23">
     <g id="line2d_39">
      <g>
       <use style="stroke:#000000;stroke-width:0.8;" x="1028.045455" xlink:href="#mff146afbb8" y="543.3984"/>
      </g>
     </g>
     <g id="text_39">
      <!-- 47 -->
      <g transform="translate(1021.682955 557.996838)scale(0.1 -0.1)">
       <use xlink:href="#DejaVuSans-34"/>
       <use x="63.623047" xlink:href="#DejaVuSans-37"/>
      </g>
     </g>
    </g>
    <g id="xtick_24">
     <g id="line2d_40">
      <g>
       <use style="stroke:#000000;stroke-width:0.8;" x="1078.772727" xlink:href="#mff146afbb8" y="543.3984"/>
      </g>
     </g>
     <g id="text_40">
      <!-- 48 -->
      <g transform="translate(1072.410227 557.996838)scale(0.1 -0.1)">
       <use xlink:href="#DejaVuSans-34"/>
       <use x="63.623047" xlink:href="#DejaVuSans-38"/>
      </g>
     </g>
    </g>
   </g>
   <g id="matplotlib.axis_6">
    <g id="ytick_13">
     <g id="line2d_41">
      <g>
       <use style="stroke:#000000;stroke-width:0.8;" x="822.6" xlink:href="#md8c3ea9e9a" y="502.776908"/>
      </g>
     </g>
     <g id="text_41">
      <!-- 50 -->
      <g transform="translate(802.875 506.576127)scale(0.1 -0.1)">
       <use xlink:href="#DejaVuSans-35"/>
       <use x="63.623047" xlink:href="#DejaVuSans-30"/>
      </g>
     </g>
    </g>
    <g id="ytick_14">
     <g id="line2d_42">
      <g>
       <use style="stroke:#000000;stroke-width:0.8;" x="822.6" xlink:href="#md8c3ea9e9a" y="406.517449"/>
      </g>
     </g>
     <g id="text_42">
      <!-- 100 -->
      <g transform="translate(796.5125 410.316667)scale(0.1 -0.1)">
       <use xlink:href="#DejaVuSans-31"/>
       <use x="63.623047" xlink:href="#DejaVuSans-30"/>
       <use x="127.246094" xlink:href="#DejaVuSans-30"/>
      </g>
     </g>
    </g>
    <g id="ytick_15">
     <g id="line2d_43">
      <g>
       <use style="stroke:#000000;stroke-width:0.8;" x="822.6" xlink:href="#md8c3ea9e9a" y="310.257989"/>
      </g>
     </g>
     <g id="text_43">
      <!-- 150 -->
      <g transform="translate(796.5125 314.057208)scale(0.1 -0.1)">
       <use xlink:href="#DejaVuSans-31"/>
       <use x="63.623047" xlink:href="#DejaVuSans-35"/>
       <use x="127.246094" xlink:href="#DejaVuSans-30"/>
      </g>
     </g>
    </g>
    <g id="ytick_16">
     <g id="line2d_44">
      <g>
       <use style="stroke:#000000;stroke-width:0.8;" x="822.6" xlink:href="#md8c3ea9e9a" y="213.99853"/>
      </g>
     </g>
     <g id="text_44">
      <!-- 200 -->
      <g transform="translate(796.5125 217.797748)scale(0.1 -0.1)">
       <use xlink:href="#DejaVuSans-32"/>
       <use x="63.623047" xlink:href="#DejaVuSans-30"/>
       <use x="127.246094" xlink:href="#DejaVuSans-30"/>
      </g>
     </g>
    </g>
    <g id="ytick_17">
     <g id="line2d_45">
      <g>
       <use style="stroke:#000000;stroke-width:0.8;" x="822.6" xlink:href="#md8c3ea9e9a" y="117.73907"/>
      </g>
     </g>
     <g id="text_45">
      <!-- 250 -->
      <g transform="translate(796.5125 121.538289)scale(0.1 -0.1)">
       <use xlink:href="#DejaVuSans-32"/>
       <use x="63.623047" xlink:href="#DejaVuSans-35"/>
       <use x="127.246094" xlink:href="#DejaVuSans-30"/>
      </g>
     </g>
    </g>
   </g>
   <g id="line2d_46">
    <path clip-path="url(#p731cbd3fe5)" d="M 835.281818 408.442638 
L 843.736364 498.92653 
L 852.190909 460.422746 
L 860.645455 412.293016 
L 869.1 414.218205 
L 877.554545 364.163286 
L 886.009091 339.135827 
L 894.463636 294.856476 
L 902.918182 329.509881 
L 911.372727 304.482422 
L 919.827273 202.447395 
L 928.281818 246.726746 
L 936.736364 148.542097 
L 945.190909 165.8688 
L 953.645455 113.888692 
L 962.1 113.888692 
L 970.554545 152.392476 
L 979.009091 94.6368 
L 987.463636 104.262746 
L 995.918182 217.848908 
L 1004.372727 246.726746 
L 1012.827273 331.43507 
L 1021.281818 316.033557 
L 1029.736364 383.415178 
L 1038.190909 441.170854 
L 1046.645455 456.572368 
L 1055.1 471.973881 
L 1063.554545 446.946422 
L 1072.009091 502.776908 
L 1080.463636 498.92653 
L 1088.918182 522.0288 
" style="fill:none;stroke:#1f77b4;stroke-linecap:square;stroke-width:1.5;"/>
   </g>
   <g id="line2d_47">
    <path clip-path="url(#p731cbd3fe5)" d="M 835.281818 483.827026 
L 838.074611 481.395364 
L 840.867404 478.658642 
L 843.660197 475.590395 
L 846.452989 472.163739 
L 849.245782 468.35169 
L 852.038575 464.127524 
L 854.831368 459.465193 
L 857.624161 454.339776 
L 860.416953 448.727978 
L 863.209746 442.608658 
L 866.002539 435.963396 
L 868.795332 428.777069 
L 871.842015 420.30728 
L 874.888698 411.17185 
L 878.189271 400.522781 
L 881.489844 389.100502 
L 885.044308 375.959925 
L 888.852662 360.964344 
L 892.914906 344.011938 
L 897.48493 323.918094 
L 902.816626 299.413509 
L 911.448894 258.493314 
L 919.065602 222.811072 
L 923.635627 202.424337 
L 927.44398 186.40675 
L 930.744554 173.44539 
L 933.791237 162.382946 
L 936.584029 153.106306 
L 939.122932 145.46371 
L 941.407944 139.279551 
L 943.439066 134.367485 
L 945.470188 130.031791 
L 947.24742 126.728227 
L 949.024652 123.895761 
L 950.547993 121.851385 
L 952.071335 120.167275 
L 953.594676 118.848339 
L 954.864128 118.030989 
L 956.133579 117.471589 
L 957.40303 117.171275 
L 958.672482 117.13066 
L 959.941933 117.349827 
L 961.211384 117.828329 
L 962.480835 118.565192 
L 963.750287 119.558917 
L 965.019738 120.807488 
L 966.543079 122.638569 
L 968.066421 124.827629 
L 969.843653 127.825454 
L 971.620885 131.290074 
L 973.652007 135.803796 
L 975.683129 140.886642 
L 977.968141 147.253288 
L 980.253153 154.267946 
L 982.792056 162.769083 
L 985.584848 172.905893 
L 988.631532 184.799475 
L 992.185995 199.616648 
L 996.248239 217.544273 
L 1001.326044 240.997393 
L 1020.621704 331.215342 
L 1025.191728 350.943574 
L 1029.253972 367.511153 
L 1033.062326 382.107508 
L 1036.61679 394.851777 
L 1039.917363 405.89311 
L 1043.217936 416.155176 
L 1046.264619 424.93292 
L 1049.311302 433.048711 
L 1052.357985 440.514521 
L 1055.150778 446.802334 
L 1057.943571 452.576333 
L 1060.736364 457.856841 
L 1063.529156 462.666514 
L 1066.321949 467.029803 
L 1069.114742 470.972443 
L 1071.907535 474.520985 
L 1074.700328 477.702372 
L 1077.49312 480.543557 
L 1080.285913 483.071174 
L 1083.078706 485.311248 
L 1086.125389 487.456589 
L 1088.918182 489.175592 
L 1088.918182 489.175592 
" style="fill:none;stroke:#ff7f0e;stroke-linecap:square;stroke-width:1.5;"/>
   </g>
   <g id="patch_15">
    <path d="M 822.6 543.3984 
L 822.6 73.2672 
" style="fill:none;stroke:#000000;stroke-linecap:square;stroke-linejoin:miter;stroke-width:0.8;"/>
   </g>
   <g id="patch_16">
    <path d="M 1101.6 543.3984 
L 1101.6 73.2672 
" style="fill:none;stroke:#000000;stroke-linecap:square;stroke-linejoin:miter;stroke-width:0.8;"/>
   </g>
   <g id="patch_17">
    <path d="M 822.6 543.3984 
L 1101.6 543.3984 
" style="fill:none;stroke:#000000;stroke-linecap:square;stroke-linejoin:miter;stroke-width:0.8;"/>
   </g>
   <g id="patch_18">
    <path d="M 822.6 73.2672 
L 1101.6 73.2672 
" style="fill:none;stroke:#000000;stroke-linecap:square;stroke-linejoin:miter;stroke-width:0.8;"/>
   </g>
   <g id="text_46">
    <g id="patch_19">
     <path d="M 836.55 152.32401 
L 922.725 152.32401 
Q 926.325 152.32401 926.325 148.72401 
L 926.325 96.77376 
Q 926.325 93.17376 922.725 93.17376 
L 836.55 93.17376 
Q 832.95 93.17376 832.95 96.77376 
L 832.95 148.72401 
Q 832.95 152.32401 836.55 152.32401 
z
" style="fill:#f5deb3;opacity:0.5;stroke:#000000;stroke-linejoin:miter;"/>
    </g>
    <!-- a=14.096 -->
    <defs>
     <path d="M 10.984375 1.515625 
L 10.984375 10.5 
Q 14.703125 8.734375 18.5 7.8125 
Q 22.3125 6.890625 25.984375 6.890625 
Q 35.75 6.890625 40.890625 13.453125 
Q 46.046875 20.015625 46.78125 33.40625 
Q 43.953125 29.203125 39.59375 26.953125 
Q 35.25 24.703125 29.984375 24.703125 
Q 19.046875 24.703125 12.671875 31.3125 
Q 6.296875 37.9375 6.296875 49.421875 
Q 6.296875 60.640625 12.9375 67.421875 
Q 19.578125 74.21875 30.609375 74.21875 
Q 43.265625 74.21875 49.921875 64.515625 
Q 56.59375 54.828125 56.59375 36.375 
Q 56.59375 19.140625 48.40625 8.859375 
Q 40.234375 -1.421875 26.421875 -1.421875 
Q 22.703125 -1.421875 18.890625 -0.6875 
Q 15.09375 0.046875 10.984375 1.515625 
z
M 30.609375 32.421875 
Q 37.25 32.421875 41.125 36.953125 
Q 45.015625 41.5 45.015625 49.421875 
Q 45.015625 57.28125 41.125 61.84375 
Q 37.25 66.40625 30.609375 66.40625 
Q 23.96875 66.40625 20.09375 61.84375 
Q 16.21875 57.28125 16.21875 49.421875 
Q 16.21875 41.5 20.09375 36.953125 
Q 23.96875 32.421875 30.609375 32.421875 
z
" id="DejaVuSans-39"/>
    </defs>
    <g transform="translate(836.55 105.891885)scale(0.12 -0.12)">
     <use xlink:href="#DejaVuSans-61"/>
     <use x="61.279297" xlink:href="#DejaVuSans-3d"/>
     <use x="145.068359" xlink:href="#DejaVuSans-31"/>
     <use x="208.691406" xlink:href="#DejaVuSans-34"/>
     <use x="272.314453" xlink:href="#DejaVuSans-2e"/>
     <use x="304.101562" xlink:href="#DejaVuSans-30"/>
     <use x="367.724609" xlink:href="#DejaVuSans-39"/>
     <use x="431.347656" xlink:href="#DejaVuSans-36"/>
    </g>
    <!-- $\mu$=45.624 -->
    <g transform="translate(836.55 119.32926)scale(0.12 -0.12)">
     <use transform="translate(0 0.78125)" xlink:href="#DejaVuSans-Oblique-3bc"/>
     <use transform="translate(63.623047 0.78125)" xlink:href="#DejaVuSans-3d"/>
     <use transform="translate(147.412109 0.78125)" xlink:href="#DejaVuSans-34"/>
     <use transform="translate(211.035156 0.78125)" xlink:href="#DejaVuSans-35"/>
     <use transform="translate(274.658203 0.78125)" xlink:href="#DejaVuSans-2e"/>
     <use transform="translate(306.445312 0.78125)" xlink:href="#DejaVuSans-36"/>
     <use transform="translate(370.068359 0.78125)" xlink:href="#DejaVuSans-32"/>
     <use transform="translate(433.691406 0.78125)" xlink:href="#DejaVuSans-34"/>
    </g>
    <!-- $\sigma$=0.9601 -->
    <g transform="translate(836.55 132.79101)scale(0.12 -0.12)">
     <use transform="translate(0 0.78125)" xlink:href="#DejaVuSans-Oblique-3c3"/>
     <use transform="translate(63.378906 0.78125)" xlink:href="#DejaVuSans-3d"/>
     <use transform="translate(147.167969 0.78125)" xlink:href="#DejaVuSans-30"/>
     <use transform="translate(210.791016 0.78125)" xlink:href="#DejaVuSans-2e"/>
     <use transform="translate(242.578125 0.78125)" xlink:href="#DejaVuSans-39"/>
     <use transform="translate(306.201172 0.78125)" xlink:href="#DejaVuSans-36"/>
     <use transform="translate(369.824219 0.78125)" xlink:href="#DejaVuSans-30"/>
     <use transform="translate(433.447266 0.78125)" xlink:href="#DejaVuSans-31"/>
    </g>
    <!-- offset=51.634 -->
    <g transform="translate(836.55 146.228385)scale(0.12 -0.12)">
     <use xlink:href="#DejaVuSans-6f"/>
     <use x="61.181641" xlink:href="#DejaVuSans-66"/>
     <use x="96.386719" xlink:href="#DejaVuSans-66"/>
     <use x="131.591797" xlink:href="#DejaVuSans-73"/>
     <use x="183.691406" xlink:href="#DejaVuSans-65"/>
     <use x="245.214844" xlink:href="#DejaVuSans-74"/>
     <use x="284.423828" xlink:href="#DejaVuSans-3d"/>
     <use x="368.212891" xlink:href="#DejaVuSans-35"/>
     <use x="431.835938" xlink:href="#DejaVuSans-31"/>
     <use x="495.458984" xlink:href="#DejaVuSans-2e"/>
     <use x="527.246094" xlink:href="#DejaVuSans-36"/>
     <use x="590.869141" xlink:href="#DejaVuSans-33"/>
     <use x="654.492188" xlink:href="#DejaVuSans-34"/>
    </g>
   </g>
   <g id="text_47">
    <!-- Z Axis -->
    <defs>
     <path d="M 5.609375 72.90625 
L 62.890625 72.90625 
L 62.890625 65.375 
L 16.796875 8.296875 
L 64.015625 8.296875 
L 64.015625 0 
L 4.5 0 
L 4.5 7.515625 
L 50.59375 64.59375 
L 5.609375 64.59375 
z
" id="DejaVuSans-5a"/>
    </defs>
    <g transform="translate(943.635 67.2672)scale(0.12 -0.12)">
     <use xlink:href="#DejaVuSans-5a"/>
     <use x="68.505859" xlink:href="#DejaVuSans-20"/>
     <use x="100.292969" xlink:href="#DejaVuSans-41"/>
     <use x="168.701172" xlink:href="#DejaVuSans-78"/>
     <use x="227.880859" xlink:href="#DejaVuSans-69"/>
     <use x="255.664062" xlink:href="#DejaVuSans-73"/>
    </g>
   </g>
  </g>
 </g>
 <defs>
  <clipPath id="pbc25a3ebdd">
   <rect height="470.1312" width="279" x="153" y="73.2672"/>
  </clipPath>
  <clipPath id="p810896682a">
   <rect height="470.1312" width="279" x="487.8" y="73.2672"/>
  </clipPath>
  <clipPath id="p731cbd3fe5">
   <rect height="470.1312" width="279" x="822.6" y="73.2672"/>
  </clipPath>
 </defs>
</svg>
