<?xml version="1.0" encoding="utf-8" standalone="no"?>
<!DOCTYPE svg PUBLIC "-//W3C//DTD SVG 1.1//EN"
  "http://www.w3.org/Graphics/SVG/1.1/DTD/svg11.dtd">
<!-- Created with matplotlib (http://matplotlib.org/) -->
<svg height="610.56pt" version="1.1" viewBox="0 0 792 610.56" width="792pt" xmlns="http://www.w3.org/2000/svg" xmlns:xlink="http://www.w3.org/1999/xlink">
 <defs>
  <style type="text/css">
*{stroke-linecap:butt;stroke-linejoin:round;}
  </style>
 </defs>
 <g id="figure_1">
  <g id="patch_1">
   <path d="M 0 610.56 
L 792 610.56 
L 792 0 
L 0 0 
z
" style="fill:#ffffff;"/>
  </g>
  <g id="axes_1">
   <g id="patch_2">
    <path d="M 99 543.3984 
L 279.529412 543.3984 
L 279.529412 73.2672 
L 99 73.2672 
z
" style="fill:#ffffff;"/>
   </g>
   <g id="matplotlib.axis_1">
    <g id="xtick_1">
     <g id="line2d_1">
      <defs>
       <path d="M 0 0 
L 0 3.5 
" id="m5a3a2fae8d" style="stroke:#000000;stroke-width:0.8;"/>
      </defs>
      <g>
       <use style="stroke:#000000;stroke-width:0.8;" x="99" xlink:href="#m5a3a2fae8d" y="543.3984"/>
      </g>
     </g>
     <g id="text_1">
      <!-- 0.035 -->
      <defs>
       <path d="M 31.78125 66.40625 
Q 24.171875 66.40625 20.328125 58.90625 
Q 16.5 51.421875 16.5 36.375 
Q 16.5 21.390625 20.328125 13.890625 
Q 24.171875 6.390625 31.78125 6.390625 
Q 39.453125 6.390625 43.28125 13.890625 
Q 47.125 21.390625 47.125 36.375 
Q 47.125 51.421875 43.28125 58.90625 
Q 39.453125 66.40625 31.78125 66.40625 
z
M 31.78125 74.21875 
Q 44.046875 74.21875 50.515625 64.515625 
Q 56.984375 54.828125 56.984375 36.375 
Q 56.984375 17.96875 50.515625 8.265625 
Q 44.046875 -1.421875 31.78125 -1.421875 
Q 19.53125 -1.421875 13.0625 8.265625 
Q 6.59375 17.96875 6.59375 36.375 
Q 6.59375 54.828125 13.0625 64.515625 
Q 19.53125 74.21875 31.78125 74.21875 
z
" id="DejaVuSans-30"/>
       <path d="M 10.6875 12.40625 
L 21 12.40625 
L 21 0 
L 10.6875 0 
z
" id="DejaVuSans-2e"/>
       <path d="M 40.578125 39.3125 
Q 47.65625 37.796875 51.625 33 
Q 55.609375 28.21875 55.609375 21.1875 
Q 55.609375 10.40625 48.1875 4.484375 
Q 40.765625 -1.421875 27.09375 -1.421875 
Q 22.515625 -1.421875 17.65625 -0.515625 
Q 12.796875 0.390625 7.625 2.203125 
L 7.625 11.71875 
Q 11.71875 9.328125 16.59375 8.109375 
Q 21.484375 6.890625 26.8125 6.890625 
Q 36.078125 6.890625 40.9375 10.546875 
Q 45.796875 14.203125 45.796875 21.1875 
Q 45.796875 27.640625 41.28125 31.265625 
Q 36.765625 34.90625 28.71875 34.90625 
L 20.21875 34.90625 
L 20.21875 43.015625 
L 29.109375 43.015625 
Q 36.375 43.015625 40.234375 45.921875 
Q 44.09375 48.828125 44.09375 54.296875 
Q 44.09375 59.90625 40.109375 62.90625 
Q 36.140625 65.921875 28.71875 65.921875 
Q 24.65625 65.921875 20.015625 65.03125 
Q 15.375 64.15625 9.8125 62.3125 
L 9.8125 71.09375 
Q 15.4375 72.65625 20.34375 73.4375 
Q 25.25 74.21875 29.59375 74.21875 
Q 40.828125 74.21875 47.359375 69.109375 
Q 53.90625 64.015625 53.90625 55.328125 
Q 53.90625 49.265625 50.4375 45.09375 
Q 46.96875 40.921875 40.578125 39.3125 
z
" id="DejaVuSans-33"/>
       <path d="M 10.796875 72.90625 
L 49.515625 72.90625 
L 49.515625 64.59375 
L 19.828125 64.59375 
L 19.828125 46.734375 
Q 21.96875 47.46875 24.109375 47.828125 
Q 26.265625 48.1875 28.421875 48.1875 
Q 40.625 48.1875 47.75 41.5 
Q 54.890625 34.8125 54.890625 23.390625 
Q 54.890625 11.625 47.5625 5.09375 
Q 40.234375 -1.421875 26.90625 -1.421875 
Q 22.3125 -1.421875 17.546875 -0.640625 
Q 12.796875 0.140625 7.71875 1.703125 
L 7.71875 11.625 
Q 12.109375 9.234375 16.796875 8.0625 
Q 21.484375 6.890625 26.703125 6.890625 
Q 35.15625 6.890625 40.078125 11.328125 
Q 45.015625 15.765625 45.015625 23.390625 
Q 45.015625 31 40.078125 35.4375 
Q 35.15625 39.890625 26.703125 39.890625 
Q 22.75 39.890625 18.8125 39.015625 
Q 14.890625 38.140625 10.796875 36.28125 
z
" id="DejaVuSans-35"/>
      </defs>
      <g transform="translate(84.685937 557.996838)scale(0.1 -0.1)">
       <use xlink:href="#DejaVuSans-30"/>
       <use x="63.623047" xlink:href="#DejaVuSans-2e"/>
       <use x="95.410156" xlink:href="#DejaVuSans-30"/>
       <use x="159.033203" xlink:href="#DejaVuSans-33"/>
       <use x="222.65625" xlink:href="#DejaVuSans-35"/>
      </g>
     </g>
    </g>
    <g id="xtick_2">
     <g id="line2d_2">
      <g>
       <use style="stroke:#000000;stroke-width:0.8;" x="140.029412" xlink:href="#m5a3a2fae8d" y="543.3984"/>
      </g>
     </g>
     <g id="text_2">
      <!-- 0.040 -->
      <defs>
       <path d="M 37.796875 64.3125 
L 12.890625 25.390625 
L 37.796875 25.390625 
z
M 35.203125 72.90625 
L 47.609375 72.90625 
L 47.609375 25.390625 
L 58.015625 25.390625 
L 58.015625 17.1875 
L 47.609375 17.1875 
L 47.609375 0 
L 37.796875 0 
L 37.796875 17.1875 
L 4.890625 17.1875 
L 4.890625 26.703125 
z
" id="DejaVuSans-34"/>
      </defs>
      <g transform="translate(125.715349 557.996838)scale(0.1 -0.1)">
       <use xlink:href="#DejaVuSans-30"/>
       <use x="63.623047" xlink:href="#DejaVuSans-2e"/>
       <use x="95.410156" xlink:href="#DejaVuSans-30"/>
       <use x="159.033203" xlink:href="#DejaVuSans-34"/>
       <use x="222.65625" xlink:href="#DejaVuSans-30"/>
      </g>
     </g>
    </g>
    <g id="xtick_3">
     <g id="line2d_3">
      <g>
       <use style="stroke:#000000;stroke-width:0.8;" x="181.058824" xlink:href="#m5a3a2fae8d" y="543.3984"/>
      </g>
     </g>
     <g id="text_3">
      <!-- 0.045 -->
      <g transform="translate(166.744761 557.996838)scale(0.1 -0.1)">
       <use xlink:href="#DejaVuSans-30"/>
       <use x="63.623047" xlink:href="#DejaVuSans-2e"/>
       <use x="95.410156" xlink:href="#DejaVuSans-30"/>
       <use x="159.033203" xlink:href="#DejaVuSans-34"/>
       <use x="222.65625" xlink:href="#DejaVuSans-35"/>
      </g>
     </g>
    </g>
    <g id="xtick_4">
     <g id="line2d_4">
      <g>
       <use style="stroke:#000000;stroke-width:0.8;" x="222.088235" xlink:href="#m5a3a2fae8d" y="543.3984"/>
      </g>
     </g>
     <g id="text_4">
      <!-- 0.050 -->
      <g transform="translate(207.774173 557.996838)scale(0.1 -0.1)">
       <use xlink:href="#DejaVuSans-30"/>
       <use x="63.623047" xlink:href="#DejaVuSans-2e"/>
       <use x="95.410156" xlink:href="#DejaVuSans-30"/>
       <use x="159.033203" xlink:href="#DejaVuSans-35"/>
       <use x="222.65625" xlink:href="#DejaVuSans-30"/>
      </g>
     </g>
    </g>
    <g id="xtick_5">
     <g id="line2d_5">
      <g>
       <use style="stroke:#000000;stroke-width:0.8;" x="263.117647" xlink:href="#m5a3a2fae8d" y="543.3984"/>
      </g>
     </g>
     <g id="text_5">
      <!-- 0.055 -->
      <g transform="translate(248.803585 557.996838)scale(0.1 -0.1)">
       <use xlink:href="#DejaVuSans-30"/>
       <use x="63.623047" xlink:href="#DejaVuSans-2e"/>
       <use x="95.410156" xlink:href="#DejaVuSans-30"/>
       <use x="159.033203" xlink:href="#DejaVuSans-35"/>
       <use x="222.65625" xlink:href="#DejaVuSans-35"/>
      </g>
     </g>
    </g>
   </g>
   <g id="matplotlib.axis_2">
    <g id="ytick_1">
     <g id="line2d_6">
      <defs>
       <path d="M 0 0 
L -3.5 0 
" id="me07faa9cc8" style="stroke:#000000;stroke-width:0.8;"/>
      </defs>
      <g>
       <use style="stroke:#000000;stroke-width:0.8;" x="99" xlink:href="#me07faa9cc8" y="500.058702"/>
      </g>
     </g>
     <g id="text_6">
      <!-- 100 -->
      <defs>
       <path d="M 12.40625 8.296875 
L 28.515625 8.296875 
L 28.515625 63.921875 
L 10.984375 60.40625 
L 10.984375 69.390625 
L 28.421875 72.90625 
L 38.28125 72.90625 
L 38.28125 8.296875 
L 54.390625 8.296875 
L 54.390625 0 
L 12.40625 0 
z
" id="DejaVuSans-31"/>
      </defs>
      <g transform="translate(72.9125 503.857921)scale(0.1 -0.1)">
       <use xlink:href="#DejaVuSans-31"/>
       <use x="63.623047" xlink:href="#DejaVuSans-30"/>
       <use x="127.246094" xlink:href="#DejaVuSans-30"/>
      </g>
     </g>
    </g>
    <g id="ytick_2">
     <g id="line2d_7">
      <g>
       <use style="stroke:#000000;stroke-width:0.8;" x="99" xlink:href="#me07faa9cc8" y="447.748944"/>
      </g>
     </g>
     <g id="text_7">
      <!-- 150 -->
      <g transform="translate(72.9125 451.548163)scale(0.1 -0.1)">
       <use xlink:href="#DejaVuSans-31"/>
       <use x="63.623047" xlink:href="#DejaVuSans-35"/>
       <use x="127.246094" xlink:href="#DejaVuSans-30"/>
      </g>
     </g>
    </g>
    <g id="ytick_3">
     <g id="line2d_8">
      <g>
       <use style="stroke:#000000;stroke-width:0.8;" x="99" xlink:href="#me07faa9cc8" y="395.439186"/>
      </g>
     </g>
     <g id="text_8">
      <!-- 200 -->
      <defs>
       <path d="M 19.1875 8.296875 
L 53.609375 8.296875 
L 53.609375 0 
L 7.328125 0 
L 7.328125 8.296875 
Q 12.9375 14.109375 22.625 23.890625 
Q 32.328125 33.6875 34.8125 36.53125 
Q 39.546875 41.84375 41.421875 45.53125 
Q 43.3125 49.21875 43.3125 52.78125 
Q 43.3125 58.59375 39.234375 62.25 
Q 35.15625 65.921875 28.609375 65.921875 
Q 23.96875 65.921875 18.8125 64.3125 
Q 13.671875 62.703125 7.8125 59.421875 
L 7.8125 69.390625 
Q 13.765625 71.78125 18.9375 73 
Q 24.125 74.21875 28.421875 74.21875 
Q 39.75 74.21875 46.484375 68.546875 
Q 53.21875 62.890625 53.21875 53.421875 
Q 53.21875 48.921875 51.53125 44.890625 
Q 49.859375 40.875 45.40625 35.40625 
Q 44.1875 33.984375 37.640625 27.21875 
Q 31.109375 20.453125 19.1875 8.296875 
z
" id="DejaVuSans-32"/>
      </defs>
      <g transform="translate(72.9125 399.238405)scale(0.1 -0.1)">
       <use xlink:href="#DejaVuSans-32"/>
       <use x="63.623047" xlink:href="#DejaVuSans-30"/>
       <use x="127.246094" xlink:href="#DejaVuSans-30"/>
      </g>
     </g>
    </g>
    <g id="ytick_4">
     <g id="line2d_9">
      <g>
       <use style="stroke:#000000;stroke-width:0.8;" x="99" xlink:href="#me07faa9cc8" y="343.129429"/>
      </g>
     </g>
     <g id="text_9">
      <!-- 250 -->
      <g transform="translate(72.9125 346.928647)scale(0.1 -0.1)">
       <use xlink:href="#DejaVuSans-32"/>
       <use x="63.623047" xlink:href="#DejaVuSans-35"/>
       <use x="127.246094" xlink:href="#DejaVuSans-30"/>
      </g>
     </g>
    </g>
    <g id="ytick_5">
     <g id="line2d_10">
      <g>
       <use style="stroke:#000000;stroke-width:0.8;" x="99" xlink:href="#me07faa9cc8" y="290.819671"/>
      </g>
     </g>
     <g id="text_10">
      <!-- 300 -->
      <g transform="translate(72.9125 294.61889)scale(0.1 -0.1)">
       <use xlink:href="#DejaVuSans-33"/>
       <use x="63.623047" xlink:href="#DejaVuSans-30"/>
       <use x="127.246094" xlink:href="#DejaVuSans-30"/>
      </g>
     </g>
    </g>
    <g id="ytick_6">
     <g id="line2d_11">
      <g>
       <use style="stroke:#000000;stroke-width:0.8;" x="99" xlink:href="#me07faa9cc8" y="238.509913"/>
      </g>
     </g>
     <g id="text_11">
      <!-- 350 -->
      <g transform="translate(72.9125 242.309132)scale(0.1 -0.1)">
       <use xlink:href="#DejaVuSans-33"/>
       <use x="63.623047" xlink:href="#DejaVuSans-35"/>
       <use x="127.246094" xlink:href="#DejaVuSans-30"/>
      </g>
     </g>
    </g>
    <g id="ytick_7">
     <g id="line2d_12">
      <g>
       <use style="stroke:#000000;stroke-width:0.8;" x="99" xlink:href="#me07faa9cc8" y="186.200156"/>
      </g>
     </g>
     <g id="text_12">
      <!-- 400 -->
      <g transform="translate(72.9125 189.999374)scale(0.1 -0.1)">
       <use xlink:href="#DejaVuSans-34"/>
       <use x="63.623047" xlink:href="#DejaVuSans-30"/>
       <use x="127.246094" xlink:href="#DejaVuSans-30"/>
      </g>
     </g>
    </g>
    <g id="ytick_8">
     <g id="line2d_13">
      <g>
       <use style="stroke:#000000;stroke-width:0.8;" x="99" xlink:href="#me07faa9cc8" y="133.890398"/>
      </g>
     </g>
     <g id="text_13">
      <!-- 450 -->
      <g transform="translate(72.9125 137.689617)scale(0.1 -0.1)">
       <use xlink:href="#DejaVuSans-34"/>
       <use x="63.623047" xlink:href="#DejaVuSans-35"/>
       <use x="127.246094" xlink:href="#DejaVuSans-30"/>
      </g>
     </g>
    </g>
    <g id="ytick_9">
     <g id="line2d_14">
      <g>
       <use style="stroke:#000000;stroke-width:0.8;" x="99" xlink:href="#me07faa9cc8" y="81.58064"/>
      </g>
     </g>
     <g id="text_14">
      <!-- 500 -->
      <g transform="translate(72.9125 85.379859)scale(0.1 -0.1)">
       <use xlink:href="#DejaVuSans-35"/>
       <use x="63.623047" xlink:href="#DejaVuSans-30"/>
       <use x="127.246094" xlink:href="#DejaVuSans-30"/>
      </g>
     </g>
    </g>
   </g>
   <g id="line2d_15">
    <path clip-path="url(#p07255db77c)" d="M 107.205882 506.335873 
L 109.941176 487.50436 
L 112.676471 495.873921 
L 115.411765 513.659239 
L 118.147059 494.827726 
L 120.882353 502.151092 
L 123.617647 518.890215 
L 126.352941 509.474458 
L 129.088235 518.890215 
L 131.823529 514.705434 
L 134.558824 497.966311 
L 137.294118 519.93641 
L 140.029412 501.104897 
L 142.764706 514.705434 
L 145.5 513.659239 
L 148.235294 505.289678 
L 150.970588 518.890215 
L 153.705882 500.058702 
L 156.441176 506.335873 
L 159.176471 497.966311 
L 161.911765 485.41197 
L 164.647059 513.659239 
L 167.382353 489.59675 
L 170.117647 517.844019 
L 172.852941 474.950018 
L 175.588235 448.795139 
L 178.323529 423.686456 
L 181.058824 223.863181 
L 183.794118 131.798008 
L 186.529412 108.781714 
L 189.264706 133.890398 
L 192 194.569717 
L 194.735294 280.357719 
L 197.470588 402.762552 
L 200.205882 438.333188 
L 202.941176 452.97992 
L 205.676471 508.428263 
L 208.411765 490.642945 
L 211.147059 482.273384 
L 213.882353 519.93641 
L 216.617647 508.428263 
L 219.352941 492.735336 
L 222.088235 480.180994 
L 224.823529 505.289678 
L 227.558824 501.104897 
L 230.294118 499.012507 
L 233.029412 517.844019 
L 235.764706 502.151092 
L 238.5 522.0288 
L 241.235294 514.705434 
L 243.970588 438.333188 
L 246.705882 510.520653 
L 249.441176 494.827726 
L 252.176471 519.93641 
L 254.911765 499.012507 
L 257.647059 522.0288 
L 260.382353 511.566848 
L 263.117647 510.520653 
L 265.852941 515.751629 
L 268.588235 511.566848 
L 271.323529 514.705434 
" style="fill:none;stroke:#1f77b4;stroke-linecap:square;stroke-width:1.5;"/>
   </g>
   <g id="line2d_16">
    <path clip-path="url(#p07255db77c)" d="M 107.205882 504.802565 
L 162.240329 504.691454 
L 164.04743 504.457053 
L 165.197403 504.121879 
L 166.183095 503.617984 
L 167.004505 502.958565 
L 167.825914 501.981617 
L 168.483042 500.888233 
L 169.14017 499.431252 
L 169.797297 497.513642 
L 170.454425 495.021041 
L 171.275835 490.894091 
L 172.097244 485.367308 
L 172.918654 478.113161 
L 173.740064 468.784091 
L 174.561473 457.033192 
L 175.547165 439.291216 
L 176.532856 417.184431 
L 177.68283 385.635971 
L 178.997085 342.38018 
L 180.639905 280.137153 
L 183.596979 166.806224 
L 184.746953 132.047267 
L 185.568362 113.317864 
L 186.22549 102.731521 
L 186.718336 97.593271 
L 187.0469 95.559023 
L 187.375464 94.658872 
L 187.539746 94.6368 
L 187.704028 94.900325 
L 188.032591 96.281367 
L 188.361155 98.790489 
L 188.854001 104.62123 
L 189.511129 116.074549 
L 190.332538 135.76027 
L 191.31823 165.950279 
L 192.632485 213.965226 
L 196.575252 364.063635 
L 197.889507 403.733739 
L 199.039481 431.871217 
L 200.025172 451.141717 
L 201.010864 466.298083 
L 201.996555 477.857733 
L 202.817965 485.170744 
L 203.639375 490.745861 
L 204.460784 494.911473 
L 205.282194 497.962775 
L 206.103604 500.154425 
L 206.925013 501.698339 
L 207.746423 502.765216 
L 208.567833 503.488505 
L 209.553524 504.043825 
L 210.703498 504.415259 
L 212.182035 504.647399 
L 214.646264 504.772762 
L 221.710387 504.802454 
L 271.323529 504.802565 
L 271.323529 504.802565 
" style="fill:none;stroke:#ff7f0e;stroke-linecap:square;stroke-width:1.5;"/>
   </g>
   <g id="patch_3">
    <path d="M 99 543.3984 
L 99 73.2672 
" style="fill:none;stroke:#000000;stroke-linecap:square;stroke-linejoin:miter;stroke-width:0.8;"/>
   </g>
   <g id="patch_4">
    <path d="M 279.529412 543.3984 
L 279.529412 73.2672 
" style="fill:none;stroke:#000000;stroke-linecap:square;stroke-linejoin:miter;stroke-width:0.8;"/>
   </g>
   <g id="patch_5">
    <path d="M 99 543.3984 
L 279.529412 543.3984 
" style="fill:none;stroke:#000000;stroke-linecap:square;stroke-linejoin:miter;stroke-width:0.8;"/>
   </g>
   <g id="patch_6">
    <path d="M 99 73.2672 
L 279.529412 73.2672 
" style="fill:none;stroke:#000000;stroke-linecap:square;stroke-linejoin:miter;stroke-width:0.8;"/>
   </g>
   <g id="text_15">
    <g id="patch_7">
     <path d="M 108.026471 152.32401 
L 194.201471 152.32401 
Q 197.801471 152.32401 197.801471 148.72401 
L 197.801471 96.77376 
Q 197.801471 93.17376 194.201471 93.17376 
L 108.026471 93.17376 
Q 104.426471 93.17376 104.426471 96.77376 
L 104.426471 148.72401 
Q 104.426471 152.32401 108.026471 152.32401 
z
" style="fill:#f5deb3;opacity:0.5;stroke:#000000;stroke-linejoin:miter;"/>
    </g>
    <!-- a=392.079 -->
    <defs>
     <path d="M 34.28125 27.484375 
Q 23.390625 27.484375 19.1875 25 
Q 14.984375 22.515625 14.984375 16.5 
Q 14.984375 11.71875 18.140625 8.90625 
Q 21.296875 6.109375 26.703125 6.109375 
Q 34.1875 6.109375 38.703125 11.40625 
Q 43.21875 16.703125 43.21875 25.484375 
L 43.21875 27.484375 
z
M 52.203125 31.203125 
L 52.203125 0 
L 43.21875 0 
L 43.21875 8.296875 
Q 40.140625 3.328125 35.546875 0.953125 
Q 30.953125 -1.421875 24.3125 -1.421875 
Q 15.921875 -1.421875 10.953125 3.296875 
Q 6 8.015625 6 15.921875 
Q 6 25.140625 12.171875 29.828125 
Q 18.359375 34.515625 30.609375 34.515625 
L 43.21875 34.515625 
L 43.21875 35.40625 
Q 43.21875 41.609375 39.140625 45 
Q 35.0625 48.390625 27.6875 48.390625 
Q 23 48.390625 18.546875 47.265625 
Q 14.109375 46.140625 10.015625 43.890625 
L 10.015625 52.203125 
Q 14.9375 54.109375 19.578125 55.046875 
Q 24.21875 56 28.609375 56 
Q 40.484375 56 46.34375 49.84375 
Q 52.203125 43.703125 52.203125 31.203125 
z
" id="DejaVuSans-61"/>
     <path d="M 10.59375 45.40625 
L 73.1875 45.40625 
L 73.1875 37.203125 
L 10.59375 37.203125 
z
M 10.59375 25.484375 
L 73.1875 25.484375 
L 73.1875 17.1875 
L 10.59375 17.1875 
z
" id="DejaVuSans-3d"/>
     <path d="M 10.984375 1.515625 
L 10.984375 10.5 
Q 14.703125 8.734375 18.5 7.8125 
Q 22.3125 6.890625 25.984375 6.890625 
Q 35.75 6.890625 40.890625 13.453125 
Q 46.046875 20.015625 46.78125 33.40625 
Q 43.953125 29.203125 39.59375 26.953125 
Q 35.25 24.703125 29.984375 24.703125 
Q 19.046875 24.703125 12.671875 31.3125 
Q 6.296875 37.9375 6.296875 49.421875 
Q 6.296875 60.640625 12.9375 67.421875 
Q 19.578125 74.21875 30.609375 74.21875 
Q 43.265625 74.21875 49.921875 64.515625 
Q 56.59375 54.828125 56.59375 36.375 
Q 56.59375 19.140625 48.40625 8.859375 
Q 40.234375 -1.421875 26.421875 -1.421875 
Q 22.703125 -1.421875 18.890625 -0.6875 
Q 15.09375 0.046875 10.984375 1.515625 
z
M 30.609375 32.421875 
Q 37.25 32.421875 41.125 36.953125 
Q 45.015625 41.5 45.015625 49.421875 
Q 45.015625 57.28125 41.125 61.84375 
Q 37.25 66.40625 30.609375 66.40625 
Q 23.96875 66.40625 20.09375 61.84375 
Q 16.21875 57.28125 16.21875 49.421875 
Q 16.21875 41.5 20.09375 36.953125 
Q 23.96875 32.421875 30.609375 32.421875 
z
" id="DejaVuSans-39"/>
     <path d="M 8.203125 72.90625 
L 55.078125 72.90625 
L 55.078125 68.703125 
L 28.609375 0 
L 18.3125 0 
L 43.21875 64.59375 
L 8.203125 64.59375 
z
" id="DejaVuSans-37"/>
    </defs>
    <g transform="translate(108.026471 105.891885)scale(0.12 -0.12)">
     <use xlink:href="#DejaVuSans-61"/>
     <use x="61.279297" xlink:href="#DejaVuSans-3d"/>
     <use x="145.068359" xlink:href="#DejaVuSans-33"/>
     <use x="208.691406" xlink:href="#DejaVuSans-39"/>
     <use x="272.314453" xlink:href="#DejaVuSans-32"/>
     <use x="335.9375" xlink:href="#DejaVuSans-2e"/>
     <use x="367.724609" xlink:href="#DejaVuSans-30"/>
     <use x="431.347656" xlink:href="#DejaVuSans-37"/>
     <use x="494.970703" xlink:href="#DejaVuSans-39"/>
    </g>
    <!-- $\mu$=0.046 -->
    <defs>
     <path d="M -1.3125 -20.796875 
L 13.375 54.6875 
L 22.40625 54.6875 
L 15.765625 20.65625 
Q 15.578125 19.625 15.421875 18.359375 
Q 15.28125 17.09375 15.28125 15.828125 
Q 15.28125 11.28125 18.140625 8.828125 
Q 21 6.390625 26.3125 6.390625 
Q 33.546875 6.390625 37.984375 10.484375 
Q 42.4375 14.59375 44 22.796875 
L 50.203125 54.6875 
L 59.1875 54.6875 
L 51.03125 12.640625 
Q 50.828125 11.71875 50.75 11.03125 
Q 50.6875 10.359375 50.6875 9.8125 
Q 50.6875 8.296875 51.296875 7.59375 
Q 51.90625 6.890625 53.21875 6.890625 
Q 53.71875 6.890625 54.5625 7.125 
Q 55.421875 7.375 56.984375 8.015625 
L 55.609375 0.78125 
Q 53.46875 -0.296875 51.515625 -0.859375 
Q 49.5625 -1.421875 47.703125 -1.421875 
Q 44.484375 -1.421875 42.65625 0.625 
Q 40.828125 2.6875 40.828125 6.296875 
Q 38.09375 2.390625 34.296875 0.484375 
Q 30.515625 -1.421875 25.390625 -1.421875 
Q 20.84375 -1.421875 17.453125 0.671875 
Q 14.0625 2.78125 12.984375 6.203125 
L 7.71875 -20.796875 
z
" id="DejaVuSans-Oblique-3bc"/>
     <path d="M 33.015625 40.375 
Q 26.375 40.375 22.484375 35.828125 
Q 18.609375 31.296875 18.609375 23.390625 
Q 18.609375 15.53125 22.484375 10.953125 
Q 26.375 6.390625 33.015625 6.390625 
Q 39.65625 6.390625 43.53125 10.953125 
Q 47.40625 15.53125 47.40625 23.390625 
Q 47.40625 31.296875 43.53125 35.828125 
Q 39.65625 40.375 33.015625 40.375 
z
M 52.59375 71.296875 
L 52.59375 62.3125 
Q 48.875 64.0625 45.09375 64.984375 
Q 41.3125 65.921875 37.59375 65.921875 
Q 27.828125 65.921875 22.671875 59.328125 
Q 17.53125 52.734375 16.796875 39.40625 
Q 19.671875 43.65625 24.015625 45.921875 
Q 28.375 48.1875 33.59375 48.1875 
Q 44.578125 48.1875 50.953125 41.515625 
Q 57.328125 34.859375 57.328125 23.390625 
Q 57.328125 12.15625 50.6875 5.359375 
Q 44.046875 -1.421875 33.015625 -1.421875 
Q 20.359375 -1.421875 13.671875 8.265625 
Q 6.984375 17.96875 6.984375 36.375 
Q 6.984375 53.65625 15.1875 63.9375 
Q 23.390625 74.21875 37.203125 74.21875 
Q 40.921875 74.21875 44.703125 73.484375 
Q 48.484375 72.75 52.59375 71.296875 
z
" id="DejaVuSans-36"/>
    </defs>
    <g transform="translate(108.026471 119.32926)scale(0.12 -0.12)">
     <use transform="translate(0 0.78125)" xlink:href="#DejaVuSans-Oblique-3bc"/>
     <use transform="translate(63.623047 0.78125)" xlink:href="#DejaVuSans-3d"/>
     <use transform="translate(147.412109 0.78125)" xlink:href="#DejaVuSans-30"/>
     <use transform="translate(211.035156 0.78125)" xlink:href="#DejaVuSans-2e"/>
     <use transform="translate(242.822266 0.78125)" xlink:href="#DejaVuSans-30"/>
     <use transform="translate(306.445312 0.78125)" xlink:href="#DejaVuSans-34"/>
     <use transform="translate(370.068359 0.78125)" xlink:href="#DejaVuSans-36"/>
    </g>
    <!-- $\sigma$=0.001 -->
    <defs>
     <path d="M 34.671875 47.5625 
Q 27.25 47.5625 22.21875 42.1875 
Q 16.890625 36.578125 15.140625 27.296875 
Q 13.1875 17.484375 16.3125 11.8125 
Q 19.390625 6.203125 26.65625 6.203125 
Q 33.84375 6.203125 39.109375 11.859375 
Q 44.4375 17.53125 46.34375 27.296875 
Q 48.046875 36.234375 45.015625 42.1875 
Q 42.1875 47.5625 34.671875 47.5625 
z
M 36.078125 54.734375 
L 65.921875 54.6875 
L 64.15625 45.703125 
L 54.109375 45.703125 
Q 57.90625 38.09375 55.859375 27.296875 
Q 53.21875 13.875 45.0625 6.25 
Q 36.859375 -1.421875 25.140625 -1.421875 
Q 13.375 -1.421875 8.203125 6.25 
Q 3.03125 13.875 5.671875 27.296875 
Q 8.25 40.765625 16.40625 48.390625 
Q 23.1875 54.734375 36.078125 54.734375 
z
" id="DejaVuSans-Oblique-3c3"/>
    </defs>
    <g transform="translate(108.026471 132.79101)scale(0.12 -0.12)">
     <use transform="translate(0 0.78125)" xlink:href="#DejaVuSans-Oblique-3c3"/>
     <use transform="translate(63.378906 0.78125)" xlink:href="#DejaVuSans-3d"/>
     <use transform="translate(147.167969 0.78125)" xlink:href="#DejaVuSans-30"/>
     <use transform="translate(210.791016 0.78125)" xlink:href="#DejaVuSans-2e"/>
     <use transform="translate(242.578125 0.78125)" xlink:href="#DejaVuSans-30"/>
     <use transform="translate(306.201172 0.78125)" xlink:href="#DejaVuSans-30"/>
     <use transform="translate(369.824219 0.78125)" xlink:href="#DejaVuSans-31"/>
    </g>
    <!-- offset=95.466 -->
    <defs>
     <path d="M 30.609375 48.390625 
Q 23.390625 48.390625 19.1875 42.75 
Q 14.984375 37.109375 14.984375 27.296875 
Q 14.984375 17.484375 19.15625 11.84375 
Q 23.34375 6.203125 30.609375 6.203125 
Q 37.796875 6.203125 41.984375 11.859375 
Q 46.1875 17.53125 46.1875 27.296875 
Q 46.1875 37.015625 41.984375 42.703125 
Q 37.796875 48.390625 30.609375 48.390625 
z
M 30.609375 56 
Q 42.328125 56 49.015625 48.375 
Q 55.71875 40.765625 55.71875 27.296875 
Q 55.71875 13.875 49.015625 6.21875 
Q 42.328125 -1.421875 30.609375 -1.421875 
Q 18.84375 -1.421875 12.171875 6.21875 
Q 5.515625 13.875 5.515625 27.296875 
Q 5.515625 40.765625 12.171875 48.375 
Q 18.84375 56 30.609375 56 
z
" id="DejaVuSans-6f"/>
     <path d="M 37.109375 75.984375 
L 37.109375 68.5 
L 28.515625 68.5 
Q 23.6875 68.5 21.796875 66.546875 
Q 19.921875 64.59375 19.921875 59.515625 
L 19.921875 54.6875 
L 34.71875 54.6875 
L 34.71875 47.703125 
L 19.921875 47.703125 
L 19.921875 0 
L 10.890625 0 
L 10.890625 47.703125 
L 2.296875 47.703125 
L 2.296875 54.6875 
L 10.890625 54.6875 
L 10.890625 58.5 
Q 10.890625 67.625 15.140625 71.796875 
Q 19.390625 75.984375 28.609375 75.984375 
z
" id="DejaVuSans-66"/>
     <path d="M 44.28125 53.078125 
L 44.28125 44.578125 
Q 40.484375 46.53125 36.375 47.5 
Q 32.28125 48.484375 27.875 48.484375 
Q 21.1875 48.484375 17.84375 46.4375 
Q 14.5 44.390625 14.5 40.28125 
Q 14.5 37.15625 16.890625 35.375 
Q 19.28125 33.59375 26.515625 31.984375 
L 29.59375 31.296875 
Q 39.15625 29.25 43.1875 25.515625 
Q 47.21875 21.78125 47.21875 15.09375 
Q 47.21875 7.46875 41.1875 3.015625 
Q 35.15625 -1.421875 24.609375 -1.421875 
Q 20.21875 -1.421875 15.453125 -0.5625 
Q 10.6875 0.296875 5.421875 2 
L 5.421875 11.28125 
Q 10.40625 8.6875 15.234375 7.390625 
Q 20.0625 6.109375 24.8125 6.109375 
Q 31.15625 6.109375 34.5625 8.28125 
Q 37.984375 10.453125 37.984375 14.40625 
Q 37.984375 18.0625 35.515625 20.015625 
Q 33.0625 21.96875 24.703125 23.78125 
L 21.578125 24.515625 
Q 13.234375 26.265625 9.515625 29.90625 
Q 5.8125 33.546875 5.8125 39.890625 
Q 5.8125 47.609375 11.28125 51.796875 
Q 16.75 56 26.8125 56 
Q 31.78125 56 36.171875 55.265625 
Q 40.578125 54.546875 44.28125 53.078125 
z
" id="DejaVuSans-73"/>
     <path d="M 56.203125 29.59375 
L 56.203125 25.203125 
L 14.890625 25.203125 
Q 15.484375 15.921875 20.484375 11.0625 
Q 25.484375 6.203125 34.421875 6.203125 
Q 39.59375 6.203125 44.453125 7.46875 
Q 49.3125 8.734375 54.109375 11.28125 
L 54.109375 2.78125 
Q 49.265625 0.734375 44.1875 -0.34375 
Q 39.109375 -1.421875 33.890625 -1.421875 
Q 20.796875 -1.421875 13.15625 6.1875 
Q 5.515625 13.8125 5.515625 26.8125 
Q 5.515625 40.234375 12.765625 48.109375 
Q 20.015625 56 32.328125 56 
Q 43.359375 56 49.78125 48.890625 
Q 56.203125 41.796875 56.203125 29.59375 
z
M 47.21875 32.234375 
Q 47.125 39.59375 43.09375 43.984375 
Q 39.0625 48.390625 32.421875 48.390625 
Q 24.90625 48.390625 20.390625 44.140625 
Q 15.875 39.890625 15.1875 32.171875 
z
" id="DejaVuSans-65"/>
     <path d="M 18.3125 70.21875 
L 18.3125 54.6875 
L 36.8125 54.6875 
L 36.8125 47.703125 
L 18.3125 47.703125 
L 18.3125 18.015625 
Q 18.3125 11.328125 20.140625 9.421875 
Q 21.96875 7.515625 27.59375 7.515625 
L 36.8125 7.515625 
L 36.8125 0 
L 27.59375 0 
Q 17.1875 0 13.234375 3.875 
Q 9.28125 7.765625 9.28125 18.015625 
L 9.28125 47.703125 
L 2.6875 47.703125 
L 2.6875 54.6875 
L 9.28125 54.6875 
L 9.28125 70.21875 
z
" id="DejaVuSans-74"/>
    </defs>
    <g transform="translate(108.026471 146.228385)scale(0.12 -0.12)">
     <use xlink:href="#DejaVuSans-6f"/>
     <use x="61.181641" xlink:href="#DejaVuSans-66"/>
     <use x="96.386719" xlink:href="#DejaVuSans-66"/>
     <use x="131.591797" xlink:href="#DejaVuSans-73"/>
     <use x="183.691406" xlink:href="#DejaVuSans-65"/>
     <use x="245.214844" xlink:href="#DejaVuSans-74"/>
     <use x="284.423828" xlink:href="#DejaVuSans-3d"/>
     <use x="368.212891" xlink:href="#DejaVuSans-39"/>
     <use x="431.835938" xlink:href="#DejaVuSans-35"/>
     <use x="495.458984" xlink:href="#DejaVuSans-2e"/>
     <use x="527.246094" xlink:href="#DejaVuSans-34"/>
     <use x="590.869141" xlink:href="#DejaVuSans-36"/>
     <use x="654.492188" xlink:href="#DejaVuSans-36"/>
    </g>
   </g>
   <g id="text_16">
    <!-- X Axis -->
    <defs>
     <path d="M 6.296875 72.90625 
L 16.890625 72.90625 
L 35.015625 45.796875 
L 53.21875 72.90625 
L 63.8125 72.90625 
L 40.375 37.890625 
L 65.375 0 
L 54.78125 0 
L 34.28125 31 
L 13.625 0 
L 2.984375 0 
L 29 38.921875 
z
" id="DejaVuSans-58"/>
     <path id="DejaVuSans-20"/>
     <path d="M 34.1875 63.1875 
L 20.796875 26.90625 
L 47.609375 26.90625 
z
M 28.609375 72.90625 
L 39.796875 72.90625 
L 67.578125 0 
L 57.328125 0 
L 50.6875 18.703125 
L 17.828125 18.703125 
L 11.1875 0 
L 0.78125 0 
z
" id="DejaVuSans-41"/>
     <path d="M 54.890625 54.6875 
L 35.109375 28.078125 
L 55.90625 0 
L 45.3125 0 
L 29.390625 21.484375 
L 13.484375 0 
L 2.875 0 
L 24.125 28.609375 
L 4.6875 54.6875 
L 15.28125 54.6875 
L 29.78125 35.203125 
L 44.28125 54.6875 
z
" id="DejaVuSans-78"/>
     <path d="M 9.421875 54.6875 
L 18.40625 54.6875 
L 18.40625 0 
L 9.421875 0 
z
M 9.421875 75.984375 
L 18.40625 75.984375 
L 18.40625 64.59375 
L 9.421875 64.59375 
z
" id="DejaVuSans-69"/>
    </defs>
    <g transform="translate(170.799706 67.2672)scale(0.12 -0.12)">
     <use xlink:href="#DejaVuSans-58"/>
     <use x="68.505859" xlink:href="#DejaVuSans-20"/>
     <use x="100.292969" xlink:href="#DejaVuSans-41"/>
     <use x="168.701172" xlink:href="#DejaVuSans-78"/>
     <use x="227.880859" xlink:href="#DejaVuSans-69"/>
     <use x="255.664062" xlink:href="#DejaVuSans-73"/>
    </g>
   </g>
  </g>
  <g id="axes_2">
   <g id="patch_8">
    <path d="M 315.635294 543.3984 
L 496.164706 543.3984 
L 496.164706 73.2672 
L 315.635294 73.2672 
z
" style="fill:#ffffff;"/>
   </g>
   <g id="matplotlib.axis_3">
    <g id="xtick_6">
     <g id="line2d_17">
      <g>
       <use style="stroke:#000000;stroke-width:0.8;" x="315.635294" xlink:href="#m5a3a2fae8d" y="543.3984"/>
      </g>
     </g>
     <g id="text_17">
      <!-- −0.005 -->
      <defs>
       <path d="M 10.59375 35.5 
L 73.1875 35.5 
L 73.1875 27.203125 
L 10.59375 27.203125 
z
" id="DejaVuSans-2212"/>
      </defs>
      <g transform="translate(297.131388 557.996838)scale(0.1 -0.1)">
       <use xlink:href="#DejaVuSans-2212"/>
       <use x="83.789062" xlink:href="#DejaVuSans-30"/>
       <use x="147.412109" xlink:href="#DejaVuSans-2e"/>
       <use x="179.199219" xlink:href="#DejaVuSans-30"/>
       <use x="242.822266" xlink:href="#DejaVuSans-30"/>
       <use x="306.445312" xlink:href="#DejaVuSans-35"/>
      </g>
     </g>
    </g>
    <g id="xtick_7">
     <g id="line2d_18">
      <g>
       <use style="stroke:#000000;stroke-width:0.8;" x="356.664706" xlink:href="#m5a3a2fae8d" y="543.3984"/>
      </g>
     </g>
     <g id="text_18">
      <!-- 0.000 -->
      <g transform="translate(342.350643 557.996838)scale(0.1 -0.1)">
       <use xlink:href="#DejaVuSans-30"/>
       <use x="63.623047" xlink:href="#DejaVuSans-2e"/>
       <use x="95.410156" xlink:href="#DejaVuSans-30"/>
       <use x="159.033203" xlink:href="#DejaVuSans-30"/>
       <use x="222.65625" xlink:href="#DejaVuSans-30"/>
      </g>
     </g>
    </g>
    <g id="xtick_8">
     <g id="line2d_19">
      <g>
       <use style="stroke:#000000;stroke-width:0.8;" x="397.694118" xlink:href="#m5a3a2fae8d" y="543.3984"/>
      </g>
     </g>
     <g id="text_19">
      <!-- 0.005 -->
      <g transform="translate(383.380055 557.996838)scale(0.1 -0.1)">
       <use xlink:href="#DejaVuSans-30"/>
       <use x="63.623047" xlink:href="#DejaVuSans-2e"/>
       <use x="95.410156" xlink:href="#DejaVuSans-30"/>
       <use x="159.033203" xlink:href="#DejaVuSans-30"/>
       <use x="222.65625" xlink:href="#DejaVuSans-35"/>
      </g>
     </g>
    </g>
    <g id="xtick_9">
     <g id="line2d_20">
      <g>
       <use style="stroke:#000000;stroke-width:0.8;" x="438.723529" xlink:href="#m5a3a2fae8d" y="543.3984"/>
      </g>
     </g>
     <g id="text_20">
      <!-- 0.010 -->
      <g transform="translate(424.409467 557.996838)scale(0.1 -0.1)">
       <use xlink:href="#DejaVuSans-30"/>
       <use x="63.623047" xlink:href="#DejaVuSans-2e"/>
       <use x="95.410156" xlink:href="#DejaVuSans-30"/>
       <use x="159.033203" xlink:href="#DejaVuSans-31"/>
       <use x="222.65625" xlink:href="#DejaVuSans-30"/>
      </g>
     </g>
    </g>
    <g id="xtick_10">
     <g id="line2d_21">
      <g>
       <use style="stroke:#000000;stroke-width:0.8;" x="479.752941" xlink:href="#m5a3a2fae8d" y="543.3984"/>
      </g>
     </g>
     <g id="text_21">
      <!-- 0.015 -->
      <g transform="translate(465.438879 557.996838)scale(0.1 -0.1)">
       <use xlink:href="#DejaVuSans-30"/>
       <use x="63.623047" xlink:href="#DejaVuSans-2e"/>
       <use x="95.410156" xlink:href="#DejaVuSans-30"/>
       <use x="159.033203" xlink:href="#DejaVuSans-31"/>
       <use x="222.65625" xlink:href="#DejaVuSans-35"/>
      </g>
     </g>
    </g>
   </g>
   <g id="matplotlib.axis_4">
    <g id="ytick_10">
     <g id="line2d_22">
      <g>
       <use style="stroke:#000000;stroke-width:0.8;" x="315.635294" xlink:href="#me07faa9cc8" y="494.306076"/>
      </g>
     </g>
     <g id="text_22">
      <!-- 100 -->
      <g transform="translate(289.547794 498.105294)scale(0.1 -0.1)">
       <use xlink:href="#DejaVuSans-31"/>
       <use x="63.623047" xlink:href="#DejaVuSans-30"/>
       <use x="127.246094" xlink:href="#DejaVuSans-30"/>
      </g>
     </g>
    </g>
    <g id="ytick_11">
     <g id="line2d_23">
      <g>
       <use style="stroke:#000000;stroke-width:0.8;" x="315.635294" xlink:href="#me07faa9cc8" y="436.5504"/>
      </g>
     </g>
     <g id="text_23">
      <!-- 150 -->
      <g transform="translate(289.547794 440.349619)scale(0.1 -0.1)">
       <use xlink:href="#DejaVuSans-31"/>
       <use x="63.623047" xlink:href="#DejaVuSans-35"/>
       <use x="127.246094" xlink:href="#DejaVuSans-30"/>
      </g>
     </g>
    </g>
    <g id="ytick_12">
     <g id="line2d_24">
      <g>
       <use style="stroke:#000000;stroke-width:0.8;" x="315.635294" xlink:href="#me07faa9cc8" y="378.794724"/>
      </g>
     </g>
     <g id="text_24">
      <!-- 200 -->
      <g transform="translate(289.547794 382.593943)scale(0.1 -0.1)">
       <use xlink:href="#DejaVuSans-32"/>
       <use x="63.623047" xlink:href="#DejaVuSans-30"/>
       <use x="127.246094" xlink:href="#DejaVuSans-30"/>
      </g>
     </g>
    </g>
    <g id="ytick_13">
     <g id="line2d_25">
      <g>
       <use style="stroke:#000000;stroke-width:0.8;" x="315.635294" xlink:href="#me07faa9cc8" y="321.039049"/>
      </g>
     </g>
     <g id="text_25">
      <!-- 250 -->
      <g transform="translate(289.547794 324.838267)scale(0.1 -0.1)">
       <use xlink:href="#DejaVuSans-32"/>
       <use x="63.623047" xlink:href="#DejaVuSans-35"/>
       <use x="127.246094" xlink:href="#DejaVuSans-30"/>
      </g>
     </g>
    </g>
    <g id="ytick_14">
     <g id="line2d_26">
      <g>
       <use style="stroke:#000000;stroke-width:0.8;" x="315.635294" xlink:href="#me07faa9cc8" y="263.283373"/>
      </g>
     </g>
     <g id="text_26">
      <!-- 300 -->
      <g transform="translate(289.547794 267.082592)scale(0.1 -0.1)">
       <use xlink:href="#DejaVuSans-33"/>
       <use x="63.623047" xlink:href="#DejaVuSans-30"/>
       <use x="127.246094" xlink:href="#DejaVuSans-30"/>
      </g>
     </g>
    </g>
    <g id="ytick_15">
     <g id="line2d_27">
      <g>
       <use style="stroke:#000000;stroke-width:0.8;" x="315.635294" xlink:href="#me07faa9cc8" y="205.527697"/>
      </g>
     </g>
     <g id="text_27">
      <!-- 350 -->
      <g transform="translate(289.547794 209.326916)scale(0.1 -0.1)">
       <use xlink:href="#DejaVuSans-33"/>
       <use x="63.623047" xlink:href="#DejaVuSans-35"/>
       <use x="127.246094" xlink:href="#DejaVuSans-30"/>
      </g>
     </g>
    </g>
    <g id="ytick_16">
     <g id="line2d_28">
      <g>
       <use style="stroke:#000000;stroke-width:0.8;" x="315.635294" xlink:href="#me07faa9cc8" y="147.772022"/>
      </g>
     </g>
     <g id="text_28">
      <!-- 400 -->
      <g transform="translate(289.547794 151.57124)scale(0.1 -0.1)">
       <use xlink:href="#DejaVuSans-34"/>
       <use x="63.623047" xlink:href="#DejaVuSans-30"/>
       <use x="127.246094" xlink:href="#DejaVuSans-30"/>
      </g>
     </g>
    </g>
    <g id="ytick_17">
     <g id="line2d_29">
      <g>
       <use style="stroke:#000000;stroke-width:0.8;" x="315.635294" xlink:href="#me07faa9cc8" y="90.016346"/>
      </g>
     </g>
     <g id="text_29">
      <!-- 450 -->
      <g transform="translate(289.547794 93.815565)scale(0.1 -0.1)">
       <use xlink:href="#DejaVuSans-34"/>
       <use x="63.623047" xlink:href="#DejaVuSans-35"/>
       <use x="127.246094" xlink:href="#DejaVuSans-30"/>
      </g>
     </g>
    </g>
   </g>
   <g id="line2d_30">
    <path clip-path="url(#p50bdb0e5e3)" d="M 323.841176 493.150962 
L 326.576471 509.322551 
L 329.311765 482.754941 
L 332.047059 496.616303 
L 334.782353 504.702097 
L 337.517647 493.150962 
L 340.252941 501.236757 
L 342.988235 494.306076 
L 345.723529 489.685622 
L 348.458824 503.546984 
L 351.194118 494.306076 
L 353.929412 494.306076 
L 356.664706 494.306076 
L 359.4 467.738465 
L 362.135294 500.081643 
L 364.870588 493.150962 
L 367.605882 485.065168 
L 370.341176 500.081643 
L 373.076471 497.771416 
L 375.811765 485.065168 
L 378.547059 485.065168 
L 381.282353 468.893578 
L 384.017647 473.514032 
L 386.752941 449.256649 
L 389.488235 414.603243 
L 392.223529 367.243589 
L 394.958824 342.986205 
L 397.694118 233.250422 
L 400.429412 206.682811 
L 403.164706 114.27373 
L 405.9 94.6368 
L 408.635294 102.722595 
L 411.370588 204.372584 
L 414.105882 281.765189 
L 416.841176 351.072 
L 419.576471 396.121427 
L 422.311765 423.844151 
L 425.047059 465.428238 
L 427.782353 479.2896 
L 430.517647 486.220281 
L 433.252941 489.685622 
L 435.988235 498.92653 
L 438.723529 485.065168 
L 441.458824 487.375395 
L 444.194118 488.530508 
L 446.929412 505.857211 
L 449.664706 473.514032 
L 452.4 491.995849 
L 455.135294 501.236757 
L 457.870588 501.236757 
L 460.605882 522.0288 
L 463.341176 496.616303 
L 466.076471 420.378811 
L 468.811765 473.514032 
L 471.547059 476.979373 
L 474.282353 491.995849 
L 477.017647 505.857211 
L 479.752941 508.167438 
L 482.488235 491.995849 
L 485.223529 465.428238 
L 487.958824 475.824259 
" style="fill:none;stroke:#1f77b4;stroke-linecap:square;stroke-width:1.5;"/>
   </g>
   <g id="line2d_31">
    <path clip-path="url(#p50bdb0e5e3)" d="M 323.841176 489.925183 
L 372.140064 489.814597 
L 374.604293 489.572612 
L 376.247112 489.198239 
L 377.561367 488.664655 
L 378.547059 488.051759 
L 379.53275 487.180175 
L 380.518442 485.959892 
L 381.339852 484.595924 
L 382.161261 482.833166 
L 382.982671 480.580086 
L 383.804081 477.732229 
L 384.62549 474.172838 
L 385.611182 468.782144 
L 386.596873 461.94738 
L 387.582565 453.425944 
L 388.568256 442.981407 
L 389.71823 428.083378 
L 390.868203 410.019056 
L 392.182459 385.336575 
L 393.496714 356.447352 
L 395.139534 315.192116 
L 397.768045 242.275882 
L 400.067992 180.653808 
L 401.382247 150.77879 
L 402.367939 132.473387 
L 403.189348 120.501322 
L 403.846476 113.322931 
L 404.503604 108.423905 
L 404.996449 106.302324 
L 405.325013 105.641137 
L 405.489295 105.537945 
L 405.653577 105.586577 
L 405.982141 106.138904 
L 406.310705 107.295502 
L 406.803551 110.150677 
L 407.296396 114.322262 
L 407.953524 121.854362 
L 408.774934 134.232911 
L 409.760625 152.960218 
L 410.910599 179.201505 
L 412.553418 222.32182 
L 417.317594 351.148369 
L 418.796131 384.126939 
L 420.110387 409.003036 
L 421.424642 429.57525 
L 422.574616 444.194957 
L 423.724589 455.937333 
L 424.710281 463.973546 
L 425.695972 470.389445 
L 426.681664 475.426822 
L 427.667356 479.31722 
L 428.653047 482.273287 
L 429.638739 484.483539 
L 430.62443 486.110001 
L 431.610122 487.288096 
L 432.595813 488.128144 
L 433.745787 488.796885 
L 435.060042 489.277861 
L 436.702862 489.613257 
L 439.002809 489.820148 
L 443.109857 489.912779 
L 461.837997 489.925183 
L 487.958824 489.925183 
L 487.958824 489.925183 
" style="fill:none;stroke:#ff7f0e;stroke-linecap:square;stroke-width:1.5;"/>
   </g>
   <g id="patch_9">
    <path d="M 315.635294 543.3984 
L 315.635294 73.2672 
" style="fill:none;stroke:#000000;stroke-linecap:square;stroke-linejoin:miter;stroke-width:0.8;"/>
   </g>
   <g id="patch_10">
    <path d="M 496.164706 543.3984 
L 496.164706 73.2672 
" style="fill:none;stroke:#000000;stroke-linecap:square;stroke-linejoin:miter;stroke-width:0.8;"/>
   </g>
   <g id="patch_11">
    <path d="M 315.635294 543.3984 
L 496.164706 543.3984 
" style="fill:none;stroke:#000000;stroke-linecap:square;stroke-linejoin:miter;stroke-width:0.8;"/>
   </g>
   <g id="patch_12">
    <path d="M 315.635294 73.2672 
L 496.164706 73.2672 
" style="fill:none;stroke:#000000;stroke-linecap:square;stroke-linejoin:miter;stroke-width:0.8;"/>
   </g>
   <g id="text_30">
    <g id="patch_13">
     <path d="M 324.661765 152.32401 
L 418.471765 152.32401 
Q 422.071765 152.32401 422.071765 148.72401 
L 422.071765 96.77376 
Q 422.071765 93.17376 418.471765 93.17376 
L 324.661765 93.17376 
Q 321.061765 93.17376 321.061765 96.77376 
L 321.061765 148.72401 
Q 321.061765 152.32401 324.661765 152.32401 
z
" style="fill:#f5deb3;opacity:0.5;stroke:#000000;stroke-linejoin:miter;"/>
    </g>
    <!-- a=332.772 -->
    <g transform="translate(324.661765 105.891885)scale(0.12 -0.12)">
     <use xlink:href="#DejaVuSans-61"/>
     <use x="61.279297" xlink:href="#DejaVuSans-3d"/>
     <use x="145.068359" xlink:href="#DejaVuSans-33"/>
     <use x="208.691406" xlink:href="#DejaVuSans-33"/>
     <use x="272.314453" xlink:href="#DejaVuSans-32"/>
     <use x="335.9375" xlink:href="#DejaVuSans-2e"/>
     <use x="367.724609" xlink:href="#DejaVuSans-37"/>
     <use x="431.347656" xlink:href="#DejaVuSans-37"/>
     <use x="494.970703" xlink:href="#DejaVuSans-32"/>
    </g>
    <!-- $\mu$=0.006 -->
    <g transform="translate(324.661765 119.32926)scale(0.12 -0.12)">
     <use transform="translate(0 0.78125)" xlink:href="#DejaVuSans-Oblique-3bc"/>
     <use transform="translate(63.623047 0.78125)" xlink:href="#DejaVuSans-3d"/>
     <use transform="translate(147.412109 0.78125)" xlink:href="#DejaVuSans-30"/>
     <use transform="translate(211.035156 0.78125)" xlink:href="#DejaVuSans-2e"/>
     <use transform="translate(242.822266 0.78125)" xlink:href="#DejaVuSans-30"/>
     <use transform="translate(306.445312 0.78125)" xlink:href="#DejaVuSans-30"/>
     <use transform="translate(370.068359 0.78125)" xlink:href="#DejaVuSans-36"/>
    </g>
    <!-- $\sigma$=0.001 -->
    <g transform="translate(324.661765 132.79101)scale(0.12 -0.12)">
     <use transform="translate(0 0.78125)" xlink:href="#DejaVuSans-Oblique-3c3"/>
     <use transform="translate(63.378906 0.78125)" xlink:href="#DejaVuSans-3d"/>
     <use transform="translate(147.167969 0.78125)" xlink:href="#DejaVuSans-30"/>
     <use transform="translate(210.791016 0.78125)" xlink:href="#DejaVuSans-2e"/>
     <use transform="translate(242.578125 0.78125)" xlink:href="#DejaVuSans-30"/>
     <use transform="translate(306.201172 0.78125)" xlink:href="#DejaVuSans-30"/>
     <use transform="translate(369.824219 0.78125)" xlink:href="#DejaVuSans-31"/>
    </g>
    <!-- offset=103.793 -->
    <g transform="translate(324.661765 146.228385)scale(0.12 -0.12)">
     <use xlink:href="#DejaVuSans-6f"/>
     <use x="61.181641" xlink:href="#DejaVuSans-66"/>
     <use x="96.386719" xlink:href="#DejaVuSans-66"/>
     <use x="131.591797" xlink:href="#DejaVuSans-73"/>
     <use x="183.691406" xlink:href="#DejaVuSans-65"/>
     <use x="245.214844" xlink:href="#DejaVuSans-74"/>
     <use x="284.423828" xlink:href="#DejaVuSans-3d"/>
     <use x="368.212891" xlink:href="#DejaVuSans-31"/>
     <use x="431.835938" xlink:href="#DejaVuSans-30"/>
     <use x="495.458984" xlink:href="#DejaVuSans-33"/>
     <use x="559.082031" xlink:href="#DejaVuSans-2e"/>
     <use x="590.869141" xlink:href="#DejaVuSans-37"/>
     <use x="654.492188" xlink:href="#DejaVuSans-39"/>
     <use x="718.115234" xlink:href="#DejaVuSans-33"/>
    </g>
   </g>
   <g id="text_31">
    <!-- Y Axis -->
    <defs>
     <path d="M -0.203125 72.90625 
L 10.40625 72.90625 
L 30.609375 42.921875 
L 50.6875 72.90625 
L 61.28125 72.90625 
L 35.5 34.71875 
L 35.5 0 
L 25.59375 0 
L 25.59375 34.71875 
z
" id="DejaVuSans-59"/>
    </defs>
    <g transform="translate(387.880313 67.2672)scale(0.12 -0.12)">
     <use xlink:href="#DejaVuSans-59"/>
     <use x="61.083984" xlink:href="#DejaVuSans-20"/>
     <use x="92.871094" xlink:href="#DejaVuSans-41"/>
     <use x="161.279297" xlink:href="#DejaVuSans-78"/>
     <use x="220.458984" xlink:href="#DejaVuSans-69"/>
     <use x="248.242188" xlink:href="#DejaVuSans-73"/>
    </g>
   </g>
  </g>
  <g id="axes_3">
   <g id="patch_14">
    <path d="M 532.270588 543.3984 
L 712.8 543.3984 
L 712.8 73.2672 
L 532.270588 73.2672 
z
" style="fill:#ffffff;"/>
   </g>
   <g id="matplotlib.axis_5">
    <g id="xtick_11">
     <g id="line2d_32">
      <g>
       <use style="stroke:#000000;stroke-width:0.8;" x="540.476471" xlink:href="#m5a3a2fae8d" y="543.3984"/>
      </g>
     </g>
     <g id="text_32">
      <!-- 0 -->
      <g transform="translate(537.295221 557.996838)scale(0.1 -0.1)">
       <use xlink:href="#DejaVuSans-30"/>
      </g>
     </g>
    </g>
    <g id="xtick_12">
     <g id="line2d_33">
      <g>
       <use style="stroke:#000000;stroke-width:0.8;" x="573.3" xlink:href="#m5a3a2fae8d" y="543.3984"/>
      </g>
     </g>
     <g id="text_33">
      <!-- 2 -->
      <g transform="translate(570.11875 557.996838)scale(0.1 -0.1)">
       <use xlink:href="#DejaVuSans-32"/>
      </g>
     </g>
    </g>
    <g id="xtick_13">
     <g id="line2d_34">
      <g>
       <use style="stroke:#000000;stroke-width:0.8;" x="606.123529" xlink:href="#m5a3a2fae8d" y="543.3984"/>
      </g>
     </g>
     <g id="text_34">
      <!-- 4 -->
      <g transform="translate(602.942279 557.996838)scale(0.1 -0.1)">
       <use xlink:href="#DejaVuSans-34"/>
      </g>
     </g>
    </g>
    <g id="xtick_14">
     <g id="line2d_35">
      <g>
       <use style="stroke:#000000;stroke-width:0.8;" x="638.947059" xlink:href="#m5a3a2fae8d" y="543.3984"/>
      </g>
     </g>
     <g id="text_35">
      <!-- 6 -->
      <g transform="translate(635.765809 557.996838)scale(0.1 -0.1)">
       <use xlink:href="#DejaVuSans-36"/>
      </g>
     </g>
    </g>
    <g id="xtick_15">
     <g id="line2d_36">
      <g>
       <use style="stroke:#000000;stroke-width:0.8;" x="671.770588" xlink:href="#m5a3a2fae8d" y="543.3984"/>
      </g>
     </g>
     <g id="text_36">
      <!-- 8 -->
      <defs>
       <path d="M 31.78125 34.625 
Q 24.75 34.625 20.71875 30.859375 
Q 16.703125 27.09375 16.703125 20.515625 
Q 16.703125 13.921875 20.71875 10.15625 
Q 24.75 6.390625 31.78125 6.390625 
Q 38.8125 6.390625 42.859375 10.171875 
Q 46.921875 13.96875 46.921875 20.515625 
Q 46.921875 27.09375 42.890625 30.859375 
Q 38.875 34.625 31.78125 34.625 
z
M 21.921875 38.8125 
Q 15.578125 40.375 12.03125 44.71875 
Q 8.5 49.078125 8.5 55.328125 
Q 8.5 64.0625 14.71875 69.140625 
Q 20.953125 74.21875 31.78125 74.21875 
Q 42.671875 74.21875 48.875 69.140625 
Q 55.078125 64.0625 55.078125 55.328125 
Q 55.078125 49.078125 51.53125 44.71875 
Q 48 40.375 41.703125 38.8125 
Q 48.828125 37.15625 52.796875 32.3125 
Q 56.78125 27.484375 56.78125 20.515625 
Q 56.78125 9.90625 50.3125 4.234375 
Q 43.84375 -1.421875 31.78125 -1.421875 
Q 19.734375 -1.421875 13.25 4.234375 
Q 6.78125 9.90625 6.78125 20.515625 
Q 6.78125 27.484375 10.78125 32.3125 
Q 14.796875 37.15625 21.921875 38.8125 
z
M 18.3125 54.390625 
Q 18.3125 48.734375 21.84375 45.5625 
Q 25.390625 42.390625 31.78125 42.390625 
Q 38.140625 42.390625 41.71875 45.5625 
Q 45.3125 48.734375 45.3125 54.390625 
Q 45.3125 60.0625 41.71875 63.234375 
Q 38.140625 66.40625 31.78125 66.40625 
Q 25.390625 66.40625 21.84375 63.234375 
Q 18.3125 60.0625 18.3125 54.390625 
z
" id="DejaVuSans-38"/>
      </defs>
      <g transform="translate(668.589338 557.996838)scale(0.1 -0.1)">
       <use xlink:href="#DejaVuSans-38"/>
      </g>
     </g>
    </g>
    <g id="xtick_16">
     <g id="line2d_37">
      <g>
       <use style="stroke:#000000;stroke-width:0.8;" x="704.594118" xlink:href="#m5a3a2fae8d" y="543.3984"/>
      </g>
     </g>
     <g id="text_37">
      <!-- 10 -->
      <g transform="translate(698.231618 557.996838)scale(0.1 -0.1)">
       <use xlink:href="#DejaVuSans-31"/>
       <use x="63.623047" xlink:href="#DejaVuSans-30"/>
      </g>
     </g>
    </g>
   </g>
   <g id="matplotlib.axis_6">
    <g id="ytick_18">
     <g id="line2d_38">
      <g>
       <use style="stroke:#000000;stroke-width:0.8;" x="532.270588" xlink:href="#me07faa9cc8" y="458.640324"/>
      </g>
     </g>
     <g id="text_38">
      <!-- 100 -->
      <g transform="translate(506.183088 462.439542)scale(0.1 -0.1)">
       <use xlink:href="#DejaVuSans-31"/>
       <use x="63.623047" xlink:href="#DejaVuSans-30"/>
       <use x="127.246094" xlink:href="#DejaVuSans-30"/>
      </g>
     </g>
    </g>
    <g id="ytick_19">
     <g id="line2d_39">
      <g>
       <use style="stroke:#000000;stroke-width:0.8;" x="532.270588" xlink:href="#me07faa9cc8" y="362.597178"/>
      </g>
     </g>
     <g id="text_39">
      <!-- 200 -->
      <g transform="translate(506.183088 366.396396)scale(0.1 -0.1)">
       <use xlink:href="#DejaVuSans-32"/>
       <use x="63.623047" xlink:href="#DejaVuSans-30"/>
       <use x="127.246094" xlink:href="#DejaVuSans-30"/>
      </g>
     </g>
    </g>
    <g id="ytick_20">
     <g id="line2d_40">
      <g>
       <use style="stroke:#000000;stroke-width:0.8;" x="532.270588" xlink:href="#me07faa9cc8" y="266.554031"/>
      </g>
     </g>
     <g id="text_40">
      <!-- 300 -->
      <g transform="translate(506.183088 270.35325)scale(0.1 -0.1)">
       <use xlink:href="#DejaVuSans-33"/>
       <use x="63.623047" xlink:href="#DejaVuSans-30"/>
       <use x="127.246094" xlink:href="#DejaVuSans-30"/>
      </g>
     </g>
    </g>
    <g id="ytick_21">
     <g id="line2d_41">
      <g>
       <use style="stroke:#000000;stroke-width:0.8;" x="532.270588" xlink:href="#me07faa9cc8" y="170.510885"/>
      </g>
     </g>
     <g id="text_41">
      <!-- 400 -->
      <g transform="translate(506.183088 174.310104)scale(0.1 -0.1)">
       <use xlink:href="#DejaVuSans-34"/>
       <use x="63.623047" xlink:href="#DejaVuSans-30"/>
       <use x="127.246094" xlink:href="#DejaVuSans-30"/>
      </g>
     </g>
    </g>
    <g id="ytick_22">
     <g id="line2d_42">
      <g>
       <use style="stroke:#000000;stroke-width:0.8;" x="532.270588" xlink:href="#me07faa9cc8" y="74.467739"/>
      </g>
     </g>
     <g id="text_42">
      <!-- 500 -->
      <g transform="translate(506.183088 78.266958)scale(0.1 -0.1)">
       <use xlink:href="#DejaVuSans-35"/>
       <use x="63.623047" xlink:href="#DejaVuSans-30"/>
       <use x="127.246094" xlink:href="#DejaVuSans-30"/>
      </g>
     </g>
    </g>
   </g>
   <g id="line2d_43">
    <path clip-path="url(#pbb91a488fb)" d="M 540.476471 512.424485 
L 543.211765 517.226643 
L 545.947059 519.147506 
L 548.682353 505.701465 
L 551.417647 519.147506 
L 554.152941 522.0288 
L 556.888235 512.424485 
L 559.623529 512.424485 
L 562.358824 508.58276 
L 565.094118 517.226643 
L 567.829412 516.266211 
L 570.564706 498.978445 
L 573.3 516.266211 
L 576.035294 513.384917 
L 578.770588 504.741034 
L 581.505882 503.780602 
L 584.241176 504.741034 
L 586.976471 499.938876 
L 589.711765 495.136719 
L 592.447059 475.92809 
L 595.182353 497.057582 
L 597.917647 459.600755 
L 600.652941 450.956872 
L 603.388235 425.985654 
L 606.123529 399.093573 
L 608.858824 342.428117 
L 611.594118 231.978499 
L 614.329412 220.453321 
L 617.064706 127.29147 
L 619.8 113.845429 
L 622.535294 122.489312 
L 625.270588 124.410175 
L 628.005882 123.449744 
L 630.741176 94.6368 
L 633.476471 116.726724 
L 636.211765 186.83822 
L 638.947059 232.93893 
L 641.682353 255.989285 
L 644.417647 287.683524 
L 647.152941 343.388548 
L 649.888235 342.428117 
L 652.623529 321.298625 
L 655.358824 354.913726 
L 658.094118 342.428117 
L 660.829412 307.852584 
L 663.564706 332.823802 
L 666.3 338.586391 
L 669.035294 332.823802 
L 671.770588 358.755452 
L 674.505882 312.654742 
L 677.241176 361.636746 
L 679.976471 319.377762 
L 682.711765 357.79502 
L 685.447059 351.072 
L 688.182353 392.370553 
L 690.917647 386.607964 
L 693.652941 395.251847 
L 696.388235 390.44969 
L 699.123529 406.777025 
L 701.858824 419.262634 
L 704.594118 415.420908 
" style="fill:none;stroke:#1f77b4;stroke-linecap:square;stroke-width:1.5;"/>
   </g>
   <g id="line2d_44">
    <path clip-path="url(#pbb91a488fb)" d="M 540.476471 449.886402 
L 570.047218 449.77794 
L 574.48283 449.536007 
L 577.439905 449.158915 
L 579.739852 448.638204 
L 581.546953 448.011635 
L 583.189772 447.208573 
L 584.668309 446.23518 
L 585.982565 445.11774 
L 587.29682 443.708527 
L 588.611076 441.947396 
L 589.925331 439.766471 
L 591.239587 437.090428 
L 592.553842 433.837196 
L 593.868098 429.919157 
L 595.182353 425.244903 
L 596.496608 419.721598 
L 597.810864 413.257973 
L 599.289401 404.755547 
L 600.767939 394.846279 
L 602.246476 383.445457 
L 603.889295 368.966046 
L 605.696396 350.826611 
L 607.66778 328.507854 
L 609.803445 301.698121 
L 612.596237 263.614821 
L 618.510387 181.911637 
L 620.48177 158.195552 
L 622.124589 141.161879 
L 623.438845 129.750237 
L 624.588818 121.606718 
L 625.57451 116.112411 
L 626.395919 112.638736 
L 627.053047 110.607105 
L 627.710175 109.253286 
L 628.203021 108.687817 
L 628.695866 108.510239 
L 629.02443 108.607701 
L 629.517276 109.077297 
L 630.010122 109.933454 
L 630.66725 111.671086 
L 631.324377 114.080108 
L 632.145787 118.01309 
L 633.131479 124.034848 
L 634.281452 132.752647 
L 635.595707 144.755076 
L 637.074245 160.529115 
L 638.881346 182.452249 
L 641.181293 213.264856 
L 648.902544 319.017638 
L 651.038209 344.139576 
L 653.009592 364.658919 
L 654.816693 381.060726 
L 656.459512 393.963133 
L 657.93805 403.992627 
L 659.416587 412.607287 
L 660.895125 419.913557 
L 662.373662 426.033517 
L 663.687917 430.582758 
L 665.002173 434.390313 
L 666.316428 437.547137 
L 667.630684 440.140077 
L 668.944939 442.25021 
L 670.259194 443.951723 
L 671.57345 445.311288 
L 673.051987 446.505131 
L 674.530525 447.412921 
L 676.173344 448.159638 
L 677.980445 448.740348 
L 680.11611 449.194191 
L 682.908903 449.539753 
L 686.687387 449.758092 
L 693.094383 449.865989 
L 704.594118 449.885941 
L 704.594118 449.885941 
" style="fill:none;stroke:#ff7f0e;stroke-linecap:square;stroke-width:1.5;"/>
   </g>
   <g id="patch_15">
    <path d="M 532.270588 543.3984 
L 532.270588 73.2672 
" style="fill:none;stroke:#000000;stroke-linecap:square;stroke-linejoin:miter;stroke-width:0.8;"/>
   </g>
   <g id="patch_16">
    <path d="M 712.8 543.3984 
L 712.8 73.2672 
" style="fill:none;stroke:#000000;stroke-linecap:square;stroke-linejoin:miter;stroke-width:0.8;"/>
   </g>
   <g id="patch_17">
    <path d="M 532.270588 543.3984 
L 712.8 543.3984 
" style="fill:none;stroke:#000000;stroke-linecap:square;stroke-linejoin:miter;stroke-width:0.8;"/>
   </g>
   <g id="patch_18">
    <path d="M 532.270588 73.2672 
L 712.8 73.2672 
" style="fill:none;stroke:#000000;stroke-linecap:square;stroke-linejoin:miter;stroke-width:0.8;"/>
   </g>
   <g id="text_43">
    <g id="patch_19">
     <path d="M 541.297059 152.32401 
L 635.107059 152.32401 
Q 638.707059 152.32401 638.707059 148.72401 
L 638.707059 96.77376 
Q 638.707059 93.17376 635.107059 93.17376 
L 541.297059 93.17376 
Q 537.697059 93.17376 537.697059 96.77376 
L 537.697059 148.72401 
Q 537.697059 152.32401 541.297059 152.32401 
z
" style="fill:#f5deb3;opacity:0.5;stroke:#000000;stroke-linejoin:miter;"/>
    </g>
    <!-- a=355.441 -->
    <g transform="translate(541.297059 105.891885)scale(0.12 -0.12)">
     <use xlink:href="#DejaVuSans-61"/>
     <use x="61.279297" xlink:href="#DejaVuSans-3d"/>
     <use x="145.068359" xlink:href="#DejaVuSans-33"/>
     <use x="208.691406" xlink:href="#DejaVuSans-35"/>
     <use x="272.314453" xlink:href="#DejaVuSans-35"/>
     <use x="335.9375" xlink:href="#DejaVuSans-2e"/>
     <use x="367.724609" xlink:href="#DejaVuSans-34"/>
     <use x="431.347656" xlink:href="#DejaVuSans-34"/>
     <use x="494.970703" xlink:href="#DejaVuSans-31"/>
    </g>
    <!-- $\mu$=5.374 -->
    <g transform="translate(541.297059 119.32926)scale(0.12 -0.12)">
     <use transform="translate(0 0.78125)" xlink:href="#DejaVuSans-Oblique-3bc"/>
     <use transform="translate(63.623047 0.78125)" xlink:href="#DejaVuSans-3d"/>
     <use transform="translate(147.412109 0.78125)" xlink:href="#DejaVuSans-35"/>
     <use transform="translate(211.035156 0.78125)" xlink:href="#DejaVuSans-2e"/>
     <use transform="translate(242.822266 0.78125)" xlink:href="#DejaVuSans-33"/>
     <use transform="translate(306.445312 0.78125)" xlink:href="#DejaVuSans-37"/>
     <use transform="translate(370.068359 0.78125)" xlink:href="#DejaVuSans-34"/>
    </g>
    <!-- $\sigma$=0.890 -->
    <g transform="translate(541.297059 132.79101)scale(0.12 -0.12)">
     <use transform="translate(0 0.78125)" xlink:href="#DejaVuSans-Oblique-3c3"/>
     <use transform="translate(63.378906 0.78125)" xlink:href="#DejaVuSans-3d"/>
     <use transform="translate(147.167969 0.78125)" xlink:href="#DejaVuSans-30"/>
     <use transform="translate(210.791016 0.78125)" xlink:href="#DejaVuSans-2e"/>
     <use transform="translate(242.546875 0.78125)" xlink:href="#DejaVuSans-38"/>
     <use transform="translate(306.169922 0.78125)" xlink:href="#DejaVuSans-39"/>
     <use transform="translate(369.792969 0.78125)" xlink:href="#DejaVuSans-30"/>
    </g>
    <!-- offset=109.115 -->
    <g transform="translate(541.297059 146.228385)scale(0.12 -0.12)">
     <use xlink:href="#DejaVuSans-6f"/>
     <use x="61.181641" xlink:href="#DejaVuSans-66"/>
     <use x="96.386719" xlink:href="#DejaVuSans-66"/>
     <use x="131.591797" xlink:href="#DejaVuSans-73"/>
     <use x="183.691406" xlink:href="#DejaVuSans-65"/>
     <use x="245.214844" xlink:href="#DejaVuSans-74"/>
     <use x="284.423828" xlink:href="#DejaVuSans-3d"/>
     <use x="368.212891" xlink:href="#DejaVuSans-31"/>
     <use x="431.835938" xlink:href="#DejaVuSans-30"/>
     <use x="495.458984" xlink:href="#DejaVuSans-39"/>
     <use x="559.082031" xlink:href="#DejaVuSans-2e"/>
     <use x="590.869141" xlink:href="#DejaVuSans-31"/>
     <use x="654.492188" xlink:href="#DejaVuSans-31"/>
     <use x="718.115234" xlink:href="#DejaVuSans-35"/>
    </g>
   </g>
   <g id="text_44">
    <!-- Z Axis -->
    <defs>
     <path d="M 5.609375 72.90625 
L 62.890625 72.90625 
L 62.890625 65.375 
L 16.796875 8.296875 
L 64.015625 8.296875 
L 64.015625 0 
L 4.5 0 
L 4.5 7.515625 
L 50.59375 64.59375 
L 5.609375 64.59375 
z
" id="DejaVuSans-5a"/>
    </defs>
    <g transform="translate(604.070294 67.2672)scale(0.12 -0.12)">
     <use xlink:href="#DejaVuSans-5a"/>
     <use x="68.505859" xlink:href="#DejaVuSans-20"/>
     <use x="100.292969" xlink:href="#DejaVuSans-41"/>
     <use x="168.701172" xlink:href="#DejaVuSans-78"/>
     <use x="227.880859" xlink:href="#DejaVuSans-69"/>
     <use x="255.664062" xlink:href="#DejaVuSans-73"/>
    </g>
   </g>
  </g>
 </g>
 <defs>
  <clipPath id="p07255db77c">
   <rect height="470.1312" width="180.529412" x="99" y="73.2672"/>
  </clipPath>
  <clipPath id="p50bdb0e5e3">
   <rect height="470.1312" width="180.529412" x="315.635294" y="73.2672"/>
  </clipPath>
  <clipPath id="pbb91a488fb">
   <rect height="470.1312" width="180.529412" x="532.270588" y="73.2672"/>
  </clipPath>
 </defs>
</svg>
