<?xml version="1.0" encoding="utf-8" standalone="no"?>
<!DOCTYPE svg PUBLIC "-//W3C//DTD SVG 1.1//EN"
  "http://www.w3.org/Graphics/SVG/1.1/DTD/svg11.dtd">
<!-- Created with matplotlib (http://matplotlib.org/) -->
<svg height="610.56pt" version="1.1" viewBox="0 0 792 610.56" width="792pt" xmlns="http://www.w3.org/2000/svg" xmlns:xlink="http://www.w3.org/1999/xlink">
 <defs>
  <style type="text/css">
*{stroke-linecap:butt;stroke-linejoin:round;}
  </style>
 </defs>
 <g id="figure_1">
  <g id="patch_1">
   <path d="M 0 610.56 
L 792 610.56 
L 792 0 
L 0 0 
z
" style="fill:#ffffff;"/>
  </g>
  <g id="axes_1">
   <g id="patch_2">
    <path d="M 99 543.3984 
L 378 543.3984 
L 378 73.2672 
L 99 73.2672 
z
" style="fill:#ffffff;"/>
   </g>
   <g id="matplotlib.axis_1">
    <g id="xtick_1">
     <g id="line2d_1">
      <defs>
       <path d="M 0 0 
L 0 3.5 
" id="mfd486527d0" style="stroke:#000000;stroke-width:0.8;"/>
      </defs>
      <g>
       <use style="stroke:#000000;stroke-width:0.8;" x="101.536364" xlink:href="#mfd486527d0" y="543.3984"/>
      </g>
     </g>
     <g id="text_1">
      <!-- −0.12 -->
      <defs>
       <path d="M 10.59375 35.5 
L 73.1875 35.5 
L 73.1875 27.203125 
L 10.59375 27.203125 
z
" id="DejaVuSans-2212"/>
       <path d="M 31.78125 66.40625 
Q 24.171875 66.40625 20.328125 58.90625 
Q 16.5 51.421875 16.5 36.375 
Q 16.5 21.390625 20.328125 13.890625 
Q 24.171875 6.390625 31.78125 6.390625 
Q 39.453125 6.390625 43.28125 13.890625 
Q 47.125 21.390625 47.125 36.375 
Q 47.125 51.421875 43.28125 58.90625 
Q 39.453125 66.40625 31.78125 66.40625 
z
M 31.78125 74.21875 
Q 44.046875 74.21875 50.515625 64.515625 
Q 56.984375 54.828125 56.984375 36.375 
Q 56.984375 17.96875 50.515625 8.265625 
Q 44.046875 -1.421875 31.78125 -1.421875 
Q 19.53125 -1.421875 13.0625 8.265625 
Q 6.59375 17.96875 6.59375 36.375 
Q 6.59375 54.828125 13.0625 64.515625 
Q 19.53125 74.21875 31.78125 74.21875 
z
" id="DejaVuSans-30"/>
       <path d="M 10.6875 12.40625 
L 21 12.40625 
L 21 0 
L 10.6875 0 
z
" id="DejaVuSans-2e"/>
       <path d="M 12.40625 8.296875 
L 28.515625 8.296875 
L 28.515625 63.921875 
L 10.984375 60.40625 
L 10.984375 69.390625 
L 28.421875 72.90625 
L 38.28125 72.90625 
L 38.28125 8.296875 
L 54.390625 8.296875 
L 54.390625 0 
L 12.40625 0 
z
" id="DejaVuSans-31"/>
       <path d="M 19.1875 8.296875 
L 53.609375 8.296875 
L 53.609375 0 
L 7.328125 0 
L 7.328125 8.296875 
Q 12.9375 14.109375 22.625 23.890625 
Q 32.328125 33.6875 34.8125 36.53125 
Q 39.546875 41.84375 41.421875 45.53125 
Q 43.3125 49.21875 43.3125 52.78125 
Q 43.3125 58.59375 39.234375 62.25 
Q 35.15625 65.921875 28.609375 65.921875 
Q 23.96875 65.921875 18.8125 64.3125 
Q 13.671875 62.703125 7.8125 59.421875 
L 7.8125 69.390625 
Q 13.765625 71.78125 18.9375 73 
Q 24.125 74.21875 28.421875 74.21875 
Q 39.75 74.21875 46.484375 68.546875 
Q 53.21875 62.890625 53.21875 53.421875 
Q 53.21875 48.921875 51.53125 44.890625 
Q 49.859375 40.875 45.40625 35.40625 
Q 44.1875 33.984375 37.640625 27.21875 
Q 31.109375 20.453125 19.1875 8.296875 
z
" id="DejaVuSans-32"/>
      </defs>
      <g transform="translate(86.213707 557.996838)scale(0.1 -0.1)">
       <use xlink:href="#DejaVuSans-2212"/>
       <use x="83.789062" xlink:href="#DejaVuSans-30"/>
       <use x="147.412109" xlink:href="#DejaVuSans-2e"/>
       <use x="179.199219" xlink:href="#DejaVuSans-31"/>
       <use x="242.822266" xlink:href="#DejaVuSans-32"/>
      </g>
     </g>
    </g>
    <g id="xtick_2">
     <g id="line2d_2">
      <g>
       <use style="stroke:#000000;stroke-width:0.8;" x="152.263636" xlink:href="#mfd486527d0" y="543.3984"/>
      </g>
     </g>
     <g id="text_2">
      <!-- −0.10 -->
      <g transform="translate(136.94098 557.996838)scale(0.1 -0.1)">
       <use xlink:href="#DejaVuSans-2212"/>
       <use x="83.789062" xlink:href="#DejaVuSans-30"/>
       <use x="147.412109" xlink:href="#DejaVuSans-2e"/>
       <use x="179.199219" xlink:href="#DejaVuSans-31"/>
       <use x="242.822266" xlink:href="#DejaVuSans-30"/>
      </g>
     </g>
    </g>
    <g id="xtick_3">
     <g id="line2d_3">
      <g>
       <use style="stroke:#000000;stroke-width:0.8;" x="202.990909" xlink:href="#mfd486527d0" y="543.3984"/>
      </g>
     </g>
     <g id="text_3">
      <!-- −0.08 -->
      <defs>
       <path d="M 31.78125 34.625 
Q 24.75 34.625 20.71875 30.859375 
Q 16.703125 27.09375 16.703125 20.515625 
Q 16.703125 13.921875 20.71875 10.15625 
Q 24.75 6.390625 31.78125 6.390625 
Q 38.8125 6.390625 42.859375 10.171875 
Q 46.921875 13.96875 46.921875 20.515625 
Q 46.921875 27.09375 42.890625 30.859375 
Q 38.875 34.625 31.78125 34.625 
z
M 21.921875 38.8125 
Q 15.578125 40.375 12.03125 44.71875 
Q 8.5 49.078125 8.5 55.328125 
Q 8.5 64.0625 14.71875 69.140625 
Q 20.953125 74.21875 31.78125 74.21875 
Q 42.671875 74.21875 48.875 69.140625 
Q 55.078125 64.0625 55.078125 55.328125 
Q 55.078125 49.078125 51.53125 44.71875 
Q 48 40.375 41.703125 38.8125 
Q 48.828125 37.15625 52.796875 32.3125 
Q 56.78125 27.484375 56.78125 20.515625 
Q 56.78125 9.90625 50.3125 4.234375 
Q 43.84375 -1.421875 31.78125 -1.421875 
Q 19.734375 -1.421875 13.25 4.234375 
Q 6.78125 9.90625 6.78125 20.515625 
Q 6.78125 27.484375 10.78125 32.3125 
Q 14.796875 37.15625 21.921875 38.8125 
z
M 18.3125 54.390625 
Q 18.3125 48.734375 21.84375 45.5625 
Q 25.390625 42.390625 31.78125 42.390625 
Q 38.140625 42.390625 41.71875 45.5625 
Q 45.3125 48.734375 45.3125 54.390625 
Q 45.3125 60.0625 41.71875 63.234375 
Q 38.140625 66.40625 31.78125 66.40625 
Q 25.390625 66.40625 21.84375 63.234375 
Q 18.3125 60.0625 18.3125 54.390625 
z
" id="DejaVuSans-38"/>
      </defs>
      <g transform="translate(187.668253 557.996838)scale(0.1 -0.1)">
       <use xlink:href="#DejaVuSans-2212"/>
       <use x="83.789062" xlink:href="#DejaVuSans-30"/>
       <use x="147.412109" xlink:href="#DejaVuSans-2e"/>
       <use x="179.199219" xlink:href="#DejaVuSans-30"/>
       <use x="242.822266" xlink:href="#DejaVuSans-38"/>
      </g>
     </g>
    </g>
    <g id="xtick_4">
     <g id="line2d_4">
      <g>
       <use style="stroke:#000000;stroke-width:0.8;" x="253.718182" xlink:href="#mfd486527d0" y="543.3984"/>
      </g>
     </g>
     <g id="text_4">
      <!-- −0.06 -->
      <defs>
       <path d="M 33.015625 40.375 
Q 26.375 40.375 22.484375 35.828125 
Q 18.609375 31.296875 18.609375 23.390625 
Q 18.609375 15.53125 22.484375 10.953125 
Q 26.375 6.390625 33.015625 6.390625 
Q 39.65625 6.390625 43.53125 10.953125 
Q 47.40625 15.53125 47.40625 23.390625 
Q 47.40625 31.296875 43.53125 35.828125 
Q 39.65625 40.375 33.015625 40.375 
z
M 52.59375 71.296875 
L 52.59375 62.3125 
Q 48.875 64.0625 45.09375 64.984375 
Q 41.3125 65.921875 37.59375 65.921875 
Q 27.828125 65.921875 22.671875 59.328125 
Q 17.53125 52.734375 16.796875 39.40625 
Q 19.671875 43.65625 24.015625 45.921875 
Q 28.375 48.1875 33.59375 48.1875 
Q 44.578125 48.1875 50.953125 41.515625 
Q 57.328125 34.859375 57.328125 23.390625 
Q 57.328125 12.15625 50.6875 5.359375 
Q 44.046875 -1.421875 33.015625 -1.421875 
Q 20.359375 -1.421875 13.671875 8.265625 
Q 6.984375 17.96875 6.984375 36.375 
Q 6.984375 53.65625 15.1875 63.9375 
Q 23.390625 74.21875 37.203125 74.21875 
Q 40.921875 74.21875 44.703125 73.484375 
Q 48.484375 72.75 52.59375 71.296875 
z
" id="DejaVuSans-36"/>
      </defs>
      <g transform="translate(238.395526 557.996838)scale(0.1 -0.1)">
       <use xlink:href="#DejaVuSans-2212"/>
       <use x="83.789062" xlink:href="#DejaVuSans-30"/>
       <use x="147.412109" xlink:href="#DejaVuSans-2e"/>
       <use x="179.199219" xlink:href="#DejaVuSans-30"/>
       <use x="242.822266" xlink:href="#DejaVuSans-36"/>
      </g>
     </g>
    </g>
    <g id="xtick_5">
     <g id="line2d_5">
      <g>
       <use style="stroke:#000000;stroke-width:0.8;" x="304.445455" xlink:href="#mfd486527d0" y="543.3984"/>
      </g>
     </g>
     <g id="text_5">
      <!-- −0.04 -->
      <defs>
       <path d="M 37.796875 64.3125 
L 12.890625 25.390625 
L 37.796875 25.390625 
z
M 35.203125 72.90625 
L 47.609375 72.90625 
L 47.609375 25.390625 
L 58.015625 25.390625 
L 58.015625 17.1875 
L 47.609375 17.1875 
L 47.609375 0 
L 37.796875 0 
L 37.796875 17.1875 
L 4.890625 17.1875 
L 4.890625 26.703125 
z
" id="DejaVuSans-34"/>
      </defs>
      <g transform="translate(289.122798 557.996838)scale(0.1 -0.1)">
       <use xlink:href="#DejaVuSans-2212"/>
       <use x="83.789062" xlink:href="#DejaVuSans-30"/>
       <use x="147.412109" xlink:href="#DejaVuSans-2e"/>
       <use x="179.199219" xlink:href="#DejaVuSans-30"/>
       <use x="242.822266" xlink:href="#DejaVuSans-34"/>
      </g>
     </g>
    </g>
    <g id="xtick_6">
     <g id="line2d_6">
      <g>
       <use style="stroke:#000000;stroke-width:0.8;" x="355.172727" xlink:href="#mfd486527d0" y="543.3984"/>
      </g>
     </g>
     <g id="text_6">
      <!-- −0.02 -->
      <g transform="translate(339.850071 557.996838)scale(0.1 -0.1)">
       <use xlink:href="#DejaVuSans-2212"/>
       <use x="83.789062" xlink:href="#DejaVuSans-30"/>
       <use x="147.412109" xlink:href="#DejaVuSans-2e"/>
       <use x="179.199219" xlink:href="#DejaVuSans-30"/>
       <use x="242.822266" xlink:href="#DejaVuSans-32"/>
      </g>
     </g>
    </g>
   </g>
   <g id="matplotlib.axis_2">
    <g id="ytick_1">
     <g id="line2d_7">
      <defs>
       <path d="M 0 0 
L -3.5 0 
" id="m0a0a60d992" style="stroke:#000000;stroke-width:0.8;"/>
      </defs>
      <g>
       <use style="stroke:#000000;stroke-width:0.8;" x="99" xlink:href="#m0a0a60d992" y="524.4032"/>
      </g>
     </g>
     <g id="text_7">
      <!-- 0 -->
      <g transform="translate(85.6375 528.202419)scale(0.1 -0.1)">
       <use xlink:href="#DejaVuSans-30"/>
      </g>
     </g>
    </g>
    <g id="ytick_2">
     <g id="line2d_8">
      <g>
       <use style="stroke:#000000;stroke-width:0.8;" x="99" xlink:href="#m0a0a60d992" y="445.256533"/>
      </g>
     </g>
     <g id="text_8">
      <!-- 200 -->
      <g transform="translate(72.9125 449.055752)scale(0.1 -0.1)">
       <use xlink:href="#DejaVuSans-32"/>
       <use x="63.623047" xlink:href="#DejaVuSans-30"/>
       <use x="127.246094" xlink:href="#DejaVuSans-30"/>
      </g>
     </g>
    </g>
    <g id="ytick_3">
     <g id="line2d_9">
      <g>
       <use style="stroke:#000000;stroke-width:0.8;" x="99" xlink:href="#m0a0a60d992" y="366.109867"/>
      </g>
     </g>
     <g id="text_9">
      <!-- 400 -->
      <g transform="translate(72.9125 369.909085)scale(0.1 -0.1)">
       <use xlink:href="#DejaVuSans-34"/>
       <use x="63.623047" xlink:href="#DejaVuSans-30"/>
       <use x="127.246094" xlink:href="#DejaVuSans-30"/>
      </g>
     </g>
    </g>
    <g id="ytick_4">
     <g id="line2d_10">
      <g>
       <use style="stroke:#000000;stroke-width:0.8;" x="99" xlink:href="#m0a0a60d992" y="286.9632"/>
      </g>
     </g>
     <g id="text_10">
      <!-- 600 -->
      <g transform="translate(72.9125 290.762419)scale(0.1 -0.1)">
       <use xlink:href="#DejaVuSans-36"/>
       <use x="63.623047" xlink:href="#DejaVuSans-30"/>
       <use x="127.246094" xlink:href="#DejaVuSans-30"/>
      </g>
     </g>
    </g>
    <g id="ytick_5">
     <g id="line2d_11">
      <g>
       <use style="stroke:#000000;stroke-width:0.8;" x="99" xlink:href="#m0a0a60d992" y="207.816533"/>
      </g>
     </g>
     <g id="text_11">
      <!-- 800 -->
      <g transform="translate(72.9125 211.615752)scale(0.1 -0.1)">
       <use xlink:href="#DejaVuSans-38"/>
       <use x="63.623047" xlink:href="#DejaVuSans-30"/>
       <use x="127.246094" xlink:href="#DejaVuSans-30"/>
      </g>
     </g>
    </g>
    <g id="ytick_6">
     <g id="line2d_12">
      <g>
       <use style="stroke:#000000;stroke-width:0.8;" x="99" xlink:href="#m0a0a60d992" y="128.669867"/>
      </g>
     </g>
     <g id="text_12">
      <!-- 1000 -->
      <g transform="translate(66.55 132.469085)scale(0.1 -0.1)">
       <use xlink:href="#DejaVuSans-31"/>
       <use x="63.623047" xlink:href="#DejaVuSans-30"/>
       <use x="127.246094" xlink:href="#DejaVuSans-30"/>
       <use x="190.869141" xlink:href="#DejaVuSans-30"/>
      </g>
     </g>
    </g>
   </g>
   <g id="line2d_13">
    <path clip-path="url(#p19566d368b)" d="M 111.681818 518.071467 
L 114.852273 518.4672 
L 118.022727 521.237333 
L 121.193182 518.4672 
L 124.363636 518.862933 
L 127.534091 518.862933 
L 130.704545 519.258667 
L 133.875 519.6544 
L 137.045455 516.884267 
L 140.215909 520.050133 
L 143.386364 518.071467 
L 146.556818 518.862933 
L 149.727273 519.258667 
L 152.897727 519.258667 
L 156.068182 522.0288 
L 159.238636 516.884267 
L 162.409091 516.884267 
L 165.579545 517.28 
L 168.75 517.28 
L 171.920455 520.8416 
L 175.090909 520.050133 
L 178.261364 520.445867 
L 181.431818 519.258667 
L 184.602273 515.301333 
L 187.772727 519.258667 
L 190.943182 518.071467 
L 194.113636 518.4672 
L 197.284091 516.884267 
L 200.454545 520.8416 
L 203.625 518.071467 
L 206.795455 516.0928 
L 209.965909 515.697067 
L 213.136364 510.948267 
L 216.306818 495.9104 
L 219.477273 475.728 
L 222.647727 431.010133 
L 225.818182 367.6928 
L 228.988636 269.550933 
L 232.159091 189.217067 
L 235.329545 144.894933 
L 238.5 94.6368 
L 241.670455 111.2576 
L 244.840909 163.890133 
L 248.011364 218.897067 
L 251.181818 301.605333 
L 254.352273 389.0624 
L 257.522727 446.839467 
L 260.693182 493.140267 
L 263.863636 510.552533 
L 267.034091 514.9056 
L 270.204545 514.509867 
L 273.375 518.071467 
L 276.545455 518.4672 
L 279.715909 513.7184 
L 282.886364 519.258667 
L 286.056818 518.862933 
L 289.227273 516.0928 
L 292.397727 515.697067 
L 295.568182 520.445867 
L 298.738636 518.862933 
L 301.909091 514.114133 
L 305.079545 517.28 
L 308.25 520.8416 
L 311.420455 519.258667 
L 314.590909 519.6544 
L 317.761364 521.633067 
L 320.931818 516.488533 
L 324.102273 518.4672 
L 327.272727 517.28 
L 330.443182 522.0288 
L 333.613636 518.862933 
L 336.784091 520.445867 
L 339.954545 518.862933 
L 343.125 517.675733 
L 346.295455 519.6544 
L 349.465909 519.258667 
L 352.636364 519.258667 
L 355.806818 518.071467 
L 358.977273 518.862933 
L 362.147727 518.4672 
L 365.318182 519.6544 
" style="fill:none;stroke:#1f77b4;stroke-linecap:square;stroke-width:1.5;"/>
   </g>
   <g id="line2d_14">
    <path clip-path="url(#p19566d368b)" d="M 111.681818 519.111989 
L 200.035627 519.004393 
L 202.828419 518.778754 
L 204.859541 518.392233 
L 206.382883 517.866016 
L 207.652334 517.180355 
L 208.667895 516.402423 
L 209.683456 515.352648 
L 210.699017 513.953045 
L 211.714578 512.109589 
L 212.730139 509.711075 
L 213.7457 506.628661 
L 214.761261 502.716373 
L 215.776822 497.812843 
L 216.792383 491.744577 
L 217.807944 484.330966 
L 218.823505 475.391193 
L 219.839066 464.753064 
L 221.108518 448.836883 
L 222.377969 429.804042 
L 223.64742 407.54476 
L 225.170762 376.653285 
L 226.947993 335.462869 
L 229.486896 270.078874 
L 232.787469 185.145916 
L 234.310811 151.359727 
L 235.580262 128.049106 
L 236.595823 113.378071 
L 237.357494 105.005829 
L 238.119165 99.060114 
L 238.626945 96.499811 
L 239.134726 95.088066 
L 239.388616 94.816893 
L 239.642506 94.83646 
L 239.896396 95.146729 
L 240.150287 95.74706 
L 240.658067 97.812391 
L 241.165848 101.015536 
L 241.927518 107.894076 
L 242.689189 117.146816 
L 243.70475 132.884886 
L 244.720311 152.054446 
L 245.989762 179.955163 
L 247.766994 224.105963 
L 253.09869 360.402344 
L 254.875921 398.417359 
L 256.399263 426.18307 
L 257.668714 445.770384 
L 258.938165 462.212564 
L 260.207617 475.718628 
L 261.477068 486.581046 
L 262.492629 493.594551 
L 263.50819 499.314297 
L 264.523751 503.919492 
L 265.539312 507.580621 
L 266.554873 510.454946 
L 267.570434 512.6837 
L 268.585995 514.390724 
L 269.601556 515.682272 
L 270.617117 516.647678 
L 271.886568 517.506734 
L 273.15602 518.08409 
L 274.679361 518.523397 
L 276.710483 518.842652 
L 279.503276 519.026413 
L 284.834971 519.104374 
L 318.856265 519.111989 
L 365.318182 519.111989 
L 365.318182 519.111989 
" style="fill:none;stroke:#ff7f0e;stroke-linecap:square;stroke-width:1.5;"/>
   </g>
   <g id="patch_3">
    <path d="M 99 543.3984 
L 99 73.2672 
" style="fill:none;stroke:#000000;stroke-linecap:square;stroke-linejoin:miter;stroke-width:0.8;"/>
   </g>
   <g id="patch_4">
    <path d="M 378 543.3984 
L 378 73.2672 
" style="fill:none;stroke:#000000;stroke-linecap:square;stroke-linejoin:miter;stroke-width:0.8;"/>
   </g>
   <g id="patch_5">
    <path d="M 99 543.3984 
L 378 543.3984 
" style="fill:none;stroke:#000000;stroke-linecap:square;stroke-linejoin:miter;stroke-width:0.8;"/>
   </g>
   <g id="patch_6">
    <path d="M 99 73.2672 
L 378 73.2672 
" style="fill:none;stroke:#000000;stroke-linecap:square;stroke-linejoin:miter;stroke-width:0.8;"/>
   </g>
   <g id="text_13">
    <g id="patch_7">
     <path d="M 112.95 152.32401 
L 199.125 152.32401 
Q 202.725 152.32401 202.725 148.72401 
L 202.725 96.77376 
Q 202.725 93.17376 199.125 93.17376 
L 112.95 93.17376 
Q 109.35 93.17376 109.35 96.77376 
L 109.35 148.72401 
Q 109.35 152.32401 112.95 152.32401 
z
" style="fill:#f5deb3;opacity:0.5;stroke:#000000;stroke-linejoin:miter;"/>
    </g>
    <!-- a=32.745 -->
    <defs>
     <path d="M 34.28125 27.484375 
Q 23.390625 27.484375 19.1875 25 
Q 14.984375 22.515625 14.984375 16.5 
Q 14.984375 11.71875 18.140625 8.90625 
Q 21.296875 6.109375 26.703125 6.109375 
Q 34.1875 6.109375 38.703125 11.40625 
Q 43.21875 16.703125 43.21875 25.484375 
L 43.21875 27.484375 
z
M 52.203125 31.203125 
L 52.203125 0 
L 43.21875 0 
L 43.21875 8.296875 
Q 40.140625 3.328125 35.546875 0.953125 
Q 30.953125 -1.421875 24.3125 -1.421875 
Q 15.921875 -1.421875 10.953125 3.296875 
Q 6 8.015625 6 15.921875 
Q 6 25.140625 12.171875 29.828125 
Q 18.359375 34.515625 30.609375 34.515625 
L 43.21875 34.515625 
L 43.21875 35.40625 
Q 43.21875 41.609375 39.140625 45 
Q 35.0625 48.390625 27.6875 48.390625 
Q 23 48.390625 18.546875 47.265625 
Q 14.109375 46.140625 10.015625 43.890625 
L 10.015625 52.203125 
Q 14.9375 54.109375 19.578125 55.046875 
Q 24.21875 56 28.609375 56 
Q 40.484375 56 46.34375 49.84375 
Q 52.203125 43.703125 52.203125 31.203125 
z
" id="DejaVuSans-61"/>
     <path d="M 10.59375 45.40625 
L 73.1875 45.40625 
L 73.1875 37.203125 
L 10.59375 37.203125 
z
M 10.59375 25.484375 
L 73.1875 25.484375 
L 73.1875 17.1875 
L 10.59375 17.1875 
z
" id="DejaVuSans-3d"/>
     <path d="M 40.578125 39.3125 
Q 47.65625 37.796875 51.625 33 
Q 55.609375 28.21875 55.609375 21.1875 
Q 55.609375 10.40625 48.1875 4.484375 
Q 40.765625 -1.421875 27.09375 -1.421875 
Q 22.515625 -1.421875 17.65625 -0.515625 
Q 12.796875 0.390625 7.625 2.203125 
L 7.625 11.71875 
Q 11.71875 9.328125 16.59375 8.109375 
Q 21.484375 6.890625 26.8125 6.890625 
Q 36.078125 6.890625 40.9375 10.546875 
Q 45.796875 14.203125 45.796875 21.1875 
Q 45.796875 27.640625 41.28125 31.265625 
Q 36.765625 34.90625 28.71875 34.90625 
L 20.21875 34.90625 
L 20.21875 43.015625 
L 29.109375 43.015625 
Q 36.375 43.015625 40.234375 45.921875 
Q 44.09375 48.828125 44.09375 54.296875 
Q 44.09375 59.90625 40.109375 62.90625 
Q 36.140625 65.921875 28.71875 65.921875 
Q 24.65625 65.921875 20.015625 65.03125 
Q 15.375 64.15625 9.8125 62.3125 
L 9.8125 71.09375 
Q 15.4375 72.65625 20.34375 73.4375 
Q 25.25 74.21875 29.59375 74.21875 
Q 40.828125 74.21875 47.359375 69.109375 
Q 53.90625 64.015625 53.90625 55.328125 
Q 53.90625 49.265625 50.4375 45.09375 
Q 46.96875 40.921875 40.578125 39.3125 
z
" id="DejaVuSans-33"/>
     <path d="M 8.203125 72.90625 
L 55.078125 72.90625 
L 55.078125 68.703125 
L 28.609375 0 
L 18.3125 0 
L 43.21875 64.59375 
L 8.203125 64.59375 
z
" id="DejaVuSans-37"/>
     <path d="M 10.796875 72.90625 
L 49.515625 72.90625 
L 49.515625 64.59375 
L 19.828125 64.59375 
L 19.828125 46.734375 
Q 21.96875 47.46875 24.109375 47.828125 
Q 26.265625 48.1875 28.421875 48.1875 
Q 40.625 48.1875 47.75 41.5 
Q 54.890625 34.8125 54.890625 23.390625 
Q 54.890625 11.625 47.5625 5.09375 
Q 40.234375 -1.421875 26.90625 -1.421875 
Q 22.3125 -1.421875 17.546875 -0.640625 
Q 12.796875 0.140625 7.71875 1.703125 
L 7.71875 11.625 
Q 12.109375 9.234375 16.796875 8.0625 
Q 21.484375 6.890625 26.703125 6.890625 
Q 35.15625 6.890625 40.078125 11.328125 
Q 45.015625 15.765625 45.015625 23.390625 
Q 45.015625 31 40.078125 35.4375 
Q 35.15625 39.890625 26.703125 39.890625 
Q 22.75 39.890625 18.8125 39.015625 
Q 14.890625 38.140625 10.796875 36.28125 
z
" id="DejaVuSans-35"/>
    </defs>
    <g transform="translate(112.95 105.891885)scale(0.12 -0.12)">
     <use xlink:href="#DejaVuSans-61"/>
     <use x="61.279297" xlink:href="#DejaVuSans-3d"/>
     <use x="145.068359" xlink:href="#DejaVuSans-33"/>
     <use x="208.691406" xlink:href="#DejaVuSans-32"/>
     <use x="272.314453" xlink:href="#DejaVuSans-2e"/>
     <use x="304.101562" xlink:href="#DejaVuSans-37"/>
     <use x="367.724609" xlink:href="#DejaVuSans-34"/>
     <use x="431.347656" xlink:href="#DejaVuSans-35"/>
    </g>
    <!-- $\mu$=-0.066 -->
    <defs>
     <path d="M -1.3125 -20.796875 
L 13.375 54.6875 
L 22.40625 54.6875 
L 15.765625 20.65625 
Q 15.578125 19.625 15.421875 18.359375 
Q 15.28125 17.09375 15.28125 15.828125 
Q 15.28125 11.28125 18.140625 8.828125 
Q 21 6.390625 26.3125 6.390625 
Q 33.546875 6.390625 37.984375 10.484375 
Q 42.4375 14.59375 44 22.796875 
L 50.203125 54.6875 
L 59.1875 54.6875 
L 51.03125 12.640625 
Q 50.828125 11.71875 50.75 11.03125 
Q 50.6875 10.359375 50.6875 9.8125 
Q 50.6875 8.296875 51.296875 7.59375 
Q 51.90625 6.890625 53.21875 6.890625 
Q 53.71875 6.890625 54.5625 7.125 
Q 55.421875 7.375 56.984375 8.015625 
L 55.609375 0.78125 
Q 53.46875 -0.296875 51.515625 -0.859375 
Q 49.5625 -1.421875 47.703125 -1.421875 
Q 44.484375 -1.421875 42.65625 0.625 
Q 40.828125 2.6875 40.828125 6.296875 
Q 38.09375 2.390625 34.296875 0.484375 
Q 30.515625 -1.421875 25.390625 -1.421875 
Q 20.84375 -1.421875 17.453125 0.671875 
Q 14.0625 2.78125 12.984375 6.203125 
L 7.71875 -20.796875 
z
" id="DejaVuSans-Oblique-3bc"/>
     <path d="M 4.890625 31.390625 
L 31.203125 31.390625 
L 31.203125 23.390625 
L 4.890625 23.390625 
z
" id="DejaVuSans-2d"/>
    </defs>
    <g transform="translate(112.95 119.32926)scale(0.12 -0.12)">
     <use transform="translate(0 0.78125)" xlink:href="#DejaVuSans-Oblique-3bc"/>
     <use transform="translate(63.623047 0.78125)" xlink:href="#DejaVuSans-3d"/>
     <use transform="translate(147.412109 0.78125)" xlink:href="#DejaVuSans-2d"/>
     <use transform="translate(183.496094 0.78125)" xlink:href="#DejaVuSans-30"/>
     <use transform="translate(247.119141 0.78125)" xlink:href="#DejaVuSans-2e"/>
     <use transform="translate(278.90625 0.78125)" xlink:href="#DejaVuSans-30"/>
     <use transform="translate(342.529297 0.78125)" xlink:href="#DejaVuSans-36"/>
     <use transform="translate(406.152344 0.78125)" xlink:href="#DejaVuSans-36"/>
    </g>
    <!-- $\sigma$=0.0038 -->
    <defs>
     <path d="M 34.671875 47.5625 
Q 27.25 47.5625 22.21875 42.1875 
Q 16.890625 36.578125 15.140625 27.296875 
Q 13.1875 17.484375 16.3125 11.8125 
Q 19.390625 6.203125 26.65625 6.203125 
Q 33.84375 6.203125 39.109375 11.859375 
Q 44.4375 17.53125 46.34375 27.296875 
Q 48.046875 36.234375 45.015625 42.1875 
Q 42.1875 47.5625 34.671875 47.5625 
z
M 36.078125 54.734375 
L 65.921875 54.6875 
L 64.15625 45.703125 
L 54.109375 45.703125 
Q 57.90625 38.09375 55.859375 27.296875 
Q 53.21875 13.875 45.0625 6.25 
Q 36.859375 -1.421875 25.140625 -1.421875 
Q 13.375 -1.421875 8.203125 6.25 
Q 3.03125 13.875 5.671875 27.296875 
Q 8.25 40.765625 16.40625 48.390625 
Q 23.1875 54.734375 36.078125 54.734375 
z
" id="DejaVuSans-Oblique-3c3"/>
    </defs>
    <g transform="translate(112.95 132.79101)scale(0.12 -0.12)">
     <use transform="translate(0 0.78125)" xlink:href="#DejaVuSans-Oblique-3c3"/>
     <use transform="translate(63.378906 0.78125)" xlink:href="#DejaVuSans-3d"/>
     <use transform="translate(147.167969 0.78125)" xlink:href="#DejaVuSans-30"/>
     <use transform="translate(210.791016 0.78125)" xlink:href="#DejaVuSans-2e"/>
     <use transform="translate(242.578125 0.78125)" xlink:href="#DejaVuSans-30"/>
     <use transform="translate(306.201172 0.78125)" xlink:href="#DejaVuSans-30"/>
     <use transform="translate(369.824219 0.78125)" xlink:href="#DejaVuSans-33"/>
     <use transform="translate(433.447266 0.78125)" xlink:href="#DejaVuSans-38"/>
    </g>
    <!-- offset=13.371 -->
    <defs>
     <path d="M 30.609375 48.390625 
Q 23.390625 48.390625 19.1875 42.75 
Q 14.984375 37.109375 14.984375 27.296875 
Q 14.984375 17.484375 19.15625 11.84375 
Q 23.34375 6.203125 30.609375 6.203125 
Q 37.796875 6.203125 41.984375 11.859375 
Q 46.1875 17.53125 46.1875 27.296875 
Q 46.1875 37.015625 41.984375 42.703125 
Q 37.796875 48.390625 30.609375 48.390625 
z
M 30.609375 56 
Q 42.328125 56 49.015625 48.375 
Q 55.71875 40.765625 55.71875 27.296875 
Q 55.71875 13.875 49.015625 6.21875 
Q 42.328125 -1.421875 30.609375 -1.421875 
Q 18.84375 -1.421875 12.171875 6.21875 
Q 5.515625 13.875 5.515625 27.296875 
Q 5.515625 40.765625 12.171875 48.375 
Q 18.84375 56 30.609375 56 
z
" id="DejaVuSans-6f"/>
     <path d="M 37.109375 75.984375 
L 37.109375 68.5 
L 28.515625 68.5 
Q 23.6875 68.5 21.796875 66.546875 
Q 19.921875 64.59375 19.921875 59.515625 
L 19.921875 54.6875 
L 34.71875 54.6875 
L 34.71875 47.703125 
L 19.921875 47.703125 
L 19.921875 0 
L 10.890625 0 
L 10.890625 47.703125 
L 2.296875 47.703125 
L 2.296875 54.6875 
L 10.890625 54.6875 
L 10.890625 58.5 
Q 10.890625 67.625 15.140625 71.796875 
Q 19.390625 75.984375 28.609375 75.984375 
z
" id="DejaVuSans-66"/>
     <path d="M 44.28125 53.078125 
L 44.28125 44.578125 
Q 40.484375 46.53125 36.375 47.5 
Q 32.28125 48.484375 27.875 48.484375 
Q 21.1875 48.484375 17.84375 46.4375 
Q 14.5 44.390625 14.5 40.28125 
Q 14.5 37.15625 16.890625 35.375 
Q 19.28125 33.59375 26.515625 31.984375 
L 29.59375 31.296875 
Q 39.15625 29.25 43.1875 25.515625 
Q 47.21875 21.78125 47.21875 15.09375 
Q 47.21875 7.46875 41.1875 3.015625 
Q 35.15625 -1.421875 24.609375 -1.421875 
Q 20.21875 -1.421875 15.453125 -0.5625 
Q 10.6875 0.296875 5.421875 2 
L 5.421875 11.28125 
Q 10.40625 8.6875 15.234375 7.390625 
Q 20.0625 6.109375 24.8125 6.109375 
Q 31.15625 6.109375 34.5625 8.28125 
Q 37.984375 10.453125 37.984375 14.40625 
Q 37.984375 18.0625 35.515625 20.015625 
Q 33.0625 21.96875 24.703125 23.78125 
L 21.578125 24.515625 
Q 13.234375 26.265625 9.515625 29.90625 
Q 5.8125 33.546875 5.8125 39.890625 
Q 5.8125 47.609375 11.28125 51.796875 
Q 16.75 56 26.8125 56 
Q 31.78125 56 36.171875 55.265625 
Q 40.578125 54.546875 44.28125 53.078125 
z
" id="DejaVuSans-73"/>
     <path d="M 56.203125 29.59375 
L 56.203125 25.203125 
L 14.890625 25.203125 
Q 15.484375 15.921875 20.484375 11.0625 
Q 25.484375 6.203125 34.421875 6.203125 
Q 39.59375 6.203125 44.453125 7.46875 
Q 49.3125 8.734375 54.109375 11.28125 
L 54.109375 2.78125 
Q 49.265625 0.734375 44.1875 -0.34375 
Q 39.109375 -1.421875 33.890625 -1.421875 
Q 20.796875 -1.421875 13.15625 6.1875 
Q 5.515625 13.8125 5.515625 26.8125 
Q 5.515625 40.234375 12.765625 48.109375 
Q 20.015625 56 32.328125 56 
Q 43.359375 56 49.78125 48.890625 
Q 56.203125 41.796875 56.203125 29.59375 
z
M 47.21875 32.234375 
Q 47.125 39.59375 43.09375 43.984375 
Q 39.0625 48.390625 32.421875 48.390625 
Q 24.90625 48.390625 20.390625 44.140625 
Q 15.875 39.890625 15.1875 32.171875 
z
" id="DejaVuSans-65"/>
     <path d="M 18.3125 70.21875 
L 18.3125 54.6875 
L 36.8125 54.6875 
L 36.8125 47.703125 
L 18.3125 47.703125 
L 18.3125 18.015625 
Q 18.3125 11.328125 20.140625 9.421875 
Q 21.96875 7.515625 27.59375 7.515625 
L 36.8125 7.515625 
L 36.8125 0 
L 27.59375 0 
Q 17.1875 0 13.234375 3.875 
Q 9.28125 7.765625 9.28125 18.015625 
L 9.28125 47.703125 
L 2.6875 47.703125 
L 2.6875 54.6875 
L 9.28125 54.6875 
L 9.28125 70.21875 
z
" id="DejaVuSans-74"/>
    </defs>
    <g transform="translate(112.95 146.228385)scale(0.12 -0.12)">
     <use xlink:href="#DejaVuSans-6f"/>
     <use x="61.181641" xlink:href="#DejaVuSans-66"/>
     <use x="96.386719" xlink:href="#DejaVuSans-66"/>
     <use x="131.591797" xlink:href="#DejaVuSans-73"/>
     <use x="183.691406" xlink:href="#DejaVuSans-65"/>
     <use x="245.214844" xlink:href="#DejaVuSans-74"/>
     <use x="284.423828" xlink:href="#DejaVuSans-3d"/>
     <use x="368.212891" xlink:href="#DejaVuSans-31"/>
     <use x="431.835938" xlink:href="#DejaVuSans-33"/>
     <use x="495.458984" xlink:href="#DejaVuSans-2e"/>
     <use x="527.246094" xlink:href="#DejaVuSans-33"/>
     <use x="590.869141" xlink:href="#DejaVuSans-37"/>
     <use x="654.492188" xlink:href="#DejaVuSans-31"/>
    </g>
   </g>
   <g id="text_14">
    <!-- X Axis -->
    <defs>
     <path d="M 6.296875 72.90625 
L 16.890625 72.90625 
L 35.015625 45.796875 
L 53.21875 72.90625 
L 63.8125 72.90625 
L 40.375 37.890625 
L 65.375 0 
L 54.78125 0 
L 34.28125 31 
L 13.625 0 
L 2.984375 0 
L 29 38.921875 
z
" id="DejaVuSans-58"/>
     <path id="DejaVuSans-20"/>
     <path d="M 34.1875 63.1875 
L 20.796875 26.90625 
L 47.609375 26.90625 
z
M 28.609375 72.90625 
L 39.796875 72.90625 
L 67.578125 0 
L 57.328125 0 
L 50.6875 18.703125 
L 17.828125 18.703125 
L 11.1875 0 
L 0.78125 0 
z
" id="DejaVuSans-41"/>
     <path d="M 54.890625 54.6875 
L 35.109375 28.078125 
L 55.90625 0 
L 45.3125 0 
L 29.390625 21.484375 
L 13.484375 0 
L 2.875 0 
L 24.125 28.609375 
L 4.6875 54.6875 
L 15.28125 54.6875 
L 29.78125 35.203125 
L 44.28125 54.6875 
z
" id="DejaVuSans-78"/>
     <path d="M 9.421875 54.6875 
L 18.40625 54.6875 
L 18.40625 0 
L 9.421875 0 
z
M 9.421875 75.984375 
L 18.40625 75.984375 
L 18.40625 64.59375 
L 9.421875 64.59375 
z
" id="DejaVuSans-69"/>
    </defs>
    <g transform="translate(220.035 67.2672)scale(0.12 -0.12)">
     <use xlink:href="#DejaVuSans-58"/>
     <use x="68.505859" xlink:href="#DejaVuSans-20"/>
     <use x="100.292969" xlink:href="#DejaVuSans-41"/>
     <use x="168.701172" xlink:href="#DejaVuSans-78"/>
     <use x="227.880859" xlink:href="#DejaVuSans-69"/>
     <use x="255.664062" xlink:href="#DejaVuSans-73"/>
    </g>
   </g>
  </g>
  <g id="axes_2">
   <g id="patch_8">
    <path d="M 433.8 543.3984 
L 712.8 543.3984 
L 712.8 73.2672 
L 433.8 73.2672 
z
" style="fill:#ffffff;"/>
   </g>
   <g id="matplotlib.axis_3">
    <g id="xtick_7">
     <g id="line2d_15">
      <g>
       <use style="stroke:#000000;stroke-width:0.8;" x="436.336364" xlink:href="#mfd486527d0" y="543.3984"/>
      </g>
     </g>
     <g id="text_15">
      <!-- 0.02 -->
      <g transform="translate(425.203551 557.996838)scale(0.1 -0.1)">
       <use xlink:href="#DejaVuSans-30"/>
       <use x="63.623047" xlink:href="#DejaVuSans-2e"/>
       <use x="95.410156" xlink:href="#DejaVuSans-30"/>
       <use x="159.033203" xlink:href="#DejaVuSans-32"/>
      </g>
     </g>
    </g>
    <g id="xtick_8">
     <g id="line2d_16">
      <g>
       <use style="stroke:#000000;stroke-width:0.8;" x="487.063636" xlink:href="#mfd486527d0" y="543.3984"/>
      </g>
     </g>
     <g id="text_16">
      <!-- 0.04 -->
      <g transform="translate(475.930824 557.996838)scale(0.1 -0.1)">
       <use xlink:href="#DejaVuSans-30"/>
       <use x="63.623047" xlink:href="#DejaVuSans-2e"/>
       <use x="95.410156" xlink:href="#DejaVuSans-30"/>
       <use x="159.033203" xlink:href="#DejaVuSans-34"/>
      </g>
     </g>
    </g>
    <g id="xtick_9">
     <g id="line2d_17">
      <g>
       <use style="stroke:#000000;stroke-width:0.8;" x="537.790909" xlink:href="#mfd486527d0" y="543.3984"/>
      </g>
     </g>
     <g id="text_17">
      <!-- 0.06 -->
      <g transform="translate(526.658097 557.996838)scale(0.1 -0.1)">
       <use xlink:href="#DejaVuSans-30"/>
       <use x="63.623047" xlink:href="#DejaVuSans-2e"/>
       <use x="95.410156" xlink:href="#DejaVuSans-30"/>
       <use x="159.033203" xlink:href="#DejaVuSans-36"/>
      </g>
     </g>
    </g>
    <g id="xtick_10">
     <g id="line2d_18">
      <g>
       <use style="stroke:#000000;stroke-width:0.8;" x="588.518182" xlink:href="#mfd486527d0" y="543.3984"/>
      </g>
     </g>
     <g id="text_18">
      <!-- 0.08 -->
      <g transform="translate(577.385369 557.996838)scale(0.1 -0.1)">
       <use xlink:href="#DejaVuSans-30"/>
       <use x="63.623047" xlink:href="#DejaVuSans-2e"/>
       <use x="95.410156" xlink:href="#DejaVuSans-30"/>
       <use x="159.033203" xlink:href="#DejaVuSans-38"/>
      </g>
     </g>
    </g>
    <g id="xtick_11">
     <g id="line2d_19">
      <g>
       <use style="stroke:#000000;stroke-width:0.8;" x="639.245455" xlink:href="#mfd486527d0" y="543.3984"/>
      </g>
     </g>
     <g id="text_19">
      <!-- 0.10 -->
      <g transform="translate(628.112642 557.996838)scale(0.1 -0.1)">
       <use xlink:href="#DejaVuSans-30"/>
       <use x="63.623047" xlink:href="#DejaVuSans-2e"/>
       <use x="95.410156" xlink:href="#DejaVuSans-31"/>
       <use x="159.033203" xlink:href="#DejaVuSans-30"/>
      </g>
     </g>
    </g>
    <g id="xtick_12">
     <g id="line2d_20">
      <g>
       <use style="stroke:#000000;stroke-width:0.8;" x="689.972727" xlink:href="#mfd486527d0" y="543.3984"/>
      </g>
     </g>
     <g id="text_20">
      <!-- 0.12 -->
      <g transform="translate(678.839915 557.996838)scale(0.1 -0.1)">
       <use xlink:href="#DejaVuSans-30"/>
       <use x="63.623047" xlink:href="#DejaVuSans-2e"/>
       <use x="95.410156" xlink:href="#DejaVuSans-31"/>
       <use x="159.033203" xlink:href="#DejaVuSans-32"/>
      </g>
     </g>
    </g>
   </g>
   <g id="matplotlib.axis_4">
    <g id="ytick_7">
     <g id="line2d_21">
      <g>
       <use style="stroke:#000000;stroke-width:0.8;" x="433.8" xlink:href="#m0a0a60d992" y="524.852217"/>
      </g>
     </g>
     <g id="text_21">
      <!-- 0 -->
      <g transform="translate(420.4375 528.651436)scale(0.1 -0.1)">
       <use xlink:href="#DejaVuSans-30"/>
      </g>
     </g>
    </g>
    <g id="ytick_8">
     <g id="line2d_22">
      <g>
       <use style="stroke:#000000;stroke-width:0.8;" x="433.8" xlink:href="#m0a0a60d992" y="444.183152"/>
      </g>
     </g>
     <g id="text_22">
      <!-- 200 -->
      <g transform="translate(407.7125 447.982371)scale(0.1 -0.1)">
       <use xlink:href="#DejaVuSans-32"/>
       <use x="63.623047" xlink:href="#DejaVuSans-30"/>
       <use x="127.246094" xlink:href="#DejaVuSans-30"/>
      </g>
     </g>
    </g>
    <g id="ytick_9">
     <g id="line2d_23">
      <g>
       <use style="stroke:#000000;stroke-width:0.8;" x="433.8" xlink:href="#m0a0a60d992" y="363.514087"/>
      </g>
     </g>
     <g id="text_23">
      <!-- 400 -->
      <g transform="translate(407.7125 367.313306)scale(0.1 -0.1)">
       <use xlink:href="#DejaVuSans-34"/>
       <use x="63.623047" xlink:href="#DejaVuSans-30"/>
       <use x="127.246094" xlink:href="#DejaVuSans-30"/>
      </g>
     </g>
    </g>
    <g id="ytick_10">
     <g id="line2d_24">
      <g>
       <use style="stroke:#000000;stroke-width:0.8;" x="433.8" xlink:href="#m0a0a60d992" y="282.845022"/>
      </g>
     </g>
     <g id="text_24">
      <!-- 600 -->
      <g transform="translate(407.7125 286.644241)scale(0.1 -0.1)">
       <use xlink:href="#DejaVuSans-36"/>
       <use x="63.623047" xlink:href="#DejaVuSans-30"/>
       <use x="127.246094" xlink:href="#DejaVuSans-30"/>
      </g>
     </g>
    </g>
    <g id="ytick_11">
     <g id="line2d_25">
      <g>
       <use style="stroke:#000000;stroke-width:0.8;" x="433.8" xlink:href="#m0a0a60d992" y="202.175957"/>
      </g>
     </g>
     <g id="text_25">
      <!-- 800 -->
      <g transform="translate(407.7125 205.975175)scale(0.1 -0.1)">
       <use xlink:href="#DejaVuSans-38"/>
       <use x="63.623047" xlink:href="#DejaVuSans-30"/>
       <use x="127.246094" xlink:href="#DejaVuSans-30"/>
      </g>
     </g>
    </g>
    <g id="ytick_12">
     <g id="line2d_26">
      <g>
       <use style="stroke:#000000;stroke-width:0.8;" x="433.8" xlink:href="#m0a0a60d992" y="121.506892"/>
      </g>
     </g>
     <g id="text_26">
      <!-- 1000 -->
      <g transform="translate(401.35 125.30611)scale(0.1 -0.1)">
       <use xlink:href="#DejaVuSans-31"/>
       <use x="63.623047" xlink:href="#DejaVuSans-30"/>
       <use x="127.246094" xlink:href="#DejaVuSans-30"/>
       <use x="190.869141" xlink:href="#DejaVuSans-30"/>
      </g>
     </g>
    </g>
   </g>
   <g id="line2d_27">
    <path clip-path="url(#pa5b87bffed)" d="M 446.481818 517.188656 
L 449.652273 519.608728 
L 452.822727 517.592001 
L 455.993182 517.592001 
L 459.163636 516.381965 
L 462.334091 519.205383 
L 465.504545 518.802037 
L 468.675 519.205383 
L 471.845455 519.205383 
L 475.015909 519.205383 
L 478.186364 520.415419 
L 481.356818 519.205383 
L 484.527273 520.012073 
L 487.697727 517.995347 
L 490.868182 515.575275 
L 494.038636 519.608728 
L 497.209091 520.818764 
L 500.379545 515.171929 
L 503.55 519.608728 
L 506.720455 520.415419 
L 509.890909 518.802037 
L 513.061364 517.592001 
L 516.231818 518.802037 
L 519.402273 516.381965 
L 522.572727 517.188656 
L 525.743182 517.592001 
L 528.913636 518.802037 
L 532.084091 518.398692 
L 535.254545 515.97862 
L 538.425 514.768584 
L 541.595455 510.331786 
L 544.765909 501.861534 
L 547.936364 495.408009 
L 551.106818 474.030706 
L 554.277273 427.242648 
L 557.447727 352.623763 
L 560.618182 296.155418 
L 563.788636 221.536532 
L 566.959091 152.967827 
L 570.129545 113.03664 
L 573.3 97.709517 
L 576.470455 117.473438 
L 579.640909 197.335813 
L 582.811364 274.778115 
L 585.981818 342.943475 
L 589.152273 424.015886 
L 592.322727 476.047433 
L 595.493182 494.197973 
L 598.663636 514.365239 
L 601.834091 521.222109 
L 605.004545 517.188656 
L 608.175 517.188656 
L 611.345455 519.608728 
L 614.515909 515.575275 
L 617.686364 515.171929 
L 620.856818 515.171929 
L 624.027273 508.718404 
L 627.197727 511.945167 
L 630.368182 510.331786 
L 633.538636 509.92844 
L 636.709091 514.365239 
L 639.879545 509.92844 
L 643.05 510.331786 
L 646.220455 515.171929 
L 649.390909 517.188656 
L 652.561364 515.171929 
L 655.731818 519.205383 
L 658.902273 518.802037 
L 662.072727 518.398692 
L 665.243182 517.995347 
L 668.413636 519.608728 
L 671.584091 518.802037 
L 674.754545 518.398692 
L 677.925 514.768584 
L 681.095455 519.205383 
L 684.265909 519.205383 
L 687.436364 518.398692 
L 690.606818 522.0288 
L 693.777273 520.415419 
L 696.947727 519.205383 
L 700.118182 517.995347 
" style="fill:none;stroke:#1f77b4;stroke-linecap:square;stroke-width:1.5;"/>
   </g>
   <g id="line2d_28">
    <path clip-path="url(#pa5b87bffed)" d="M 446.481818 517.713901 
L 531.027273 517.607334 
L 534.073956 517.366049 
L 536.105078 516.98623 
L 537.628419 516.48135 
L 538.897871 515.834685 
L 539.913432 515.110324 
L 540.928993 514.143068 
L 541.944554 512.865772 
L 542.960115 511.197854 
L 543.975676 509.044287 
L 544.991237 506.295094 
L 546.006798 502.825531 
L 547.022359 498.497191 
L 548.03792 493.160233 
L 549.053481 486.656923 
L 550.069042 478.826632 
L 551.084603 469.512333 
L 552.354054 455.56285 
L 553.623505 438.833461 
L 554.892957 419.171375 
L 556.416298 391.663222 
L 557.93964 360.105646 
L 559.970762 312.79764 
L 566.318018 159.187073 
L 567.587469 135.319713 
L 568.60303 119.644202 
L 569.618591 107.498072 
L 570.380262 100.922774 
L 570.888043 97.810682 
L 571.395823 95.744162 
L 571.903604 94.738827 
L 572.157494 94.6368 
L 572.411384 94.802293 
L 572.665274 95.234992 
L 573.173055 96.898224 
L 573.680835 99.613916 
L 574.442506 105.613941 
L 575.204177 113.833237 
L 576.219738 128.003658 
L 577.235299 145.462761 
L 578.50475 171.157456 
L 580.281982 212.396594 
L 586.883129 372.317645 
L 588.40647 402.413045 
L 589.929812 428.337242 
L 591.199263 446.674824 
L 592.468714 462.135757 
L 593.738165 474.91385 
L 595.007617 485.271121 
L 596.277068 493.507771 
L 597.292629 498.780556 
L 598.30819 503.053874 
L 599.323751 506.476971 
L 600.339312 509.187495 
L 601.354873 511.309333 
L 602.370434 512.951575 
L 603.385995 514.20837 
L 604.401556 515.159471 
L 605.671007 516.018434 
L 606.940459 516.606211 
L 608.4638 517.063008 
L 610.494922 517.404693 
L 613.287715 517.609893 
L 618.36552 517.702109 
L 642.485094 517.713901 
L 700.118182 517.713901 
L 700.118182 517.713901 
" style="fill:none;stroke:#ff7f0e;stroke-linecap:square;stroke-width:1.5;"/>
   </g>
   <g id="patch_9">
    <path d="M 433.8 543.3984 
L 433.8 73.2672 
" style="fill:none;stroke:#000000;stroke-linecap:square;stroke-linejoin:miter;stroke-width:0.8;"/>
   </g>
   <g id="patch_10">
    <path d="M 712.8 543.3984 
L 712.8 73.2672 
" style="fill:none;stroke:#000000;stroke-linecap:square;stroke-linejoin:miter;stroke-width:0.8;"/>
   </g>
   <g id="patch_11">
    <path d="M 433.8 543.3984 
L 712.8 543.3984 
" style="fill:none;stroke:#000000;stroke-linecap:square;stroke-linejoin:miter;stroke-width:0.8;"/>
   </g>
   <g id="patch_12">
    <path d="M 433.8 73.2672 
L 712.8 73.2672 
" style="fill:none;stroke:#000000;stroke-linecap:square;stroke-linejoin:miter;stroke-width:0.8;"/>
   </g>
   <g id="text_27">
    <g id="patch_13">
     <path d="M 447.75 152.32401 
L 533.925 152.32401 
Q 537.525 152.32401 537.525 148.72401 
L 537.525 96.77376 
Q 537.525 93.17376 533.925 93.17376 
L 447.75 93.17376 
Q 444.15 93.17376 444.15 96.77376 
L 444.15 148.72401 
Q 444.15 152.32401 447.75 152.32401 
z
" style="fill:#f5deb3;opacity:0.5;stroke:#000000;stroke-linejoin:miter;"/>
    </g>
    <!-- a=32.387 -->
    <g transform="translate(447.75 105.891885)scale(0.12 -0.12)">
     <use xlink:href="#DejaVuSans-61"/>
     <use x="61.279297" xlink:href="#DejaVuSans-3d"/>
     <use x="145.068359" xlink:href="#DejaVuSans-33"/>
     <use x="208.691406" xlink:href="#DejaVuSans-32"/>
     <use x="272.314453" xlink:href="#DejaVuSans-2e"/>
     <use x="304.101562" xlink:href="#DejaVuSans-33"/>
     <use x="367.724609" xlink:href="#DejaVuSans-38"/>
     <use x="431.347656" xlink:href="#DejaVuSans-37"/>
    </g>
    <!-- $\mu$=0.074 -->
    <g transform="translate(447.75 119.32926)scale(0.12 -0.12)">
     <use transform="translate(0 0.78125)" xlink:href="#DejaVuSans-Oblique-3bc"/>
     <use transform="translate(63.623047 0.78125)" xlink:href="#DejaVuSans-3d"/>
     <use transform="translate(147.412109 0.78125)" xlink:href="#DejaVuSans-30"/>
     <use transform="translate(211.035156 0.78125)" xlink:href="#DejaVuSans-2e"/>
     <use transform="translate(242.822266 0.78125)" xlink:href="#DejaVuSans-30"/>
     <use transform="translate(306.445312 0.78125)" xlink:href="#DejaVuSans-37"/>
     <use transform="translate(370.068359 0.78125)" xlink:href="#DejaVuSans-34"/>
    </g>
    <!-- $\sigma$=0.0040 -->
    <g transform="translate(447.75 132.79101)scale(0.12 -0.12)">
     <use transform="translate(0 0.78125)" xlink:href="#DejaVuSans-Oblique-3c3"/>
     <use transform="translate(63.378906 0.78125)" xlink:href="#DejaVuSans-3d"/>
     <use transform="translate(147.167969 0.78125)" xlink:href="#DejaVuSans-30"/>
     <use transform="translate(210.791016 0.78125)" xlink:href="#DejaVuSans-2e"/>
     <use transform="translate(242.578125 0.78125)" xlink:href="#DejaVuSans-30"/>
     <use transform="translate(306.201172 0.78125)" xlink:href="#DejaVuSans-30"/>
     <use transform="translate(369.824219 0.78125)" xlink:href="#DejaVuSans-34"/>
     <use transform="translate(433.447266 0.78125)" xlink:href="#DejaVuSans-30"/>
    </g>
    <!-- offset=17.698 -->
    <defs>
     <path d="M 10.984375 1.515625 
L 10.984375 10.5 
Q 14.703125 8.734375 18.5 7.8125 
Q 22.3125 6.890625 25.984375 6.890625 
Q 35.75 6.890625 40.890625 13.453125 
Q 46.046875 20.015625 46.78125 33.40625 
Q 43.953125 29.203125 39.59375 26.953125 
Q 35.25 24.703125 29.984375 24.703125 
Q 19.046875 24.703125 12.671875 31.3125 
Q 6.296875 37.9375 6.296875 49.421875 
Q 6.296875 60.640625 12.9375 67.421875 
Q 19.578125 74.21875 30.609375 74.21875 
Q 43.265625 74.21875 49.921875 64.515625 
Q 56.59375 54.828125 56.59375 36.375 
Q 56.59375 19.140625 48.40625 8.859375 
Q 40.234375 -1.421875 26.421875 -1.421875 
Q 22.703125 -1.421875 18.890625 -0.6875 
Q 15.09375 0.046875 10.984375 1.515625 
z
M 30.609375 32.421875 
Q 37.25 32.421875 41.125 36.953125 
Q 45.015625 41.5 45.015625 49.421875 
Q 45.015625 57.28125 41.125 61.84375 
Q 37.25 66.40625 30.609375 66.40625 
Q 23.96875 66.40625 20.09375 61.84375 
Q 16.21875 57.28125 16.21875 49.421875 
Q 16.21875 41.5 20.09375 36.953125 
Q 23.96875 32.421875 30.609375 32.421875 
z
" id="DejaVuSans-39"/>
    </defs>
    <g transform="translate(447.75 146.228385)scale(0.12 -0.12)">
     <use xlink:href="#DejaVuSans-6f"/>
     <use x="61.181641" xlink:href="#DejaVuSans-66"/>
     <use x="96.386719" xlink:href="#DejaVuSans-66"/>
     <use x="131.591797" xlink:href="#DejaVuSans-73"/>
     <use x="183.691406" xlink:href="#DejaVuSans-65"/>
     <use x="245.214844" xlink:href="#DejaVuSans-74"/>
     <use x="284.423828" xlink:href="#DejaVuSans-3d"/>
     <use x="368.212891" xlink:href="#DejaVuSans-31"/>
     <use x="431.835938" xlink:href="#DejaVuSans-37"/>
     <use x="495.458984" xlink:href="#DejaVuSans-2e"/>
     <use x="527.246094" xlink:href="#DejaVuSans-36"/>
     <use x="590.869141" xlink:href="#DejaVuSans-39"/>
     <use x="654.492188" xlink:href="#DejaVuSans-38"/>
    </g>
   </g>
   <g id="text_28">
    <!-- Y Axis -->
    <defs>
     <path d="M -0.203125 72.90625 
L 10.40625 72.90625 
L 30.609375 42.921875 
L 50.6875 72.90625 
L 61.28125 72.90625 
L 35.5 34.71875 
L 35.5 0 
L 25.59375 0 
L 25.59375 34.71875 
z
" id="DejaVuSans-59"/>
    </defs>
    <g transform="translate(555.280312 67.2672)scale(0.12 -0.12)">
     <use xlink:href="#DejaVuSans-59"/>
     <use x="61.083984" xlink:href="#DejaVuSans-20"/>
     <use x="92.871094" xlink:href="#DejaVuSans-41"/>
     <use x="161.279297" xlink:href="#DejaVuSans-78"/>
     <use x="220.458984" xlink:href="#DejaVuSans-69"/>
     <use x="248.242188" xlink:href="#DejaVuSans-73"/>
    </g>
   </g>
  </g>
 </g>
 <defs>
  <clipPath id="p19566d368b">
   <rect height="470.1312" width="279" x="99" y="73.2672"/>
  </clipPath>
  <clipPath id="pa5b87bffed">
   <rect height="470.1312" width="279" x="433.8" y="73.2672"/>
  </clipPath>
 </defs>
</svg>
