<?xml version="1.0" encoding="utf-8" standalone="no"?>
<!DOCTYPE svg PUBLIC "-//W3C//DTD SVG 1.1//EN"
  "http://www.w3.org/Graphics/SVG/1.1/DTD/svg11.dtd">
<!-- Created with matplotlib (http://matplotlib.org/) -->
<svg height="610.56pt" version="1.1" viewBox="0 0 792 610.56" width="792pt" xmlns="http://www.w3.org/2000/svg" xmlns:xlink="http://www.w3.org/1999/xlink">
 <defs>
  <style type="text/css">
*{stroke-linecap:butt;stroke-linejoin:round;}
  </style>
 </defs>
 <g id="figure_1">
  <g id="patch_1">
   <path d="M 0 610.56 
L 792 610.56 
L 792 0 
L 0 0 
z
" style="fill:#ffffff;"/>
  </g>
  <g id="axes_1">
   <g id="patch_2">
    <path d="M 99 543.3984 
L 279.529412 543.3984 
L 279.529412 73.2672 
L 99 73.2672 
z
" style="fill:#ffffff;"/>
   </g>
   <g id="matplotlib.axis_1">
    <g id="xtick_1">
     <g id="line2d_1">
      <defs>
       <path d="M 0 0 
L 0 3.5 
" id="m6775673a44" style="stroke:#000000;stroke-width:0.8;"/>
      </defs>
      <g>
       <use style="stroke:#000000;stroke-width:0.8;" x="131.823529" xlink:href="#m6775673a44" y="543.3984"/>
      </g>
     </g>
     <g id="text_1">
      <!-- 0.025 -->
      <defs>
       <path d="M 31.78125 66.40625 
Q 24.171875 66.40625 20.328125 58.90625 
Q 16.5 51.421875 16.5 36.375 
Q 16.5 21.390625 20.328125 13.890625 
Q 24.171875 6.390625 31.78125 6.390625 
Q 39.453125 6.390625 43.28125 13.890625 
Q 47.125 21.390625 47.125 36.375 
Q 47.125 51.421875 43.28125 58.90625 
Q 39.453125 66.40625 31.78125 66.40625 
z
M 31.78125 74.21875 
Q 44.046875 74.21875 50.515625 64.515625 
Q 56.984375 54.828125 56.984375 36.375 
Q 56.984375 17.96875 50.515625 8.265625 
Q 44.046875 -1.421875 31.78125 -1.421875 
Q 19.53125 -1.421875 13.0625 8.265625 
Q 6.59375 17.96875 6.59375 36.375 
Q 6.59375 54.828125 13.0625 64.515625 
Q 19.53125 74.21875 31.78125 74.21875 
z
" id="DejaVuSans-30"/>
       <path d="M 10.6875 12.40625 
L 21 12.40625 
L 21 0 
L 10.6875 0 
z
" id="DejaVuSans-2e"/>
       <path d="M 19.1875 8.296875 
L 53.609375 8.296875 
L 53.609375 0 
L 7.328125 0 
L 7.328125 8.296875 
Q 12.9375 14.109375 22.625 23.890625 
Q 32.328125 33.6875 34.8125 36.53125 
Q 39.546875 41.84375 41.421875 45.53125 
Q 43.3125 49.21875 43.3125 52.78125 
Q 43.3125 58.59375 39.234375 62.25 
Q 35.15625 65.921875 28.609375 65.921875 
Q 23.96875 65.921875 18.8125 64.3125 
Q 13.671875 62.703125 7.8125 59.421875 
L 7.8125 69.390625 
Q 13.765625 71.78125 18.9375 73 
Q 24.125 74.21875 28.421875 74.21875 
Q 39.75 74.21875 46.484375 68.546875 
Q 53.21875 62.890625 53.21875 53.421875 
Q 53.21875 48.921875 51.53125 44.890625 
Q 49.859375 40.875 45.40625 35.40625 
Q 44.1875 33.984375 37.640625 27.21875 
Q 31.109375 20.453125 19.1875 8.296875 
z
" id="DejaVuSans-32"/>
       <path d="M 10.796875 72.90625 
L 49.515625 72.90625 
L 49.515625 64.59375 
L 19.828125 64.59375 
L 19.828125 46.734375 
Q 21.96875 47.46875 24.109375 47.828125 
Q 26.265625 48.1875 28.421875 48.1875 
Q 40.625 48.1875 47.75 41.5 
Q 54.890625 34.8125 54.890625 23.390625 
Q 54.890625 11.625 47.5625 5.09375 
Q 40.234375 -1.421875 26.90625 -1.421875 
Q 22.3125 -1.421875 17.546875 -0.640625 
Q 12.796875 0.140625 7.71875 1.703125 
L 7.71875 11.625 
Q 12.109375 9.234375 16.796875 8.0625 
Q 21.484375 6.890625 26.703125 6.890625 
Q 35.15625 6.890625 40.078125 11.328125 
Q 45.015625 15.765625 45.015625 23.390625 
Q 45.015625 31 40.078125 35.4375 
Q 35.15625 39.890625 26.703125 39.890625 
Q 22.75 39.890625 18.8125 39.015625 
Q 14.890625 38.140625 10.796875 36.28125 
z
" id="DejaVuSans-35"/>
      </defs>
      <g transform="translate(117.509467 557.996838)scale(0.1 -0.1)">
       <use xlink:href="#DejaVuSans-30"/>
       <use x="63.623047" xlink:href="#DejaVuSans-2e"/>
       <use x="95.410156" xlink:href="#DejaVuSans-30"/>
       <use x="159.033203" xlink:href="#DejaVuSans-32"/>
       <use x="222.65625" xlink:href="#DejaVuSans-35"/>
      </g>
     </g>
    </g>
    <g id="xtick_2">
     <g id="line2d_2">
      <g>
       <use style="stroke:#000000;stroke-width:0.8;" x="172.852941" xlink:href="#m6775673a44" y="543.3984"/>
      </g>
     </g>
     <g id="text_2">
      <!-- 0.030 -->
      <defs>
       <path d="M 40.578125 39.3125 
Q 47.65625 37.796875 51.625 33 
Q 55.609375 28.21875 55.609375 21.1875 
Q 55.609375 10.40625 48.1875 4.484375 
Q 40.765625 -1.421875 27.09375 -1.421875 
Q 22.515625 -1.421875 17.65625 -0.515625 
Q 12.796875 0.390625 7.625 2.203125 
L 7.625 11.71875 
Q 11.71875 9.328125 16.59375 8.109375 
Q 21.484375 6.890625 26.8125 6.890625 
Q 36.078125 6.890625 40.9375 10.546875 
Q 45.796875 14.203125 45.796875 21.1875 
Q 45.796875 27.640625 41.28125 31.265625 
Q 36.765625 34.90625 28.71875 34.90625 
L 20.21875 34.90625 
L 20.21875 43.015625 
L 29.109375 43.015625 
Q 36.375 43.015625 40.234375 45.921875 
Q 44.09375 48.828125 44.09375 54.296875 
Q 44.09375 59.90625 40.109375 62.90625 
Q 36.140625 65.921875 28.71875 65.921875 
Q 24.65625 65.921875 20.015625 65.03125 
Q 15.375 64.15625 9.8125 62.3125 
L 9.8125 71.09375 
Q 15.4375 72.65625 20.34375 73.4375 
Q 25.25 74.21875 29.59375 74.21875 
Q 40.828125 74.21875 47.359375 69.109375 
Q 53.90625 64.015625 53.90625 55.328125 
Q 53.90625 49.265625 50.4375 45.09375 
Q 46.96875 40.921875 40.578125 39.3125 
z
" id="DejaVuSans-33"/>
      </defs>
      <g transform="translate(158.538879 557.996838)scale(0.1 -0.1)">
       <use xlink:href="#DejaVuSans-30"/>
       <use x="63.623047" xlink:href="#DejaVuSans-2e"/>
       <use x="95.410156" xlink:href="#DejaVuSans-30"/>
       <use x="159.033203" xlink:href="#DejaVuSans-33"/>
       <use x="222.65625" xlink:href="#DejaVuSans-30"/>
      </g>
     </g>
    </g>
    <g id="xtick_3">
     <g id="line2d_3">
      <g>
       <use style="stroke:#000000;stroke-width:0.8;" x="213.882353" xlink:href="#m6775673a44" y="543.3984"/>
      </g>
     </g>
     <g id="text_3">
      <!-- 0.035 -->
      <g transform="translate(199.56829 557.996838)scale(0.1 -0.1)">
       <use xlink:href="#DejaVuSans-30"/>
       <use x="63.623047" xlink:href="#DejaVuSans-2e"/>
       <use x="95.410156" xlink:href="#DejaVuSans-30"/>
       <use x="159.033203" xlink:href="#DejaVuSans-33"/>
       <use x="222.65625" xlink:href="#DejaVuSans-35"/>
      </g>
     </g>
    </g>
    <g id="xtick_4">
     <g id="line2d_4">
      <g>
       <use style="stroke:#000000;stroke-width:0.8;" x="254.911765" xlink:href="#m6775673a44" y="543.3984"/>
      </g>
     </g>
     <g id="text_4">
      <!-- 0.040 -->
      <defs>
       <path d="M 37.796875 64.3125 
L 12.890625 25.390625 
L 37.796875 25.390625 
z
M 35.203125 72.90625 
L 47.609375 72.90625 
L 47.609375 25.390625 
L 58.015625 25.390625 
L 58.015625 17.1875 
L 47.609375 17.1875 
L 47.609375 0 
L 37.796875 0 
L 37.796875 17.1875 
L 4.890625 17.1875 
L 4.890625 26.703125 
z
" id="DejaVuSans-34"/>
      </defs>
      <g transform="translate(240.597702 557.996838)scale(0.1 -0.1)">
       <use xlink:href="#DejaVuSans-30"/>
       <use x="63.623047" xlink:href="#DejaVuSans-2e"/>
       <use x="95.410156" xlink:href="#DejaVuSans-30"/>
       <use x="159.033203" xlink:href="#DejaVuSans-34"/>
       <use x="222.65625" xlink:href="#DejaVuSans-30"/>
      </g>
     </g>
    </g>
   </g>
   <g id="matplotlib.axis_2">
    <g id="ytick_1">
     <g id="line2d_5">
      <defs>
       <path d="M 0 0 
L -3.5 0 
" id="mea50e93ab1" style="stroke:#000000;stroke-width:0.8;"/>
      </defs>
      <g>
       <use style="stroke:#000000;stroke-width:0.8;" x="99" xlink:href="#mea50e93ab1" y="495.289685"/>
      </g>
     </g>
     <g id="text_5">
      <!-- 50 -->
      <g transform="translate(79.275 499.088903)scale(0.1 -0.1)">
       <use xlink:href="#DejaVuSans-35"/>
       <use x="63.623047" xlink:href="#DejaVuSans-30"/>
      </g>
     </g>
    </g>
    <g id="ytick_2">
     <g id="line2d_6">
      <g>
       <use style="stroke:#000000;stroke-width:0.8;" x="99" xlink:href="#mea50e93ab1" y="431.625124"/>
      </g>
     </g>
     <g id="text_6">
      <!-- 100 -->
      <defs>
       <path d="M 12.40625 8.296875 
L 28.515625 8.296875 
L 28.515625 63.921875 
L 10.984375 60.40625 
L 10.984375 69.390625 
L 28.421875 72.90625 
L 38.28125 72.90625 
L 38.28125 8.296875 
L 54.390625 8.296875 
L 54.390625 0 
L 12.40625 0 
z
" id="DejaVuSans-31"/>
      </defs>
      <g transform="translate(72.9125 435.424343)scale(0.1 -0.1)">
       <use xlink:href="#DejaVuSans-31"/>
       <use x="63.623047" xlink:href="#DejaVuSans-30"/>
       <use x="127.246094" xlink:href="#DejaVuSans-30"/>
      </g>
     </g>
    </g>
    <g id="ytick_3">
     <g id="line2d_7">
      <g>
       <use style="stroke:#000000;stroke-width:0.8;" x="99" xlink:href="#mea50e93ab1" y="367.960564"/>
      </g>
     </g>
     <g id="text_7">
      <!-- 150 -->
      <g transform="translate(72.9125 371.759782)scale(0.1 -0.1)">
       <use xlink:href="#DejaVuSans-31"/>
       <use x="63.623047" xlink:href="#DejaVuSans-35"/>
       <use x="127.246094" xlink:href="#DejaVuSans-30"/>
      </g>
     </g>
    </g>
    <g id="ytick_4">
     <g id="line2d_8">
      <g>
       <use style="stroke:#000000;stroke-width:0.8;" x="99" xlink:href="#mea50e93ab1" y="304.296003"/>
      </g>
     </g>
     <g id="text_8">
      <!-- 200 -->
      <g transform="translate(72.9125 308.095222)scale(0.1 -0.1)">
       <use xlink:href="#DejaVuSans-32"/>
       <use x="63.623047" xlink:href="#DejaVuSans-30"/>
       <use x="127.246094" xlink:href="#DejaVuSans-30"/>
      </g>
     </g>
    </g>
    <g id="ytick_5">
     <g id="line2d_9">
      <g>
       <use style="stroke:#000000;stroke-width:0.8;" x="99" xlink:href="#mea50e93ab1" y="240.631443"/>
      </g>
     </g>
     <g id="text_9">
      <!-- 250 -->
      <g transform="translate(72.9125 244.430661)scale(0.1 -0.1)">
       <use xlink:href="#DejaVuSans-32"/>
       <use x="63.623047" xlink:href="#DejaVuSans-35"/>
       <use x="127.246094" xlink:href="#DejaVuSans-30"/>
      </g>
     </g>
    </g>
    <g id="ytick_6">
     <g id="line2d_10">
      <g>
       <use style="stroke:#000000;stroke-width:0.8;" x="99" xlink:href="#mea50e93ab1" y="176.966882"/>
      </g>
     </g>
     <g id="text_10">
      <!-- 300 -->
      <g transform="translate(72.9125 180.766101)scale(0.1 -0.1)">
       <use xlink:href="#DejaVuSans-33"/>
       <use x="63.623047" xlink:href="#DejaVuSans-30"/>
       <use x="127.246094" xlink:href="#DejaVuSans-30"/>
      </g>
     </g>
    </g>
    <g id="ytick_7">
     <g id="line2d_11">
      <g>
       <use style="stroke:#000000;stroke-width:0.8;" x="99" xlink:href="#mea50e93ab1" y="113.302322"/>
      </g>
     </g>
     <g id="text_11">
      <!-- 350 -->
      <g transform="translate(72.9125 117.10154)scale(0.1 -0.1)">
       <use xlink:href="#DejaVuSans-33"/>
       <use x="63.623047" xlink:href="#DejaVuSans-35"/>
       <use x="127.246094" xlink:href="#DejaVuSans-30"/>
      </g>
     </g>
    </g>
   </g>
   <g id="line2d_12">
    <path clip-path="url(#pd2a5e2b4d1)" d="M 107.205882 522.0288 
L 109.941176 508.022597 
L 112.676471 508.022597 
L 115.411765 485.103355 
L 118.147059 501.656141 
L 120.882353 508.022597 
L 123.617647 487.649937 
L 126.352941 509.295888 
L 129.088235 496.562976 
L 131.823529 505.476014 
L 134.558824 486.376646 
L 137.294118 508.022597 
L 140.029412 499.109558 
L 142.764706 502.929432 
L 145.5 515.662344 
L 148.235294 495.289685 
L 150.970588 516.935635 
L 153.705882 511.84247 
L 156.441176 514.389053 
L 159.176471 500.382849 
L 161.911765 495.289685 
L 164.647059 504.202723 
L 167.382353 505.476014 
L 170.117647 488.923229 
L 172.852941 411.252465 
L 175.588235 343.768031 
L 178.323529 303.022712 
L 181.058824 196.06625 
L 183.794118 109.482448 
L 186.529412 110.755739 
L 189.264706 152.774349 
L 192 154.04764 
L 194.735294 393.426388 
L 197.470588 435.444998 
L 200.205882 450.724492 
L 202.941176 486.376646 
L 205.676471 499.109558 
L 208.411765 502.929432 
L 211.147059 502.929432 
L 213.882353 505.476014 
L 216.617647 502.929432 
L 219.352941 494.016393 
L 222.088235 486.376646 
L 224.823529 457.090948 
L 227.558824 495.289685 
L 230.294118 497.836267 
L 233.029412 490.19652 
L 235.764706 510.569179 
L 238.5 513.115762 
L 241.235294 500.382849 
L 243.970588 499.109558 
L 246.705882 491.469811 
L 249.441176 502.929432 
L 252.176471 485.103355 
L 254.911765 511.84247 
L 257.647059 486.376646 
L 260.382353 483.830064 
L 263.117647 497.836267 
L 265.852941 511.84247 
L 268.588235 501.656141 
L 271.323529 504.202723 
" style="fill:none;stroke:#1f77b4;stroke-linecap:square;stroke-width:1.5;"/>
   </g>
   <g id="line2d_13">
    <path clip-path="url(#pd2a5e2b4d1)" d="M 107.205882 500.860266 
L 158.626126 500.753109 
L 160.597509 500.521417 
L 161.911765 500.164538 
L 162.897456 499.696685 
L 163.718866 499.103368 
L 164.540276 498.247091 
L 165.361685 497.03147 
L 166.183095 495.33405 
L 167.004505 493.00311 
L 167.825914 489.855653 
L 168.647324 485.677321 
L 169.468733 480.225043 
L 170.290143 473.233238 
L 171.111553 464.424237 
L 172.097244 451.069345 
L 173.082936 434.276436 
L 174.068627 413.726419 
L 175.218601 384.824066 
L 176.532856 345.584038 
L 178.175676 289.149444 
L 181.789878 161.992065 
L 182.939852 130.582811 
L 183.761261 113.432283 
L 184.418389 103.465901 
L 184.911235 98.372271 
L 185.404081 95.413321 
L 185.732644 94.651641 
L 185.896926 94.6368 
L 186.061208 94.866141 
L 186.389772 96.055277 
L 186.718336 98.210488 
L 187.211182 103.21901 
L 187.868309 113.078263 
L 188.689719 130.109036 
L 189.675411 156.463223 
L 190.989666 199.046651 
L 196.246688 379.706638 
L 197.560943 413.270008 
L 198.710917 436.963894 
L 199.696608 453.230195 
L 200.6823 466.115791 
L 201.667992 476.05809 
L 202.653683 483.534466 
L 203.475093 488.222161 
L 204.296502 491.779082 
L 205.117912 494.43228 
L 205.939322 496.378191 
L 206.760731 497.781652 
L 207.582141 498.777199 
L 208.567833 499.582346 
L 209.553524 500.093075 
L 210.703498 500.448653 
L 212.346317 500.699577 
L 214.974828 500.828784 
L 222.203233 500.860105 
L 271.323529 500.860266 
L 271.323529 500.860266 
" style="fill:none;stroke:#ff7f0e;stroke-linecap:square;stroke-width:1.5;"/>
   </g>
   <g id="patch_3">
    <path d="M 99 543.3984 
L 99 73.2672 
" style="fill:none;stroke:#000000;stroke-linecap:square;stroke-linejoin:miter;stroke-width:0.8;"/>
   </g>
   <g id="patch_4">
    <path d="M 279.529412 543.3984 
L 279.529412 73.2672 
" style="fill:none;stroke:#000000;stroke-linecap:square;stroke-linejoin:miter;stroke-width:0.8;"/>
   </g>
   <g id="patch_5">
    <path d="M 99 543.3984 
L 279.529412 543.3984 
" style="fill:none;stroke:#000000;stroke-linecap:square;stroke-linejoin:miter;stroke-width:0.8;"/>
   </g>
   <g id="patch_6">
    <path d="M 99 73.2672 
L 279.529412 73.2672 
" style="fill:none;stroke:#000000;stroke-linecap:square;stroke-linejoin:miter;stroke-width:0.8;"/>
   </g>
   <g id="text_12">
    <g id="patch_7">
     <path d="M 108.026471 152.32401 
L 194.201471 152.32401 
Q 197.801471 152.32401 197.801471 148.72401 
L 197.801471 96.77376 
Q 197.801471 93.17376 194.201471 93.17376 
L 108.026471 93.17376 
Q 104.426471 93.17376 104.426471 96.77376 
L 104.426471 148.72401 
Q 104.426471 152.32401 108.026471 152.32401 
z
" style="fill:#f5deb3;opacity:0.5;stroke:#000000;stroke-linejoin:miter;"/>
    </g>
    <!-- a=17.862 -->
    <defs>
     <path d="M 34.28125 27.484375 
Q 23.390625 27.484375 19.1875 25 
Q 14.984375 22.515625 14.984375 16.5 
Q 14.984375 11.71875 18.140625 8.90625 
Q 21.296875 6.109375 26.703125 6.109375 
Q 34.1875 6.109375 38.703125 11.40625 
Q 43.21875 16.703125 43.21875 25.484375 
L 43.21875 27.484375 
z
M 52.203125 31.203125 
L 52.203125 0 
L 43.21875 0 
L 43.21875 8.296875 
Q 40.140625 3.328125 35.546875 0.953125 
Q 30.953125 -1.421875 24.3125 -1.421875 
Q 15.921875 -1.421875 10.953125 3.296875 
Q 6 8.015625 6 15.921875 
Q 6 25.140625 12.171875 29.828125 
Q 18.359375 34.515625 30.609375 34.515625 
L 43.21875 34.515625 
L 43.21875 35.40625 
Q 43.21875 41.609375 39.140625 45 
Q 35.0625 48.390625 27.6875 48.390625 
Q 23 48.390625 18.546875 47.265625 
Q 14.109375 46.140625 10.015625 43.890625 
L 10.015625 52.203125 
Q 14.9375 54.109375 19.578125 55.046875 
Q 24.21875 56 28.609375 56 
Q 40.484375 56 46.34375 49.84375 
Q 52.203125 43.703125 52.203125 31.203125 
z
" id="DejaVuSans-61"/>
     <path d="M 10.59375 45.40625 
L 73.1875 45.40625 
L 73.1875 37.203125 
L 10.59375 37.203125 
z
M 10.59375 25.484375 
L 73.1875 25.484375 
L 73.1875 17.1875 
L 10.59375 17.1875 
z
" id="DejaVuSans-3d"/>
     <path d="M 8.203125 72.90625 
L 55.078125 72.90625 
L 55.078125 68.703125 
L 28.609375 0 
L 18.3125 0 
L 43.21875 64.59375 
L 8.203125 64.59375 
z
" id="DejaVuSans-37"/>
     <path d="M 31.78125 34.625 
Q 24.75 34.625 20.71875 30.859375 
Q 16.703125 27.09375 16.703125 20.515625 
Q 16.703125 13.921875 20.71875 10.15625 
Q 24.75 6.390625 31.78125 6.390625 
Q 38.8125 6.390625 42.859375 10.171875 
Q 46.921875 13.96875 46.921875 20.515625 
Q 46.921875 27.09375 42.890625 30.859375 
Q 38.875 34.625 31.78125 34.625 
z
M 21.921875 38.8125 
Q 15.578125 40.375 12.03125 44.71875 
Q 8.5 49.078125 8.5 55.328125 
Q 8.5 64.0625 14.71875 69.140625 
Q 20.953125 74.21875 31.78125 74.21875 
Q 42.671875 74.21875 48.875 69.140625 
Q 55.078125 64.0625 55.078125 55.328125 
Q 55.078125 49.078125 51.53125 44.71875 
Q 48 40.375 41.703125 38.8125 
Q 48.828125 37.15625 52.796875 32.3125 
Q 56.78125 27.484375 56.78125 20.515625 
Q 56.78125 9.90625 50.3125 4.234375 
Q 43.84375 -1.421875 31.78125 -1.421875 
Q 19.734375 -1.421875 13.25 4.234375 
Q 6.78125 9.90625 6.78125 20.515625 
Q 6.78125 27.484375 10.78125 32.3125 
Q 14.796875 37.15625 21.921875 38.8125 
z
M 18.3125 54.390625 
Q 18.3125 48.734375 21.84375 45.5625 
Q 25.390625 42.390625 31.78125 42.390625 
Q 38.140625 42.390625 41.71875 45.5625 
Q 45.3125 48.734375 45.3125 54.390625 
Q 45.3125 60.0625 41.71875 63.234375 
Q 38.140625 66.40625 31.78125 66.40625 
Q 25.390625 66.40625 21.84375 63.234375 
Q 18.3125 60.0625 18.3125 54.390625 
z
" id="DejaVuSans-38"/>
     <path d="M 33.015625 40.375 
Q 26.375 40.375 22.484375 35.828125 
Q 18.609375 31.296875 18.609375 23.390625 
Q 18.609375 15.53125 22.484375 10.953125 
Q 26.375 6.390625 33.015625 6.390625 
Q 39.65625 6.390625 43.53125 10.953125 
Q 47.40625 15.53125 47.40625 23.390625 
Q 47.40625 31.296875 43.53125 35.828125 
Q 39.65625 40.375 33.015625 40.375 
z
M 52.59375 71.296875 
L 52.59375 62.3125 
Q 48.875 64.0625 45.09375 64.984375 
Q 41.3125 65.921875 37.59375 65.921875 
Q 27.828125 65.921875 22.671875 59.328125 
Q 17.53125 52.734375 16.796875 39.40625 
Q 19.671875 43.65625 24.015625 45.921875 
Q 28.375 48.1875 33.59375 48.1875 
Q 44.578125 48.1875 50.953125 41.515625 
Q 57.328125 34.859375 57.328125 23.390625 
Q 57.328125 12.15625 50.6875 5.359375 
Q 44.046875 -1.421875 33.015625 -1.421875 
Q 20.359375 -1.421875 13.671875 8.265625 
Q 6.984375 17.96875 6.984375 36.375 
Q 6.984375 53.65625 15.1875 63.9375 
Q 23.390625 74.21875 37.203125 74.21875 
Q 40.921875 74.21875 44.703125 73.484375 
Q 48.484375 72.75 52.59375 71.296875 
z
" id="DejaVuSans-36"/>
    </defs>
    <g transform="translate(108.026471 105.891885)scale(0.12 -0.12)">
     <use xlink:href="#DejaVuSans-61"/>
     <use x="61.279297" xlink:href="#DejaVuSans-3d"/>
     <use x="145.068359" xlink:href="#DejaVuSans-31"/>
     <use x="208.691406" xlink:href="#DejaVuSans-37"/>
     <use x="272.314453" xlink:href="#DejaVuSans-2e"/>
     <use x="304.101562" xlink:href="#DejaVuSans-38"/>
     <use x="367.724609" xlink:href="#DejaVuSans-36"/>
     <use x="431.347656" xlink:href="#DejaVuSans-32"/>
    </g>
    <!-- $\mu$=0.032 -->
    <defs>
     <path d="M -1.3125 -20.796875 
L 13.375 54.6875 
L 22.40625 54.6875 
L 15.765625 20.65625 
Q 15.578125 19.625 15.421875 18.359375 
Q 15.28125 17.09375 15.28125 15.828125 
Q 15.28125 11.28125 18.140625 8.828125 
Q 21 6.390625 26.3125 6.390625 
Q 33.546875 6.390625 37.984375 10.484375 
Q 42.4375 14.59375 44 22.796875 
L 50.203125 54.6875 
L 59.1875 54.6875 
L 51.03125 12.640625 
Q 50.828125 11.71875 50.75 11.03125 
Q 50.6875 10.359375 50.6875 9.8125 
Q 50.6875 8.296875 51.296875 7.59375 
Q 51.90625 6.890625 53.21875 6.890625 
Q 53.71875 6.890625 54.5625 7.125 
Q 55.421875 7.375 56.984375 8.015625 
L 55.609375 0.78125 
Q 53.46875 -0.296875 51.515625 -0.859375 
Q 49.5625 -1.421875 47.703125 -1.421875 
Q 44.484375 -1.421875 42.65625 0.625 
Q 40.828125 2.6875 40.828125 6.296875 
Q 38.09375 2.390625 34.296875 0.484375 
Q 30.515625 -1.421875 25.390625 -1.421875 
Q 20.84375 -1.421875 17.453125 0.671875 
Q 14.0625 2.78125 12.984375 6.203125 
L 7.71875 -20.796875 
z
" id="DejaVuSans-Oblique-3bc"/>
    </defs>
    <g transform="translate(108.026471 119.32926)scale(0.12 -0.12)">
     <use transform="translate(0 0.78125)" xlink:href="#DejaVuSans-Oblique-3bc"/>
     <use transform="translate(63.623047 0.78125)" xlink:href="#DejaVuSans-3d"/>
     <use transform="translate(147.412109 0.78125)" xlink:href="#DejaVuSans-30"/>
     <use transform="translate(211.035156 0.78125)" xlink:href="#DejaVuSans-2e"/>
     <use transform="translate(242.822266 0.78125)" xlink:href="#DejaVuSans-30"/>
     <use transform="translate(306.445312 0.78125)" xlink:href="#DejaVuSans-33"/>
     <use transform="translate(370.068359 0.78125)" xlink:href="#DejaVuSans-32"/>
    </g>
    <!-- $\sigma$=0.001 -->
    <defs>
     <path d="M 34.671875 47.5625 
Q 27.25 47.5625 22.21875 42.1875 
Q 16.890625 36.578125 15.140625 27.296875 
Q 13.1875 17.484375 16.3125 11.8125 
Q 19.390625 6.203125 26.65625 6.203125 
Q 33.84375 6.203125 39.109375 11.859375 
Q 44.4375 17.53125 46.34375 27.296875 
Q 48.046875 36.234375 45.015625 42.1875 
Q 42.1875 47.5625 34.671875 47.5625 
z
M 36.078125 54.734375 
L 65.921875 54.6875 
L 64.15625 45.703125 
L 54.109375 45.703125 
Q 57.90625 38.09375 55.859375 27.296875 
Q 53.21875 13.875 45.0625 6.25 
Q 36.859375 -1.421875 25.140625 -1.421875 
Q 13.375 -1.421875 8.203125 6.25 
Q 3.03125 13.875 5.671875 27.296875 
Q 8.25 40.765625 16.40625 48.390625 
Q 23.1875 54.734375 36.078125 54.734375 
z
" id="DejaVuSans-Oblique-3c3"/>
    </defs>
    <g transform="translate(108.026471 132.79101)scale(0.12 -0.12)">
     <use transform="translate(0 0.78125)" xlink:href="#DejaVuSans-Oblique-3c3"/>
     <use transform="translate(63.378906 0.78125)" xlink:href="#DejaVuSans-3d"/>
     <use transform="translate(147.167969 0.78125)" xlink:href="#DejaVuSans-30"/>
     <use transform="translate(210.791016 0.78125)" xlink:href="#DejaVuSans-2e"/>
     <use transform="translate(242.578125 0.78125)" xlink:href="#DejaVuSans-30"/>
     <use transform="translate(306.201172 0.78125)" xlink:href="#DejaVuSans-30"/>
     <use transform="translate(369.824219 0.78125)" xlink:href="#DejaVuSans-31"/>
    </g>
    <!-- offset=45.625 -->
    <defs>
     <path d="M 30.609375 48.390625 
Q 23.390625 48.390625 19.1875 42.75 
Q 14.984375 37.109375 14.984375 27.296875 
Q 14.984375 17.484375 19.15625 11.84375 
Q 23.34375 6.203125 30.609375 6.203125 
Q 37.796875 6.203125 41.984375 11.859375 
Q 46.1875 17.53125 46.1875 27.296875 
Q 46.1875 37.015625 41.984375 42.703125 
Q 37.796875 48.390625 30.609375 48.390625 
z
M 30.609375 56 
Q 42.328125 56 49.015625 48.375 
Q 55.71875 40.765625 55.71875 27.296875 
Q 55.71875 13.875 49.015625 6.21875 
Q 42.328125 -1.421875 30.609375 -1.421875 
Q 18.84375 -1.421875 12.171875 6.21875 
Q 5.515625 13.875 5.515625 27.296875 
Q 5.515625 40.765625 12.171875 48.375 
Q 18.84375 56 30.609375 56 
z
" id="DejaVuSans-6f"/>
     <path d="M 37.109375 75.984375 
L 37.109375 68.5 
L 28.515625 68.5 
Q 23.6875 68.5 21.796875 66.546875 
Q 19.921875 64.59375 19.921875 59.515625 
L 19.921875 54.6875 
L 34.71875 54.6875 
L 34.71875 47.703125 
L 19.921875 47.703125 
L 19.921875 0 
L 10.890625 0 
L 10.890625 47.703125 
L 2.296875 47.703125 
L 2.296875 54.6875 
L 10.890625 54.6875 
L 10.890625 58.5 
Q 10.890625 67.625 15.140625 71.796875 
Q 19.390625 75.984375 28.609375 75.984375 
z
" id="DejaVuSans-66"/>
     <path d="M 44.28125 53.078125 
L 44.28125 44.578125 
Q 40.484375 46.53125 36.375 47.5 
Q 32.28125 48.484375 27.875 48.484375 
Q 21.1875 48.484375 17.84375 46.4375 
Q 14.5 44.390625 14.5 40.28125 
Q 14.5 37.15625 16.890625 35.375 
Q 19.28125 33.59375 26.515625 31.984375 
L 29.59375 31.296875 
Q 39.15625 29.25 43.1875 25.515625 
Q 47.21875 21.78125 47.21875 15.09375 
Q 47.21875 7.46875 41.1875 3.015625 
Q 35.15625 -1.421875 24.609375 -1.421875 
Q 20.21875 -1.421875 15.453125 -0.5625 
Q 10.6875 0.296875 5.421875 2 
L 5.421875 11.28125 
Q 10.40625 8.6875 15.234375 7.390625 
Q 20.0625 6.109375 24.8125 6.109375 
Q 31.15625 6.109375 34.5625 8.28125 
Q 37.984375 10.453125 37.984375 14.40625 
Q 37.984375 18.0625 35.515625 20.015625 
Q 33.0625 21.96875 24.703125 23.78125 
L 21.578125 24.515625 
Q 13.234375 26.265625 9.515625 29.90625 
Q 5.8125 33.546875 5.8125 39.890625 
Q 5.8125 47.609375 11.28125 51.796875 
Q 16.75 56 26.8125 56 
Q 31.78125 56 36.171875 55.265625 
Q 40.578125 54.546875 44.28125 53.078125 
z
" id="DejaVuSans-73"/>
     <path d="M 56.203125 29.59375 
L 56.203125 25.203125 
L 14.890625 25.203125 
Q 15.484375 15.921875 20.484375 11.0625 
Q 25.484375 6.203125 34.421875 6.203125 
Q 39.59375 6.203125 44.453125 7.46875 
Q 49.3125 8.734375 54.109375 11.28125 
L 54.109375 2.78125 
Q 49.265625 0.734375 44.1875 -0.34375 
Q 39.109375 -1.421875 33.890625 -1.421875 
Q 20.796875 -1.421875 13.15625 6.1875 
Q 5.515625 13.8125 5.515625 26.8125 
Q 5.515625 40.234375 12.765625 48.109375 
Q 20.015625 56 32.328125 56 
Q 43.359375 56 49.78125 48.890625 
Q 56.203125 41.796875 56.203125 29.59375 
z
M 47.21875 32.234375 
Q 47.125 39.59375 43.09375 43.984375 
Q 39.0625 48.390625 32.421875 48.390625 
Q 24.90625 48.390625 20.390625 44.140625 
Q 15.875 39.890625 15.1875 32.171875 
z
" id="DejaVuSans-65"/>
     <path d="M 18.3125 70.21875 
L 18.3125 54.6875 
L 36.8125 54.6875 
L 36.8125 47.703125 
L 18.3125 47.703125 
L 18.3125 18.015625 
Q 18.3125 11.328125 20.140625 9.421875 
Q 21.96875 7.515625 27.59375 7.515625 
L 36.8125 7.515625 
L 36.8125 0 
L 27.59375 0 
Q 17.1875 0 13.234375 3.875 
Q 9.28125 7.765625 9.28125 18.015625 
L 9.28125 47.703125 
L 2.6875 47.703125 
L 2.6875 54.6875 
L 9.28125 54.6875 
L 9.28125 70.21875 
z
" id="DejaVuSans-74"/>
    </defs>
    <g transform="translate(108.026471 146.228385)scale(0.12 -0.12)">
     <use xlink:href="#DejaVuSans-6f"/>
     <use x="61.181641" xlink:href="#DejaVuSans-66"/>
     <use x="96.386719" xlink:href="#DejaVuSans-66"/>
     <use x="131.591797" xlink:href="#DejaVuSans-73"/>
     <use x="183.691406" xlink:href="#DejaVuSans-65"/>
     <use x="245.214844" xlink:href="#DejaVuSans-74"/>
     <use x="284.423828" xlink:href="#DejaVuSans-3d"/>
     <use x="368.212891" xlink:href="#DejaVuSans-34"/>
     <use x="431.835938" xlink:href="#DejaVuSans-35"/>
     <use x="495.458984" xlink:href="#DejaVuSans-2e"/>
     <use x="527.246094" xlink:href="#DejaVuSans-36"/>
     <use x="590.869141" xlink:href="#DejaVuSans-32"/>
     <use x="654.492188" xlink:href="#DejaVuSans-35"/>
    </g>
   </g>
   <g id="text_13">
    <!-- X Axis -->
    <defs>
     <path d="M 6.296875 72.90625 
L 16.890625 72.90625 
L 35.015625 45.796875 
L 53.21875 72.90625 
L 63.8125 72.90625 
L 40.375 37.890625 
L 65.375 0 
L 54.78125 0 
L 34.28125 31 
L 13.625 0 
L 2.984375 0 
L 29 38.921875 
z
" id="DejaVuSans-58"/>
     <path id="DejaVuSans-20"/>
     <path d="M 34.1875 63.1875 
L 20.796875 26.90625 
L 47.609375 26.90625 
z
M 28.609375 72.90625 
L 39.796875 72.90625 
L 67.578125 0 
L 57.328125 0 
L 50.6875 18.703125 
L 17.828125 18.703125 
L 11.1875 0 
L 0.78125 0 
z
" id="DejaVuSans-41"/>
     <path d="M 54.890625 54.6875 
L 35.109375 28.078125 
L 55.90625 0 
L 45.3125 0 
L 29.390625 21.484375 
L 13.484375 0 
L 2.875 0 
L 24.125 28.609375 
L 4.6875 54.6875 
L 15.28125 54.6875 
L 29.78125 35.203125 
L 44.28125 54.6875 
z
" id="DejaVuSans-78"/>
     <path d="M 9.421875 54.6875 
L 18.40625 54.6875 
L 18.40625 0 
L 9.421875 0 
z
M 9.421875 75.984375 
L 18.40625 75.984375 
L 18.40625 64.59375 
L 9.421875 64.59375 
z
" id="DejaVuSans-69"/>
    </defs>
    <g transform="translate(170.799706 67.2672)scale(0.12 -0.12)">
     <use xlink:href="#DejaVuSans-58"/>
     <use x="68.505859" xlink:href="#DejaVuSans-20"/>
     <use x="100.292969" xlink:href="#DejaVuSans-41"/>
     <use x="168.701172" xlink:href="#DejaVuSans-78"/>
     <use x="227.880859" xlink:href="#DejaVuSans-69"/>
     <use x="255.664062" xlink:href="#DejaVuSans-73"/>
    </g>
   </g>
  </g>
  <g id="axes_2">
   <g id="patch_8">
    <path d="M 315.635294 543.3984 
L 496.164706 543.3984 
L 496.164706 73.2672 
L 315.635294 73.2672 
z
" style="fill:#ffffff;"/>
   </g>
   <g id="matplotlib.axis_3">
    <g id="xtick_5">
     <g id="line2d_14">
      <g>
       <use style="stroke:#000000;stroke-width:0.8;" x="340.252941" xlink:href="#m6775673a44" y="543.3984"/>
      </g>
     </g>
     <g id="text_14">
      <!-- −0.015 -->
      <defs>
       <path d="M 10.59375 35.5 
L 73.1875 35.5 
L 73.1875 27.203125 
L 10.59375 27.203125 
z
" id="DejaVuSans-2212"/>
      </defs>
      <g transform="translate(321.749035 557.996838)scale(0.1 -0.1)">
       <use xlink:href="#DejaVuSans-2212"/>
       <use x="83.789062" xlink:href="#DejaVuSans-30"/>
       <use x="147.412109" xlink:href="#DejaVuSans-2e"/>
       <use x="179.199219" xlink:href="#DejaVuSans-30"/>
       <use x="242.822266" xlink:href="#DejaVuSans-31"/>
       <use x="306.445312" xlink:href="#DejaVuSans-35"/>
      </g>
     </g>
    </g>
    <g id="xtick_6">
     <g id="line2d_15">
      <g>
       <use style="stroke:#000000;stroke-width:0.8;" x="381.282353" xlink:href="#m6775673a44" y="543.3984"/>
      </g>
     </g>
     <g id="text_15">
      <!-- −0.010 -->
      <g transform="translate(362.778447 557.996838)scale(0.1 -0.1)">
       <use xlink:href="#DejaVuSans-2212"/>
       <use x="83.789062" xlink:href="#DejaVuSans-30"/>
       <use x="147.412109" xlink:href="#DejaVuSans-2e"/>
       <use x="179.199219" xlink:href="#DejaVuSans-30"/>
       <use x="242.822266" xlink:href="#DejaVuSans-31"/>
       <use x="306.445312" xlink:href="#DejaVuSans-30"/>
      </g>
     </g>
    </g>
    <g id="xtick_7">
     <g id="line2d_16">
      <g>
       <use style="stroke:#000000;stroke-width:0.8;" x="422.311765" xlink:href="#m6775673a44" y="543.3984"/>
      </g>
     </g>
     <g id="text_16">
      <!-- −0.005 -->
      <g transform="translate(403.807858 557.996838)scale(0.1 -0.1)">
       <use xlink:href="#DejaVuSans-2212"/>
       <use x="83.789062" xlink:href="#DejaVuSans-30"/>
       <use x="147.412109" xlink:href="#DejaVuSans-2e"/>
       <use x="179.199219" xlink:href="#DejaVuSans-30"/>
       <use x="242.822266" xlink:href="#DejaVuSans-30"/>
       <use x="306.445312" xlink:href="#DejaVuSans-35"/>
      </g>
     </g>
    </g>
    <g id="xtick_8">
     <g id="line2d_17">
      <g>
       <use style="stroke:#000000;stroke-width:0.8;" x="463.341176" xlink:href="#m6775673a44" y="543.3984"/>
      </g>
     </g>
     <g id="text_17">
      <!-- 0.000 -->
      <g transform="translate(449.027114 557.996838)scale(0.1 -0.1)">
       <use xlink:href="#DejaVuSans-30"/>
       <use x="63.623047" xlink:href="#DejaVuSans-2e"/>
       <use x="95.410156" xlink:href="#DejaVuSans-30"/>
       <use x="159.033203" xlink:href="#DejaVuSans-30"/>
       <use x="222.65625" xlink:href="#DejaVuSans-30"/>
      </g>
     </g>
    </g>
   </g>
   <g id="matplotlib.axis_4">
    <g id="ytick_8">
     <g id="line2d_18">
      <g>
       <use style="stroke:#000000;stroke-width:0.8;" x="315.635294" xlink:href="#mea50e93ab1" y="451.933602"/>
      </g>
     </g>
     <g id="text_18">
      <!-- 100 -->
      <g transform="translate(289.547794 455.732821)scale(0.1 -0.1)">
       <use xlink:href="#DejaVuSans-31"/>
       <use x="63.623047" xlink:href="#DejaVuSans-30"/>
       <use x="127.246094" xlink:href="#DejaVuSans-30"/>
      </g>
     </g>
    </g>
    <g id="ytick_9">
     <g id="line2d_19">
      <g>
       <use style="stroke:#000000;stroke-width:0.8;" x="315.635294" xlink:href="#mea50e93ab1" y="355.912784"/>
      </g>
     </g>
     <g id="text_19">
      <!-- 200 -->
      <g transform="translate(289.547794 359.712003)scale(0.1 -0.1)">
       <use xlink:href="#DejaVuSans-32"/>
       <use x="63.623047" xlink:href="#DejaVuSans-30"/>
       <use x="127.246094" xlink:href="#DejaVuSans-30"/>
      </g>
     </g>
    </g>
    <g id="ytick_10">
     <g id="line2d_20">
      <g>
       <use style="stroke:#000000;stroke-width:0.8;" x="315.635294" xlink:href="#mea50e93ab1" y="259.891965"/>
      </g>
     </g>
     <g id="text_20">
      <!-- 300 -->
      <g transform="translate(289.547794 263.691184)scale(0.1 -0.1)">
       <use xlink:href="#DejaVuSans-33"/>
       <use x="63.623047" xlink:href="#DejaVuSans-30"/>
       <use x="127.246094" xlink:href="#DejaVuSans-30"/>
      </g>
     </g>
    </g>
    <g id="ytick_11">
     <g id="line2d_21">
      <g>
       <use style="stroke:#000000;stroke-width:0.8;" x="315.635294" xlink:href="#mea50e93ab1" y="163.871147"/>
      </g>
     </g>
     <g id="text_21">
      <!-- 400 -->
      <g transform="translate(289.547794 167.670365)scale(0.1 -0.1)">
       <use xlink:href="#DejaVuSans-34"/>
       <use x="63.623047" xlink:href="#DejaVuSans-30"/>
       <use x="127.246094" xlink:href="#DejaVuSans-30"/>
      </g>
     </g>
    </g>
   </g>
   <g id="line2d_22">
    <path clip-path="url(#p2820b8c41a)" d="M 323.841176 517.227759 
L 326.576471 522.0288 
L 329.311765 517.227759 
L 332.047059 509.546094 
L 334.782353 498.023595 
L 337.517647 499.944012 
L 340.252941 509.546094 
L 342.988235 510.506302 
L 345.723529 496.103179 
L 348.458824 498.023595 
L 351.194118 501.864428 
L 353.929412 504.745053 
L 356.664706 511.46651 
L 359.4 498.983804 
L 362.135294 512.426718 
L 364.870588 508.585885 
L 367.605882 508.585885 
L 370.341176 498.983804 
L 373.076471 500.90422 
L 375.811765 497.063387 
L 378.547059 505.705261 
L 381.282353 493.222554 
L 384.017647 479.77964 
L 386.752941 474.978599 
L 389.488235 437.53048 
L 392.223529 368.39549 
L 394.958824 285.817586 
L 397.694118 173.473228 
L 400.429412 112.019904 
L 403.164706 99.537198 
L 405.9 127.383235 
L 408.635294 263.732798 
L 411.370588 267.573631 
L 414.105882 375.116947 
L 416.841176 430.809022 
L 419.576471 476.899015 
L 422.311765 473.058182 
L 425.047059 488.421513 
L 427.782353 484.580681 
L 430.517647 459.615268 
L 433.252941 475.938807 
L 435.988235 473.058182 
L 438.723529 503.784844 
L 441.458824 503.784844 
L 444.194118 498.023595 
L 446.929412 503.784844 
L 449.664706 505.705261 
L 452.4 508.585885 
L 455.135294 511.46651 
L 457.870588 504.745053 
L 460.605882 500.90422 
L 463.341176 508.585885 
L 466.076471 482.660264 
L 468.811765 492.262346 
L 471.547059 487.461305 
L 474.282353 490.34193 
L 477.017647 476.899015 
L 479.752941 443.291729 
L 482.488235 367.435282 
L 485.223529 204.19989 
L 487.958824 142.746566 
" style="fill:none;stroke:#1f77b4;stroke-linecap:square;stroke-width:1.5;"/>
   </g>
   <g id="line2d_23">
    <path clip-path="url(#p2820b8c41a)" d="M 323.841176 481.849172 
L 375.26142 481.745284 
L 377.232803 481.525586 
L 378.547059 481.190653 
L 379.697032 480.660102 
L 380.682724 479.920522 
L 381.504134 479.009358 
L 382.325543 477.72857 
L 383.146953 475.957127 
L 383.968362 473.546729 
L 384.789772 470.320474 
L 385.611182 466.073455 
L 386.432591 460.575988 
L 387.254001 453.580177 
L 388.075411 444.830336 
L 389.061102 431.666338 
L 390.046794 415.241954 
L 391.032485 395.288405 
L 392.182459 367.429068 
L 393.496714 329.893118 
L 395.303816 270.727998 
L 398.425172 166.607556 
L 399.575146 135.415904 
L 400.560837 114.726042 
L 401.217965 104.69916 
L 401.875093 98.015926 
L 402.367939 95.312743 
L 402.696502 94.6368 
L 402.860784 94.639057 
L 403.025066 94.868262 
L 403.35363 96.005502 
L 403.682194 98.040538 
L 404.17504 102.743632 
L 404.832167 111.97332 
L 405.653577 127.895156 
L 406.639269 152.532715 
L 407.953524 192.396974 
L 410.582035 282.039406 
L 412.389136 339.895839 
L 413.703392 375.968789 
L 414.853365 402.410104 
L 416.003339 423.936125 
L 416.98903 438.677709 
L 417.974722 450.338997 
L 418.960413 459.330719 
L 419.946105 466.092664 
L 420.767515 470.335183 
L 421.588924 473.557805 
L 422.410334 475.965331 
L 423.231744 477.734547 
L 424.053153 479.013643 
L 424.874563 479.923544 
L 425.860254 480.662048 
L 426.845946 481.132611 
L 428.160201 481.495443 
L 429.967303 481.723131 
L 432.924377 481.829187 
L 443.438421 481.849166 
L 487.958824 481.849172 
L 487.958824 481.849172 
" style="fill:none;stroke:#ff7f0e;stroke-linecap:square;stroke-width:1.5;"/>
   </g>
   <g id="patch_9">
    <path d="M 315.635294 543.3984 
L 315.635294 73.2672 
" style="fill:none;stroke:#000000;stroke-linecap:square;stroke-linejoin:miter;stroke-width:0.8;"/>
   </g>
   <g id="patch_10">
    <path d="M 496.164706 543.3984 
L 496.164706 73.2672 
" style="fill:none;stroke:#000000;stroke-linecap:square;stroke-linejoin:miter;stroke-width:0.8;"/>
   </g>
   <g id="patch_11">
    <path d="M 315.635294 543.3984 
L 496.164706 543.3984 
" style="fill:none;stroke:#000000;stroke-linecap:square;stroke-linejoin:miter;stroke-width:0.8;"/>
   </g>
   <g id="patch_12">
    <path d="M 315.635294 73.2672 
L 496.164706 73.2672 
" style="fill:none;stroke:#000000;stroke-linecap:square;stroke-linejoin:miter;stroke-width:0.8;"/>
   </g>
   <g id="text_22">
    <g id="patch_13">
     <path d="M 324.661765 152.32401 
L 410.836765 152.32401 
Q 414.436765 152.32401 414.436765 148.72401 
L 414.436765 96.77376 
Q 414.436765 93.17376 410.836765 93.17376 
L 324.661765 93.17376 
Q 321.061765 93.17376 321.061765 96.77376 
L 321.061765 148.72401 
Q 321.061765 152.32401 324.661765 152.32401 
z
" style="fill:#f5deb3;opacity:0.5;stroke:#000000;stroke-linejoin:miter;"/>
    </g>
    <!-- a=20.082 -->
    <g transform="translate(324.661765 105.891885)scale(0.12 -0.12)">
     <use xlink:href="#DejaVuSans-61"/>
     <use x="61.279297" xlink:href="#DejaVuSans-3d"/>
     <use x="145.068359" xlink:href="#DejaVuSans-32"/>
     <use x="208.691406" xlink:href="#DejaVuSans-30"/>
     <use x="272.314453" xlink:href="#DejaVuSans-2e"/>
     <use x="304.101562" xlink:href="#DejaVuSans-30"/>
     <use x="367.724609" xlink:href="#DejaVuSans-38"/>
     <use x="431.347656" xlink:href="#DejaVuSans-32"/>
    </g>
    <!-- $\mu$=-0.007 -->
    <defs>
     <path d="M 4.890625 31.390625 
L 31.203125 31.390625 
L 31.203125 23.390625 
L 4.890625 23.390625 
z
" id="DejaVuSans-2d"/>
    </defs>
    <g transform="translate(324.661765 119.32926)scale(0.12 -0.12)">
     <use transform="translate(0 0.78125)" xlink:href="#DejaVuSans-Oblique-3bc"/>
     <use transform="translate(63.623047 0.78125)" xlink:href="#DejaVuSans-3d"/>
     <use transform="translate(147.412109 0.78125)" xlink:href="#DejaVuSans-2d"/>
     <use transform="translate(183.496094 0.78125)" xlink:href="#DejaVuSans-30"/>
     <use transform="translate(247.119141 0.78125)" xlink:href="#DejaVuSans-2e"/>
     <use transform="translate(278.90625 0.78125)" xlink:href="#DejaVuSans-30"/>
     <use transform="translate(342.529297 0.78125)" xlink:href="#DejaVuSans-30"/>
     <use transform="translate(406.152344 0.78125)" xlink:href="#DejaVuSans-37"/>
    </g>
    <!-- $\sigma$=0.001 -->
    <g transform="translate(324.661765 132.79101)scale(0.12 -0.12)">
     <use transform="translate(0 0.78125)" xlink:href="#DejaVuSans-Oblique-3c3"/>
     <use transform="translate(63.378906 0.78125)" xlink:href="#DejaVuSans-3d"/>
     <use transform="translate(147.167969 0.78125)" xlink:href="#DejaVuSans-30"/>
     <use transform="translate(210.791016 0.78125)" xlink:href="#DejaVuSans-2e"/>
     <use transform="translate(242.578125 0.78125)" xlink:href="#DejaVuSans-30"/>
     <use transform="translate(306.201172 0.78125)" xlink:href="#DejaVuSans-30"/>
     <use transform="translate(369.824219 0.78125)" xlink:href="#DejaVuSans-31"/>
    </g>
    <!-- offset=68.845 -->
    <g transform="translate(324.661765 146.228385)scale(0.12 -0.12)">
     <use xlink:href="#DejaVuSans-6f"/>
     <use x="61.181641" xlink:href="#DejaVuSans-66"/>
     <use x="96.386719" xlink:href="#DejaVuSans-66"/>
     <use x="131.591797" xlink:href="#DejaVuSans-73"/>
     <use x="183.691406" xlink:href="#DejaVuSans-65"/>
     <use x="245.214844" xlink:href="#DejaVuSans-74"/>
     <use x="284.423828" xlink:href="#DejaVuSans-3d"/>
     <use x="368.212891" xlink:href="#DejaVuSans-36"/>
     <use x="431.835938" xlink:href="#DejaVuSans-38"/>
     <use x="495.458984" xlink:href="#DejaVuSans-2e"/>
     <use x="527.246094" xlink:href="#DejaVuSans-38"/>
     <use x="590.869141" xlink:href="#DejaVuSans-34"/>
     <use x="654.492188" xlink:href="#DejaVuSans-35"/>
    </g>
   </g>
   <g id="text_23">
    <!-- Y Axis -->
    <defs>
     <path d="M -0.203125 72.90625 
L 10.40625 72.90625 
L 30.609375 42.921875 
L 50.6875 72.90625 
L 61.28125 72.90625 
L 35.5 34.71875 
L 35.5 0 
L 25.59375 0 
L 25.59375 34.71875 
z
" id="DejaVuSans-59"/>
    </defs>
    <g transform="translate(387.880313 67.2672)scale(0.12 -0.12)">
     <use xlink:href="#DejaVuSans-59"/>
     <use x="61.083984" xlink:href="#DejaVuSans-20"/>
     <use x="92.871094" xlink:href="#DejaVuSans-41"/>
     <use x="161.279297" xlink:href="#DejaVuSans-78"/>
     <use x="220.458984" xlink:href="#DejaVuSans-69"/>
     <use x="248.242188" xlink:href="#DejaVuSans-73"/>
    </g>
   </g>
  </g>
  <g id="axes_3">
   <g id="patch_14">
    <path d="M 532.270588 543.3984 
L 712.8 543.3984 
L 712.8 73.2672 
L 532.270588 73.2672 
z
" style="fill:#ffffff;"/>
   </g>
   <g id="matplotlib.axis_5">
    <g id="xtick_9">
     <g id="line2d_24">
      <g>
       <use style="stroke:#000000;stroke-width:0.8;" x="540.476471" xlink:href="#m6775673a44" y="543.3984"/>
      </g>
     </g>
     <g id="text_24">
      <!-- 0 -->
      <g transform="translate(537.295221 557.996838)scale(0.1 -0.1)">
       <use xlink:href="#DejaVuSans-30"/>
      </g>
     </g>
    </g>
    <g id="xtick_10">
     <g id="line2d_25">
      <g>
       <use style="stroke:#000000;stroke-width:0.8;" x="573.3" xlink:href="#m6775673a44" y="543.3984"/>
      </g>
     </g>
     <g id="text_25">
      <!-- 2 -->
      <g transform="translate(570.11875 557.996838)scale(0.1 -0.1)">
       <use xlink:href="#DejaVuSans-32"/>
      </g>
     </g>
    </g>
    <g id="xtick_11">
     <g id="line2d_26">
      <g>
       <use style="stroke:#000000;stroke-width:0.8;" x="606.123529" xlink:href="#m6775673a44" y="543.3984"/>
      </g>
     </g>
     <g id="text_26">
      <!-- 4 -->
      <g transform="translate(602.942279 557.996838)scale(0.1 -0.1)">
       <use xlink:href="#DejaVuSans-34"/>
      </g>
     </g>
    </g>
    <g id="xtick_12">
     <g id="line2d_27">
      <g>
       <use style="stroke:#000000;stroke-width:0.8;" x="638.947059" xlink:href="#m6775673a44" y="543.3984"/>
      </g>
     </g>
     <g id="text_27">
      <!-- 6 -->
      <g transform="translate(635.765809 557.996838)scale(0.1 -0.1)">
       <use xlink:href="#DejaVuSans-36"/>
      </g>
     </g>
    </g>
    <g id="xtick_13">
     <g id="line2d_28">
      <g>
       <use style="stroke:#000000;stroke-width:0.8;" x="671.770588" xlink:href="#m6775673a44" y="543.3984"/>
      </g>
     </g>
     <g id="text_28">
      <!-- 8 -->
      <g transform="translate(668.589338 557.996838)scale(0.1 -0.1)">
       <use xlink:href="#DejaVuSans-38"/>
      </g>
     </g>
    </g>
    <g id="xtick_14">
     <g id="line2d_29">
      <g>
       <use style="stroke:#000000;stroke-width:0.8;" x="704.594118" xlink:href="#m6775673a44" y="543.3984"/>
      </g>
     </g>
     <g id="text_29">
      <!-- 10 -->
      <g transform="translate(698.231618 557.996838)scale(0.1 -0.1)">
       <use xlink:href="#DejaVuSans-31"/>
       <use x="63.623047" xlink:href="#DejaVuSans-30"/>
      </g>
     </g>
    </g>
   </g>
   <g id="matplotlib.axis_6">
    <g id="ytick_12">
     <g id="line2d_30">
      <g>
       <use style="stroke:#000000;stroke-width:0.8;" x="532.270588" xlink:href="#mea50e93ab1" y="463.753641"/>
      </g>
     </g>
     <g id="text_30">
      <!-- 100 -->
      <g transform="translate(506.183088 467.55286)scale(0.1 -0.1)">
       <use xlink:href="#DejaVuSans-31"/>
       <use x="63.623047" xlink:href="#DejaVuSans-30"/>
       <use x="127.246094" xlink:href="#DejaVuSans-30"/>
      </g>
     </g>
    </g>
    <g id="ytick_13">
     <g id="line2d_31">
      <g>
       <use style="stroke:#000000;stroke-width:0.8;" x="532.270588" xlink:href="#mea50e93ab1" y="374.594984"/>
      </g>
     </g>
     <g id="text_31">
      <!-- 200 -->
      <g transform="translate(506.183088 378.394202)scale(0.1 -0.1)">
       <use xlink:href="#DejaVuSans-32"/>
       <use x="63.623047" xlink:href="#DejaVuSans-30"/>
       <use x="127.246094" xlink:href="#DejaVuSans-30"/>
      </g>
     </g>
    </g>
    <g id="ytick_14">
     <g id="line2d_32">
      <g>
       <use style="stroke:#000000;stroke-width:0.8;" x="532.270588" xlink:href="#mea50e93ab1" y="285.436326"/>
      </g>
     </g>
     <g id="text_32">
      <!-- 300 -->
      <g transform="translate(506.183088 289.235545)scale(0.1 -0.1)">
       <use xlink:href="#DejaVuSans-33"/>
       <use x="63.623047" xlink:href="#DejaVuSans-30"/>
       <use x="127.246094" xlink:href="#DejaVuSans-30"/>
      </g>
     </g>
    </g>
    <g id="ytick_15">
     <g id="line2d_33">
      <g>
       <use style="stroke:#000000;stroke-width:0.8;" x="532.270588" xlink:href="#mea50e93ab1" y="196.277669"/>
      </g>
     </g>
     <g id="text_33">
      <!-- 400 -->
      <g transform="translate(506.183088 200.076888)scale(0.1 -0.1)">
       <use xlink:href="#DejaVuSans-34"/>
       <use x="63.623047" xlink:href="#DejaVuSans-30"/>
       <use x="127.246094" xlink:href="#DejaVuSans-30"/>
      </g>
     </g>
    </g>
    <g id="ytick_16">
     <g id="line2d_34">
      <g>
       <use style="stroke:#000000;stroke-width:0.8;" x="532.270588" xlink:href="#mea50e93ab1" y="107.119012"/>
      </g>
     </g>
     <g id="text_34">
      <!-- 500 -->
      <g transform="translate(506.183088 110.918231)scale(0.1 -0.1)">
       <use xlink:href="#DejaVuSans-35"/>
       <use x="63.623047" xlink:href="#DejaVuSans-30"/>
       <use x="127.246094" xlink:href="#DejaVuSans-30"/>
      </g>
     </g>
    </g>
   </g>
   <g id="line2d_35">
    <path clip-path="url(#p98904d3617)" d="M 540.476471 514.574075 
L 543.211765 506.549796 
L 545.947059 498.525517 
L 548.682353 511.007729 
L 551.417647 510.116143 
L 554.152941 510.116143 
L 556.888235 515.465662 
L 559.623529 513.682489 
L 562.358824 515.465662 
L 565.094118 517.248835 
L 567.829412 518.140422 
L 570.564706 519.923595 
L 573.3 518.140422 
L 576.035294 511.899316 
L 578.770588 508.332969 
L 581.505882 514.574075 
L 584.241176 507.441383 
L 586.976471 512.790902 
L 589.711765 516.357249 
L 592.447059 503.875037 
L 595.182353 517.248835 
L 597.917647 494.959171 
L 600.652941 494.959171 
L 603.388235 471.77792 
L 606.123529 490.501238 
L 608.858824 452.163015 
L 611.594118 418.282726 
L 614.329412 425.415418 
L 617.064706 377.269743 
L 619.8 350.522146 
L 622.535294 321.991376 
L 625.270588 286.327913 
L 628.005882 270.279355 
L 630.741176 255.122383 
L 633.476471 219.45892 
L 636.211765 168.638485 
L 638.947059 182.903871 
L 641.682353 131.191849 
L 644.417647 148.131994 
L 647.152941 120.492811 
L 649.888235 105.335839 
L 652.623529 173.988005 
L 655.358824 94.6368 
L 658.094118 154.3731 
L 660.829412 127.625503 
L 663.564706 120.492811 
L 666.3 158.831033 
L 669.035294 145.457235 
L 671.770588 157.939447 
L 674.505882 190.036563 
L 677.241176 212.326228 
L 679.976471 216.78416 
L 682.711765 267.604595 
L 685.447059 254.230796 
L 688.182353 285.436326 
L 690.917647 290.785846 
L 693.652941 302.376471 
L 696.388235 366.570704 
L 699.123529 348.738973 
L 701.858824 365.679118 
L 704.594118 358.546425 
" style="fill:none;stroke:#1f77b4;stroke-linecap:square;stroke-width:1.5;"/>
   </g>
   <g id="line2d_36">
    <path clip-path="url(#p98904d3617)" d="M 540.476471 522.0288 
L 549.347695 521.787437 
L 555.097562 521.417328 
L 559.533174 520.911196 
L 563.147377 520.276273 
L 566.268733 519.501141 
L 569.061526 518.572237 
L 571.525755 517.519656 
L 573.825702 516.296603 
L 575.961367 514.913315 
L 578.097032 513.250777 
L 580.068415 511.430187 
L 582.039799 509.296272 
L 584.011182 506.808344 
L 585.818283 504.179829 
L 587.625384 501.182515 
L 589.432485 497.780173 
L 591.403869 493.563019 
L 593.375252 488.771149 
L 595.346635 483.356384 
L 597.318018 477.271971 
L 599.289401 470.473751 
L 601.425066 462.256907 
L 603.560731 453.111001 
L 605.696396 443.001335 
L 607.996343 431.010108 
L 610.460572 416.881143 
L 612.924801 401.441987 
L 615.553312 383.584043 
L 618.510387 361.908494 
L 621.796025 336.122896 
L 625.903074 302.016205 
L 637.238527 206.668784 
L 640.195601 184.273352 
L 642.65983 167.249908 
L 644.795495 153.975228 
L 646.766879 143.12267 
L 648.409698 135.212467 
L 649.888235 129.039633 
L 651.366773 123.812116 
L 652.681028 119.991595 
L 653.831002 117.305859 
L 654.816693 115.502233 
L 655.802385 114.165371 
L 656.623794 113.411277 
L 657.445204 112.986405 
L 658.102332 112.884265 
L 658.759459 112.99366 
L 659.416587 113.314419 
L 660.237997 114.01181 
L 661.059406 115.036971 
L 662.045098 116.696277 
L 663.03079 118.818203 
L 664.180763 121.868606 
L 665.495019 126.09503 
L 666.809274 131.086271 
L 668.287811 137.577936 
L 669.930631 145.821406 
L 671.737732 156.053932 
L 673.709115 168.479973 
L 676.009062 184.436556 
L 678.637573 204.267384 
L 681.923211 230.834374 
L 687.015951 274.109184 
L 693.587228 329.626399 
L 697.201431 358.319492 
L 700.322787 381.415867 
L 703.11558 400.514902 
L 704.594118 409.977927 
L 704.594118 409.977927 
" style="fill:none;stroke:#ff7f0e;stroke-linecap:square;stroke-width:1.5;"/>
   </g>
   <g id="patch_15">
    <path d="M 532.270588 543.3984 
L 532.270588 73.2672 
" style="fill:none;stroke:#000000;stroke-linecap:square;stroke-linejoin:miter;stroke-width:0.8;"/>
   </g>
   <g id="patch_16">
    <path d="M 712.8 543.3984 
L 712.8 73.2672 
" style="fill:none;stroke:#000000;stroke-linecap:square;stroke-linejoin:miter;stroke-width:0.8;"/>
   </g>
   <g id="patch_17">
    <path d="M 532.270588 543.3984 
L 712.8 543.3984 
" style="fill:none;stroke:#000000;stroke-linecap:square;stroke-linejoin:miter;stroke-width:0.8;"/>
   </g>
   <g id="patch_18">
    <path d="M 532.270588 73.2672 
L 712.8 73.2672 
" style="fill:none;stroke:#000000;stroke-linecap:square;stroke-linejoin:miter;stroke-width:0.8;"/>
   </g>
   <g id="text_35">
    <g id="patch_19">
     <path d="M 541.297059 152.32401 
L 627.472059 152.32401 
Q 631.072059 152.32401 631.072059 148.72401 
L 631.072059 96.77376 
Q 631.072059 93.17376 627.472059 93.17376 
L 541.297059 93.17376 
Q 537.697059 93.17376 537.697059 96.77376 
L 537.697059 148.72401 
Q 537.697059 152.32401 541.297059 152.32401 
z
" style="fill:#f5deb3;opacity:0.5;stroke:#000000;stroke-linejoin:miter;"/>
    </g>
    <!-- a=21.425 -->
    <g transform="translate(541.297059 105.891885)scale(0.12 -0.12)">
     <use xlink:href="#DejaVuSans-61"/>
     <use x="61.279297" xlink:href="#DejaVuSans-3d"/>
     <use x="145.068359" xlink:href="#DejaVuSans-32"/>
     <use x="208.691406" xlink:href="#DejaVuSans-31"/>
     <use x="272.314453" xlink:href="#DejaVuSans-2e"/>
     <use x="304.101562" xlink:href="#DejaVuSans-34"/>
     <use x="367.724609" xlink:href="#DejaVuSans-32"/>
     <use x="431.347656" xlink:href="#DejaVuSans-35"/>
    </g>
    <!-- $\mu$=7.166 -->
    <g transform="translate(541.297059 119.32926)scale(0.12 -0.12)">
     <use transform="translate(0 0.78125)" xlink:href="#DejaVuSans-Oblique-3bc"/>
     <use transform="translate(63.623047 0.78125)" xlink:href="#DejaVuSans-3d"/>
     <use transform="translate(147.412109 0.78125)" xlink:href="#DejaVuSans-37"/>
     <use transform="translate(211.035156 0.78125)" xlink:href="#DejaVuSans-2e"/>
     <use transform="translate(242.822266 0.78125)" xlink:href="#DejaVuSans-31"/>
     <use transform="translate(306.445312 0.78125)" xlink:href="#DejaVuSans-36"/>
     <use transform="translate(370.068359 0.78125)" xlink:href="#DejaVuSans-36"/>
    </g>
    <!-- $\sigma$=1.761 -->
    <g transform="translate(541.297059 132.79101)scale(0.12 -0.12)">
     <use transform="translate(0 0.78125)" xlink:href="#DejaVuSans-Oblique-3c3"/>
     <use transform="translate(63.378906 0.78125)" xlink:href="#DejaVuSans-3d"/>
     <use transform="translate(147.167969 0.78125)" xlink:href="#DejaVuSans-31"/>
     <use transform="translate(210.791016 0.78125)" xlink:href="#DejaVuSans-2e"/>
     <use transform="translate(242.46875 0.78125)" xlink:href="#DejaVuSans-37"/>
     <use transform="translate(306.091797 0.78125)" xlink:href="#DejaVuSans-36"/>
     <use transform="translate(369.714844 0.78125)" xlink:href="#DejaVuSans-31"/>
    </g>
    <!-- offset=34.522 -->
    <g transform="translate(541.297059 146.228385)scale(0.12 -0.12)">
     <use xlink:href="#DejaVuSans-6f"/>
     <use x="61.181641" xlink:href="#DejaVuSans-66"/>
     <use x="96.386719" xlink:href="#DejaVuSans-66"/>
     <use x="131.591797" xlink:href="#DejaVuSans-73"/>
     <use x="183.691406" xlink:href="#DejaVuSans-65"/>
     <use x="245.214844" xlink:href="#DejaVuSans-74"/>
     <use x="284.423828" xlink:href="#DejaVuSans-3d"/>
     <use x="368.212891" xlink:href="#DejaVuSans-33"/>
     <use x="431.835938" xlink:href="#DejaVuSans-34"/>
     <use x="495.458984" xlink:href="#DejaVuSans-2e"/>
     <use x="527.246094" xlink:href="#DejaVuSans-35"/>
     <use x="590.869141" xlink:href="#DejaVuSans-32"/>
     <use x="654.492188" xlink:href="#DejaVuSans-32"/>
    </g>
   </g>
   <g id="text_36">
    <!-- Z Axis -->
    <defs>
     <path d="M 5.609375 72.90625 
L 62.890625 72.90625 
L 62.890625 65.375 
L 16.796875 8.296875 
L 64.015625 8.296875 
L 64.015625 0 
L 4.5 0 
L 4.5 7.515625 
L 50.59375 64.59375 
L 5.609375 64.59375 
z
" id="DejaVuSans-5a"/>
    </defs>
    <g transform="translate(604.070294 67.2672)scale(0.12 -0.12)">
     <use xlink:href="#DejaVuSans-5a"/>
     <use x="68.505859" xlink:href="#DejaVuSans-20"/>
     <use x="100.292969" xlink:href="#DejaVuSans-41"/>
     <use x="168.701172" xlink:href="#DejaVuSans-78"/>
     <use x="227.880859" xlink:href="#DejaVuSans-69"/>
     <use x="255.664062" xlink:href="#DejaVuSans-73"/>
    </g>
   </g>
  </g>
 </g>
 <defs>
  <clipPath id="pd2a5e2b4d1">
   <rect height="470.1312" width="180.529412" x="99" y="73.2672"/>
  </clipPath>
  <clipPath id="p2820b8c41a">
   <rect height="470.1312" width="180.529412" x="315.635294" y="73.2672"/>
  </clipPath>
  <clipPath id="p98904d3617">
   <rect height="470.1312" width="180.529412" x="532.270588" y="73.2672"/>
  </clipPath>
 </defs>
</svg>
